<svg xmlns="http://www.w3.org/2000/svg" viewBox="0 0 794.3 402"><style>.crush-fill{fill:#700022}</style><path d="M44.1 144.6c2.8-1.6 8.6-2.1 17.4-1.8 8.8.4 15.1 1.5 18.9 3.3l7.5 3.1c6.2 5.5 9.7 8.2 10.5 8.2 8.2 8.3 12.9 19.2 14.1 32.8 1.2 5.7 1.4 10.9.6 15.6 0 1.6-.4 4.9-1.2 10.1l-3 9-3.6 6.6c-1.2.3-1.9.4-2.1.4-7.4 1.6-13.1 1.8-17.1.6-4-1.2-7.5-4-10.5-8.4-.6-1.6-.9-3-.9-4.3.2-1.3.5-2.5.9-3.5l1.5-6.2c2.6-8.3 2.4-15.3-.6-21.1 0-.8-1-2.2-3-4.3-2-2.1-3.6-3.6-4.6-4.7-1.1-1-3.1-1.2-5.9-.4-4.8 2.6-8.9 10.5-12.3 23.8-4 6.8-6.8 15.6-8.4 26.5-2.4 19.5-3.6 30.6-3.6 33.1l-.3 8.6v3.5c-.4.5-.2 11.8.6 33.9.2 1.3.6 3.1 1.2 5.5.6 2.9 1.5 7.5 2.7 14l3.9 8.6c1 .8 2.3 3.1 3.9 7 1 0 1.8.9 2.4 2.7 1.4 1.8 2 2.9 1.8 3.1 1 .3 2.5 1 4.5 2.3 5.4 3.6 10.1 2.9 14.1-2.3 1.4-1.8 3.1-4.4 5.2-7.6 2.1-3.2 3.7-5.9 4.8-7.8 1.1-2 2.9-3.8 5.2-5.7 6.6-6.5 12.3-6.2 17.1.8 1 2.1 1.1 7.1.5 15-.7 7.9-3.6 16.2-8.6 24.8-.4 1.6-1.7 4.1-3.9 7.6s-4.5 6.3-6.9 8.4c-.4 1.8-8 3.1-22.8 3.9-.8 0-2.4-.3-4.8-.8-2.2.8-5.2.4-8.9-1.2s-5.8-2.3-6.1-2.3l-3.9-1.2c-1.6 0-3.2-.7-4.8-1.9-1.6-1.3-4.3-3.6-8-6.8-3.7-3.2-6.6-5.9-8.5-8-6-6.2-10.3-13.4-12.9-21.4-.8-1.8-1.3-4.4-1.5-7.6-.2-3.2-.6-5.7-1.2-7.2-1.6-2.1-2.4-5.5-2.2-10.1.1-4.7-.1-10.4-.8-17.2 0-3.1.1-4.9.3-5.5-1-1.3-1.4-3.6-1.2-6.8.2-3.2.3-7.7.3-13.5.6-1.6.8-6.2.8-13.8-.1-7.7 0-13.5.5-17.4-.8-2.3-.9-5.7-.3-10.1l.3-11.7c.2-4.7 1.1-9.6 2.7-14.8.2-2.3.6-5.1 1.2-8.4.6-3.2 3.2-9.8 7.8-19.7 0-2.1 1.5-4.7 4.5-7.8 0-1 .8-2.6 2.4-4.7 1.6-2.1 3.4-4.7 5.4-7.8 2.8-4.4 5.9-7.7 9.3-9.8 3.4-1.9 6.6-4.4 9.6-7.2zM181.2 290c-1.6 1-2.6 1.6-3 1.6-.2.8-.3 2.2-.3 4.3v4.7c0 1.8-.9 7.4-2.7 16.8v3.9c0 3.9-.5 7-1.5 9.4l-1.2 17.2-1.8 9.8c-.4 1.6-.4 3-.1 4.3.3 1.3.6 6 .9 14.2.3 8.2 0 14.1-.8 17.7l-1.8 3.5c-4 1.6-6.6 2-7.8 1.2-1.2-.8-3.2-1.3-6-1.6-2.8-.3-4.4-.5-4.7-.6-.3-.1-1.3-.7-3-1.6-1.7-.9-2.8-1.6-3.3-2.1s-1.3-1.3-2.2-2.3c-2.6-2.3-3.9-7.4-3.9-15.2-.4-1.6-.3-3.4.3-5.5-1.2-.8-1.6-2.9-1.2-6.2.6-1.6.9-4 .9-7.4 0-3.4.3-6.1.9-8.2v-6.2c0-2.3.7-7.1 2.1-14.4 0-2.1.3-3.9.9-5.5-.4-.5.1-2.7 1.5-6.6-.4-.8.1-4.5 1.5-11.3-.6-.8-.7-3.2-.3-7.2.4-4 .9-7.2 1.5-9.6 0-4.9.3-7.9.9-9-.2-.8-.5-3.2-.9-7.4l.6-4.7c0-3.1.9-7.9 2.7-14.4 1.6-14.8 2.4-22.9 2.4-24.2 2.8-15.1 4.2-24.4 4.2-28.1.6-.3 1.2-2.8 1.8-7.6.6-4.8.4-8.3-.6-10.3-9 4.4-16.5 9.6-22.5 15.6-4 4.4-6.7 6.1-8.1 5.1-2.8-2.1-4.2-5.1-4.2-9l-1.2-6.2c-.2-.3-.8-1.8-1.6-4.5s-1.3-4.7-1.2-6c.1-1.3 0-3.1-.3-5.3-.3-2.2-.2-3.7.1-4.5 1.8-4.4 4.2-7.7 7.2-9.8l7.2-6.6 5.1-3.9c.4 0 4.2-2.7 11.4-8.2.4-1 1.9-1.9 4.5-2.7 2.6-.8 8.4-3.1 17.4-7 6-.8 9.5-1.2 10.5-1.2 6.4-1 11.8-.3 16.2 2.3 3 1 4.7 1.5 5.2 1.4.5-.1 1.2-.1 2.1.2.9.3 1.5.4 2 .4 0 .5.9.8 2.7.8l5.7 2.7c1 0 2.3.7 3.9 2 1.2-.3 2.9.3 5 1.8 2.1 1.4 5.2 3.4 9.3 6 4.1 2.6 6.1 4.8 6.1 6.6 1.2.5 2.5 1.9 3.9 4.3l3.6 4.7 5.7 9.8c.4.3 1.3 1.6 2.7 3.9 2 4.4 3.1 7 3.3 7.8.2.8.4 1.5.6 2.1.2.7 1 2.9 2.4 6.8 2.8 7.3 3.9 13.7 3.3 19.1 0 .3-1 4.3-3 12.1-3.6 13.8-9.1 24.7-16.5 32.8-1.6 1.6-3.7 3.6-6.3 6-2.6 2.5-4.7 4.6-6.3 6.4-7.6 6-12.1 9.8-13.4 11.3-1.3 1.6-2.5 2.9-3.5 3.9l-3.3 1.9.6 2.3c0-1 .5-.6 1.6 1.4s1.8 3.4 2.2 4.5c0 1.3 1 2.9 3 4.7.4-.3.9 0 1.5.8 1.2 1.6 1.8 4 1.8 7.4 1.4 1 3.5 4.2 6.3 9.4 2.8 2.6 5.2 6.2 7.2 10.9 1.4 2.1 2.5 3.5 3.3 4.3.8 1.6 2.4 3.6 4.8 6.2s4 4.4 4.8 5.3c.8.9 1.7 1.9 2.7 2.9 3.6 3.6 6.1 6.4 7.5 8.2l3.6 3.1c7.4 9.4 11.3 14.4 11.7 15.2-.2 1.8-1.6 4.6-4.2 8.2-.2 4.2-4.8 7.7-13.8 10.5-3 0-7.1-1.8-12.3-5.3-5.2-3.5-9.2-7.2-12-11.1-8.8-8.3-14.6-14.8-17.4-19.5-8.2-10.7-14.1-20.9-17.7-30.8-.8-.8-1.8-2.1-2.9-3.9-1.1-1.8-2.2-3.2-3.1-4.3l-3.9-9.8-5.4-9.8-1.6-5.1zm5.7-75.6c-1.4 8.8-2.1 16.5-2.1 23-.4 3.6-.9 6.1-1.4 7.4-.5 1.3-.8 4.3-.8 9s1.1 7.4 3.3 8.2c2.2 0 5.4-1.6 9.6-4.7l6.3-7.4c2.2-2.3 7.3-6.6 15.3-12.9l7.5-9.4 3-5.1 1.2-3.5c1.6-3.4 2.1-6.9 1.5-10.5l-.6-6.6c-1.4-8.1-2.4-12.8-2.9-14.2-.5-1.4-1.3-3-2.2-4.7-1-1.7-2.1-3.2-3.3-4.5-1.2-1.3-1.9-2.2-2.1-2.7l-9.3-5.9c-.2-.3-1.4-.6-3.6-1.2-3.4-1.8-8.2-2.1-14.4-.8l-1.8 12.5c0 1.6-.6 4.3-1.6 8.2-1.1 3.9-1.4 6.8-.8 8.6-.2.8-.3 2.3-.3 4.5s-.2 5.1-.6 8.8v3.9zm101.4 135.7c-.8-1-1.6-3.5-2.2-7.4-.7-3.9-1-7.5-.9-10.9.1-3.4-.1-7.8-.8-13.3.2-1 .3-4 .3-8.8 0-4.8-.2-9.6-.6-14.4-.4-4.8-.6-8.7-.4-11.7.1-3 0-6.3-.1-9.9.2-1.8.6-4.9 1.2-9.4-.2-.3-.3-3.6-.3-9.9 0-6.4.4-11.5 1.2-15.4 0-7.3.5-15.2 1.5-23.8v-6.6c1.4-11.2 2.3-19.1 2.7-23.8.2-5.7.8-10.4 1.8-14-.8-3.4.1-10.7 2.7-21.8.8-2.6 3.5-5.1 8.1-7.4l-.3.4c1.2-1 3.7-1.4 7.5-1.2 3.8.3 6.3.8 7.7 1.6 1.3.8 3.6 1.8 7 3.1 4.6 1.6 5.8 16 3.6 43.3 0 2.6-.6 9.1-1.8 19.5 0 5.2-.3 10.5-.9 16v7.4l-.6 9.8c0 2.3-.1 4.6-.1 6.6-.1 2.1-.2 5.3-.3 9.6-.1 4.3-.4 7.6-.9 9.9-.5 2.3-.8 3.9-.8 4.7-.6.8-1 3-1.2 6.6-.2 4.4-.8 9.8-1.8 16-1 2.3-.6 16 1.2 40.9.4 7.8 1.8 12.9 4.2 15.4 2.4 2.5 5.7 1.8 9.9-2.1 1.2-1.6 1.9-2.6 2.1-3.1l1.2-5.9c.8 0 1.9-2.6 3.3-7.8l3.3-7.8.9-4.7c0-2.1.8-5 2.6-8.8 1.7-3.8 2.7-6.3 3.1-7.6l4.5-19.5 1.8-9.8c0-1.6.8-4.4 2.4-8.6 0-1.3.5-4.7 1.5-10.1 0-4.9-.1-8.4-.3-10.5.2 0 .3-.8.5-2.3.1-1.6.6-4.1 1.5-7.6s1.4-7.9 1.4-13.1c0-.8.9-3.4 2.7-7.8 0-6.8 1.9-15.7 5.7-26.9-.2.3-.2 0 0-.8.2-1 .3-1.9.4-2.5.1-.6.2-1.4.5-2.1.2-.8.3-1.6.3-2.3-.6-1.6-.5-3.5.3-5.8s1.5-4.8 2.1-7.4c.6-2.6 1.3-5.2 2.1-7.8l7.2-6.2c1 0 2.3-.2 4-.6 1.7-.4 5.6-.3 11.9.2 2.4 1 4.3 3.9 5.7 8.6 2.2 4.4 2.5 10.9.9 19.5 0 1.8-.8 8.2-2.4 19.1 0 1.8-.6 6.1-1.8 12.9-1.2 6.8-2.1 12.8-2.6 18.1-.5 5.3-1 8.9-1.6 10.7-.4 3.6-.5 6.6-.3 9l-1.8 16.8c0 4.2-.3 10.4-.9 18.7-.6 8.3-1.3 14.8-2 19.3-.7 4.6.2 13.6 2.9 27.1l3.6 25.4c0 3.9 1 8.6 3 14v2c5.6 14.3 3.7 22.6-5.7 25-4.6 1.6-7.4 2.7-8.4 3.3-1 .6-3.1.4-6.5-.8-3.3-1.2-6.4-3.6-9.1-7.2-.8-1.6-1.9-6.2-3.3-14-.6-1.6-1.3-6.1-2.1-13.6-.6-.8-1.3-3.8-2.1-9 .4-1 0-2.7-1.2-5.1-1.4 3.6-2.4 6-3 7-1.4 2.9-2.2 4.9-2.6 6-.3 1.2-1 3.8-2.2 8l-5.4 12.5c-4.2 10.1-9.4 14.7-15.6 13.6-.2-.3-2.2-.5-6-.8-.8-1-3.6-1.9-8.4-2.7-.8-.3-1.8-.5-3-.6-1.2-.1-2.8-.3-4.8-.6-.4-.8-1.9-2.2-4.5-4.3-6-2.9-10.1-6.8-12.3-11.7-1.8-.5-3.1-2.3-3.9-5.5-.4-1.6-1.7-5.2-3.9-10.9l-2.3-11.6zm208.8 33.5l-7.5.8c-6.4 1.8-17.6-1.6-33.6-10.1-.8 0-1.2.1-1.2.4-7-4.9-11.5-8.7-13.5-11.3-7.6-14.8-11.5-26.4-11.7-34.7 0-1.3 1.7-4.4 5.1-9.4.2-.8 1.7-2.1 4.7-3.9 2.9-1.8 5.6-2.9 8-3.1 3.2.5 5.4 1.8 6.6 3.9l6.3 10.9 3.3 4.7 5.4 5.9 4.2 5.5 6 6.2c.8.5 1.5.8 2.2 1 .7.1 2.1.4 4.2.8s3.6.3 4.6-.2c1-.5 2.3-1.1 3.9-1.8 1.6-.6 3-1.4 4.2-2.1 2.6-3.4 4.2-5.3 4.8-5.9l3.9-6.2c.4-.5 1-2.7 1.8-6.6 0-3.4 0-5.6.2-6.6.1-1 0-2-.2-2.9-.2-.9-.4-2-.6-3.3-.2-1.3-.4-2.4-.6-3.3-.2-.9-1.7-2.9-4.5-6-1.2-3.1-2.9-6.4-5.1-9.8-.6-.8-5.5-4-14.7-9.8l-9-6.2-5.4-5.9c-3.2-1.3-6-3.4-8.2-6.2-2.3-2.9-3.7-4.4-4.1-4.7-2.8-1.3-7.5-6.6-14.1-16 0-.3-1.8-5.1-5.4-14.4l-3.3-15.2L435 208c-1.6-5.2-2.2-10.3-1.8-15.2.8-1.6 1.7-4.7 2.7-9.4-.4-2.3.3-6 2.2-11.1 1.9-5.1 3.1-8.1 3.8-9.2.6-1 1.1-2.1 1.5-3.1 0-1.8 4.3-8.3 12.9-19.5L471 130c10.8-1.6 17.7-2.3 20.7-2.3 7 .8 11.8 2.1 14.4 3.9 4.4 3.6 7.8 6.6 10.2 9 8.8 9.9 13.8 18.7 15 26.5 4.2 14.6 4.8 28.7 1.8 42.5 0 1.3-2.8 3.5-8.4 6.6h-7.5c-3.2 0-6.1-.8-8.7-2.5-2.6-1.7-5.9-4.9-9.9-9.6-1.6-1-2.9-4.5-3.9-10.5-.2-6.2-1.3-10-3.3-11.3-.2-.3-1-2.6-2.4-7l-3.3-4.7c-1.4-2.3-2.7-3.5-3.8-3.5-1.1 0-2.4.5-3.8 1.6-2.8 2.9-5.2 6.6-7.3 11.3-2.1 4.7-3.2 9.9-3.3 15.6-.1 5.7.1 10.1.8 13.3.6 3.1 2.2 7.1 4.8 11.9 2.6 4.8 4.2 7.2 4.8 7.2.6 1.3 4.5 6.2 11.7 14.8l12.9 11.7 5.1 6.2 6 4.7c3.2 1.6 6.4 3.8 9.6 6.8 3.2 3 5.2 5.4 6 7.2l4.5 5.9 4.5 8.2c1.2 1.8 3 8.7 5.4 20.7l.6 15.2-1.5 9c-.6.8-1.6 3.5-3 8.2.2.8-.8 4.3-3 10.5-.6 1.6-3 4.5-7 8.8-4.1 4.3-6.6 6.7-7.4 7.2-.2.8-2.2 2.1-6 3.9-.6.8-2.4 1.8-5.2 2.9-2.9 1.2-5.8 1.6-8.5 1.4l-5.5 2.3zm73.5-67c.4-.8.4-2.6 0-5.5-.8-9.4-.9-15.9-.3-19.5-.8-14-1-22.2-.8-24.6.3-2.3.8-3.6 1.7-3.9-.8-1.6-1.6-7.3-2.2-17.2-.7-9.9-.9-16.5-.5-19.9-.4-2.1-.5-4.6-.3-7.6s.5-5 .9-6c-.4-.5-.7-2.5-.9-5.8V189l.6-10.1v-8.6l1.8-12.1c-.6-1.3-.1-3.6 1.5-7-2-5.5.1-12.2 6.3-20.3.2-.5 2.5-2.2 6.9-5.1 3.6-.3 6-.3 7.3 0 1.3.3 3.3.5 6 .8 2.7.3 4.7.7 6.2 1.2 3.6 1.6 5.4 5.7 5.4 12.5v6.6c.4 9.4.6 16.4.6 21.1v8.6c0 3.4-.2 5.3-.6 5.9.2 1 .2 3.5 0 7.4v6.6c-.6 8.1-.8 12.7-.6 14l-2.1 20.7c1.6.8 7.3 1.2 17.1 1.2h15c8.8 0 14.3-.1 16.7-.2 2.3-.1 3.8-1 4.5-2.5.7-1.6 1.2-3.6 1.6-6.2.4-2.6.7-5.6.9-9 .2-3.4.4-5.5.6-6.2 1.2-1.3 1.5-6.9.9-16.8 0-.8.4-2.7 1.2-5.9 0-3.6.4-7.8 1.2-12.5 0-4.9.6-9.3 1.9-13.1 1.3-3.8 2.2-7 2.9-9.6 1-4.4 3.4-8.2 7.2-11.3 5-4.7 9.8-7.7 14.4-9h5.4c5.4 1.3 7.2 7.9 5.4 19.9 0 3.9-.8 9-2.4 15.2-1.8 12.2-2.7 20.2-2.7 23.8 0 3.6-.8 10.3-2.4 19.9.4 4.9.5 8.2.2 9.8s-.5 3.5-.5 5.8c-.4 5.7-.6 9.6-.6 11.7-.4 7.8-.6 14-.6 18.7 0 4.7-.3 9.8-.9 15.2 0 5.5-.7 11.1-2.1 16.8l-.9 25c0 1.8.7 15.2 2.1 40.2 1.2 1.6 1.6 4.6 1.2 9.2-.4 4.6-1.1 7.7-2.1 9.6-1 1.8-2.1 2.9-3.2 3.1-1.1.3-2.8.4-5 .4-4.6 3.4-8.3 4.7-11.1 3.9-2.4 0-4.9-1-7.5-3.1-4.2-2.9-6.9-6.4-8.1-10.5 0-1.8-.3-4-.8-6.6-.5-2.6-.6-5.4-.1-8.4.4-3 .5-6.2.5-9.6-.1-3.4-.2-7.3-.2-11.7l.3-4.7c-.4-1-.2-2.7.6-5.1.8-2.3.9-4.2.3-5.5v-10.5l1.5-19.9c-2-1.8-2.1-6.1-.3-12.9l.6-3.1c-2.4.8-4.6 1.2-6.6 1.2-5.6 1.8-11.8 2.7-18.6 2.7l-27-1.2v4.3c-.4 4.2-.5 10.4-.3 18.7v7.4c.2 6.8.3 16.4.3 28.9.8 13.5 1.2 23.3 1.2 29.2l-.3 2.7c0 2.1-.2 3.9-.6 5.5 0 4.9-1 8.3-2.8 10.1-1.9 1.8-5 3-9.2 3.5-4.2.5-8-.9-11.4-4.3-4.8-3.1-7.3-5.7-7.5-7.8-.2-2.1-.8-4.8-1.8-8.2-1-2.1-1.7-4.5-2.1-7.4 0-8.3-.1-13-.3-14-.6-1-.9-2.9-.9-5.5.1-3.3-.5-8.7-1.7-15.9zm153.9 40.6c.7-3.5 2.7-7.2 6-11.2 3.3-4 6.7-6 10.2-6 3.5 0 6.5-.7 9.2-2.1 2.7-1.4 5.1-2.1 7.4-2.1 2.3 0 5.9.8 10.8 2.3 4.9 1.6 8.3 2.5 10 2.9 1.7.3 3.2.7 4.4 1 1.2.3 2.4 1.6 3.6 3.6 1.2 2.1 1.8 4.7 1.8 7.8-4 23.2-10.4 38-19.2 44.2l-12 2.6c-3.5 0-7.3-2.4-11.6-7.3-8.5-1-12.8-3.6-12.8-7.8 0-.7-1.5-3.3-4.4-7.8-2.9-4.5-4.4-8.1-4.4-10.9 0-2.6.3-5.7 1-9.2zm68.2-343.7l-3.6 39c-1.1 17.7-3.6 50.8-7.6 99.3-4 48.5-6 81.6-6 99.1s.8 28.9 2.4 34.1c-2.9 6.6-6.7 9.9-11.2 9.9-2.4 0-4.4-.3-6-1-1.6-.7-2.7-1-3.2-1h-1.6l-1.6-.5c-6.1-12.5-9.6-23.6-10.4-33.3-4.5-14.2-7-23.3-7.4-27.3-.4-4-1-6.7-1.8-8.1-.8-14.6-1.2-22.4-1.2-23.4v-21.8c1.1-8.7 1.6-17.7 1.6-27v-7.8c0-6.9 1.1-17.1 3.2-30.4 2.1-13.3 3.2-24.4 3.2-33.3s2.1-19.2 6.2-30.9c4.1-11.8 6.9-20.1 8.4-25 1.5-4.9 2.5-8.3 3-10.4.5-2.1 1.2-4 2-5.7 1.3-2.8 3.1-4.2 5.2-4.2 4-2.1 6.8-3.1 8.4-3.1 12-.2 18 4.2 18 12.8z" class="crush-fill" id="Objects"/></svg>