<svg xmlns="http://www.w3.org/2000/svg" viewBox="0 0 840 1195.5"><style>.girl-with-girl{fill:#a53e19}</style><g id="Objects"><path d="M20.2 263.1c-.5-18.2-1.4-35-2.6-50.3-1.2-15.4-2.5-28.8-3.8-40.3s-2.4-20.8-3.4-27.9c-1-7.1-1.5-11.6-1.5-13.3 0-2.6.6-5.1 1.7-7.6s2.6-4.6 4.3-6.5c1.7-1.8 3.6-3.3 5.6-4.4 2-1.1 3.8-1.6 5.4-1.6 1.3 0 2.5.4 3.5 1.2 1 .8 1.7 2.2 2.1 4.1.4 2.3.8 4.8 1.1 7.3.4 2.5.7 5.6 1.1 9.1.5 5.1 1.1 7.6 1.9 7.6.9 0 1.8-2.3 2.9-6.8 1.6-6.3 3.2-11.5 5-15.6 1.8-4.1 3.7-7.3 5.8-9.7 2.1-2.4 4.2-4.1 6.4-5 2.2-1 4.6-1.4 7-1.4 7.3 0 13.6 5.1 18.7 15.2s9.1 24.7 12 43.9c.4 2.2.7 3.6 1.1 4.2.3.6.7.9 1.1.9.4 0 .8-.3 1.2-.9.4-.6.8-1.9 1.2-3.8 1.9-8.9 4.1-16.4 6.6-22.7 2.5-6.2 5.1-11.3 7.8-15.2s5.4-6.7 8.3-8.5c2.8-1.8 5.5-2.7 8.1-2.7 4.8 0 9.1 3 12.9 9.1 3.9 6.1 7.3 15.5 10.3 28.1 3 12.6 5.6 28.6 7.9 48 2.2 19.3 4.1 42.3 5.6 68.8 0 7.4-1.3 12.5-3.9 15.5-2.6 2.9-6.1 4.4-10.5 4.4-2.9 0-5.2-1.1-6.8-3.3-1.6-2.2-2.6-5.1-2.8-8.6-1-19-2.1-35.9-3.3-50.8-1.2-14.8-2.5-27.3-3.9-37.5s-2.9-17.9-4.6-23.3c-1.7-5.3-3.5-8-5.6-8-1 0-2.3 1.3-3.8 3.9-1.5 2.6-3.1 7.4-4.9 14.3-1.7 6.9-3.5 16.3-5.4 28.3-1.9 12-3.7 27.2-5.4 45.8-.5 5.2-1.9 9.2-4.3 11.9-2.4 2.7-5.3 4.1-8.7 4.1-4 0-6.7-1.1-8.3-3.3-1.5-2.2-2.4-5.9-2.5-11.1-.3-9-.8-18-1.6-27-.7-9-1.7-17.5-2.8-25.6-1.1-8.1-2.3-15.7-3.6-22.6-1.3-6.9-2.7-12.9-4.2-18s-3-9.1-4.6-12c-1.6-2.9-3.1-4.3-4.6-4.3-2 0-3.8 2.4-5.7 7.2-1.8 4.8-3.5 11.6-4.9 20.3-1.4 8.8-2.6 19.3-3.5 31.6-.9 12.3-1.3 26-1.3 41.2 0 2.6 0 5.2.1 7.7s.1 5.2.1 7.9c0 4.1-.4 7.5-1.1 10-.7 2.6-1.8 4.6-3.2 6.2-1.4 1.5-2.9 2.5-4.7 3.1-1.8.5-3.8.8-5.9.8-2 0-3.5-.2-4.7-.7-1.2-.5-2.1-1.2-2.7-2.2-.6-1-1.1-2.2-1.3-3.8-.2-1.6-.4-3.4-.4-5.4zm177.5-218c-2.3 0-4.4-.6-6.4-1.7-2-1.2-3.7-2.8-5.2-4.9-1.4-2.1-2.6-4.6-3.5-7.5-.9-2.9-1.3-6-1.3-9.4 0-5.7 1.3-10.4 3.9-13.9 2.6-3.6 6.1-5.3 10.5-5.3 2 0 4 .7 5.9 1.9 1.9 1.3 3.5 3 5 5.2 1.4 2.2 2.6 4.8 3.5 7.7.9 2.9 1.3 6 1.3 9.1 0 5.9-1.2 10.5-3.7 13.8-2.4 3.3-5.8 5-10 5zm-16.1 62.5c0-4.8 1.2-8.7 3.6-11.8 2.4-3.1 5.5-4.6 9.4-4.6 7 0 10.8 4.2 11.2 12.7.3 5.9.6 12.5 1 19.9s.7 15.2 1.1 23.5c.4 8.3.7 16.8.9 25.6.3 8.8.5 17.5.8 26 .2 8.5.4 16.8.6 24.7.2 7.9.2 15.2.2 21.7 0 6.8-1.4 12-4.2 15.4-2.8 3.4-6.8 5.1-12.1 5.1-2.4 0-4.3-1-5.7-3-1.4-2-2.1-4.9-2.1-8.7 0-18.9-.3-36.5-.8-53s-1.1-31.1-1.6-44c-.6-12.8-1.1-23.5-1.6-32.1-.4-8.4-.7-14.2-.7-17.4zm52.5-18.8c0-2.1.5-4.1 1.5-6 1-2 2.3-3.8 4-5.3 1.6-1.6 3.5-2.9 5.6-3.9 2.1-1 4.2-1.5 6.3-1.5 1.2 0 2.2.5 3 1.6.8 1.1 1.5 3.2 2.2 6.3.6 3.1 1.2 7.4 1.7 12.9s1 12.8 1.5 21.6c.3 2.7.6 4.8.9 6.3.3 1.4.6 2.2 1.1 2.2.7 0 1.4-2.1 2.1-6.4 5.7-28.8 13.9-43.3 24.7-43.3 5 0 9.6 2.7 13.7 8.2 4.1 5.5 7.9 14.4 11.5 26.8 3.6 12.4 6.9 28.6 10.1 48.8 3.2 20.2 6.4 45 9.6 74.5.2 1.5.3 2.9.4 4.1.1 1.2.1 2.4.1 3.5 0 3.1-.4 5.8-1.2 8.1s-1.9 4.1-3.2 5.5c-1.3 1.4-2.8 2.5-4.5 3.3-1.6.8-3.3 1.1-4.9 1.1-3.3 0-5.6-.6-7.1-1.8-1.4-1.2-2.4-3.6-2.8-7-2.3-20.8-4.5-39.2-6.6-55.4-2.1-16.1-4.3-29.7-6.3-40.7-2.1-11-4.1-19.4-6.2-25.1-2-5.7-4.1-8.6-6.1-8.6s-3.9 2.2-5.7 6.7c-1.8 4.4-3.5 11.4-5.1 20.8s-3.2 21.4-4.7 35.9-3 31.8-4.4 51.9c-.4 5.5-2 9.8-4.7 13.1-2.7 3.3-6.2 4.9-10.4 4.9-2.8 0-5-1-6.4-3.1-1.5-2.1-2.3-4.9-2.5-8.4-.7-28.4-1.5-51.8-2.3-70.2-.8-18.4-1.6-33.2-2.3-44.3-.7-11.1-1.3-19.4-1.8-24.9-.5-5.6-.8-9.6-.8-12.2zm129.7-43.7c-2.3 0-4.4-.6-6.4-1.7-2-1.2-3.7-2.8-5.2-4.9-1.4-2.1-2.6-4.6-3.5-7.5-.9-2.9-1.3-6-1.3-9.4 0-5.7 1.3-10.4 3.9-13.9 2.6-3.6 6.1-5.3 10.5-5.3 2 0 4 .7 5.9 1.9 1.9 1.3 3.5 3 5 5.2 1.4 2.2 2.6 4.8 3.5 7.7.9 2.9 1.3 6 1.3 9.1 0 5.9-1.2 10.5-3.7 13.8-2.5 3.3-5.8 5-10 5zm-16.1 62.5c0-4.8 1.2-8.7 3.6-11.8 2.4-3.1 5.5-4.6 9.4-4.6 7 0 10.8 4.2 11.2 12.7.3 5.9.6 12.5 1 19.9s.7 15.2 1.1 23.5c.4 8.3.7 16.8.9 25.6.3 8.8.5 17.5.8 26 .2 8.5.4 16.8.6 24.7.2 7.9.2 15.2.2 21.7 0 6.8-1.4 12-4.2 15.4-2.8 3.4-6.8 5.1-12.1 5.1-2.4 0-4.3-1-5.7-3-1.4-2-2.1-4.9-2.1-8.7 0-18.9-.3-36.5-.8-53s-1.1-31.1-1.6-44c-.6-12.8-1.1-23.5-1.6-32.1-.5-8.4-.7-14.2-.7-17.4zm52.5-18.8c0-2.1.5-4.1 1.5-6 1-2 2.3-3.8 4-5.3 1.6-1.6 3.5-2.9 5.6-3.9 2.1-1 4.2-1.5 6.3-1.5 1.2 0 2.2.5 3 1.6.8 1.1 1.5 3.2 2.2 6.3.6 3.1 1.2 7.4 1.7 12.9s1 12.8 1.5 21.6c.3 2.7.6 4.8.9 6.3.3 1.4.6 2.2 1.1 2.2.7 0 1.4-2.1 2.1-6.4 5.7-28.8 13.9-43.3 24.7-43.3 5 0 9.6 2.7 13.7 8.2 4.1 5.5 7.9 14.4 11.5 26.8 3.6 12.4 6.9 28.6 10.1 48.8 3.2 20.2 6.4 45 9.6 74.5.2 1.5.3 2.9.4 4.1.1 1.2.1 2.4.1 3.5 0 3.1-.4 5.8-1.2 8.1s-1.9 4.1-3.2 5.5c-1.3 1.4-2.8 2.5-4.5 3.3-1.6.8-3.3 1.1-4.9 1.1-3.3 0-5.6-.6-7.1-1.8-1.4-1.2-2.4-3.6-2.8-7-2.3-20.8-4.5-39.2-6.6-55.4-2.1-16.1-4.3-29.7-6.3-40.7-2.1-11-4.1-19.4-6.2-25.1-2-5.7-4.1-8.6-6.1-8.6s-3.9 2.2-5.7 6.7c-1.8 4.4-3.5 11.4-5.1 20.8s-3.2 21.4-4.7 35.9-3 31.8-4.4 51.9c-.4 5.5-2 9.8-4.7 13.1-2.7 3.3-6.2 4.9-10.4 4.9-2.8 0-5-1-6.4-3.1-1.5-2.1-2.3-4.9-2.5-8.4-.7-28.4-1.5-51.8-2.3-70.2-.8-18.4-1.6-33.2-2.3-44.3-.7-11.1-1.3-19.4-1.8-24.9-.6-5.6-.8-9.6-.8-12.2zM585.8 75c4.3 0 8.4 1.2 12.4 3.5s7.5 5.5 10.5 9.6 5.5 9 7.3 14.8c1.8 5.7 2.8 12.1 2.8 19.1 0 2.9-.4 5.6-1.1 8.3-.7 2.7-1.7 5-3 7s-2.7 3.6-4.3 4.7c-1.6 1.2-3.3 1.7-5 1.7-.2 0-.3 0-.4.1-.1.1-.3.1-.4.1-.2.1-.3.2-.5.2l.5 16.4c.3 19.6 1.9 33.8 4.7 42.9 2.9 9 6.6 13.5 11.2 13.5 1.6 0 3.1-.3 4.4-.8 1.3-.5 2.5-1.2 3.6-1.9 1.1-.8 2.2-1.4 3.2-1.9s2-.8 3-.8c1.8 0 3.4 1.4 4.7 4.1 1.4 2.7 2.1 6 2.1 9.8 0 3.8-.8 7.7-2.5 11.5s-3.9 7.3-6.6 10.4c-2.7 3.1-5.8 5.6-9.3 7.5-3.4 1.9-6.9 2.9-10.4 2.9-6.1 0-11.4-4.4-16.1-13.2-4.6-8.8-7.9-21.8-9.8-38.9-.5-2.7-1.1-4.1-1.9-4.1-.9 0-1.8.8-2.5 2.5-7.7 17.1-16 29.9-24.7 38.5-8.8 8.5-17.4 12.8-25.9 12.8-4 0-7.6-1-10.8-3.1-3.2-2.1-5.9-5-8.1-8.7-2.2-3.8-3.9-8.3-5.2-13.7-1.2-5.4-1.8-11.4-1.8-18.1 0-9.4 1.2-19.3 3.6-29.7 2.4-10.4 5.6-20.6 9.7-30.8 4.1-10.1 8.8-19.8 14.1-28.9 5.4-9.2 11-17.2 16.9-24.2 5.9-7 11.9-12.5 18-16.6s12.1-6.5 17.6-6.5zm-3.8 71c1.4-4.6 2.7-8 3.9-10.2 1.2-2.1 2.9-3.5 5-4.2 1.7-.4 2.6-1.4 2.6-2.9 0-1.1-.2-2.3-.7-3.5-1.5-3.6-3-6.7-4.7-9.3s-3.8-4-6.6-4c-3 0-6.3 1.5-10 4.5s-7.4 7-11.2 12c-3.8 5-7.5 10.7-11.1 17s-6.9 12.9-9.7 19.6c-2.8 6.7-5.1 13.3-6.8 19.9-1.7 6.6-2.6 12.4-2.6 17.6 0 4.6.7 8.3 2.2 10.9 1.4 2.6 3.4 3.9 5.9 3.9 6.4 0 13.4-5.9 21-17.8s15.2-29.7 22.8-53.5zM51.1 485.1c4.1 0 8 1 11.8 3.1 3.8 2.1 7.2 4.8 10.1 8.3s5.3 7.5 7.1 11.9c1.8 4.4 2.7 9 2.7 13.6 0 3-.4 5.9-1.1 8.7-.7 2.8-1.6 5.3-2.8 7.4-1.2 2.1-2.5 3.8-4 5.1-1.5 1.3-3 1.9-4.7 1.9-1.8 0-3.4-1.2-4.9-3.6-1.5-2.4-3.1-5.1-4.7-8-1.7-2.9-3.6-5.6-5.6-8-2.1-2.4-4.6-3.6-7.4-3.6-2.8 0-5.4 1.2-7.6 3.5-2.3 2.3-4.2 5.6-5.7 9.7-1.5 4.2-2.7 9.1-3.5 14.8-.8 5.7-1.2 11.9-1.2 18.6 0 19.1 2.1 33.7 6.2 43.8 4.1 10 10.1 15.1 17.8 15.1 3.7 0 6.8-1 9.4-3.1 2.6-2.1 4.9-4.3 6.9-6.8s3.8-4.7 5.4-6.8 3.3-3.1 5-3.1c.9 0 1.9.5 2.8 1.5s1.8 2.3 2.5 3.9 1.4 3.3 1.9 5.2c.5 1.9.8 3.8.8 5.7 0 4.5-1.3 9.2-3.8 13.9-2.5 4.8-5.8 9.1-9.8 13s-8.4 7.1-13.3 9.5c-4.9 2.5-9.6 3.7-14.2 3.7-6.2 0-11.8-2.1-17-6.3s-9.6-10-13.4-17.4c-3.8-7.5-6.7-16.4-8.7-26.8-2-10-3.1-21.5-3.1-34.1 0-13.7 1.2-26.2 3.5-37.7 2.3-11.5 5.5-21.4 9.6-29.8s9-15 14.6-19.7 11.8-7.1 18.4-7.1zm62.3-58.9c.8-6.3 3-9.6 6.8-10l11-.8c2.3.3 3.8 1.3 4.6 3.1.8 1.8 1.2 4.6 1.2 8.6-4.1 42.5-8.4 84.9-12.9 127.3-4.5 42.3-9.5 84.6-15.2 126.8-.5 3.6-1.3 5.9-2.5 7.1-1.2 1.2-2.7 1.7-4.7 1.7l-10.5-2.1c-1.7-.3-3-1.2-3.9-2.8-.9-1.6-1.3-3.7-1.3-6.5v-1.5c0-.6.1-1.3.2-1.9 3.5-28.6 6.6-54.4 9.3-77.6s5.1-44.6 7.3-64.4c2.1-19.8 4.1-38.3 5.8-55.6 1.6-17.3 3.3-34.4 4.8-51.4zm102.8 236.9c-.5-18.2-1.4-35-2.6-50.3-1.2-15.4-2.5-28.8-3.8-40.3s-2.4-20.8-3.4-27.9c-1-7.1-1.5-11.6-1.5-13.3 0-2.6.6-5.1 1.7-7.6s2.6-4.6 4.3-6.5c1.7-1.8 3.6-3.3 5.6-4.4 2-1.1 3.8-1.6 5.4-1.6 1.3 0 2.5.4 3.5 1.2 1 .8 1.7 2.2 2.1 4.1.4 2.3.8 4.8 1.1 7.3.4 2.5.7 5.6 1.1 9.1.5 5.1 1.1 7.6 1.9 7.6.9 0 1.8-2.3 2.9-6.8 1.6-6.3 3.2-11.5 5-15.6 1.8-4.1 3.7-7.3 5.8-9.7 2.1-2.4 4.2-4.1 6.4-5 2.2-1 4.6-1.4 7-1.4 7.3 0 13.6 5.1 18.7 15.2s9.1 24.7 12 43.9c.4 2.2.7 3.6 1.1 4.2.3.6.7.9 1.1.9.4 0 .8-.3 1.2-.9.4-.6.8-1.9 1.2-3.8 1.9-8.9 4.1-16.4 6.6-22.7 2.5-6.2 5.1-11.3 7.8-15.2s5.4-6.7 8.3-8.5c2.8-1.8 5.5-2.7 8.1-2.7 4.8 0 9.1 3 12.9 9.1 3.9 6.1 7.3 15.5 10.3 28.1 3 12.6 5.6 28.6 7.9 48 2.2 19.3 4.1 42.3 5.6 68.8 0 7.4-1.3 12.5-3.9 15.5-2.6 2.9-6.1 4.4-10.5 4.4-2.9 0-5.2-1.1-6.8-3.3-1.6-2.2-2.6-5.1-2.8-8.6-1-19-2.1-35.9-3.3-50.8-1.2-14.8-2.5-27.3-3.9-37.5s-2.9-17.9-4.6-23.3c-1.7-5.3-3.5-8-5.6-8-1 0-2.3 1.3-3.8 3.9-1.5 2.6-3.1 7.4-4.9 14.3-1.7 6.9-3.5 16.3-5.4 28.3-1.9 12-3.7 27.2-5.4 45.8-.5 5.2-1.9 9.2-4.3 11.9-2.4 2.7-5.3 4.1-8.7 4.1-4 0-6.7-1.1-8.3-3.3-1.5-2.2-2.4-5.9-2.5-11.1-.3-9-.8-18-1.6-27-.7-9-1.7-17.5-2.8-25.6-1.1-8.1-2.3-15.7-3.6-22.6-1.3-6.9-2.7-12.9-4.2-18s-3-9.1-4.6-12c-1.6-2.9-3.1-4.3-4.6-4.3-2 0-3.8 2.4-5.7 7.2-1.8 4.8-3.5 11.6-4.9 20.3-1.4 8.8-2.6 19.3-3.5 31.6-.9 12.3-1.3 26-1.3 41.2 0 2.6 0 5.2.1 7.7s.1 5.2.1 7.9c0 4.1-.4 7.5-1.1 10-.7 2.6-1.8 4.6-3.2 6.2-1.4 1.5-2.9 2.5-4.7 3.1-1.8.5-3.8.8-5.9.8-2 0-3.5-.2-4.7-.7-1.2-.5-2.1-1.2-2.7-2.2-.6-1-1.1-2.2-1.3-3.8-.2-1.6-.3-3.4-.4-5.4zm177.6-218c-2.3 0-4.4-.6-6.4-1.7-2-1.2-3.7-2.8-5.2-4.9-1.4-2.1-2.6-4.6-3.5-7.5-.9-2.9-1.3-6-1.3-9.4 0-5.7 1.3-10.4 3.9-13.9 2.6-3.6 6.1-5.3 10.5-5.3 2 0 4 .7 5.9 1.9 1.9 1.3 3.5 3 5 5.2 1.4 2.2 2.6 4.8 3.5 7.7.9 2.9 1.3 6 1.3 9.1 0 5.9-1.2 10.5-3.7 13.8-2.5 3.3-5.8 5-10 5zm-16.1 62.5c0-4.8 1.2-8.7 3.6-11.8 2.4-3.1 5.5-4.6 9.4-4.6 7 0 10.8 4.2 11.2 12.7.3 5.9.6 12.5 1 19.9s.7 15.2 1.1 23.5c.4 8.3.7 16.8.9 25.6.3 8.8.5 17.5.8 26 .2 8.5.4 16.8.6 24.7.2 7.9.2 15.2.2 21.7 0 6.8-1.4 12-4.2 15.4-2.8 3.4-6.8 5.1-12.1 5.1-2.4 0-4.3-1-5.7-3-1.4-2-2.1-4.9-2.1-8.7 0-18.9-.3-36.5-.8-53s-1.1-31.1-1.6-44c-.6-12.8-1.1-23.5-1.6-32.1-.5-8.4-.7-14.2-.7-17.4zm52.5-18.9c0-2.1.5-4.1 1.5-6 1-2 2.3-3.8 4-5.3 1.6-1.6 3.5-2.9 5.6-3.9 2.1-1 4.2-1.5 6.3-1.5 1.2 0 2.2.5 3 1.6.8 1.1 1.5 3.2 2.2 6.3.6 3.1 1.2 7.4 1.7 12.9s1 12.8 1.5 21.6c.3 2.7.6 4.8.9 6.3.3 1.4.6 2.2 1.1 2.2.7 0 1.4-2.1 2.1-6.4 5.7-28.8 13.9-43.3 24.7-43.3 5 0 9.6 2.7 13.7 8.2 4.1 5.5 7.9 14.4 11.5 26.8 3.6 12.4 6.9 28.6 10.1 48.8 3.2 20.2 6.4 45 9.6 74.5.2 1.5.3 2.9.4 4.1.1 1.2.1 2.4.1 3.5 0 3.1-.4 5.8-1.2 8.1s-1.9 4.1-3.2 5.5c-1.3 1.4-2.8 2.5-4.5 3.3-1.6.8-3.3 1.1-4.9 1.1-3.3 0-5.6-.6-7.1-1.8-1.4-1.2-2.4-3.6-2.8-7-2.3-20.8-4.5-39.2-6.6-55.4-2.1-16.1-4.3-29.7-6.3-40.7-2.1-11-4.1-19.4-6.2-25.1-2-5.7-4.1-8.6-6.1-8.6s-3.9 2.2-5.7 6.7c-1.8 4.4-3.5 11.4-5.1 20.8s-3.2 21.4-4.7 35.9-3 31.8-4.4 51.9c-.4 5.5-2 9.8-4.7 13.1-2.7 3.3-6.2 4.9-10.4 4.9-2.8 0-5-1-6.4-3.1-1.5-2.1-2.3-4.9-2.5-8.4-.7-28.4-1.5-51.8-2.3-70.2-.8-18.4-1.6-33.2-2.3-44.3-.7-11.1-1.3-19.4-1.8-24.9-.6-5.5-.8-9.6-.8-12.2zm129.6-43.6c-2.3 0-4.4-.6-6.4-1.7-2-1.2-3.7-2.8-5.2-4.9-1.4-2.1-2.6-4.6-3.5-7.5-.9-2.9-1.3-6-1.3-9.4 0-5.7 1.3-10.4 3.9-13.9 2.6-3.6 6.1-5.3 10.5-5.3 2 0 4 .7 5.9 1.9 1.9 1.3 3.5 3 5 5.2 1.4 2.2 2.6 4.8 3.5 7.7.9 2.9 1.3 6 1.3 9.1 0 5.9-1.2 10.5-3.7 13.8-2.4 3.3-5.8 5-10 5zm-16 62.5c0-4.8 1.2-8.7 3.6-11.8 2.4-3.1 5.5-4.6 9.4-4.6 7 0 10.8 4.2 11.2 12.7.3 5.9.6 12.5 1 19.9s.7 15.2 1.1 23.5c.4 8.3.7 16.8.9 25.6.3 8.8.5 17.5.8 26 .2 8.5.4 16.8.6 24.7.2 7.9.2 15.2.2 21.7 0 6.8-1.4 12-4.2 15.4-2.8 3.4-6.8 5.1-12.1 5.1-2.4 0-4.3-1-5.7-3-1.4-2-2.1-4.9-2.1-8.7 0-18.9-.3-36.5-.8-53s-1.1-31.1-1.6-44c-.6-12.8-1.1-23.5-1.6-32.1-.5-8.4-.7-14.2-.7-17.4zm52.4-18.9c0-2.1.5-4.1 1.5-6 1-2 2.3-3.8 4-5.3 1.6-1.6 3.5-2.9 5.6-3.9 2.1-1 4.2-1.5 6.3-1.5 1.2 0 2.2.5 3 1.6.8 1.1 1.5 3.2 2.2 6.3.6 3.1 1.2 7.4 1.7 12.9s1 12.8 1.5 21.6c.3 2.7.6 4.8.9 6.3.3 1.4.6 2.2 1.1 2.2.7 0 1.4-2.1 2.1-6.4 5.7-28.8 13.9-43.3 24.7-43.3 5 0 9.6 2.7 13.7 8.2 4.1 5.5 7.9 14.4 11.5 26.8 3.6 12.4 6.9 28.6 10.1 48.8 3.2 20.2 6.4 45 9.6 74.5.2 1.5.3 2.9.4 4.1.1 1.2.1 2.4.1 3.5 0 3.1-.4 5.8-1.2 8.1s-1.9 4.1-3.2 5.5c-1.3 1.4-2.8 2.5-4.5 3.3-1.6.8-3.3 1.1-4.9 1.1-3.3 0-5.6-.6-7.1-1.8-1.4-1.2-2.4-3.6-2.8-7-2.3-20.8-4.5-39.2-6.6-55.4-2.1-16.1-4.3-29.7-6.3-40.7-2.1-11-4.1-19.4-6.2-25.1-2-5.7-4.1-8.6-6.1-8.6s-3.9 2.2-5.7 6.7c-1.8 4.4-3.5 11.4-5.1 20.8s-3.2 21.4-4.7 35.9-3 31.8-4.4 51.9c-.4 5.5-2 9.8-4.7 13.1-2.7 3.3-6.2 4.9-10.4 4.9-2.8 0-5-1-6.4-3.1-1.5-2.1-2.3-4.9-2.5-8.4-.7-28.4-1.5-51.8-2.3-70.2-.8-18.4-1.6-33.2-2.3-44.3-.7-11.1-1.3-19.4-1.8-24.9s-.8-9.6-.8-12.2zM781.9 475c4.3 0 8.4 1.2 12.4 3.5s7.5 5.5 10.5 9.6 5.5 9 7.3 14.8c1.8 5.7 2.8 12.1 2.8 19.1 0 2.9-.4 5.6-1.1 8.3-.7 2.7-1.7 5-3 7s-2.7 3.6-4.3 4.7c-1.6 1.2-3.3 1.7-5 1.7-.2 0-.3 0-.4.1-.1.1-.3.1-.4.1-.2.1-.3.2-.5.2l.5 16.4c.3 19.6 1.9 33.8 4.7 42.9 2.9 9 6.6 13.5 11.2 13.5 1.6 0 3.1-.3 4.4-.8 1.3-.5 2.5-1.2 3.6-1.9 1.1-.8 2.2-1.4 3.2-1.9s2-.8 3-.8c1.8 0 3.4 1.4 4.7 4.1 1.4 2.7 2.1 6 2.1 9.8 0 3.8-.8 7.7-2.5 11.5s-3.9 7.3-6.6 10.4c-2.7 3.1-5.8 5.6-9.3 7.5-3.4 1.9-6.9 2.9-10.4 2.9-6.1 0-11.4-4.4-16.1-13.2-4.6-8.8-7.9-21.8-9.8-38.9-.5-2.7-1.1-4.1-1.9-4.1-.9 0-1.8.8-2.5 2.5-7.7 17.1-16 29.9-24.7 38.5-8.8 8.5-17.4 12.8-25.9 12.8-4 0-7.6-1-10.8-3.1-3.2-2.1-5.9-5-8.1-8.7-2.2-3.8-3.9-8.3-5.2-13.7-1.2-5.4-1.8-11.4-1.8-18.1 0-9.4 1.2-19.3 3.6-29.7 2.4-10.4 5.6-20.6 9.7-30.8 4.1-10.1 8.8-19.8 14.1-28.9 5.4-9.2 11-17.2 16.9-24.2 5.9-7 11.9-12.5 18-16.6s12-6.5 17.6-6.5zm-3.9 71c1.4-4.6 2.7-8 3.9-10.2 1.2-2.1 2.9-3.5 5-4.2 1.7-.4 2.6-1.4 2.6-2.9 0-1.1-.2-2.3-.7-3.5-1.5-3.6-3-6.7-4.7-9.3s-3.8-4-6.6-4c-3 0-6.3 1.5-10 4.5s-7.4 7-11.2 12c-3.8 5-7.5 10.7-11.1 17s-6.9 12.9-9.7 19.6c-2.8 6.7-5.1 13.3-6.8 19.9-1.7 6.6-2.6 12.4-2.6 17.6 0 4.6.7 8.3 2.2 10.9 1.4 2.6 3.4 3.9 5.9 3.9 6.4 0 13.4-5.9 21-17.8 7.7-11.9 15.2-29.7 22.8-53.5z" class="girl-with-girl"/><g class="girl-with-girl"><path d="M282.5 911.1c0-5.3 1.4-9.4 4.1-12.2 2.7-2.8 6.6-4.2 11.7-4.2 1.2 0 2.2.3 3.2.8.9.5 1.8 1.6 2.5 3.2s1.4 3.7 2.1 6.5c.6 2.7 1.2 6.2 1.9 10.5.6 4.8 1.2 7.2 1.9 7.2.5 0 1.2-2 2-5.9 1.4-7.8 3.3-14.6 5.6-20.4 2.3-5.8 4.9-10.7 7.8-14.6 2.9-3.9 6-6.8 9.4-8.7 3.4-1.9 7-2.9 10.7-2.9 7.6 0 14.6 2.5 21.2 7.5s12.2 11.9 17 20.7c4.8 8.8 8.5 19.2 11.2 31.2 2.7 12 4.1 24.9 4.1 38.9 0 14.8-1.5 28.4-4.4 41-2.9 12.6-7 23.4-12.2 32.5-5.2 9.1-11.5 16.2-18.7 21.3-7.2 5.1-15.1 7.7-23.7 7.7l-6-.4c-3.5 0-5.3 3.5-5.3 10.5l6 94.1c-.1 2.3-.5 4.5-1.3 6.5s-1.9 3.7-3.3 5.2-3 2.7-4.8 3.5c-1.8.8-3.7 1.2-5.7 1.2-5.6 0-8.7-3.2-9.1-9.6-1.6-24.9-3.5-48.5-5.4-71-2-22.4-4-43.3-6.1-62.7-2.1-19.3-4.1-36.9-6-52.8-2-15.9-3.7-29.7-5.2-41.4-1.5-11.8-2.7-21.3-3.6-28.7s-1.6-12.3-1.6-14.5zm38.1 54.1c0 8.9.2 17.7.6 26.4.4 8.7 1 18.1 1.9 28.2.5 6.2 2.4 9.6 5.7 10.5 2 .8 4.3 1.6 6.9 2.4 2.5.8 4.7 1.1 6.4 1.1 5 0 9.5-1.3 13.6-3.9 4.1-2.6 7.5-6.3 10.4-11.2 2.9-4.9 5.1-10.6 6.7-17.3 1.6-6.7 2.3-14.2 2.3-22.4 0-10-.8-19.3-2.3-28-1.6-8.7-3.7-16.2-6.4-22.7-2.7-6.4-5.9-11.5-9.5-15.2s-7.6-5.5-11.8-5.5c-3.7 0-7 1.4-10 4.2-3 2.8-5.6 6.7-7.7 11.7-2.1 5-3.8 11-5 18.1-1.2 7.1-1.8 15-1.8 23.6zm93 20.9c0-2.3.2-4.9.5-7.8.3-2.9.5-6 .5-9.4 0-2.3-.6-4.1-1.7-5.3-1.1-1.2-2.4-2.6-3.8-4.1-1.4-1.5-2.7-3.4-3.8-5.7-1.1-2.3-1.7-5.7-1.7-10 0-3.1.5-6.3 1.5-9.4 1-3.1 2.4-6 4.3-8.6 4.6-6 9.4-11.4 14.4-16.2 5-4.8 9.9-8.8 14.9-12.1 5-3.3 9.9-5.8 14.7-7.6 4.8-1.8 9.5-2.7 13.9-2.7 7.5 0 14.5 2.4 21.2 7.3 6.6 4.9 12.3 11.5 17.2 19.9 4.9 8.4 8.7 18.3 11.6 29.5 2.9 11.3 4.3 23.3 4.3 36.2 0 12.6-1.5 24.5-4.5 35.8-3 11.3-7.1 21.2-12.1 29.6-5.1 8.5-11 15.2-17.9 20.2-6.8 5-14 7.5-21.6 7.5-7.4 0-14.3-2.2-20.6-6.6-6.3-4.4-11.8-10.4-16.4-18.1-4.6-7.7-8.2-16.9-10.8-27.5-2.9-10.7-4.1-22.3-4.1-34.9zm54.2 50.1c3.3 0 6.7-1.2 10.2-3.5 3.5-2.3 6.7-5.7 9.7-10.2 2.9-4.4 5.4-9.9 7.3-16.3 1.9-6.4 2.9-13.7 2.9-21.7 0-8.2-.9-15.9-2.6-23-1.7-7.1-4.1-13.3-7.1-18.6-3-5.3-6.6-9.4-10.7-12.4s-8.5-4.5-13.3-4.5c-8.7 0-15.3 3.9-19.9 11.8-4.6 7.9-6.9 19.9-6.9 36.2 0 8.9.8 17.1 2.3 24.7s3.7 14.2 6.4 19.7 6 9.9 9.7 13c3.6 3.2 7.6 4.8 12 4.8zM615 904.3c.3.3.8.4 1.4.4 1.7 0 2.6-2 2.6-5.9V835c0-8.1 1-13.8 3.1-17.2 2.1-3.4 5.5-5.1 10.4-5.1s8.4 1.8 10.4 5.3c2 3.6 3 9.6 3 18.3 0 3.3-.1 8.1-.4 14.5s-.5 13.6-.8 21.6c-.3 8.1-.5 16.7-.8 25.9s-.4 18.4-.4 27.4c0 13.9.5 26 1.6 36.1 1.1 10.1 2.7 18.5 4.7 25.1 2 6.6 4.5 11.6 7.3 14.8 2.8 3.2 6 4.8 9.5 4.8 2 0 3.7-.4 5.3-1.3 1.6-.9 3.5-1.3 5.7-1.3 1.6 0 2.9 1.4 3.9 4.2 1.1 2.8 1.6 6.2 1.6 10.2 0 3.6-.6 6.9-1.8 10-1.2 3.1-2.9 5.9-4.9 8.2-2.1 2.3-4.5 4.1-7.2 5.4-2.7 1.3-5.6 1.9-8.6 1.9-6.4 0-12.3-3.5-17.6-10.4-5.3-6.9-9.3-17.5-12-31.7-.2-2.2-.6-3.3-1.2-3.3s-1.1 1.1-1.5 3.3c-2.1 10-4.9 19-8.3 27s-7.3 14.8-11.8 20.5c-4.5 5.7-9.4 10-14.8 13s-11 4.5-16.9 4.5c-6.3 0-12-1.8-17.2-5.4-5.2-3.6-9.7-8.7-13.4-15.2-3.8-6.5-6.7-14.2-8.8-23s-3.2-18.4-3.2-28.6c0-13.1 1.6-25.5 4.7-37.1 3.1-11.6 7.4-21.8 12.7-30.5 5.4-8.7 11.6-15.6 18.7-20.6 7.1-5.1 14.7-7.6 22.7-7.6 3.3 0 6.8.4 10.4 1.3 4.1 1 7.9 2.4 11.9 4.3zm-33.6 125.5c4.5 0 8.4-1.7 11.9-5.1 3.5-3.4 6.6-7.8 9.3-13 2.7-5.3 5-11.1 6.9-17.4s3.4-12.5 4.6-18.6c1.2-6 2-11.4 2.6-16.2.5-4.8.8-8.2.8-10.3 0-1.5-.2-2.8-.7-4-.5-1.2-1.2-2.1-2.1-2.8-2.1-1-4.3-1.8-6.6-2.6s-4.5-1.4-6.7-1.9-4.3-1-6.3-1.2c-2-.3-3.8-.4-5.4-.4-4.7 0-8.9 1.2-12.8 3.7-3.8 2.5-7.1 5.9-9.8 10.5s-4.8 9.9-6.3 16.1c-1.5 6.2-2.2 13-2.2 20.4 0 6.6.6 12.5 1.7 17.7 1.1 5.3 2.7 9.7 4.7 13.4s4.4 6.6 7.2 8.6 5.8 3.1 9.2 3.1z"/><path d="M777 1009.3c2.3-3.4 4.5-5.1 6.7-5.1 1.2 0 2.4.5 3.4 1.6s2.1 2.8 3.4 5.1c1.2 3.1 2 5.7 2.5 7.7s.8 3.9.8 5.8c0 4.1-1.2 8-3.5 11.7-3.8 5.5-7.8 10.4-12.2 14.7-4.4 4.3-8.9 8-13.7 11-4.8 3-9.7 5.3-14.8 6.9-5.1 1.6-10.1 2.4-15.1 2.4-6.3 0-12.3-1.4-17.8-4.2-5.5-2.8-10.5-6.8-14.8-12s-8-11.4-11-18.8c-3-7.3-5.1-15.6-6.3-24.7-.7-3.8-1.3-6.3-1.9-7.5-.6-1.2-1.5-1.7-2.9-1.7-2.9 0-5.1-1.2-6.7-3.7-1.6-2.5-2.3-6-2.3-10.7 0-1.9.1-3.1.2-3.7l.2-4.1c.4-4.9 1.2-8.5 2.3-10.7 1.1-2.2 2.9-3.3 5.3-3.3h1.8c3.3 0 5.6-2.7 6.9-8 2.4-9.4 5.5-18 9.3-25.8s8-14.5 12.7-20 9.7-9.8 15.1-12.9c5.4-3.1 10.8-4.6 16.3-4.6 5.8 0 11.2 1.5 16.2 4.4 5 2.9 9.4 7 13.2 12.2 3.8 5.2 6.7 11.3 8.8 18.3 2.1 7 3.2 14.5 3.2 22.6 0 5.6-.6 10.7-1.9 15.4-1.3 4.6-3 8.7-5.4 12.2s-5.2 6.3-8.5 8.5-7.1 3.6-11.3 4.3l-40.7 7.2c-1.6 0-2.8.7-3.8 2.1-1 1.4-1.5 3.2-1.5 5.5 0 3.6.8 7 2.3 10.3s3.6 6.2 6.1 8.7c2.5 2.5 5.5 4.5 8.8 6 3.3 1.5 6.7 2.3 10.3 2.3 3.4 0 6.8-.6 10.4-1.7 3.6-1.2 7.1-2.8 10.5-5 3.5-2.2 6.9-4.8 10.1-7.9s6.4-6.8 9.3-10.8zm-26.2-52.9c1.2-.4 2.2-1.4 3-3 .9-1.6 1.3-3.5 1.3-5.8 0-2.1-.4-4-1.3-5.7-.9-1.8-2-3.4-3.5-4.8s-3.2-2.6-5.2-3.4c-2-.8-4-1.2-6.2-1.2-3.2 0-6.5.8-9.8 2.5-3.4 1.6-6.4 3.8-9.1 6.5-2.7 2.7-5 5.6-6.7 8.8-1.7 3.2-2.6 6.4-2.6 9.5 0 3.1 1.1 4.7 3.3 4.7 1.3 0 3.5-.3 6.4-.8 3-.5 6.2-1.2 9.8-1.9 3.6-.8 7.2-1.6 10.9-2.6 3.8-1.1 7-2 9.7-2.8zM799.3 819c-.3-1.9-.6-3.6-.8-5.1-.2-1.5-.3-3-.3-4.5 0-3.8.7-7 2.1-9.6 1.4-2.6 3.4-3.9 6.2-3.9 12.1 0 18.8 5.1 19.9 15.2 1.4 12.9 2.7 25.8 3.9 38.8 1.2 13 2.2 26.1 3.1 39.5.9 13.3 1.6 26.9 2.1 40.6.5 13.7.8 27.8.8 42.1 0 2.7-.1 5.4-.2 7.9-.2 2.5-.5 4.8-.9 6.8-.5 2-1.1 3.6-1.9 4.8s-1.9 1.8-3.3 1.8l-9.8-2.5c-2-.4-3.5-1.5-4.3-3.2-.8-1.7-1.3-4.1-1.5-7.3-.6-25-2.2-51.2-4.7-78.5-2.7-27.4-6.1-55-10.4-82.9zm24.2 252.5c-2.3 0-4.4-.6-6.4-1.7-2-1.2-3.7-2.8-5.2-4.9-1.4-2.1-2.6-4.6-3.5-7.5-.9-2.9-1.3-6-1.3-9.4 0-5.7 1.3-10.4 3.9-13.9 2.6-3.6 6.1-5.3 10.5-5.3 2 0 4 .7 5.9 1.9 1.9 1.3 3.5 3 5 5.2 1.4 2.2 2.6 4.8 3.5 7.7.9 2.9 1.3 6 1.3 9.1 0 5.9-1.2 10.5-3.7 13.8-2.5 3.3-5.8 5-10 5z"/></g></g></svg>