<svg xmlns="http://www.w3.org/2000/svg" viewBox="0 0 1122 833.8"><style>.st0{fill:#700022}</style><path class="st0" d="M1096.1 68.7C1074.2 33.2 1024.9-4 956.4.4c-155.8 9.9-226.4 125-276.1 200.5-36.2 54.9-63.5 111.6-82.2 169.5-19.3-59.9-47.1-118.9-83.2-175.8C460.7 108.9 365-7.8 181.7 29.2c-374.6 75.6-76.3 352 65.1 468.4 112.4 92.5 233.7 182 312.3 287.7 6.6 8.8 68.9-7.6 97.7-23.4-18.5 21-37.1 41.9-55.8 62.9-12.7 14.3 20.7 8 31.9 5.5 22.8-5 60.7-16.3 73.1-30.2 83-93.2 166-186.5 239.2-282.7 72.6-95.5 147.6-197.8 170.9-303 10.7-48.4 8.4-99.7-20-145.7zM908.5 30.9c-3 1-5.7 2-8.1 2.9 3.1-1.9 5.8-3 8.1-2.9zm-37.8 468.5c-59.9 84.3-128.9 165.9-200 246.8-.1-.1-.1-.2-.1-.3C550.7 584.7 330.5 463 197.2 306.8c-54.9-64.3-125.4-159.7-64.9-231.2 32-37.8 149.7 22.5 175.4 42.5 47.1 36.8 75.8 82.9 102.3 126.3 33.5 54.7 59.5 111.1 77.7 168.5 15.4 48.5 22.1 100.4 80.5 137.8 18.3 11.7 111.5-21.7 111.8-36.2 2.5-115.2 37.5-229.3 105.9-336.7 17-26.8 36-53.1 57-78.8 5.3-6.5 27-37 45.2-54.9 2 1.1 6 2 12.4 2.4 11.5 2.7 21.9 6.7 31.1 11.9 15 7.9 27.3 17.9 37.2 28.4 22.1 23.4 32.9 51.5 38.1 78.1 22 113.7-63.7 232.6-136.2 334.5z" id="Objects"/></svg>