<svg xmlns="http://www.w3.org/2000/svg" viewBox="0 0 3670.8 568.4"><style>.svg-lets{fill:#9ff}</style><g class="svg-lets"><path d="M0 87.3C33.1 62.7 70.6 52 104.8 52c69.5 0 128.3 41.7 128.3 92 0 34.8-23.5 84.5-100 107.5 38 7.5 80.2 21.4 104.3 49.7 6.9 10.2 10.2 23 10.2 35.8 0 27.8-15 59.3-37.4 75.4-41.7 28.9-114.4 54.5-152.9 59.9-10.2 0-32.6-7.5-38-16.6C5.4 434.3 7 398.5 6.5 373.9L0 87.3zm187.7 50.3v-3.7c-2.7-28.3-35.8-41.2-67.4-41.2-4.3 0-63.6 4.8-70.6 13.9-1.1 1.1-2.7 11.2-2.7 142.7 56.2 0 140.7-58.8 140.7-111.7zm-135.8 170c.5 11.2 3.7 104.8 3.7 116 .5 4.3-1.1 10.7 4.8 10.7 57.2-12.3 134.2-32.6 143.3-96.8 0-39.6-62.6-50.8-97.8-50.8-18.7 0-36.4 3.2-54 9.6v11.3zm227.2 41.1c0-52.4 25.1-112.3 67.9-129.9 13.9-5.3 28.9-8.6 43.8-8.6 36.9 0 72.7 17.6 87.7 56.1 6.4 16 9.6 34.8 9.6 54 0 55.1-26.2 113.3-73.8 132.6-11.2 4.3-22.5 6.4-33.7 6.4-39 0-77.5-24.6-93.6-64.7-5.2-13.3-7.9-29.3-7.9-45.9zm100.5 72.7c42.8 0 65.2-52.9 65.2-95.2 0-2.7-.5-5.3-.5-8-3.7-48.7-26.7-68.4-51.9-68.4-34.2 0-72.7 36.9-72.7 89.3 0 33.7 17.1 82.3 59.9 82.3zm148.6-224.5c31.5 0 26.2 36.9 31 60.4l8-7c19.8-17.1 39-34.2 80.2-41.2 4.8-1.1 10.2-1.1 15-1.1 38.5 0 64.7 26.2 64.7 67.4 0 15-3.2 30.5-20.3 30.5-34.2 0-2.1-60.9-50.8-60.9-38.5 0-70.6 43.3-91.4 72.7-2.1 2.1-2.1 4.8-2.1 8 0 27.3 5.3 56.7 10.2 83.4 0 1.6 3.2 14.4 3.7 16-7 18.2-13.4 20.3-21.4 20.3s-14.4-3.2-18.2-12.3c-13.9-29.9-15-104.8-17.1-139.5l-5.9-80.7v-6.4c0-9.6 6.4-9.6 14.4-9.6zm318.7 221.9c-44.9 0-101-16-101-67.9 0-108.5 105.9-141.1 152.9-141.1 4.8 0 8.6.5 25.7 1.1 3.7 0 5.9-18.2 20.8-18.2 25.1 0 25.7 19.8 25.7 41.7 0 28.3-3.7 166.8-4.3 194.6 0 9.1-5.3 19.2-16.6 19.2-27.8 0-25.7-39.6-33.7-39.6-18.2 5.4-43.9 10.2-69.5 10.2zm1.6-33.7c24.1 0 48.7-8.6 72.2-20.9 1.1-11.2 3.7-62.6 3.7-118.7-7-3.7-12.8-4.3-20.9-4.3-44.4 0-117.6 48.1-117.6 96.2 0 29 28.4 47.7 62.6 47.7zm360.8-151.3c1.1-7.5 5.9-11.2 12.8-11.2 32.6 0 35.8 22.5 48.1 46 4.3 9.6 26.7 53.5 39 53.5 49.7 0 78.6-73.8 122.4-88.2 36.4 0 32.6 32.1 35.8 55.1 0 17.1 23.5 96.8 23.5 120.3v2.7s1.1 2.7 1.1 4.3c0 14.4-9.1 18.2-23.5 18.2-11.8 0-18.7-10.7-22.5-20.8-4.3-42.8-8-62-19.8-109.6 0-2.1-1.6-8.6-5.3-8.6 0 0-1.1.5-1.6.5-28.9 28.9-59.9 66.3-106.9 66.3-32.1 0-50.8-25.1-66.3-50.3-1.1 5.3-2.1 29.9-15.5 139.5 0 8-2.7 17.6-14.4 17.6-30.5 0-31.5-8.6-31.5-32.1l24.6-203.2zm424-39c16 0 95.7 8 95.7 113.9 0 9.6-10.7 16-18.2 16.6-46.5 8-93 14.4-139 21.4-2.1.5-8.6 1.6-8.6 1.6s-.5 2.1-.5 2.7c0 36.4 21.9 65.2 57.2 65.2 20.9 0 35.3-5.9 52.4-18.7 9.6-7 20.3-18.7 33.7-18.7 10.7 0 25.7 5.9 25.7 20.3 0 23.5-74.8 55.6-87.7 55.6-.5 0-15 .5-20.3.5-71.1 0-103.2-54.5-103.2-122.4 0-71.7 46-138 112.8-138zm-63.6 109v4.3l120.8-20.8c0-28.3-23-59.3-52.9-59.3-40.1-.1-67.9 37.9-67.9 75.8zm219.2 97.3c0-32.1-3.2-210.1-3.2-237.9-16 0-32.6 3.7-50.3 3.7-9.6 0-28.3-4.8-28.3-16.6 0-15 11.8-14.4 22.5-16.6l58.8-8c-.5-22.5-1.1-50.3-1.1-73.8 0-15 .5-30.5 1.1-46 3.7-5.9 12.8-5.9 19.8-5.9 9.1 0 18.7 5.3 21.4 13.9 1.6 23.5.5 98.9 1.6 106.4l62 1.6c9.1.5 27.8 6.4 27.8 16.6 0 14.4-22.5 15-33.7 15-15 1.1-48.7 2.1-56.1 4.8V440c-3.2 8-11.2 12.3-19.8 12.3-6.4 0-14.4-.5-18.2-5.9-3.8-14.8-4.3-30.3-4.3-45.3z"/><path d="M1986.7 194.8c16 0 95.7 8 95.7 113.9 0 9.6-10.7 16-18.2 16.6-46.5 8-93 14.4-139 21.4-2.1.5-8.6 1.6-8.6 1.6s-.5 2.1-.5 2.7c0 36.4 21.9 65.2 57.2 65.2 20.9 0 35.3-5.9 52.4-18.7 9.6-7 20.3-18.7 33.7-18.7 10.7 0 25.7 5.9 25.7 20.3 0 23.5-74.8 55.6-87.7 55.6-.5 0-15 .5-20.3.5-71.1 0-103.2-54.5-103.2-122.4 0-71.7 46-138 112.8-138zm-79.7-36.9c18.7-20.9 35.3-41.7 54.5-63.1l3.2-3.2c5.9-6.4 9.6-9.6 18.2-9.6h3.2c28.3 18.2 48.1 54.5 65.8 82.3 0 1.1 0 2.1.5 3.2 0 5.3-4.3 7.5-9.1 7.5-2.1 0-4.3-.5-6.4-1.1-16.6-2.1-21.4-22.5-41.2-48.1-2.7-3.7-9.6-12.3-12.3-12.8-.5 0-8 8.6-59.3 61.5-7.5-1.1-17.1-3.2-17.6-12.3.5-1.1.5-4.3.5-4.3zm16.1 145.9v4.3l120.8-20.8c0-28.3-23-59.3-52.9-59.3-40.1-.1-67.9 37.9-67.9 75.8zm458.1 133.7c-45.4 0-82.3-29.9-82.3-76.5 0-69.5 74.8-135.8 144.3-135.8 7.5 0 14.4.5 21.4 2.1 0-12.3 1.6-70.6 1.6-82.9.5-12.3-1.6-34.8 11.2-44.4.5 0 6.4-.5 7-.5 12.3 0 20.9 6.9 26.7 17.6 0 6.4.5 35.8.5 42.2 0 44.9-2.7 90.4-2.7 135.8 0 5.3.5 20.9.5 21.4l11.8 120.8c2.1 5.9 2.7 9.1 2.7 13.9 0 13.9-15 16.6-26.2 16.6-28.3 0-17.1-52.4-26.2-52.4-.5 0-1.1.5-1.6.5-27.7 12.5-57.1 21.6-88.7 21.6zm1.1-38c31.5 0 56.1-13.4 86.6-19.2v-10.7c0-35.3-5.3-73.8-6.4-108-.5-2.1-4.3-2.7-6.4-2.7h-2.1c-49.2 0-111.2 57.2-111.2 106.4-.1 25.1 16 34.2 39.5 34.2zm272.1 19.3c-44.9 0-101-16-101-67.9 0-108.5 105.9-141.1 152.9-141.1 4.8 0 8.6.5 25.7 1.1 3.7 0 5.9-18.2 20.8-18.2 25.1 0 25.7 19.8 25.7 41.7 0 28.3-3.7 166.8-4.3 194.6 0 9.1-5.3 19.2-16.6 19.2-27.8 0-25.7-39.6-33.7-39.6-18.1 5.4-43.8 10.2-69.5 10.2zm1.6-33.7c24.1 0 48.7-8.6 72.2-20.9 1.1-11.2 3.7-62.6 3.7-118.7-7-3.7-12.8-4.3-20.9-4.3-44.4 0-117.6 48.1-117.6 96.2.1 29 28.4 47.7 62.6 47.7zm175.9 23c0-42.8 5.9-82.3 10.7-125.1v-21.9c0-15 1.6-30.5 16.6-30.5 27.8 0 28.3 25.1 28.3 47v8.6c25.7-16.6 72.2-58.8 106.4-58.8 54.5 0 58.3 86.6 60.9 126.2 1.1 18.2 6.4 37.4 6.4 55.6 0 11.8-9.6 19.8-20.9 19.8-5.3 0-16-4.3-19.8-8.6-13.4-16-8.6-151.8-30.5-151.8-16 0-107.5 49.2-109.6 74.3s-4.3 56.7-4.3 81.3c0 13.9.5 15 .5 16 0 11.2-13.9 13.9-23 13.9s-21.9-11.2-21.9-21.4v-24.6h.2zm312.2 112.3c10.7 0 14.4 8 21.9 15 9.1 7 19.2 10.7 29.4 10.7 19.8 0 37.4-13.9 39-39.6 0-9.1-4.3-29.4-15.5-29.4-6.4 3.2-12.8 4.8-19.8 4.8-18.7 0-36.9-12.3-36.9-35.3v-3.7l1.6-10.2c-40.1-11.2-71.6-41.7-71.6-98.4 0-71.6 71.1-147.6 134.7-147.6 9.1 0 47.6 3.2 47.6 22.5 0 14.4-5.9 17.6-14.4 17.6-5.9 0-13.4-1.6-21.4-1.6-56.1 0-104.3 42.2-104.3 108.5v8.6c2.7 43.3 28.9 56.1 59.3 56.1 41.2 0 90.4-23 97.8-23 5.3 0 8.6 4.3 8.6 10.7 0 10.7 0 17.1-8.6 23.5-21.9 17.1-55.6 27.8-88.7 27.8h-10.2c-.5 3.7-1.1 7.5-1.1 10.7s0 9.1 4.8 9.1h2.1c5.3-1.6 12.8-4.3 19.8-4.3 27.3 0 44.4 27.8 44.4 55.1 0 10.2-2.1 20.3-7.5 28.9-13.4 21.4-36.4 31.5-59.9 31.5-27.3 0-54.5-13.9-64.2-40.1.3-4.7 9.4-7.9 13.1-7.9zm292-101.6c-44.9 0-101-16-101-67.9 0-108.5 105.9-141.1 152.9-141.1 4.8 0 8.6.5 25.7 1.1 3.7 0 5.9-18.2 20.8-18.2 25.1 0 25.7 19.8 25.7 41.7 0 28.3-3.7 166.8-4.3 194.6 0 9.1-5.3 19.2-16.6 19.2-27.8 0-25.7-39.6-33.7-39.6-18.2 5.4-43.9 10.2-69.5 10.2zm1.6-33.7c24.1 0 48.7-8.6 72.2-20.9 1.1-11.2 3.7-62.6 3.7-118.7-7-3.7-12.8-4.3-20.9-4.3-44.4 0-117.6 48.1-117.6 96.2 0 29 28.3 47.7 62.6 47.7zm175.8 41.7c0-10.7 11.8-11.2 19.8-11.2 7 0 19.8 9.1 19.8 18.2 0 9.6-11.8 15-18.7 15-10.7 0-19.8-6.9-20.8-19.2v-2.8h-.1zm25.2-364.1c2.1-5.9 2.7-9.1 8-9.1 12.8 0 24.1 10.2 24.1 24.6 0 27.8-5.3 56.7-8 83.9 0 3.7-2.7 34.8-3.2 43.8-2.7 38.5-1.6 77.5-4.8 114.9-1.1 10.7-10.7 15-19.2 15-13.4 0-14.4-17.1-14.4-28.3-.2-81.2 7.8-164.6 17.5-244.8z"/></g></svg>