<svg xmlns="http://www.w3.org/2000/svg" viewBox="0 0 1321.4 1152.7"><style>.little-problem{fill:#ef9645}</style><path d="M44.9 30.3c2.2-1.9 6.9-2.6 13.9-2.2 7 .5 12.1 1.8 15.1 4.1l6 3.8c5 6.7 7.8 10.1 8.4 10.1 6.6 10.2 10.3 23.7 11.3 40.3 1 7 1.1 13.4.5 19.2 0 1.9-.3 6.1-1 12.5l-2.4 11-2.9 8.2c-1 .3-1.5.5-1.7.5-5.9 1.9-10.5 2.2-13.7.7-3.2-1.4-6-4.9-8.4-10.3-.5-1.9-.7-3.7-.7-5.3.2-1.6.4-3 .7-4.3l1.2-7.7c2.1-10.2 1.9-18.9-.5-25.9 0-1-.8-2.7-2.4-5.3-1.6-2.6-2.8-4.5-3.7-5.8-.9-1.3-2.4-1.4-4.7-.5-3.8 3.2-7.1 13-9.8 29.3-3.2 8.3-5.4 19.2-6.7 32.6-1.9 24-2.9 37.6-2.9 40.8l-.2 10.6v4.3c-.3.6-.2 14.6.5 41.8.2 1.6.5 3.8 1 6.7.5 3.5 1.2 9.3 2.2 17.3l3.1 10.6c.8 1 1.8 3.8 3.1 8.6.8 0 1.4 1.1 1.9 3.4 1.1 2.2 1.6 3.5 1.4 3.8.8.3 2 1.3 3.6 2.9 4.3 4.5 8.1 3.5 11.3-2.9 1.1-2.2 2.5-5.4 4.2-9.4 1.7-4 3-7.2 3.8-9.6.9-2.4 2.3-4.7 4.2-7 5.3-8 9.8-7.7 13.7 1 .8 2.6.9 8.7.4 18.5-.6 9.8-2.8 19.9-6.8 30.5-.3 1.9-1.4 5-3.1 9.4-1.8 4.3-3.6 7.8-5.5 10.3-.3 2.2-6.4 3.8-18.2 4.8-.6 0-1.9-.3-3.8-1-1.8 1-4.1.5-7.1-1.4s-4.6-2.9-4.9-2.9L42 325c-1.3 0-2.6-.8-3.8-2.4-1.3-1.6-3.4-4.4-6.4-8.4-3-4-5.2-7.3-6.8-9.8-4.8-7.7-8.2-16.5-10.3-26.4-.6-2.2-1-5.4-1.2-9.4-.2-4-.5-7-1-8.9-1.3-2.6-1.9-6.7-1.8-12.5.1-5.8-.1-12.8-.6-21.1 0-3.8.1-6.1.2-6.7-.8-1.6-1.1-4.4-1-8.4.2-4 .2-9.5.2-16.6.5-1.9.7-7.6.6-17-.1-9.4 0-16.6.4-21.4-.6-2.9-.7-7-.2-12.5l.2-14.4c.2-5.8.9-11.8 2.2-18.2.2-2.9.5-6.3 1-10.3.5-4 2.6-12.1 6.2-24.2 0-2.6 1.2-5.8 3.6-9.6 0-1.3.6-3.2 1.9-5.8 1.3-2.6 2.7-5.8 4.3-9.6 2.2-5.4 4.7-9.4 7.4-12 2.8-2.5 5.4-5.6 7.8-9.1zm77.5 221.3c.3-1 .4-3.4.2-7.2-1-12.2-1.1-20.3-.5-24.5-.6-17.6-.8-28-.6-31.2.2-3.2.7-5 1.3-5.3-.6-1.9-1.2-9.2-1.8-21.8-.6-12.6-.7-21-.4-25.2-.8-7-.6-12.8.5-17.3-.3-.6-.6-3.2-.7-7.7V88.9c.3-8.3.5-12.6.5-13V65.4l1.4-15.4c-.5-1.9-.1-5 1.2-9.1-1.8-7-.1-15.7 5-25.9.2-.6 2-2.7 5.5-6.2 2.9-.3 4.8-.3 5.9 0 1 .3 2.6.6 4.8 1 2.2.3 3.7.8 4.7 1.4 3 1.9 4.6 7.2 4.6 15.8v8.6c.3 11.5.5 20.3.5 26.4v11c0 4.5-.2 7-.5 7.7.2 1.3.2 4.3 0 9.1v8.6c-.5 10.2-.6 16.2-.5 17.8l-1.7 25c1.1 1.6 2.7 2.4 4.8 2.4 1.9-.6 7.4-.8 16.3-.5l13.2-1h3.1c3 0 5.1-.8 6.2-2.4 0-7.4.4-16.2 1.2-26.4 1-1.6 1.2-8.6.7-21.1 0-1.3.3-3.8 1-7.7 0-4.8.3-10.1 1-15.8 0-6.7.5-12.5 1.6-17.3 1-4.8 1.8-8.8 2.3-12 .6-5.4 2.5-10.1 5.5-13.9 4.3-6.4 8.2-10.2 11.5-11.5h4.3c4.3 1.6 5.8 10.1 4.3 25.4 0 5.1-.6 11.5-1.9 19.2-1.4 15.7-2.2 25.8-2.2 30.2 0 5.1-.6 13.6-1.9 25.4.3 6.7.4 11 .1 12.7-.2 1.8-.4 4.2-.4 7.4-.3 7-.5 12-.5 14.9-.3 9.6-.5 17.4-.5 23.5 0 6.1-.2 12.6-.7 19.7 0 7-.6 14.1-1.7 21.1l-.7 32.2c0 2.6.6 19.5 1.7 50.9 1 2.2 1.3 6.2 1 12-.3 5.8-.9 9.8-1.7 12-.8 2.2-1.6 3.5-2.5 3.8-.9.3-2.2.5-4 .5-3.5 4.5-6.5 6.2-8.9 5.3-1.8 0-4-1.6-6.7-4.8-2.7-3.2-4.6-7.4-5.5-12.5 0-2.6-.2-5.4-.6-8.6-.4-3.2-.4-6.7-.1-10.6.3-3.8.4-7.9.4-12.2-.1-4.3-.1-9.4-.1-15.1l.2-5.8c-.3-1.3-.2-3.4.5-6.5.6-3 .7-5.4.2-7v-13.4l1.2-25.4c-1.6-2.6-1.7-8-.2-16.3l.5-3.8c-1.9 1-3.7 1.4-5.3 1.4-4.5 2.2-9.4 3.4-14.9 3.4l-21.6-1c0 2.6.1 4.2.2 4.8-.3 5.1-.4 13.1-.2 24v9.6c.2 8.6.2 20.8.2 36.5.6 17.9 1 30.4 1 37.4l-.2 3.4c0 2.9-.2 5.3-.5 7.2 0 6.4-.8 10.7-2.3 13-1.5 2.2-4 3.7-7.3 4.3-3.4.6-6.4-1.1-9.1-5.3-3.7-3.8-5.8-7.5-6.2-11 0-2.2-.4-5.4-1.2-9.6-.8-2.6-1.4-5.8-1.7-9.6 0-10.6-.1-16.5-.2-17.8-.5-1.3-.7-3.7-.7-7.2 0-4.1-.4-10.8-1.4-20.1zm129.8-43.2l1.4-21.1c0-4.2.3-8.3 1-12.5 0-5.4 1.4-13.6 4.1-24.5 0-.6.7-4.8 2.2-12.5 0-.6 1.5-10.1 4.6-28.3l2.9-13.9c0-1.3.4-3.8 1.2-7.4.8-3.7 1.4-7.4 1.8-11 .4-3.7.9-7.3 1.6-10.8 2.2-8.6 4.2-16 6-22.1 3.4-12.8 9.6-18.6 18.7-17.3l7.7 1.4c4.8 2.6 8.5 5.3 11 8.2 3.7 2.9 6.2 6 7.4 9.4 1.3 3.4 1.8 8.9 1.7 16.6.2 3.8.6 20.5 1.4 49.9.8 29.4 1.2 44.3 1.2 44.6l1.2 20.6c0 1.9 1.8 25 5.3 69.1l5.3 33.6c3.2 17.9 4.9 27.3 5.2 28.1.2.8.9 4.2 2 10.3 1.8 10.6.2 17.6-4.6 21.1-4.3 1.3-7.5.5-9.6-2.4-.8 0-2.6-1.4-5.5-4.3-.3-1.6-1.2-3.1-2.8-4.6-1.5-1.4-2.5-2.6-3-3.6-1.8-1-3.4-5.9-4.8-14.9-.5-.6-1.4-3.2-2.6-7.7-1.1-4.5-1.4-8.2-1-11-1.1-2.9-1.7-8.8-1.7-17.8-1.4-4.8-2.2-12.3-2.2-22.6 0-10.2-.8-18.2-2.4-24-8.2 7.4-16.9 11.4-26.2 12-1.8 0-2.6.6-2.6 1.9 0 2.9-.5 8-1.4 15.4l-4.1 52.8c1.6 23.7.2 36.2-4.3 37.4-1.3 0-3.4.6-6.4 1.9-3 1.3-5.4.2-7.3-3.4-3.7-4.2-6.3-8.4-7.8-12.7-1.5-4.3-2.2-9.2-2-14.6.2-4.5.6-14.1 1.2-28.8.3-.6.4-4.2.4-10.8-.1-6.6.1-11.6.6-15.1l3.8-29.8c.5-.6 1.1-5.4 1.9-14.4-.2-.6-.2-2.2-.2-4.8l-.3-5.6zm32.4-13.9c.3-.6 2.2-1.4 5.6-2.2 3.4-.8 7.5-3.6 12.1-8.4.2 0 .1-3.8-.2-11.5-.5-13.4-.9-23-1.2-28.8-.3-7.7-.6-13.1-1-16.3 0-6.1-1.2-18.7-3.6-37.9l-10.6 71.5c-2.2 19.8-3.1 32-2.6 36.5l1.5-2.9zM419.8 41.4c-1 8.3.7 41.9 5 100.8.2 1.3.2 3.4.2 6.2.2 4.2.6 9.6 1.4 16.3l1.7 29.3 2.9 22.1 2.2 22.6c2.1-8.3 3.1-13.4 3.1-15.4 1.1-6.7 1.7-10.6 1.7-11.5l3.6-23c3.4-13.4 5.4-23.4 6-29.8 1-10.2 2-17.4 3.1-21.6-.2 0-.2-.2-.2-.5s.1-1 .2-1.9c.8-5.8 1.4-9.6 1.9-11.5 1-3.8 1.6-8.4 2-13.7.4-5.3.6-8.1.7-8.4.1-.3.2-.6.4-1 1.1-2.2 1.9-8.8 2.4-19.7l-.2-14.9c0-1 .3-4.3 1-10.1l-.5-11c0-1.9.2-5.1.7-9.6-.3-.6 1.1-7.5 4.3-20.6l4.6-8.2c0-1.3.6-2.6 1.9-3.8 1.3-1.3 2.5-2.1 3.6-2.4 1.1-.3 2.7.1 4.7 1.2 2 1.1 3.3 1.7 4 1.7.5 1 2.9 2.4 7.2 4.3 1.9 1.3 3.2 3.6 3.7 7 .6 3.4.9 8.1 1.1 14.2 0 1.3-.2 7-.5 17.3-.3 10.2-.5 17-.5 20.2v8.6l-.7 23.4v14.4l.5 15.4.5 41.3.5 9.6.7 17.8c-.2 0 .1 2.2.7 6.7 0 2.9.1 5.6.2 8.2 2.7 28.2 4.3 44.6 4.8 49.4 2.7 20.2 3.7 34.9 2.9 44.2.3 4.8-1.9 9.6-6.7 14.4-3.7-1.6-5.8-3.5-6.5-5.8-1.1-1.3-2.7-4-4.8-8.2-2.6-4.2-4.7-9-6.5-14.4-1.1-2.2-2-5.4-2.6-9.6-1.4-3.8-2.4-9.2-2.9-16.1-.5-6.9-1.2-11.7-2.2-14.4-1-2.7-1.7-5.4-2.2-7.9-2.4-4.8-4.1-16.5-5-35-.2-3.2-.3-5.6-.5-7.2v-8.6c-.3-1.6-.6-3.5-.8-5.8-.2-2.2-.4-4-.6-5.3 0 .6-.1 1.9-.2 3.8-.2 1.9-.3 4-.5 6.2-.3 1.3-1.2 7.5-2.8 18.7-1.5 11.2-2.9 20.5-4.2 27.8l-.7 8.6c-1 2.9-2.1 11.5-3.4 25.9-.5.6-1.3 3.5-2.4 8.6l-.2 2.9c-1.9 10.6-3.2 16.5-3.8 17.8l-3.4 10.1c-4.2 8-8.6 10.6-13.2 7.7-4.6-2.9-8.1-9-10.3-18.2-1-4.2-1.9-7.7-2.9-10.6-.2-2.9-1.1-7.4-2.9-13.4-1.1-4.8-2.2-12.3-3.1-22.6-.6-2.9-1.3-7.8-1.9-14.9l-5.3-41.8c-1-11.5-2.5-24-4.6-37.4-.5-.6-1.1-3.7-1.9-9.1-.3 5.1-.5 8-.5 8.6.3 3.2-.2 11-1.4 23.5.2.6.2 5.4 0 14.4-.8 6.4-1.2 12.8-1.2 19.2-1 13.4-1.4 26.4-1.2 38.9.5 1.9.5 6.6 0 13.9v2.9c-.5 9.3-.9 14.9-1.2 16.8v3.4c-.2 2.6-.2 5.8-.2 9.8 0 4 0 7.2.1 9.6.1 2.4-.4 6-1.6 10.8-1.4 6.1-5.4 7-12 2.9-1.4-.6-2.6-1.4-3.4-2.4-1.6-4.2-2.5-8.5-2.6-13-.2-4.5-.3-7.4-.4-8.6-.1-1.3-.1-3.5-.1-6.7v-16.1c0-2.4.1-6.8.2-13.2-.2-.3-.2-2.7-.2-7.2l-1.4-25c-.5-4.2-.6-7.4-.2-9.8.3-2.4.2-6.6-.2-12.7.8 0 1.2-2.5 1.2-7.4 0-5 .1-10.3.2-16.1l1.7-1.9c-.5-.6-.5-6.7 0-18.2 0-1.9.2-6.8.6-14.6.4-7.8.6-14 .6-18.5-.5-2.2.2-7 2.2-14.4 1.9-13.4 2.9-20.6 2.9-21.6l.5-5.3c.8-3.2 1.2-7.4 1.3-12.5.1-5.1.4-9.8 1.1-13.9.5-10.9 1.8-19.8 4.1-26.9.8-6.4 2.8-10.7 6-13l2.6-4.3h.2c1.1-1.6 3.3-2.9 6.5-3.8 7.2-1.6 13.2 1.6 18 9.6 1.7 3.2 2.8 7.5 3.3 13zM601.9 133l.5 7.2c1 .6 1.3 1.9 1 3.8-.3 1.9-.4 4.6-.2 8.2.5 12.8 1.3 22.6 2.4 29.3 0 3.8.4 8.7 1.1 14.6.7 5.9 1 9 .8 9.4-.2.3-.2 1.6-.2 3.8v4.8c-1-4.2-1-1-.2 9.6.6 2.6 1.2 6.6 1.6 12 .4 5.4 1.3 15 2.8 28.8 3 24 4.6 37.2 4.6 39.6s-.5 6.2-1.4 11.5c-1 5.3-2.4 9-4.3 11.3l-10.8 1.4c-2.4-1.3-5.4-5-8.9-11-2.1-4.2-3.4-8.8-3.8-13.9l-2.9-16.3c-.2-1.9-.2-4.8-.2-8.6-.2-.3-.4-2.4-.7-6.2.3-1.6-.1-4.8-1.2-9.6V254c.5-1.6.2-4.6-1-9.1l-1.2-15.4c.3-1.3-.6-4-2.9-8.2-1.6 1.6-3.7 2.9-6.2 3.8h-7.7c-3 0-5.6.2-7.7.5-1.1 0-1.7 6.4-1.7 19.2-.2 1-.6 3.2-1.2 6.7 0 1.6-.3 4.2-1 7.7-.6 3.5-1 6.5-1 8.9s-.2 4.1-.5 5c-.8 3.2-1.9 10.8-3.4 22.8-1.4 12-2.5 19.9-3.2 23.8-.7 3.8-.8 6.2-.4 7.2.2 1-.1 2.6-.7 4.8-.6 2.2-1.4 3.8-2.2 4.8-1.8 0-3.7-.8-5.8-2.4-2.1-1.6-4.6-2.4-7.4-2.4-2.1-.6-3.9-4.8-5.5-12.5-.3-2.2-.6-4.2-.7-5.8.3-1 .6-3.4.7-7.2-1.1-1.6-1.7-4.6-1.7-9.1l.2-6.7c0-2.9.4-5.6 1.2-8.2-.2 0 .2-2.7 1-8.2-1-1.3-.4-11 1.7-29.3 0-4.5.7-11 2.2-19.7.6-5.8 1-9.6 1-11.5.2-2.9.3-4.7.5-5.5.2-.8.3-1.8.5-3.1 1.8-9.6 2.7-16.2 2.9-19.9.2-3.7 1.4-11.3 3.8-22.8.5-1.9.7-4.8.7-8.6s.2-6.9.7-9.1c.5-2.2.9-4.8 1.3-7.7.4-2.9 1-5.9 1.8-9.1-.5-1-.3-4.2.5-9.6 0-1.9.6-6 1.9-12.2 1.3-6.2 2-10.2 2-12 .1-1.8.2-3 .5-3.8.2-.8.5-2.2.8-4.1.3-1.9.8-4 1.4-6.2.6-2.2 1-4.2 1.1-5.8.1-1.6.5-4.3 1.3-8.2 0-2.2.2-5.1.7-8.6.5-1 1.5-4 3.1-9.1 0-1.9 1.4-5 4.2-9.1 2.8-4.2 4.5-7 5.2-8.6l12.5-3.8c.2-2.6 1.1-6.4 2.9-11.5 5-4.8 10-6.4 15.1-4.8.2 0 .5.2 1.1.5.6.3 1.3.6 2.2 1 .9.3 1.9.8 3.1 1.4 1.2.6 1.8 2.9 1.8 6.7l-.4 57c.3 2.6.6 9.2.8 19.9.2 10.7.7 18.5 1.3 23.3.1 7.3 0 11.7-.2 12.9zm-24.9-3.3l-1-8.2c0-21.4-1.2-36.3-3.6-44.6-.3-.3-.6-.5-.7-.5-.8 0-1.4 1.9-1.7 5.8-1.9 7.7-3.7 18.2-5.3 31.7-.6 1.3-1.4 6.1-2.2 14.4-2.4 21.4-4.2 34.7-5.5 39.8l-.5 7.2c-1.1 7.4-1.2 12.2-.2 14.4 0-1.3 3.4-3.4 10.1-6.2 6.7-2.9 10.2-4.5 10.6-4.8.3-.3.4-1.9.4-4.8-.1-2.9.4-7.4 1.3-13.4.3-.3.1-1.5-.6-3.6s-1-5.4-.8-9.8c-.3-1.9-.5-4.6-.5-8.2.1-3.6.2-6.7.2-9.2zM137.8 616.6c-.3-1.6-.4-4.3-.1-8.2.2-3.8.5-9 .8-15.4 0-9.9.1-16 .2-18.2l-.2-9.6c0-5.1.1-9.4.2-13v-13.9c.3-2.9.4-7.7.1-14.4-.2-6.7-.1-15.3.4-25.7.5-10.4.9-16.7 1.2-19v-9.6c0-1 .1-4.3.2-10.1v-3.4c.2-4.8.1-7.7-.2-8.6l2.2-17.8 1-10.1c.3-1.3 1.5-4 3.6-8.2.5-1 2.3-1.4 5.5-1.4s5.6.2 7.2.5c1.6.3 2.6 1.2 3.1 2.6.5 1.4 1 4.4 1.4 8.9 1 4.2 1.2 9.4.7 15.8.2 1.9.2 3.4.2 4.3v4.8c.5 6.4.4 13-.2 19.7 0 2.6.1 5.1.2 7.7v4.3c0 6.4-.2 12-.7 16.8v12c.2 4.2-.1 8.2-.7 12 0 1.3-.1 5.1-.2 11.5-.3 2.2-.6 5-1 8.2.5 2.6.5 5.9 0 10.1-.5 1-.3 4.8.5 11.5-.6 4.2-.6 11.7.2 22.6v9.6c.5 10.2.4 20.3-.2 30.2v2.9c0 6.4-.2 11-.5 13.9.3 5.4.3 12.3 0 20.6v2.9l-.5 11.5c-1.8 22.7-6.9 35.7-15.4 38.9-10.4 3.8-18.6-1.8-24.7-16.8l-1.4-7.2c-1.8-.6-4.1-8-7-22.1-4.5-21.4-7-33.3-7.4-35.5-2.2-12.5-3.4-19.2-3.4-20.2l-.5-9.1c-.2-.6-.5-1.9-1-3.8s-.9-3.8-1.2-5.8c0-2.2-.6-7-1.7-14.4 0-.6-.4-4.6-1.2-12l-2.9-42.7c0-1-.1-2.6-.2-4.8l-1 10.6c-1.1 21.4-1.9 34.4-2.4 38.9l-1.2 48.5v19.2l-.6 23.6c0 11.8.2 22.9.7 33.1-.2 9.3-1 15.4-2.6 18.5-1.6 3-4 4.7-7.2 5-2.2-1.3-5.3-3.7-9.1-7.2-1.1-1.3-1.9-3.9-2.3-7.9-.4-4-1.3-7.4-2.8-10.3s-2.2-6.1-2.4-9.6l-2.9-36.5c0-5.1.1-10.5.4-16.1.2-5.6.2-11.4 0-17.5s.2-13.1 1.2-21.1c1-8 1.5-14.8 1.3-20.4-.2-5.6 0-12.8.5-21.6s.7-15.2.7-19.2.2-7.1.7-9.4c0-5.1.2-9.1.5-12-.2-1 .3-5.8 1.4-14.4 0-2.2.2-5.6.7-10.1.5-4.5 1-10.6 1.4-18.2.5-7.7 1.4-13.9 2.6-18.7 1.3-4.8 3.3-10.2 6-16.3 1.4-1.6 2.7-5.8 3.8-12.5 1.1-3.2 3.2-6.2 6.2-9.1 1.1-1.6 2.6-2.4 4.4-2.4 1.8 0 3.6 1.1 5.2 3.4 6.2 4.8 10.1 13.3 11.5 25.4l1 12c0 1.9.7 6.2 2.2 13 0 3.2.3 7.8 1 13.9 0 4.5.6 9.1 1.7 13.9 1.6 16.3 2.8 27.7 3.6 34.1.8 2.2 1.4 5.3 1.9 9.1.3 2.9 1 7.2 1.9 13 .3 5.4 1 11.7 2.2 18.7 6.6 42.9 10.6 67 12.2 72.5.3-1.3.5-5.3.5-12l.7-6.7zm53.2-36.5l1.7-35.5c0-1.9.4-4.8 1.1-8.6.7-3.8 1.2-6.2 1.3-7.2 0-.6.2-1.8.5-3.4 0-8.6 1.2-16.2 3.6-22.6 3.7-17 6.5-29.6 8.4-37.9 1.9-8.3 4-15.2 6.2-20.6.2-1.6 1.8-4.2 5-7.7 6.6-7 12.7-10.6 18.5-10.6 5.8 0 11.3 1.8 16.6 5.3 1.8.6 4.1 3 7.1 7.2s4.7 6.4 5.2 6.7c2.7 3.2 5.6 10 8.5 20.4 3 10.4 4.6 18 4.8 22.8.2 4.8 1.2 12.4 2.9 22.8s2.5 18.1 2.5 23c0 5 .4 12.4 1.3 22.3s1.2 17.9 1.1 24c-1 45.1-3.8 77.8-8.6 97.9-1 14.1-2.8 23-5.5 26.9l-.5 6.7c-.2 3.8-1.1 8.2-2.8 13-1.7 4.8-3.8 8.5-6.4 11-.5 1-3.7 2.4-9.6 4.3-8.5 3.2-14.1 4.8-16.8 4.8-3.5 2.2-8 1.8-13.3-1.2-5.4-3-8.4-4.6-9.2-4.8-.8-.2-2.5-1.9-5.2-5.3-2.6-3.4-4.4-6-5.2-7.9-2.6-3.8-4.1-6.9-4.6-9.1l-3.4-13.4c-2.1-4.2-3.5-10.2-4.3-18-.8-7.8-1.6-12.9-2.4-15.1-.8-3.5-1.5-7.2-2.2-11 .2-2.2.2-6.2.2-12v-4.8c-.6-4.8-.5-9.4.5-13.9.2-2.2.3-5 .4-8.4.1-3.4.3-8.2.6-14.6v-6.2c1.6-9.7 2.2-16.1 2-19.3zm27.4 35l.7 43.2c2.6 18.2 6.3 31 11.3 38.4.8 1.6 2.6 3.4 5.5 5.3l6 2.9c.8 0 1.7-.6 2.6-1.9 1.1-.6 1.9-1.4 2.4-2.4 1.1-2.9 2.2-5.4 3.4-7.7 1.1-2.2 1.6-3.4 1.4-3.4.6-1.3.9-3.4.7-6.2.5-1 1.1-3 1.9-6.2 1.8-17.9 3.5-29.4 5.3-34.6.6-14.1 1-23 1-26.9 0-13.4-1.8-29.9-5.3-49.4-1.9-4.5-2.9-18.7-2.9-42.7-1-4.8-1.5-9.2-1.7-13.2-.2-4-.7-8.3-1.6-13-.9-4.6-1.6-7.8-2-9.4-.5-1.6-.8-3.1-.8-4.6-.1-1.4-.4-3.3-1.1-5.5-2.6-7.7-6.5-3.5-11.8 12.5l-4.1 14.4c0 .6-.8 6.6-2.4 17.8-2.6 17.9-3.8 27.9-3.7 30 .1 2.1-.8 8.7-2.8 19.9-.2 1-.2 3.2-.1 6.7s-.2 8.4-1 14.6c-.5 6.3-.9 13.4-.9 21.4zM24.2 810.2l13.4-3.8 17.3-2.4 9.1 2.4c.6 1.3 2.2 2.1 4.6 2.4 4.6-.3 10.9 5 18.7 15.8 1.9 1.3 3.5 3.5 4.8 6.7l9.1 22.1c.3.6.8 2.3 1.4 5 .6 2.7 1.5 5.8 2.6 9.4-.3 0-.1 1.3.7 3.8 2.1 7 3 11.2 2.9 12.5.8 1.3 1.6 5.4 2.4 12.5.8 7 1 11.8.7 14.4.2.3 0 4-.5 11-1.1 15.4-3.1 26.7-6 34.1l-3.1 11.5-5.1 15.4-3.1 5.8c-5.8 12.8-12.8 22.7-21.1 29.8-.3.3-.8.6-1.4 1l-5.8 3.8-9.4 4.8c0 9.3.6 30.7 1.7 64.3.6 11.5 1.1 17.9 1.4 19.2 0 10.6-.3 17.7-1 21.4-.6 3.7-1.7 6.4-3.1 8.2-1.4 1.8-3.9 2.8-7.4 3.1-1 .6-2.6.1-5-1.7s-4.3-4.4-5.8-7.9l-1.4-15.4c.3-.6-.2-3.7-1.4-9.1-1.1-2.6-2-7-2.6-13.4l-1.7-45.6-.2-15.4c-9.3 1.3-14.9-3.8-16.8-15.4-1.6-6.1-1.9-10.1-1-12l1.2-6.2c1.9-6.1 5.6-9.1 11-9.1h5c-.3-.6-.5-2.9-.5-6.7l-1-20.2v-8.6l-.2-6.2c.2-2.9.1-6.1-.2-9.6V939l-.5-12v-9.1l-.2-4.8c0-22.7-.6-37.1-1.9-43.2-5.3 6.1-8.8 9.4-10.6 9.8-1.8.5-4.7-1.8-8.9-7-1.8-2.9-2.7-6.1-2.9-9.6-2.9-8-3.8-14.6-2.9-19.7.3-2.6 1.6-6.6 3.8-12 .2-1.3 2.1-4.2 5.8-8.6 2.9-5.9 7.9-10.1 15.1-12.6zm49.7 55.2c-4.2-4.8-12.2-7.2-24.2-7.2l1.4 29.8c1.3 17.3 2.4 49.6 3.4 97 1.4-.6 2.4-1.4 2.9-2.4 1.3-1.9 2.6-2.9 4.1-2.9 2.1-1 4.1-3.8 6-8.6 4.8-8 8.5-14.7 11-20.2l7.9-18.2c.5-.3 1.3-3.9 2.4-10.8 1.1-6.9 1.8-12.6 2.2-17 0-9.3-.5-14.6-1.4-15.8 0-.6-1-4.6-2.9-12-.6-1-2.6-3.4-5.8-7.2l-7-4.5zm86.2 144c-1.3 1.3-2.1 1.9-2.4 1.9-.2 1-.2 2.7-.2 5.3v5.8c0 2.2-.7 9.1-2.2 20.6v4.8c0 4.8-.4 8.6-1.2 11.5l-1 21.1-1.4 12c-.3 1.9-.4 3.7-.1 5.3.2 1.6.5 7.4.7 17.5.2 10.1 0 17.4-.6 21.8l-1.4 4.3c-3.2 1.9-5.3 2.4-6.2 1.4s-2.6-1.6-4.8-1.9c-2.2-.3-3.5-.6-3.7-.7-.2-.2-1-.8-2.4-1.9-1.4-1.1-2.2-2-2.6-2.6-.4-.6-1-1.6-1.8-2.9-2.1-2.9-3.1-9.1-3.1-18.7-.3-1.9-.2-4.2.2-6.7-1-1-1.3-3.5-1-7.7.5-1.9.7-5 .7-9.1 0-4.2.2-7.5.7-10.1v-7.7c0-2.9.6-8.8 1.7-17.8 0-2.6.2-4.8.7-6.7-.3-.6.1-3.4 1.2-8.2-.3-1 .1-5.6 1.2-13.9-.5-1-.6-3.9-.2-8.9.3-5 .7-8.9 1.2-11.8 0-6.1.2-9.8.7-11-.2-1-.4-4-.7-9.1l.5-5.8c0-3.8.7-9.8 2.2-17.8 1.3-18.2 1.9-28.2 1.9-29.8 2.2-18.6 3.4-30.1 3.4-34.6.5-.3 1-3.4 1.4-9.4.5-5.9.3-10.2-.5-12.7-7.2 5.4-13.2 11.8-18 19.2-3.2 5.4-5.4 7.5-6.5 6.2-2.2-2.6-3.4-6.2-3.4-11l-1-7.7c-.2-.3-.6-2.2-1.3-5.5-.7-3.4-1-5.8-1-7.4.1-1.6 0-3.8-.2-6.5s-.2-4.6.1-5.5c1.4-5.4 3.4-9.4 5.8-12l5.8-8.2 4.1-4.8c.3 0 3.4-3.4 9.1-10.1.3-1.3 1.5-2.4 3.6-3.4s6.7-3.8 13.9-8.6c4.8-1 7.6-1.4 8.4-1.4 5.1-1.3 9.4-.3 13 2.9 2.4 1.3 3.8 1.8 4.2 1.7.4-.2 1-.1 1.7.2.7.3 1.2.5 1.6.5 0 .6.7 1 2.2 1l4.6 3.4c.8 0 1.8.8 3.1 2.4 1-.3 2.3.4 4 2.2 1.7 1.8 4.2 4.2 7.4 7.4 3.3 3.2 4.9 5.9 4.9 8.2 1 .6 2 2.4 3.1 5.3l2.9 5.8 4.6 12c.3.3 1 1.9 2.2 4.8 1.6 5.4 2.5 8.6 2.6 9.6.2 1 .3 1.8.5 2.6s.8 3.6 1.9 8.4c2.2 9 3.1 16.8 2.6 23.5 0 .3-.8 5.3-2.4 14.9-2.9 17-7.3 30.4-13.2 40.3-1.3 1.9-3 4.4-5 7.4-2.1 3-3.8 5.7-5 7.9-6.1 7.4-9.6 12-10.7 13.9-1 1.9-2 3.5-2.8 4.8l-2.6 2.4.5 2.9c0-1.3.4-.7 1.3 1.7s1.5 4.2 1.8 5.5c0 1.6.8 3.5 2.4 5.8.3-.3.7 0 1.2 1 1 1.9 1.4 5 1.4 9.1 1.1 1.3 2.8 5.1 5 11.5 2.2 3.2 4.2 7.7 5.8 13.4 1.1 2.6 2 4.3 2.6 5.3.6 1.9 1.9 4.5 3.8 7.7s3.2 5.4 3.8 6.5c.6 1.1 1.4 2.3 2.2 3.6 2.9 4.5 4.9 7.8 6 10.1l2.9 3.8c5.9 11.5 9 17.8 9.4 18.7-.2 2.2-1.3 5.6-3.4 10.1-.2 5.1-3.8 9.4-11 13-2.4 0-5.7-2.2-9.8-6.5-4.2-4.3-7.4-8.9-9.6-13.7-7-10.2-11.7-18.2-13.9-24-6.6-13.1-11.3-25.8-14.2-37.9-.6-1-1.4-2.6-2.3-4.8-.9-2.2-1.7-4-2.5-5.3l-3.1-12-4.3-12-1.7-6.1zm4.5-93.2c-1.1 10.9-1.7 20.3-1.7 28.3-.3 4.5-.7 7.5-1.1 9.1-.4 1.6-.6 5.3-.6 11 0 5.8.9 9.1 2.6 10.1 1.8 0 4.3-1.9 7.7-5.8l5-9.1c1.8-2.9 5.8-8.2 12.2-15.8l6-11.5 2.4-6.2 1-4.3c1.3-4.2 1.7-8.5 1.2-13l-.5-8.2c-1.1-9.9-1.9-15.8-2.3-17.5-.4-1.8-1-3.7-1.8-5.8-.8-2.1-1.7-3.9-2.6-5.5-1-1.6-1.5-2.7-1.7-3.4l-7.4-7.2c-.2-.3-1.1-.8-2.9-1.4-2.7-2.2-6.6-2.6-11.5-1l-1.4 15.4c0 1.9-.4 5.3-1.3 10.1s-1.1 8.3-.6 10.6c-.2 1-.2 2.8-.2 5.5s-.2 6.3-.5 10.8v4.8zm77.1 63.9l1.7-35.5c0-1.9.4-4.8 1.1-8.6.7-3.8 1.2-6.2 1.3-7.2 0-.6.2-1.8.5-3.4 0-8.6 1.2-16.2 3.6-22.6 3.7-17 6.5-29.6 8.4-37.9 1.9-8.3 4-15.2 6.2-20.6.2-1.6 1.8-4.2 5-7.7 6.6-7 12.7-10.6 18.5-10.6 5.8 0 11.3 1.8 16.6 5.3 1.8.6 4.1 3 7.1 7.2s4.7 6.4 5.2 6.7c2.7 3.2 5.6 10 8.5 20.4 3 10.4 4.6 18 4.8 22.8.2 4.8 1.2 12.4 2.9 22.8s2.5 18.1 2.5 23c0 5 .4 12.4 1.3 22.3s1.2 17.9 1.1 24c-1 45.1-3.8 77.8-8.6 97.9-1 14.1-2.8 23-5.5 26.9l-.5 6.7c-.2 3.8-1.1 8.2-2.8 13-1.7 4.8-3.8 8.5-6.4 11-.5 1-3.7 2.4-9.6 4.3-8.5 3.2-14.1 4.8-16.8 4.8-3.5 2.2-8 1.8-13.3-1.2-5.4-3-8.4-4.6-9.2-4.8-.8-.2-2.5-1.9-5.2-5.3-2.6-3.4-4.4-6-5.2-7.9-2.6-3.8-4.1-6.9-4.6-9.1l-3.4-13.4c-2.1-4.2-3.5-10.2-4.3-18-.8-7.8-1.6-12.9-2.4-15.1-.8-3.5-1.5-7.2-2.2-11 .2-2.2.2-6.2.2-12v-4.8c-.6-4.8-.5-9.4.5-13.9.2-2.2.3-5 .4-8.4.1-3.4.3-8.2.6-14.6v-6.2c1.5-9.7 2.1-16.1 2-19.3zm27.3 35l.7 43.2c2.6 18.2 6.3 31 11.3 38.4.8 1.6 2.6 3.4 5.5 5.3l6 2.9c.8 0 1.7-.6 2.6-1.9 1.1-.6 1.9-1.4 2.4-2.4 1.1-2.9 2.2-5.4 3.4-7.7 1.1-2.2 1.6-3.4 1.4-3.4.6-1.3.9-3.4.7-6.2.5-1 1.1-3 1.9-6.2 1.8-17.9 3.5-29.4 5.3-34.6.6-14.1 1-23 1-26.9 0-13.4-1.8-29.9-5.3-49.4-1.9-4.5-2.9-18.7-2.9-42.7-1-4.8-1.5-9.2-1.7-13.2-.2-4-.7-8.3-1.6-13-.9-4.6-1.6-7.8-2-9.4-.5-1.6-.8-3.1-.8-4.6-.1-1.4-.4-3.3-1.1-5.5-2.6-7.7-6.5-3.5-11.8 12.5l-4.1 14.4c0 .6-.8 6.6-2.4 17.8-2.6 17.9-3.8 27.9-3.7 30 .1 2.1-.8 8.7-2.8 19.9-.2 1-.2 3.2-.1 6.7s-.2 8.4-1 14.6c-.5 6.3-.9 13.4-.9 21.4zm93.9-34.1c.5-9.3.6-14.9.5-16.8-.8-7.7-.6-15.4.5-23-.3-13.8 0-30.2 1-49.4-.5-2.9-1.6-5.6-3.4-8.2-1.1-2.6-2.1-4.5-2.9-5.8-3.4-5.4-4.2-13.4-2.4-24 .6-1.9 3.4-6.2 8.2-13 .5-1.6 4.8-5.6 13-12l4.3-3.8c2.1-1.9 5.7-2.9 10.9-2.9s8.8 1.1 10.7 3.4c.5 0 2.3 1.6 5.5 4.8l11 11c.3.3 2.7 3.7 7.2 10.1 2.2 1.9 3.8 4.3 4.6 7.2 3 4.2 5.8 10.3 8.4 18.5 2.6 8.2 4 13.4 4.3 15.6 1 10.2.4 22.6-1.7 37-.6 6.7-5.7 22.4-15.1 47 2.6 1.6 5.4 4.2 8.4 7.7.5 1.6 2.2 3.7 5 6.2.3 1 .8 2.1 1.4 3.4.6 1.3 1.1 2.4 1.4 3.4l1.9 2.4 2.6 6.7c4.2 7.4 6.7 12.8 7.7 16.3 2.4 4.2 3.8 7.8 4.1 11l.5 8.6c0 5.1-1.5 13.8-4.6 25.9-2.7 13.1-5.5 21.8-8.4 25.9l-3.4 9.1c-1.6 3.8-3.6 7.4-5.9 10.8-2.3 3.4-4.3 7-5.9 10.8-1.1 1.3-2.4 2.9-3.7 4.8-1.4 1.9-3.7 4.6-7 8.2-3.3 3.5-5.5 5.6-6.6 6.2-4.6 3.5-9.7 5.3-15.1 5.3-1.6.6-4.6.4-9.1-.7s-8.2-2.6-11.3-4.6c-4-3.5-6.9-6.6-8.6-9.1-1.8-2.6-3.6-5.9-5.4-10.1-1.8-4.2-2.8-6.6-2.9-7.4-.1-.8-.1-3 0-6.7s-.1-6.5-.6-8.4v-3.8c-.5-1.9-.4-5.4.1-10.6.6-5.1.6-9.1.1-12-.3-4.8-.6-9.3-1-13.4-.5-1.3-.2-4.8.7-10.6l.7-56.6V981zm28.1 120.5c0 4.5.2 7.7.5 9.6 2.1-.3 4.4-1.8 7.1-4.6 2.6-2.7 4.3-4.3 5-4.8.7-.5 1.7-1.8 3-4.1 2.9-2.9 7-7.8 12.2-14.9l5.3-10.6c4.2-10.6 7.3-19 9.4-25.4l1.2-8.6c1.8-9.3-.4-17.6-6.5-25-1.1-3.5-3.8-5.9-7.9-7.2h-.3c-5.9-2.2-9.3-3.2-10.1-2.9l-10.3 5.3c-2.2 2.2-4.1 3.4-5.5 3.4-1.4 0-3-1.3-4.6-3.8 0 5.1.2 9.6.5 13.4-1.1 5.4-1.3 11.4-.6 17.8.7 6.4 1 12 .8 16.8-.5 1.6-.2 8.5.7 20.6.6 2.2.7 6.2.1 12-.5 5.8-.5 10.1 0 13zM415.7 935l3.4-15.4c.8-4.5 1.2-8.2 1.1-11.3-.1-3-.1-5.4-.1-7 0-1.6-.1-3.6-.2-6-.2-2.4-.7-4.7-1.7-7-1-2.2-1.9-3.8-2.8-4.6-.9-.8-2.6-2-5.2-3.6l-5.3-.5c-4.8-1.6-8.8-.5-12 3.4l-1.9 44.2-1 33.6-1 17.3c.6 0 1.5-.3 2.6-1 0-.3 2-1.9 6-4.8l3.4-6.2c.6-.3 2.1-3 4.3-8.2l1.4-2.9c.8-.6 1.4-1.7 1.9-3.1.5-1.4.9-2.5 1.2-3.1.3-.6.5-1.1.5-1.4l1.2-3.4c.3.6 1-.5 2.2-3.4l2-5.6zm86.4 90.2c-.2 1.3-.2 3.8-.2 7.7s-.2 7.2-.5 10.1c-.3 2.9-.3 6.4 0 10.6.6 5.8 2 12.8 4.1 21.1 0 1 1.2 3.5 3.6 7.7.6.3 1.3.6 2 1 .7.3 1.3.7 1.8 1.2s1.6.3 3.4-.5c1.8-.8 2.9-1.6 3.5-2.4.6-.8 1.7-2.6 3.5-5.5 1.8-4.5 3.7-7.5 5.8-9.1 3-5.8 5.9-10.7 8.6-14.9 2.6-1 4.2-1.3 5-1 .8.3 1.7 1.6 2.6 3.8 2.2 5.1 2.9 11.7 1.9 19.7-1.3 9-3.7 17.4-7.2 25.4-.6 2.2-1.8 4.3-3.6 6.2-.3.6-.8 2.1-1.4 4.3l-4.6 9.1c-1 0-1.6 1-1.9 2.9-.3 1.9-2.4 4.3-6.2 7.2-4.8 0-9-1-12.7-2.9-8-3.5-13.7-7.8-17-13l-4.6-5.8c-.3-1.3-1.8-3-4.6-5.3l-3.1-7.7-3.6-7.7-2.4-8.6c-.5-1.3-.8-3.8-1-7.4-.2-3.7-.4-6.8-.7-9.4.2-1 .2-4.5.2-10.6.3-2.9.5-6.4.5-10.6.3-1 .3-4.3 0-10.1l.2-4.3v-6.7c0-5.1.3-10.6 1-16.3.6-5.8 1.3-11.8 1.9-18.2 0-4.2.2-7.8.7-11-.5-2.9-.4-9.9.2-21.1v-2.9c0-3.2.1-5.8.2-7.7v-3.4l.5-29.3c0-1 .4-5.1 1.2-12.5 0-3.8.7-10.1 2.2-18.7 1-3.2 1.4-5.9 1.4-8.2 0-1.6.2-4.8.7-9.6.8-1.9 1.4-6.2 1.7-13 .2 0 .6-3.5 1.2-10.6 0-3.8.9-8.2 2.6-13 .3-1.9 1.8-4.2 4.3-6.7h.2c.6-.6 3-1.4 7.2-2.4 1.9 0 4.4 1.3 7.4 3.8.8 0 3 2.4 6.7 7.2 1.9 4.5 1.4 14.7-1.7 30.7 0 2.9-.6 7.2-1.9 13 0 2.9-.2 6.2-.7 10.1 0 2.9-1 14.3-3 34.3-1.8 20.4-3.7 57.2-5.4 111zM605.8 827l4.3-3.8c.5 0 1.2-.5 2.2-1.4 3.5-3.2 8.1-5.6 13.7-7.2 1-2.6 2.8-1.8 5.5 2.4 1.3 1.3 2.1 1.9 2.5 1.9.4 0 1.1 1.2 2.2 3.6 1 2.4 1.7 4.4 2 6l2.6 4.3c1.9 2.2 3 4.1 3.4 5.5.3 1.4.4 4 .1 7.7-.2 3.7-1 7-2.2 10.1-1.2 3-2.4 5-3.7 6-5.4 4.2-9.1 6.2-11 6.2-1.9 0-4.2 1.6-7 4.8-2.7 3.2-5 5.1-6.7 5.8-1.8.6-3.1 1.4-4 2.4-.9 1-2.1 2.6-3.7 4.8-3.8 4.5-7.6 7.4-11.3 8.6.3 0 .2 1.6-.5 4.8-.6 3.2-1.2 7.4-1.7 12.7-.5 5.3-1.4 11.4-2.6 18.5l-2.9 25.9c-.6 5.8-.7 8.6-.2 8.6.5 0 .9-.6 1.2-1.9 8.8-7 14-12.4 15.7-16.1 1.7-3.7 4.2-5.2 7.6-4.6l2.9-1.4c.5-1 1.5-1.4 3.1-1.4 2.9-1.6 6.6 2.2 11.3 11.5l-.7 5.3c-.8 3.2-2.1 6.7-3.8 10.6-1.8 3.8-3.2 6.2-4.2 7.2s-1.8 1.7-2.3 2.2c-.5.5-.8.7-1 .7h-.5c-1 1.9-2 3.5-3.1 4.8-1.3 2.6-2.6 4.5-3.8 5.8-1.3 1.3-2.5 2.6-3.6 4.1-1.1 1.4-2 2.5-2.5 3.1-.6.6-1.2 1.4-2 2.4s-1.7 2.1-2.8 3.4c-1 1.3-1.7 1.9-2 1.9-.3 0-2.1 2.9-5.3 8.6-1 0-2.3-.9-4.1-2.6-1.8-1.8-3-3.6-3.8-5.5-1 0-1.1 4.3-.5 13 0 1.6-.3 5.6-1 12-.6 11.8-.7 23.7-.2 35.5.5 11.8 1.2 19 2.2 21.6 1 2.6 2 3.8 3.1 3.8 2.4-1 4.2-2.3 5.5-4.1 1.3-1.8 2.5-2.8 3.6-3.1 1.1-.3 2.4-1.6 3.7-3.8 1.4-2.2 2.4-3.4 3.1-3.4.7 0 3-3.8 6.8-11.5.5-1.6 1.6-3.3 3.2-5 1.7-1.8 2.5-3.1 2.5-4.1.3-1.3 1.5-3.1 3.5-5.5s4.4-4 7.2-4.8c2.8-.8 4.9-.4 6.4 1.2 2.6 2.9 5.7 8 9.4 15.4.8 2.6.8 8.1-.1 16.6-.9 8.5-2.3 14.6-4.2 18.5l-2.2 4.3c-2.7 6.4-6.7 13.1-12 20.2-4.2 4.5-6.3 6.7-6.5 6.7-1 1.6-1.5 2.6-1.7 2.9-.8 2.9-1.5 4-2 3.4-.6-.6-2-.6-4.3 0s-4.4.6-6.1 0c-1-1-2.2-1.4-3.6-1.4-1.4 1.6-6.8-3.8-16.1-16.3-1.3-1.9-2.2-2.9-2.6-2.9-.5 0-1.5-.3-3.1-1-1.3-1.3-2.8-2.7-4.6-4.3-5.3-6.1-8.4-10.2-9.4-12.5-1-2.2-2.1-4.2-3.4-5.8-1.3-1.6-2-3.4-2.2-5.3-.2-1.9-.6-4-1.4-6.2 0-.6-.5-3.5-1.4-8.6-1.3-4.2-1.7-7.2-1.2-9.1.2-1.9.1-3.4-.2-4.6-.3-1.1-.6-10.4-1-27.8-.3-17.4-.2-27 .5-28.6.6-1.6 1-5.4 1-11.5-.3-5.8.1-10.1 1.3-13s1.7-6.6 1.6-11.3c-.2-4.6.1-8.2.7-10.8.6-1.3 1.2-6.2 1.7-14.9l1-8.6c1.9-7.7 2.9-12.9 2.9-15.6 0-2.7.3-6 1-9.8.2-.6 1.1-6.1 2.9-16.3l1.7-6.7.7-5.8c4-16.3 6.5-25.8 7.4-28.3 0-1.3 1-7.2 3.1-17.8-.2-4.8 1.1-8.2 3.8-10.3 2.7-2.1 5.2-1.8 7.6.7 2.3 2.6 3.7 4.3 4.2 5.3s1.4 2.2 2.9 3.8c.3 1.2 2.8 1.1 7.5-.8zM665 969c0-.3.3-3 1-8.2-.5-3.8-.2-7.8 1-12 0-5.1.4-9.8 1.2-13.9 1.3-1.6 1.7-4.2 1.2-7.7 0-1.9.3-4.3 1-7.2.6-2.9 1-6.4 1-10.6.3-1.3.6-3.1.8-5.5s.6-5.1 1.1-8.2c.5-3 1-7 1.4-11.8l1.2-6.2c1.1-2.9 1.7-5.9 1.7-9.1l1.9-7.7c0-2.9.8-6.4 2.4-10.6 1.4-2.9 2.4-5.8 2.9-8.6.8-4.8 3-9.6 6.7-14.4.5-.6 2.4-1.8 5.9-3.6 3.4-1.8 5.5-2.6 6.2-2.4.7.2 1.6.5 2.5 1 1 .5 1.8 1 2.5 1.4.7.5 1.6 1.1 2.8 1.9 1.1.8 2 1.4 2.6 1.7l2.6 4.3c0 .3.1.6.2 1 1.6 3.2 2.4 8.8 2.4 16.8V860c-.2 3.2-.2 7-.2 11.5v8.6c0 3.8.1 6.6.2 8.2l-.2 11c.2 2.9.2 6.2 0 9.8-.2 3.7-.2 6.9-.1 9.6.1 2.7 0 6.5-.1 11.3.3.3.5 4.2.5 11.8 0 7.5-.2 13.2-.5 17v13c.3 3.2.4 11.5.2 25 .3 3.2.4 5.4.2 6.7.6 16 1 25.1 1.1 27.4.1 2.2.3 4.4.6 6.5.3 2.1.6 5 .7 8.6.2 3.7.4 6.1.7 7.2.3 1.1.9 1.4 1.7.7.8-.6 1.5-2.9 2.2-6.7l1.7-6.7c.5-5.4 1.2-9.4 2.2-12 0-1 .6-4 1.7-9.1.5 0 1.2-1.8 2-5.3.9-3.5 1.6-6.9 2-10.1 1.1-3.8 1.7-6.6 1.7-8.2 4.2-22.1 6.7-35.2 7.7-39.4l1-7.7c1.4-5.4 2.5-11.5 3.1-18.2.8-2.6 1.5-5.8 2-9.8.6-4 1-6.5 1.3-7.4 0-2.2 1.5-12 4.6-29.3.5-.6.9-2.2 1.2-4.8.3-2.6 1.4-8.3 3.1-17.3.6-6.1 1.5-11.5 2.6-16.3 2.2-9.3 5.4-16.8 9.6-22.6 0-1.9 1.3-3.3 4-4.1 2.6-.8 4.4-.1 5.2 2.2.2.3 1 .7 2.4 1.2s3.2 2 5.4 4.6c2.2 2.6 3.5 5.9 4 10.1-.5.6-.8 5-1.1 13.2-.2 8.2-.4 13.5-.6 16.1V885l-.2 12v55.7c-.2 1.9-.2 6.2-.2 13v20.6l.2 31.7c0 5.8.1 10.1.2 13v25.9c0 4.5.2 8 .7 10.6-.2 1.6 0 8.2.5 19.7 1 8.6 1.1 13.6.5 14.9-.3 6.4-1.7 12.6-4.1 18.7-.8 1.6-2.1 2.6-3.8 2.9-4 .6-8.5-5-13.4-16.8-2.4-6.7-4-11.8-4.8-15.4-.3 0-1-2.1-2.2-6.2-.3 0-.6-2.2-.7-6.7-.2 0-1-13.4-2.6-40.3v-9.1c.2-4.5.4-8.1.7-10.8.3-2.7.4-6.6.2-11.8.3-1.9.5-4.6.5-8.2v-8.2c.2-.3.3-3.4.5-9.1.2-5.8.2-9.9.1-12.5-.1-2.6-.1-5.3 0-8.2.1-2.9.1-4.6.1-5.3l.2-6.2c0-2.9-.3-5.6-1-8.2l-2.2 14.4c0 2.2-1 8-2.9 17.3s-2.9 14.2-2.9 14.9c-.3.6-.8 3.4-1.6 8.2-.7 4.8-1.8 11.4-3.2 19.7 0 2.9-.8 7.5-2.4 13.9 0 2.2-1.1 9-3.4 20.2-2.2 11.8-3.8 21.5-4.7 29-.9 7.5-2.4 15.1-4.4 22.8-.3 3.2-.9 5.9-1.7 8.2-1.6 6.1-4 8-7.2 5.8l-3.6-1c-.5.3-1.6 0-3.4-1-.3.6-1.7.6-4.1 0-6.1-4.2-9.5-6.2-10.3-6.2-2.2 0-4.2-3.5-6-10.6-.3-3.2-.7-6.7-1.2-10.6-1.1-9.6-1.8-17.9-2.2-25 .3-.6.1-8.2-.7-22.6l-.2-25c-.5-1-.5-3.4 0-7.2 0-1.9.1-4.2.2-6.7-.3-3.2-.3-7.5 0-13-.3-5.4-.4-9-.4-10.8.1-1.8.1-4 0-6.7s0-7.3.4-13.7c-.2-.6-.4-3.2-.8-7.7s-.8-7.7-1.1-9.6c0 .3-.5 2.1-1.4 5.3-.3 1.6-1.4 7.8-3.1 18.7 0 6.4-.1 10.1-.4 11-.2 1-.5 2.9-.8 5.8l-1.9 20.2c0 1.6-.6 6.2-1.9 13.9l-3.6 24c.2 0 .2.1.2.2 0 .2-.2 3.1-.5 8.9-.3.6-1.1 6.7-2.4 18.2-1 5.8-1.7 14.5-2.2 26.2-.5 11.7-.8 18.6-1.1 20.9-.2 2.2-.4 5-.4 8.2 0 6.1-.7 10.6-2.2 13.4-1.1 4.5-3.9 7-8.4 7.7-5.6-2.6-8.9-6.4-9.8-11.5-.5-3.5-1-6.1-1.7-7.7-.8-5.4-1.1-9.9-1-13.4 1-19.2 1.8-28.8 2.4-28.8.2-1 .2-3.4.2-7.2-.5-2.9-.1-6.2 1.2-10.1-.2-2.2.2-5 1-8.2.6 0 .7-3.8.2-11.5 0-1.6.5-5 1.4-10.1 0-1.3.1-3 .4-5 .2-2.1.4-4.4.6-7 .3-6.4.8-10.7 1.4-13-.6-4.8.5-14.6 3.4-29.3l1-8.5zm200.4-43.6c-1 12.5-1.3 19.6-1.1 21.4.2 1.8.1 6.3-.5 13.7-.6 7.4-.8 13.8-.7 19.2.1 5.4-.2 10.6-.8 15.4v5.3c.8 10.9.8 18.1 0 21.6-.6 6.7-1 11.8-1 15.1s-.1 5.5-.2 6.5c.2 1-.2 6.1-1.2 15.4 0 10.2.1 16.5.2 18.7h1.4c4.2-.6 6.3-1 6.5-1 .2 0 1.2-.5 3.1-1.4h6.2c.5 0 1.5 1.1 3.1 3.4 1.6 2.2 2.7 4.5 3.4 6.7 1.3 2.2 1.7 4.3 1.3 6.2-.4 1.9-2.1 5.4-5.2 10.6l-4.6 3.4c-.6 1.3-1.8 2.6-3.5 3.8-1.7 1.3-3.2 1.9-4.4 1.9-2.2 1.3-4.2 3.8-5.9 7.4-1.7 3.7-5.6 5.4-11.9 5l-8.2.5-4.6 3.4c-5.1 4.2-10.6 4-16.6-.5-1.1-.6-2.4-2.1-3.8-4.3-1.4-2.2-2.1-5-1.9-8.2.2-3.2.6-7.5 1.2-13 3.7-5.8 5.6-8.8 5.8-9.1 6.9-4.8 11.7-8.3 14.4-10.6 0-9.6-.2-15.8-.7-18.7.3-.3.7-7.2 1.2-20.6l-1.4-12c.3-7.7.3-14.1 0-19.2-.3-4.5-.3-11.8 0-22.1.8-1.9.7-7-.2-15.4 0-1.9.5-6.7 1.4-14.4l.2-6.7c.6-15.4 1.1-24.2 1.4-26.4 0-3.2.6-8.8 1.9-16.8l2.9-35c-1.3.6-2.1 1-2.4 1l-7.9 2.9c-6.1 4.2-11.4 1.8-16.1-7.2-4.5-10.6-4.7-19.7-.7-27.4 2.2-4.5 5.8-7.7 10.8-9.6 3.7-2.6 6.5-4.8 8.4-6.7 1.4 0 5.1-3.8 11-11.5 5.8-1.9 9.2-2.9 10.3-2.9l4.8-2.4 6.2-1.4c5.1-1 8.6 0 10.3 2.9 2.7 1 5.3 2.7 7.7 5.3l6 10.1c2.6 7.7 4.2 12.5 4.8 14.4.6 4.2.3 7-1 8.4-1.3 1.4-3.2 2.2-5.8 2.4-2.6.2-4.4.5-5.6 1-1.2.5-2.7 1-4.6 1.4-1.8.5-5.1 2.6-9.7 6.5h-.2c.2 2.2-.3 9.6-1.4 22.1l-.5 3.4c0 3.8-.3 10.1-1 18.7.3 2.2.2 4.7-.4 7.4-.1 2.4-.3 6.5-.2 12zm119.8 108.9c-.5-3.5-.1-11.4 1.2-23.5 0-7.7.2-13.8.5-18.2V983c.6-24.3 1-39.4 1-45.1 0-18.2.8-31.8 2.4-40.8l.2-9.6c0-4.5.1-9 .4-13.7.2-4.6.2-7.4-.1-8.4l3.1-21.1.5-6.2c.3-1 1.6-3.7 3.8-8.2.5-1 2.3-1.4 5.5-1.2 3.2.2 5.8.7 7.7 1.7 1.3 0 2.2.7 2.6 2.2.5 1.4.9 4.6 1.2 9.4.8 3.5 1 8.8.5 15.8.2 1.6.2 3.1.2 4.6 0 1.4-.1 3-.2 4.6.3 5.4.2 12-.5 19.7v12c0 4.8-.3 10.4-1 16.8l-.2 12c0 4.5-.3 8.3-1 11.5 0 3.5-.5 10.1-1.4 19.7 0 5.1-.1 8.2-.4 9.4-.2 1.1-.1 5.2.4 12.2-.5 9.6-.6 17.1-.2 22.6v9.6c0 15-.3 25.1-1 30.2v2.9c0 6.1-.2 10.7-.7 13.9.3 7.4.2 15.2-.5 23.5l-.5 11.5c-2.2 22.7-7.6 35.4-16.1 37.9-10.2 2.9-18.4-3.4-24.5-18.7-.5-2.2-.9-4.6-1.2-7.2-.8-.3-1.4-1.1-1.9-2.4-2.1-6.4-5.1-21-9.1-43.7-1.1-4.5-1.7-7.7-1.7-9.6-1.3-5.1-1.9-9.1-1.9-12-1.3-5.1-1.9-9-1.9-11.5v-7.7l-2.2-11c0-2.2-.2-5.6-.7-10.1-1.6-15-2.6-29-3.1-41.8-.5-12.8-.8-20.3-1-22.6l-1.2 10.6c-.6 12.5-1.4 22.4-2.2 29.8-1.3 13.4-1.9 25.3-1.9 35.5-.3 5.8-.5 10.7-.5 14.9-.3 1.9-.5 4.3-.5 7.2l-.7 32.6c-1 12.2-1.2 26.4-.7 42.7-.2 9.3-1.1 15.4-2.9 18.5-1.8 3-4.2 4.6-7.2 4.6-2.6-1.6-5.6-4.2-9.1-7.7-1-1-1.6-3.4-2-7.4-.4-4-.8-7-1.3-8.9-2.2-4.5-3.5-9.6-3.8-15.4l-1.9-33.6c0-2.9.2-8.2.6-16.1.4-7.8.5-14.2.4-19-.2-4.8.4-12 1.7-21.6 1.1-5.4 1.7-11 1.7-16.8l1.7-38.9c0-5.4.3-9.6 1-12.5 0-3.5.2-7.5.7-12-.3-1.3-.1-3.7.7-7.2l1-7.2c0-2.2.4-5.9 1.1-11 .7-5.1 1.2-11 1.6-17.8.8-11.5 3.9-22.7 9.4-33.6 1.3-1.6 2.6-5.6 4.1-12 1.3-3.2 3.4-6.1 6.2-8.6 3-4.5 6.2-4 9.6 1.4 6.2 4.8 9.9 13.6 11 26.4l.7 12c0 1.6.6 5.9 1.9 13 0 2.6.2 7.2.7 13.9 0 3.8.5 8.5 1.4 13.9l3.1 34.6c.5 1.6 1 4.6 1.7 9.1l1.7 13c.3 7 .8 12.8 1.6 17.3.7 4.5 1.4 9.3 2.2 14.4.7 5.1 1.6 11.7 2.8 19.7 1.1 8 2.1 15.4 3 22.3.9 6.9 2 13 3.5 18.5.3-1.3.5-5.3.5-12l.4-6.4zm58.5 7.7c.3-1 .3-3.2 0-6.7-.6-11.5-.7-19.5-.2-24-.6-17.3-.8-27.4-.6-30.2s.7-4.5 1.3-4.8c-.6-1.9-1.2-9-1.8-21.1-.6-12.2-.7-20.3-.4-24.5-.3-2.6-.4-5.7-.2-9.4s.4-6.2.7-7.4c-.3-.6-.6-3-.7-7.2V885l.5-12.5V862l1.4-14.9c-.5-1.6-.1-4.5 1.2-8.6-1.6-6.7.1-15 5-25 .2-.6 2-2.7 5.5-6.2 2.9-.3 4.8-.3 5.9 0 1 .3 2.6.6 4.8 1 2.2.3 3.8.8 4.9 1.4 2.9 1.9 4.3 7 4.3 15.4v8.2c.3 11.5.5 20.2.5 25.9v10.6c0 4.2-.2 6.6-.5 7.2.2 1.3.2 4.3 0 9.1v8.2c-.5 9.9-.6 15.7-.5 17.3l-1.7 25.4c1.3 1 5.8 1.4 13.7 1.4h12c7 0 11.5-.1 13.3-.2 1.8-.2 3-1.2 3.6-3.1.6-1.9 1-4.5 1.3-7.7.3-3.2.6-6.9.7-11 .2-4.2.3-6.7.5-7.7 1-1.6 1.2-8.5.7-20.6 0-1 .3-3.4 1-7.2 0-4.5.3-9.6 1-15.4 0-6.1.5-11.4 1.6-16.1 1-4.6 1.8-8.6 2.3-11.8.8-5.4 2.7-10.1 5.8-13.9 4-5.8 7.8-9.4 11.5-11h4.3c4.3 1.6 5.8 9.8 4.3 24.5 0 4.8-.6 11-1.9 18.7-1.4 15-2.2 24.8-2.2 29.3s-.6 12.6-1.9 24.5c.3 6.1.4 10.1.1 12-.2 1.9-.4 4.3-.4 7.2-.3 7-.5 11.8-.5 14.4-.3 9.6-.5 17.3-.5 23s-.2 12-.7 18.7c0 6.7-.6 13.6-1.7 20.6l-.7 30.7c0 2.2.6 18.7 1.7 49.4 1 1.9 1.3 5.7 1 11.3-.3 5.6-.9 9.5-1.7 11.8-.8 2.2-1.6 3.5-2.5 3.8-.9.3-2.2.5-4 .5-3.7 4.2-6.6 5.8-8.9 4.8-1.9 0-3.9-1.3-6-3.8-3.4-3.5-5.5-7.8-6.5-13 0-2.2-.2-5-.6-8.2-.4-3.2-.4-6.6-.1-10.3.3-3.7.4-7.6.4-11.8-.1-4.2-.1-9-.1-14.4l.2-5.8c-.3-1.3-.2-3.4.5-6.2.6-2.9.7-5.1.2-6.7v-13l1.2-24.5c-1.6-2.2-1.7-7.5-.2-15.8l.5-3.8c-1.9 1-3.7 1.4-5.3 1.4-4.5 2.2-9.4 3.4-14.9 3.4l-21.6-1.4v5.3c-.3 5.1-.4 12.8-.2 23v9.1c.2 8.3.2 20.2.2 35.5.6 16.6 1 28.6 1 36l-.2 3.4c0 2.6-.2 4.8-.5 6.7 0 6.1-.8 10.2-2.3 12.5-1.5 2.2-4 3.7-7.3 4.3-3.4.6-6.4-1.1-9.1-5.3-3.8-3.8-5.8-7-6-9.6-.2-2.6-.6-5.9-1.4-10.1-.8-2.6-1.4-5.6-1.7-9.1 0-10.2-.1-16-.2-17.3-.5-1.3-.7-3.5-.7-6.7 0-4.2-.5-10.7-1.5-19.7zm130.1-33.6l1.4-21.1c0-4.2.3-8.3 1-12.5 0-5.4 1.4-13.6 4.1-24.5 0-.6.7-4.8 2.2-12.5 0-.6 1.5-10.1 4.6-28.3l2.9-13.9c0-1.3.4-3.8 1.2-7.4.8-3.7 1.4-7.4 1.8-11 .4-3.7.9-7.3 1.6-10.8 2.2-8.6 4.2-16 6-22.1 3.4-12.8 9.6-18.6 18.7-17.3l7.7 1.4c4.8 2.6 8.5 5.3 11 8.2 3.7 2.9 6.2 6 7.4 9.4 1.3 3.4 1.8 8.9 1.7 16.6.2 3.8.6 20.5 1.4 49.9.8 29.4 1.2 44.3 1.2 44.6l1.2 20.6c0 1.9 1.8 25 5.3 69.1l5.3 33.6c3.2 17.9 4.9 27.3 5.2 28.1.2.8.9 4.2 2 10.3 1.8 10.6.2 17.6-4.6 21.1-4.3 1.3-7.5.5-9.6-2.4-.8 0-2.6-1.4-5.5-4.3-.3-1.6-1.2-3.1-2.8-4.6-1.5-1.4-2.5-2.6-3-3.6-1.8-1-3.4-5.9-4.8-14.9-.5-.6-1.4-3.2-2.6-7.7-1.1-4.5-1.4-8.2-1-11-1.1-2.9-1.7-8.8-1.7-17.8-1.4-4.8-2.2-12.3-2.2-22.6 0-10.2-.8-18.2-2.4-24-8.2 7.4-16.9 11.4-26.2 12-1.8 0-2.6.6-2.6 1.9 0 2.9-.5 8-1.4 15.4l-4.1 52.8c1.6 23.7.2 36.2-4.3 37.4-1.3 0-3.4.6-6.4 1.9-3 1.3-5.4.2-7.3-3.4-3.7-4.2-6.3-8.4-7.8-12.7-1.5-4.3-2.2-9.2-2-14.6.2-4.5.6-14.1 1.2-28.8.3-.6.4-4.2.4-10.8-.1-6.6.1-11.6.6-15.1l3.8-29.8c.5-.6 1.1-5.4 1.9-14.4-.2-.6-.2-2.2-.2-4.8l-.3-5.6zm32.4-13.9c.3-.6 2.2-1.4 5.6-2.2 3.4-.8 7.5-3.6 12.1-8.4.2 0 .1-3.8-.2-11.5-.5-13.4-.9-23-1.2-28.8-.3-7.7-.6-13.1-1-16.3 0-6.1-1.2-18.7-3.6-37.9l-10.6 71.5c-2.2 19.8-3.1 32-2.6 36.5l1.5-2.9zm71.2 105.6c.4-3.2 1.6-6.6 3.6-10.3 2-3.7 4-5.5 6.1-5.5 2.1 0 3.9-.6 5.5-1.9 1.6-1.3 3.1-1.9 4.4-1.9 1.4 0 3.5.7 6.5 2.2 3 1.4 5 2.3 6 2.6 1 .3 1.9.6 2.6 1 .7.3 1.4 1.4 2.2 3.4.7 1.9 1.1 4.3 1.1 7.2-2.4 21.4-6.2 35-11.5 40.8l-7.2 2.4c-2.1 0-4.4-2.2-7-6.7-5.1-1-7.7-3.4-7.7-7.2 0-.6-.9-3-2.6-7.2-1.8-4.2-2.6-7.5-2.6-10.1 0-2.7.2-5.6.6-8.8zm40.9-317.3l-2.2 36c-.6 16.3-2.2 46.9-4.6 91.7-2.4 44.8-3.6 75.3-3.6 91.4 0 16.2.5 26.6 1.4 31.4-1.8 6.1-4 9.1-6.7 9.1-1.4 0-2.6-.3-3.6-1-1-.6-1.6-1-1.9-1h-1l-1-.5c-3.7-11.5-5.8-21.8-6.2-30.7-2.7-13.1-4.2-21.5-4.4-25.2-.2-3.7-.6-6.2-1.1-7.4-.5-13.4-.7-20.6-.7-21.6v-20c.6-8 1-16.3 1-25v-7.2c0-6.4.6-15.8 1.9-28.1 1.3-12.3 1.9-22.6 1.9-30.7s1.2-17.7 3.7-28.6c2.5-10.9 4.2-18.6 5-23 .9-4.5 1.5-7.7 1.8-9.6.3-1.9.7-3.7 1.2-5.3.8-2.6 1.8-3.8 3.1-3.8 2.4-1.9 4.1-2.9 5-2.9 7.4 0 11 4 11 12z" class="little-problem" id="Objects"/></svg>