<svg id="Camada_1" xmlns="http://www.w3.org/2000/svg" viewBox="0 0 1000 828"><style>.st0{fill:#fff}</style><g id="XMLID_268_"><path id="XMLID_269_" class="st0" d="M14 383.2c11.7 0 27.6 1.9 46 8.9 29.1-191 149.6-258.1 216.4-280.8C68.1 138 8.8 345.7-.4 384.2c3.5-.5 8.4-1 14.4-1z"/></g><g id="XMLID_262_"><path id="XMLID_263_" class="st0" d="M367.5 111.3c66.9 22.8 187.3 89.9 216.4 280.8 27.7-10.7 49.4-9.5 59.6-7.9-4.4-18.7-20.2-77.3-58.8-135.2-37.9-56.8-105.2-123.3-217.2-137.7z"/></g><path id="XMLID_258_" class="st0" d="M334.9 391.2c0-1.8-.3-3.4-.8-5 28.3.6 59.8 3.3 92.9 9.8-8.1-246.2-94.6-283.7-105-287.3-10.4 3.6-96.9 41.1-105 287.2 11.9-2.5 43.6-8.2 86.5-9.6-.5 1.5-.8 3.2-.8 4.9V650c-.6 16.4-13.7 29.6-29.8 29.6-16.4 0-29.8-13.8-29.8-30.7 0-9.2-7.2-16.6-16.1-16.6-8.9 0-16.1 7.4-16.1 16.6 0 35.3 27.9 64 62.1 64s62.1-28.7 62.1-64c0-.5 0-1-.1-1.4V391.2z"/><path id="XMLID_257_" class="st0" d="M88.5 172.7c0 13.9-10.9 25.1-24.4 25.1s-24.4-11.3-24.4-25.1c0-13.9 15.2-32.6 24.4-53.9 10.3 21.3 24.4 40 24.4 53.9z"/><path id="XMLID_675_" class="st0" d="M68.3 392c10.6-3 33.9-8.4 64.3-8.4 22.3 0 48.5 2.9 76.2 11.8 6.2-187.6 56.7-256.7 87.9-281.7-58 15.7-196.7 74-228.4 278.3zm104.1-78.6c-13.5 0-24.4-11.3-24.4-25.1 0-13.9 15.2-32.6 24.4-53.9 10.3 21.3 24.4 40 24.4 53.9 0 13.9-10.9 25.1-24.4 25.1z"/><path id="XMLID_255_" class="st0" d="M344.9 52.3c0 13.9-10.9 25.1-24.4 25.1s-24.4-11.3-24.4-25.1 15.2-32.6 24.4-53.9c10.3 21.3 24.4 40 24.4 53.9z"/><path id="XMLID_267_" class="st0" d="M434.9 153c-33.9-22.4-66.5-33.8-88-39.5 31.2 24.8 81.9 93.7 88.2 281.9 65.5-20.9 122.1-8.6 140.6-3.4-20.9-134.2-87.8-204-140.8-239zm21.4 104.6c-13.5 0-24.4-11.3-24.4-25.1 0-13.9 15.2-32.6 24.4-53.9 10.3 21.3 24.4 40 24.4 53.9-.1 13.8-11 25.1-24.4 25.1z"/><path id="XMLID_253_" class="st0" d="M557.1 86c0 13.9-10.9 25.1-24.4 25.1-13.5 0-24.4-11.3-24.4-25.1s15.2-32.6 24.4-53.9c10.2 21.3 24.4 40 24.4 53.9z"/><g id="XMLID_349_"><path id="XMLID_603_" class="st0" d="M480.4 637.8v73.4h-51.9V472H494c23.4 0 40.3 4.9 50.5 14.8s15.3 24.9 15.3 45V574c0 19.9-5.1 35.6-15.3 46.9-10.2 11.3-27 16.9-50.5 16.9h-13.6zm0-120.3v72.8H491c5.2 0 9-1.5 11.6-4.5 2.6-3 3.9-7.4 3.9-13.1v-38.5c0-5.5-1.2-9.7-3.7-12.5-2.5-2.8-6.3-4.2-11.4-4.2h-11z"/><path id="XMLID_574_" class="st0" d="M632 625.2v86.1h-50.3V472h65.8c21.7 0 37.5 4.4 47.2 13.1 9.8 8.8 14.7 24 14.7 45.7v30.6c0 10.6-1.7 19-5.2 25.1-3.4 6.1-8.6 10.6-15.5 13.5 7.5 2.9 12.6 7.4 15.2 13.5 2.6 6.1 3.9 14.5 3.9 25.1v55.8c0 3.8.5 7.1 1.5 10 1 2.9 2.4 5.2 4.4 7h-53.9c-1.5-1.1-2.6-3.2-3.4-6.1-.8-3-1.1-6.6-1.1-10.8V642c0-6.4-1.1-10.8-3.2-13.1-2.2-2.3-6.2-3.5-12.3-3.5H632zm0-107.7V577h12c5.4 0 9.1-1.1 11.1-3.2s3.1-5.6 3.1-10.5v-30.6c0-5.5-1-9.5-3.1-11.8-2-2.3-5.8-3.5-11.1-3.5h-12z"/><path id="XMLID_514_" class="st0" d="M846.5 711.2H733V472h112.6v49.2h-60.3v44.5h53.9v49.9h-53.9v44.5h61.3v51.1z"/><path id="XMLID_350_" class="st0" d="M920.7 637.8v73.4h-51.9V472h65.5c23.4 0 40.3 4.9 50.5 14.8 10.2 9.9 15.3 24.9 15.3 45V574c0 19.9-5.1 35.6-15.3 46.9-10.2 11.3-27 16.9-50.5 16.9h-13.6zm0-120.3v72.8h10.6c5.2 0 9-1.5 11.6-4.5 2.6-3 3.9-7.4 3.9-13.1v-38.5c0-5.5-1.2-9.7-3.7-12.5-2.5-2.8-6.3-4.2-11.4-4.2h-11z"/></g><path class="st0" d="M426 825.7v-15.6h8.4v-33.2h-7.3v-11.8c2.7-.6 4.9-1.9 6.7-3.9 1.8-2 3.1-4.5 4-7.5h12.5v56.4h7.8v15.6H426zm41-3.5c-3.1-3.2-4.7-7.6-4.7-13.2v-9.6h16.8v8.6c0 1.1.3 2.1.9 2.8.6.7 1.5 1.1 2.7 1.1 1.4 0 2.4-.4 3-1.2.5-.8.8-1.9.8-3.3v-13.6c0-1.5-.3-2.6-1-3.3s-1.7-1.1-3.1-1.1c-1 0-1.8.3-2.5.9-.7.6-1.3 1.3-1.8 2.2l-.5 1.6-14.7-3.7 4.2-36.6h34.5v.9c0 2.1-.1 3.9-.3 5.4-.2 1.5-.5 2.7-.9 3.8-.7 1.9-2.1 3.2-4.3 3.8-2.2.6-5.4.9-9.7.9h-6.5l-1.7 14.6c1.1-2.1 2.5-3.8 4.2-5 1.7-1.2 4.3-1.8 7.6-1.8 4.7 0 8 1.5 9.8 4.5 1.8 3 2.8 7 2.8 12.1v16c0 5.6-1.6 10-4.7 13.3-3.1 3.3-8.2 4.9-15.1 4.9-7.4-.2-12.6-1.8-15.8-5zm81-18.8h-39.9v-15.5H548v15.5zm5.5 22.3v-15.6h8.4v-33.2h-7.3v-11.8c2.7-.6 4.9-1.9 6.7-3.9 1.8-2 3.1-4.5 4-7.5h12.5v56.4h7.8v15.6h-32.1zm41.6-3.6c-3.2-3.3-4.8-7.8-5-13.7v-8.6H607v8.1c0 1.5.3 2.6.9 3.3.6.8 1.6 1.2 3.1 1.2 1.4 0 2.3-.4 3-1.4.6-.9.9-2.6.9-5v-16c-.8 1.7-2.1 3.2-3.7 4.4-1.6 1.2-3.8 1.7-6.4 1.7-4.7 0-8.3-1.2-10.9-3.5-2.5-2.3-3.8-6-3.8-11.1v-10.6c0-5.9 1.7-10.4 5.2-13.6 3.5-3.2 8.4-4.9 14.9-4.9 7.1 0 12.4 1.8 15.8 5.3 3.4 3.5 5.1 9.2 5.1 17v30.7c0 7.3-1.7 12.8-5.2 16.3s-8.5 5.3-15 5.3c-7.4 0-12.6-1.6-15.8-4.9zm17.9-38.5c.7-.3 1.3-.8 1.8-1.5v-9c0-2.2-.3-3.8-1-4.8s-1.8-1.5-3.3-1.5c-1.3 0-2.3.3-3 1-.7.7-1 1.7-1 3.1V781c0 1 .3 1.7 1 2.3.7.5 1.7.8 3 .8 1 0 1.8-.2 2.5-.5zm48.8 42.1v-70.8H679c6.3 0 10.8 1.3 13.3 4s3.8 6.5 3.8 11.4v4.3c0 3.9-.7 7.1-2.1 9.4-1.4 2.4-3.8 4-7.2 5 3.6.9 6.2 2.5 7.9 4.8 1.6 2.3 2.4 5.5 2.4 9.5v5.9c0 5.3-1.2 9.4-3.5 12.3-2.4 2.9-6.7 4.3-13.1 4.3h-18.7zm4.7-66.6V787h12.6c4.4.1 7.6-1 9.5-3.1 1.9-2.1 2.9-5.2 2.9-9.4v-3.9c0-3.7-.9-6.6-2.7-8.6-1.8-2-5-2.9-9.8-2.9h-12.5zm0 32.2v30H680c4.9 0 8.1-1 9.7-3.1 1.7-2.1 2.5-5.2 2.5-9.3v-5.5c0-4-1-7-3-9s-5.3-3.1-10-3.1h-12.7zm48.1 3.3v31.1H710v-70.8h17.3c6.1 0 10.4 1.4 13.1 4.3 2.7 2.9 4 7 4 12.3v6.3c0 3.9-.8 7-2.4 9.4-1.6 2.4-4.1 4.1-7.4 5.1 3.2.7 5.5 2.1 6.9 4.1 1.4 2.1 2 5.3 2 9.5v15.4c0 1 .1 1.9.4 2.6.3.7.6 1.3 1.2 1.8h-5.3c-.3-.5-.6-1.2-.7-1.9-.2-.7-.2-1.6-.2-2.6V806c0-4.1-.9-7.1-2.6-8.8-1.8-1.7-4.9-2.6-9.3-2.6h-12.4zm0-35.4v31.2h12.1c4.2 0 7.4-1.1 9.6-3.3 2.2-2.2 3.2-5.4 3.2-9.5v-5.8c0-4.1-.9-7.2-2.8-9.4-1.8-2.2-5.1-3.2-9.7-3.2h-12.4zm70.4 49.1h-21.7l-4.1 17.4h-4.8l17.2-70.8h4.6l17.9 70.8h-4.9l-4.2-17.4zm-20.7-4.6h19.5l-8.5-35.5-1.4-8.8-1.5 8.9-8.1 35.4zM807 822c-3.1-3.1-4.6-7.6-4.6-13.3v-7.4h4.9v7.3c0 4.3 1.2 7.6 3.5 10 2.4 2.4 5.8 3.6 10.3 3.6 4.4 0 7.7-1.2 9.8-3.7 2.1-2.4 3.2-5.4 3.2-8.9v-3.3c0-1.5-.2-2.9-.5-4.1-.4-1.2-.9-2.3-1.6-3.2-1.4-1.9-3.3-3.4-5.5-4.6-2.3-1.2-4.6-2.4-7.1-3.3-1.3-.6-2.6-1.2-3.8-1.8-1.3-.6-2.5-1.2-3.6-1.9-2.4-1.3-4.4-3.1-5.9-5.3-1.6-2.2-2.3-5.1-2.3-8.8v-2.8c0-4.9 1.5-8.8 4.5-11.8s7.1-4.5 12.4-4.5c5.4 0 9.5 1.4 12.5 4.2 2.9 2.8 4.4 6.8 4.4 11.9v6.4h-4.7v-6.2c0-3.9-1.1-6.9-3.2-9-2.2-2-5.2-3-9.1-3-3.8 0-6.8 1.1-8.9 3.3-2.1 2.2-3.2 5.1-3.2 8.7v2.5c0 1.4.2 2.7.5 3.8.4 1.2.9 2.2 1.5 3.1 1.4 1.7 3.1 3.2 5.3 4.3 2.2 1.1 4.5 2.2 6.9 3.3 1.3.5 2.6 1.1 3.9 1.7 1.3.6 2.6 1.3 3.8 2.1 2.5 1.4 4.5 3.2 6.1 5.6 1.6 2.3 2.4 5.4 2.4 9.3v3.4c0 1.6-.2 3.1-.5 4.5s-.8 2.8-1.5 4.1c-1.4 2.6-3.3 4.7-6 6.2-2.6 1.5-5.9 2.3-9.7 2.3-6.5 0-11.2-1.5-14.2-4.7zm39.9 3.7v-4.5h10v-61.9h-10v-4.4h24.5v4.4h-9.9v61.9h9.9v4.5h-24.5zm36.1 0v-70.8h4.7v66.2h23.6v4.6H883z"/></svg>