<svg xmlns="http://www.w3.org/2000/svg" viewBox="0 0 919 293.2"><style>.make-out{fill:#fff}</style><path d="M77.4 106c.2.6.3.9.5 1 .2.1.2.5.2 1 0 1.7-2 4.8-6 9.5-4 4.6-9 9.8-14.9 15.5-5.9 5.7-12.2 11.5-18.7 17.2-6.6 5.7-12.4 10.4-17.5 14.1 0 .6-.2 2.4-.5 5.5s-.5 5-.5 5.9v8c0 6.4.6 12.8 1.7 19.1 1.1 6.3 2.8 12 5.2 17 2.3 5 5.2 9.1 8.5 12.2 3.4 3.1 7.3 4.6 11.8 4.6 1.9 0 4.3-.6 7.1-1.9 2.8-1.3 5.5-3.1 8.2-5.5 2.6-2.4 5-5.2 7.1-8.6 2.1-3.4 3.4-7.1 3.8-11.3 1.9.3 3.1 1.3 3.5 2.9.4 1.7.6 2.8.6 3.4 0 7.3-1 13.5-3 18.7-2 5.2-4.5 9.4-7.4 12.6-3 3.2-6.1 5.6-9.4 7.1-3.3 1.5-6.2 2.3-8.8 2.3-13.8 0-23.8-6.7-30-20.2-6.2-13.4-9.4-31.1-9.4-52.9 0-1.1.2-3.6.5-7.6.3-3.9.5-6.6.5-8 0-.3-.3-.6-1-1.1-.6-.4-1.3-.9-2-1.5s-1.4-1.5-1.9-2.7c-.6-1.3-.8-3-.8-5.2s.5-4.1 1.4-5.5c1-1.4 2.1-2.7 3.4-3.8l2.4-2.5c1.4-10.6 3.2-20.9 5.2-30.9 2-9.9 4.5-20 7.6-30-1.3 0-2.6-.3-4.1-.8-1.4-.6-2.2-2.5-2.2-5.9 0-3.9 1.3-8.3 4-13 2.6-4.8 5.7-9.2 9.1-13.4 3.4-4.2 6.8-7.8 10.2-10.7 3.4-2.9 5.8-4.4 7.2-4.4.6 0 1.1.2 1.3.6.2.4.7.6 1.3.6 1.3 0 2.9-.4 4.9-1.3 2-.8 4.1-1.8 6.4-2.9 2.2-1.1 4.4-2.1 6.4-2.9 2-.8 3.6-1.3 4.9-1.3 1.4 0 2.5.8 3.2 2.5.7 1.7 1.1 3.5 1.1 5.5 0 2.2-.8 3.9-2.4 4.8-1.6 1-3 1.8-4.3 2.3-4.5 1.4-9.2 3.9-14 7.4-4.9 3.5-9.4 7.4-13.6 11.5-1.6 3.1-3.5 7.5-5.8 13.2-2.2 5.7-4.4 12.3-6.5 19.5-2.1 7.3-4 14.8-5.6 22.7-1.7 7.8-2.8 15.3-3.2 22.3l4.1-3.4c12.3-10.4 22.4-18.5 30.1-24.4 7.8-5.9 13.8-8.8 18.1-8.8.7.2 1.4.8 2 1.9zm232.1 60.9c0 5-1.3 11.3-4 18.7-2.6 7.4-6.2 14.6-10.7 21.6-4.5 7-9.7 13-15.6 17.9-5.9 4.9-12.1 7.3-18.5 7.3-2.9 0-5.9-.8-9.1-2.5-3.2-1.7-6.3-4.1-9.4-7.4-3-3.2-5.8-7.1-8.2-11.8-2.4-4.6-4.2-9.9-5.3-15.8-1 1.7-2.1 4.5-3.5 8.4-1.4 3.9-2.8 7.9-4.4 12-1.6 4.1-3.4 7.6-5.3 10.5-1.9 2.9-3.9 4.4-6 4.4s-3.8-1.9-5.2-5.7c-1.4-3.8-2.4-8-3.2-12.6-.8-4.6-1.4-9-1.7-13.2-.3-4.2-.5-6.6-.5-7.1 0-3.4.6-9.7 1.7-19.1 1.1-9.4 2.8-19.1 5-29.2 2.2-10.1 5.1-19 8.5-26.9 3.4-7.8 7.5-11.8 12.1-11.8 1.8 0 2.9 1.3 3.5 4 .6 2.7.8 5.2.8 7.8V129c.8 1.1 1.6 1.9 2.5 2.3.9.4 1.7 1 2.4 1.7s1.3 1.8 1.7 3.1c.4 1.4.6 3.6.6 6.7 0 2-.1 3.7-.2 5.2-.2 1.5-.2 3-.2 4.4 0 7.3.3 14.4 1 21.4.6 7 1.9 13.2 3.8 18.7s4.6 9.9 7.9 13.4c3.4 3.5 7.8 5.2 13.4 5.2 7 0 13-2.6 17.9-7.8 4.9-5.2 9-10.9 12.2-17.2 3.3-6.3 5.9-12 7.8-17.2 1.9-5.2 3.5-7.8 4.8-7.8 2.4.3 3.4 2.2 3.4 5.8zm-84.2-18.5c0-1.1-.2-2.2-.5-3.2s-.5-1.9-.5-2.7c0-1.1.2-2.1.5-2.9.3-.8.5-2 .5-3.4 0-.8-.2-1.5-.5-1.9-.3-.4-.5-.9-.5-1.5-1.4.6-2.9 2.9-4.4 7.1-1.5 4.2-3 9.1-4.3 14.7-1.4 5.6-2.4 11.3-3.2 17-.8 5.7-1.2 10.4-1.2 14.1 0 2 .3 5.2 1 9.7.6 4.5 1.4 7.4 2.2 8.8 2.7-9.8 5.2-19.3 7.6-28.6 2.1-9.1 3.3-18.2 3.3-27.2zM340.5 42.6c0 2.2-1 5.5-2.9 9.7-1.9 4.2-4.2 8.5-6.8 13-2.6 4.5-5.4 8.6-8.2 12.4-2.8 3.8-5 6.4-6.6 7.8-1.3 1.1-2.4 1.8-3.4 2.1-1 .3-1.8.4-2.4.4-1.3 0-2.9-1.3-4.8-3.8s-2.9-4.9-2.9-7.1c0-.6.7-1.3 2.2-2.3 1.4-1 3-2.3 4.8-4 1.6-1.7 3.7-4.4 6.4-8.2s5.3-7.6 7.9-11.3c2.6-3.8 5-7.1 7.2-9.9 2.2-2.8 3.6-4.2 4.4-4.2 1.1 0 2.2.6 3.4 1.7 1.1 1 1.7 2.3 1.7 3.7zm-6 175.5c0 2-.8 3.6-2.5 5s-2.9 2.1-3.7 2.1c-1.6 0-3-1.8-4.3-5.5-1.3-3.6-2.4-7.8-3.4-12.6s-1.8-9.3-2.4-13.6c-.6-4.3-1.1-7.4-1.4-9-.5-2.8-1.1-6.2-1.9-10.1-.8-3.9-1.6-7.7-2.3-11.3-.7-3.6-1.3-6.9-1.8-9.7-.5-2.8-.7-4.3-.7-4.6 0-3.9.4-7.6 1.3-10.9.9-3.4 2-5 3.2-5 1.4 0 3 2 4.6 5.9 1.6 3.9 3.2 8.9 4.7 14.9s2.9 12.6 4.2 19.7c1.3 7.1 2.4 13.9 3.4 20.2 1 6.3 1.7 11.8 2.3 16.4.4 4.6.7 7.3.7 8.1zm37.2 22.7c0 3.1-.7 7.6-2 13.4-1.4 5.9-3.1 11.8-5.2 17.6-2.1 5.9-4.4 11-7.1 15.3-2.6 4.3-5.2 6.5-7.6 6.5-1.3 0-2.4-.9-3.2-2.7-.9-1.8-1.3-3.2-1.3-4 0-.3.8-2 2.3-5.2 1.5-3.2 3.2-7.1 5.2-11.5 1.9-4.5 3.6-9.4 5.2-14.7 1.5-5.3 2.3-10.5 2.3-15.5 0-5.3-.4-9.3-1.1-12-.7-2.7-1.5-4.9-2.3-6.7-.8-1.8-1.6-3.5-2.3-5-.7-1.5-1.1-3.8-1.1-6.9 0-4.2 1.3-6.3 3.8-6.3 2.6 0 4.7 1.5 6.5 4.4 1.8 2.9 3.2 6.4 4.4 10.5 1.2 4.1 2.1 8.2 2.6 12.4.6 4.1.9 7.6.9 10.4zm176.6-114.6c0 2-.5 3.6-1.4 4.8-1 1.3-2.1 2.3-3.4 3.1-1.3.8-2.6 1.5-3.8 1.9-1.3.4-2.3.6-3.1.6-2.4 0-4-.3-4.8-.8-.8-.6-1.4-.8-1.9-.8-4 0-7.2.6-9.6 1.7-2.4 1.1-4.3 2.9-5.6 5.5-1.4 2.5-2.2 5.7-2.6 9.5-.4 3.8-.6 8.3-.6 13.6 0 9 .2 16.1.6 21.4.4 5.3.8 9.7 1.2 13 .4 3.4.8 6 1.2 7.8.4 1.8.6 3.6.6 5.2 0 2.2-.7 4.6-2 7.1-1.4 2.5-2.6 3.8-3.7 3.8-1.9 0-3.6-3-5.2-9-1.5-6-2.8-13.2-3.8-21.4-1-8.3-1.9-16.4-2.5-24.6-.6-8.1-1-14.3-1-18.5 0-4.8.2-9.3.7-13.6.5-4.3 1.1-8.1 1.9-11.3.8-3.2 1.7-5.8 2.6-7.8 1-2 1.9-2.9 2.9-2.9.8 0 1.4.5 1.9 1.5s.9 2.1 1.2 3.4c.3 1.3.7 2.4 1.1 3.4.4 1 .9 1.5 1.6 1.5 1.4 0 3.8-1.3 7-3.8s7.1-3.8 11.8-3.8c4.3 0 7.6.2 9.7.6s4.3 1.3 6.4 2.7c.5.3 1.1.9 1.8 1.9.4.8.8 2.3.8 4.3zm62.2 37.3c0 6.2-.5 12-1.4 17.6-1 5.6-2.2 10.5-3.8 14.7-1.6 4.2-3.5 7.5-5.6 9.9-2.2 2.4-4.5 3.6-7.1 3.6-4.5 0-8-2.2-10.6-6.7-2.6-4.5-4.5-9.7-5.9-15.5-1.4-5.9-2.2-11.8-2.6-17.8-.4-6-.6-10.6-.6-13.7 0-5 .4-10.7 1.3-17 .9-6.3 2.1-12.1 3.6-17.4 1.5-5.3 3.2-9.8 5.2-13.4 1.9-3.6 3.9-5.5 6-5.5.5 0 1.2.3 2.3.8 1 .6 2.1 1.4 3.2 2.5s2.1 2.5 3 4.2c.9 1.7 1.5 3.6 1.8 5.9 1.8.3 3.5 1.4 5.3 3.4 1.8 2 2.7 3.5 2.9 4.6 1.3 7.3 2.1 14.6 2.5 21.8.3 7.3.5 13.3.5 18zm-10.8-7.5c0-4.2-.2-8.6-.7-13.2-.5-4.6-1.4-9.3-2.9-14.1-.3.3-.7.4-1.2.4-.6 0-1.2-.1-1.6-.4-.4-.3-.8-.4-1.1-.4-1.9 0-3.4.9-4.6 2.7-1.1 1.8-2 4.2-2.5 7.1-.6 2.9-.9 6.1-1.1 9.4-.2 3.4-.2 6.6-.2 9.7 0 3.1.1 6.5.2 10.3.2 3.8.5 7.4 1.1 10.7.6 3.4 1.3 6.2 2.3 8.6 1 2.4 2.2 3.6 3.8 3.6 1.6 0 3-1.5 4.1-4.4 1.1-2.9 2-6.4 2.6-10.3.6-3.9 1.1-7.8 1.3-11.5.3-3.8.5-6.5.5-8.2zm65.5 91.1c-1 1.1-2.1 1.7-3.4 1.7-1.4 0-2.9-2.4-4.4-7.1-1.5-4.8-3-10.8-4.4-18.1-1.4-7.3-2.8-15.2-4.1-23.7-1.3-8.5-2.4-16.5-3.4-23.9-1-7.4-1.7-13.7-2.3-18.7-.6-5-.8-7.8-.8-8.4 0-1.1-.3-4.1-.8-8.8-.6-4.8-1.3-12.2-2.2-22.3-.9-10.1-1.8-23.2-2.9-39.3-1-16.1-2.1-36-3.2-59.9 0-2.5.2-5.7.7-9.7.5-3.9 1.6-5.9 3.4-5.9 2.2 0 4 2.7 5.2 8 1.2 5.3 2.2 11.9 2.9 19.7.7 7.8 1.2 16 1.6 24.6.3 8.5.7 16 1.2 22.5.6 9 1.2 17.1 1.8 24.4.6 7.3 1.1 14.5 1.7 21.6.6 7.1 1.3 14.6 2.2 22.5.9 7.8 2 16.5 3.2 26l9.6 69.7c-.2 2.3-.7 4-1.6 5.1zm63.1-83.6c0 6.2-.5 12-1.4 17.6-1 5.6-2.2 10.5-3.8 14.7-1.6 4.2-3.5 7.5-5.6 9.9-2.2 2.4-4.5 3.6-7.1 3.6-4.5 0-8-2.2-10.6-6.7-2.6-4.5-4.5-9.7-5.9-15.5-1.4-5.9-2.2-11.8-2.6-17.8-.4-6-.6-10.6-.6-13.7 0-5 .4-10.7 1.3-17 .9-6.3 2.1-12.1 3.6-17.4 1.5-5.3 3.2-9.8 5.2-13.4 1.9-3.6 3.9-5.5 6-5.5.5 0 1.2.3 2.3.8 1 .6 2.1 1.4 3.2 2.5s2.1 2.5 3 4.2c.9 1.7 1.5 3.6 1.8 5.9 1.8.3 3.5 1.4 5.3 3.4 1.8 2 2.7 3.5 2.9 4.6 1.3 7.3 2.1 14.6 2.5 21.8.3 7.3.5 13.3.5 18zm-10.8-7.5c0-4.2-.2-8.6-.7-13.2-.5-4.6-1.4-9.3-2.9-14.1-.3.3-.7.4-1.2.4-.6 0-1.2-.1-1.6-.4-.4-.3-.8-.4-1.1-.4-1.9 0-3.4.9-4.6 2.7-1.1 1.8-2 4.2-2.5 7.1-.6 2.9-.9 6.1-1.1 9.4-.2 3.4-.2 6.6-.2 9.7 0 3.1.1 6.5.2 10.3.2 3.8.5 7.4 1.1 10.7.6 3.4 1.3 6.2 2.3 8.6 1 2.4 2.2 3.6 3.8 3.6 1.6 0 3-1.5 4.1-4.4 1.1-2.9 2-6.4 2.6-10.3.6-3.9 1.1-7.8 1.3-11.5.4-3.8.5-6.5.5-8.2zm114 28.5c0 2.5-1 5.2-2.9 8s-4.2 5.4-6.7 7.8c-2.6 2.4-5.2 4.4-7.8 6.1-2.6 1.7-4.6 2.5-5.9 2.5-1.4 0-3-.7-4.7-2.1-1.7-1.4-3.3-3.1-4.8-5-1.5-2-2.8-3.8-4-5.5-1.1-1.7-1.8-2.8-2.2-3.4-.5.8-1.2 2.5-2.2 5-1 2.5-2.1 5.2-3.5 8.2-1.4 2.9-2.8 5.5-4.3 7.8-1.5 2.2-3.1 3.4-4.7 3.4-4.2 0-7.8-3.9-10.8-11.8-3-7.8-5.6-16.8-7.6-26.9-2-10.1-3.5-19.8-4.6-29.2-1-9.4-1.6-15.8-1.6-19.1 0-2 .6-3.6 1.8-4.8 1.2-1.3 2.1-1.9 2.8-1.9 2.2 0 3.8 1.3 4.6 4 .8 2.7 1.2 5.5 1.2 8.6 0 2.5.4 7 1.3 13.4s2 13 3.2 19.7c1.3 6.7 2.6 12.7 4.1 17.8 1.4 5.2 2.7 7.8 3.8 7.8 2.1 0 3.9-2.3 5.4-6.9 1.5-4.6 2.8-9.9 3.7-16 1-6 1.7-11.8 2.2-17.2.5-5.5.7-9 .7-10.7 0-.3 0-1.2.1-2.7.1-1.5.2-3.1.4-4.8.2-1.7.3-3.2.4-4.6.1-1.4.1-2.4.1-2.9 0-2-.2-3.3-.7-4-.5-.7-.7-2.2-.7-4.4 0-1.7.5-3.3 1.4-4.8 1-1.5 3-2.3 6.2-2.3 1.3 0 2.3.6 3 1.9.7 1.3 1.2 2.7 1.6 4.4.3 1.7.5 3.3.6 4.8.1 1.5.1 2.6.1 3.1 0 .3-.1 2.2-.2 5.9-.2 3.6-.3 7.6-.4 12-.1 4.3-.2 8.5-.4 12.4-.2 3.9-.2 6.3-.2 7.1s.2 2.5.7 5c.5 2.5 1.1 5.1 1.8 7.8s1.6 5 2.5 7.1 2 3.2 3.1 3.2c1.9 0 3.7-.5 5.4-1.5 1.7-1 3.3-2.1 4.8-3.4 1.5-1.3 2.9-2.4 4.2-3.4 1.3-1 2.5-1.5 3.6-1.5 1.4 0 2.8.6 4 1.7 1.5 1.3 2.1 2.7 2.1 4.3zM916 72.8c0 5-1.2 10.3-3.6 15.8-2.4 5.5-5.4 11.1-8.9 16.8-3.5 5.7-7.4 11.6-11.5 17.4-4.2 5.9-8 11.7-11.5 17.4-3.5 5.7-6.5 11.3-8.9 16.6-2.4 5.3-3.6 10.2-3.6 14.7 0 3.1.2 6.4.6 9.9.4 3.5 1 6.4 1.8 8.6-.8 2.5-1.6 4.5-2.4 5.9-.8 1.4-1.8 2.1-3.1 2.1-1.1 0-2.1-.8-3-2.5-.9-1.7-1.6-3.8-2.3-6.3-.6-2.5-1.2-5.2-1.6-8-.4-2.8-.6-5.3-.6-7.6 0-6.4.5-11.8 1.4-16.2 1-4.3 2.4-8.4 4.4-12.2 2-3.8 4.4-7.6 7.3-11.5 2.9-3.9 6.2-8.4 10.1-13.4 2.9-3.9 5.8-8.1 8.8-12.6 3-4.5 5.6-8.9 7.9-13.2 2.3-4.3 4.2-8.5 5.8-12.6 1.5-4.1 2.3-7.8 2.3-11.1 0-2.8-.7-5.6-2-8.4-1.4-2.8-3.2-5.2-5.4-7.4-2.2-2.1-4.9-3.8-7.9-5-3-1.3-6.2-1.9-9.6-1.9-7.5 0-13.4 1-17.6 2.9-4.2 2-7.6 2.9-10.2 2.9-1.3 0-2.6-.6-3.8-1.9-1.3-1.3-1.9-3.1-1.9-5.7 0-3.4 1.4-6.2 4.3-8.4s6.2-3.9 10-5 7.4-1.9 10.8-2.3c3.4-.4 5.7-.6 6.8-.6 5 0 9.7 1.3 14.2 3.8s8.4 5.7 11.9 9.7c3.4 3.9 6.2 8.5 8.2 13.6 1.8 5.2 2.8 10.4 2.8 15.7zm-31.5 178.9c0 3.4-1 5.9-2.9 7.8-1.9 1.8-3.7 2.7-5.3 2.7-1.4 0-3.1-1.3-5-4s-2.9-5.2-2.9-7.8c0-.8 0-2 .1-3.6.1-1.5.3-3.2.7-4.8.4-1.7.9-3.2 1.6-4.4.6-1.3 1.5-1.9 2.6-1.9.5 0 1.3.6 2.5 1.9 1.2 1.3 2.4 2.7 3.7 4.4 1.3 1.7 2.4 3.4 3.4 5.2 1.1 2 1.5 3.4 1.5 4.5z" class="make-out" id="Objects"/></svg>