<svg id="Camada_1" xmlns="http://www.w3.org/2000/svg" viewBox="0 0 897.3 1112.1"><style>.prep-right-close{fill:#000}</style><g id="Objects"><g class="prep-right-close"><path d="M36.4 23.1l20.2-3.4 25.9-2.1 13.7 2.1c1 1.1 3.2 1.8 6.8 2.1 7-.3 16.3 4.3 28.1 13.9 2.9 1.1 5.3 3.1 7.2 5.9L152 60.9c.5.6 1.2 2 2.2 4.4 1 2.4 2.3 5.1 4 8.2-.5 0-.1 1.1 1.1 3.4 3.1 6.2 4.6 9.8 4.3 10.9 1.2 1.1 2.4 4.8 3.6 10.9 1.2 6.2 1.6 10.4 1.1 12.6.2.3 0 3.5-.7 9.7-1.7 13.4-4.7 23.4-9 29.8l-4.7 10.1-7.9 13.4-4.7 5c-8.6 11.2-19.2 19.9-31.7 26-.5.3-1.2.6-2.2.8l-8.6 3.4-14 4.2c0 8.1.8 26.9 2.5 56.3 1 10.1 1.7 15.7 2.2 16.8 0 9.2-.5 15.5-1.4 18.7-1 3.2-2.5 5.6-4.7 7.1s-5.9 2.4-11.2 2.7c-1.4.6-4 .1-7.6-1.5-3.6-1.5-6.5-3.9-8.6-6.9l-2.2-13.4c.5-.6-.2-3.2-2.2-8-1.7-2.2-3-6.2-4-11.8L45 233.9l-.4-13.4c-13.9 1.1-22.3-3.4-25.2-13.4-2.4-5.3-2.9-8.8-1.4-10.5l1.8-5.5c2.9-5.3 8.4-8 16.6-8H44c-.5-.6-.7-2.5-.7-5.9l-1.4-17.6V152l-.4-5.5c.2-2.5.1-5.3-.4-8.4v-2.5l-.7-10.5v-8L40 113c0-19.9-1-32.5-2.9-37.8-7.9 5.3-13.2 8.2-15.8 8.6-2.6.4-7.1-1.6-13.3-6.1-2.6-2.5-4.1-5.3-4.3-8.4-4.3-7-5.8-12.7-4.3-17.2.5-2.2 2.4-5.7 5.8-10.5.2-1.1 3.1-3.6 8.6-7.6 4.2-5 11.8-8.7 22.6-10.9zm74.5 48.3c-6.2-4.2-18.4-6.3-36.4-6.3l2.2 26c1.9 15.1 3.6 43.4 5 84.8 2.2-.6 3.6-1.3 4.3-2.1 1.9-1.7 4-2.5 6.1-2.5 3.1-.8 6.1-3.4 9-7.6 7.2-7 12.7-12.9 16.6-17.6l11.9-16c.7-.3 1.9-3.4 3.6-9.4 1.7-6 2.8-11 3.2-14.9 0-8.1-.7-12.7-2.2-13.9 0-.6-1.4-4.1-4.3-10.5-1-.8-3.8-2.9-8.6-6.3l-10.4-3.7z"/><path d="M240.1 197.4c-1.9 1.1-3.1 1.7-3.6 1.7-.2.8-.4 2.4-.4 4.6v5c0 2-1.1 8-3.2 18.1v4.2c0 4.2-.6 7.6-1.8 10.1l-1.4 18.5-2.2 10.5c-.5 1.7-.5 3.2-.2 4.6.4 1.4.7 6.5 1.1 15.3.4 8.8.1 15.2-.9 19.1l-2.2 3.8c-4.8 1.7-7.9 2.1-9.4 1.3-1.4-.8-3.8-1.4-7.2-1.7-3.4-.3-5.2-.5-5.6-.6-.4-.1-1.6-.7-3.6-1.7s-3.4-1.8-4-2.3c-.6-.6-1.5-1.4-2.7-2.5-3.1-2.5-4.7-8-4.7-16.4-.5-1.7-.4-3.6.4-5.9-1.4-.8-1.9-3.1-1.4-6.7.7-1.7 1.1-4.3 1.1-8 0-3.6.4-6.6 1.1-8.8v-6.7c0-2.5.8-7.7 2.5-15.5 0-2.2.4-4.2 1.1-5.9-.5-.6.1-2.9 1.8-7.1-.5-.8.1-4.9 1.8-12.2-.7-.8-.8-3.4-.4-7.8.5-4.3 1.1-7.8 1.8-10.3 0-5.3.4-8.5 1.1-9.7-.2-.8-.6-3.5-1.1-8l.7-5c0-3.4 1.1-8.5 3.2-15.5 1.9-16 2.9-24.6 2.9-26 3.4-16.2 5-26.3 5-30.2.7-.3 1.4-3 2.2-8.2.7-5.2.5-8.9-.7-11.1-10.8 4.8-19.8 10.4-27 16.8-4.8 4.8-8 6.6-9.7 5.5-3.4-2.2-5-5.5-5-9.7l-1.4-6.7c-.2-.3-.9-1.9-2-4.8s-1.6-5.1-1.4-6.5c.1-1.4 0-3.3-.4-5.7-.4-2.4-.3-4 .2-4.8 2.2-4.8 5-8.3 8.6-10.5l8.6-7.1 6.1-4.2c.5 0 5-2.9 13.7-8.8.5-1.1 2.3-2.1 5.4-2.9 3.1-.8 10.1-3.4 20.9-7.6 7.2-.8 11.4-1.3 12.6-1.3 7.7-1.1 14.2-.3 19.4 2.5 3.6 1.1 5.7 1.6 6.3 1.5.6-.1 1.4-.1 2.5.2 1.1.3 1.9.4 2.3.4 0 .6 1.1.8 3.2.8l6.8 2.9c1.2 0 2.8.7 4.7 2.1 1.4-.3 3.4.4 5.9 1.9 2.5 1.5 6.2 3.7 11.2 6.5 4.9 2.8 7.4 5.2 7.4 7.1 1.4.6 3 2.1 4.7 4.6l4.3 5 6.8 10.5c.5.3 1.6 1.7 3.2 4.2 2.4 4.8 3.7 7.6 4 8.4.2.8.5 1.6.7 2.3.2.7 1.2 3.1 2.9 7.4 3.4 7.8 4.7 14.7 4 20.6 0 .3-1.2 4.6-3.6 13-4.3 14.8-10.9 26.6-19.8 35.3-1.9 1.7-4.4 3.9-7.6 6.5-3.1 2.7-5.6 5-7.6 6.9-9.1 6.4-14.5 10.5-16 12.2-1.6 1.7-2.9 3.1-4.1 4.2l-4 2.1.7 2.5c0-1.1.7-.6 2 1.5s2.2 3.7 2.7 4.8c0 1.4 1.2 3.1 3.6 5 .5-.3 1.1 0 1.8.8 1.4 1.7 2.2 4.3 2.2 8 1.7 1.1 4.2 4.5 7.6 10.1 3.4 2.8 6.2 6.7 8.6 11.8 1.7 2.2 3 3.8 4 4.6 1 1.7 2.9 3.9 5.8 6.7 2.9 2.8 4.8 4.7 5.8 5.7s2 2 3.2 3.1c4.3 3.9 7.3 6.9 9 8.8l4.3 3.4c8.9 10.1 13.6 15.5 14 16.4-.2 2-1.9 4.9-5 8.8-.2 4.5-5.8 8.3-16.6 11.3-3.6 0-8.5-1.9-14.8-5.7-6.2-3.8-11-7.8-14.4-12-10.6-9-17.5-16-20.9-21-9.8-11.5-16.9-22.5-21.2-33.2-1-.8-2.1-2.2-3.4-4.2-1.3-2-2.6-3.5-3.8-4.6l-4.7-10.5-6.5-10.5-1.9-5.4zm6.9-81.5c-1.7 9.5-2.5 17.8-2.5 24.8-.5 3.9-1 6.6-1.6 8-.6 1.4-.9 4.6-.9 9.7s1.3 8 4 8.8c2.6 0 6.5-1.7 11.5-5l7.6-8c2.6-2.5 8.8-7.1 18.4-13.9l9-10.1 3.6-5.5 1.4-3.8c1.9-3.6 2.5-7.4 1.8-11.3l-.7-7.1c-1.7-8.7-2.8-13.8-3.4-15.3-.6-1.5-1.5-3.2-2.7-5-1.2-1.8-2.5-3.4-4-4.8-1.4-1.4-2.3-2.4-2.5-2.9L274.7 68c-.2-.3-1.7-.7-4.3-1.3-4.1-2-9.8-2.2-17.3-.8l-2.2 13.4c0 1.7-.7 4.6-2 8.8-1.3 4.2-1.6 7.3-.9 9.2-.2.8-.4 2.5-.4 4.8 0 2.4-.2 5.5-.7 9.4v4.4zm156.2 84v16.8c0 17.4.8 27 2.5 29-.2.3.4 3.6 1.8 10.1 0 2.2 1 5.7 2.9 10.5 0 1.4 3.4 4.8 10.1 10.1 2.9 0 10-2.8 21.2-8.4l25.6-11.3c3.1-1.1 6.1-.6 8.8 1.5 2.8 2.1 4.4 5.7 5 10.9.6 5.2.5 8.9-.4 11.1-.8 2.2-2.9 5-6.1 8.4-3.2 3.4-5.3 5.7-6.3 7.1-1 1.4-2.8 2.9-5.4 4.4-2.6 1.5-5.6 3.1-8.8 4.8-3.2 1.7-5.5 2.9-6.7 3.8-9.4 5-16.6 7-21.6 5.9-3.1 0-6.3-.7-9.5-2.1-3.2-1.4-5-2-5.4-1.9-.4.1-1.3 0-2.9-.4-1.6-.4-3.1-.8-4.5-1.3s-5.2-1.3-11.2-2.7c0-1.1-1.7-2.2-5-3.4l-9.7-9.2c-1.7-1.1-3.5-4.6-5.4-10.5l-3.2-6.3c-1-.8-2.3-4.1-4-9.7-1-1.4-1.6-3.9-1.8-7.6-1.2-3.1-1.8-7.4-1.8-13-1-1.4-2-6.7-3.2-16-1.7-12-1.8-22.8-.4-32.3 0-5.3.8-10.5 2.5-15.5.2-2.2.5-4.5.7-6.7 1.2-7.3 2-12.9 2.5-16.8-1-3.9.6-13.3 4.7-28.1 0-2.2.8-5.5 2.3-9.9 1.6-4.3 2.5-8.9 2.7-13.6l2.9-8c0-2.2 1.8-10.5 5.4-24.8 1.9-5.3 2.9-8.4 2.9-9.2l9-22.3 4.3-6.7c1.7-2 4.2-3.6 7.6-5 1.4-1.4 5.3-1.3 11.5.4 3.8 1.7 6.5 3.4 7.9 5 1.7.8 3.7 1.3 6.1 1.3l27.7-2.1c7 .6 11.6 1.5 14 2.7 2.4 1.3 4.7 3.4 7 6.5s3.1 6.2 2.5 9.2c-.6 3.1-1.6 5.5-3.1 7.1-3.1 3.1-8.9 6.7-17.3 10.9-14.6 9.2-22.6 14.1-23.8 14.7l-8.6 4.6c-3.6 2.8-5.9 5.7-6.8 8.8-7.4 31.4-11.5 48.8-12.1 52.3-.6 3.5-1 5.6-1.1 6.3-.1.7-.2 1.2-.2 1.5l7.2-.8c10.6-3.9 16.8-5.2 18.7-3.8 1 0 2.3-.4 4-1.3 8.9-3.6 16.7-5.2 23.4-4.6 1.2-.8 2.5-.3 4 1.7 1.4 2 2.5 4.3 3.2 7.1 1.4 7-.4 12.5-5.4 16.4-10.1 7.8-22.1 14.1-36 18.9-4.6 4.2-10.9 6.9-19.1 8l-5.8-2.5zm169.6 27.3c0 44.8.8 69.2 2.5 73.1 0 14-2.3 22.7-6.8 26-5 3.4-11.3 3.4-18.7 0-3.6-1.7-6.5-4.1-8.6-7.1l-1.4-13.4c.5-.6-.2-3.2-2.2-8-1.2-1.7-2.4-5.7-3.6-12.2l-1.4-39.9.4-13.4c-14.2.8-22.4-3.9-24.8-14.3-2.2-5.3-2.5-8.8-1.1-10.5l1.8-5.5c2.9-5 8.5-7.6 16.9-7.6l7.6.4c-.5-.6-.7-2.5-.7-5.9l-.7-11.8v-18.9c.2-2.5.1-5.3-.4-8.4l.4-2.5-.4-10.5v-12.2c.5-19.3-.1-31.9-1.8-37.8-6 3.6-10.1 5.9-12.2 6.7-5.3 2-10.9.1-16.9-5.5-2.6-2.8-4.1-5.7-4.3-8.8-2.4-4.5-3.8-7.8-4.3-10.1-.5-2.2-.2-4.6.7-7.1.7-5.3 5.6-11.2 14.8-17.6 4.1-4.8 12.7-8.1 25.9-10.1.7 0 2.3-.3 4.7-.8h3.2c4.3-.8 7.4-1.3 9.4-1.3l25.9-1.3 13.7 2.5c1 1.4 3.2 2.2 6.8 2.5 7 0 16.2 5 27.7 15.1 2.9 1.1 5.2 3.1 6.8 5.9L645 77.1c3.1 7 5 11.2 5.8 12.6-.5 0-.2 1 .7 2.9 3.1 7 4.4 10.9 4 11.8 1.2 1.1 2.3 4.8 3.4 10.9 1.1 6.2 1.3 10.4.5 12.6 1.4 1.7-.6 12-6.1 31.1-.2.8-1.8 3.5-4.7 8l-5 10.1-8.3 13c-8.9 9.5-16 16.2-21.2 20.2-3.8 3.4-9.1 6.4-15.8 9.2-.5.3-1.1.6-1.8.8-5.4 1.9-13.2 4.1-23.7 6.9zm5.3-41.6c5-.6 9.2-3.1 12.6-7.6 8.2-7.6 13.9-13.3 17.3-17.2l12.2-15.5c.7-.3 2-3.3 3.8-9 1.8-5.7 3.1-10.7 3.8-14.9 0-8.4-.6-13-1.8-13.9 0-.6-1.3-4.1-4-10.5l-1.8-2.1c-1.7-.8-3.8-2.4-6.5-4.6l-10.4-4.2c-4.8-3.9-14.6-6.4-29.5-7.6-4.1-.3-6.4-.4-6.8-.4l1.4 26c1.4 14.6 2.3 36.5 2.5 65.9v19.3c1-.2 3.4-1.4 7.2-3.7zM756.7 67.2c1.2-4.8 1.9-7.5 2-8.2.1-.7.4-1.6.9-2.7 1.9-4.5 2.9-7.6 2.9-9.2v-5.9c0-2-.1-3.1-.4-3.4-.2-.3-1.3-.4-3.2-.4-3.6.8-8.5 2.9-14.6 6.1-6.1 3.2-10.4 6.2-13 8.8-2.5 2.7-5.8 7.8-9.9 15.5-4.1 7.7-6.3 12.8-6.7 15.3s-1 4.5-1.8 5.9c-.8 1.4-1.7 4.7-2.5 9.9s-1.3 8.5-1.3 10.1c0 1.5.6 2.3 1.8 2.3 2.6.6 1.8 1.7-2.5 3.4-.7.6-2 .8-4 .8-1.9 0-3.1-.3-3.6-.8-4.6 0-7.2-.7-7.9-2.1-2.6 0-5.5-1.2-8.6-3.6-3.1-2.4-5.2-5.1-6.1-8.2-3.4-11.5-2.3-22.3 3.2-32.3 3.1-10.6 6.5-17.5 10.1-20.6 4.1-10.1 6.5-15.6 7.4-16.6.8-1 1.6-1.6 2.3-1.9 1-2.8 1.4-4.5 1.4-5.2 0-.7 1.1-1.8 3.2-3.4 2.2-1.5 3.8-2.9 5-4 2.4-2.2 3.6-3.9 3.6-5 1.7 0 3.2-.4 4.7-1.3 3.4-.8 5.5-2.2 6.5-4.2 1.4 0 4.4-.8 9-2.5s10.7-2.1 18.4-1.3c1.2.6 3.5 1.9 6.8 4 3.4 2.1 5.3 3.4 5.8 3.8.5.4 1.1.8 1.8 1.1 1.9.8 3.6 2.4 5 4.6 2.2.6 4.2 1.5 6.1 2.9 2.4 2.5 5.4 4.5 9 5.9l6.1 4.2c2.9.6 5.3 1 7.2 1.3 1 0 2.2 2 3.6 5.9.5 14.6-5 34.2-16.6 58.8-.7 2-2 5-3.8 9-1.8 4.1-2.8 6.9-3.1 8.6-2.4 6.2-8.9 22.1-19.4 47.9-10.6 25.8-16.7 40.5-18.4 44.1-.2 0-.8.8-1.8 2.3-1 1.5-1.7 2.5-2.2 2.7l-1.8 4.6c0 1.4-1.3 2.5-3.8 3.1-2.5.7-4.5.9-5.9.6h-11.5c-5.8-1.4-9.1-2.7-10.1-3.8-1-1.1-1.4-4.6-1.4-10.5 0-18.5 3.2-33.7 9.7-45.8 2.4-7 4.6-12.5 6.7-16.6 2-4.1 3.3-7.2 3.8-9.4s2.4-5.3 5.8-9.2c1.4-4.5 2.9-7.8 4.3-10.1 1.2-.6 2.9-3.2 5.2-8 2.3-4.8 3.4-7.9 3.4-9.4s1.1-3.1 3.2-4.8c0-1.1.7-2.9 2.2-5.5 0-3.9.7-6.8 2.2-8.6 1.4-1.8 2.2-4 2.2-6.5.2-1.7 1.2-2.5 3.4-2.5zm-55.4 197c.2-3.9.8-6.2 1.8-6.7 1-.6 1.9-.6 2.7-.2.8.4 5.2 1 13.1 1.9 2.2 3.1 4 4.9 5.4 5.5 5.8 6.7 9.6 10.1 11.5 10.1 1.9.3 2.8 2.3 2.7 6.1-.1 3.8-1.3 7.2-3.4 10.3-3.4 8.7-7.8 15.4-13.3 20.2-2.6 1.1-4.7 1.7-6.1 1.7-1.4 0-5.3-.6-11.7-1.7-6.4-1.1-10-3.4-11-6.7V295c0-5.3.5-8.4 1.6-9.2 1.1-.8 1.6-3.1 1.6-6.7l1.1-8.8c1.7-1.7 3-3.6 4-6.1z"/></g><path d="M67 437.8c11.3 1.7 17.5 2.7 18.5 3.1s1.7 1 2 1.7c.2.7.5 1.6.9 2.7s.4 2.7.2 4.6c-.7 4.8-2.3 11.2-4.9 19.3-2.5 8.1-3.4 15.5-2.7 22.3-3.1 14-5.2 29.5-6.1 46.6v5.5c6-12.9 9.4-19.9 10.1-21 2.9-3.9 7.9-12.5 15.1-25.6l11.2-13.4c.2-.3.9-1.5 2-3.8 1.1-2.2 1.7-3.9 2-5 14.4-18.5 25.3-28.3 32.8-29.4 4.8-1.1 9.6-1.3 14.4-.4 5.8 1.4 8.6 4.7 8.6 9.9s-2.9 11-8.6 17.4l-19.8 31.1c-1 3.1-2.6 6-5 8.8-1 1.4-3 4.1-6.1 8-2.4 3.4-7.6 11.8-15.5 25.2l-8.3 10.1c-1.4 1.7-3.1 4.6-5 8.8-4.8 8.4-7.1 13.8-6.8 16.2.2 2.4 1.2 5.2 2.9 8.6 3.6 4.2 8 11.3 13.3 21.4 4.1 4.5 8.4 11.2 13 20.2l8.6 8c1.7 1.1 3.6 3.4 5.8 6.7 9.1 10.6 14.9 17.3 17.5 20 2.5 2.7 5 4.7 7.4 6.1.7.8 3.1 3.2 7 7.1 4 3.9 6.2 6.9 6.7 8.8.5 2-.6 4.6-3.2 8-1.2 0-7.4 1.3-18.7 3.8h-9.7c-1-.6-2.6-1-5-1.3-7.4-.3-12.8-1.4-16.2-3.4L113 683l-7.9-6.7c-.7-2.5-2.6-6.4-5.8-11.8l-2.5-5.9c-3.6-4.2-5.9-7.3-6.8-9.2-5.8-10.4-10.2-17.5-13.3-21.4l-4-8c-1-1.1-2.5-3.4-4.7-6.7l-1.8-1.7c0 4.8-.5 8.7-1.4 11.8-1 3.1-1.7 5.6-2.3 7.6-.6 2-.7 7-.2 15.1-.5 2.2-.8 5.9-1.1 10.9-.7 4.2-.7 7 0 8.4-.2.6-1.1 5.7-2.5 15.5-1.2 3.1-1.4 7.4-.7 13-.5 9.5-4.7 15.1-12.6 16.8-3.8.3-7.7.4-11.5.4-2.6-.6-7.1-3.8-13.3-9.7-3.8-2.5-6.1-6.2-6.8-10.9-.7-4.8-.5-9.2.7-13.4 0-2.5.2-7.4.7-14.7-.7-4.2-.4-8.4 1.1-12.6 2.2-4.8 3.2-9.6 3.2-14.5s-.4-9.9-1.1-14.9c-1.7-6.4-1.7-12.7 0-18.9l.7-10.1c0-9 .7-15.8 2.2-20.6 1.7-21 3.5-34.4 5.4-40.3l1.4-6.3c0-4.5 1.6-10.5 4.7-18.1.7.3 1.1-.8 1.1-3.4 1-9 2.1-14.7 3.4-17.2 1.3-2.5 1.7-8 1.3-16.4 0-4.5 1.1-9.1 3.2-13.9 2.6-6.4 4.4-10 5.2-10.7.8-.7 1.4-1.2 1.6-1.5.2-.3 1-.8 2.2-1.5 1.2-.7 1.9-1.2 2.2-1.5v.4c1.4-1.4 6-2.4 14-2.6zm128.5 128.5l1.8-11.3v-3c.5-2.5.9-3.9 1.3-4.2.4-.3.4-.9 0-1.9-.4-1-.1-2.2.7-3.8.8-1.5 1.5-3.8 2-6.9-.5-2-.6-3.4-.4-4.2.2-.8.7-3.9 1.3-9.2.6-5.3 1.3-8.1 2-8.4.5-4.5 1.1-8 1.8-10.7.7-2.7 1.1-4.3 1.1-5 0-.7.6-2.4 1.8-5.2.5-3.1.9-4.8 1.3-5.2s.4-.9.2-1.5c-.5-.8.6-6.3 3.2-16.4 2.6-10.9 3.8-16.4 3.6-16.4v-2.1c.5-2 .5-3.5.2-4.6-.4-1.1.2-3.6 1.6-7.4 1.4-3.8 2.8-5.8 4-6.1 1.7-2 2.6-2.9 2.9-2.9 5.5-.8 9.8-.3 13 1.7l4.7 4.2c0 1.4.7 2.1 2.2 2.1 1.2.3 3.3 1.7 6.3 4.2s5 4.5 5.9 5.9c.5 1.1.7 3.3.7 6.5s-1.2 11-3.6 23.3c-3.6 17.4-5.4 27.6-5.4 30.7l-2.2 8.4c0 2.8-.8 8.8-2.5 18.1-3.4 18.2-5.8 35.1-7.2 50.8-2.6 10.9-4.8 31.8-6.5 62.6h.7l4-.4c2.2 0 4.6-.4 7.2-1.3 2.9 0 4.6-.3 5-.8l8.6-5.9c1-1.1 3.1-1.9 6.3-2.3 3.2-.4 5.2-.8 5.9-1.1 1.4-.8 6.5-2.1 15.1-3.8 2.4 1.4 4.4 2.2 6.1 2.3 1.7.1 3.6 1.9 5.8 5.2l2.9 4.2 6.8 7.6c0 .8 1.1 3.1 3.2 6.7 3.4 4.2 2.6 8-2.2 11.3-.5.3-1.9.8-4.3 1.7-10.3 3.4-16.4 5.9-18.4 7.6-7.7 3.4-13.4 5-17.3 5l-5 2.1c-6.2 4.2-12.4 7-18.4 8.4-3.1 2.5-7.3 4.8-12.6 6.7L220 707l-6.5 2.1c-3.4 3.1-5.6 3.4-6.8.8 0-.3-.1-.6-.4-1-.2-.4-.5-.9-.7-1.5L190.4 691c-1.4-1.1-2.2-2.4-2.2-3.8 0-3.6-.5-6.5-1.4-8.6-1-2.1-.5-5.8 1.4-11.1.7-3.1 1-6.2.7-9.2-1.4-5.3-1.2-10.8.7-16.4 0-.6.2-2.5.7-5.9-.2-1.7-.1-3.2.4-4.6.5 0 .5-1 .2-3.1-.4-2.1-.5-4.1-.5-6.1 1.2-3.6 1.7-9.1 1.6-16.4-.1-7.3.5-12.2 2-14.7 0-2.2.2-5.3.7-9.2.5-3.9.5-6.3.2-7.1-.4-.8-.2-1.4.5-1.7.6-2.9.6-5.1.1-6.8zm130.7 5.4l2.5-31.1c0-1.7.5-4.2 1.6-7.6 1.1-3.4 1.7-5.5 2-6.3 0-.6.2-1.5.7-2.9 0-7.6 1.8-14.1 5.4-19.7 5.5-14.8 9.7-25.9 12.6-33.2 2.9-7.3 6-13.3 9.4-18.1.2-1.4 2.8-3.6 7.6-6.7 9.8-6.2 19.1-9.2 27.7-9.2 8.6 0 16.9 1.5 24.8 4.6 2.6.6 6.2 2.7 10.6 6.3 4.4 3.6 7 5.6 7.7 5.9 4.1 2.8 8.3 8.8 12.8 17.9 4.4 9.1 6.8 15.8 7.2 19.9.4 4.2 1.8 10.9 4.3 20s3.8 15.8 3.8 20.2c0 4.3.7 10.9 2 19.5 1.3 8.7 1.9 15.7 1.6 21-1.4 39.5-5.8 68-13 85.7-1.4 12.3-4.2 20.2-8.3 23.5l-.7 5.9c-.2 3.4-1.6 7.1-4.1 11.3s-5.7 7.4-9.5 9.7c-.7.8-5.5 2.1-14.4 3.8-12.7 2.8-21.1 4.2-25.2 4.2-5.3 2-11.9 1.6-20-1.1-8-2.7-12.7-4.1-13.9-4.2-1.2-.1-3.8-1.7-7.7-4.6-4-2.9-6.5-5.2-7.7-6.9-3.8-3.4-6.1-6-6.8-8l-5-11.8c-3.1-3.6-5.3-8.9-6.5-15.8-1.2-6.9-2.4-11.3-3.6-13.2-1.2-3.1-2.3-6.3-3.2-9.7.2-2 .4-5.5.4-10.5v-4.2c-1-4.2-.7-8.3.7-12.2.2-2 .4-4.4.5-7.3.1-2.9.4-7.2.9-12.8v-5.5c2-8.4 3-14 2.8-16.8zm41 30.7l1.1 37.8c3.8 16 9.5 27.2 16.9 33.6 1.2 1.4 4 2.9 8.3 4.6l9 2.5c1.2 0 2.5-.6 4-1.7 1.7-.6 2.9-1.3 3.6-2.1 1.7-2.5 3.4-4.8 5-6.7 1.7-2 2.4-2.9 2.2-2.9 1-1.1 1.3-2.9 1.1-5.5.7-.8 1.7-2.7 2.9-5.5 2.6-15.7 5.3-25.8 7.9-30.2 1-12.3 1.4-20.2 1.4-23.5 0-11.8-2.6-26.2-7.9-43.3-2.9-3.9-4.3-16.4-4.3-37.4-1.4-4.2-2.3-8-2.5-11.6-.2-3.5-1-7.3-2.3-11.3-1.3-4.1-2.3-6.8-3.1-8.2-.7-1.4-1.1-2.7-1.3-4-.1-1.3-.7-2.9-1.6-4.8-3.8-6.7-9.7-3.1-17.6 10.9l-6.1 12.6c0 .6-1.2 5.7-3.6 15.5-3.8 15.7-5.7 24.4-5.6 26.2.1 1.8-1.3 7.6-4.1 17.4-.2.8-.3 2.8-.2 5.9.1 3.1-.4 7.3-1.4 12.8s-1.8 11.9-1.8 18.9zm208.4 95.8l-9 .8c-7.7 2-21.1-1.7-40.3-10.9-1 0-1.4.1-1.4.4-8.4-5.3-13.8-9.4-16.2-12.2-9.1-16-13.8-28.4-14-37.4 0-1.4 2-4.8 6.1-10.1.2-.8 2.1-2.2 5.6-4.2 3.5-2 6.7-3.1 9.5-3.4 3.8.6 6.5 2 7.9 4.2l7.6 11.8 4 5 6.5 6.3 5 5.9 7.2 6.7c1 .6 1.9.9 2.7 1 .8.1 2.5.4 5 .8s4.4.4 5.6-.2c1.2-.6 2.8-1.2 4.7-1.9 1.9-.7 3.6-1.5 5-2.3 3.1-3.6 5-5.7 5.8-6.3l4.7-6.7c.5-.6 1.2-2.9 2.2-7.1 0-3.6.1-6 .2-7.1.1-1.1.1-2.2-.2-3.1-.2-1-.5-2.2-.7-3.6-.2-1.4-.5-2.6-.7-3.6-.2-1-2-3.1-5.4-6.5-1.4-3.4-3.5-6.9-6.1-10.5-.7-.8-6.6-4.3-17.6-10.5l-10.8-6.7-6.5-6.3c-3.8-1.4-7.1-3.6-9.9-6.7-2.8-3.1-4.4-4.8-4.9-5-3.4-1.4-9-7.1-16.9-17.2 0-.3-2.2-5.5-6.5-15.5l-4-16.4 1.4-10.9c-1.9-5.6-2.6-11.1-2.2-16.4 1-1.7 2-5 3.2-10.1-.5-2.5.4-6.5 2.7-12 2.3-5.5 3.8-8.7 4.5-9.9.7-1.1 1.3-2.2 1.8-3.4 0-2 5.2-9 15.5-21l17.6-11.3c13-1.7 21.2-2.5 24.8-2.5 8.4.8 14.2 2.2 17.3 4.2 5.3 3.9 9.4 7.1 12.2 9.7 10.6 10.6 16.6 20.2 18 28.6 5 15.7 5.8 30.9 2.2 45.8 0 1.4-3.4 3.8-10.1 7.1h-9c-3.8 0-7.3-.9-10.4-2.7-3.1-1.8-7.1-5.2-11.9-10.3-1.9-1.1-3.5-4.9-4.7-11.3-.2-6.7-1.6-10.8-4-12.2-.2-.3-1.2-2.8-2.9-7.6l-4-5c-1.7-2.5-3.2-3.8-4.5-3.8-1.3 0-2.8.6-4.5 1.7-3.4 3.1-6.3 7.1-8.8 12.2-2.5 5-3.8 10.6-4 16.8-.1 6.2.2 10.9.9 14.3.7 3.4 2.6 7.6 5.8 12.8 3.1 5.2 5 7.8 5.8 7.8.7 1.4 5.4 6.7 14 16l15.5 12.6 6.1 6.7 7.2 5c3.8 1.7 7.7 4.1 11.5 7.3s6.2 5.8 7.2 7.8l5.4 6.3 5.4 8.8c1.4 2 3.6 9.4 6.5 22.3l.7 16.4-1.8 9.7c-.7.8-1.9 3.8-3.6 8.8.2.8-1 4.6-3.6 11.3-.7 1.7-3.5 4.8-8.5 9.4-4.9 4.6-7.9 7.2-8.8 7.8-.2.8-2.6 2.2-7.2 4.2-.7.8-2.8 1.9-6.3 3.1-3.5 1.3-6.9 1.8-10.3 1.5l-6.3 2.9zm148.3-260.4l6.5-3.4c.7 0 1.8-.4 3.2-1.3 5.3-2.8 12.1-4.9 20.5-6.3 1.4-2.2 4.2-1.5 8.3 2.1 1.9 1.1 3.2 1.7 3.8 1.7.6 0 1.7 1.1 3.2 3.1 1.6 2.1 2.6 3.9 3.1 5.2l4 3.8c2.9 2 4.6 3.6 5 4.8.5 1.3.5 3.5.2 6.7-.4 3.2-1.4 6.2-3.2 8.8-1.8 2.7-3.7 4.4-5.6 5.2-8.2 3.6-13.7 5.5-16.6 5.5s-6.4 1.4-10.4 4.2c-4.1 2.8-7.4 4.5-10.1 5-2.6.6-4.6 1.3-5.9 2.1-1.3.8-3.2 2.2-5.6 4.2-5.8 3.9-11.4 6.4-16.9 7.6.5 0 .2 1.4-.7 4.2-1 2.8-1.8 6.5-2.5 11.1s-2 10-4 16.2l-4.3 22.7c-1 5-1.1 7.6-.4 7.6.7 0 1.3-.6 1.8-1.7 13.2-6.2 21.1-10.8 23.6-14.1 2.5-3.2 6.3-4.5 11.3-4l4.3-1.3c.7-.8 2.3-1.3 4.7-1.3 4.3-1.4 10 2 16.9 10.1l-1.1 4.6c-1.2 2.8-3.1 5.9-5.8 9.2-2.6 3.4-4.7 5.5-6.3 6.3-1.6.8-2.7 1.5-3.4 1.9-.7.4-1.2.6-1.4.6h-.7c-1.4 1.7-3 3.1-4.7 4.2-1.9 2.2-3.8 3.9-5.8 5-1.9 1.1-3.7 2.3-5.4 3.6-1.7 1.3-2.9 2.2-3.8 2.7-.8.6-1.9 1.3-3.1 2.1-1.2.8-2.6 1.8-4.1 2.9-1.6 1.1-2.6 1.7-3.1 1.7s-3.1 2.5-7.9 7.6c-1.4 0-3.5-.8-6.1-2.3-2.6-1.5-4.6-3.2-5.8-4.8-1.4 0-1.7 3.8-.7 11.3 0 1.4-.5 4.9-1.4 10.5-1 10.4-1.1 20.7-.4 31.1.7 10.4 1.8 16.7 3.2 18.9 1.4 2.2 3 3.4 4.7 3.4 3.6-.8 6.4-2 8.3-3.6 1.9-1.5 3.7-2.4 5.4-2.7 1.7-.3 3.5-1.4 5.6-3.4 2-2 3.6-2.9 4.7-2.9s4.5-3.4 10.3-10.1c.7-1.4 2.3-2.9 4.9-4.4 2.5-1.5 3.8-2.7 3.8-3.6.5-1.1 2.2-2.7 5.2-4.8 3-2.1 6.6-3.5 10.8-4.2 4.2-.7 7.4-.3 9.5 1 3.8 2.5 8.5 7 14 13.4 1.2 2.2 1.1 7.1-.2 14.5s-3.4 12.8-6.3 16.2l-3.2 3.8c-4.1 5.6-10.1 11.5-18 17.6-6.2 3.9-9.5 5.9-9.7 5.9-1.4 1.4-2.3 2.2-2.5 2.5-1.2 2.5-2.2 3.5-3.1 2.9-.8-.6-3-.6-6.5 0s-6.5.6-9.2 0c-1.4-.8-3.2-1.3-5.4-1.3-2.2 1.4-10.2-3.4-24.1-14.3-1.9-1.7-3.2-2.5-4-2.5-.7 0-2.3-.3-4.7-.8-1.9-1.1-4.2-2.4-6.8-3.8-7.9-5.3-12.6-9-14-10.9-1.4-2-3.1-3.6-5-5s-3-2.9-3.2-4.6c-.2-1.7-1-3.5-2.2-5.5 0-.6-.7-3.1-2.2-7.6-1.9-3.6-2.5-6.3-1.8-8 .2-1.7.1-3-.4-4s-1-9.1-1.4-24.4c-.5-15.3-.2-23.6.7-25 1-1.4 1.4-4.8 1.4-10.1-.5-5 .2-8.8 2-11.3s2.6-5.8 2.3-9.9c-.2-4.1.1-7.2 1.1-9.5 1-1.1 1.8-5.5 2.5-13l1.4-7.6c2.9-6.7 4.3-11.3 4.3-13.6 0-2.4.5-5.2 1.4-8.6.2-.6 1.7-5.3 4.3-14.3l2.5-5.9 1.1-5c6-14.3 9.7-22.5 11.2-24.8 0-1.1 1.6-6.3 4.7-15.5-.2-4.2 1.7-7.2 5.8-9 4.1-1.8 7.9-1.6 11.3.6 3.5 2.2 5.6 3.8 6.3 4.6s2.2 2 4.3 3.4c.9 1.9 4.8 1.7 11.7.1zM67.3 840.7c3.4-1.7 10.3-2.3 20.9-1.9 10.6.4 18.1 1.6 22.7 3.6l9 3.4c7.4 5.9 11.6 8.8 12.6 8.8 9.8 9 15.5 20.7 16.9 35.3 1.4 6.2 1.7 11.8.7 16.8 0 1.7-.5 5.3-1.4 10.9l-3.6 9.7-4.3 7.1c-1.4.3-2.3.4-2.5.4-8.9 1.7-15.7 1.9-20.5.6-4.8-1.3-9-4.3-12.6-9-.7-1.7-1.1-3.2-1.1-4.6.2-1.4.6-2.7 1.1-3.8l1.8-6.7c3.1-9 2.9-16.5-.7-22.7 0-.8-1.2-2.4-3.6-4.6-2.4-2.2-4.3-3.9-5.6-5-1.3-1.1-3.7-1.3-7-.4-5.8 2.8-10.7 11.3-14.8 25.6-4.8 7.3-8.2 16.8-10.1 28.6-2.9 21-4.3 32.9-4.3 35.7l-.4 9.2v3.8c-.5.6-.2 12.7.7 36.5.2 1.4.7 3.4 1.4 5.9.7 3.1 1.8 8.1 3.2 15.1l4.7 9.2c1.2.8 2.8 3.4 4.7 7.6 1.2 0 2.2 1 2.9 2.9 1.7 2 2.4 3.1 2.2 3.4 1.2.3 3 1.1 5.4 2.5 6.5 3.9 12.1 3.1 16.9-2.5 1.7-2 3.8-4.7 6.3-8.2 2.5-3.5 4.4-6.3 5.8-8.4 1.3-2.1 3.4-4.1 6.3-6.1 7.9-7 14.8-6.7 20.5.8 1.2 2.2 1.4 7.6.5 16.2-.8 8.5-4.3 17.4-10.3 26.7-.5 1.7-2 4.4-4.7 8.2-2.6 3.8-5.4 6.8-8.3 9-.5 2-9.6 3.4-27.4 4.2-1 0-2.9-.3-5.8-.8-2.6.8-6.2.4-10.6-1.3-4.4-1.7-6.9-2.5-7.4-2.5l-4.7-1.3c-1.9 0-3.8-.7-5.8-2.1-1.9-1.4-5.1-3.8-9.5-7.4-4.4-3.5-7.9-6.4-10.3-8.6-7.2-6.7-12.4-14.4-15.5-23.1-1-2-1.6-4.7-1.8-8.2-.2-3.5-.7-6.1-1.4-7.8-1.9-2.2-2.8-5.9-2.7-10.9.1-5-.2-11.2-.9-18.5 0-3.4.1-5.3.4-5.9-1.2-1.4-1.7-3.8-1.4-7.4.2-3.5.4-8.3.4-14.5.7-1.7 1-6.6.9-14.9-.1-8.3.1-14.5.5-18.7-1-2.5-1.1-6.2-.4-10.9l.4-12.6c.2-5 1.3-10.4 3.2-16 .2-2.5.7-5.5 1.4-9s3.8-10.6 9.4-21.2c0-2.2 1.8-5 5.4-8.4 0-1.1 1-2.8 2.9-5s4.1-5 6.5-8.4c3.4-4.8 7.1-8.3 11.2-10.5 4.2-2.2 8-4.8 11.6-7.9zm150.1 159.2v16.8c0 17.4.8 27 2.5 29-.2.3.4 3.6 1.8 10.1 0 2.2 1 5.7 2.9 10.5 0 1.4 3.4 4.8 10.1 10.1 2.9 0 10-2.8 21.2-8.4l25.6-11.3c3.1-1.1 6.1-.6 8.8 1.5 2.8 2.1 4.4 5.7 5 10.9.6 5.2.5 8.9-.4 11.1-.8 2.2-2.9 5-6.1 8.4-3.2 3.4-5.3 5.7-6.3 7.1-1 1.4-2.8 2.9-5.4 4.4-2.6 1.5-5.6 3.2-8.8 4.8-3.2 1.7-5.5 2.9-6.7 3.8-9.4 5-16.6 7-21.6 5.9-3.1 0-6.3-.7-9.5-2.1-3.2-1.4-5-2-5.4-1.9-.4.1-1.3 0-2.9-.4-1.6-.4-3.1-.8-4.5-1.3s-5.2-1.3-11.2-2.7c0-1.1-1.7-2.2-5-3.4l-9.7-9.2c-1.7-1.1-3.5-4.6-5.4-10.5l-3.2-6.3c-1-.8-2.3-4.1-4-9.7-1-1.4-1.6-3.9-1.8-7.6-1.2-3.1-1.8-7.4-1.8-13-1-1.4-2-6.7-3.2-16-1.7-12-1.8-22.8-.4-32.3 0-5.3.8-10.5 2.5-15.5.2-2.2.5-4.5.7-6.7 1.2-7.3 2-12.9 2.5-16.8-1-3.9.6-13.3 4.7-28.1 0-2.2.8-5.5 2.3-9.9 1.6-4.3 2.5-8.9 2.7-13.6l2.9-8c0-2.2 1.8-10.5 5.4-24.8 1.9-5.3 2.9-8.4 2.9-9.2l9-22.3 4.3-6.7c1.7-2 4.2-3.6 7.6-5 1.4-1.4 5.3-1.3 11.5.4 3.8 1.7 6.5 3.4 7.9 5 1.7.8 3.7 1.3 6.1 1.3l27.7-2.1c7 .6 11.6 1.5 14 2.7 2.4 1.3 4.7 3.4 7 6.5s3.1 6.2 2.5 9.2c-.6 3.1-1.6 5.5-3.1 7.1-3.1 3.1-8.9 6.7-17.3 10.9-14.6 9.2-22.6 14.1-23.8 14.7l-8.6 4.6c-3.6 2.8-5.9 5.7-6.8 8.8-7.4 31.4-11.5 48.8-12.1 52.3-.6 3.5-1 5.6-1.1 6.3-.1.7-.2 1.2-.2 1.5l7.2-.8c10.6-3.9 16.8-5.2 18.7-3.8 1 0 2.3-.4 4-1.3 8.9-3.6 16.7-5.2 23.4-4.6 1.2-.8 2.5-.3 4 1.7 1.4 2 2.5 4.3 3.2 7.1 1.4 7-.4 12.5-5.4 16.4-10.1 7.8-22.1 14.1-36 18.9-4.6 4.2-10.9 6.9-19.1 8l-5.8-2.5zm158.8-2.6c-1.9 1.1-3.1 1.7-3.6 1.7-.2.8-.4 2.4-.4 4.6v5c0 2-1.1 8-3.2 18.1v4.2c0 4.2-.6 7.6-1.8 10.1l-1.4 18.5-2.2 10.5c-.5 1.7-.5 3.2-.2 4.6.4 1.4.7 6.5 1.1 15.3.4 8.8.1 15.2-.9 19.1l-2.2 3.8c-4.8 1.7-7.9 2.1-9.4 1.3-1.4-.8-3.8-1.4-7.2-1.7-3.4-.3-5.2-.5-5.6-.6-.4-.1-1.6-.7-3.6-1.7s-3.4-1.8-4-2.3c-.6-.6-1.5-1.4-2.7-2.5-3.1-2.5-4.7-8-4.7-16.4-.5-1.7-.4-3.6.4-5.9-1.4-.8-1.9-3.1-1.4-6.7.7-1.7 1.1-4.3 1.1-8 0-3.6.4-6.6 1.1-8.8v-6.7c0-2.5.8-7.7 2.5-15.5 0-2.2.4-4.2 1.1-5.9-.5-.6.1-2.9 1.8-7.1-.5-.8.1-4.9 1.8-12.2-.7-.8-.8-3.4-.4-7.8.5-4.3 1.1-7.8 1.8-10.3 0-5.3.4-8.5 1.1-9.7-.2-.8-.6-3.5-1.1-8l.7-5c0-3.4 1.1-8.5 3.2-15.5 1.9-16 2.9-24.6 2.9-26 3.4-16.2 5-26.3 5-30.2.7-.3 1.4-3 2.2-8.2.7-5.2.5-8.9-.7-11.1-10.8 4.8-19.8 10.4-27 16.8-4.8 4.8-8 6.6-9.7 5.5-3.4-2.2-5-5.5-5-9.7l-1.4-6.7c-.2-.3-.9-1.9-2-4.8s-1.6-5.1-1.4-6.5c.1-1.4 0-3.3-.4-5.7-.4-2.4-.3-4 .2-4.8 2.2-4.8 5-8.3 8.6-10.5l8.6-7.1 6.1-4.2c.5 0 5-2.9 13.7-8.8.5-1.1 2.3-2.1 5.4-2.9 3.1-.8 10.1-3.4 20.9-7.6 7.2-.8 11.4-1.3 12.6-1.3 7.7-1.1 14.2-.3 19.4 2.5 3.6 1.1 5.7 1.6 6.3 1.5.6-.1 1.4-.1 2.5.2 1.1.3 1.9.4 2.3.4 0 .6 1.1.8 3.2.8l6.8 2.9c1.2 0 2.8.7 4.7 2.1 1.4-.3 3.4.4 5.9 1.9 2.5 1.5 6.2 3.7 11.2 6.5 4.9 2.8 7.4 5.2 7.4 7.1 1.4.6 3 2.1 4.7 4.6l4.3 5L462 868c.5.3 1.6 1.7 3.2 4.2 2.4 4.8 3.7 7.6 4 8.4.2.8.5 1.6.7 2.3.2.7 1.2 3.2 2.9 7.3 3.4 7.8 4.7 14.7 4 20.6 0 .3-1.2 4.6-3.6 13-4.3 14.8-10.9 26.6-19.8 35.3-1.9 1.7-4.4 3.9-7.6 6.5-3.1 2.7-5.6 5-7.6 6.9-9.1 6.4-14.5 10.5-16 12.2-1.6 1.7-2.9 3.1-4.1 4.2l-4 2.1.7 2.5c0-1.1.7-.6 2 1.5s2.2 3.7 2.7 4.8c0 1.4 1.2 3.1 3.6 5 .5-.3 1.1 0 1.8.8 1.4 1.7 2.2 4.3 2.2 8 1.7 1.1 4.2 4.5 7.6 10.1 3.4 2.8 6.2 6.7 8.6 11.8 1.7 2.2 3 3.8 4 4.6 1 1.7 2.9 3.9 5.8 6.7 2.9 2.8 4.8 4.7 5.8 5.7l3.2 3.2c4.3 3.9 7.3 6.9 9 8.8l4.3 3.4c8.9 10.1 13.6 15.5 14 16.4-.2 2-1.9 4.9-5 8.8-.2 4.5-5.8 8.3-16.6 11.3-3.6 0-8.5-1.9-14.8-5.7-6.2-3.8-11-7.8-14.4-12-10.6-9-17.5-16-20.9-21-9.8-11.5-16.9-22.5-21.2-33.2-1-.8-2.1-2.2-3.4-4.2-1.3-2-2.6-3.5-3.8-4.6l-4.7-10.5-6.5-10.5-1.9-5.4zm6.8-81.4c-1.7 9.5-2.5 17.8-2.5 24.8-.5 3.9-1 6.6-1.6 8-.6 1.4-.9 4.6-.9 9.7s1.3 8 4 8.8c2.6 0 6.5-1.7 11.5-5l7.6-8c2.6-2.5 8.8-7.1 18.4-13.9l9-10.1 3.6-5.5 1.4-3.8c1.9-3.6 2.5-7.4 1.8-11.3l-.7-7.1c-1.7-8.7-2.8-13.8-3.4-15.3-.6-1.5-1.5-3.2-2.7-5-1.2-1.8-2.5-3.4-4-4.8-1.4-1.4-2.3-2.4-2.5-2.9l-11.2-6.3c-.2-.3-1.7-.7-4.3-1.3-4.1-2-9.8-2.2-17.3-.8l-2.2 13.4c0 1.7-.7 4.6-2 8.8-1.3 4.2-1.6 7.3-.9 9.2-.2.8-.4 2.5-.4 4.8 0 2.4-.2 5.5-.7 9.5v4.1zm175.7-26.5c-15.1 4.8-30.5 8.3-46.1 10.5H505c-2.6 0-6.2-.8-10.8-2.5-1.9-1.1-3.2-4.1-4-8.8.2-9.2 2.2-16 5.8-20.2 3.6-4.2 10.2-7.8 19.8-10.9 6.2-1.1 14.5-3.9 24.8-8.4l20.5-7.6 15.5-3.4c2.2-.8 7-1.3 14.4-1.3s12.8-.8 16.2-2.3c3.4-1.5 7.7-2.7 13-3.4 5.3-.7 10.6-1.5 15.8-2.3 2.2-1.1 7-.7 14.4 1.3 1.9 0 6 3.4 12.2 10.1l1.8 5.9c0 2 .4 3.4 1.1 4.2.5 5.9-.1 9.8-1.8 11.8s-5.2 3.8-10.4 5.5c-2.2 0-11.4 1.7-27.7 5-2.2 0-5 .7-8.6 2.1-1.2 0-5.9.6-14 1.7l-.4 4.6v2.5c-.7 7.6-1 12.4-.7 14.5.2 2.1-.2 10.3-1.4 24.6v3.8c-.5 1.4-.8 3.3-.9 5.7-.1 2.4-.4 4.6-.7 6.5-.4 2-.5 4.1-.4 6.3.1 2.2-.2 4.5-.9 6.7v2.9c0 3.9-1.1 9-3.2 15.1l-1.1 18.5c0 12.3-.2 19.4-.7 21.2-.5 1.8-.6 8.1-.4 18.7v21c0 10.6-.6 16.4-1.8 17.2l.7 10.9c0 7.6-.5 11.3-1.4 11.3.5 3.4-.6 7-3.2 10.9-2.6 3.9-6 6.4-10.1 7.6l-10.1 1.3c-4.8 0-8-1.3-9.7-3.8-1.7-2.5-2.8-4.8-3.2-6.7-3.1-17.9-4.9-31.4-5.4-40.3l1.4-10.1c-.5-1.1-.7-2.8-.7-5v-2.9c0-5 .6-8.5 1.8-10.5-1-1.7-.5-5.3 1.4-10.9-1.2-2-1.6-4.2-1.3-6.7.4-2.5 1-5.9 2-10.1-.5-1.4-.5-2.8 0-4.2-.5-1.7-.5-3.1 0-4.2 1.2-14 1.7-22.2 1.6-24.6-.1-2.4.4-6.4 1.6-12-.7-2.5-.4-9.1 1.1-19.7v-2.9c.5-4.2.5-8.7 0-13.4l2.2-21c0-.3.2-3.5.7-9.7h-1.1zm201.2-62.6h7.9l11.2 2.9c2.6.6 5 2.2 7.2 5 14.9 13.4 22.8 23.2 23.8 29.4 1.2 3.4 2 5.7 2.5 7.1.5 1.4 1 2.8 1.4 4.2v.4c0 .6.1 1.4.4 2.5 1.4 5 2.8 13.3 4 24.8 1.9 10.9 2.2 22.7.7 35.3 0 4.2-.2 7.4-.7 9.7.2 3.1-.1 7.7-1.1 13.9.7 2.2 0 5.7-2.2 10.5 0 3.4-1.1 9.4-3.2 18.1.7 1.7-1.3 9.7-6.1 23.9-4.8 14.3-10.9 29.1-18.4 44.5-3.4 7.8-8.8 16.7-16.2 26.5-1.4 2.5-4.9 6.4-10.4 11.8-6 7.6-11.5 12.3-16.6 14.3-.7.3-2.5.3-5.4.2-2.9-.1-4.7-.6-5.4-1.5-3.1 0-5.1-.3-5.9-.8-.8-.6-1.4-.8-1.6-.8-1.2-.6-2.6-1-4.1-1.5-1.6-.4-3.2-1-4.9-1.9-1.7-.8-2.8-1.3-3.2-1.3-.5 0-.9-.1-1.3-.4-.4-.3-1.4-.7-3.2-1.3-1.8-.6-6.5-3.1-14.2-7.6-.2 0-1.3-1.3-3.2-3.8l-5.8-4.6c-1.7 0-3.1-2.1-4.3-6.3-1.4-1.7-2.5-3.6-3.2-5.9-2.6 0-4.9-8.1-6.8-24.4-1.2-7-2.2-15.3-2.9-24.8-.5-1.1-.7-3.1-.7-5.9-.7-5-1.1-9.8-1.1-14.3-.5-2.2-.7-5.2-.7-8.8 0-3.6-.1-5.6-.4-5.9-.2-.3-.4-3.6-.5-10.1-.1-6.4-.1-9.9.2-10.3.2-.4.5-3 .7-7.8l.7-21.8v-7.6l.7-16.8c0-1.4.4-4.2 1.1-8.4.5-.6 1.2-4.6 2.2-12.2 1.9-9.5 3.3-15.2 4.1-17 .8-1.8 1.4-3.3 1.8-4.4.4-1.1.9-2.2 1.6-3.4.7-1.1 1.9-3.6 3.6-7.6l6.5-11.3c0-.6.8-1.7 2.3-3.4 1.6-1.7 2.8-2.7 3.8-2.9.5-1.7 1.4-2.7 2.9-2.9 1.7-.6 4.2-2.1 7.6-4.6 2.6-1.1 4-2 4-2.5 4.3-3.4 9.4-5 15.1-5l5.4.4L740 835c8.6-3.9 13.8-5.9 15.5-5.9.2-.6 1.8-1.4 4.4-2.3zm-50.4 136.1c-.7.8-1.3 6.3-1.8 16.4-.5 10.1-1 15.7-1.4 16.8l.4 23.5c1.2 8.4 2.4 14.4 3.6 18.1 1.2 3.6 1.9 5.9 2.2 6.7.2.8.5 1.8.7 2.7.2 1 1.4 2.9 3.6 5.7 2.2 2.8 4 5.5 5.4 8 .2 0 1.2.8 2.9 2.5 4.1 3.6 7.4 4.8 10.1 3.4.2 0 1.6-.7 4-2.1 0-.8 1.4-1.7 4.3-2.5.2 0 1-1.1 2.2-3.4.5 0 1.4-1 2.9-2.9 0-.8.7-2 2.2-3.6 1.4-1.5 2.6-2.9 3.6-4-.2-.6 1-3.2 3.6-8 1 0 3.6-5.5 7.9-16.4 5-12.3 7.6-18.8 7.6-19.3 0-.8.6-3.7 1.8-8.6 1.2-4.9 2-8.4 2.3-10.5.4-2.1.8-3.8 1.3-5.2.5-1.4.7-4.6.7-9.7.5-.3 1.3-6.6 2.5-18.9v-14.3l-.4-19.3c-.5-1.7-.7-3.5-.7-5.5s-.2-3.5-.5-4.6c-.4-1.1-.7-2.9-.9-5.5-1.2-11.5-3.2-18.9-6.1-22.3 0-1.1-1.9-3.6-5.8-7.6l-3.6-.8c-3.8-.6-10.7 2.5-20.5 9.2-.5 0-2.5 1.7-5.9 5-3.5 3.4-5.6 5.6-6.3 6.7-.7.3-2 1.5-4 3.8-6.9 7.4-12.8 29.5-17.9 66.5zm126.2 113.8c.6-2.8 2.4-5.8 5.4-9 3-3.2 6.1-4.8 9.2-4.8 3.1 0 5.9-.6 8.3-1.7 2.4-1.1 4.6-1.7 6.7-1.7 2 0 5.3.6 9.7 1.9 4.4 1.3 7.4 2 9 2.3 1.6.3 2.9.6 4 .8 1.1.3 2.2 1.3 3.2 2.9 1.1 1.7 1.6 3.8 1.6 6.3-3.6 18.8-9.4 30.7-17.3 35.7l-10.8 2.1c-3.1 0-6.6-2-10.4-5.9-7.7-.8-11.5-2.9-11.5-6.3 0-.6-1.3-2.7-4-6.3-2.6-3.6-4-6.6-4-8.8 0-2.2.3-4.7.9-7.5zm61.4-277.6l-3.2 31.5c-1 14.3-3.2 41-6.8 80.2-3.6 39.2-5.4 65.9-5.4 80 0 14.1.7 23.3 2.2 27.5-2.6 5.3-6 8-10.1 8-2.2 0-4-.3-5.4-.8-1.4-.6-2.4-.8-2.9-.8H864l-1.4-.4c-5.5-10.1-8.6-19-9.4-26.9-4.1-11.5-6.3-18.8-6.7-22-.4-3.2-.9-5.4-1.6-6.5-.7-11.8-1.1-18.1-1.1-18.9v-17.6c1-7 1.4-14.3 1.4-21.8v-6.3c0-5.6 1-13.8 2.9-24.6s2.9-19.7 2.9-26.9c0-7.1 1.9-15.5 5.6-25 3.7-9.5 6.2-16.2 7.6-20.2 1.3-3.9 2.2-6.7 2.7-8.4.5-1.7 1.1-3.2 1.8-4.6 1.2-2.2 2.8-3.4 4.7-3.4 3.6-1.7 6.1-2.5 7.6-2.5 10.7-.1 16.1 3.4 16.1 10.4z" class="prep-right-close"/></g></svg>