<svg xmlns="http://www.w3.org/2000/svg" viewBox="0 0 1339.5 703.8"><style>.respect-hottie{fill:#d4a5f0}</style><g id="Objects"><g class="respect-hottie"><path d="M132.8 71.7c6.8 33.6-13 44.1-23.8 63.8h2.5c25.2-5 48.6-17.6 67.7-37 4 0 8.3-2.1 10.4 2.5-8.3 14.7-25.2 16.8-23.4 36.5 0 65.1 46.1 152.9 74.2 207.1-6.8 8-36-21-40-10.9 0 2.1-2.2 0-4.3 2.1-21.2-59.2-55.1-118.8-52.9-180.5l1.8-17.6c-19.1 5-33.5 20.6-54.7 20.6-2.5 0-2.5 2.1-4.7 4.6 13 26.9 40.3 61.7 52.9 89 0 2.9-4.3-2.5-2.5 2.9 0 2.5 2.5 4.6 5 2.5 0 2.1-5 4.6 0 7.1-2.5 2.5-6.8-7.1-6.8 0 1.8 7.6 3.2 11.8 8.6 12.2-8.6 2.9-10.8-14.7-19.4-19.3l-1.8 4.6c1.8 2.5 4.3 10.1 10.4 12.2-8.6 5.5-4.3-14.7-12.6-9.7-6.5-7.1-6.5-15.1-13-20.2C96.3 227 75.1 202.6 64.6 185c-2.5-2.5-12.6 2.5-10.8-7.1l2.5-10.1c-11.2-17.2-17.3-39.9-25.9-59.6 6.5-7.1 10.8-19.7 21.6-19.7 6.1 19.7 12.6 39.5 25.2 57.1 19.1 0 27.4-27.7 31.7-44.5 2.5-12.6-8.6-24.8-16.9-32.8-12.6-6.7-29.9-11.8-44.3-6.7C37 63.7 28.7 73.8 24 86c-6.5 54.6 15.1 101.6 42.5 141.1-1.8 7.1-8.3 14.7-14.4 20.2l-6.8-2.9c-27.7-37-44.6-84-42.5-136.1C7.5 65.9 28.7 45.7 62.2 39c34.2-8.5 55.4-.1 70.6 32.7z"/><path d="M191.8 36.8c15.1 11.3 31.3 38.6 52.6 30.2 9.4 2.5 6.8 19.3 18.7 18.1 11.9 3.8 33.1 11.8 46.1 13.9 4.7 5.9 2.5 16 4 24.8-8.3 4.6-27.7-.4-36.4-2.1-13-1.7-21.2-3.8-32-6.3-5.4 4.6-3.6 15.1-5.8 23.1 5 13.4 20.2 8.4 28.8 18.5-.7 6.7-6.5 12.2-10.4 14.3-8.6 5.5-23-3.8-26.3 8.4-2.5 18.1-4.7 40.7-2.9 60.1l3.6 2.9c12.2-14.3 22-36.5 33.8-53.3 5.4-2.1 10.8-12.2 16.2-7.1 4 10.1-5 20.6-8.3 30.7-14 27.3-29.2 56.7-58 62.2-10.8 2.1-14.4-9.7-18.7-18.1-1.1-5.9-1.4-11.8-2.5-18.5-.7-26.5 2.5-49.6 6.8-79.8 2.2-16.8 7.6-32.8 10.4-48.7 0-19.3-21.2-21-32.4-31.1-10.8-7.6-18.7-14.7-30.2-20.6-3.2-3.4-4.3-8.8-3.6-13 6.5-10.5 14.4-24.4 27.4-23.5l19.1 14.9z"/><path d="M470.4 176.3c-2.9 35.7-35.6 58-57.6 80.6-22 12.6-55.4 18.9-79.9 6.7-5.8-6.7-14-16.4-16.6-26 0-6.3 5.4-10.1 0-13 2.5 0 2.5-3.4 5.4-3.4-7.9-13 5.4-18.9 2.5-32.3-7.9-9.2-22-16-27.7-32.3-5-15.5 11.5-28.1 19.8-41.2 16.6-16 35.6-22.7 58-26-5.8-16-36-35.3-5.8-51.2 16.6-22.7 22.3 18.9 36 26 16.6 21.8 35.3 35.3 52.6 51.2-3.2 13-17.3 19.3-25.2 25.6-5.4 0-5.4-3.4-5.4-6.3-30.2-19.3-65.9-22.7-99.4-10.1-2.9 3.8-2.9 10.1 0 13 8.6 9.7 14 18.9 24.8 16 8.6-12.6 19.4-16 27.4-21.8 0 5.9-7.9 2.9-7.9 9.2-5.4 3.4-10.8 9.7-16.6 15.5 11.2 10.5 27.4 7.1 41.4 3.8 22.4 3.4 60.9-16 74.2 16zm-35.6 22.6c-27.7-16.4-63.4-2.9-93.6-6.7-2.9 3.8 0 10.1 0 16 2.9 13 10.8 23.1 22 26 25.2 13 52.6 3.4 71.6-16.4 5-5.8 5-15.5 0-18.9z"/><path d="M558.3 286.3c-5-4.2-11.5-19.7-12.6-18.5-2.9.8 10.1 23.5 9 25.6-1.4 3.4 3.6 13.9 0 8.8-6.5-15.1-41-90.7-51.5-103.3-2.2 5-6.8 7.1-8.6 7.1 17.3-12.2-8.6-25.2-11.2-37.8-5.8-12.6-16.9-22.7-16.9-37.8 6.5-4.6 11.2-22.7 21.6-17.6 6.5 20.2 19.4 32.8 29.9 52.9 10.8-7.6 13.7-22.7 15.5-37.8-1.8-22.7-15.5-39.9-32.4-50.4-6.5-2.5-15.1-4.6-23.4-2.5-13.7 10.1-19.8 27.7-19.8 45.4 10.8 40.7 15.1 80.6 45.4 110.9-4.3 8-4.3 25.6-17.3 20.6-34.9-25.6-34.9-71-47.9-108.8-4-44.9 7.9-89.5 60.8-95.3 24.1 0 45.4 19.7 54.4 44.9 12.6 30.7-11.2 58.4-28.4 81.1 6.8 15.1 48.2 89.9 57.2 105 0 2.9 9.7 21.8 8.3 23.9-.7 1.3-23.8-24.4-27.4-26.9-3.3-2.1-1.5 13-4.7 10.5z"/><path d="M587.1 36.8c15.1 11.3 31.3 38.6 52.6 30.2 9.4 2.5 6.8 19.3 18.7 18.1 11.9 3.8 33.1 11.8 46.1 13.9 4.7 5.9 2.5 16 4 24.8-8.3 4.6-27.7-.4-36.4-2.1-13-1.7-21.2-3.8-32-6.3-5.4 4.6-3.6 15.1-5.8 23.1 5 13.4 20.2 8.4 28.8 18.5-.7 6.7-6.5 12.2-10.4 14.3-8.6 5.5-23-3.8-26.3 8.4-2.5 18.1-4.7 40.7-2.9 60.1l3.6 2.9c12.2-14.3 22-36.5 33.8-53.3 5.4-2.1 10.8-12.2 16.2-7.1 4 10.1-5 20.6-8.3 30.7-14 27.3-29.2 56.7-58 62.2-10.8 2.1-14.4-9.7-18.7-18.1-1.1-5.9-1.4-11.8-2.5-18.5-.7-26.5 2.5-49.6 6.8-79.8 2.2-16.8 7.6-32.8 10.4-48.7 0-19.3-21.2-21-32.4-31.1-10.8-7.6-18.7-14.7-30.2-20.6-3.2-3.4-4.3-8.8-3.6-13C547.1 34.9 555 21 568 21.9l19.1 14.9z"/><path d="M705.9 91.8c.4-10.5 7.6-13.4 7.6-13.4L744 62s0 14.7-.4 29.8c-.4 15.1-9.4 17.2-9.4 17.2l-29.5 10.1 1.2-27.3zm28 26.9c-7.9 5.5-19.8 5.9-24.5 16.8C723.1 172 727 216.1 737.1 256c4 2.9 7.6 7.1 10.4 10.9-1.4-2.9 3.2-5 4.7-3.4l1.1 1.7c1.8 0 3.2 3.4 5 .4l-1.1-.4c2.5-2.1 4.7-7.1 7.6-5.9.4-5.9-.4-12.6-1.1-16.4-4.3-39.9-16.9-77.7-16.6-117.2-3.1-5.7-8.1-8.7-13.2-7z"/><path d="M762 95.2c10.1 7.6 22.7 10.1 34.6 6.3 9.7-3.8 17.6-19.3 28.1-10.9l4.3 4.6c32.8-7.6 51.1-18.9 83.9-21.8 12.6 11.3-7.2 16.4-7.9 27.7-5 18.1-13.7 37.8-28.4 47.9-4.7-3.4-4.3-9.7-4.3-13.4 2.2-10.9 17.3-36.1 7.6-34-22 4.6-23.8 7.1-43.9 13.4l-2.9 3.8c7.4 43.2 25 122.6 27.9 166.2-1.1 0-1.4 1.7-2.5 2.1l-.7-.4c-1.4 1.3-1.4 3.8-1.4 6.3-6.1-3.4-10.1 7.6-14.4-.4-4-4.2-7.2-10.9-8.6-17.2-7.9-36.1-21.6-109.6-32.4-144.9l-3.6-3.8c-20.9 3.4-46.8 12.2-64.8-7.6-5-6.7-6.5-17.2-4.7-25.2 3.2-4.2 4.7-10.1 9.7-11.3 3.6-4.2 9.7-6.3 14.8-9.7 10 3 1.3 17.3 9.6 22.3z"/><path d="M941.7 209.9c-9.7.8-18 12.2-27.7 15.1-7.9 10.9-11.5 44.9-18 58-6.1 13.4-18 15.5-24.1 16.4 1.1-5.5 0-12.6 1.1-19.3 4.7-9.7 7.9-33.2 10.8-42.8-2.2-1.3-9.4-6.3-10.4-8.4 1.1-6.3 10.8-7.1 14.4-11.8 7.2-26 6.8-71.8 2.5-99.1-4-7.6-9.7-14.7-4.7-23.1-9.4-21-14.8-44.1-28.4-62.6 0-13.4 10.8-20.2 19.4-27.3 2.9-2.5 6.5-.8 9-1.3 7.9 9.2 7.6 23.5 12.2 34.4 6.8 17.2 11.5 35.7 22 50 4.7 3.8 1.1 11.8 5 16.8 10.8 20.6 25.2 58.8 37.1 79.8 2.9-1.7 6.1-2.9 9.4-2.1 1.8 4.6-4.3 5.9-4.7 10.5 9.7 18.9 25.2 35.7 35.6 53.8-5 0-5.8 7.6-10.8 5-2.2 3.8-11.2-7.6-13-2.9-14.8-9.7-25.2-20.2-36.7-39.1zm-22-7.2c4.7-.8 19.1-3.4 16.6-8.4l-20.5-48.7v58l3.9-.9z"/></g><g class="respect-hottie"><path d="M105.4 609.8c-9.7.8-18 12.2-27.7 15.1-7.9 10.9-11.5 44.9-18 58-6.1 13.4-18 15.5-24.1 16.4 1.1-5.5 0-12.6 1.1-19.3 4.7-9.7 7.9-33.2 10.8-42.8-2.2-1.3-9.4-6.3-10.4-8.4 1.1-6.3 10.8-7.1 14.4-11.8 7.2-26 6.8-71.8 2.5-99.1-4-7.6-9.7-14.7-4.7-23.1-9.4-21-14.8-44.1-28.4-62.6 0-13.4 10.8-20.2 19.4-27.3 2.9-2.5 6.5-.8 9-1.3 7.9 9.2 7.6 23.5 12.2 34.4 6.8 17.2 11.5 35.7 22 50 4.7 3.8 1.1 11.8 5 16.8 10.8 20.6 25.2 58.8 37.1 79.8 2.9-1.7 6.1-2.9 9.4-2.1 1.8 4.6-4.3 5.9-4.7 10.5 9.7 18.9 25.2 35.7 35.6 53.8-5 0-5.8 7.6-10.8 5-2.2 3.8-11.2-7.6-13-2.9-14.7-9.7-25.2-20.2-36.7-39.1zm-22-7.1c4.7-.8 19.1-3.4 16.6-8.4l-20.5-48.7v58l3.9-.9z"/><path d="M305.9 576.2c-2.9 35.7-35.6 58-57.6 80.6-22 12.6-55.4 18.9-79.9 6.7-5.8-6.7-14-16.4-16.6-26 0-6.3 5.4-10.1 0-13 2.5 0 2.5-3.4 5.4-3.4-7.9-13 5.4-18.9 2.5-32.3-7.9-9.2-22-16-27.7-32.3-5-15.5 11.5-28.1 19.8-41.2 16.6-16 35.6-22.7 58-26-5.8-16-36-35.3-5.8-51.2 16.6-22.7 22.3 18.9 36 26 16.6 21.8 35.3 35.3 52.6 51.2-3.2 13-17.3 19.3-25.2 25.6-5.4 0-5.4-3.4-5.4-6.3-30.2-19.3-65.9-22.7-99.4-10.1-2.9 3.8-2.9 10.1 0 13 8.6 9.7 14 18.9 24.8 16 8.6-12.6 19.4-16 27.4-21.8 0 5.9-7.9 2.9-7.9 9.2-5.4 3.4-10.8 9.7-16.6 15.5 11.2 10.5 27.4 7.1 41.4 3.8 22.4 3.4 60.9-15.9 74.2 16zm-35.6 22.7c-27.7-16.4-63.4-2.9-93.6-6.7-2.9 3.8 0 10.1 0 16 2.9 13 10.8 23.1 22 26 25.2 13 52.6 3.4 71.6-16.4 5-5.9 5-15.5 0-18.9zm311.4-188.1c2.9 80.6 9.4 185.2 20.9 259.6 1.4 6.3-8.3 4.2-6.8 10.9-2.9 1.3-7.9 1.7-9.7.8-11.2-10.9-16.2-29-18.7-46.2-21.2-22.3-34.9-52.5-59.4-68.5l-4.7-5c-1.8 9.2 1.1 24.8 0 34l-1.1 23.1c-5.4 5.9-7.2 15.5-14 20.6-4.7-1.3-7.9-5.9-9-10.5-2.9-36.1-4-71.4-12.6-104.2-6.5-8.8-12.2-16.8-8.6-28.6 2.9-9.2 13-16 19.8-22.3 5.4-1.7 10.8-.8 13.3 6.3 15.1 30.2 37.8 51.2 62.6 72.2-2.2-33.2-3.6-94.1-7.9-126.8-1.4-13 11.9-15.1 19.1-21.4 6.3-2.4 16.4-4.5 16.8 6z"/><path d="M700.1 515.8c12.6 22.7 15.5 51.2 12.6 78.5-.4 23.9-12.6 47.5-31.3 58.8-12.6 12.6-27 21.4-42.8 17.2-2.5-2.1-5.8-.8-7.6-4.2-2.9 1.3-5.4-2.9-8.6-3.8-22.3-22.3-35.3-58-26.3-91.1 7.2-20.2 25.6-38.2 45.4-39.9 2.9-.8 4.3 1.7 4.7 5-2.2 14.7-19.4 17.2-18.4 34-2.9 6.7-1.4 14.3-1.4 21.4.4 16.8 9 31.1 19.1 42.4 6.5 6.7 15.8 9.2 24.8 5.9 11.2-13.9 12.6-33.6 14.4-52.5-1.8-28.6-8.3-62.6-33.8-75.6-25.2-2.1-47.5 19.3-68.8 33.2 9.7-20.6 29.2-31.1 45.7-42.8 22.3-13 58.6-20.1 72.3 13.5zm103.7-80.3c1.4 0 1.8-2.5 1.4-4.2 1.8 5.9 7.6 2.9 10.8 8l.4-.4c11.9 18.9 20.2 46.2 12.2 68-15.8 44.1-27 85.3-29.9 127.7 0 10.5 4.3 18.9.7 29-6.5 4.6-13.3 12.2-21.6 13-2.2 2.9-6.5 1.7-9.4.8-4.7-4.2-3.6-11.3-4.7-18.1-6.8-30.2-22-60.1-36.4-87.8-9.7-18.9-11.9-42.4-25.9-59.6-1.8-5-1.1-9.2 2.5-13 6.8-6.7 15.1-11.3 23-13.9 11.9 4.2 10.1 18.5 16.6 28.6 6.5 23.5 20.2 48.3 29.5 71.4l1.1-2.5c3.6-45.4 29.5-89.5 20.5-133.6 4-2.1 2.5-8.4 1.4-11.8-.7-.8 0-2.1-.4-2.9 1.4.8 4.7 3.8 5 0l-1.4-5 4.6 6.3zm36.7 56.3c.4-10.5 7.6-13.4 7.6-13.4l30.6-16.4s0 14.7-.4 29.8c-.4 15.1-9.4 17.2-9.4 17.2l-29.5 10.1 1.1-27.3zm28.1 26.9c-7.9 5.5-19.8 5.9-24.5 16.8 13.7 36.5 17.6 80.6 27.7 120.5 4 2.9 7.6 7.1 10.4 10.9-1.4-2.9 3.2-5 4.7-3.4l1.1 1.7c1.8 0 3.2 3.4 5 .4l-1.1-.4c2.5-2.1 4.7-7.1 7.6-5.9.4-5.9-.4-12.6-1.1-16.4-4.3-39.9-16.9-77.7-16.6-117.2-3.1-5.7-8.2-8.7-13.2-7zm150.1-107.9c2.9 80.6 9.4 185.2 20.9 259.6 1.4 6.3-8.3 4.2-6.8 10.9-2.9 1.3-7.9 1.7-9.7.8-11.2-10.9-16.2-29-18.7-46.2-21.2-22.3-34.9-52.5-59.4-68.5l-4.7-5c-1.8 9.2 1.1 24.8 0 34l-1.1 23.1c-5.4 5.9-7.2 15.5-14 20.6-4.7-1.3-7.9-5.9-9-10.5-2.9-36.1-4-71.4-12.6-104.2-6.5-8.8-12.2-16.8-8.6-28.6 2.9-9.2 13-16 19.8-22.3 5.4-1.7 10.8-.8 13.3 6.3 15.1 30.2 37.8 51.2 62.6 72.2-2.2-33.2-3.6-94.1-7.9-126.8-1.4-13 11.9-15.1 19.1-21.4 6.4-2.4 16.4-4.5 16.8 6z"/><path d="M1073.8 640.5c-16.6-6.7-16.9-38.6-25.9-57.5-6.8 0-13.3 4.2-21.2 2.1-3.6-3.4-8.6-4.2-7.9-11.3 1.1-6.3 6.5-13.4 11.9-12.2l8.6 2.1c14.4 4.2-13.3-34.9-20.9-47-1.1-8.4 7.6-14.3 12.2-19.7 5.8-2.1 6.8-16 13.3-13.9 3.6 2.5 6.8 14.3 10.8 22.3 7.2 14.7 10.4 31.9 16.6 47.5 7.6-4.6 33.5-16.4 39.6-22.3-4.3-47.5-8.3-95.3-10.4-146.2-2.2-6.3-1.4-11.3-.4-17.6 6.8-6.3 16.6-8 24.8-11.8 16.9 2.5 5 23.5 8.6 36.5 1.8 89.5 1.1 178.9 35.6 255.8l8.6 21.4c-4.7 1.3-2.5 27.7-9 24.4-4.7 2.5-13-15.1-16.2-19.3-26.6-34-33.1-83.6-40-127.7-6.1.4-28.8 17.2-35.3 19.3l-1.8 2.1c5.4 21 12.2 41.6 15.8 64.7 1.3 7.5-.5 36.4-17.4 8.3z"/><path d="M1227.9 609.8c-9.7.8-18 12.2-27.7 15.1-7.9 10.9-11.5 44.9-18 58-6.1 13.4-18 15.5-24.1 16.4 1.1-5.5 0-12.6 1.1-19.3 4.7-9.7 7.9-33.2 10.8-42.8-2.2-1.3-9.4-6.3-10.4-8.4 1.1-6.3 10.8-7.1 14.4-11.8 7.2-26 6.8-71.8 2.5-99.1-4-7.6-9.7-14.7-4.7-23.1-9.4-21-14.8-44.1-28.4-62.6 0-13.4 10.8-20.2 19.4-27.3 2.9-2.5 6.5-.8 9-1.3 7.9 9.2 7.6 23.5 12.2 34.4 6.8 17.2 11.5 35.7 22 50 4.7 3.8 1.1 11.8 5 16.8 10.8 20.6 25.2 58.8 37.1 79.8 2.9-1.7 6.1-2.9 9.4-2.1 1.8 4.6-4.3 5.9-4.7 10.5 9.7 18.9 25.2 35.7 35.6 53.8-5 0-5.8 7.6-10.8 5-2.2 3.8-11.2-7.6-13-2.9-14.8-9.7-25.2-20.2-36.7-39.1zm-22-7.1c4.7-.8 19.1-3.4 16.6-8.4l-20.5-48.7v58l3.9-.9z"/></g><path d="M1273.8 628.7c.6-2.8 2.4-5.8 5.4-9 3-3.2 6.1-4.8 9.2-4.8 3.1 0 5.9-.6 8.3-1.7 2.4-1.1 4.6-1.7 6.7-1.7 2 0 5.3.6 9.7 1.9 4.4 1.3 7.4 2 9 2.3 1.6.3 2.9.6 4 .8 1.1.3 2.2 1.3 3.2 2.9 1.1 1.7 1.6 3.8 1.6 6.3-3.6 18.8-9.4 30.7-17.3 35.7l-10.8 2.1c-3.1 0-6.6-2-10.4-5.9-7.7-.8-11.5-2.9-11.5-6.3 0-.6-1.3-2.7-4-6.3-2.6-3.6-4-6.6-4-8.8 0-2.1.3-4.7.9-7.5zm61.4-277.6l-3.2 31.5c-1 14.3-3.2 41-6.8 80.2-3.6 39.2-5.4 65.9-5.4 80 0 14.1.7 23.3 2.2 27.5-2.6 5.3-6 8-10.1 8-2.2 0-4-.3-5.4-.8-1.4-.6-2.4-.8-2.9-.8h-1.4l-1.4-.4c-5.5-10.1-8.6-19-9.4-26.9-4.1-11.5-6.3-18.8-6.7-22-.4-3.2-.9-5.4-1.6-6.5-.7-11.8-1.1-18.1-1.1-18.9v-17.6c1-7 1.4-14.3 1.4-21.8v-6.3c0-5.6 1-13.8 2.9-24.6s2.9-19.7 2.9-26.9c0-7.1 1.9-15.5 5.6-25 3.7-9.5 6.2-16.2 7.6-20.2 1.3-3.9 2.2-6.7 2.7-8.4.5-1.7 1.1-3.2 1.8-4.6 1.2-2.2 2.8-3.4 4.7-3.4 3.6-1.7 6.1-2.5 7.6-2.5 10.6-.1 16 3.4 16 10.4z" class="respect-hottie"/></g></svg>