<svg id="Layer_1" xmlns="http://www.w3.org/2000/svg" viewBox="0 0 971.5 282.13"><style>.Arched_x0020_Green{fill:url(#SVGID_1_);stroke:#fff;stroke-width:.25;stroke-miterlimit:1}.st0{fill-rule:evenodd;clip-rule:evenodd}.st0,.st1{fill:#fff}</style><linearGradient id="SVGID_1_" gradientUnits="userSpaceOnUse" x1="-77.083" y1="572.074" x2="-76.376" y2="571.367"><stop offset="0" stop-color="#20ac4b"/><stop offset=".983" stop-color="#19361a"/></linearGradient><path class="st0" d="M14.53 116.45V22.83c0-8.69-7.05-11.24-14.53-11.98V2.67h57.07v8.15c-7.19.66-13.25 3.01-13.25 11.28v92.65c0 31.34 19.45 43.93 45.67 43.93 47.68 0 47.68-37.09 47.68-71.17V47.33c0-28.98-2.45-35.31-17.27-36.55V2.67h47.95v8.08c-8.77.89-14.99 5.1-14.99 23.65v69.12c0 39.18-18.74 69.16-68.46 69.16-43.6-.01-69.87-16.7-69.87-56.23zm248.28 32.57V25.5c0-10.28-5.83-13.68-16.32-14.64V1.82c19.09.31 38 .54 57.17.54 32.07 0 52.14-.35 71.92-.73l.95 27.01h-9.08c-4.87-13.95-13.87-16.07-38.89-16.07H292.1v64.41h32.01c13.83 0 21.41-.23 23.71-11.44h6.92v32.8h-7.19c-2.28-9.23-8.58-10.47-23.43-10.47H292.1v54.36c0 16.96 6.63 21.33 20.79 21.72l.15 8.08h-66.55v-8.39c10.49-.94 16.32-4.3 16.32-14.62zm696.73-27.08v10.97l-.11 32.26c-16.9 4.56-39.47 9.89-63.93 9.89-54.82 0-93.35-38.52-93.35-86.16 0-54.51 42.27-88.9 95.71-88.9 8.92 0 16.03 1 32.09 3.01 4.41.73 26.54 4.83 31.28 5.8l2.16 31.41H952.2c-7.75-15.49-18.51-29.36-48.16-29.36-37.13 0-68.5 22.49-68.5 77 0 31.72 17.73 76.31 71.87 76.31 8.54 0 16.38-2.05 24.19-5.45 0-3.05.69-21.79.69-26.24 0-15.07-1.7-21.4-13.99-23.41v-8.46h53.2v7.92c-9.5.89-11.96 3.98-11.96 13.41zm-230.8-.04c-5.54 5.91-25.46 23.22-32.09 23.22-2.61 0-5.97-1.43-5.97-4.44 0-4.02 3.36-11.4 5.22-17.27l29.48-86.35c1.86-5.18 3.71-12.21 3.71-18.08 0-8.11-3.32-15.07-14.72-15.07-35.08 0-90.41 61.94-110.35 87.05h-.73l17.7-55.02c2.24-6.61 4.06-14.02 4.06-19.9 0-7.03-5.16-12.13-16.58-12.13-32.82 0-87.44 60.78-105.11 86.28h-.75l19.17-55.72c1.47-4.44 4.09-11.4 4.09-17.7 0-6.99-3.69-12.87-12.56-12.87-24.38 0-50.21 29.44-64.18 46.79 0 0-3.61 4.41-.77 6.84 3.27 2.78 6.34-.15 6.34-.15l9.93-11.13c6.61-6.61 13.66-12.9 21.37-12.9 4.46 0 5.95 3.32 5.95 7.42 0 3.28-1.1 6.96-1.49 9.19l-38.41 116.03c-.83 4.21 7.01 6.49 10.72 6.49 9.33 0 13.6-2.78 14.72-5.8l6.64-19.32c9.97-28.05 25.81-53.48 46.17-75.31 11.78-12.87 33.92-38.71 53.82-38.71 5.18 0 6.99 4.09 6.99 9.23 0 9.58-5.14 23.61-6.26 27.32l-32.26 96.21c-.7 3.05 2.55 7.26 12.56 7.3 9.23 0 11.78-3.21 12.91-6.57l6.07-15.07c10.32-26.58 20.67-45.75 37.96-67.07 11.84-14.45 45.4-51.7 64.58-51.7 4.02 0 8.48 2.94 8.48 8.85 0 3.67-2.22 9.97-4.04 15.15l-29.87 85.58c-2.63 7.38-4.48 13.25-4.48 17.35 0 9.54 6.68 12.52 13.68 12.52 20.25 0 37.61-16.61 52.04-32.45l11.44-12.56s3.15-3.32 0-5.99c-2.69-2.2-5.18.46-5.18.46z"/><path class="st1" d="M454.26 220.58h255.11v61.55H454.26z"/></svg>