<svg id="Layer_1" xmlns="http://www.w3.org/2000/svg" viewBox="0 0 665.97 351.77"><style>.st0{fill:none;stroke:#fff;stroke-width:.2;stroke-linecap:round;stroke-linejoin:round}.st1,.st2{fill-rule:evenodd;clip-rule:evenodd}.st2{fill:#211f1f}.st3,.st4{fill:#fff}.st4{fill-rule:evenodd;clip-rule:evenodd}.st5{font-family:&apos;Constantia&apos;}.st6{font-size:34.7px}.st7{font-size:122.5px}.st8,.st9{fill:none;stroke:#d1d4d6;stroke-width:.7;stroke-miterlimit:22.93}.st9{stroke:#858787;stroke-width:.72}</style><title>Man_ID_visual_UNEB-2222</title><path class="st0" d="M160 343.03c-.55 2.54-2.91 2.29-4.23 3.4.35 4.09-2.14 5.34-3.6 5.23-1.46.11-4-1.14-3.61-5.23-1.32-1.11-3.68-.86-4.23-3.4-.2-2.22-.07-5.54-1.8-6.79 4.65-1.52 6.24 1.6 6.24 1.6.23-2.31 1.48-4.4 3.4-5.71a7.896 7.896 0 0 1 3.4 5.71s1.59-3.12 6.23-1.6c-1.82 1.31-1.8 6.79-1.8 6.79zm-53 0c-.55 2.54-2.91 2.29-4.22 3.4.34 4.09-2.15 5.34-3.61 5.23-1.46.11-3.95-1.14-3.6-5.23-1.32-1.11-3.68-.86-4.23-3.4-.21-2.22-.07-5.54-1.8-6.79 4.64-1.52 6.24 1.6 6.24 1.6.23-2.31 1.47-4.4 3.39-5.71a7.896 7.896 0 0 1 3.4 5.71s1.59-3.12 6.24-1.6c-1.82 1.31-1.81 6.79-1.81 6.79zm18.11-324.38c.22 0 .51-.09.64 0 .5-.17 1-.62 1.65-.55.65 1.43-1.38 2.94-1.92 4.08-1.31 2.82-.25 6.18-.67 9.24-.75 4.72-2.95 9.09-6.29 12.5-1.87 1.73-1.41 4.44-2.27 7-1.62 4.77-6.2 6.21-6.23 6.46H86.3c-4.82-1.42-4-4.16-6.53-8.53s-1-10.86-.34-12.61c.56-1.32 1.26-2.57 2.07-3.75 1.82-2.81 4.45-5.01 7.55-6.3 2.2-1 5.17-1.14 7-2.63.78-.61 1.47-1.3 2.08-2.08 1.64-2.15 2.53-4.72 4.2-6.83 1.01-1.31 2.14-2.53 3.37-3.64 3.02-2.72 6.39-5.04 10-6.9 1.22-1.06 1.12-2.58 1.76-4 .28-.02.56-.02.84 0 .41 1.22.41 1.22.59 1.4 1.33.39 1.3.7 1.76 2 .24-.2.24-.2 1.2-2.08.2-.01.39-.01.59 0 1 2.13-1.84 7.23-3 8.69-.77 1-2.09 1.43-2.82 2.42-3 4-2.36 9.94-4.7 14.37-1 1.89-2.59 3.39-3.89 5.08 2.23-1.49 4.5-1.23 7.06-1.69.93-.17 1-.1 1.63-.73 2.09-2.22 2.8-15.36 8-13 0 .29.12.6 0 .86s-.37.34-.52.52c.22.33.54.57.91.7zm53.18 0c.21 0 .5-.09.63 0 .51-.17 1-.62 1.66-.55.64 1.43-1.39 2.94-1.92 4.08-1.32 2.82-.26 6.18-.68 9.24-.74 4.72-2.94 9.09-6.29 12.5-1.86 1.73-1.41 4.44-2.27 7-1.62 4.77-6.2 6.21-6.23 6.46h-23.72c-4.82-1.42-4-4.16-6.52-8.53s-1-10.86-.34-12.61c.56-1.32 1.25-2.57 2.07-3.75a16.47 16.47 0 0 1 7.55-6.3c2.2-1 5.16-1.14 7.05-2.63.77-.61 1.47-1.31 2.07-2.08 1.64-2.15 2.53-4.72 4.2-6.83 1.01-1.31 2.14-2.53 3.37-3.64a47.12 47.12 0 0 1 10-6.9c1.21-1.06 1.11-2.58 1.76-4 .28-.02.55-.02.83 0 .42 1.22.42 1.22.6 1.4 1.32.39 1.29.7 1.76 2 .24-.2.23-.2 1.19-2.08.2-.01.4-.01.6 0 1 2.13-1.85 7.23-3 8.69-.77 1-2.1 1.43-2.83 2.42-3 4-2.36 9.94-4.69 14.37-1 1.89-2.6 3.39-3.89 5.08 2.23-1.49 4.49-1.23 7.05-1.69.93-.17 1-.1 1.64-.73 2.09-2.22 2.79-15.36 8-13 0 .29.12.6 0 .86s-.36.34-.52.52c.21.32.52.56.87.7zm53.79 0c.22 0 .51-.09.64 0 .51-.17 1-.62 1.65-.55.65 1.43-1.38 2.94-1.92 4.08-1.31 2.82-.25 6.18-.67 9.24-.75 4.72-2.95 9.09-6.31 12.5-1.86 1.73-1.41 4.44-2.27 7-1.62 4.77-6.2 6.21-6.23 6.46h-23.7c-4.81-1.42-4-4.16-6.52-8.53s-1-10.86-.35-12.61c.57-1.32 1.27-2.57 2.08-3.75 1.82-2.82 4.45-5.01 7.54-6.3 2.21-1 5.17-1.14 7.06-2.63.77-.61 1.47-1.31 2.07-2.08 1.64-2.15 2.53-4.72 4.2-6.83 1.02-1.31 2.15-2.53 3.38-3.64a47.12 47.12 0 0 1 10-6.9c1.22-1.06 1.12-2.58 1.77-4 .28-.02.55-.02.83 0 .41 1.22.41 1.22.6 1.4 1.32.39 1.29.7 1.76 2 .23-.2.23-.2 1.19-2.08.2-.01.4-.01.6 0 1 2.13-1.85 7.23-3 8.69-.76 1-2.09 1.43-2.82 2.42-3 4-2.36 9.94-4.7 14.37-1 1.89-2.59 3.39-3.88 5.08 2.23-1.49 4.49-1.23 7.05-1.69.93-.17 1-.1 1.63-.73 2.1-2.22 2.8-15.36 8-13 0 .29.12.6 0 .86s-.36.34-.52.52c.21.31.5.56.84.7zm-19.09 324.38c-.54 2.54-2.91 2.29-4.22 3.4.34 4.09-2.15 5.34-3.61 5.23-1.46.11-3.95-1.14-3.6-5.23-1.32-1.11-3.68-.86-4.23-3.4-.21-2.22-.07-5.54-1.8-6.79 4.64-1.52 6.24 1.6 6.24 1.6.23-2.31 1.47-4.4 3.39-5.71a7.896 7.896 0 0 1 3.4 5.71s1.59-3.12 6.24-1.6c-1.82 1.31-1.81 6.79-1.81 6.79zm-68.38-57c-12.66-.34-25.26-1.92-37.62-4.71l-.26 9.69c12.45 3.67 25.3 5.84 38.26 6.46l-.38-11.44zm52.86-5.61a233.064 233.064 0 0 1-37.55 5.32l-.32 11.53c7.91-.68 20.85-2.62 38.17-8l-.3-8.85zM67.25 89.92l3.16 179.35m111.23-49.23l-19.39-22.12 19.39 22.12zm13.37 15.21l-1.62-1.85 1.62 1.85zM165.38 82.49h-1.65c-.29.56-.79.97-1.39 1.15h3l-.16 6.09h25.87l-.2-6.09h18.68c.6-.18 1.1-.59 1.39-1.15h-20.68a2.282 2.282 0 0 1-1.29-2.06v-3.18l.53.06h21.82v-1.05h-21.17c-3.83-.01-6.93-3.11-6.92-6.94.01-3.82 3.1-6.91 6.92-6.92h22.73c-.81-.35-1.69-.54-2.57-.54h-1.59v-.51h-15.79v-1.43a2.268 2.268 0 0 1 2.26-2.25h12.38c-.34-.2-.73-.31-1.13-.31h5.8c.4 0 .79.11 1.13.31h2c1.23.02 2.22 1.02 2.22 2.25v1.47h-3.1v.53h1.6c.77-.03 1.54.16 2.21.54h2c3.83.01 6.93 3.11 6.92 6.94a6.935 6.935 0 0 1-6.92 6.92h-2.79c-.15.03-.29.03-.44 0v1.05h3.1v3.06c0 .88-.5 1.68-1.29 2.06h-2.2c-.28.56-.79.98-1.39 1.15h3l-.17 6.09h11.75l-3.08 182.12s-5.08 2-13.65 4.53l-.21 7.57c19.06-7.77 28.5-17.82 33.06-26.79l-.41-.16s-6.5-3-9.24-6.55a18.067 18.067 0 0 1-3.24-8s-.22-2.74 2.35-13.34c.27-1.11.43-2.25.48-3.4 0-1.15-.08-2.31-.22-3.45-.68-4.28-2.68-7.85-3-12-.06-.84.08-1.69.42-2.46.49-1.45 2-3.7 6.79-5.44 3.03-1.23 6.34-1.62 9.57-1.14 0 0 5.93.33 22.86 6.55 3.57 1.43 7.38 2.19 11.23 2.23l.07-.11s3-5.21 6.76-6.88a2.82 2.82 0 0 1 3.69 1.1s1.12 1.08-.52 7c-.11.47-.18.94-.23 1.42-.06.87-.08 2.05 0 2.77v.52c.34 2.26.87 4.48 1.6 6.64.04.14.07.29.1.44.1.27.17.42.17.42s1.09 3-2.19 7.27a8.079 8.079 0 0 1-3.22 2.38c-.7.37-1.45.63-2.22.79 0 0-2.46 4.09-3.55 5.55a35.4 35.4 0 0 1-3.8 4.31s-2.57 2.12-4.57 1.57a9.838 9.838 0 0 1-4.1-1.38c-1.42-.76-3.55-1.85-4.85-2.51h-.09l-.09-.05-.53-.27h-.17l-.26-.13h-.06c-3.9-2-7.1-3.84-7.1-3.84-.07-.11-.14-.22-.19-.34-.1-.16-.15-.35-.15-.54-.05-.45.13-.89.47-1.19l.07-.1s.35-.74 1.77-.46c.98.21 1.95.47 2.9.79l.66.22c.36.09.61.12.7 0a31.37 31.37 0 0 0 3.09-4l-2.29-.54a85.682 85.682 0 0 0-19-2.47 8.6 8.6 0 0 0-2.13.39c5.48 5.45 4.88 6.45 4.88 6.45.1.28.22.54.37.8-.09-.49-.16-.75-.16-.75s5.36 8.12 13 12.62c9.71 5.73 9.67 11.61 9.67 11.61s7.85 26.82-37.77 51.59a143.94 143.94 0 0 1-22.42 9.69l-.39 14.21c-.61.08-1.21.26-1.76.53h-.61c-.05-.12-.09-.26-.15-.4a8.91 8.91 0 0 0-1.16-2.12l-.12-.16a7.31 7.31 0 0 0-2-1.8c-.16-.1-.36-.15-.55-.15H204c-.56.42-1.07.91-1.49 1.47v.1c-.09.19-.17.39-.25.59s-.12.3-.16.43c-.34-.23-.71-.42-1.1-.56-.27-.1-.55-.19-.83-.25l-.35-10.45a204.71 204.71 0 0 1-40.23 5.88l-.13 4.5c-.61.08-1.21.26-1.76.53h-.61l-.14-.4a8.91 8.91 0 0 0-1.16-2.12l-.13-.16a7.646 7.646 0 0 0-2-1.8c-.17-.1-.36-.15-.55-.15h-1.14c-.56.42-1.06.92-1.49 1.47v.05c-.09.19-.18.39-.26.59s-.11.3-.16.43c-.34-.23-.71-.42-1.1-.56-.27-.11-.55-.19-.83-.25l-.14-4.44c-13.6-.43-27.11-2.36-40.29-5.75l-.27 10.12c-.61.08-1.21.26-1.76.53h-.61c0-.12-.09-.26-.15-.4a8.91 8.91 0 0 0-1.16-2.12l-.12-.16a7.31 7.31 0 0 0-2-1.8c-.16-.1-.36-.15-.55-.15h-1.13c-.56.42-1.07.91-1.49 1.47v.1c-.09.19-.17.39-.25.59s-.12.3-.16.43c-.34-.23-.71-.42-1.1-.56-.27-.1-.55-.19-.83-.25l-.47-14a174.928 174.928 0 0 1-32-14.2c-42.92-24.59-34.6-50.52-34.6-50.52s1-4.33 10.67-10.82c5.8-3.89 12.19-16.37 12.19-16.37-.29.54-.54 1.09-.75 1.67.65-1.21 1-1.92 1-1.92s.28-.6.92-1.71c-1.26 0-11.27-.16-17 2.6-1.89.92-3.84 1.71-5.83 2.37 1.8 1.61 3.71 3.11 5.71 4.47.11.08.23.13.36.16.59-.12 1.34-.26 1.93-.33.74-.16 1.52.03 2.1.52 0 0 1.2 1.24.33 2-.89.56-1.87.98-2.89 1.24l-8.41 3.18c-.67.28-1.33.57-2 .86a8.462 8.462 0 0 1-6.17.56s-2.49-.41-6-3.91a61.73 61.73 0 0 1-6.24-7.9c-1.37-.5-2.64-1.24-3.74-2.2-3-2.72-2.25-5.64-2.25-5.64.25-.51.43-1.04.55-1.59.42-2 1.12-5 2.24-9 0-.13.07-.26.1-.39.23-1.18.37-2.38.43-3.59.01-.9-.04-1.8-.15-2.7l-.36-2.22c-.2-.95-.45-1.88-.77-2.79 0 0 1.3-2.52 3.75-1.43 3.76 1.67 4.92 6.82 4.92 6.82l.14.32c3.59.82 7.32.67 10.84-.41 10.84-3 14.84-4.77 19.7-5.82s10.37-1.14 14.25.34c3.61 1.35 6.37 4.31 7.46 8 .29.84.48 1.71.57 2.6.22 3.27-.12 6.56-1 9.72-.64 2.04-.88 4.19-.72 6.32v.06l.24 1.69v.21c.72 3.38 1.17 6.81 1.35 10.26 0 0 0-.46-.15-1.19l.08.66c.12 3.08-.5 6.15-1.79 8.95-1.89 3.26-4.4 6.11-7.4 8.39h-.08c5.36 7.1 14.28 15 28.82 23 2.74 1.52 5.54 2.9 8.35 4.15l-.28-8.26c-7.15-2.13-14.14-4.77-20.91-7.91L67.25 89.92v-.14h17.82l-.2-6.09h18.67c.6-.18 1.11-.59 1.4-1.15H84.25a2.282 2.282 0 0 1-1.29-2.06V77.3l.53.06h21.82v-1.05H84.14c-3.83-.01-6.93-3.11-6.92-6.94.01-3.82 3.1-6.91 6.92-6.92h22.73c-.81-.35-1.69-.54-2.57-.54h-1.6v-.51H86.92v-1.48c0-1.24 1.01-2.25 2.25-2.25h12.39c-.34-.2-.73-.31-1.13-.31h5.79c.4 0 .79.11 1.13.31h2a2.24 2.24 0 0 1 2.22 2.25v1.47h-3.1v.53h1.6c.77-.03 1.54.16 2.21.54h2c3.83.01 6.93 3.11 6.92 6.94a6.935 6.935 0 0 1-6.92 6.92h-2.79c-.15.03-.29.03-.44 0v1.05h3.1v3.06c0 .88-.5 1.68-1.29 2.06h-2.2c-.28.56-.79.98-1.39 1.15h3l-.17 6.09h25.97l-.21-6.09h18.68c.6-.17 1.11-.59 1.39-1.15h-20.68a2.282 2.282 0 0 1-1.29-2.06v-3.18c.18.03.35.05.53.06h21.82v-1.05h-21.18c-3.83-.01-6.93-3.11-6.92-6.94.01-3.82 3.1-6.91 6.92-6.92h22.74c-.81-.35-1.69-.54-2.57-.54h-1.6v-.51h-15.78v-1.43c0-1.24 1.01-2.25 2.25-2.25h12.38c-.34-.2-.73-.31-1.13-.31h5.8c.4 0 .79.11 1.13.31h2c1.23.02 2.22 1.02 2.22 2.25v1.47h-3.1v.53h1.59c.77-.03 1.54.16 2.21.54h2c3.83.01 6.93 3.11 6.92 6.94a6.935 6.935 0 0 1-6.92 6.92h-2.79c-.15.03-.3.03-.45 0v1.05h3.11v3.09c0 .88-.5 1.68-1.29 2.06l-.47-.03z"/><path class="st1" d="M159.97 343.05c-.54 2.54-2.91 2.29-4.22 3.4.34 4.08-2.15 5.33-3.61 5.23-1.46.1-3.95-1.15-3.6-5.23-1.32-1.11-3.68-.86-4.23-3.4-.21-2.22-.07-5.54-1.8-6.79 4.64-1.52 6.24 1.59 6.24 1.59a7.897 7.897 0 0 1 3.39-5.7 7.858 7.858 0 0 1 3.4 5.7s1.59-3.11 6.24-1.59c-1.82 1.31-1.81 6.79-1.81 6.79m-53 0c-.55 2.54-2.91 2.29-4.23 3.4.35 4.08-2.14 5.33-3.6 5.23-1.46.1-4-1.15-3.61-5.23-1.32-1.11-3.68-.86-4.22-3.4-.21-2.22-.07-5.54-1.81-6.79 4.65-1.52 6.24 1.59 6.24 1.59.24-2.31 1.48-4.4 3.4-5.7a7.858 7.858 0 0 1 3.4 5.7s1.59-3.11 6.24-1.59c-1.82 1.31-1.8 6.79-1.81 6.79zm18.11-324.38c.22 0 .5-.09.63 0 .51-.17 1-.63 1.65-.56.65 1.43-1.38 2.94-1.91 4.09-1.31 2.81-.26 6.17-.68 9.24-.75 4.72-2.95 9.08-6.3 12.48-1.86 1.73-1.41 4.43-2.26 6.95-1.63 4.78-6.21 6.22-6.24 6.46H86.28c-4.82-1.42-4-4.16-6.53-8.53s-1-10.85-.34-12.61c.56-1.32 1.26-2.57 2.07-3.75 1.82-2.82 4.45-5.01 7.55-6.3 2.2-1 5.16-1.13 7.05-2.63.77-.61 1.47-1.31 2.08-2.08 1.63-2.15 2.52-4.72 4.2-6.82 1.01-1.31 2.14-2.53 3.37-3.64 3.02-2.73 6.38-5.05 10-6.9 1.22-1.07 1.11-2.58 1.76-4 .26 0 .55-.05.83-.05.42 1.22.42 1.22.6 1.41 1.32.39 1.29.7 1.76 2 .23-.21.23-.21 1.19-2.08.2-.01.4-.01.6 0 1 2.14-1.85 7.24-3 8.7-.77 1-2.1 1.43-2.83 2.42-3 4-2.36 9.93-4.69 14.37-1 1.88-2.59 3.38-3.89 5.07 2.23-1.48 4.49-1.22 7-1.69.93-.17 1-.1 1.63-.73 2.1-2.22 2.81-15.36 8-13 0 .28.12.59 0 .86s-.36.33-.52.52c.21.36.54.65.91.8zm53.17 0c.22 0 .51-.09.64 0 .5-.17 1-.63 1.65-.56.65 1.43-1.38 2.94-1.92 4.09-1.31 2.81-.25 6.17-.67 9.24-.74 4.71-2.94 9.07-6.28 12.48-1.86 1.73-1.41 4.43-2.27 6.95-1.62 4.78-6.2 6.22-6.23 6.46h-23.7c-4.82-1.42-4-4.16-6.53-8.53s-1-10.85-.34-12.61c.57-1.31 1.26-2.57 2.07-3.75 1.83-2.81 4.46-5.01 7.55-6.3 2.2-1 5.16-1.13 7.05-2.63.78-.6 1.48-1.3 2.08-2.08 1.64-2.15 2.52-4.72 4.2-6.82 1.01-1.31 2.14-2.53 3.37-3.64 3.02-2.73 6.38-5.04 10-6.9 1.22-1.07 1.12-2.58 1.77-4 .26 0 .54-.05.82-.05.42 1.22.42 1.22.6 1.41 1.32.39 1.3.7 1.76 2 .24-.21.24-.21 1.2-2.08.2-.01.39-.01.59 0 1 2.14-1.84 7.24-3 8.7-.77 1-2.09 1.43-2.83 2.42-3 4-2.35 9.93-4.69 14.37-1 1.88-2.59 3.38-3.89 5.07 2.23-1.48 4.5-1.22 7.05-1.69.94-.17 1.05-.1 1.64-.73 2.09-2.22 2.8-15.36 8-13 0 .28.12.59 0 .86s-.37.33-.52.52c.19.35.48.63.83.8zm53.8 0c.21-.05.43-.05.64 0 .5-.17 1-.62 1.65-.55.65 1.43-1.38 2.94-1.92 4.09-1.31 2.81-.25 6.17-.67 9.24-.75 4.71-2.94 9.07-6.28 12.47-1.85 1.73-1.4 4.43-2.26 6.95-1.62 4.78-6.2 6.22-6.24 6.46h-23.72c-4.82-1.42-4-4.16-6.53-8.53s-1-10.85-.34-12.61c.57-1.31 1.26-2.57 2.07-3.75 1.82-2.81 4.45-5.01 7.55-6.3 2.2-1 5.16-1.13 7-2.63.78-.6 1.48-1.3 2.08-2.08 1.63-2.15 2.52-4.72 4.2-6.82 1.01-1.31 2.14-2.53 3.37-3.64 3.02-2.73 6.38-5.04 10-6.9 1.22-1.07 1.12-2.58 1.76-4 .26 0 .55-.05.83-.05.42 1.22.42 1.22.6 1.41 1.32.39 1.3.7 1.76 2 .24-.21.24-.21 1.2-2.08.2-.01.39-.01.59 0 1 2.14-1.84 7.24-3 8.7-.77 1-2.09 1.43-2.83 2.42-3 4-2.35 9.93-4.69 14.37-1 1.88-2.59 3.38-3.89 5.07 2.23-1.48 4.5-1.22 7.05-1.69.93-.17 1-.1 1.64-.73 2.09-2.22 2.8-15.36 8-13 .06.28.06.58 0 .86-.1.21-.37.33-.52.52.2.36.52.65.91.8h-.01zm-19.08 324.38c-.55 2.54-2.91 2.29-4.23 3.4.35 4.08-2.14 5.33-3.6 5.23-1.46.1-4-1.15-3.61-5.23-1.31-1.11-3.68-.86-4.22-3.4-.21-2.22-.07-5.54-1.81-6.79 4.65-1.52 6.24 1.59 6.24 1.59.24-2.31 1.48-4.4 3.4-5.7a7.858 7.858 0 0 1 3.4 5.7s1.59-3.11 6.23-1.59c-1.82 1.31-1.8 6.79-1.8 6.79zm-68.38-57c-12.66-.34-25.26-1.92-37.62-4.71l-.26 9.69c12.45 3.67 25.3 5.84 38.26 6.46l-.38-11.44zm52.81-5.58a233.186 233.186 0 0 1-37.56 5.32l-.31 11.53c7.9-.68 20.84-2.62 38.16-8l-.29-8.85zM67.23 89.92l3.15 179.35m111.24-49.23l-19.39-22 19.39 22zm13.36 15.21l-1.62-1.84 1.62 1.84zM165.36 82.51h-1.66c-.28.56-.79.98-1.39 1.15h3l-.17 6.09h25.88l-.21-6.09h18.66c.6-.17 1.11-.59 1.39-1.15h-20.64a2.275 2.275 0 0 1-1.29-2v-3.19l.53.07h21.82v-1.05H190.1c-3.82-.15-6.81-3.36-6.66-7.19a6.931 6.931 0 0 1 6.66-6.66h22.74c-.81-.36-1.68-.54-2.57-.54h-1.6v-.51h-15.78v-1.52c0-1.24 1.01-2.25 2.25-2.25h12.38c-.34-.2-.73-.31-1.13-.31h5.8c.4 0 .79.11 1.13.31h2c1.24 0 2.25 1.01 2.25 2.25v1.47h-3.1v.53h1.59c.77-.03 1.54.16 2.21.54h2c3.82.15 6.81 3.36 6.66 7.19a6.931 6.931 0 0 1-6.66 6.66h-2.79c-.15.03-.3.03-.45 0v1.05h3.11v3.1a2.29 2.29 0 0 1-1.28 2h-2.2c-.29.56-.79.97-1.39 1.15h3l-.16 6.09h11.74l-3.1 182.22s-5.08 2-13.66 4.53l-.2 7.57c19.05-7.77 28.49-17.82 33.06-26.79l-.41-.16s-6.51-3-9.24-6.55a18.067 18.067 0 0 1-3.24-8s-.22-2.74 2.35-13.34c.27-1.11.43-2.25.48-3.4a30.58 30.58 0 0 0-.22-3.45c-.69-4.28-2.68-7.85-3-12-.06-.84.09-1.69.43-2.46.48-1.44 2-3.7 6.79-5.44 3.03-1.21 6.33-1.58 9.56-1.08 0 0 5.94.33 22.86 6.55 3.57 1.43 7.38 2.19 11.23 2.23l.08-.1s3-5.22 6.75-6.89a2.82 2.82 0 0 1 3.69 1.1s1.12 1.09-.52 7c-.1.47-.18.94-.23 1.41-.05.92-.05 1.85 0 2.77v.53c.34 2.25.88 4.47 1.61 6.63 0 0 0 .16.09.45l.17.41s1.09 3-2.19 7.28a8.311 8.311 0 0 1-3.21 2.38c-.7.37-1.45.63-2.22.79 0 0-2.46 4.08-3.56 5.54a35.4 35.4 0 0 1-3.8 4.31s-2.57 2.12-4.57 1.57a9.838 9.838 0 0 1-4.1-1.38c-1.41-.76-3.55-1.85-4.85-2.51h-.18l-.52-.27h-.17l-.26-.13h-.07c-3.9-2-7.09-3.84-7.09-3.84-.08-.11-.14-.22-.19-.34a.87.87 0 0 1-.15-.54c-.05-.45.12-.89.46-1.19a.36.36 0 0 0 .07-.1s.36-.74 1.78-.46c.98.21 1.94.48 2.89.79l.67.23c.35.08.61.11.7 0 1.13-1.25 2.16-2.59 3.08-4l-2.29-.54a85.682 85.682 0 0 0-19-2.47 8.6 8.6 0 0 0-2.13.39c5.48 5.45 4.89 6.45 4.89 6.45.09.28.21.55.36.8-.08-.49-.15-.75-.15-.75s5.35 8.12 13 12.62c9.71 5.73 9.67 11.61 9.67 11.61s7.84 26.82-37.78 51.59a143.53 143.53 0 0 1-22.42 9.69l-.38 13.89c-.61.08-1.21.26-1.76.53h-.61l-.14-.4a8.91 8.91 0 0 0-1.16-2.12l-.13-.16a7.31 7.31 0 0 0-2-1.8c-.17-.1-.36-.15-.55-.15h-1.14a7.97 7.97 0 0 0-1.51 2.37v.05c-.09.19-.18.39-.26.59s-.11.29-.16.43c-.34-.23-.71-.42-1.1-.56-.27-.11-.55-.19-.83-.25l-.34-10.45a204.918 204.918 0 0 1-40.24 5.88l-.12 4.5c-.61.08-1.21.26-1.76.53h-.61c0-.12-.09-.26-.15-.4a8.91 8.91 0 0 0-1.16-2.12l-.12-.16a7.31 7.31 0 0 0-2-1.8c-.16-.1-.36-.15-.55-.15h-1.13c-.56.42-1.07.91-1.49 1.47v.11c-.09.19-.17.39-.25.59s-.12.29-.16.43c-.34-.23-.71-.42-1.1-.56-.27-.11-.55-.19-.83-.25l-.15-4.44a185.06 185.06 0 0 1-40.28-5.75l-.27 10.12c-.62.08-1.21.26-1.77.53h-.61l-.14-.4a8.91 8.91 0 0 0-1.16-2.12l-.13-.16a7.31 7.31 0 0 0-2-1.8c-.17-.1-.36-.15-.55-.15h-1.13c-.56.42-1.07.91-1.49 1.47v.05c-.09.19-.18.39-.26.59s-.11.29-.16.43c-.34-.23-.71-.42-1.09-.56-.27-.11-.55-.19-.84-.25l-.46-14a175.23 175.23 0 0 1-32-14.2c-42.92-24.59-34.6-50.52-34.6-50.52s1-4.33 10.66-10.82c5.81-3.89 12.2-16.37 12.2-16.37-.3.53-.55 1.09-.75 1.67.65-1.21 1-1.92 1-1.92s.28-.59.92-1.71c-1.26 0-11.27-.16-17 2.6-1.89.92-3.84 1.71-5.83 2.37 1.8 1.61 3.71 3.11 5.71 4.47.11.08.23.13.36.16.58-.12 1.34-.26 1.92-.33.75-.15 1.52.04 2.11.52 0 0 1.19 1.24.32 2-.89.56-1.87.98-2.89 1.24l-11.28 9.53-2 .86a8.436 8.436 0 0 1-6.16.56s-2.49-.41-6-3.91a61.73 61.73 0 0 1-6.24-7.9c-1.37-.5-2.64-1.24-3.74-2.2-3-2.72-2.25-5.63-2.25-5.63.24-.51.42-1.05.55-1.6.41-2 1.12-5 2.24-9 0-.14.07-.27.1-.4.23-1.18.37-2.38.43-3.59.01-.9-.04-1.8-.15-2.7-.14-.86-.26-1.6-.37-2.22-.19-.95-.44-1.88-.76-2.79 0 0 1.3-2.52 3.75-1.43 3.76 1.67 4.92 6.82 4.92 6.82l.14.32c3.58.82 7.32.68 10.83-.4 10.85-3 14.85-4.78 19.71-5.83s10.37-1.14 14.25.34c3.61 1.35 6.37 4.31 7.46 8 .29.84.48 1.71.56 2.6.22 3.27-.11 6.56-1 9.72-.63 2.04-.87 4.19-.71 6.32v.06l.24 1.69v.22c.72 3.38 1.17 6.8 1.35 10.25 0 0 0-.46-.15-1.19l.08.66c.12 3.08-.5 6.15-1.79 8.95a28.485 28.485 0 0 1-7.41 8.39h-.07c5.35 7.1 14.27 15 28.81 23 2.75 1.52 5.54 2.9 8.35 4.15l-.27-8.26c-7.16-2.13-14.15-4.77-20.92-7.91L67.23 89.92v-.14h17.82l-.21-6.09h18.68c.6-.17 1.11-.59 1.39-1.15H84.23a2.275 2.275 0 0 1-1.29-2v-3.19l.53.07h21.82v-1.05H84.12c-3.82-.15-6.81-3.36-6.66-7.19a6.931 6.931 0 0 1 6.66-6.66h22.73c-.81-.36-1.69-.54-2.57-.54h-1.6v-.51H86.9v-1.55c0-1.24 1.01-2.25 2.25-2.25h12.38c-.34-.2-.73-.31-1.13-.31h5.8c.4 0 .79.11 1.13.31h2c1.24 0 2.25 1.01 2.25 2.25v1.47h-3.11v.53h1.59c.77-.03 1.54.15 2.21.54h2c3.82.15 6.81 3.36 6.66 7.19a6.931 6.931 0 0 1-6.66 6.66h-2.79c-.15.03-.3.03-.45 0v1.05h3.11v3.1c-.02.85-.51 1.63-1.28 2h-2.2c-.29.56-.79.97-1.39 1.15h3l-.16 6.09h25.87l-.2-6.09h18.69c.6-.17 1.11-.59 1.4-1.15h-20.65a2.275 2.275 0 0 1-1.29-2v-3.19l.54.07h21.81v-1.05h-21.17c-3.82-.15-6.81-3.36-6.66-7.19a6.931 6.931 0 0 1 6.66-6.66h22.73c-.81-.36-1.69-.54-2.57-.54h-1.59v-.51h-15.79v-1.47c0-1.24 1.01-2.25 2.25-2.25h12.39c-.34-.2-.73-.31-1.13-.31h5.79c.4 0 .79.1 1.13.31h2c1.24 0 2.25 1.01 2.25 2.25v1.47h-3.1v.53h1.6c.77-.03 1.54.16 2.21.54h2c3.82.15 6.81 3.36 6.66 7.19a6.931 6.931 0 0 1-6.66 6.66h-2.79c-.14.04-.3.04-.44 0v1.05h3.1v3.06c-.02.86-.52 1.63-1.29 2l-.5.09z"/><path class="st0" d="M139.92 61.38v-1.46c0-1.24 1.01-2.25 2.25-2.25h20.15c1.24 0 2.25 1.01 2.25 2.25v1.47l-24.65-.01zm25.43 22.26l-6.82 251.19c-.85.11-1.66.41-2.37.88l-.14-.4a8.91 8.91 0 0 0-1.16-2.12c-.58-.8-1.3-1.48-2.14-2a1.084 1.084 0 0 0-1.1 0 7.39 7.39 0 0 0-2.13 2c-.48.64-.87 1.35-1.16 2.1-.06.15-.11.3-.16.43-.34-.23-.71-.42-1.1-.56-.27-.11-.55-.19-.83-.25l-8.38-251.26 27.49-.01zm2-7.35h-30.22c-3.83-.01-6.93-3.11-6.92-6.94.01-3.82 3.1-6.91 6.92-6.92h30.21c3.83.01 6.93 3.11 6.92 6.94a6.935 6.935 0 0 1-6.92 6.92h.01zm-7.34 266.74c-.55 2.54-2.91 2.29-4.23 3.4.35 4.09-2.14 5.34-3.6 5.23-1.46.11-4-1.14-3.61-5.23-1.32-1.11-3.68-.86-4.23-3.4-.2-2.22-.07-5.54-1.8-6.79 4.65-1.52 6.24 1.6 6.24 1.6.23-2.31 1.48-4.4 3.4-5.71a7.896 7.896 0 0 1 3.4 5.71s1.59-3.12 6.23-1.6c-1.83 1.31-1.81 6.79-1.81 6.79h.01zm5.38-260.54h-28.14a2.282 2.282 0 0 1-1.29-2.06v-3.18c.18.03.35.05.53.06h30.72v3.09c0 .88-.5 1.68-1.29 2.06l-.53.03z"/><path class="st2" d="M139.89 61.41v-1.49c0-1.24 1.01-2.25 2.25-2.25h20.16c1.24 0 2.25 1.01 2.25 2.25v1.47l-24.66.02zm25.44 22.25l-6.86 251.19c-.85.11-1.66.41-2.37.88 0-.12-.09-.26-.15-.4a8.91 8.91 0 0 0-1.16-2.12c-.57-.8-1.3-1.48-2.14-2-.16-.1-.36-.15-.55-.15-.19 0-.38.05-.54.15a7.48 7.48 0 0 0-2.14 1.94c-.47.65-.86 1.36-1.15 2.11-.06.15-.12.29-.16.43-.34-.23-.71-.42-1.1-.56-.27-.11-.55-.19-.83-.25L137.8 83.62l27.53.04zm2-7.35h-30.2c-3.82-.15-6.81-3.36-6.66-7.19a6.931 6.931 0 0 1 6.66-6.66h30.2c3.82.15 6.81 3.36 6.66 7.19-.13 3.62-3.04 6.52-6.66 6.66zm-7.36 266.74c-.54 2.54-2.91 2.29-4.22 3.4.34 4.08-2.15 5.33-3.61 5.23-1.46.1-3.95-1.15-3.6-5.23-1.32-1.11-3.68-.86-4.23-3.4-.21-2.22-.07-5.54-1.8-6.79 4.64-1.52 6.24 1.59 6.24 1.59a7.897 7.897 0 0 1 3.39-5.7 7.858 7.858 0 0 1 3.4 5.7s1.59-3.11 6.24-1.59c-1.82 1.31-1.81 6.79-1.81 6.79zm5.39-260.54h-28.14a2.275 2.275 0 0 1-1.29-2v-3.19l.54.07h30.71v3.06c-.02.86-.52 1.63-1.29 2l-.53.06z"/><path class="st3" d="M151.01 331.65l-1.46-243.73c.01-.52.24-1.01.63-1.35.4-.36.9-.58 1.44-.61h.73l-.43.59c-.12.18-.22.38-.28.59-.06.24-.1.49-.1.74l.5 243.19c-.15.01-.29.06-.42.14-.21.12-.4.25-.59.4m-2.45 3.06l-7.31-246.75c.02-.51.25-.99.63-1.33.4-.36.9-.58 1.44-.61h.72l-.42.59v.06c-.13.18-.22.39-.28.6-.07.24-.1.49-.1.74l6.28 245.19-.06.07c-.35.46-.66.96-.92 1.48l.02-.04z"/><path class="st4" d="M162.68 73.59h-25.29a6.385 6.385 0 0 1-6.34-4.75h32.67c-.08-2.58-.81-4.77-2.92-5.86a6.438 6.438 0 0 0-3.53-1.06h-1.59v-2.16c.03-1.29-.99-2.35-2.28-2.38h5.79c1.29.02 2.31 1.08 2.29 2.37v2.17h1.6c1.26 0 4.51.21 4.7 6.92h4.59a6.295 6.295 0 0 1-5.45 4.69c-.79 1.8-1.94 3-2.83 2.78v4.78c.03 1.15-.69 2.19-1.78 2.57l-5.56 251.72c-.21.1-.42.22-.61.35 0-.12-.09-.26-.15-.4a8.91 8.91 0 0 0-1.16-2.12l-.12-.16 1.76-249.39a2.652 2.652 0 0 0 1.78-2.57v-4.78c1.83-.1 3.49-1.12 4.4-2.72"/><path class="st0" d="M86.92 61.38v-1.46c0-1.24 1.01-2.25 2.25-2.25h20.16c1.24 0 2.24 1 2.24 2.24v1.48l-24.65-.01zm25.44 22.26l-6.82 251.19c-.85.11-1.66.41-2.37.88 0-.12-.09-.26-.15-.4a8.91 8.91 0 0 0-1.16-2.12c-.57-.8-1.3-1.48-2.14-2a1.084 1.084 0 0 0-1.1 0 7.52 7.52 0 0 0-2.13 2c-.48.65-.86 1.35-1.15 2.1-.06.15-.12.3-.16.43-.34-.23-.71-.42-1.1-.56-.27-.1-.55-.19-.83-.25L84.87 83.64h27.49zm2-7.35h-30.2c-3.83-.01-6.93-3.11-6.92-6.94.01-3.82 3.1-6.91 6.92-6.92h30.2c3.83.01 6.93 3.11 6.92 6.94 0 3.82-3.1 6.92-6.92 6.92zm-7.34 266.74c-.55 2.54-2.91 2.29-4.22 3.4.34 4.09-2.15 5.34-3.61 5.23-1.46.11-3.95-1.14-3.6-5.23-1.32-1.11-3.68-.86-4.23-3.4-.21-2.22-.07-5.54-1.8-6.79 4.64-1.52 6.24 1.6 6.24 1.6.23-2.31 1.47-4.4 3.39-5.71a7.896 7.896 0 0 1 3.4 5.71s1.59-3.12 6.24-1.6c-1.84 1.31-1.83 6.79-1.83 6.79h.02zm5.39-260.54H84.25a2.282 2.282 0 0 1-1.29-2.06v-3.18l.53.06h30.72v3.06c0 .88-.5 1.68-1.29 2.06l-.51.06z"/><path class="st2" d="M86.9 61.41v-1.49c0-1.24 1.01-2.25 2.25-2.25h20.15c1.24 0 2.25 1.01 2.25 2.25v1.47l-24.65.02zm25.43 22.25l-6.81 251.19c-.85.11-1.66.41-2.38.88l-.14-.4a8.91 8.91 0 0 0-1.16-2.12c-.58-.8-1.3-1.48-2.14-2a1.084 1.084 0 0 0-1.1 0c-.83.5-1.55 1.16-2.13 1.94-.48.65-.87 1.36-1.16 2.11-.06.15-.11.29-.16.43-.34-.23-.71-.42-1.09-.56-.27-.11-.55-.19-.84-.25L84.84 83.62l27.49.04zm2-7.35h-30.2c-3.82-.15-6.81-3.36-6.66-7.19a6.931 6.931 0 0 1 6.66-6.66h30.2c3.82.15 6.81 3.36 6.66 7.19-.13 3.62-3.04 6.52-6.66 6.66zm-7.34 266.74c-.55 2.54-2.91 2.29-4.23 3.4.35 4.08-2.14 5.33-3.6 5.23-1.46.1-4-1.15-3.61-5.23-1.32-1.11-3.68-.86-4.22-3.4-.21-2.22-.07-5.54-1.81-6.79 4.65-1.52 6.24 1.59 6.24 1.59.24-2.31 1.48-4.4 3.4-5.7a7.858 7.858 0 0 1 3.4 5.7s1.59-3.11 6.24-1.59c-1.84 1.31-1.82 6.79-1.81 6.79zm5.39-260.54H84.23a2.275 2.275 0 0 1-1.29-2v-3.19l.53.07h30.72v3.1c-.02.85-.51 1.63-1.28 2l-.53.02z"/><path class="st3" d="M98.02 331.65L96.56 87.92c.01-.52.24-1.01.63-1.35.39-.37.9-.58 1.44-.61h.74l-.44.59c-.13.18-.22.38-.28.59-.07.24-.1.49-.1.74l.5 243.19a.95.95 0 0 0-.43.14c-.2.12-.4.25-.58.4m-2.45 3.06L88.27 87.92c.02-.51.25-.99.63-1.33.39-.37.9-.58 1.44-.61h.71l-.41.59-.05.06c-.13.18-.23.39-.29.6-.07.24-.1.49-.1.74l6.29 245.19-.06.07c-.33.46-.62.96-.86 1.48l.02-.04z"/><path class="st4" d="M109.69 73.59h-25.3a6.385 6.385 0 0 1-6.34-4.75h32.67c-.08-2.58-.8-4.77-2.91-5.86a6.438 6.438 0 0 0-3.53-1.06h-1.6v-2.16c.02-1.29-1-2.35-2.29-2.38h5.8c1.29.03 2.31 1.09 2.28 2.38v2.16h1.59c1.27 0 4.51.21 4.71 6.92h4.58a6.295 6.295 0 0 1-5.45 4.69c-.78 1.8-1.94 3-2.83 2.78v4.78c.02 1.15-.69 2.18-1.77 2.57l-5.57 251.72c-.21.1-.41.22-.61.35l-.14-.4a8.91 8.91 0 0 0-1.16-2.12l-.13-.16 1.81-249.39c1.09-.38 1.8-1.42 1.78-2.57v-4.78c1.83-.1 3.49-1.12 4.4-2.72"/><path class="st0" d="M125.47 22.17c-1.31 2.82-.25 6.18-.67 9.24-.74 4.72-2.94 9.09-6.28 12.51-1.87 1.73-1.41 4.44-2.27 7-1.62 4.77-6.2 6.21-6.23 6.46H86.3c-4.82-1.42-4-4.16-6.53-8.53s-1-10.86-.34-12.61c.56-1.32 1.26-2.57 2.07-3.75 1.82-2.81 4.45-5.01 7.55-6.3 2.2-1 5.17-1.14 7-2.63.78-.61 1.47-1.3 2.08-2.08 1.64-2.15 2.53-4.72 4.2-6.83 1.01-1.31 2.14-2.53 3.37-3.64 3.02-2.72 6.39-5.04 10-6.9 1.22-1.06 1.12-2.58 1.76-4 .28-.02.56-.02.84 0 .41 1.22.41 1.22.59 1.4 1.33.39 1.3.7 1.76 2 .24-.2.24-.2 1.2-2.08.2-.01.39-.01.59 0 1 2.13-1.84 7.23-3 8.69-.77 1-2.09 1.43-2.82 2.42-3 4-2.36 9.94-4.7 14.37-1 1.89-2.59 3.39-3.89 5.08 2.23-1.49 4.5-1.23 7.06-1.69.93-.17 1-.1 1.63-.73 2.09-2.22 2.8-15.36 8-13 0 .29.12.6 0 .86s-.37.34-.52.52c1.14 1.93 1.89.16 3.11.29.74 1.28-1.29 2.79-1.84 3.93zm53.18 0c-1.32 2.82-.26 6.18-.68 9.24-.74 4.72-2.93 9.1-6.28 12.51-1.86 1.73-1.41 4.44-2.27 7-1.62 4.77-6.2 6.21-6.23 6.46h-23.72c-4.82-1.42-4-4.16-6.52-8.53s-1-10.86-.34-12.61c.56-1.32 1.25-2.57 2.07-3.75a16.47 16.47 0 0 1 7.55-6.3c2.2-1 5.16-1.14 7.05-2.63.77-.61 1.47-1.31 2.07-2.08 1.64-2.15 2.53-4.72 4.2-6.83 1.01-1.31 2.14-2.53 3.37-3.64a47.12 47.12 0 0 1 10-6.9c1.21-1.06 1.11-2.58 1.76-4 .28-.02.55-.02.83 0 .42 1.22.42 1.22.6 1.4 1.32.39 1.29.7 1.76 2 .24-.2.23-.2 1.19-2.08.2-.01.4-.01.6 0 1 2.13-1.85 7.23-3 8.69-.77 1-2.1 1.43-2.83 2.42-3 4-2.36 9.94-4.69 14.37-1 1.89-2.6 3.39-3.89 5.08 2.23-1.49 4.49-1.23 7.05-1.69.93-.17 1-.1 1.64-.73 2.09-2.22 2.79-15.36 8-13 0 .29.12.6 0 .86s-.36.34-.52.52c1.15 1.93 1.9.16 3.12.29.68 1.28-1.35 2.79-1.88 3.93h-.01zm53.79 0c-1.31 2.82-.25 6.18-.67 9.24-.74 4.73-2.94 9.1-6.3 12.51-1.86 1.73-1.41 4.44-2.27 7-1.62 4.77-6.2 6.21-6.23 6.46h-23.7c-4.81-1.42-4-4.16-6.52-8.53s-1-10.86-.35-12.61c.57-1.32 1.27-2.57 2.08-3.75 1.82-2.82 4.45-5.01 7.54-6.3 2.21-1 5.17-1.14 7.06-2.63.77-.61 1.47-1.31 2.07-2.08 1.64-2.15 2.53-4.72 4.2-6.83 1.02-1.31 2.15-2.53 3.38-3.64a47.12 47.12 0 0 1 10-6.9c1.22-1.06 1.12-2.58 1.77-4 .28-.02.55-.02.83 0 .41 1.22.41 1.22.6 1.4 1.32.39 1.29.7 1.76 2 .23-.2.23-.2 1.19-2.08.2-.01.4-.01.6 0 1 2.13-1.85 7.23-3 8.69-.76 1-2.09 1.43-2.82 2.42-3 4-2.36 9.94-4.7 14.37-1 1.89-2.59 3.39-3.88 5.08 2.23-1.49 4.49-1.23 7.05-1.69.93-.17 1-.1 1.63-.73 2.1-2.22 2.8-15.36 8-13 0 .29.12.6 0 .86s-.36.34-.52.52c1.14 1.93 1.9.16 3.11.29.67 1.28-1.36 2.79-1.88 3.93h-.03z"/><path class="st2" d="M125.47 22.2c-1.31 2.81-.26 6.17-.68 9.24-.75 4.72-2.96 9.08-6.32 12.48-1.86 1.73-1.41 4.43-2.26 6.95-1.63 4.78-6.21 6.22-6.24 6.46H86.28c-4.82-1.42-4-4.16-6.53-8.53s-1-10.85-.34-12.61c.56-1.32 1.26-2.57 2.07-3.75 1.82-2.82 4.45-5.01 7.55-6.3 2.2-1 5.16-1.13 7.05-2.63.77-.61 1.47-1.31 2.08-2.08 1.63-2.15 2.52-4.72 4.2-6.82 1.01-1.31 2.14-2.53 3.37-3.64 3.02-2.73 6.38-5.05 10-6.9 1.22-1.07 1.11-2.58 1.76-4 .26 0 .55-.05.83-.05.42 1.22.42 1.22.6 1.41 1.32.39 1.29.7 1.76 2 .23-.21.23-.21 1.19-2.08.2-.01.4-.01.6 0 1 2.14-1.85 7.24-3 8.7-.77 1-2.1 1.43-2.83 2.42-3 4-2.36 9.93-4.69 14.37-1 1.88-2.59 3.38-3.89 5.07 2.23-1.48 4.49-1.22 7-1.69.93-.17 1-.1 1.63-.73 2.1-2.22 2.81-15.36 8-13 0 .28.12.59 0 .86s-.36.33-.52.52c1.15 1.92 1.9.15 3.11.28.74 1.39-1.29 2.9-1.81 4.05zm53.17 0c-1.31 2.81-.25 6.17-.67 9.24-.75 4.71-2.95 9.08-6.3 12.48-1.86 1.73-1.41 4.43-2.27 6.95-1.62 4.78-6.2 6.22-6.23 6.46h-23.7c-4.82-1.42-4-4.16-6.53-8.53s-1-10.85-.34-12.61c.57-1.31 1.26-2.57 2.07-3.75 1.83-2.81 4.46-5.01 7.55-6.3 2.2-1 5.16-1.13 7.05-2.63.78-.6 1.48-1.3 2.08-2.08 1.64-2.15 2.52-4.72 4.2-6.82 1.01-1.31 2.14-2.53 3.37-3.64 3.02-2.73 6.38-5.04 10-6.9 1.22-1.07 1.12-2.58 1.77-4 .26 0 .54-.05.82-.05.42 1.22.42 1.22.6 1.41 1.32.39 1.3.7 1.76 2 .24-.21.24-.21 1.2-2.08.2-.01.39-.01.59 0 1 2.14-1.84 7.24-3 8.7-.77 1-2.09 1.43-2.83 2.42-3 4-2.35 9.93-4.69 14.37-1 1.88-2.59 3.38-3.89 5.07 2.23-1.48 4.5-1.22 7.05-1.69.94-.17 1.05-.1 1.64-.73 2.09-2.22 2.8-15.36 8-13 0 .28.12.59 0 .86s-.37.33-.52.52c1.14 1.92 1.89.15 3.11.28.67 1.39-1.36 2.9-1.89 4.05zm53.8 0c-1.31 2.81-.25 6.17-.67 9.24-.75 4.71-2.95 9.08-6.3 12.48-1.85 1.73-1.4 4.43-2.26 6.95-1.62 4.78-6.2 6.22-6.24 6.46h-23.72c-4.82-1.42-4-4.16-6.53-8.53s-1-10.85-.34-12.61c.57-1.31 1.26-2.57 2.07-3.75 1.82-2.81 4.45-5.01 7.55-6.3 2.2-1 5.16-1.13 7-2.63.78-.6 1.48-1.3 2.08-2.08 1.63-2.15 2.52-4.72 4.2-6.82 1.01-1.31 2.14-2.53 3.37-3.64 3.02-2.73 6.38-5.04 10-6.9 1.22-1.07 1.12-2.58 1.76-4 .26 0 .55-.05.83-.05.42 1.22.42 1.22.6 1.41 1.32.39 1.3.7 1.76 2 .24-.21.24-.21 1.2-2.08.2-.01.39-.01.59 0 1 2.14-1.84 7.24-3 8.7-.77 1-2.09 1.43-2.83 2.42-3 4-2.35 9.93-4.69 14.37-1 1.88-2.59 3.38-3.89 5.07 2.23-1.48 4.5-1.22 7.05-1.69.93-.17 1-.1 1.64-.73 2.09-2.22 2.8-15.36 8-13 .06.28.06.58 0 .86-.1.21-.37.33-.52.52 1.14 1.92 1.89.15 3.11.28.74 1.39-1.29 2.9-1.79 4.05h-.03z"/><path class="st4" d="M125.75 19.33c-.1.18-.62.25-.74.42s-.13.74-.22 1-.49.88-.64 1.18c-.24.49-.33 2.2-.85 2s.34-1.27.43-1.7c.14-.63.25-1.27.32-1.92 0-.43-.42-1.41-.11-1.71s.72.09 1 .11.7-.15.85 0 .04.48-.04.62zm-4.42 4.48c-.11.57-.35 1.87 0 2.34.3.24.68.36 1.06.32.25 0 .63-.64.85-.53.78.37.54 2.56.43 3.41-.29 2.38-2.3 6.83-3.41 9-.51 1-2 2.64-2.45 3.62a33.63 33.63 0 0 0-1.39 4.48c-.18.69-.43 2.1-.64 2.78-.13.41-.26 1.38-.64 1.6s-1.32.12-1.49-.22.67-1.39 1-1.81 1.22-.94 1.17-1.39c-.18-.41-.56-.69-1-.74-.49 0-.92 1.22-1.38 1.38s-1.74.23-1.92-.21c-.12-.28.64-.67.74-1 .11-.66.11-1.34 0-2-.01-.69-.15-1.37-.42-2-.13-.18-.54-.49-.75-.43-.77.21-.91 2.37-1.6 2.77-.48.17-1.01.17-1.49 0-.4-.22-.7-.57-.86-1-.13-.8 1.84-2.39 1.28-3-.16-.17-.67.18-.85.32-.97.98-1.79 2.09-2.45 3.3-.48.81-.66 3.43-1.6 3.42-.61 0-.71-1.69-1-2.24s-.78-1.5-1-2c-.64-1.67-1.04-3.43-1.17-5.22.33-1.68.9-3.29 1.7-4.8.33-.68 1.29-2 1.17-2.78-.07-.48-.79-1.57-1.27-1.49-2 .32-3.05 5.37-3 7.36 0 1.33 1.25 3.9 1.07 5.22-.11.75-.65 2.52-1.39 2.67s-1.59-1.07-1.92-1.6 0-1.71-.43-1.81-1 1.52-1.49 1.92-1.8 1.67-2.34 1.28c-1.5-1.08.75-5.49 1.27-7.25.3-1 2.47-3.21 1.61-3.74-1.16-.69-2.75 3-3.42 4.16-.49.86-.42 3.5-1.39 3.73-.45.11-1-1-1.38-1.27s-.65-.93-1-.86c-1.11.25-.69 4.35-1.81 4.16-.76-.13-.37-2.33-.22-3.09.34-1.7 4.32-5 3.1-6.19-.55-.54-2.26.81-2.77 1.39-1 1.16-1.48 4.45-2.14 5.86-.15.34-.39 1.38-.74 1.28-1.16-.32-.22-3.64.1-4.79.06-.21.57-.59.43-.75-.33-.37-1.39.5-1.81.75s-1.31 1.8-1.81 1.47c-1.89-1.45 2.14-7 3.73-8.74 1.59-1.74 6.61-3.67 8.74-5 1.87-1.11 3.65-2.36 5.33-3.73 1.77-1.68 4.36-5.86 6-7.68 1.86-2.02 3.82-3.94 5.87-5.76.95-.78 1.95-1.49 3-2.13.98-.38 1.91-.88 2.77-1.49.68-.76 1.24-3.19 2.24-3.41.15 0 .38.3.53.32 1 .14 1 .53 1 .85s-1.3.36-1.39.75.82.46.86.74-.81.72-1.07 1c-.38.55-.74 1.12-1.06 1.71-.33.4-1.24.92-1.61 1.28-.74.91-1.4 1.87-2 2.88-.59.71-1.12 1.45-1.6 2.24-.25 1.23-.43 2.48-.53 3.73-.18.79-1.08 2.29-1 3.09 0 .29.54.69.64 1 .2.65.28 1.33.21 2a13.9 13.9 0 0 1-2.13 3.52c-.64.86-2.32 2.28-2.88 3.19a23.868 23.868 0 0 0-2.56 6.51c-.17 1.08-1.09 4.26 0 4.37s.31-2.88.74-3.73c.77-1 1.63-1.92 2.56-2.77.73-.97 1.59-1.83 2.56-2.56 1.52-.77 5.14-.45 6.72-1.07.67-.32 1.25-.8 1.71-1.38.5-.99.89-2.03 1.17-3.1.31-1 .63-3.22 1-4.26.33-1.19.8-2.34 1.39-3.42.24-.35.85-1.25 1.27-1.17s.51.77.54 1.07c-.09.81-.31 1.6-.64 2.34-.44 1.01-.83 2.05-1.17 3.1l-.08-.07zm-2-17.06c-.26.29-.81.86-1.06 1.17-.25.31-.93 1.3-1.28 1.7s-1 .94-1.28 1.28c-.43.48-.79 1.02-1.07 1.6-.1.31 0 1-.1 1.28a6.12 6.12 0 0 1-1.07 1.5c-.21.22-.69.89-1 .74-.42-.23.06-1.46.21-1.92.18-.37.4-.72.64-1.06.24-.38.78-1.09 1-1.5.11-.25.2-.81.31-1.06.31-.56.67-1.1 1.07-1.6.25-.36.54-.69.85-1 .22-.17.75-.36 1-.53.41-.34.77-.74 1.07-1.18.18-.31.28-1 .42-1.38s.31-1.15.64-1.18c.14 0 .22.35.33.43s.74.12.85.32-.12.66-.21.85c-.38.54-.81 1.04-1.29 1.5l-.03.04zM85.07 52.81c.35.35.92 1.16 1.28 1.49s1.06.51 1.17.86c0 .14 0 .52-.17.57-.48.18-1.36-.76-1.75-1.1-.32-.37-.6-.76-.85-1.18-.26-.41-1.34-1.39-1-1.7s1 .77 1.28 1.06h.04zm1.5-.53c.14-.23.83 0 1.06.11.54.44.82 1.12.75 1.81-.17.17-.41.25-.64.21-.57-.21-1.51-1.62-1.17-2.13zm3.73-3.41c.83.18.73 2.47 1.17 3.19.2.34.83.86 1.07 1.18.2.37.45.7.74 1 .23.14.94 0 1.07.21s-.23.72-.43.85-1.37.49-1.7.22-.2-1.06-.33-1.39-.31-.64-.42-.85-.61-.94-.75-1.28-.19-1.06-.32-1.39-.68-.84-.64-1.17.35-.62.54-.52v-.05zm4.37 4.05c-.07-.42-.89-1.37-.54-1.6s.84 1.26 1.18 1.07-.31-.74-.22-1 .48-.52.64-.43-.09 1 0 1.28.71.74.75 1.06-.24.64-.32.86-.17 1.29-.53 1.38-.62-.43-.75-.64c-.13-.34-.2-.7-.21-1.06-.03-.2.04-.68 0-.92zm6.18-1.49c.1-.06.35 0 .43.1s.25.72.32 1 .15.72.21 1 .13.8.32 1c.23.13.49.17.75.11.18-.06.37-.44.53-.54.32-.15.65-.26 1-.32.34-.05 1.31-.33 1.39 0s-.8.41-1.07.54c-.35.1-.69.24-1 .43-.14.14-.17.6-.32.74-.26.17-.55.28-.85.32-.42.1-.86.1-1.28 0a1.13 1.13 0 0 1-.32-.43c-.14-.27-.24-.56-.32-.85-.09-.49-.13-.99-.11-1.49.04-.5 0-1.41.32-1.61zm78.08-32.1c-.11.18-.62.25-.75.42s-.13.74-.21 1-.5.88-.64 1.18c-.24.49-.33 2.2-.85 2s.33-1.27.42-1.7c.14-.63.25-1.27.32-1.92 0-.43-.41-1.41-.1-1.71s.71.09.95.11.71-.15.86 0c.09.2.1.43 0 .62zm-4.46 4.48c-.11.57-.35 1.87 0 2.34.3.24.69.36 1.07.32.25 0 .62-.64.85-.53.77.37.53 2.56.43 3.41-.29 2.38-2.31 6.83-3.42 9-.5 1-2 2.64-2.45 3.62-.57 1.46-1.03 2.96-1.38 4.48-.19.69-.43 2.1-.64 2.78-.13.41-.27 1.38-.65 1.6s-1.31.12-1.49-.22.67-1.39 1-1.81 1.22-.94 1.18-1.39c-.18-.4-.56-.68-1-.74-.49 0-.93 1.22-1.39 1.38s-1.73.23-1.92-.21c-.12-.28.65-.67.75-1 .1-.66.1-1.34 0-2-.02-.69-.17-1.36-.43-2-.13-.18-.54-.49-.75-.43-.77.21-.9 2.37-1.6 2.77-.48.17-1.01.17-1.49 0-.4-.22-.7-.57-.85-1-.13-.8 1.84-2.39 1.28-3-.16-.17-.67.18-.85.32-.97.98-1.8 2.09-2.46 3.3-.48.81-.66 3.43-1.6 3.42-.61 0-.71-1.69-1-2.24s-.77-1.5-1-2c-.64-1.68-1.03-3.43-1.17-5.22.33-1.67.91-3.29 1.71-4.8.33-.68 1.28-2 1.17-2.78-.07-.48-.79-1.57-1.28-1.49-2 .32-3 5.37-3 7.36 0 1.33 1.25 3.9 1.07 5.22-.1.75-.65 2.52-1.38 2.67s-1.6-1.07-1.93-1.6 0-1.71-.42-1.81-1 1.52-1.5 1.92-1.8 1.67-2.34 1.28c-1.5-1.08.75-5.49 1.28-7.25.29-1 2.47-3.21 1.59-3.74-1.14-.69-2.73 3-3.4 4.16-.5.86-.42 3.5-1.39 3.73-.46.11-1-1-1.39-1.27s-.64-.93-1-.86c-1.1.25-.69 4.35-1.81 4.16-.76-.13-.36-2.33-.21-3.09.34-1.7 4.31-5 3.09-6.19-.55-.54-2.26.81-2.77 1.39-1 1.16-1.47 4.45-2.13 5.86-.16.34-.39 1.38-.75 1.28-1.16-.32-.21-3.64.11-4.79.05-.21.56-.59.42-.75-.32-.37-1.39.5-1.81.75s-1.44 1.86-1.92 1.49c-1.88-1.45 2.14-7 3.73-8.74 1.59-1.74 6.62-3.67 8.75-5 1.86-1.11 3.65-2.36 5.33-3.73 1.76-1.68 4.35-5.86 6-7.68 1.85-2.02 3.81-3.94 5.86-5.76.95-.78 1.95-1.49 3-2.13.98-.38 1.91-.88 2.77-1.49.68-.76 1.24-3.19 2.24-3.41.15 0 .38.3.54.32.95.14 1 .53.95.85s-1.29.36-1.38.75.82.46.85.74-.8.72-1.07 1-.74 1.32-1.06 1.71-1.24.92-1.6 1.28c-.74.91-1.41 1.87-2 2.88-.59.71-1.12 1.45-1.6 2.24-.25 1.23-.43 2.48-.53 3.73-.18.79-1.08 2.29-1 3.09 0 .29.54.69.64 1 .2.65.28 1.33.21 2-.53 1.28-1.24 2.46-2.13 3.52-.64.86-2.31 2.28-2.88 3.19a23.868 23.868 0 0 0-2.56 6.51c-.17 1.08-1.08 4.26 0 4.37s.32-2.88.75-3.73c.77-1 1.62-1.93 2.56-2.77.72-.97 1.59-1.84 2.56-2.56 1.51-.77 5.13-.45 6.71-1.07a4.77 4.77 0 0 0 1.71-1.38c.5-.99.89-2.03 1.17-3.1.32-1 .64-3.22 1-4.26.33-1.19.8-2.34 1.39-3.42.25-.35.85-1.25 1.28-1.17s.5.77.53 1.07c-.09.81-.31 1.6-.64 2.34-.25.79-1 2.28-1.17 3.1l.06-.09zm-2-17.06c-.26.29-.81.86-1.07 1.17-.26.31-.93 1.3-1.28 1.7s-1 .94-1.28 1.28c-.42.48-.78 1.02-1.06 1.6-.11.31 0 1-.11 1.28a6.12 6.12 0 0 1-1.07 1.5c-.21.22-.69.89-1 .74s.06-1.46.22-1.92c.18-.37.39-.73.64-1.06.23-.38.77-1.09 1-1.5.11-.25.2-.81.32-1.06.31-.56.66-1.1 1.06-1.6.26-.36.54-.69.86-1 .21-.17.74-.36 1-.53.41-.34.77-.74 1.06-1.18.18-.31.29-1 .43-1.38s.3-1.15.64-1.18c.13 0 .21.35.32.43s.75.12.85.32-.11.66-.21.85c-.38.54-.81 1.04-1.28 1.5l-.04.04zm-34.28 46.06c.34.35.92 1.16 1.28 1.49s1.05.51 1.17.86c0 .14 0 .52-.18.57-.48.18-1.36-.76-1.74-1.1a7.07 7.07 0 0 1-.85-1.18c-.27-.41-1.34-1.39-1-1.7s1 .77 1.28 1.06h.04zm1.49-.53c.14-.23.83 0 1.07.11.53.44.81 1.12.74 1.81-.16.17-.4.25-.64.21-.57-.21-1.51-1.62-1.17-2.13zm3.79-3.36c.83.18.73 2.47 1.17 3.19.21.34.83.86 1.07 1.18.2.37.45.7.75 1 .23.14.93 0 1.06.21s-.23.72-.43.85-1.37.49-1.7.22-.2-1.06-.32-1.39c-.13-.29-.27-.58-.43-.85-.17-.33-.61-.94-.74-1.28s-.2-1.06-.32-1.39-.69-.84-.64-1.17.35-.67.53-.57zm4.37 4.05c-.06-.42-.89-1.37-.53-1.6s.83 1.26 1.17 1.07-.3-.74-.21-1 .47-.52.64-.43-.1 1 0 1.28.7.74.75 1.06-.25.64-.33.86-.17 1.29-.53 1.38-.62-.43-.75-.64c-.13-.34-.2-.7-.21-1.06-.02-.25.04-.73 0-.97v.05zm6.19-1.49c.09-.06.34 0 .42.1s.26.72.32 1 .15.72.22 1 .12.8.32 1c.22.13.49.17.74.11.18-.06.37-.44.54-.54.32-.16.65-.26 1-.32.33-.05 1.3-.33 1.38 0s-.8.41-1.06.54c-.35.1-.69.24-1 .43-.14.14-.17.6-.31.74-.26.17-.55.28-.86.32-.42.1-.86.1-1.28 0-.12-.06-.25-.31-.32-.43-.14-.27-.24-.56-.32-.85-.09-.49-.13-.99-.1-1.49.02-.55-.02-1.46.31-1.66v.05zm78.7-32.1c-.11.18-.62.25-.75.42s-.13.74-.21 1-.5.88-.64 1.18c-.24.49-.34 2.2-.86 2s.34-1.27.43-1.7c.14-.63.25-1.27.32-1.92 0-.43-.42-1.41-.11-1.71s.72.09 1 .11.71-.15.86 0c.06.19.05.39-.04.57v.05zm-4.43 4.48c-.11.57-.35 1.87 0 2.34.3.24.69.36 1.07.32.24 0 .62-.64.85-.53.77.37.53 2.56.43 3.41-.29 2.38-2.31 6.83-3.42 9-.5 1-2 2.64-2.45 3.62-.56 1.46-1.03 2.96-1.39 4.48-.18.69-.42 2.1-.64 2.78-.13.41-.26 1.38-.64 1.6s-1.32.12-1.49-.22.67-1.39 1-1.81 1.22-.94 1.17-1.39a1.23 1.23 0 0 0-1-.74c-.48 0-.92 1.22-1.38 1.38s-1.73.23-1.92-.21c-.12-.28.65-.67.74-1 .11-.66.11-1.34 0-2-.01-.69-.15-1.37-.42-2-.13-.18-.54-.49-.75-.43-.77.21-.91 2.37-1.6 2.77-.48.17-1.01.17-1.49 0-.4-.22-.7-.57-.85-1-.13-.8 1.84-2.39 1.28-3-.16-.17-.68.18-.86.32-.97.98-1.79 2.09-2.45 3.3-.48.81-.66 3.43-1.6 3.42-.61 0-.71-1.69-1-2.24s-.78-1.5-1-2c-.64-1.67-1.04-3.43-1.17-5.22.33-1.68.91-3.29 1.71-4.8.33-.68 1.28-2 1.17-2.78-.08-.48-.8-1.57-1.28-1.49-2 .32-3 5.37-3 7.36 0 1.33 1.25 3.9 1.07 5.22-.11.75-.65 2.52-1.39 2.67s-1.59-1.07-1.92-1.6 0-1.71-.42-1.81-1 1.52-1.5 1.92-1.8 1.67-2.34 1.28c-1.5-1.08.75-5.49 1.28-7.25.28-1 2.46-3.21 1.6-3.74-1.15-.69-2.75 3-3.41 4.16-.5.86-.42 3.5-1.39 3.73-.46.11-1-1-1.39-1.27s-.64-.93-1-.86c-1.11.25-.69 4.35-1.81 4.16-.76-.13-.37-2.33-.22-3.09.34-1.7 4.32-5 3.1-6.19-.55-.54-2.26.81-2.77 1.39-1 1.16-1.47 4.45-2.14 5.86-.15.34-.39 1.38-.74 1.28-1.16-.32-.22-3.64.1-4.79.06-.21.57-.59.43-.75-.32-.37-1.39.5-1.81.75s-1.44 1.86-1.92 1.49c-1.88-1.45 2.14-7 3.73-8.74 1.59-1.74 6.61-3.67 8.74-5 1.87-1.11 3.65-2.36 5.33-3.73 1.77-1.68 4.36-5.86 6-7.68 1.85-2.02 3.81-3.94 5.86-5.76.95-.78 1.95-1.49 3-2.13.98-.38 1.91-.88 2.77-1.49.68-.76 1.24-3.19 2.24-3.41.15 0 .38.3.53.32 1 .14 1 .53 1 .85s-1.29.36-1.38.75.81.46.85.74-.81.72-1.07 1-.75 1.32-1.06 1.71-1.24.92-1.6 1.28c-.74.91-1.41 1.87-2 2.88-.59.71-1.12 1.45-1.6 2.24-.25 1.23-.43 2.48-.53 3.73-.18.79-1.08 2.29-1 3.09 0 .29.54.69.64 1 .2.65.28 1.33.21 2a13.9 13.9 0 0 1-2.13 3.52c-.64.86-2.31 2.28-2.88 3.19a23.868 23.868 0 0 0-2.56 6.51c-.17 1.08-1.09 4.26 0 4.37s.31-2.88.75-3.73c.77-1 1.62-1.93 2.56-2.77.72-.97 1.59-1.84 2.56-2.56 1.51-.77 5.13-.45 6.71-1.07a4.77 4.77 0 0 0 1.71-1.38c.5-.99.89-2.03 1.17-3.1.32-1 .64-3.22 1-4.26.33-1.19.8-2.34 1.39-3.42.24-.35.85-1.25 1.28-1.17s.5.77.53 1.07c-.09.81-.31 1.6-.64 2.34-.25.79-1 2.28-1.17 3.1l.03-.09zm-2-17.06c-.27.29-.82.86-1.07 1.17-.25.31-.93 1.3-1.28 1.7s-1 .94-1.28 1.28c-.43.48-.79 1.02-1.07 1.6-.1.31 0 1-.1 1.28a6.12 6.12 0 0 1-1.07 1.5c-.21.22-.69.89-1 .74s.06-1.46.22-1.92c.18-.37.39-.73.64-1.06.23-.38.77-1.09 1-1.5.11-.25.2-.81.31-1.06.31-.56.67-1.1 1.07-1.6.25-.36.54-.7.86-1 .21-.17.74-.36 1-.53.41-.34.77-.74 1.07-1.18.18-.31.29-1 .43-1.38s.3-1.15.64-1.18c.13 0 .21.35.32.43s.74.12.85.32-.11.66-.21.85c-.38.54-.81 1.04-1.28 1.5l-.05.04zm-34.29 46.06c.35.35.93 1.16 1.28 1.49s1.06.51 1.17.86c0 .14 0 .52-.17.57-.48.18-1.36-.76-1.74-1.1-.32-.37-.61-.76-.86-1.18-.26-.41-1.33-1.39-1-1.7s1 .77 1.28 1.06h.04zm1.5-.53c.14-.23.83 0 1.06.11.54.44.82 1.12.75 1.81-.16.17-.4.25-.64.21-.57-.21-1.51-1.62-1.17-2.13zm3.76-3.41c.83.18.73 2.47 1.17 3.19.21.34.83.86 1.07 1.18.2.37.45.7.74 1 .24.14.94 0 1.07.21s-.23.72-.43.85-1.37.49-1.7.22-.2-1.06-.32-1.39-.32-.64-.43-.85-.61-.94-.75-1.28-.19-1.06-.32-1.39-.68-.84-.63-1.17.34-.67.53-.57zm4.37 4.05c-.07-.42-.89-1.37-.53-1.6s.83 1.26 1.17 1.07-.3-.74-.21-1 .47-.52.64-.43-.1 1 0 1.28.7.74.74 1.06-.24.64-.32.86-.17 1.29-.53 1.38-.62-.43-.75-.64c-.13-.34-.2-.7-.21-1.06-.02-.25.04-.73 0-.97v.05zm6.19-1.49c.09-.06.34 0 .42.1s.25.72.32 1 .15.72.21 1 .13.8.33 1c.22.13.49.17.74.11.18-.06.37-.44.53-.54.32-.15.65-.26 1-.32.35-.05 1.31-.33 1.39 0s-.8.41-1.06.54c-.35.1-.69.24-1 .43-.14.14-.17.6-.32.74-.26.17-.55.28-.85.32-.42.1-.86.1-1.28 0a1.13 1.13 0 0 1-.32-.43c-.14-.27-.24-.56-.32-.85-.12-.54-.17-1.1-.15-1.66.07-.38 0-1.29.36-1.49v.05z"/><path class="st0" d="M192.91 61.38v-1.46a2.268 2.268 0 0 1 2.26-2.25h20.15c1.24 0 2.25 1.01 2.25 2.25v1.47l-24.66-.01zm25.44 22.26l-6.82 251.19c-.85.11-1.66.41-2.37.88-.05-.12-.09-.26-.15-.4a8.91 8.91 0 0 0-1.16-2.12c-.57-.8-1.3-1.48-2.14-2-.16-.1-.36-.15-.55-.15-.19 0-.38.05-.54.15-.84.52-1.57 1.2-2.14 2-.48.65-.86 1.35-1.15 2.1-.06.15-.12.3-.16.43-.34-.23-.71-.42-1.1-.56-.27-.1-.55-.19-.83-.25l-8.38-251.26 27.49-.01zm2-7.35h-30.2c-3.83-.01-6.93-3.11-6.92-6.94.01-3.82 3.1-6.91 6.92-6.92h30.2c3.83.01 6.93 3.11 6.92 6.94 0 3.82-3.1 6.92-6.92 6.92zm-7.34 266.74c-.54 2.54-2.91 2.29-4.22 3.4.34 4.09-2.15 5.34-3.61 5.23-1.46.11-3.95-1.14-3.6-5.23-1.32-1.11-3.68-.86-4.23-3.4-.21-2.22-.07-5.54-1.8-6.79 4.64-1.52 6.24 1.6 6.24 1.6.23-2.31 1.47-4.4 3.39-5.71a7.896 7.896 0 0 1 3.4 5.71s1.59-3.12 6.24-1.6c-1.84 1.31-1.83 6.79-1.83 6.79h.02zm5.39-260.54h-28.16a2.282 2.282 0 0 1-1.29-2.06v-3.18l.53.06h30.72v3.06c0 .88-.5 1.68-1.29 2.06l-.51.06z"/><path class="st2" d="M192.89 61.41v-1.49c0-1.24 1.01-2.25 2.25-2.25h20.15c1.24 0 2.25 1.01 2.25 2.25v1.47l-24.65.02zm25.43 22.25l-6.85 251.19c-.85.11-1.66.41-2.37.88l-.14-.4a8.91 8.91 0 0 0-1.16-2.12c-.58-.8-1.3-1.48-2.14-2a1.084 1.084 0 0 0-1.1 0c-.83.5-1.55 1.16-2.13 1.94-.48.65-.87 1.36-1.16 2.11-.06.15-.11.29-.16.43-.34-.23-.71-.42-1.1-.56-.27-.11-.55-.19-.83-.25L190.8 83.62l27.52.04zm2-7.35H190.1c-3.82-.15-6.81-3.36-6.66-7.19a6.931 6.931 0 0 1 6.66-6.66h30.21c3.82.15 6.81 3.36 6.66 7.19a6.931 6.931 0 0 1-6.66 6.66h.01zm-7.35 266.74c-.55 2.54-2.91 2.29-4.23 3.4.35 4.08-2.14 5.33-3.6 5.23-1.46.1-4-1.15-3.61-5.23-1.31-1.11-3.68-.86-4.22-3.4-.21-2.22-.07-5.54-1.81-6.79 4.65-1.52 6.24 1.59 6.24 1.59.24-2.31 1.48-4.4 3.4-5.7a7.858 7.858 0 0 1 3.4 5.7s1.59-3.11 6.23-1.59c-1.82 1.31-1.8 6.79-1.8 6.79zm5.38-260.54h-28.13a2.275 2.275 0 0 1-1.29-2v-3.19l.53.07h30.72v3.1a2.29 2.29 0 0 1-1.28 2l-.55.02z"/><path class="st3" d="M204 331.65l-1.45-243.73c.01-.52.24-1.01.63-1.35.39-.37.9-.58 1.44-.61h.74l-.44.59c-.13.18-.22.38-.28.59-.07.24-.1.49-.1.74l.51 243.19a.95.95 0 0 0-.43.14c-.21.12-.4.25-.59.4m-2.44 3.06l-7.33-246.75c.02-.51.25-.99.63-1.33.39-.37.9-.58 1.44-.61h.71l-.41.59v.06c-.13.18-.23.39-.29.6-.07.24-.1.49-.1.74l6.23 245.15-.05.07c-.34.47-.63.98-.86 1.52l.03-.04z"/><path class="st4" d="M215.68 73.59h-25.3a6.385 6.385 0 0 1-6.34-4.75h32.67c-.08-2.58-.81-4.77-2.91-5.86a6.438 6.438 0 0 0-3.53-1.06h-1.6v-2.16c.02-1.29-1-2.35-2.29-2.38h5.8c1.29.03 2.31 1.09 2.28 2.38v2.16h1.59c1.27 0 4.51.21 4.71 6.92h4.58a6.295 6.295 0 0 1-5.45 4.69c-.78 1.8-1.94 3-2.83 2.78v4.78c.03 1.15-.69 2.19-1.78 2.57l-5.56 251.72c-.21.1-.41.22-.61.35l-.14-.4a8.91 8.91 0 0 0-1.16-2.12l-.13-.16 1.79-249.39c1.09-.38 1.8-1.42 1.78-2.57v-4.78c1.83-.1 3.49-1.12 4.4-2.72"/><path class="st0" d="M55.36 202.4s9.47 4.58 3.82 11.66c-7.27 9.1-9.93 14.69-9.93 14.69a61.556 61.556 0 0 1-8.6 13.17c-3 3.64-7.69 6.29-10.08 8.64-3.67 3.62-4.18 5.74-4.18 5.74-.69 3.27-.77 6.65-.23 9.95.78 3.54 2.05 6.96 3.77 10.15 0 0-2.81-9.2 12.81-13.93 8.53-2.55 11.73-4.29 11.73-4.29 3-2.28 5.51-5.13 7.4-8.39 1.29-2.8 1.91-5.87 1.79-8.95 0 0-.42-3.67-1.56-11.63-.74-5.23 2.59-11.84 1.52-17.17-.74-4.5-3.92-8.21-8.26-9.64z"/><path class="st2" d="M55.34 202.43s9.47 4.57 3.82 11.65c-7.27 9.11-9.93 14.69-9.93 14.69-2.3 4.73-5.19 9.15-8.6 13.15-3 3.63-7.7 6.28-10.08 8.63-3.68 3.62-4.19 5.74-4.19 5.74-.68 3.27-.76 6.65-.22 9.95.78 3.54 2.05 6.96 3.77 10.15 0 0-2.82-9.2 12.81-13.93 8.52-2.57 11.76-4.27 11.76-4.27 3-2.28 5.52-5.13 7.41-8.39 1.29-2.8 1.91-5.87 1.79-8.95 0 0-.43-3.67-1.56-11.63-.75-5.22 2.59-11.84 1.52-17.17-.75-4.5-3.95-8.21-8.3-9.62z"/><path class="st0" d="M2.21 202.73s1.3-2.52 3.75-1.43c3.76 1.67 4.92 6.82 4.92 6.82s4.73 11.12 11.5 18.88a59.31 59.31 0 0 0 10.72 9.48c.83.56 1.37-.45 2.82 0 7.26 2.39-5.06 4.92-11.38 7.6a8.462 8.462 0 0 1-6.17.56s-2.49-.41-6-3.91a63.623 63.623 0 0 1-6.25-7.92c-1.62-.66-3.09-1.64-4.32-2.89a7.706 7.706 0 0 1-1.56-4c.69-3.9 1.6-7.77 2.72-11.57 1.55-5.5-.75-11.69-.75-11.69v.07z"/><path class="st2" d="M2.19 202.75s1.3-2.52 3.75-1.43c3.76 1.67 4.92 6.82 4.92 6.82s4.73 11.12 11.49 18.89a60.09 60.09 0 0 0 10.73 9.47c.83.56 1.37-.45 2.82 0 7.26 2.39-5.06 4.92-11.39 7.6a8.436 8.436 0 0 1-6.16.56s-2.49-.41-6-3.91a63.623 63.623 0 0 1-6.25-7.92c-1.63-.65-3.11-1.62-4.35-2.86a7.686 7.686 0 0 1-1.57-4c.7-3.9 1.61-7.76 2.73-11.56 1.55-5.51-.75-11.7-.75-11.7l.03.04z"/><path class="st0" d="M20.93 238.92s1.12 2.37.73 3.67c-.6 2-3.49 1.92-3.49 1.92.89.38 1.87.49 2.82.32 1.27-.19 2.64-.52 2.64-.52l11.3-4.27c1.56-.41 4.49-1.22 2.56-3.22-.58-.49-1.36-.68-2.1-.52-1.11.14-2.83.52-2.83.52-3.91.82-7.66 1.39-11.63 2.1z"/><path class="st4" d="M20.91 238.92s1.12 2.36.73 3.66c-.61 2-3.49 1.92-3.49 1.92.89.38 1.87.5 2.82.32 1.26-.19 2.63-.52 2.63-.52l11.3-4.27c1.56-.41 4.5-1.22 2.57-3.22-.59-.48-1.36-.67-2.11-.52-1.11.14-2.82.52-2.82.52-3.92.82-7.66 1.38-11.63 2.11"/><path class="st0" d="M241.47 201.92s-8 16.44.64 24.53c7.6 6.44 7.66 11.27 15 17.6 2.76 2.44 5.74 4.63 8.89 6.53 2.47 1.75 4.42 4.14 5.63 6.92.83 3.47.99 7.07.49 10.61-.69 3.45-1.65 6.84-2.85 10.15 0 0 3.6-11.92-10.84-16.69-7.47-2.45-12.82-4.53-12.82-4.53s-6.5-3-9.24-6.55a18.067 18.067 0 0 1-3.24-8s-.22-2.74 2.35-13.34c1.9-7.82-2.28-12.68-2.7-18.88-.45-5.91 8.69-8.35 8.69-8.35z"/><path class="st2" d="M241.4 201.92s-8 16.44.64 24.53c7.61 6.44 7.66 11.27 15 17.6 2.76 2.44 5.74 4.63 8.9 6.53 2.47 1.75 4.41 4.15 5.63 6.92.83 3.47.99 7.07.48 10.61-.69 3.45-1.65 6.84-2.85 10.15 0 0 3.6-11.92-10.84-16.69-7.46-2.45-12.81-4.53-12.81-4.53s-6.51-3-9.24-6.55a18.067 18.067 0 0 1-3.24-8s-.22-2.74 2.35-13.34c1.9-7.82-2.28-12.68-2.71-18.88-.41-5.89 8.69-8.35 8.69-8.35z"/><path class="st0" d="M294.12 204.11a2.82 2.82 0 0 0-3.69-1.1c-3.76 1.67-6.76 6.88-6.76 6.88s-6.43 9.4-12.94 17.38c-3.07 3.76-4 5.81-6.06 8-.4.41-4.25-1.59-5.58-.85a1.58 1.58 0 0 0-.65 2.44s11.12 6.4 17.16 8.31c2 .64 4.66-1.54 4.66-1.54a35.4 35.4 0 0 0 3.8-4.31c1.09-1.46 3.55-5.55 3.55-5.55 2.93-.67 5.41-2.61 6.78-5.29.87-1.88 1.07-3.99.58-6-.73-2.16-1.26-4.38-1.6-6.64-.11-1.44-.07-2.9.13-4.33 1.78-6.27.62-7.4.62-7.4z"/><path class="st2" d="M294.09 204.13a2.82 2.82 0 0 0-3.69-1.1c-3.75 1.67-6.75 6.89-6.75 6.89s-6.43 9.39-12.94 17.37c-3.08 3.76-4 5.81-6.06 8-.41.41-4.25-1.59-5.59-.85-.8.32-1.2 1.24-.87 2.04.06.14.14.28.23.4 0 0 11.11 6.4 17.15 8.31 2 .64 4.66-1.54 4.66-1.54a35.4 35.4 0 0 0 3.8-4.31c1.1-1.46 3.56-5.54 3.56-5.54 2.93-.68 5.41-2.62 6.77-5.3.87-1.87 1.08-3.99.59-6-.73-2.16-1.27-4.38-1.61-6.63-.11-1.45-.07-2.9.13-4.34 1.79-6.27.62-7.4.62-7.4z"/><path class="st0" d="M274.87 238.67s-1.65 2.3-1.13 4.06a3.529 3.529 0 0 0 2.84 2.31s-1.32.71-5-1.25c-2.16-1.15-6-3.08-6-3.08l-4.59-2.5c-.9-.41-1.76-.91-2.56-1.5-.88-.75.19-2.05.19-2.05s.35-.74 1.77-.46c.98.21 1.95.47 2.9.79.81 0 9.85 3.03 11.58 3.68z"/><path class="st4" d="M274.84 238.69s-1.64 2.3-1.13 4.06a3.557 3.557 0 0 0 2.84 2.32s-1.32.7-5-1.26c-2.16-1.15-6-3.08-6-3.08l-4.6-2.5c-.9-.41-1.76-.91-2.56-1.5-.87-.74.19-2.05.19-2.05s.36-.74 1.78-.46c.98.21 1.94.48 2.89.79.79 0 9.84 3 11.56 3.68"/><path class="st0" d="M48.85 229.35s-6.2 12.13-12 16c-9.67 6.49-10.67 10.82-10.67 10.82s-8.32 25.93 34.6 50.52c44.07 25.25 89 23.76 89 23.76s45.82 1.51 84.6-19.54c45.62-24.77 37.77-51.59 37.77-51.59s0-5.88-9.67-11.61c-7.63-4.5-13-12.62-13-12.62s8.58 32.82-41.29 50.66c-36.85 13.18-57.63 11.8-57.63 11.8s-36.5.71-67.28-16.33c-48.94-27.07-34.21-52.24-34.21-52.24l-.22.37z"/><path class="st4" d="M48.83 229.38s-6.2 12.12-12 16c-9.66 6.49-10.66 10.82-10.66 10.82s-8.32 25.93 34.6 50.52c44.07 25.25 89 23.76 89 23.76s45.81 1.51 84.59-19.54c45.62-24.77 37.78-51.59 37.78-51.59s0-5.88-9.67-11.61c-7.64-4.5-13-12.62-13-12.62s8.58 32.82-41.3 50.66c-36.85 13.18-57.63 11.8-57.63 11.8s-36.49.71-67.28-16.33c-48.93-27.07-34.2-52.24-34.2-52.24l-.23.37z"/><path class="st0" d="M233.34 242.02s-.84-1.3 2.14-12c.64-2.3.76-8-.95-12.89-2-5.79-1.58-7.94-1.58-7.94s-.62-4.08 7-6.87c3.02-1.21 6.31-1.59 9.52-1.1 0 0 5.93.33 22.86 6.55 17.76 6.53 21.81-3.33 21.81-3.33s.77.94-.56 6.58 1.62 12.28 1.62 12.28 1.09 3-2.19 7.27c-1.92 2.52-5.7 3.17-5.7 3.17s-2.84 1.57-21.84-3.05a85.682 85.682 0 0 0-19-2.47s-4.08 0-8.91 4.24c-3.61 3.16-4.22 9.56-4.22 9.56z"/><path class="st4" d="M233.32 242.04s-.85-1.3 2.13-12c.64-2.3.76-8-.94-12.89-2-5.78-1.58-7.94-1.58-7.94s-.63-4.08 7-6.87c3.03-1.21 6.33-1.58 9.56-1.08 0 0 5.94.33 22.86 6.55 17.77 6.53 21.82-3.33 21.82-3.33s.76.94-.57 6.58 1.62 12.28 1.62 12.28 1.09 3-2.19 7.28c-1.92 2.51-5.7 3.17-5.7 3.17s-2.86 1.54-21.86-3.08a85.682 85.682 0 0 0-19-2.47s-4.08 0-8.91 4.24c-3.63 3.16-4.24 9.56-4.24 9.56z"/><path class="st0" d="M63.77 241.37c-.17-3.45-.6-6.88-1.3-10.26-.57-2.75-.42-5.6.43-8.28.88-3.16 1.22-6.45 1-9.72-.52-4.72-3.59-8.77-8-10.55-3.88-1.49-9.43-1.4-14.3-.35s-8.86 2.82-19.7 5.82c-13.78 3.83-19.65-5.3-19.65-5.3.54 1.69.91 3.43 1.12 5.19.43 2.66-.24 6.12-.92 8.93-1.88 7.64-2.28 8.14-2.28 8.14s-.7 2.93 2.3 5.65c7.33 6.7 23.62 2.49 30.8-1 6.06-3 17.08-2.6 17.08-2.6s4.54.3 9.37 4.5c3.57 3.16 4.05 9.83 4.05 9.83z"/><path class="st4" d="M63.75 241.39c-.18-3.45-.63-6.87-1.35-10.25-.57-2.75-.42-5.61.42-8.29.89-3.16 1.22-6.45 1-9.72-.51-4.72-3.59-8.78-8-10.54-3.87-1.5-9.43-1.41-14.29-.36s-8.86 2.82-19.71 5.83c-13.78 3.82-19.64-5.31-19.64-5.31.54 1.69.93 3.43 1.16 5.2.43 2.66-.24 6.12-.93 8.94-1.87 7.63-2.27 8.14-2.27 8.14s-.67 2.89 2.26 5.63c7.33 6.7 23.62 2.49 30.8-1 6.06-2.95 17.08-2.6 17.08-2.6s4.53.3 9.36 4.5c3.63 3.16 4.11 9.83 4.11 9.83z"/><path class="st0" d="M226.77 271.85l.01-.51-156.37-2.12-3.26-180.14 162.78.65z"/><path class="st2" d="M226.75 271.87l.01-.51-156.38-2.12L67.13 89.1l162.77.65z"/><path class="st4" d="M205.23 138.45c4.16-12.89-12.68-8.15-11.86-.71h-10.9c.82-7.44-16-12.18-11.86.71-13.63-11.19 5.37-23.27 12.65-8v-.26c-1-4.09-5.12-10.92 4.61-22.48v-.09.09c9.73 11.56 5.56 18.39 4.6 22.48l.05.26c7.28-15.23 26.27-3.15 12.64 8h.07zm-10.46 5.29h-13.79c-.13 0-.22-.05-.55-.12-3 0-2.87-4.71-.15-5l1.47-.09h12.16l1.62.1c2.73.25 2.84 5-.14 5l-.62.11zm-13.26.82h12.77c-.53 6.25 8.18 7.26 9.23 4-.23 7.74-7.17 8.13-11.28 3.24 0 2.23-1.62 9.55-4.33 11.83-3.6-2.13-4.33-9.6-4.34-11.83-4.1 4.89-11.05 4.5-11.27-3.24 1.04 3.26 9.75 2.25 9.18-4h.04zm-56.04 90.49c4.15-12.88-12.68-8.15-11.86-.7h-11c.82-7.45-16-12.18-11.86.7-13.63-11.19 5.36-23.27 12.65-8v-.27c-1-4.09-5.13-10.92 4.6-22.48v-.09.05-.05.09c9.73 11.56 5.57 18.39 4.61 22.48v.27c7.47-15.27 26.46-3.19 12.86 8zm-10.46 5.29h-13.82l-.56-.11c-3 0-2.86-4.72-.14-5l1.47-.09h11.98c.05.01.11.01.16 0l1.62.1c2.72.25 2.84 5-.15 5l-.56.1zm-13.26.82h12.72c-.54 6.25 8.18 7.26 9.23 4-.23 7.74-7.18 8.13-11.28 3.24 0 2.24-1.62 9.56-4.33 11.83-3.6-2.13-4.33-9.59-4.34-11.83-4.11 4.89-11.05 4.5-11.28-3.24 1.07 3.26 9.78 2.25 9.25-4h.03zm103.51-6.11c4.16-12.88-12.68-8.15-11.86-.7h-10.93c.82-7.45-16-12.18-11.86.7-13.63-11.19 5.37-23.27 12.65-8v-.27c-1-4.09-5.12-10.92 4.61-22.48v-.09.09c9.73 11.56 5.56 18.39 4.6 22.48l.05.27c7.28-15.24 26.27-3.16 12.64 8h.1zm-10.46 5.29h-13.82l-.55-.11c-3 0-2.87-4.72-.15-5l1.47-.09h11.98c.05.01.11.01.16 0l1.62.1c2.73.25 2.84 5-.14 5-.37.05-.45.06-.6.1h.03zm-13.26.82h12.77c-.53 6.25 8.18 7.26 9.23 4-.23 7.74-7.17 8.13-11.28 3.24 0 2.24-1.62 9.56-4.33 11.83-3.6-2.13-4.33-9.59-4.34-11.83-4.1 4.89-11.05 4.5-11.27-3.24 1.01 3.26 9.72 2.25 9.15-4h.07zm-56.07-102.71c4.15-12.89-12.68-8.15-11.86-.71h-11c.82-7.44-16-12.18-11.86.71-13.63-11.19 5.36-23.27 12.65-8v-.26c-1-4.09-5.13-10.92 4.6-22.48v-.09.09c9.73 11.56 5.57 18.39 4.61 22.48v.26c7.47-15.27 26.46-3.19 12.86 8zm-10.46 5.29h-13.82c-.13 0-.22-.05-.56-.12-3 0-2.86-4.71-.14-5l1.47-.09h12.16l1.62.1c2.72.25 2.84 5-.15 5l-.58.11zm-13.26.82h12.72c-.54 6.25 8.18 7.26 9.23 4-.23 7.74-7.18 8.13-11.28 3.24 0 2.23-1.62 9.55-4.33 11.83-3.6-2.13-4.33-9.6-4.34-11.83-4.11 4.89-11.05 4.5-11.28-3.24 1.07 3.26 9.78 2.25 9.25-4h.03zm48.82 125.77l-4.55-.06-8.18-14.28v-63H89.29l-6.17 25.28h-3.65v-71.69h3.64l6 24.78h48.8v-62.23l-25.11-6.21v-3.66h71.4v3.66l-24.73 6.09v62.42h48.71l6.05-24.78h3.64v71.68h-3.6l-6.18-25.28h-48.51v62.94l-9.01 14.34zm53.16-91h-51.52v-66.91h-7v66.92H93.69v7.07h51.49v66.92h7v-66.92h51.49l.06-7.08z"/><path class="st0" d="M226.78 271.34v.51s-35.76 14.2-77.79 14.2c-44.56 0-78.57-16.83-78.57-16.83l-3.17-179.3 159.53 181.42z"/><path class="st4" d="M226.76 271.36v.56s-35.76 14.2-77.79 14.2c-44.57 0-78.58-16.83-78.58-16.83L67.23 89.92l159.53 181.44z"/><path class="st2" d="M125.47 235.05c4.15-12.88-12.68-8.15-11.86-.7h-11c.82-7.45-16-12.18-11.86.7-13.63-11.19 5.36-23.27 12.65-8v-.27c-1-4.09-5.13-10.92 4.6-22.48v-.09.05-.05.09c9.73 11.56 5.57 18.39 4.61 22.48v.27c7.47-15.27 26.46-3.19 12.86 8zm-10.46 5.29h-13.82l-.56-.11c-3 0-2.86-4.72-.14-5l1.47-.09h11.98c.05.01.11.01.16 0l1.62.1c2.72.25 2.84 5-.15 5l-.56.1zm-13.26.82h12.72c-.54 6.25 8.18 7.26 9.23 4-.23 7.74-7.18 8.13-11.28 3.24 0 2.24-1.62 9.56-4.33 11.83-3.6-2.13-4.33-9.59-4.34-11.83-4.11 4.89-11.05 4.5-11.28-3.24 1.07 3.26 9.78 2.25 9.25-4h.03zm79.79 0h12.77c-.53 6.25 8.18 7.26 9.23 4-.23 7.74-7.17 8.13-11.28 3.24 0 2.24-1.62 9.56-4.33 11.83-3.6-2.13-4.33-9.59-4.34-11.83-4.1 4.89-11.05 4.5-11.27-3.24 1.01 3.26 9.72 2.25 9.15-4h.07zm13.47-5.94l2.58 2.93a2.126 2.126 0 0 1-2.19 2.07c-.37.07-.45.08-.6.12h-13.82l-.55-.11c-3 0-2.87-4.72-.15-5l1.47-.09h11.98c.05.01.11.01.16 0l1.12.08zm-13.36-15.21l11.74 13.37c-.04.33-.04.67 0 1h-10.92c.82-7.45-16-12.18-11.86.7-13.63-11.19 5.37-23.27 12.65-8v-.27c-.75-2.21-1.29-4.49-1.64-6.8h.03zm-43.68-49.64l7.21 8.19v.78H93.69v7.07h51.49v66.92h7v-66.77l7.37 8.38v61.05l-11.38 18.09-10.36-18.09v-63H89.29l-6.17 25.28h-3.65v-71.69h3.64l6 24.78h48.8l.06-.99zm-17.56-20l2.17 2.47c-2.19 3.38-7 2.74-10.14-1 0 2.23-1.62 9.55-4.33 11.83-3.6-2.13-4.33-9.6-4.34-11.83-4.11 4.89-11.05 4.5-11.28-3.24 1 3.22 9.76 2.21 9.23-4h12.75c-.33 3.97 3.13 5.82 5.94 5.77zm-10.38-11.81l4.53 5.16h-13.37c-.13 0-.22-.05-.56-.12-3 0-2.86-4.71-.14-5l1.47-.09h8.07v.05zm-12.88-14.64l12.15 13.81h-6.67c.82-7.44-16-12.18-11.86.71-10.53-8.64-1.59-17.81 6.38-14.52zM60.47 271.37l-.44-.37c-.28-.24-.63-.4-1-.46-.3-.05-.6.01-.85.18-.5.39-.96.84-1.35 1.34l-8.21 9.44c-.46.47-.85 1.01-1.15 1.59-.09.27-.09.55 0 .82.14.42.39.79.72 1.07l.49.42-.34.41c-2-1.69-3.97-3.43-5.91-5.24l.36-.38.48.44c.43.47 1.06.69 1.69.59.68-.32 1.27-.8 1.72-1.41l3.95-4.4c-2-1.8-4-3.67-5.9-5.59l-4.26 4.17c-.48.44-.9.95-1.25 1.5-.09.27-.09.57 0 .84.11.43.34.81.65 1.12l.48.47c-.12.13-.24.26-.37.38a159.94 159.94 0 0 1-5.62-5.72l.39-.36.45.49c.41.5 1.03.77 1.67.73.7-.28 1.32-.72 1.81-1.3l9-8.7c.49-.44.93-.93 1.3-1.48.11-.25.15-.52.09-.79-.07-.39-.26-.76-.53-1.05l-.4-.43.38-.36c1.62 1.73 3.27 3.4 4.95 5-.12.13-.24.26-.37.38l-.42-.41c-.28-.27-.62-.46-1-.55-.29-.06-.6-.02-.86.13-.53.35-1.02.76-1.45 1.23l-3.9 3.96c1.91 1.91 3.86 3.77 5.86 5.56l3.7-4.13c.47-.47.87-1 1.2-1.57.09-.26.09-.53 0-.79a1.85 1.85 0 0 0-.58-1l-.42-.39.36-.39c1.7 1.59 3.44 3.12 5.2 4.61-.13.13-.25.26-.32.4zm8.75 17.78c-1.37 2.3-3.57 3.99-6.15 4.73a7.95 7.95 0 0 1-9.78-5.52c-.16-.59-.26-1.2-.28-1.82-.07-2.69.91-5.3 2.72-7.28 1.69-2.18 4.13-3.66 6.85-4.14 2.05-.41 4.18.05 5.86 1.29a7.094 7.094 0 0 1 2.78 5.47c.17 2.58-.55 5.15-2.04 7.27h.04zm-1.58-12a4.157 4.157 0 0 0-3.94-.57c-2.29.92-4.26 2.48-5.68 4.5-2 2.48-3 4.77-3.06 6.89a4.44 4.44 0 0 0 1.88 3.86 4.95 4.95 0 0 0 4.64.71c1.71-.54 3.41-2.1 5.13-4.63 1.87-2.75 2.8-5.11 2.84-7.07.07-1.48-.63-2.89-1.85-3.72l.04.03zm25.69 14.4c-.07.16-.14.32-.22.48l-.49-.22c-.51-.29-1.13-.26-1.61.07-.49.51-.87 1.12-1.13 1.78l-5.43 11.45c-.4.65-.62 1.4-.63 2.17.17.55.59.99 1.13 1.19l.56.25-.22.48c-2.29-1-4.56-2.13-6.81-3.29l.24-.47.57.29c.53.34 1.21.36 1.76.05.52-.49.92-1.09 1.18-1.75l5.74-11.62c-4.26 4-8.71 7.82-13.34 11.46l-.38-.21c.61-5.88 1.45-11.69 2.5-17.42L70 297.31a4.23 4.23 0 0 0-.85 2.09c.11.57.48 1.06 1 1.31.18.11.36.22.55.32l-.27.46c-1.8-1.06-3.58-2.15-5.34-3.28l.29-.44.54.34c.5.39 1.17.48 1.75.23.57-.43 1.03-.98 1.35-1.62 2.22-3.6 4.44-7.19 6.67-10.78.36-.52.62-1.1.78-1.71.05-.31-.01-.63-.15-.91-.24-.41-.59-.76-1-1l.28-.45c1.26.81 2.53 1.59 3.82 2.36-.96 5.33-1.72 10.72-2.29 16.17 4.24-3.45 8.32-7.04 12.23-10.76 1.26.64 2.59 1.28 3.93 1.88l.04.03zm7 3.52l-.52-.21c-.5-.24-1.1-.19-1.56.13-.51.55-.89 1.21-1.11 1.93l-4.74 11.59c-.28.59-.48 1.22-.59 1.87 0 .28.1.56.28.77.25.35.6.61 1 .76l.59.23c-.06.17-.13.33-.19.5-2.36-.92-4.69-1.9-7-2.93l.22-.48.57.25c.54.3 1.2.3 1.74 0 .53-.53.92-1.19 1.15-1.9l4.93-11.52c.28-.59.49-1.21.62-1.85.02-.26-.04-.53-.19-.75-.2-.33-.49-.59-.84-.74l-.5-.23.21-.48c2 .91 4.09 1.76 6.16 2.57-.18.13-.24.34-.31.46l.08.03zm16.39 5.27l-.53-.14a1.49 1.49 0 0 0-1.55.36c-.39.59-.66 1.25-.8 1.95-1.44 5.25-2.88 10.51-4.32 15.77l-.45-.13a164.33 164.33 0 0 1-5.94-18.23c-1.33 3.75-2.67 7.5-4 11.25-.34.69-.48 1.46-.41 2.22.22.53.67.93 1.23 1.06l.59.21c-.06.16-.12.33-.17.5-1.94-.67-3.87-1.36-5.79-2.08.07-.17.13-.33.19-.5l.57.22c.57.28 1.24.22 1.76-.14.47-.54.81-1.18 1-1.87l4.62-12.67c-.13-.54-.3-1.07-.53-1.58-.2-.35-.46-.66-.76-.92-.28-.2-.58-.36-.9-.48l.19-.49c1.32.51 2.63 1 4 1.47 1.39 5.71 3.09 11.34 5.09 16.86l3-10.77c.28-.71.38-1.47.3-2.23-.19-.49-.62-.84-1.13-.95l-.51-.11.15-.51c1.72.51 3.45.99 5.19 1.44-.08.12-.13.29-.17.46l.08.03zm12.05 6.31l-.45-.07c.04-.73-.02-1.46-.18-2.17-.13-.4-.37-.75-.71-1-.48-.26-1.01-.43-1.55-.5-1.4-.26-2.8-.55-4.19-.85-.54 2.5-1.09 5-1.64 7.49 1.18.26 2.36.5 3.53.73.64.2 1.34.15 1.94-.15.6-.57.98-1.34 1.08-2.16l.44.07c-.39 2.22-.77 4.44-1.16 6.65l-.45-.07c.07-.61.07-1.24 0-1.85-.09-.36-.29-.67-.57-.91-.43-.3-.93-.49-1.45-.56-1.19-.23-2.38-.47-3.56-.73-.45 2.08-.91 4.17-1.36 6.25a6.85 6.85 0 0 0-.24 1.55c.03.19.12.37.26.51.27.2.59.32.92.36l2.9.58c.7.16 1.43.22 2.15.16.52-.1 1.01-.33 1.42-.67.78-.69 1.45-1.5 2-2.39l.5.08c-.73 1.53-1.47 3.06-2.24 4.57-4.44-.73-8.85-1.64-13.24-2.73 0-.18.09-.35.12-.52l.61.15c.4.11.82.11 1.22 0 .29-.08.54-.28.7-.54.27-.57.46-1.17.57-1.79l2.88-12.27c.25-.73.33-1.51.23-2.28-.23-.47-.68-.8-1.2-.88l-.53-.13.12-.51c3.86.96 7.75 1.76 11.66 2.4-.26 1.34-.44 2.74-.61 4.15l.08.03zm22.49-1.83h-.54c-.57-.04-1.12.23-1.42.72-.23.67-.33 1.38-.29 2.09-.09 4.22-.19 8.44-.28 12.67-.11.76 0 1.54.31 2.24.37.43.92.66 1.49.62h.61v.53c-2.48 0-4.96-.07-7.43-.22v-.53h.62c.62.1 1.24-.16 1.6-.67.27-.66.4-1.37.36-2.08.16-4.31.32-8.62.49-12.94-2.23 5.33-4.69 10.64-7.36 15.91h-.43c-1.8-5.6-3.37-11.24-4.71-16.88-.54 4.28-1.08 8.56-1.61 12.85-.17.75-.15 1.53.07 2.26.33.47.86.75 1.43.77l.61.07-.06.52c-2-.21-4-.48-6.05-.77 0-.17.05-.35.08-.52l.61.09c.61.14 1.24-.06 1.66-.53.33-.62.52-1.3.55-2 .55-4.19 1.11-8.37 1.66-12.56.11-.62.11-1.26 0-1.88-.08-.3-.25-.57-.49-.76-.39-.27-.85-.43-1.32-.47 0-.18.05-.35.07-.52 1.44.21 2.89.4 4.33.56 1.27 5.25 2.74 10.48 4.41 15.67 2.41-4.89 4.63-9.83 6.65-14.82 1.45.06 2.91.09 4.36.1l.02.48zm17.47 18c0-.18 0-.35-.05-.53.5-.03.97-.22 1.36-.53.21-.23.31-.53.28-.84-.15-.67-.39-1.32-.73-1.92-.45-.88-.89-1.77-1.32-2.66-2.17.22-4.33.4-6.5.53-.32 1-.65 2.09-1 3.12-.2.55-.32 1.13-.34 1.71.02.3.17.58.42.76.51.27 1.09.39 1.66.34v.53c-1.84.11-3.68.2-5.52.26v-.53c.52-.07 1-.28 1.4-.61.61-.86 1.06-1.83 1.32-2.85 1.75-5.41 3.3-10.84 4.63-16.3h.4c2.26 5.2 4.72 10.34 7.37 15.43.39.88.94 1.67 1.64 2.33.51.35 1.14.49 1.75.41 0 .18 0 .35.07.53-2.31.31-4.62.59-6.92.82h.08zm-4.39-15c-.71 2.68-1.46 5.36-2.26 8 1.91-.12 3.82-.27 5.73-.47-1.25-2.52-2.44-5.05-3.55-7.58l.08.05zm25.68 3.21c.43 1.46.64 2.98.62 4.51-.1 1.17-.56 2.27-1.33 3.16a6.59 6.59 0 0 1-3.85 2c-1.49.42-3.08.33-4.51-.25a5.763 5.763 0 0 1-2.57-2.55 19.13 19.13 0 0 1-1.18-4.65l-1.23-7.48a4.64 4.64 0 0 0-.78-2.25 1.48 1.48 0 0 0-1.35-.35l-.58.09c0-.18-.05-.35-.08-.53 2.21-.33 4.41-.71 6.6-1.14 0 .18.07.35.1.52l-.58.12c-.57.07-1.04.46-1.22 1-.12.72-.09 1.46.1 2.16.5 2.77 1 5.54 1.51 8.32.16.85.37 1.69.64 2.51.21.77.58 1.49 1.07 2.12.44.49 1 .85 1.63 1.05.76.24 1.56.26 2.33.07 1.06-.21 2.05-.72 2.83-1.47.71-.65 1.16-1.54 1.29-2.49.05-1.48-.14-2.95-.57-4.37-.63-2.54-1.25-5.08-1.88-7.62-.11-.77-.41-1.51-.86-2.14-.4-.33-.95-.45-1.45-.3l-.57.13-.12-.51c1.79-.41 3.57-.86 5.34-1.33.05.17.1.34.14.51l-.56.15c-.6.16-1.05.66-1.14 1.28-.04.7.05 1.4.27 2.06.6 2.53 1.22 5.07 1.86 7.62l.08.05zm17.63-7.11c.05.69.23 1.37.53 2 .72 1.84 1.44 3.68 2.15 5.53-.66.86-1.44 1.63-2.32 2.27-.9.64-1.89 1.14-2.94 1.49-3.26 1.13-6.14.74-8.48-1.08-1.76-1.38-3.02-3.3-3.57-5.47-.44-1.63-.56-3.33-.33-5 .2-1.82.86-3.57 1.92-5.06.88-1.15 2.09-2 3.47-2.44.5-.17 1.01-.29 1.53-.35a15 15 0 0 1 2.12 0c.3.05.62.05.92 0 .15-.07.25-.21.27-.37.01-.34-.04-.68-.17-1l.39-.15c.86 1.86 1.73 3.71 2.6 5.56l-.39.15a9.233 9.233 0 0 0-2.75-2.64 4.617 4.617 0 0 0-4-.35 5.127 5.127 0 0 0-3.47 4.21c-.35 2-.2 4.06.42 6a12.77 12.77 0 0 0 2.36 4.57 7.169 7.169 0 0 0 3.41 2.45c1.11.36 2.31.36 3.42 0 .61-.21 1.18-.51 1.7-.89s.99-.84 1.38-1.36c-.67-1.75-1.33-3.5-2-5.25-.18-.62-.47-1.2-.84-1.72-.21-.23-.49-.39-.8-.44-.48-.03-.96.06-1.4.25-.07-.17-.13-.34-.19-.51 2-.72 4-1.48 6-2.29.07.17.13.34.2.5l-.29.12c-.53.16-.91.63-.95 1.18l.1.09zm5.87 7.66c-.06-.16-.13-.33-.2-.49l.59-.24c.4-.16.75-.42 1-.77.19-.24.29-.54.26-.85-.12-.62-.33-1.22-.61-1.78-1.65-3.86-3.31-7.72-5-11.58-.23-.75-.64-1.44-1.18-2-.48-.25-1.04-.25-1.52 0l-.51.21c-.07-.16-.14-.32-.2-.49 3.73-1.54 7.42-3.24 11.05-5.11.71 1.23 1.41 2.46 2.11 3.69l-.42.21c-.4-.6-.89-1.15-1.45-1.61a2.03 2.03 0 0 0-1.19-.38c-.56.08-1.1.27-1.59.54-1.33.67-2.67 1.29-4 1.86l3.14 7c1.12-.5 2.24-1 3.35-1.55.86-.42 1.36-.85 1.5-1.29.16-.82.03-1.67-.39-2.4l.4-.2c1.02 2 2.02 4 3 6l-.42.21c-.32-.53-.7-1.02-1.13-1.46a1.59 1.59 0 0 0-1-.38c-.54.02-1.07.17-1.54.43-1.12.54-2.24 1.06-3.37 1.56.87 1.95 1.74 3.89 2.62 5.84.19.49.43.95.73 1.38.14.14.32.23.52.25.35 0 .7-.09 1-.26.91-.42 1.83-.85 2.74-1.29.68-.3 1.32-.69 1.88-1.18.37-.39.63-.88.76-1.4.24-1.02.33-2.08.25-3.13l.45-.25c.32 1.67.61 3.35.89 5a154.94 154.94 0 0 1-12.57 5.81l.05.1zm26.33-13.8c-3.38-1.41-6.68-2.93-9.89-4.53-.36.24-.66.42-.89.56l-.31.17-.35.18 2.82 4.88c.62 1.06 1.1 1.65 1.46 1.78.55.19 1.16.1 1.64-.23l.61-.36.27.45c-2.23 1.33-4.49 2.62-6.77 3.85l-.25-.47.6-.32c.6-.26 1.01-.84 1.05-1.49-.11-.72-.38-1.4-.78-2l-6.11-11c-.31-.72-.79-1.34-1.4-1.82a1.57 1.57 0 0 0-1.5.11l-.53.28-.25-.46c1.7-.92 3.4-1.87 5.07-2.86 1.06-.7 2.23-1.24 3.46-1.58.89-.18 1.81-.08 2.65.27a5.25 5.25 0 0 1 3.15 5.09 5.419 5.419 0 0 1-1.71 3.28c2 .96 4 1.88 6 2.76 1.01.5 2.11.81 3.24.91.87-.02 1.71-.26 2.46-.7l.3.43a72.98 72.98 0 0 1-4.04 2.81v.01zm-9.33-10.91a4.463 4.463 0 0 0-2.38-2c-.92-.31-1.93-.18-2.75.35-.53.34-1.02.74-1.47 1.18l4 7 .36-.2.26-.14c1.2-.6 2.11-1.65 2.53-2.93.3-1.12.1-2.31-.55-3.26zm13.67 8c-.09-.15-.2-.29-.3-.44l.54-.37c.36-.26.64-.6.82-1 .14-.28.17-.61.08-.91-.27-.58-.6-1.12-1-1.61l-7.36-10.22c-.72-1-1.25-1.56-1.58-1.67-.54-.12-1.1.02-1.52.37l-.47.33-.3-.43c3.42-2.38 6.77-4.93 10-7.65l2.87 3.14-.38.31c-.53-.5-1.13-.92-1.78-1.25-.4-.16-.85-.19-1.27-.09-.54.22-1.04.53-1.48.92-1.19.94-2.38 1.86-3.59 2.76l4.58 6.15c1-.76 2-1.53 3-2.32.61-.37 1.05-.95 1.25-1.63-.01-.84-.33-1.65-.89-2.27l.36-.29 4.29 5.22-.39.31c-.43-.45-.91-.84-1.43-1.18-.34-.16-.72-.21-1.09-.13-.54.15-1.04.42-1.46.79-1 .79-2 1.57-3.05 2.34l3.82 5.13c.29.43.62.83 1 1.19.17.11.37.15.57.13.34-.09.66-.26.92-.49.84-.64 1.66-1.28 2.49-1.93a7.54 7.54 0 0 0 1.63-1.61c.29-.47.46-1.01.49-1.56.03-1.07-.1-2.13-.4-3.16l.41-.34c.67 1.57 1.31 3.15 1.92 4.74-3.64 3.09-7.41 5.99-11.3 8.7v.02z"/><text transform="translate(335.543 276.252)" class="st3 st5 st6">U</text><text transform="translate(362.193 276.252)" class="st3 st5 st6">N</text><text transform="translate(389.033 276.252)" class="st3 st5 st6">I</text><text transform="translate(401.673 276.252)" class="st3 st5 st6">V</text><text transform="translate(425.803 276.252)" class="st3 st5 st6">E</text><text transform="translate(446.793 276.252)" class="st3 st5 st6">R</text><text transform="translate(469.553 276.252)" class="st3 st5 st6">S</text><text transform="translate(488.083 276.252)" class="st3 st5 st6">I</text><text transform="translate(500.733 276.252)" class="st3 st5 st6">D</text><text transform="translate(526.453 276.252)" class="st3 st5 st6">A</text><text transform="translate(550.703 276.252)" class="st3 st5 st6">D</text><text transform="translate(577.613 276.252)" class="st3 st5 st6">E</text><text transform="translate(607.303 276.252)" class="st3 st5 st6">D</text><text transform="translate(634.223 276.252)" class="st3 st5 st6">O</text><text transform="translate(339.863 317.952)" class="st3 st5 st6">E</text><text transform="translate(360.853 317.952)" class="st3 st5 st6">S</text><text transform="translate(379.053 317.952)" class="st3 st5 st6">T</text><text transform="translate(399.323 317.952)" class="st3 st5 st6">A</text><text transform="translate(423.573 317.952)" class="st3 st5 st6">D</text><text transform="translate(450.473 317.952)" class="st3 st5 st6">O</text><text transform="translate(487.933 317.952)" class="st3 st5 st6">D</text><text transform="translate(513.663 317.952)" class="st3 st5 st6">A</text><text transform="translate(546.103 317.952)" class="st3 st5 st6">B</text><text transform="translate(567.253 317.952)" class="st3 st5 st6">A</text><text transform="translate(591.503 317.952)" class="st3 st5 st6">H</text><text transform="translate(619.793 317.952)" class="st3 st5 st6">I</text><text transform="translate(632.433 317.952)" class="st3 st5 st6">A</text><text transform="translate(329.833 198.512)" class="st3 st5 st7">U</text><text transform="translate(423.933 198.512)" class="st3 st5 st7">N</text><text transform="translate(518.693 198.512)" class="st3 st5 st7">E</text><text transform="translate(592.813 198.512)" class="st3 st5 st7">B</text><path class="st8" d="M505.32 224.92h155.73"/><path class="st9" d="M334.23 224.92h162.11"/></svg>