<svg xmlns="http://www.w3.org/2000/svg" viewBox="0 0 3281.7 2241.4"><style>.svg-vision{fill:#924015}</style><g class="svg-vision"><path d="M117.5 1578.11c-.8-2.7-1.1-6.2-1-10.6 10.2-2.6 14.7-10.4 13.4-23.5-1.2-12.5-8.1-22-20.8-28.5-1.7-.9-3.7-1.8-6-2.7l.2 2.4c1.8 19 3.2 37.5 4.4 55.5.6 18.6.6 36.1 0 52.6-1 30.3-5.8 54.8-14.5 73.7-6.8 15.4-17.2 23.8-31.4 25.1-3.3.3-6.8.4-10.7.2-15-1.9-26.8-13.9-35.5-36.2-5.2-14.9-8.6-30.7-10.2-47.6-.8-8.2-1-16.6-.7-25.4.3-14.8 1.9-29 5.1-42.4s8-25.7 14.7-36.7c4.2-7.5 9.6-14.1 16.3-19.6 4.5-4.3 9.7-7.8 15.5-10.5l-6.6-70.9c-2.8-24.4-5.9-48.8-9.3-73.2-5.8-44.4-12.1-85.2-18.9-122.4-7.3-37.1-14.5-63.9-21.5-80.2 6.4-8.3 13.4-15.2 21.1-20.9 6.2-4.4 12-6.9 17.4-7.4 1.6-.2 3 0 4.2.4 6.8 20.2 12.4 42.2 16.9 65.9 3.8 23.2 8 44.8 12.6 64.6 1.7-5.1 5.5-17.2 11.4-36.4 5.4-18.6 13.3-36.9 23.6-54.9 6.5-12.1 14.1-22.4 22.6-30.9 8.5-9 17.9-14 28.2-15 14.6-1.9 27.7-.4 39.1 4.6s21.4 12 29.9 21c9.2 10.1 16.6 22 22.3 35.7 5.7 13.7 9.8 28.7 12.4 44.9 4.4 29.2 3.1 59.5-3.8 90.8 22.7-9.3 43.6-20.8 62.6-34.7 11.8-8.2 22.2-17.7 31.1-28.4 8.4-10.1 13.6-21.3 15.8-33.6 3.2-1.4 6.4-2.2 9.6-2.5 3.2-.8 6.8-.9 10.7-.2-2.4 15.6-8.5 29.6-18.3 42-9.8 13-21.6 24.5-35.4 34.6-25.2 18.3-52.3 32.9-81.4 43.8-7.7 23.2-18.7 42.9-33.1 59-9.4 10.8-20.7 19.5-33.7 26.2-12.6 6.1-26.5 9.6-41.8 10.5-10.4.4-18.5-4.3-24.4-14.2-5.3-9.9-3.9-21.3 4.2-34.1 3.8-6.4 10.3-13 19.5-19.9 9.2-6.9 21.8-13.3 37.7-19.2l8-2.4c4.4-17.4 7-36 7.9-55.9 1.4-37.4-1.8-72.2-9.8-104.4-7.5-32.8-17.4-48.5-29.9-47.4-10.3 1-21.1 12.1-32.2 33.5-11.7 21.9-21.5 45.9-29.5 71.9-5 16.9-8.9 33.5-11.8 49.6-2.9 16.2-3.8 29.1-2.9 38.9 1.8 19.6 5.4 45.8 10.7 78.8 3.7 27.6 7.2 56.6 10.6 87 6.7 1 12.3 3 17 5.8 16.2 9.4 24.4 23.5 24.5 42.1.6 18-6.8 30-22.1 35.8-1.5-.5-2.7-2-4-4.1zm-83.7-33.3c-4.6 9.2-8 19.7-10.2 31.4s-3.2 23.9-3.2 36.5c-.1 22.5 2.7 43.1 8.3 61.7 5.1 19.3 11.5 29.4 19.3 30.3 9 1.9 13.8-16.9 14.4-56.5.4-36.2-1.1-79.4-4.7-129.5-4.2 2-7.8 4.8-10.7 8.4-5.1 4.9-9.5 10.8-13.2 17.7zm104.8-127.4c19.4-3.5 33.4-17.7 42.1-42.6 1.3-3.4 2.4-6.8 3.2-10.2-33.5 10.8-51.9 22.7-55.1 35.6-2.6 12.9.6 18.6 9.8 17.2z"/><path d="M449.1 1307.71c5.7 25.2 14 46.7 24.9 64.3 11 17.6 24.7 26.7 41.2 27.4 25.9 1.4 52.9-5.8 81.1-21.6 28.1-15.8 52.6-38.7 73.4-68.6 11.1-16.4 20.3-34.5 27.8-54.4 8-20.5 13.6-42.4 16.9-65.7l19.6-1.8c-4.9 47.1-18.9 87.9-42 122.4s-49.4 61.1-78.9 79.8c-16.1 9.7-32.4 17-48.9 21.9-10.7 3.2-20.9 5.2-30.7 6.2-6 .6-12 .8-18 .9-28.6-1.2-53-7.1-73.2-17.8-20.1-10.2-36.5-23.5-49-39.8-9.3-11.7-16.6-24.8-21.8-39.1-5.1-13.8-8.4-28.3-9.8-43.5l-.1-.8c-2.6-27.7.6-55.4 9.5-83.1 9.4-28.3 23.4-52.1 41.8-71.4 12.5-12.7 26.9-22.8 43.2-30.4 12-6.1 24.9-9.7 38.4-11 4.9-.5 9.8-.6 14.8-.6 24.2.5 41.2 12.3 51 35.5 10.4 23.2 6 46.6-13.1 70.3-10.9 12.5-26.8 23.9-47.8 34.1-15.7 8.1-34.8 14.5-57.4 19.4.2 8.2.7 16.4 1.5 24.5.8 14.5 2.7 28.9 5.6 42.9zm72.1-126c17.9-19.8 24.3-39.6 19.1-59.4-4.6-19.9-14.6-29.6-29.9-29.3-22-.7-38.6 12.1-49.9 38.4-10.8 25.7-17 55.6-18.7 89.8.1.5-.2 1.1-.7 1.7 15.1-3.1 28.1-7.3 39.1-12.7 18-8.3 31.6-17.8 41-28.5z"/><path d="M864.2 1058.21c6.8 2.6 12.9 6.2 18.3 10.6 9.6 8.4 16.3 18.5 20.1 30.2s5.2 20.3 4.1 25.9c-2.1.7-4.8 1-8.2.8-2.8-.3-5.3-1.1-7.6-2.6 1.4-8.4-2.2-20.1-10.7-35.2-8.5-15.1-21.8-22.1-39.8-20.9-9.3.3-17.8 3-25.6 8.2-7.7 5.1-15 12.4-21.8 21.8-12.2 16.5-22 37.4-29.5 62.8s-12.5 51.1-15 77.1c-3 32.1-2 60.5 3.1 85.3 5.1 25.3 14.8 37.8 29 37.6 19.2.4 37.5-15.3 54.8-47.1 17.8-32.4 32.7-87.5 44.5-165.4 9.2-.9 18.6-.9 28-.2 9.3.2 17.1 1.4 23.4 3.6-7.6 18.8-11.4 48.2-11.5 88.3-.3 25.8-.3 52.7.2 80.6 19-19.9 37.3-40.5 55.1-61.9 24.6-29.7 39.1-62.1 43.5-97 9.2-1.4 16-2.3 20.3-2.7-4.2 37.1-19.8 72.6-46.8 106.4-23 29.6-46.8 56.8-71.3 81.5l.4 21.4c.9 44.3.6 88-.9 130.9-.9 42.9-5.8 78.4-14.7 106.7-4.7 14.7-10.7 26.5-18.1 35.4-7.4 8.4-16.3 13-26.7 14l-.8.1c-16.9 1.6-31.1-1.2-42.7-8.3-12.1-6.5-21.8-15.8-28.9-27.7-13.6-21.8-18.2-50.4-13.8-85.9 4.4-35 18.5-68.9 42.3-101.8 10.2-14.1 22-28.4 35.5-42.8l19.6-19.1c-1.1-17.4-2-33.3-2.8-47.4-1.4-20.7-2.5-32.9-3.4-36.7-1.7 5.1-6 15.4-12.7 30.8-6.8 14.9-16.3 28.4-28.3 40.5-6.5 6.6-13.7 12.2-21.5 16.8-7.3 4.5-15.5 6.9-24.8 7.3-34.3 2.1-59.5-12-75.5-42.3-10.1-19.9-16.2-41.5-18.4-64.9-1.2-12.5-1-25.7.4-39.5 2.5-26 8.9-51.6 19.1-76.6 10.8-25.1 25.8-46.6 45-64.3 12.1-11 25.8-19.7 41.2-26.1 13.1-6.2 27.3-10 42.5-11.4 2.7-.3 5.5-.2 8.2 0 8.6-.6 16.3.6 23.2 3.2zm8.5 336.4l-.2-1.6c-2.5 2.4-4.8 4.8-6.7 7.2-13 13.3-23.4 25.5-31.1 36.6-12.1 17-21.2 34.3-27.2 51.9-5.5 17-8.7 32.9-9.5 47.8-1.7 28.7 3.3 52.3 14.9 71 11.1 18.7 24.2 27.3 39.4 25.9 8.7-.8 14.7-15.6 18-44.5 3.4-28.3 5-61.1 4.8-98.3.2-15.9 0-32.1-.4-48.5-.5-16.3-1.1-32.2-2-47.5z"/><path d="M1190.8 1024.31c7.4 3.1 13.8 6.9 19.2 11.4 10.2 8.9 17.2 19.2 21 30.9 3.9 12.2 5 21.5 3.4 27.6-2.2.2-4.9.2-8.2-.1-2.8-.3-5.3-1.1-7.6-2.6 1.4-8.4-2.5-20.3-11.6-35.9-8.6-15.6-22.2-23.1-40.8-22.5-17.4 1.1-32.8 10.2-46 27.3s-23.8 38.2-31.9 63c-4.2 13.6-7.8 27.6-10.9 42.1-2.5 14.5-4.4 28.7-5.9 42.5-3.4 33.8-2.3 63.5 3.4 89.3 5.1 25.3 15.1 38.1 29.9 38.3 19.8.3 38.5-15.9 56.3-48.9 18.3-33 33.8-89.8 46.5-170.5 8.7-.8 18-.9 28-.2 9.3.2 17.4 1.4 24.2 3.5-3.2 12.9-6 26.9-8.4 41.9-2.4 15.6-4.2 31.1-5.5 46.6-2.8 28.8-2.5 54.8.7 78.1 2.7 22.8 10.4 34.7 23.1 35.7 14.9 1.3 27.9-9.2 39-31.6 11.1-22.4 19.9-47.7 26.6-75.7 3.5-15.1 6.5-30.2 8.9-45.3 2.5-14.5 4.3-27.5 5.4-39.2 9.2-1.4 16-2.3 20.3-2.7-1.1 12.2-2.7 26.3-5.1 42.4-2.9 16.2-6.5 32.7-11 49.6-7.5 31.4-18.5 60.1-33.1 86.2-12.6 23.7-28.4 36.1-47.5 37.4l-6.5.6c-8.8-.3-16.7-2.3-23.6-6s-13.1-8.4-18.6-13.9c-10.3-10-17.9-21.6-23-34.9-5.1-13.2-8.2-23.4-9.4-30.4-1.7 5.6-5.9 15.9-12.7 30.8-7.3 15.5-17.2 29.6-29.8 42.3-6.5 6.6-13.7 12.2-21.5 16.8-7.7 5.1-16.3 7.8-25.6 8.2-36 1.7-62.1-13.1-78.2-44.5-10.1-19.9-16.3-41.8-18.5-65.7-1.2-13-1.4-27-.6-41.9 2.4-26.6 9.3-52.7 20.6-78.4 11.2-26.3 26.7-48.3 46.5-66 12.1-11.5 26-20.8 41.8-27.8 13.2-5.6 27.7-9.2 43.4-10.6l9-.8c9.4-.2 17.5 1 24.3 3.6zm641.7-60.1c7.4 3.1 13.8 6.9 19.2 11.4 10.2 8.9 17.2 19.2 21 30.9 3.9 12.2 5 21.5 3.4 27.6-2.2.2-4.9.2-8.2-.1-2.8-.3-5.3-1.1-7.6-2.6 1.4-8.4-2.5-20.3-11.6-35.9-8.6-15.6-22.2-23.1-40.8-22.5-17.4 1.1-32.8 10.2-46 27.3s-23.8 38.2-31.9 63c-4.2 13.6-7.8 27.6-10.9 42.1-2.5 14.5-4.4 28.7-5.9 42.5-3.4 33.8-2.3 63.5 3.4 89.3 5.1 25.3 15.1 38.1 29.9 38.3 19.8.3 38.5-15.9 56.3-48.9 18.3-33 33.8-89.8 46.5-170.5 8.7-.8 18-.9 28-.2 9.3.2 17.4 1.4 24.2 3.5-3.2 12.9-6 26.9-8.4 41.9-2.4 15.6-4.2 31.1-5.5 46.6-2.8 28.8-2.5 54.8.7 78.1 2.7 22.8 10.4 34.7 23.1 35.7 14.9 1.3 27.9-9.2 39-31.6 11.1-22.4 19.9-47.7 26.6-75.7 3.5-15.1 6.5-30.2 8.9-45.3 2.5-14.5 4.3-27.5 5.4-39.2 9.2-1.4 16-2.3 20.3-2.7-1.1 12.2-2.7 26.3-5.1 42.4-2.9 16.2-6.5 32.7-11 49.6-7.5 31.4-18.5 60.1-33 86.2-12.6 23.7-28.4 36.1-47.5 37.4l-6.5.6c-8.8-.3-16.7-2.3-23.6-6s-13.1-8.4-18.6-13.9c-10.3-10-17.9-21.6-23-34.9-5.1-13.2-8.2-23.4-9.4-30.4-1.7 5.6-5.9 15.9-12.7 30.8-7.3 15.5-17.2 29.6-29.8 42.3-6.5 6.6-13.7 12.2-21.5 16.8-7.7 5.1-16.3 7.8-25.6 8.2-36 1.7-62.1-13.1-78.2-44.5-10.1-19.9-16.3-41.8-18.5-65.7-1.2-13-1.4-27-.6-41.9 2.4-26.6 9.3-52.7 20.6-78.4 11.2-26.3 26.7-48.3 46.5-66 12.1-11.5 26-20.8 41.8-27.8 13.2-5.6 27.7-9.2 43.4-10.6l9-.8c9.3-.2 17.4.9 24.2 3.6z"/></g><g class="svg-vision"><path d="M818 457.11c6.4 9.2 8.5 15.7 6.4 19.6-15.6 3.3-28.9 8.8-39.8 16.6-11.5 7.8-21 17.3-28.6 28.4-11.8 18.3-19.2 39.8-22.4 64.6-3.2 24.2-3.1 48.4.4 72.6 5.9 36.8 18.1 69.1 36.6 96.7 19.1 27.6 41.4 40.2 67 37.8 11.5-1.1 21.9-4.8 31.1-11.2 8.6-6.3 16.1-14.7 22.5-25.1 8-13 13.9-28 17.9-44.9-20.5-9.1-37.1-26.8-50-53.2-16.6-33.4-25.9-67.1-27.9-101.2-1.4-28 2.4-52.6 11.5-73.7s24.4-31.1 45.9-30c24.6 1.4 43.4 18.6 56.3 51.7s18.6 70.6 17 112.4c-1.2 26.5-5.5 52.6-12.9 78.4 12.7-1.8 25.3-7.9 37.8-18.2 18.2-14.6 33.5-31.9 45.7-52.1 6.9-11.1 12.3-22.3 16.1-33.7 4.4-11.4 7.1-22.1 8-32 4.9-.5 12.2-.8 21.9-1.1-1.6 22.2-10.1 46.3-25.4 72.2-15.3 25.9-33.6 46.9-54.7 63-11.4 9-23.3 15.7-35.8 19.9-7.1 2.5-14.3 4.1-21.6 4.8-6.9 18.4-16.1 34.6-27.6 48.5-9.4 11.3-20.4 20.6-33.2 27.9-13.4 7.4-28 11.8-43.8 13.3-24.3 2.3-46.4-1.2-66.2-10.3-20.5-9.1-37.9-22.2-52.4-39.2-27.4-31.1-44.8-69.9-52.3-116.4l-1.5-15.5c-3.8-40.7 2.9-77.5 20-110.3 9.9-18.7 24-35 42.3-49 17.7-13.9 39.5-23.3 65.4-28.2 10.5 1.5 19.3 7.1 26.3 16.9zm89.1 67.9c-7.1-30-15.9-45.7-26.5-47.1-11.2-2-18.1 6-20.7 24-3.3 17.5-2.8 38.2 1.2 62.4 4.6 29.6 13.4 58.5 26.5 86.7 7.8 17.6 16.3 30 25.5 37.1 3.6-20.6 5.6-41.6 6-63.1-.3-36.8-4.3-70.1-12-100z"/><path d="M1358.6 400.91c5 .8 9 1.6 12.2 2.5-34.5 63.9-65.9 127.5-94.2 190.8l40.6 100c13.6 34.3 27.5 51.6 41.6 52.2 17.2.2 31.9-12.5 44.2-38.1 12.4-25 22.5-53.6 30.6-85.6 3.9-16.9 7.3-33.5 10.1-49.6 2.7-16.8 4.7-31.4 6-43.8 4.8-1.1 12-2.4 21.7-3.9-1.9 25.3-6.6 56.7-14.2 94.1s-19.2 69.8-35 97c-8.4 14.9-18 26.8-28.8 35.8-9.6 8.3-20.5 13-32.7 14.1l-3.6.3c-11.6.5-22.9-2.1-33.8-7.9-11-6.3-21.3-14.5-30.8-24.7-14.2-14.6-27.6-32.6-40-54.1-2.9-5.2-6.2-10.4-9.7-15.6-21.1 42.4-45.1 84.8-71.7 127.1-4.3.4-8.9.2-13.8-.5-4.4-1.4-8.2-2.9-11.4-4.4 31.1-47 59-95.9 83.7-146.6l-11.8-27.4c-20.5-42.8-38.4-82.5-53.4-119.1-15.7-37.1-29-54.9-39.9-53.2-7.9.7-14.8 9-20.6 24.9-5.3 15.8-9.2 32.1-12 48.9-2.6 11.9-4.3 22.5-5.3 31.7-1.5 9.9-2.4 16.8-2.7 20.5-4.3.4-8.2 1.1-11.8 2-3 .3-6.4.3-10.1 0 .6-6.2 2.5-19.5 5.4-40 2.3-21 6.9-41.1 13.7-60.1 4.9-12.7 10.6-23.7 17.1-32.9 6.5-9.2 14.6-14.5 24.2-16.1l1.8-.2c16.4-1.5 31.4 1.7 45 9.6 14.3 8.5 27.3 20.1 39.1 34.9 12.5 15.4 24 33.6 34.5 54.7 7.6 15.2 14.8 30.8 21.8 46.7 25.4-55.7 52.7-110.9 81.9-165.7 3.7-.2 7.7.3 12.1 1.7z"/><path d="M1535.6 622.31c6.3 28.2 15.6 52.1 27.9 71.8 12.3 19.7 27.6 29.9 46.1 30.6 28.9 1.6 59.1-6.5 90.6-24.1 31.4-17.6 58.7-43.2 82-76.6 12.4-18.3 22.7-38.6 31.1-60.8 8.9-22.9 15.2-47.4 18.9-73.4l21.9-2c-5.5 52.6-21.1 98.2-46.9 136.7-25.8 38.6-55.2 68.3-88.1 89.1-18 10.9-36.2 19-54.7 24.4-11.9 3.6-23.3 5.9-34.3 6.9-6.7.6-13.4.9-20.1 1-32-1.3-59.2-7.9-81.8-19.9-22.5-11.4-40.7-26.2-54.7-44.5-10.4-13.1-18.5-27.7-24.3-43.7-5.7-15.4-9.4-31.6-11-48.6l-.1-.9c-2.9-31 .6-61.9 10.6-92.9 10.5-31.6 26.1-58.2 46.7-79.7 14-14.2 30.1-25.5 48.3-33.9 13.5-6.8 27.8-10.9 43-12.3 5.5-.5 11-.7 16.5-.6 27 .5 46 13.8 57 39.7 11.6 25.9 6.7 52.1-14.7 78.6-12.2 14-30 26.7-53.4 38.1-17.5 9-38.9 16.2-64.1 21.6.2 9.2.8 18.3 1.6 27.4.6 16.4 2.7 32.4 6 48zm80.5-140.7c20-22.1 27.1-44.2 21.4-66.3-5.1-22.2-16.3-33.1-33.4-32.7-24.6-.8-43.1 13.5-55.7 42.9-12 28.7-19 62.1-20.9 100.3.1.6-.2 1.2-.7 1.9 16.8-3.4 31.4-8.1 43.7-14.2 19.9-9.3 35.1-19.9 45.6-31.9zm300.4 38c-1.8.8-3.6 1.3-5.4 1.4-1.2.1-2.8 0-4.6-.5-4.3-.2-8.5-2-12.4-5.3-1.2-33-5-69.4-11.2-109.2-5.6-39.9-12.1-79.7-19.5-119.5l-24.7-136.4c-5.1-28.3-8.6-52.8-10.6-73.4-1-10.9-1.7-21-1.9-30.1-.8-14.6.3-26.1 3.2-34.3 2.4-7.6 6.6-11.6 12.6-12.2l.9-.1c11-.4 20.7 11.2 29 35 7.8 24.4 14.4 55.3 19.7 92.8 3.1 19.9 6 41.4 8.8 64.4 2.2 23.1 4 46.5 5.7 70.2 3.7 46.2 6.5 91.9 8.2 137.1l4.7 119c-.4.6-1.3 1-2.5 1.1zm30.3 176.3c-.9 3.8-2.4 7.6-4.4 11.4-4.3 6.5-10.1 10.1-17.4 10.8l-.9.1c-6.7.6-13-1.5-19-6.5-5.4-5-8.6-10.5-9.8-16.5l-.2-1.8c-.5-4.9 1.2-10.2 4.9-16.1 4.3-5.9 9.8-9.5 16.5-10.7l.9-.1c6.1 0 12.5 2.2 19 6.5 6 5 9.5 10.1 10.6 15.5.3 2.5.2 5-.2 7.4z"/></g><g class="svg-vision"><path d="M65.5 1870.61l1.6-.2c8.2-.8 18.4-.1 30.6 2.1 5.1 13.2 10.1 32 15.1 56.2 4.5 24.3 9.3 49.6 14.5 76 8.1 39.8 18.2 76.7 30.1 110.7 12 34 27.8 51.1 47.6 51.5 12.1.5 22.6-10.3 31.5-32.6 5.2-14.7 9.7-30.8 13.6-48.2-6.5-5.4-12.7-12.5-18.4-21.3-13.5-21.2-23.1-44.7-28.8-70.5-6.2-31.2-5.9-60.3.9-87.3 7.4-26.5 22.7-39.1 45.8-38 16.5.6 28.4 10 35.5 27.9 6.6 18 10 39.9 10.3 65.7-.3 14.3-1.4 28.9-3.3 43.9s-4.6 30-8.1 45.2c-2.3 10.1-5 19.7-8 28.7 4.6 2.3 9.1 3.5 13.5 3.7 16.1 2.3 32.1-3 47.9-16 16.3-13 29.9-28.6 40.9-46.6 6.2-9.9 11.3-20 15.3-30.2 3.4-10.2 5.6-19.7 6.4-28.6 4.3-.4 10.9-.7 19.6-1-1.4 19.9-8.7 41.4-21.9 64.6-13.7 23.2-30.1 42-49 56.4-10.2 8.1-20.9 14-32.1 17.8s-22.1 4.5-32.7 2.2c-5-.6-9.5-1.9-13.5-3.7-6.2 15.9-13 30.8-20.5 44.7-14 26-28.9 39.7-44.7 41.2l-2.4.2c-17.4 1.1-32.9-2.9-46.4-12.1-12.9-9.2-24.8-21.5-35.5-37-15.3-23.2-27.8-51.1-37.5-83.7-9.6-32.5-17.7-63.6-24.4-93.1-3.2-16.2-6.5-31.2-10-45.1-3-14-6-26-9.1-36.2 9.5-4.2 18-6.6 25.6-7.3zm194.4 81.3c-2-33.3-8.1-50.8-18.1-52.6-10.6-1.8-17.1 4.9-19.5 19.9-1.9 15-1 32.7 2.5 53.2 4.5 24.8 12.5 49 24.1 72.6 2.1 4.7 4.1 8.9 6.1 12.6-.1-.5.2-1.1.7-1.7 4.8-36.1 6.2-70.7 4.2-104z"/><path d="M411.6 1842.31c4.3-.4 8.7-.5 13.1-.4 11.6.6 20.8 2.2 27.6 4.8-1.8 28.1-2.8 55.1-3.1 80.9-.3 26.3.1 50.7 1.1 73.1 2.3 42 7.9 76 17 102 9.6 26 23.1 39 40.7 39 15.4.7 28.6-10.4 39.6-33.3 11.6-23 20.7-48.5 27.4-76.6 3.5-15.1 6.5-30.2 8.9-45.3 2.5-14.5 4.3-27.5 5.4-39.2 4.3-.4 10.8-1.3 19.5-2.6-2.1 24.3-6.9 54.9-14.4 91.8-8.1 36.9-20 67.1-35.9 90.6-7.3 10-15 18.1-23.2 24.4-7.2 5.1-15.2 8-23.8 8.8l-4.9.5c-45-.2-77.4-24.3-97.3-72.3-8.5-20.6-14.2-46.6-17.2-78.2-4.1-44-3.2-98.7 2.7-163.9 5.2-2.2 10.9-3.6 16.8-4.1zm41.5-137.2c3.8 5.1 5.9 10.7 6.5 16.7l.4 4.1c-.4 7.2-3.9 13.5-10.5 19.1-6.1 5-12.4 7.7-19 8.4l-2.4.2c-7.1.1-12.6-2.4-16.3-7.5-3.1-3.5-4.8-7.8-5.3-12.7-.2-1.6-.1-3.6.3-5.8.4-7.2 3-14.3 7.9-21.3 4.3-6.4 10.6-10 18.7-10.8l.8-.1c8-.8 14.4 2.5 18.9 9.7z"/><path d="M588.8 1925.21c.4-7.2.5-14.9.3-23.1-8.1-4.7-14.5-8.2-19.1-10.5-8.6-4.1-15.4-9-20.3-14.6-5-6.1-8.9-12.6-11.7-19.5-2.2-5.8-3.5-11.5-4.1-16.9-1-10.3.8-20.6 5.3-30.9 5.8-14.3 15.5-22 29.1-23.3l3.3-.3c4.4.1 8.6 1.4 12.7 3.7 3.5 2.4 6.6 6 9.2 10.7 3.9 6.2 7.1 13.9 9.6 23 2 9.1 3.7 18.8 5.2 29.1.6 6.5.9 12.8.9 18.8l30.8 12.7c28.7 13.2 56.6 30.1 83.7 50.6 17.7 13.7 33.1 28.7 46.2 45 13.1 16.9 20.5 34.5 22.2 53 8.8-5.2 17.3-10.9 25.5-17.2 17-12 31.6-25.7 43.9-41.1 11.7-15.4 18.5-33.5 20.4-54.6 9.2-1.4 15.9-2.6 20.2-3.5-1.7 22.6-8.3 42.7-19.9 60.3-11.6 17-25.8 32.3-42.6 45.9-14.7 12.3-30.5 23.1-47.1 32.4-.3 8.3-1.5 16.3-3.5 24.2-3.6 14-8.7 27.1-15.2 39.3-15.4 28.3-35.6 47.5-60.4 57.5-6.3 2.8-12.5 4.5-18.4 5-15.2 1.4-27.1-4.9-35.5-18.9-6.6-12-9-22.5-7.1-31.4 1.9-9.5 7.1-18.2 15.6-26.1 13.6-13.3 33.2-25.9 59-37.6l-1.1-12.2c-3.5-26-15.4-50.1-35.6-72.3-20.7-22.2-42-41-63.7-56.5l-17.5-11.5c-.1 17-.6 28.8-1.6 35.5-8.7.3-15.3.6-19.6 1 .6-5.7.9-14.2.9-25.7zm-.9-63.3c-.5-10.9-1.5-21.8-3.1-32.6-2.2-17.9-6.4-26.8-12.4-26.8-10.4.4-15.7 8.3-15.9 23.7-.7 16 8.9 27.4 28.7 34.3.7.5 1.5 1 2.7 1.4zm138 226.5c-14.1 7.4-25.8 14.5-35 21.4s-15.4 13.8-18.6 20.7c-3.7 6.9-3.3 14.3 1.2 22.1 5.2 8.8 12.7 9.5 22.4 2 9.1-8 16.7-20.2 22.9-36.7 3.6-8.7 5.9-18.5 7.1-29.5z"/><path d="M1025.2 1779.81c9.3-.3 17.4.8 24.2 3.5 7.4 3.1 13.8 6.9 19.2 11.4 10.2 8.9 17.2 19.2 21 30.9 3.9 12.2 5 21.5 3.4 27.6-2.2.2-4.9.2-8.2-.1-2.8-.3-5.3-1.1-7.6-2.6 1.4-8.4-2.5-20.3-11.6-35.9-8.6-15.6-22.2-23.1-40.8-22.5-17.4 1.1-32.8 10.2-46 27.3s-23.8 38.2-31.9 63c-4.2 13.6-7.8 27.6-10.9 42.1-2.5 14.5-4.4 28.7-5.9 42.5-3.4 33.8-2.3 63.5 3.4 89.3 5.1 25.3 15.1 38.1 29.9 38.3 19.8.3 38.5-16 56.3-48.9 18.3-33 33.8-89.8 46.5-170.5 8.7-.8 18-.9 28-.2 9.3.2 17.4 1.4 24.2 3.5-3.2 12.9-6 26.9-8.4 41.9-2.4 15.6-4.2 31.1-5.5 46.6-2.8 28.8-2.5 54.8.7 78.1 2.7 22.8 10.4 34.7 23.1 35.7 14.9 1.3 27.9-9.2 39-31.6 11.1-22.4 19.9-47.7 26.6-75.7 3.5-15.1 6.5-30.2 8.9-45.3 2.5-14.5 4.3-27.5 5.4-39.2 9.2-1.4 16-2.3 20.3-2.7-1.1 12.2-2.7 26.3-5.1 42.4-2.9 16.2-6.5 32.7-11 49.6-7.5 31.4-18.5 60.1-33.1 86.2-12.6 23.7-28.4 36.1-47.5 37.4l-6.5.6c-8.8-.3-16.7-2.3-23.6-6s-13.1-8.4-18.6-13.9c-10.3-10-17.9-21.6-23-34.9-5.1-13.3-8.2-23.4-9.4-30.4-1.7 5.6-5.9 15.9-12.7 30.8-7.3 15.5-17.2 29.6-29.8 42.3-6.5 6.6-13.7 12.2-21.5 16.8-7.7 5.1-16.3 7.8-25.6 8.2-36 1.7-62.1-13.1-78.2-44.5-10.1-19.9-16.3-41.8-18.5-65.7-1.2-13-1.4-27-.6-41.9 2.4-26.6 9.3-52.7 20.6-78.4 11.2-26.3 26.7-48.3 46.5-66 12.1-11.5 26-20.8 41.8-27.8 13.2-5.6 27.7-9.2 43.4-10.6l9.1-.7zm-63.9-102.6c-6.5 1.2-12 3.3-16.7 6.5-4.6 3.2-8.4 7.1-11.2 11.7-7.2 11.1-10.9 24.1-11.2 38.9-.1 4.4 0 8.5.3 12.3.7 7.6 2.3 12.7 4.7 15.2l6.5-.6c2.7-.3 5.1-1.3 7.1-3.1-3.1-4.1-2.5-11.8 1.9-23.2 4.5-10.8 11.6-16.4 21.5-16.8 8.8.3 17.1 4.2 24.9 11.6 7.9 8 17 15.1 27.5 21.3 5.2 3.3 11.3 6.1 18 8.2 5.6 1.7 12 2.2 19.1 1.5l4.1-.4c18.9-2.9 31-14.4 36.2-34.7 3.8-12.4 5.3-22.7 4.5-30.9-.5-4.9-1.7-8.9-3.6-12-1.6.7-4 1.2-7.3 1.5-2.7.8-4.7 2.1-6.2 3.9 2.6 4.1 1 10.3-4.8 18.5-5.2 8.7-13.8 13.6-25.8 14.8-4.3.4-8.8-.8-13.5-3.7-4.6-2.3-9-5.2-13.1-8.6-8.9-7.4-18.4-14.7-28.4-22-10.1-7.8-21.3-11.2-33.8-10l-.7.1z"/><path d="M1343.4 1761.51c5.7 8.2 7.6 14.1 5.8 17.6-14 3-25.9 7.9-35.6 14.9-10.3 7-18.8 15.5-25.6 25.4-10.5 16.3-17.2 35.6-20.1 57.8-2.9 21.7-2.8 43.3.3 64.9 5.3 33 16.2 61.8 32.8 86.6 17.1 24.7 37.1 36 59.9 33.9 10.3-1 19.6-4.3 27.9-10 7.7-5.7 14.4-13.1 20.1-22.4 7.1-11.6 12.5-25 16-40.2-18.3-8.2-33.2-24-44.8-47.6-14.9-29.9-23.2-60.1-24.9-90.6-1.3-25.1 2.2-47.1 10.3-65.9 8.1-18.9 21.8-27.8 41.1-26.9 22 1.2 38.8 16.6 50.4 46.3 11.5 29.6 16.6 63.1 15.2 100.6-1.1 23.7-4.9 47.1-11.5 70.2 11.4-1.6 22.6-7.1 33.8-16.3 16.3-13 29.9-28.6 40.9-46.6 6.2-9.9 11-20 14.4-30.1 4-10.2 6.4-19.8 7.2-28.6 4.3-.4 10.9-.7 19.6-1-1.4 19.9-9 41.4-22.7 64.6-13.7 23.2-30.1 42-49 56.4-10.2 8.1-20.9 14-32.1 17.8-6.4 2.2-12.8 3.7-19.3 4.3-6.1 16.5-14.4 31-24.7 43.4-8.4 10.1-18.3 18.4-29.7 25-12 6.6-25.1 10.6-39.2 11.9-21.7 2-41.5-1-59.3-9.3-18.3-8.2-33.9-19.9-46.9-35.1-24.5-27.9-40.1-62.6-46.8-104.2l-1.3-13.9c-3.4-36.4 2.5-69.3 17.9-98.7 8.9-16.7 21.5-31.3 37.8-43.9 15.8-12.5 35.3-20.9 58.5-25.2 9.4 1.2 17.3 6.2 23.6 14.9zm79.7 60.8c-6.4-26.8-14.3-40.9-23.7-42.2-10-1.8-16.2 5.4-18.6 21.5-2.9 15.6-2.5 34.2 1.1 55.8 4.1 26.5 12 52.3 23.7 77.6 7 15.8 14.6 26.9 22.9 33.2 3.2-18.4 5-37.2 5.4-56.4-.3-32.9-3.9-62.7-10.8-89.5zm198.1 243.8c-7.9-2-12.6-6.2-14.3-12.6-.7-1.6-1.1-3.2-1.3-4.8-.5-4.9.4-9.9 2.7-15.1 3.2-6.9 7.7-11.4 13.5-13.6l4.1-.4c4.9-.5 9.7 1 14.4 4.4 6.9 3.7 11.4 13.2 13.4 28.4l.2 1.6c1.3 14.1-.7 27.5-6.1 40.1-5.9 13.2-14.3 23.3-25.1 30.3l-4.1.4c-1.2-1-1.9-2.3-2-3.9 8.6-7.9 15.1-17.6 19.5-29 3.9-10.8 4.9-21 2.9-30.7-4.7 4.8-10.6 6.5-17.8 4.9z"/></g><g class="svg-vision"><path d="M1726 1651.81c11.4-6.7 21.2-9.6 29.5-8.4 5.6 19.7 10.4 40.1 14.3 61.2 3.9 21.7 7.7 42.2 11.4 61.4 2.9-9.1 9.4-24.6 19.3-46.3 9.3-21.7 21.4-41.1 36.2-58.3 8-9 17.1-16.7 27.2-23.4 9.5-5.9 19.7-9.1 30.4-9.5 15.7-.8 30.1 5.1 43.3 17.7 13.2 12.7 24 26.8 32.4 42.4 4.6 8.4 8.2 16.6 10.8 24.6 3.3 7.9 5.2 14.7 5.7 20.3 4.7-10.5 13.1-25.5 25.1-45 12-20.1 25.8-37.5 41.5-52.2 8.7-8.4 17.5-15.2 26.5-20.5 8.5-3.9 16.5-6.3 24-7l4.7-.4c16.4-.3 30.1 4.4 41.1 14.1s19.8 22.8 26.4 39.2c7.8 16.3 13.7 35.3 17.7 57.1 4 22.4 7 44.8 9.1 67.3 3.9 41.9 7.2 80.4 9.9 115.5s10 53.3 22.2 54.7c23.6 2.8 44.1-8.2 61.3-33.2s31-53.4 41.2-85.3c7.5-20.9 13.2-41.3 17-61.2 4.4-20 7.3-36.4 8.7-49.1l22.5-2.1c-1.7 15.3-4.9 35.8-9.4 61.5-5.2 25.7-12.5 51.7-22.1 77.8-5 13.7-11.1 26.9-18.1 39.6-7 12.7-14.5 24.1-22.4 34.3-10.8 12.4-22.9 22-36.1 29-9 4.6-18.6 7.4-28.6 8.4-5.6.5-11 .7-16 .6-15.9-1-29.4-6.7-40.4-17-11.1-11-20.3-24.6-27.5-41-7.8-16.3-14-35.3-18.6-57s-8.2-43.4-10.9-65.3c-5.1-41.2-8.9-78.4-11.4-111.6-2.5-33.2-8.5-50-18-50.4-8.3-.5-16.8 2.2-25.8 8.1-9 5.3-17.7 12.7-26.3 22.4-15.4 17.2-29.1 39.7-41 67.3-11.4 26.9-15.8 53.9-13.3 80.8 1.6 23.8 2.6 41.7 3.1 53.7l4.7 49.8c-8.4 5.2-18.2 8.3-29.4 9.4-11.3.4-21-1.8-29-6.7-.7-13.8-2-31.7-4.1-53.6-2.7-22.5-5.8-45.5-9.3-69.2-5.8-35.4-12.6-67.6-20.4-96.6-8.4-28.9-17.9-43.1-28.6-42.8-15.1.8-29.9 10.7-44.6 29.7-13.9 19.6-25.8 41.2-35.6 64.9-6.1 15.7-11 31-14.6 45.9-3.6 15.5-4.9 28.2-4 38.3 2.4 32.6 4.8 61.4 7.2 86.4s4.6 52.3 6.7 81.8c-9.2 3.4-19.6 6.9-31.2 10.5-11.7 3.6-22.2 2.7-31.5-2.7-.9-36.5-2.8-76.8-5.6-120.7-2.9-44.5-6.8-85.5-11.5-123-3.1-19.9-6.4-37.9-9.8-54s-6.9-29.3-10.4-39.7c4.9-8.4 13.1-15.8 24.4-22.5z"/><path d="M2356.2 1586.11c5-.5 10-.6 15.1-.5 13.3.6 23.9 2.5 31.8 5.5-2 32.4-3.2 63.4-3.6 93.1-.3 30.3.1 58.4 1.3 84.2 2.6 48.4 9.1 87.5 19.5 117.5 11 29.9 26.6 44.9 46.8 44.9 17.8.9 33-11.9 45.6-38.4 13.3-26.5 23.8-55.9 31.5-88.2 4-17.4 7.5-34.8 10.3-52.1 2.9-16.7 4.9-31.7 6.2-45.1 5-.5 12.5-1.5 22.4-3-2.4 28-8 63.2-16.6 105.7-9.3 42.5-23.1 77.3-41.4 104.3-8.4 11.5-17.3 20.9-26.7 28.1-8.3 5.8-17.4 9.2-27.5 10.1l-5.6.5c-51.8-.2-89.1-27.9-112-83.3-9.8-23.7-16.4-53.7-19.8-90-4.8-50.7-3.7-113.6 3.1-188.7 6.2-2.4 12.7-3.9 19.6-4.6zm47.7-157.9c4.3 5.9 6.8 12.3 7.5 19.2l.4 4.7c-.5 8.3-4.5 15.6-12.1 22-7 5.7-14.3 8.9-21.8 9.6l-2.8.3c-8.2.1-14.5-2.7-18.8-8.7-3.5-4.1-5.6-8.9-6.1-14.6-.2-1.9-.1-4.1.3-6.7.5-8.3 3.5-16.4 9.1-24.5 5-7.4 12.2-11.6 21.6-12.4l.9-.1c9.3-.8 16.6 2.9 21.8 11.2z"/><path d="M2743.4 1554.61c7.9 3.1 14.9 7.1 21 12.2 11 9.7 18.7 21.3 23.1 34.8 4.4 13.5 6 23.4 4.7 29.9-2.4.9-5.6 1.2-9.4.9-3.2-.3-6.1-1.3-8.8-3 1.6-9.6-2.5-23.1-12.3-40.5s-25.1-25.4-45.8-24.1c-10.7.4-20.5 3.5-29.4 9.4s-17.3 14.2-25.1 25.1c-14 19-25.3 43.1-33.9 72.3-8.6 29.2-14.4 58.8-17.3 88.7-3.5 36.9-2.3 69.7 3.5 98.2 5.9 29.1 17 43.5 33.4 43.3 22.1.5 43.2-17.6 63.1-54.2 20.5-37.3 37.6-100.7 51.3-190.4 10.6-1 21.4-1.1 32.2-.2 10.8.3 19.7 1.6 26.9 4.1-8.7 21.6-13.1 55.5-13.2 101.6-.4 29.7-.3 60.6.2 92.8 21.8-22.9 43-46.6 63.4-71.3 28.4-34.2 45.1-71.5 50.1-111.7 10.6-1.6 18.4-2.7 23.4-3.1-4.8 42.8-22.8 83.6-53.9 122.5-26.5 34-53.8 65.3-82.1 93.9l.4 24.6c1 51 .6 101.3-1 150.7-1.1 49.3-6.7 90.3-16.9 122.8-5.4 16.9-12.3 30.5-20.8 40.8-8.6 9.6-18.8 15-30.7 16.1l-.9.1c-19.4 1.8-35.8-1.4-49.2-9.6-14-7.5-25.1-18.2-33.3-31.9-15.6-25.1-20.9-58-15.9-98.9 5.1-40.2 21.3-79.3 48.7-117.2 11.7-16.3 25.3-32.7 40.8-49.3l22.6-22c-1.2-20.1-2.3-38.3-3.2-54.6-1.6-23.8-2.9-37.9-4-42.2-2 5.9-6.9 17.7-14.7 35.5-7.9 17.2-18.7 32.7-32.6 46.6-7.5 7.6-15.7 14.1-24.7 19.4-8.3 5.2-17.9 8-28.6 8.4-39.5 2.4-68.5-13.8-86.9-48.7-11.6-22.9-18.7-47.8-21.2-74.7-1.3-14.4-1.2-29.6.5-45.5 2.9-29.9 10.2-59.4 22-88.2 12.4-28.9 29.7-53.6 51.8-74 14-12.7 29.8-22.7 47.4-30 15.1-7.1 31.4-11.5 49-13.1 3.1-.3 6.3-.3 9.5.1 10-.8 18.9.5 26.8 3.6zm9.8 387.3l-.2-1.9c-2.9 2.8-5.5 5.6-7.7 8.3-15 15.3-26.9 29.4-35.8 42.2-13.9 19.6-24.4 39.5-31.3 59.8-6.4 19.5-10 37.9-10.9 55-2 33 3.8 60.3 17.1 81.7 12.7 21.5 27.9 31.5 45.4 29.8 10-.9 16.9-18 20.8-51.2 3.9-32.6 5.7-70.3 5.5-113.2.2-18.3 0-36.9-.5-55.8-.6-18.9-1.4-37.1-2.4-54.7z"/><path d="M2920.7 1647.81c.5-8.3.6-17.1.4-26.5-9.3-5.4-16.7-9.5-22-12.1-9.9-4.8-17.7-10.3-23.3-16.8-5.7-7-10.2-14.5-13.5-22.4-2.5-6.7-4.1-13.2-4.7-19.4-1.1-11.9.9-23.8 6.1-35.6 6.7-16.4 17.8-25.3 33.5-26.8l3.8-.4c5.1.2 9.9 1.6 14.6 4.3 4 2.8 7.6 6.9 10.6 12.3 4.5 7.2 8.1 16 11 26.4 2.2 10.5 4.2 21.7 6 33.5.7 7.5 1.1 14.7 1.1 21.7l35.5 14.7c33 15.2 65.1 34.6 96.4 58.2 20.4 15.8 38.1 33 53.2 51.8 15.1 19.4 23.6 39.8 25.6 61 10.2-6 20-12.6 29.4-19.8 19.5-13.8 36.4-29.6 50.5-47.3 13.5-17.7 21.3-38.6 23.5-62.8 10.6-1.6 18.3-3 23.3-4.1-2 26.1-9.6 49.2-22.9 69.4-13.3 19.6-29.7 37.2-49 52.9-17 14.2-35.1 26.6-54.3 37.3-.4 9.5-1.7 18.8-4 27.8-4.2 16.2-10 31.2-17.5 45.2-17.8 32.6-41 54.7-69.6 66.2-7.3 3.2-14.4 5.1-21.2 5.8-17.5 1.6-31.1-5.6-40.9-21.7-7.6-13.8-10.3-25.9-8.1-36.2 2.1-10.9 8.1-21 18-30.1 15.6-15.3 38.2-29.8 67.9-43.3l-1.3-14.1c-4.1-29.9-17.7-57.7-40.9-83.3-23.9-25.5-48.3-47.2-73.3-65.1l-20.2-13.3c-.1 19.6-.7 33.2-1.8 40.9-10.1.3-17.6.7-22.6 1.2.3-6.4.7-16.2.7-29.5zm-1.2-72.8c-.5-12.6-1.7-25.1-3.5-37.5-2.6-20.6-7.3-30.9-14.3-30.9-12 .5-18 9.6-18.3 27.3-.8 18.4 10.2 31.6 33.1 39.5.7.6 1.7 1.1 3 1.6zm158.9 260.7c-16.3 8.5-29.7 16.7-40.3 24.6-10.6 7.9-17.8 15.9-21.4 23.8-4.3 8-3.8 16.5 1.4 25.4 6 10.2 14.6 10.9 25.8 2.3 10.5-9.2 19.3-23.3 26.3-42.2 4.2-9.9 6.9-21.2 8.2-33.9z"/></g></svg>