<?xml version="1.0" standalone="no"?>
<!DOCTYPE svg PUBLIC "-//W3C//DTD SVG 20010904//EN"
 "http://www.w3.org/TR/2001/REC-SVG-20010904/DTD/svg10.dtd">
<svg version="1.0" xmlns="http://www.w3.org/2000/svg"
 width="260.000000pt" height="260.000000pt" viewBox="0 0 260.000000 260.000000"
 preserveAspectRatio="xMidYMid meet">
<metadata>
Created by potrace 1.11, written by Peter Selinger 2001-2013
</metadata>
<g transform="translate(0.000000,260.000000) scale(0.100000,-0.100000)"
fill="#000000" stroke="none">
<path d="M1630 2550 c-25 -22 -49 -40 -53 -40 -5 0 -16 -7 -24 -16 -12 -12
-14 -21 -7 -33 6 -9 20 -33 32 -53 15 -23 19 -39 12 -43 -13 -8 -4 -25 13 -25
7 0 6 4 -3 10 -9 6 -10 10 -3 10 17 0 25 -17 13 -25 -6 -4 -22 1 -37 10 -14 9
-23 12 -19 7 3 -6 2 -13 -4 -17 -5 -3 -10 0 -10 7 0 7 -7 2 -16 -11 l-17 -24
-16 22 c-16 21 -17 21 -17 2 0 -11 4 -17 8 -15 4 3 8 1 8 -4 0 -17 -13 -21
-34 -11 -18 9 -19 8 -6 -3 8 -7 16 -20 18 -28 2 -8 9 -19 15 -23 8 -6 5 -7 -6
-3 -12 4 -17 2 -14 -6 2 -7 13 -12 23 -10 15 2 16 1 4 -7 -9 -7 -19 -6 -27 1
-16 13 -17 -4 -2 -19 7 -7 2 -10 -18 -9 -24 1 -28 -3 -26 -22 2 -13 -1 -21 -7
-17 -15 9 -54 15 -46 7 4 -4 12 -8 17 -8 5 -1 14 -2 19 -3 6 0 10 -6 10 -12 0
-5 -5 -7 -12 -3 -7 4 -8 3 -4 -5 6 -8 12 -9 20 -2 7 6 16 8 19 4 10 -9 8 6 -2
25 -7 14 -4 17 17 19 14 0 21 -2 16 -5 -5 -4 -11 -14 -13 -22 -2 -8 -6 -23 -8
-32 -3 -10 0 -18 6 -18 7 0 10 4 6 9 -3 6 5 15 17 21 22 11 22 10 4 -4 -11 -9
-16 -16 -10 -16 5 0 0 -7 -10 -15 -19 -15 -19 -15 -1 -29 18 -13 18 -14 -3
-20 -19 -6 -20 -11 -11 -29 10 -21 9 -21 -5 -3 -9 10 -13 22 -11 27 3 4 0 11
-6 15 -8 4 -7 9 2 15 12 7 12 10 0 21 -10 10 -12 10 -7 1 6 -10 1 -11 -19 -3
-17 7 -24 7 -20 0 3 -6 13 -10 21 -10 8 0 13 -4 9 -9 -3 -5 -1 -12 4 -16 6 -3
8 -12 5 -19 -3 -8 0 -17 6 -21 8 -5 7 -11 -2 -23 -11 -15 -11 -15 2 -5 15 11
20 13 43 13 8 0 7 3 -3 10 -8 5 -12 11 -10 14 3 2 14 -2 24 -10 11 -8 14 -14
7 -14 -7 0 -9 -5 -5 -12 4 -7 3 -8 -4 -4 -6 4 -24 0 -40 -8 -16 -8 -31 -14
-33 -13 -2 1 -3 0 -1 -3 2 -3 11 -5 20 -5 9 0 16 -5 15 -11 -3 -15 25 -13 31
2 3 8 0 11 -8 8 -8 -3 -17 0 -22 7 -5 9 -2 10 10 6 12 -5 15 -3 10 6 -5 8 -2
7 9 -2 9 -7 17 -10 17 -6 0 5 9 0 20 -10 11 -10 20 -22 20 -28 0 -5 -9 1 -19
14 -18 23 -20 23 -27 5 -4 -10 -2 -27 5 -39 11 -17 11 -19 -4 -13 -14 5 -16 4
-7 -7 7 -8 11 -16 9 -18 -1 -2 4 2 10 10 9 10 10 18 2 27 -6 7 -9 19 -6 26 4
8 6 7 6 -4 1 -10 6 -18 12 -18 6 0 8 -9 4 -22 -6 -19 -5 -21 6 -10 17 16 26
15 26 -1 0 -9 -10 -13 -24 -11 -12 1 -23 -2 -23 -7 0 -5 4 -9 10 -9 5 0 7 -8
4 -17 -5 -15 -4 -15 4 -3 6 8 8 19 4 25 -3 5 6 2 22 -8 15 -10 34 -16 42 -13
11 4 12 2 5 -13 -6 -10 -7 -22 -3 -26 4 -5 2 -5 -5 -1 -6 3 -14 2 -18 -3 -3
-6 6 -8 22 -5 15 3 24 2 21 -2 -4 -3 -1 -13 7 -20 18 -19 31 -18 15 1 -6 8 -9
19 -5 25 4 6 1 9 -7 8 -7 -2 -13 3 -13 11 0 8 6 15 13 17 7 1 8 0 2 -3 -5 -2
-10 -9 -10 -14 0 -6 4 -7 10 -4 5 3 20 -4 32 -16 l23 -21 -25 12 c-25 12 -25
12 2 -13 15 -13 24 -28 20 -32 -4 -4 3 -3 15 4 28 14 36 14 27 -1 -5 -10 -4
-10 6 -1 14 13 46 2 63 -21 6 -7 7 -4 3 7 -4 13 2 20 21 28 14 5 23 12 20 16
-3 3 -14 2 -24 -2 -10 -5 -22 -7 -26 -6 -5 1 -6 -3 -2 -9 3 -5 1 -10 -4 -10
-6 0 -11 7 -11 15 0 8 -5 15 -11 15 -5 0 -8 -4 -5 -8 3 -5 -1 -9 -9 -9 -15 0
-19 10 -16 36 2 7 -2 10 -7 7 -12 -7 -10 20 2 31 4 4 6 1 4 -7 -2 -8 3 -14 10
-12 10 2 10 -2 2 -18 -7 -13 -7 -20 0 -20 5 0 10 4 10 8 0 5 7 9 15 9 8 0 12
-4 10 -8 -10 -16 23 -16 45 1 15 11 21 23 17 34 -4 11 -3 15 4 10 6 -3 8 -17
4 -33 -5 -21 -4 -23 6 -14 10 10 16 10 27 0 13 -10 14 -8 7 13 -7 25 -7 25 10
5 13 -16 16 -17 11 -3 -3 10 0 20 6 24 6 4 8 3 5 -3 -4 -6 -1 -16 7 -22 11 -9
18 -6 35 15 12 15 21 23 21 18 0 -5 5 -2 10 6 6 9 10 10 10 3 0 -7 -9 -17 -21
-23 -19 -11 -20 -13 -4 -30 16 -17 16 -18 -2 -16 -10 2 -24 -1 -31 -7 -10 -8
-12 -7 -10 3 2 7 -3 15 -11 18 -8 3 -11 0 -7 -7 5 -7 1 -9 -8 -5 -10 4 -16 1
-16 -7 -1 -9 -4 -8 -11 4 -6 9 -15 15 -20 11 -5 -3 1 -14 13 -24 13 -11 18
-19 12 -20 -6 0 -17 7 -24 15 -9 11 -16 12 -30 3 -13 -9 -15 -14 -6 -24 6 -6
14 -10 19 -7 4 2 7 -1 7 -8 0 -7 3 -9 7 -5 5 4 0 14 -10 21 -11 7 -14 16 -8
19 5 4 17 -4 25 -16 9 -12 16 -18 16 -13 0 5 5 4 12 -3 7 -7 16 -12 22 -12 5
0 1 7 -10 16 -19 15 -18 15 4 11 12 -3 20 -1 16 4 -3 5 -12 9 -20 9 -8 0 -12
5 -9 10 4 7 13 7 26 0 10 -6 19 -7 19 -3 0 4 7 -3 16 -15 8 -12 21 -22 27 -21
9 0 8 2 -1 6 -6 2 -9 10 -6 15 5 7 2 8 -6 3 -8 -5 -11 -3 -8 6 3 8 12 13 22
11 19 -3 20 2 5 30 -7 13 -7 18 -1 14 6 -3 13 3 17 14 3 11 13 20 21 20 8 0
12 5 9 10 -3 6 -1 10 5 10 7 0 10 -6 7 -14 -3 -7 0 -19 6 -25 9 -10 8 -16 -7
-26 -10 -8 -23 -12 -29 -8 -5 3 -4 9 4 14 7 4 17 5 21 3 4 -3 8 0 8 6 0 7 -7
9 -16 6 -10 -4 -13 -2 -9 7 4 6 -1 3 -9 -7 -11 -13 -13 -23 -6 -31 6 -7 8 -21
5 -31 -4 -12 -1 -10 6 4 7 13 18 21 26 18 8 -3 11 -1 8 4 -3 6 -2 10 3 10 16
0 22 -43 9 -59 -10 -12 -9 -13 2 -6 11 6 13 2 9 -19 -3 -14 -1 -26 3 -26 16 0
9 -28 -8 -34 -15 -6 -15 -7 1 -19 27 -20 22 -57 -20 -147 -23 -47 -47 -99 -53
-117 -11 -27 -22 -35 -70 -48 -31 -9 -65 -19 -76 -23 -11 -3 -22 -7 -25 -7 -3
-1 -17 -7 -32 -13 -29 -12 -127 -28 -143 -23 -32 9 -173 5 -196 -6 -14 -7 -36
-14 -50 -15 -22 -3 -24 0 -22 36 2 21 11 55 20 75 15 29 24 36 51 38 18 2 46
10 62 18 24 13 28 19 21 37 -4 12 -5 37 -1 55 5 21 4 33 -2 33 -7 0 -8 14 -4
38 4 20 9 51 12 67 3 17 7 36 9 43 3 7 1 11 -4 8 -10 -6 -55 41 -66 69 -4 11
-9 31 -9 45 -1 14 -7 24 -13 23 -7 -2 -35 29 -64 67 -28 38 -55 67 -60 65 -7
-5 -69 75 -69 90 0 3 -9 15 -20 27 -10 11 -26 35 -35 52 -8 17 -33 51 -54 75
-35 39 -42 43 -56 31 -9 -7 -44 -15 -78 -18 -36 -2 -65 -9 -72 -18 -5 -8 -32
-16 -60 -19 -52 -5 -66 -7 -128 -20 -41 -8 -53 -26 -61 -91 -3 -20 -10 -41
-16 -48 -5 -8 -8 -20 -4 -29 11 -29 -17 -28 -45 2 -32 34 -41 38 -41 17 0 -8
8 -17 18 -20 48 -16 90 -106 64 -140 -10 -12 -9 -49 2 -83 5 -14 3 -23 -3 -23
-14 0 -10 -20 6 -38 12 -13 91 -40 163 -57 38 -8 60 -18 60 -26 0 -5 -6 -9
-13 -9 -23 0 -57 -36 -59 -63 -1 -14 -5 -24 -9 -21 -6 3 -43 -78 -44 -96 0 -3
-4 -11 -9 -19 -6 -9 -5 -12 2 -8 6 5 8 0 5 -13 -3 -11 -10 -17 -15 -14 -6 4
-4 -4 2 -17 7 -12 15 -39 17 -58 6 -52 23 -103 41 -124 17 -19 6 -39 -25 -43
-50 -8 -104 -38 -119 -66 -19 -36 -21 -50 -28 -143 -5 -69 -21 -117 -83 -255
-41 -91 -102 -287 -104 -335 -3 -70 0 -82 36 -118 19 -19 35 -37 35 -40 0 -3
-37 -31 -81 -64 -45 -32 -91 -66 -103 -75 -20 -16 18 -17 714 -17 l735 0 -132
52 c-128 50 -133 53 -143 87 -5 19 -32 74 -60 123 -45 79 -50 93 -50 148 0 77
29 135 72 144 51 12 86 50 98 110 11 52 10 120 -2 140 -10 18 0 65 22 96 26
35 56 49 125 56 28 3 77 11 110 20 154 38 407 186 419 244 2 8 6 25 9 39 3 14
9 46 12 73 3 26 9 57 14 70 8 22 8 26 -4 87 -4 19 -9 53 -10 75 -1 22 -5 50
-9 62 -4 12 -9 30 -11 41 -5 28 -46 185 -51 197 -2 6 -13 25 -25 44 -11 18
-18 40 -15 47 3 9 0 11 -11 7 -12 -5 -15 -2 -10 10 3 9 2 19 -4 22 -5 4 -7 11
-3 16 3 5 9 7 14 4 5 -3 11 -1 15 4 3 6 -3 8 -14 6 -26 -5 -40 44 -17 61 9 6
16 15 16 19 0 4 -7 2 -16 -6 -15 -13 -20 -10 -36 21 -9 16 -83 62 -106 66 -15
3 -34 11 -42 18 -8 8 -21 11 -27 9 -7 -3 -13 0 -13 7 0 6 -4 8 -10 5 -11 -7
-69 24 -71 37 -1 4 -2 13 -3 20 0 6 -7 13 -14 16 -7 2 -10 -2 -6 -12 3 -9 1
-16 -6 -16 -6 0 -8 5 -4 11 4 7 1 10 -7 7 -8 -3 -13 -11 -11 -17 1 -7 -3 -9
-9 -6 -8 5 -8 10 0 18 16 16 14 27 -5 27 -8 0 -12 -5 -9 -11 4 -6 -2 -5 -13 2
-12 7 -18 17 -15 22 3 5 9 3 14 -4 5 -8 9 -9 9 -3 0 6 7 11 15 11 8 0 15 -4
15 -9 0 -5 5 -6 12 -2 6 4 8 3 5 -3 -4 -6 4 -9 18 -7 14 1 28 -2 31 -8 4 -6 9
-6 14 2 6 9 10 6 15 -9 4 -14 12 -20 21 -17 10 4 12 2 8 -6 -5 -7 -3 -8 7 -3
11 7 11 5 -1 -11 -14 -18 -14 -18 4 -4 16 12 18 12 11 1 -6 -10 -4 -12 6 -6
11 7 11 5 -1 -11 -14 -17 -13 -18 1 -7 9 7 19 10 22 6 4 -3 7 0 7 7 0 11 3 11
12 2 8 -8 8 -15 -3 -29 -13 -17 -13 -17 5 -3 18 13 19 13 12 0 -4 -8 0 -6 9 5
l17 20 -4 -20 c-2 -15 2 -20 19 -19 15 1 20 -3 15 -14 -3 -10 -1 -13 6 -8 6 3
15 -2 21 -11 6 -10 11 -13 11 -6 0 6 -4 15 -10 18 -5 3 -10 11 -10 17 0 7 6 6
15 -2 8 -7 15 -9 15 -4 1 5 10 -2 20 -15 11 -13 20 -20 20 -16 0 4 7 2 15 -5
13 -11 14 -10 9 4 -3 9 -10 16 -16 16 -5 0 -16 7 -25 15 -8 8 -18 13 -23 10
-4 -3 -13 2 -20 10 -10 12 -10 18 0 30 9 10 9 15 1 15 -6 0 -11 -5 -11 -11 0
-5 -5 -7 -12 -3 -7 5 -5 11 7 21 11 7 14 13 9 13 -6 0 -15 -5 -22 -12 -13 -13
-46 8 -36 24 4 6 -3 5 -14 -1 -12 -6 -24 -16 -27 -21 -3 -6 -11 -10 -17 -10
-7 0 -7 5 1 14 16 19 3 50 -15 35 -22 -18 -16 2 7 28 l22 22 -27 11 c-17 6
-24 14 -20 22 4 7 3 8 -5 4 -15 -10 4 -36 26 -36 8 0 11 -5 8 -11 -4 -6 -9 -8
-12 -5 -3 3 -14 1 -24 -5 -15 -7 -21 -6 -25 6 -5 13 -9 13 -22 3 -13 -11 -15
-10 -9 4 3 10 2 20 -4 23 -5 4 -9 3 -8 -2 3 -19 -2 -34 -10 -29 -5 3 -7 16 -4
29 4 21 4 21 -9 -2 -7 -14 -20 -27 -28 -29 -12 -4 -11 0 3 15 17 20 17 20 -5
19 -31 -3 -60 12 -52 26 4 7 2 8 -5 4 -9 -6 -9 -11 -1 -21 8 -9 8 -15 0 -20
-5 -3 -10 -2 -10 3 0 11 -30 25 -38 17 -3 -2 1 -11 8 -20 10 -12 10 -15 0 -15
-8 0 -10 -3 -7 -6 4 -4 13 -1 21 5 10 8 16 9 21 1 3 -5 -1 -10 -10 -10 -9 0
-14 -4 -11 -8 2 -4 -3 -8 -13 -8 -14 0 -17 8 -17 39 1 29 9 45 34 68 19 18 37
27 45 23 6 -4 9 -4 5 1 -4 4 -1 17 7 29 8 11 15 25 15 31 0 17 -64 85 -80 85
-9 0 -36 -18 -60 -40z m139 -207 c-10 -11 -14 -11 -20 -1 -7 11 -9 11 -9 0 0
-7 -5 -10 -10 -7 -16 10 -3 23 25 23 21 0 23 -3 14 -15z m-188 -20 c8 -10 9
-14 2 -10 -6 4 -14 3 -18 -3 -4 -6 -11 -8 -16 -4 -14 8 -39 -15 -33 -31 8 -20
-12 -27 -26 -9 -10 11 -10 18 -2 26 7 7 12 8 12 3 0 -4 9 2 20 15 11 13 20 19
20 15 0 -5 5 -4 12 3 15 15 13 15 29 -5z m239 -3 c0 -5 -7 -7 -15 -4 -8 4 -12
10 -9 15 6 11 24 2 24 -11z m55 -1 c4 -5 15 -4 28 3 20 10 21 10 9 -5 -16 -19
-8 -38 13 -30 8 3 15 0 15 -5 0 -19 -17 -22 -30 -7 -7 8 -16 12 -21 10 -4 -3
-13 3 -19 14 -6 12 -16 18 -25 15 -8 -4 -15 -2 -15 3 0 12 38 14 45 2z m-221
-17 c2 -4 -4 -8 -14 -8 -10 0 -16 4 -14 8 3 4 9 8 14 8 5 0 11 -4 14 -8z m53
-24 c-3 -8 -6 -5 -6 6 -1 11 2 17 5 13 3 -3 4 -12 1 -19z m-160 -3 c0 -8 -4
-12 -9 -9 -4 3 -8 9 -8 15 0 5 4 9 8 9 5 0 9 -7 9 -15z m143 -9 c0 -2 -7 -7
-16 -10 -8 -3 -12 -2 -9 4 6 10 25 14 25 6z m313 -16 c8 -11 16 -17 20 -14 3
3 10 -3 15 -13 9 -16 7 -19 -12 -19 -13 0 -23 5 -22 11 1 5 -2 10 -5 10 -13 0
-38 28 -33 36 9 14 22 10 37 -11z m-463 -4 c0 -2 -8 -10 -17 -17 -16 -13 -17
-12 -4 4 13 16 21 21 21 13z m-44 -56 c0 -12 -4 -16 -9 -11 -5 5 -6 14 -3 20
10 15 12 14 12 -9z m34 11 c0 -6 -4 -12 -8 -15 -5 -3 -9 1 -9 9 0 8 4 15 9 15
4 0 8 -4 8 -9z m40 5 c0 -3 -4 -8 -10 -11 -5 -3 -10 -1 -10 4 0 6 5 11 10 11
6 0 10 -2 10 -4z m-46 -92 c3 -8 2 -12 -4 -9 -6 3 -10 10 -10 16 0 14 7 11 14
-7z m-43 -31 c-12 -20 -14 -14 -5 12 4 9 9 14 11 11 3 -2 0 -13 -6 -23z m20
-56 c-10 -9 -11 -8 -5 6 3 10 9 15 12 12 3 -3 0 -11 -7 -18z m29 -7 c0 -5 -5
-10 -11 -10 -5 0 -7 5 -4 10 3 6 8 10 11 10 2 0 4 -4 4 -10z m0 -35 c0 -7 -30
-13 -34 -7 -3 4 4 9 15 9 10 1 19 0 19 -2z m76 -80 c-1 -8 -5 -17 -8 -21 -5
-4 -4 16 1 34 3 9 9 -1 7 -13z m-39 -2 c-4 -3 -1 -13 6 -22 11 -14 10 -14 -5
-2 -21 15 -23 31 -6 31 6 0 8 -3 5 -7z m363 -23 c0 -5 -5 -10 -11 -10 -5 0 -7
5 -4 10 3 6 8 10 11 10 2 0 4 -4 4 -10z m60 6 c0 -2 -7 -7 -16 -10 -8 -3 -12
-2 -9 4 6 10 25 14 25 6z m11 -33 c-6 -11 -11 -13 -11 -5 0 7 -5 10 -12 6 -7
-4 -8 -3 -4 5 4 6 12 9 17 6 5 -4 9 -1 9 6 0 7 3 10 6 6 3 -3 1 -14 -5 -24z
m-437 1 c3 -8 2 -12 -4 -9 -6 3 -10 10 -10 16 0 14 7 11 14 -7z m50 8 c2 -4
-5 -9 -17 -9 -17 -2 -19 0 -7 7 18 12 18 12 24 2z m326 -27 c0 -1 -12 -2 -26
-2 -17 0 -22 2 -13 7 10 7 39 3 39 -5z m-250 -77 c0 -5 -5 -8 -11 -6 -7 2 -13
19 -15 38 l-4 35 15 -29 c8 -15 15 -33 15 -38z m240 58 c0 -3 -4 -8 -10 -11
-5 -3 -10 -1 -10 4 0 6 5 11 10 11 6 0 10 -2 10 -4z m-130 -15 c0 -5 -7 -12
-16 -15 -14 -5 -15 -4 -4 9 14 17 20 19 20 6z m-800 -354 c0 -15 -88 -117
-100 -117 -5 0 -3 11 3 25 7 14 16 25 20 25 12 0 56 53 57 68 0 16 20 16 20
-1z m52 -36 c2 -22 0 -52 -4 -68 -4 -15 -9 -43 -10 -60 -1 -18 -4 -33 -5 -33
-2 0 -21 9 -43 20 -22 11 -49 20 -61 20 -21 0 -21 1 5 21 14 11 23 25 20 30
-7 12 27 40 38 33 4 -3 5 3 1 12 -4 11 -3 15 4 11 6 -4 16 6 22 23 14 42 28
37 33 -9z m-185 -244 c-2 -7 -9 -12 -15 -12 -17 0 -62 66 -62 89 0 18 7 14 41
-22 22 -23 39 -48 36 -55z m76 15 c-20 -14 -45 -12 -50 4 -2 6 11 10 32 10 32
-1 34 -2 18 -14z"/>
<path d="M1490 2281 c0 -5 5 -13 10 -16 6 -3 10 -2 10 4 0 5 -4 13 -10 16 -5
3 -10 2 -10 -4z"/>
<path d="M1420 2566 c0 -2 8 -10 18 -17 15 -13 16 -12 3 4 -13 16 -21 21 -21
13z"/>
<path d="M2133 2445 c0 -8 4 -12 9 -9 5 3 6 10 3 15 -9 13 -12 11 -12 -6z"/>
<path d="M1355 2440 c-3 -5 -1 -10 4 -10 6 0 11 5 11 10 0 6 -2 10 -4 10 -3 0
-8 -4 -11 -10z"/>
<path d="M1830 2397 c0 -2 6 -10 14 -16 11 -9 16 -9 22 1 4 7 4 10 -1 6 -4 -4
-14 -3 -22 3 -7 6 -13 9 -13 6z"/>
<path d="M1876 2357 c3 -10 9 -15 12 -12 3 3 0 11 -7 18 -10 9 -11 8 -5 -6z"/>
<path d="M2056 2342 c-2 -4 -1 -14 4 -22 7 -11 9 -9 7 8 -1 24 -3 26 -11 14z"/>
<path d="M1970 2338 c0 -2 9 -11 19 -20 18 -15 20 -15 26 0 3 9 3 13 -1 10 -4
-4 -15 -3 -25 3 -11 5 -19 8 -19 7z"/>
<path d="M1951 2318 c-1 -23 18 -33 32 -18 9 10 8 12 -5 7 -11 -4 -18 0 -21
11 -4 16 -5 16 -6 0z"/>
<path d="M2036 2311 c-3 -5 1 -11 9 -14 9 -4 12 -1 8 9 -6 16 -10 17 -17 5z"/>
<path d="M1824 2284 c3 -17 44 -54 61 -54 6 0 3 5 -5 10 -10 6 -11 10 -2 10 8
0 6 6 -5 18 -10 10 -20 17 -22 15 -2 -1 -10 2 -17 8 -9 7 -12 6 -10 -7z"/>
<path d="M2077 2293 c-10 -10 -8 -23 4 -23 5 0 8 4 5 9 -4 5 0 12 6 14 7 3 8
6 2 6 -6 1 -14 -2 -17 -6z"/>
<path d="M1429 2273 c15 -13 18 -22 11 -33 -8 -13 -10 -13 -10 2 0 29 -15 27
-16 -2 -1 -27 21 -49 34 -35 3 3 0 5 -7 5 -9 0 -8 6 3 22 14 20 14 24 -1 40
-9 10 -20 18 -26 18 -5 0 0 -8 12 -17z"/>
<path d="M2010 2280 c0 -5 5 -10 10 -10 6 0 10 5 10 10 0 6 -4 10 -10 10 -5 0
-10 -4 -10 -10z"/>
<path d="M2075 2229 c-11 -16 -1 -19 13 -3 7 8 8 14 3 14 -5 0 -13 -5 -16 -11z"/>
<path d="M1936 2218 c3 -5 10 -6 15 -3 13 9 11 12 -6 12 -8 0 -12 -4 -9 -9z"/>
<path d="M2131 2213 c-1 -17 16 -25 25 -12 4 7 3 9 -4 5 -5 -3 -13 0 -15 6 -4
9 -6 10 -6 1z"/>
<path d="M1391 2194 c0 -11 3 -14 6 -6 3 7 2 16 -1 19 -3 4 -6 -2 -5 -13z"/>
<path d="M2077 2156 c-4 -10 -3 -15 3 -11 6 3 10 1 10 -6 0 -7 3 -10 6 -6 3 3
2 13 -4 22 -8 16 -9 16 -15 1z"/>
<path d="M2106 2125 c-3 -8 -1 -15 3 -15 5 0 11 7 15 15 3 8 1 15 -3 15 -5 0
-11 -7 -15 -15z"/>
<path d="M1379 2117 c8 -10 20 -16 26 -13 7 2 17 0 23 -6 8 -8 9 -5 5 11 -4
17 -8 19 -19 10 -11 -9 -18 -8 -31 2 -16 13 -17 12 -4 -4z"/>
<path d="M1430 2060 c0 -5 5 -10 11 -10 5 0 7 5 4 10 -3 6 -8 10 -11 10 -2 0
-4 -4 -4 -10z"/>
<path d="M2125 2060 c3 -5 8 -10 11 -10 2 0 4 5 4 10 0 6 -5 10 -11 10 -5 0
-7 -4 -4 -10z"/>
<path d="M1386 1998 c3 -5 10 -6 15 -3 13 9 11 12 -6 12 -8 0 -12 -4 -9 -9z"/>
<path d="M1390 1920 c0 -5 5 -10 11 -10 5 0 7 5 4 10 -3 6 -8 10 -11 10 -2 0
-4 -4 -4 -10z"/>
<path d="M1438 1913 c7 -3 16 -2 19 1 4 3 -2 6 -13 5 -11 0 -14 -3 -6 -6z"/>
<path d="M1527 1826 c-4 -11 -1 -13 11 -9 15 6 16 5 2 -12 -14 -17 -14 -17 7
-4 12 7 21 14 20 14 -1 0 -9 6 -18 13 -14 10 -18 10 -22 -2z"/>
<path d="M1473 1815 c-3 -9 -3 -18 -1 -21 3 -3 8 4 11 16 6 23 -1 27 -10 5z"/>
<path d="M2265 1799 c-3 -4 2 -6 10 -5 21 3 28 13 10 13 -9 0 -18 -4 -20 -8z"/>
<path d="M1926 1782 c-3 -5 1 -9 9 -9 8 0 12 4 9 9 -3 4 -7 8 -9 8 -2 0 -6 -4
-9 -8z"/>
<path d="M2400 1780 c-9 -6 -10 -10 -3 -10 6 0 15 5 18 10 8 12 4 12 -15 0z"/>
<path d="M1560 1760 c8 -5 20 -10 25 -10 6 0 3 5 -5 10 -8 5 -19 10 -25 10 -5
0 -3 -5 5 -10z"/>
<path d="M1716 1714 c-5 -13 -4 -14 7 -6 8 7 18 8 22 4 5 -4 5 -1 1 6 -10 17
-23 15 -30 -4z"/>
</g>
</svg>
