<?xml version="1.0" encoding="utf-8"?>
<!-- Generator: Adobe Illustrator 23.0.1, SVG Export Plug-In . SVG Version: 6.00 Build 0)  -->
<svg version="1.1" xmlns="http://www.w3.org/2000/svg" xmlns:xlink="http://www.w3.org/1999/xlink" x="0px" y="0px"
	 viewBox="0 0 1122 833.8" style="enable-background:new 0 0 1122 833.8;" xml:space="preserve">
<style type="text/css">
	.st0{fill:#700022;}
</style>
<g id="BG">
</g>
<g id="Objects">
	<path class="st0" d="M1096.1,68.7C1074.2,33.2,1024.9-4,956.4,0.4C800.6,10.3,730,125.4,680.3,200.9
		c-36.2,54.9-63.5,111.6-82.2,169.5c-19.3-59.9-47.1-118.9-83.2-175.8C460.7,108.9,365-7.8,181.7,29.2
		c-374.6,75.6-76.3,352,65.1,468.4c112.4,92.5,233.7,182,312.3,287.7c6.6,8.8,68.9-7.6,97.7-23.4c-18.5,21-37.1,41.9-55.8,62.9
		c-12.7,14.3,20.7,8,31.9,5.5c22.8-5,60.7-16.3,73.1-30.2c83-93.2,166-186.5,239.2-282.7c72.6-95.5,147.6-197.8,170.9-303
		C1126.8,166,1124.5,114.7,1096.1,68.7z M908.5,30.9c-3,1-5.7,2-8.1,2.9C903.5,31.9,906.2,30.8,908.5,30.9z M870.7,499.4
		c-59.9,84.3-128.9,165.9-200,246.8c-0.1-0.1-0.1-0.2-0.1-0.3C550.7,584.7,330.5,463,197.2,306.8c-54.9-64.3-125.4-159.7-64.9-231.2
		c32-37.8,149.7,22.5,175.4,42.5c47.1,36.8,75.8,82.9,102.3,126.3c33.5,54.7,59.5,111.1,77.7,168.5c15.4,48.5,22.1,100.4,80.5,137.8
		c18.3,11.7,111.5-21.7,111.8-36.2c2.5-115.2,37.5-229.3,105.9-336.7c17-26.8,36-53.1,57-78.8c5.3-6.5,27-37,45.2-54.9
		c2,1.1,6,2,12.4,2.4c11.5,2.7,21.9,6.7,31.1,11.9c15,7.9,27.3,17.9,37.2,28.4c22.1,23.4,32.9,51.5,38.1,78.1
		C1028.9,278.6,943.2,397.5,870.7,499.4z"/>
</g>
</svg>
