<?xml version="1.0" encoding="utf-8"?>
<!-- Generator: Adobe Illustrator 23.0.2, SVG Export Plug-In . SVG Version: 6.00 Build 0)  -->
<svg version="1.1" id="Layer_1" xmlns="http://www.w3.org/2000/svg" xmlns:xlink="http://www.w3.org/1999/xlink" x="0px" y="0px"
	 viewBox="0 0 3670.8 568.4" style="enable-background:new 0 0 3670.8 568.4;" xml:space="preserve">
<style type="text/css">
	.st0{enable-background:new    ;}
</style>
<g class="st0">
	<path d="M0,87.3C33.1,62.7,70.6,52,104.8,52c69.5,0,128.3,41.7,128.3,92c0,34.8-23.5,84.5-100,107.5c38,7.5,80.2,21.4,104.3,49.7
		c6.9,10.2,10.2,23,10.2,35.8c0,27.8-15,59.3-37.4,75.4c-41.7,28.9-114.4,54.5-152.9,59.9c-10.2,0-32.6-7.5-38-16.6
		C5.4,434.3,7,398.5,6.5,373.9L0,87.3z M187.7,137.6v-3.7c-2.7-28.3-35.8-41.2-67.4-41.2c-4.3,0-63.6,4.8-70.6,13.9
		c-1.1,1.1-2.7,11.2-2.7,142.7C103.2,249.3,187.7,190.5,187.7,137.6z M51.9,307.6c0.5,11.2,3.7,104.8,3.7,116
		c0.5,4.3-1.1,10.7,4.8,10.7c57.2-12.3,134.2-32.6,143.3-96.8c0-39.6-62.6-50.8-97.8-50.8c-18.7,0-36.4,3.2-54,9.6V307.6z"/>
	<path d="M279.1,348.7c0-52.4,25.1-112.3,67.9-129.9c13.9-5.3,28.9-8.6,43.8-8.6c36.9,0,72.7,17.6,87.7,56.1c6.4,16,9.6,34.8,9.6,54
		c0,55.1-26.2,113.3-73.8,132.6c-11.2,4.3-22.5,6.4-33.7,6.4c-39,0-77.5-24.6-93.6-64.7C281.8,381.3,279.1,365.3,279.1,348.7z
		 M379.6,421.4c42.8,0,65.2-52.9,65.2-95.2c0-2.7-0.5-5.3-0.5-8c-3.7-48.7-26.7-68.4-51.9-68.4c-34.2,0-72.7,36.9-72.7,89.3
		C319.7,372.8,336.8,421.4,379.6,421.4z"/>
	<path d="M528.2,196.9c31.5,0,26.2,36.9,31,60.4l8-7c19.8-17.1,39-34.2,80.2-41.2c4.8-1.1,10.2-1.1,15-1.1
		c38.5,0,64.7,26.2,64.7,67.4c0,15-3.2,30.5-20.3,30.5c-34.2,0-2.1-60.9-50.8-60.9c-38.5,0-70.6,43.3-91.4,72.7
		c-2.1,2.1-2.1,4.8-2.1,8c0,27.3,5.3,56.7,10.2,83.4c0,1.6,3.2,14.4,3.7,16c-7,18.2-13.4,20.3-21.4,20.3s-14.4-3.2-18.2-12.3
		c-13.9-29.9-15-104.8-17.1-139.5l-5.9-80.7v-6.4C513.8,196.9,520.2,196.9,528.2,196.9z"/>
	<path d="M846.9,418.8c-44.9,0-101-16-101-67.9c0-108.5,105.9-141.1,152.9-141.1c4.8,0,8.6,0.5,25.7,1.1c3.7,0,5.9-18.2,20.8-18.2
		c25.1,0,25.7,19.8,25.7,41.7c0,28.3-3.7,166.8-4.3,194.6c0,9.1-5.3,19.2-16.6,19.2c-27.8,0-25.7-39.6-33.7-39.6
		C898.2,414,872.5,418.8,846.9,418.8z M848.5,385.1c24.1,0,48.7-8.6,72.2-20.9c1.1-11.2,3.7-62.6,3.7-118.7
		c-7-3.7-12.8-4.3-20.9-4.3c-44.4,0-117.6,48.1-117.6,96.2C785.9,366.4,814.3,385.1,848.5,385.1z"/>
	<path d="M1209.3,233.8c1.1-7.5,5.9-11.2,12.8-11.2c32.6,0,35.8,22.5,48.1,46c4.3,9.6,26.7,53.5,39,53.5
		c49.7,0,78.6-73.8,122.4-88.2c36.4,0,32.6,32.1,35.8,55.1c0,17.1,23.5,96.8,23.5,120.3v2.7c0,0,1.1,2.7,1.1,4.3
		c0,14.4-9.1,18.2-23.5,18.2c-11.8,0-18.7-10.7-22.5-20.8c-4.3-42.8-8-62-19.8-109.6c0-2.1-1.6-8.6-5.3-8.6c0,0-1.1,0.5-1.6,0.5
		c-28.9,28.9-59.9,66.3-106.9,66.3c-32.1,0-50.8-25.1-66.3-50.3c-1.1,5.3-2.1,29.9-15.5,139.5c0,8-2.7,17.6-14.4,17.6
		c-30.5,0-31.5-8.6-31.5-32.1L1209.3,233.8z"/>
	<path d="M1633.3,194.8c16,0,95.7,8,95.7,113.9c0,9.6-10.7,16-18.2,16.6c-46.5,8-93,14.4-139,21.4c-2.1,0.5-8.6,1.6-8.6,1.6
		s-0.5,2.1-0.5,2.7c0,36.4,21.9,65.2,57.2,65.2c20.9,0,35.3-5.9,52.4-18.7c9.6-7,20.3-18.7,33.7-18.7c10.7,0,25.7,5.9,25.7,20.3
		c0,23.5-74.8,55.6-87.7,55.6c-0.5,0-15,0.5-20.3,0.5c-71.1,0-103.2-54.5-103.2-122.4C1520.5,261.1,1566.5,194.8,1633.3,194.8z
		 M1569.7,303.8v4.3l120.8-20.8c0-28.3-23-59.3-52.9-59.3C1597.5,227.9,1569.7,265.9,1569.7,303.8z"/>
	<path d="M1788.9,401.1c0-32.1-3.2-210.1-3.2-237.9c-16,0-32.6,3.7-50.3,3.7c-9.6,0-28.3-4.8-28.3-16.6c0-15,11.8-14.4,22.5-16.6
		l58.8-8c-0.5-22.5-1.1-50.3-1.1-73.8c0-15,0.5-30.5,1.1-46c3.7-5.9,12.8-5.9,19.8-5.9c9.1,0,18.7,5.3,21.4,13.9
		c1.6,23.5,0.5,98.9,1.6,106.4l62,1.6c9.1,0.5,27.8,6.4,27.8,16.6c0,14.4-22.5,15-33.7,15c-15,1.1-48.7,2.1-56.1,4.8V440
		c-3.2,8-11.2,12.3-19.8,12.3c-6.4,0-14.4-0.5-18.2-5.9C1789.4,431.6,1788.9,416.1,1788.9,401.1z"/>
	<path d="M1986.7,194.8c16,0,95.7,8,95.7,113.9c0,9.6-10.7,16-18.2,16.6c-46.5,8-93,14.4-139,21.4c-2.1,0.5-8.6,1.6-8.6,1.6
		s-0.5,2.1-0.5,2.7c0,36.4,21.9,65.2,57.2,65.2c20.9,0,35.3-5.9,52.4-18.7c9.6-7,20.3-18.7,33.7-18.7c10.7,0,25.7,5.9,25.7,20.3
		c0,23.5-74.8,55.6-87.7,55.6c-0.5,0-15,0.5-20.3,0.5c-71.1,0-103.2-54.5-103.2-122.4C1873.9,261.1,1919.9,194.8,1986.7,194.8z
		 M1907,157.9c18.7-20.9,35.3-41.7,54.5-63.1l3.2-3.2c5.9-6.4,9.6-9.6,18.2-9.6h3.2c28.3,18.2,48.1,54.5,65.8,82.3
		c0,1.1,0,2.1,0.5,3.2c0,5.3-4.3,7.5-9.1,7.5c-2.1,0-4.3-0.5-6.4-1.1c-16.6-2.1-21.4-22.5-41.2-48.1c-2.7-3.7-9.6-12.3-12.3-12.8
		c-0.5,0-8,8.6-59.3,61.5c-7.5-1.1-17.1-3.2-17.6-12.3C1907,161.1,1907,157.9,1907,157.9z M1923.1,303.8v4.3l120.8-20.8
		c0-28.3-23-59.3-52.9-59.3C1950.9,227.9,1923.1,265.9,1923.1,303.8z"/>
	<path d="M2381.2,437.5c-45.4,0-82.3-29.9-82.3-76.5c0-69.5,74.8-135.8,144.3-135.8c7.5,0,14.4,0.5,21.4,2.1
		c0-12.3,1.6-70.6,1.6-82.9c0.5-12.3-1.6-34.8,11.2-44.4c0.5,0,6.4-0.5,7-0.5c12.3,0,20.9,6.9,26.7,17.6c0,6.4,0.5,35.8,0.5,42.2
		c0,44.9-2.7,90.4-2.7,135.8c0,5.3,0.5,20.9,0.5,21.4l11.8,120.8c2.1,5.9,2.7,9.1,2.7,13.9c0,13.9-15,16.6-26.2,16.6
		c-28.3,0-17.1-52.4-26.2-52.4c-0.5,0-1.1,0.5-1.6,0.5C2442.2,428.4,2412.8,437.5,2381.2,437.5z M2382.3,399.5
		c31.5,0,56.1-13.4,86.6-19.2v-10.7c0-35.3-5.3-73.8-6.4-108c-0.5-2.1-4.3-2.7-6.4-2.7c-1.6,0-2.1,0-2.1,0
		c-49.2,0-111.2,57.2-111.2,106.4C2342.7,390.4,2358.8,399.5,2382.3,399.5z"/>
	<path d="M2654.4,418.8c-44.9,0-101-16-101-67.9c0-108.5,105.9-141.1,152.9-141.1c4.8,0,8.6,0.5,25.7,1.1c3.7,0,5.9-18.2,20.8-18.2
		c25.1,0,25.7,19.8,25.7,41.7c0,28.3-3.7,166.8-4.3,194.6c0,9.1-5.3,19.2-16.6,19.2c-27.8,0-25.7-39.6-33.7-39.6
		C2705.8,414,2680.1,418.8,2654.4,418.8z M2656,385.1c24.1,0,48.7-8.6,72.2-20.9c1.1-11.2,3.7-62.6,3.7-118.7
		c-7-3.7-12.8-4.3-20.9-4.3c-44.4,0-117.6,48.1-117.6,96.2C2593.5,366.4,2621.8,385.1,2656,385.1z"/>
	<path d="M2831.9,408.1c0-42.8,5.9-82.3,10.7-125.1v-5.9v-16c0-15,1.6-30.5,16.6-30.5c27.8,0,28.3,25.1,28.3,47v8.6
		c25.7-16.6,72.2-58.8,106.4-58.8c54.5,0,58.3,86.6,60.9,126.2c1.1,18.2,6.4,37.4,6.4,55.6c0,11.8-9.6,19.8-20.9,19.8
		c-5.3,0-16-4.3-19.8-8.6c-13.4-16-8.6-151.8-30.5-151.8c-16,0-107.5,49.2-109.6,74.3s-4.3,56.7-4.3,81.3c0,13.9,0.5,15,0.5,16
		c0,11.2-13.9,13.9-23,13.9s-21.9-11.2-21.9-21.4v-24.6H2831.9z"/>
	<path d="M3144.1,520.4c10.7,0,14.4,8,21.9,15c9.1,7,19.2,10.7,29.4,10.7c19.8,0,37.4-13.9,39-39.6c0-9.1-4.3-29.4-15.5-29.4
		c-6.4,3.2-12.8,4.8-19.8,4.8c-18.7,0-36.9-12.3-36.9-35.3v-3.7l1.6-10.2c-40.1-11.2-71.6-41.7-71.6-98.4
		c0-71.6,71.1-147.6,134.7-147.6c9.1,0,47.6,3.2,47.6,22.5c0,14.4-5.9,17.6-14.4,17.6c-5.9,0-13.4-1.6-21.4-1.6
		c-56.1,0-104.3,42.2-104.3,108.5v8.6c2.7,43.3,28.9,56.1,59.3,56.1c41.2,0,90.4-23,97.8-23c5.3,0,8.6,4.3,8.6,10.7
		c0,10.7,0,17.1-8.6,23.5c-21.9,17.1-55.6,27.8-88.7,27.8h-10.2c-0.5,3.7-1.1,7.5-1.1,10.7s0,9.1,4.8,9.1h2.1
		c5.3-1.6,12.8-4.3,19.8-4.3c27.3,0,44.4,27.8,44.4,55.1c0,10.2-2.1,20.3-7.5,28.9c-13.4,21.4-36.4,31.5-59.9,31.5
		c-27.3,0-54.5-13.9-64.2-40.1C3131.3,523.6,3140.4,520.4,3144.1,520.4z"/>
	<path d="M3436.1,418.8c-44.9,0-101-16-101-67.9c0-108.5,105.9-141.1,152.9-141.1c4.8,0,8.6,0.5,25.7,1.1c3.7,0,5.9-18.2,20.8-18.2
		c25.1,0,25.7,19.8,25.7,41.7c0,28.3-3.7,166.8-4.3,194.6c0,9.1-5.3,19.2-16.6,19.2c-27.8,0-25.7-39.6-33.7-39.6
		C3487.4,414,3461.7,418.8,3436.1,418.8z M3437.7,385.1c24.1,0,48.7-8.6,72.2-20.9c1.1-11.2,3.7-62.6,3.7-118.7
		c-7-3.7-12.8-4.3-20.9-4.3c-44.4,0-117.6,48.1-117.6,96.2C3375.1,366.4,3403.4,385.1,3437.7,385.1z"/>
	<path d="M3613.5,426.8c0-10.7,11.8-11.2,19.8-11.2c7,0,19.8,9.1,19.8,18.2c0,9.6-11.8,15-18.7,15c-10.7,0-19.8-6.9-20.8-19.2v-2.8
		H3613.5z M3638.7,62.7c2.1-5.9,2.7-9.1,8-9.1c12.8,0,24.1,10.2,24.1,24.6c0,27.8-5.3,56.7-8,83.9c0,3.7-2.7,34.8-3.2,43.8
		c-2.7,38.5-1.6,77.5-4.8,114.9c-1.1,10.7-10.7,15-19.2,15c-13.4,0-14.4-17.1-14.4-28.3C3621,226.3,3629,142.9,3638.7,62.7z"/>
</g>
</svg>
