<svg version="1.1" xmlns="http://www.w3.org/2000/svg" xmlns:xlink="http://www.w3.org/1999/xlink" x="0px" y="0px"
	 viewBox="0 0 1321.4 1152.7" style="enable-background:new 0 0 1321.4 1152.7;" xml:space="preserve">
<style type="text/css">
	.little-problem{ fill: #ef9645 }
</style>
<g id="Objects">
	<g class="little-problem">
		<path d="M44.9,30.3c2.2-1.9,6.9-2.6,13.9-2.2c7,0.5,12.1,1.8,15.1,4.1l6,3.8c5,6.7,7.8,10.1,8.4,10.1
			c6.6,10.2,10.3,23.7,11.3,40.3c1,7,1.1,13.4,0.5,19.2c0,1.9-0.3,6.1-1,12.5l-2.4,11l-2.9,8.2c-1,0.3-1.5,0.5-1.7,0.5
			c-5.9,1.9-10.5,2.2-13.7,0.7c-3.2-1.4-6-4.9-8.4-10.3c-0.5-1.9-0.7-3.7-0.7-5.3c0.2-1.6,0.4-3,0.7-4.3l1.2-7.7
			c2.1-10.2,1.9-18.9-0.5-25.9c0-1-0.8-2.7-2.4-5.3c-1.6-2.6-2.8-4.5-3.7-5.8c-0.9-1.3-2.4-1.4-4.7-0.5c-3.8,3.2-7.1,13-9.8,29.3
			c-3.2,8.3-5.4,19.2-6.7,32.6c-1.9,24-2.9,37.6-2.9,40.8l-0.2,10.6v4.3c-0.3,0.6-0.2,14.6,0.5,41.8c0.2,1.6,0.5,3.8,1,6.7
			c0.5,3.5,1.2,9.3,2.2,17.3l3.1,10.6c0.8,1,1.8,3.8,3.1,8.6c0.8,0,1.4,1.1,1.9,3.4c1.1,2.2,1.6,3.5,1.4,3.8c0.8,0.3,2,1.3,3.6,2.9
			c4.3,4.5,8.1,3.5,11.3-2.9c1.1-2.2,2.5-5.4,4.2-9.4c1.7-4,3-7.2,3.8-9.6c0.9-2.4,2.3-4.7,4.2-7c5.3-8,9.8-7.7,13.7,1
			c0.8,2.6,0.9,8.7,0.4,18.5c-0.6,9.8-2.8,19.9-6.8,30.5c-0.3,1.9-1.4,5-3.1,9.4c-1.8,4.3-3.6,7.8-5.5,10.3
			c-0.3,2.2-6.4,3.8-18.2,4.8c-0.6,0-1.9-0.3-3.8-1c-1.8,1-4.1,0.5-7.1-1.4c-3-1.9-4.6-2.9-4.9-2.9L42,325c-1.3,0-2.6-0.8-3.8-2.4
			c-1.3-1.6-3.4-4.4-6.4-8.4c-3-4-5.2-7.3-6.8-9.8c-4.8-7.7-8.2-16.5-10.3-26.4c-0.6-2.2-1-5.4-1.2-9.4c-0.2-4-0.5-7-1-8.9
			c-1.3-2.6-1.9-6.7-1.8-12.5c0.1-5.8-0.1-12.8-0.6-21.1c0-3.8,0.1-6.1,0.2-6.7c-0.8-1.6-1.1-4.4-1-8.4c0.2-4,0.2-9.5,0.2-16.6
			c0.5-1.9,0.7-7.6,0.6-17c-0.1-9.4,0-16.6,0.4-21.4c-0.6-2.9-0.7-7-0.2-12.5l0.2-14.4c0.2-5.8,0.9-11.8,2.2-18.2
			c0.2-2.9,0.5-6.3,1-10.3c0.5-4,2.6-12.1,6.2-24.2c0-2.6,1.2-5.8,3.6-9.6c0-1.3,0.6-3.2,1.9-5.8c1.3-2.6,2.7-5.8,4.3-9.6
			c2.2-5.4,4.7-9.4,7.4-12C39.9,36.9,42.5,33.8,44.9,30.3z"/>
		<path d="M122.4,251.6c0.3-1,0.4-3.4,0.2-7.2c-1-12.2-1.1-20.3-0.5-24.5c-0.6-17.6-0.8-28-0.6-31.2c0.2-3.2,0.7-5,1.3-5.3
			c-0.6-1.9-1.2-9.2-1.8-21.8c-0.6-12.6-0.7-21-0.4-25.2c-0.8-7-0.6-12.8,0.5-17.3c-0.3-0.6-0.6-3.2-0.7-7.7V88.9
			c0.3-8.3,0.5-12.6,0.5-13V65.4l1.4-15.4c-0.5-1.9-0.1-5,1.2-9.1c-1.8-7-0.1-15.7,5-25.9c0.2-0.6,2-2.7,5.5-6.2
			c2.9-0.3,4.8-0.3,5.9,0c1,0.3,2.6,0.6,4.8,1c2.2,0.3,3.7,0.8,4.7,1.4c3,1.9,4.6,7.2,4.6,15.8v8.6c0.3,11.5,0.5,20.3,0.5,26.4v11
			c0,4.5-0.2,7-0.5,7.7c0.2,1.3,0.2,4.3,0,9.1v8.6c-0.5,10.2-0.6,16.2-0.5,17.8l-1.7,25c1.1,1.6,2.7,2.4,4.8,2.4
			c1.9-0.6,7.4-0.8,16.3-0.5l13.2-1h3.1c3,0,5.1-0.8,6.2-2.4c0-7.4,0.4-16.2,1.2-26.4c1-1.6,1.2-8.6,0.7-21.1c0-1.3,0.3-3.8,1-7.7
			c0-4.8,0.3-10.1,1-15.8c0-6.7,0.5-12.5,1.6-17.3c1-4.8,1.8-8.8,2.3-12c0.6-5.4,2.5-10.1,5.5-13.9c4.3-6.4,8.2-10.2,11.5-11.5h4.3
			c4.3,1.6,5.8,10.1,4.3,25.4c0,5.1-0.6,11.5-1.9,19.2c-1.4,15.7-2.2,25.8-2.2,30.2c0,5.1-0.6,13.6-1.9,25.4
			c0.3,6.7,0.4,11,0.1,12.7c-0.2,1.8-0.4,4.2-0.4,7.4c-0.3,7-0.5,12-0.5,14.9c-0.3,9.6-0.5,17.4-0.5,23.5c0,6.1-0.2,12.6-0.7,19.7
			c0,7-0.6,14.1-1.7,21.1l-0.7,32.2c0,2.6,0.6,19.5,1.7,50.9c1,2.2,1.3,6.2,1,12c-0.3,5.8-0.9,9.8-1.7,12c-0.8,2.2-1.6,3.5-2.5,3.8
			c-0.9,0.3-2.2,0.5-4,0.5c-3.5,4.5-6.5,6.2-8.9,5.3c-1.8,0-4-1.6-6.7-4.8c-2.7-3.2-4.6-7.4-5.5-12.5c0-2.6-0.2-5.4-0.6-8.6
			c-0.4-3.2-0.4-6.7-0.1-10.6c0.3-3.8,0.4-7.9,0.4-12.2c-0.1-4.3-0.1-9.4-0.1-15.1l0.2-5.8c-0.3-1.3-0.2-3.4,0.5-6.5
			c0.6-3,0.7-5.4,0.2-7v-13.4l1.2-25.4c-1.6-2.6-1.7-8-0.2-16.3l0.5-3.8c-1.9,1-3.7,1.4-5.3,1.4c-4.5,2.2-9.4,3.4-14.9,3.4l-21.6-1
			c0,2.6,0.1,4.2,0.2,4.8c-0.3,5.1-0.4,13.1-0.2,24v9.6c0.2,8.6,0.2,20.8,0.2,36.5c0.6,17.9,1,30.4,1,37.4l-0.2,3.4
			c0,2.9-0.2,5.3-0.5,7.2c0,6.4-0.8,10.7-2.3,13c-1.5,2.2-4,3.7-7.3,4.3c-3.4,0.6-6.4-1.1-9.1-5.3c-3.7-3.8-5.8-7.5-6.2-11
			c0-2.2-0.4-5.4-1.2-9.6c-0.8-2.6-1.4-5.8-1.7-9.6c0-10.6-0.1-16.5-0.2-17.8c-0.5-1.3-0.7-3.7-0.7-7.2
			C123.8,267.6,123.4,260.9,122.4,251.6z"/>
		<path d="M252.2,208.4l1.4-21.1c0-4.2,0.3-8.3,1-12.5c0-5.4,1.4-13.6,4.1-24.5c0-0.6,0.7-4.8,2.2-12.5c0-0.6,1.5-10.1,4.6-28.3
			l2.9-13.9c0-1.3,0.4-3.8,1.2-7.4c0.8-3.7,1.4-7.4,1.8-11c0.4-3.7,0.9-7.3,1.6-10.8c2.2-8.6,4.2-16,6-22.1
			c3.4-12.8,9.6-18.6,18.7-17.3l7.7,1.4c4.8,2.6,8.5,5.3,11,8.2c3.7,2.9,6.2,6,7.4,9.4c1.3,3.4,1.8,8.9,1.7,16.6
			c0.2,3.8,0.6,20.5,1.4,49.9c0.8,29.4,1.2,44.3,1.2,44.6l1.2,20.6c0,1.9,1.8,25,5.3,69.1l5.3,33.6c3.2,17.9,4.9,27.3,5.2,28.1
			c0.2,0.8,0.9,4.2,2,10.3c1.8,10.6,0.2,17.6-4.6,21.1c-4.3,1.3-7.5,0.5-9.6-2.4c-0.8,0-2.6-1.4-5.5-4.3c-0.3-1.6-1.2-3.1-2.8-4.6
			c-1.5-1.4-2.5-2.6-3-3.6c-1.8-1-3.4-5.9-4.8-14.9c-0.5-0.6-1.4-3.2-2.6-7.7c-1.1-4.5-1.4-8.2-1-11c-1.1-2.9-1.7-8.8-1.7-17.8
			c-1.4-4.8-2.2-12.3-2.2-22.6c0-10.2-0.8-18.2-2.4-24c-8.2,7.4-16.9,11.4-26.2,12c-1.8,0-2.6,0.6-2.6,1.9c0,2.9-0.5,8-1.4,15.4
			l-4.1,52.8c1.6,23.7,0.2,36.2-4.3,37.4c-1.3,0-3.4,0.6-6.4,1.9c-3,1.3-5.4,0.2-7.3-3.4c-3.7-4.2-6.3-8.4-7.8-12.7
			c-1.5-4.3-2.2-9.2-2-14.6c0.2-4.5,0.6-14.1,1.2-28.8c0.3-0.6,0.4-4.2,0.4-10.8c-0.1-6.6,0.1-11.6,0.6-15.1l3.8-29.8
			c0.5-0.6,1.1-5.4,1.9-14.4c-0.2-0.6-0.2-2.2-0.2-4.8L252.2,208.4z M284.6,194.5c0.3-0.6,2.2-1.4,5.6-2.2c3.4-0.8,7.5-3.6,12.1-8.4
			c0.2,0,0.1-3.8-0.2-11.5c-0.5-13.4-0.9-23-1.2-28.8c-0.3-7.7-0.6-13.1-1-16.3c0-6.1-1.2-18.7-3.6-37.9l-10.6,71.5
			c-2.2,19.8-3.1,32-2.6,36.5L284.6,194.5z"/>
		<path d="M419.8,41.4c-1,8.3,0.7,41.9,5,100.8c0.2,1.3,0.2,3.4,0.2,6.2c0.2,4.2,0.6,9.6,1.4,16.3l1.7,29.3l2.9,22.1l2.2,22.6
			c2.1-8.3,3.1-13.4,3.1-15.4c1.1-6.7,1.7-10.6,1.7-11.5l3.6-23c3.4-13.4,5.4-23.4,6-29.8c1-10.2,2-17.4,3.1-21.6
			c-0.2,0-0.2-0.2-0.2-0.5c0-0.3,0.1-1,0.2-1.9c0.8-5.8,1.4-9.6,1.9-11.5c1-3.8,1.6-8.4,2-13.7c0.4-5.3,0.6-8.1,0.7-8.4
			c0.1-0.3,0.2-0.6,0.4-1c1.1-2.2,1.9-8.8,2.4-19.7l-0.2-14.9c0-1,0.3-4.3,1-10.1l-0.5-11c0-1.9,0.2-5.1,0.7-9.6
			c-0.3-0.6,1.1-7.5,4.3-20.6l4.6-8.2c0-1.3,0.6-2.6,1.9-3.8c1.3-1.3,2.5-2.1,3.6-2.4c1.1-0.3,2.7,0.1,4.7,1.2c2,1.1,3.3,1.7,4,1.7
			c0.5,1,2.9,2.4,7.2,4.3c1.9,1.3,3.2,3.6,3.7,7c0.6,3.4,0.9,8.1,1.1,14.2c0,1.3-0.2,7-0.5,17.3c-0.3,10.2-0.5,17-0.5,20.2v8.6
			L492.5,98v14.4l0.5,15.4l0.5,41.3l0.5,9.6l0.7,17.8c-0.2,0,0.1,2.2,0.7,6.7c0,2.9,0.1,5.6,0.2,8.2c2.7,28.2,4.3,44.6,4.8,49.4
			c2.7,20.2,3.7,34.9,2.9,44.2c0.3,4.8-1.9,9.6-6.7,14.4c-3.7-1.6-5.8-3.5-6.5-5.8c-1.1-1.3-2.7-4-4.8-8.2c-2.6-4.2-4.7-9-6.5-14.4
			c-1.1-2.2-2-5.4-2.6-9.6c-1.4-3.8-2.4-9.2-2.9-16.1c-0.5-6.9-1.2-11.7-2.2-14.4c-1-2.7-1.7-5.4-2.2-7.9c-2.4-4.8-4.1-16.5-5-35
			c-0.2-3.2-0.3-5.6-0.5-7.2v-8.6c-0.3-1.6-0.6-3.5-0.8-5.8c-0.2-2.2-0.4-4-0.6-5.3c0,0.6-0.1,1.9-0.2,3.8c-0.2,1.9-0.3,4-0.5,6.2
			c-0.3,1.3-1.2,7.5-2.8,18.7c-1.5,11.2-2.9,20.5-4.2,27.8l-0.7,8.6c-1,2.9-2.1,11.5-3.4,25.9c-0.5,0.6-1.3,3.5-2.4,8.6l-0.2,2.9
			c-1.9,10.6-3.2,16.5-3.8,17.8l-3.4,10.1c-4.2,8-8.6,10.6-13.2,7.7c-4.6-2.9-8.1-9-10.3-18.2c-1-4.2-1.9-7.7-2.9-10.6
			c-0.2-2.9-1.1-7.4-2.9-13.4c-1.1-4.8-2.2-12.3-3.1-22.6c-0.6-2.9-1.3-7.8-1.9-14.9l-5.3-41.8c-1-11.5-2.5-24-4.6-37.4
			c-0.5-0.6-1.1-3.7-1.9-9.1c-0.3,5.1-0.5,8-0.5,8.6c0.3,3.2-0.2,11-1.4,23.5c0.2,0.6,0.2,5.4,0,14.4c-0.8,6.4-1.2,12.8-1.2,19.2
			c-1,13.4-1.4,26.4-1.2,38.9c0.5,1.9,0.5,6.6,0,13.9v2.9c-0.5,9.3-0.9,14.9-1.2,16.8v3.4c-0.2,2.6-0.2,5.8-0.2,9.8
			c0,4,0,7.2,0.1,9.6c0.1,2.4-0.4,6-1.6,10.8c-1.4,6.1-5.4,7-12,2.9c-1.4-0.6-2.6-1.4-3.4-2.4c-1.6-4.2-2.5-8.5-2.6-13
			c-0.2-4.5-0.3-7.4-0.4-8.6c-0.1-1.3-0.1-3.5-0.1-6.7v-8.2c0-2.9,0-5.5,0-7.9s0.1-6.8,0.2-13.2c-0.2-0.3-0.2-2.7-0.2-7.2l-1.4-25
			c-0.5-4.2-0.6-7.4-0.2-9.8c0.3-2.4,0.2-6.6-0.2-12.7c0.8,0,1.2-2.5,1.2-7.4c0-5,0.1-10.3,0.2-16.1l1.7-1.9
			c-0.5-0.6-0.5-6.7,0-18.2c0-1.9,0.2-6.8,0.6-14.6c0.4-7.8,0.6-14,0.6-18.5c-0.5-2.2,0.2-7,2.2-14.4c1.9-13.4,2.9-20.6,2.9-21.6
			l0.5-5.3c0.8-3.2,1.2-7.4,1.3-12.5c0.1-5.1,0.4-9.8,1.1-13.9c0.5-10.9,1.8-19.8,4.1-26.9c0.8-6.4,2.8-10.7,6-13l2.6-4.3h0.2
			c1.1-1.6,3.3-2.9,6.5-3.8c7.2-1.6,13.2,1.6,18,9.6C418.2,31.6,419.3,35.9,419.8,41.4z"/>
		<path d="M601.9,133l0.5,7.2c1,0.6,1.3,1.9,1,3.8c-0.3,1.9-0.4,4.6-0.2,8.2c0.5,12.8,1.3,22.6,2.4,29.3c0,3.8,0.4,8.7,1.1,14.6
			c0.7,5.9,1,9,0.8,9.4c-0.2,0.3-0.2,1.6-0.2,3.8v4.8c-1-4.2-1-1-0.2,9.6c0.6,2.6,1.2,6.6,1.6,12c0.4,5.4,1.3,15,2.8,28.8
			c3,24,4.6,37.2,4.6,39.6s-0.5,6.2-1.4,11.5c-1,5.3-2.4,9-4.3,11.3l-10.8,1.4c-2.4-1.3-5.4-5-8.9-11c-2.1-4.2-3.4-8.8-3.8-13.9
			l-2.9-16.3c-0.2-1.9-0.2-4.8-0.2-8.6c-0.2-0.3-0.4-2.4-0.7-6.2c0.3-1.6-0.1-4.8-1.2-9.6V254c0.5-1.6,0.2-4.6-1-9.1l-1.2-15.4
			c0.3-1.3-0.6-4-2.9-8.2c-1.6,1.6-3.7,2.9-6.2,3.8h-7.7c-3,0-5.6,0.2-7.7,0.5c-1.1,0-1.7,6.4-1.7,19.2c-0.2,1-0.6,3.2-1.2,6.7
			c0,1.6-0.3,4.2-1,7.7c-0.6,3.5-1,6.5-1,8.9s-0.2,4.1-0.5,5c-0.8,3.2-1.9,10.8-3.4,22.8c-1.4,12-2.5,19.9-3.2,23.8
			c-0.7,3.8-0.8,6.2-0.4,7.2c0.2,1-0.1,2.6-0.7,4.8c-0.6,2.2-1.4,3.8-2.2,4.8c-1.8,0-3.7-0.8-5.8-2.4c-2.1-1.6-4.6-2.4-7.4-2.4
			c-2.1-0.6-3.9-4.8-5.5-12.5c-0.3-2.2-0.6-4.2-0.7-5.8c0.3-1,0.6-3.4,0.7-7.2c-1.1-1.6-1.7-4.6-1.7-9.1l0.2-6.7
			c0-2.9,0.4-5.6,1.2-8.2c-0.2,0,0.2-2.7,1-8.2c-1-1.3-0.4-11,1.7-29.3c0-4.5,0.7-11,2.2-19.7c0.6-5.8,1-9.6,1-11.5
			c0.2-2.9,0.3-4.7,0.5-5.5c0.2-0.8,0.3-1.8,0.5-3.1c1.8-9.6,2.7-16.2,2.9-19.9c0.2-3.7,1.4-11.3,3.8-22.8c0.5-1.9,0.7-4.8,0.7-8.6
			c0-3.8,0.2-6.9,0.7-9.1c0.5-2.2,0.9-4.8,1.3-7.7c0.4-2.9,1-5.9,1.8-9.1c-0.5-1-0.3-4.2,0.5-9.6c0-1.9,0.6-6,1.9-12.2
			c1.3-6.2,2-10.2,2-12c0.1-1.8,0.2-3,0.5-3.8c0.2-0.8,0.5-2.2,0.8-4.1c0.3-1.9,0.8-4,1.4-6.2c0.6-2.2,1-4.2,1.1-5.8
			c0.1-1.6,0.5-4.3,1.3-8.2c0-2.2,0.2-5.1,0.7-8.6c0.5-1,1.5-4,3.1-9.1c0-1.9,1.4-5,4.2-9.1c2.8-4.2,4.5-7,5.2-8.6l12.5-3.8
			c0.2-2.6,1.1-6.4,2.9-11.5c5-4.8,10-6.4,15.1-4.8c0.2,0,0.5,0.2,1.1,0.5c0.6,0.3,1.3,0.6,2.2,1c0.9,0.3,1.9,0.8,3.1,1.4
			c1.2,0.6,1.8,2.9,1.8,6.7L600,76.9c0.3,2.6,0.6,9.2,0.8,19.9c0.2,10.7,0.7,18.5,1.3,23.3C602.2,127.4,602.1,131.8,601.9,133z
			 M577,129.7l-1-8.2c0-21.4-1.2-36.3-3.6-44.6c-0.3-0.3-0.6-0.5-0.7-0.5c-0.8,0-1.4,1.9-1.7,5.8c-1.9,7.7-3.7,18.2-5.3,31.7
			c-0.6,1.3-1.4,6.1-2.2,14.4c-2.4,21.4-4.2,34.7-5.5,39.8l-0.5,7.2c-1.1,7.4-1.2,12.2-0.2,14.4c0-1.3,3.4-3.4,10.1-6.2
			c6.7-2.9,10.2-4.5,10.6-4.8c0.3-0.3,0.4-1.9,0.4-4.8c-0.1-2.9,0.4-7.4,1.3-13.4c0.3-0.3,0.1-1.5-0.6-3.6c-0.7-2.1-1-5.4-0.8-9.8
			c-0.3-1.9-0.5-4.6-0.5-8.2C576.9,135.3,577,132.2,577,129.7z"/>
	</g>
	<g class="little-problem">
		<path d="M137.8,616.6c-0.3-1.6-0.4-4.3-0.1-8.2c0.2-3.8,0.5-9,0.8-15.4c0-9.9,0.1-16,0.2-18.2l-0.2-9.6c0-5.1,0.1-9.4,0.2-13
			v-13.9c0.3-2.9,0.4-7.7,0.1-14.4c-0.2-6.7-0.1-15.3,0.4-25.7c0.5-10.4,0.9-16.7,1.2-19v-9.6c0-1,0.1-4.3,0.2-10.1v-3.4
			c0.2-4.8,0.1-7.7-0.2-8.6l2.2-17.8l1-10.1c0.3-1.3,1.5-4,3.6-8.2c0.5-1,2.3-1.4,5.5-1.4c3.2,0,5.6,0.2,7.2,0.5
			c1.6,0.3,2.6,1.2,3.1,2.6c0.5,1.4,1,4.4,1.4,8.9c1,4.2,1.2,9.4,0.7,15.8c0.2,1.9,0.2,3.4,0.2,4.3v4.8c0.5,6.4,0.4,13-0.2,19.7
			c0,2.6,0.1,5.1,0.2,7.7v4.3c0,6.4-0.2,12-0.7,16.8v12c0.2,4.2-0.1,8.2-0.7,12c0,1.3-0.1,5.1-0.2,11.5c-0.3,2.2-0.6,5-1,8.2
			c0.5,2.6,0.5,5.9,0,10.1c-0.5,1-0.3,4.8,0.5,11.5c-0.6,4.2-0.6,11.7,0.2,22.6v9.6c0.5,10.2,0.4,20.3-0.2,30.2v2.9
			c0,6.4-0.2,11-0.5,13.9c0.3,5.4,0.3,12.3,0,20.6v2.9l-0.5,11.5c-1.8,22.7-6.9,35.7-15.4,38.9c-10.4,3.8-18.6-1.8-24.7-16.8
			l-1.4-7.2c-1.8-0.6-4.1-8-7-22.1c-4.5-21.4-7-33.3-7.4-35.5c-2.2-12.5-3.4-19.2-3.4-20.2l-0.5-9.1c-0.2-0.6-0.5-1.9-1-3.8
			s-0.9-3.8-1.2-5.8c0-2.2-0.6-7-1.7-14.4c0-0.6-0.4-4.6-1.2-12l-2.9-42.7c0-1-0.1-2.6-0.2-4.8l-1,10.6c-1.1,21.4-1.9,34.4-2.4,38.9
			l-1.2,48.5v19.2L89,660.2c0,11.8,0.2,22.9,0.7,33.1c-0.2,9.3-1,15.4-2.6,18.5c-1.6,3-4,4.7-7.2,5c-2.2-1.3-5.3-3.7-9.1-7.2
			c-1.1-1.3-1.9-3.9-2.3-7.9c-0.4-4-1.3-7.4-2.8-10.3s-2.2-6.1-2.4-9.6l-2.9-36.5c0-5.1,0.1-10.5,0.4-16.1c0.2-5.6,0.2-11.4,0-17.5
			c-0.2-6.1,0.2-13.1,1.2-21.1c1-8,1.5-14.8,1.3-20.4c-0.2-5.6,0-12.8,0.5-21.6c0.5-8.8,0.7-15.2,0.7-19.2c0-4,0.2-7.1,0.7-9.4
			c0-5.1,0.2-9.1,0.5-12c-0.2-1,0.3-5.8,1.4-14.4c0-2.2,0.2-5.6,0.7-10.1c0.5-4.5,1-10.6,1.4-18.2c0.5-7.7,1.4-13.9,2.6-18.7
			c1.3-4.8,3.3-10.2,6-16.3c1.4-1.6,2.7-5.8,3.8-12.5c1.1-3.2,3.2-6.2,6.2-9.1c1.1-1.6,2.6-2.4,4.4-2.4c1.8,0,3.6,1.1,5.2,3.4
			c6.2,4.8,10.1,13.3,11.5,25.4l1,12c0,1.9,0.7,6.2,2.2,13c0,3.2,0.3,7.8,1,13.9c0,4.5,0.6,9.1,1.7,13.9c1.6,16.3,2.8,27.7,3.6,34.1
			c0.8,2.2,1.4,5.3,1.9,9.1c0.3,2.9,1,7.2,1.9,13c0.3,5.4,1,11.7,2.2,18.7c6.6,42.9,10.6,67,12.2,72.5c0.3-1.3,0.5-5.3,0.5-12
			L137.8,616.6z"/>
		<path d="M191,580.1l1.7-35.5c0-1.9,0.4-4.8,1.1-8.6c0.7-3.8,1.2-6.2,1.3-7.2c0-0.6,0.2-1.8,0.5-3.4c0-8.6,1.2-16.2,3.6-22.6
			c3.7-17,6.5-29.6,8.4-37.9c1.9-8.3,4-15.2,6.2-20.6c0.2-1.6,1.8-4.2,5-7.7c6.6-7,12.7-10.6,18.5-10.6c5.8,0,11.3,1.8,16.6,5.3
			c1.8,0.6,4.1,3,7.1,7.2c3,4.2,4.7,6.4,5.2,6.7c2.7,3.2,5.6,10,8.5,20.4c3,10.4,4.6,18,4.8,22.8c0.2,4.8,1.2,12.4,2.9,22.8
			c1.7,10.4,2.5,18.1,2.5,23c0,5,0.4,12.4,1.3,22.3c0.9,9.9,1.2,17.9,1.1,24c-1,45.1-3.8,77.8-8.6,97.9c-1,14.1-2.8,23-5.5,26.9
			l-0.5,6.7c-0.2,3.8-1.1,8.2-2.8,13c-1.7,4.8-3.8,8.5-6.4,11c-0.5,1-3.7,2.4-9.6,4.3c-8.5,3.2-14.1,4.8-16.8,4.8
			c-3.5,2.2-8,1.8-13.3-1.2c-5.4-3-8.4-4.6-9.2-4.8c-0.8-0.2-2.5-1.9-5.2-5.3c-2.6-3.4-4.4-6-5.2-7.9c-2.6-3.8-4.1-6.9-4.6-9.1
			l-3.4-13.4c-2.1-4.2-3.5-10.2-4.3-18c-0.8-7.8-1.6-12.9-2.4-15.1c-0.8-3.5-1.5-7.2-2.2-11c0.2-2.2,0.2-6.2,0.2-12v-4.8
			c-0.6-4.8-0.5-9.4,0.5-13.9c0.2-2.2,0.3-5,0.4-8.4c0.1-3.4,0.3-8.2,0.6-14.6v-6.2C190.6,589.7,191.2,583.3,191,580.1z
			 M218.4,615.1l0.7,43.2c2.6,18.2,6.3,31,11.3,38.4c0.8,1.6,2.6,3.4,5.5,5.3l6,2.9c0.8,0,1.7-0.6,2.6-1.9c1.1-0.6,1.9-1.4,2.4-2.4
			c1.1-2.9,2.2-5.4,3.4-7.7c1.1-2.2,1.6-3.4,1.4-3.4c0.6-1.3,0.9-3.4,0.7-6.2c0.5-1,1.1-3,1.9-6.2c1.8-17.9,3.5-29.4,5.3-34.6
			c0.6-14.1,1-23,1-26.9c0-13.4-1.8-29.9-5.3-49.4c-1.9-4.5-2.9-18.7-2.9-42.7c-1-4.8-1.5-9.2-1.7-13.2c-0.2-4-0.7-8.3-1.6-13
			c-0.9-4.6-1.6-7.8-2-9.4c-0.5-1.6-0.8-3.1-0.8-4.6c-0.1-1.4-0.4-3.3-1.1-5.5c-2.6-7.7-6.5-3.5-11.8,12.5l-4.1,14.4
			c0,0.6-0.8,6.6-2.4,17.8c-2.6,17.9-3.8,27.9-3.7,30c0.1,2.1-0.8,8.7-2.8,19.9c-0.2,1-0.2,3.2-0.1,6.7c0.1,3.5-0.2,8.4-1,14.6
			C218.8,600,218.4,607.1,218.4,615.1z"/>
	</g>
	<g class="little-problem">
		<path d="M24.2,810.2l13.4-3.8l17.3-2.4l9.1,2.4c0.6,1.3,2.2,2.1,4.6,2.4c4.6-0.3,10.9,5,18.7,15.8c1.9,1.3,3.5,3.5,4.8,6.7
			l9.1,22.1c0.3,0.6,0.8,2.3,1.4,5c0.6,2.7,1.5,5.8,2.6,9.4c-0.3,0-0.1,1.3,0.7,3.8c2.1,7,3,11.2,2.9,12.5c0.8,1.3,1.6,5.4,2.4,12.5
			c0.8,7,1,11.8,0.7,14.4c0.2,0.3,0,4-0.5,11c-1.1,15.4-3.1,26.7-6,34.1l-3.1,11.5L97.2,983l-3.1,5.8c-5.8,12.8-12.8,22.7-21.1,29.8
			c-0.3,0.3-0.8,0.6-1.4,1l-5.8,3.8l-9.4,4.8c0,9.3,0.6,30.7,1.7,64.3c0.6,11.5,1.1,17.9,1.4,19.2c0,10.6-0.3,17.7-1,21.4
			c-0.6,3.7-1.7,6.4-3.1,8.2c-1.4,1.8-3.9,2.8-7.4,3.1c-1,0.6-2.6,0.1-5-1.7c-2.4-1.8-4.3-4.4-5.8-7.9l-1.4-15.4
			c0.3-0.6-0.2-3.7-1.4-9.1c-1.1-2.6-2-7-2.6-13.4l-1.7-45.6l-0.2-15.4c-9.3,1.3-14.9-3.8-16.8-15.4c-1.6-6.1-1.9-10.1-1-12l1.2-6.2
			c1.9-6.1,5.6-9.1,11-9.1h5c-0.3-0.6-0.5-2.9-0.5-6.7l-1-20.2v-8.6l-0.2-6.2c0.2-2.9,0.1-6.1-0.2-9.6v-2.9l-0.5-12v-9.1l-0.2-4.8
			c0-22.7-0.6-37.1-1.9-43.2c-5.3,6.1-8.8,9.4-10.6,9.8c-1.8,0.5-4.7-1.8-8.9-7c-1.8-2.9-2.7-6.1-2.9-9.6c-2.9-8-3.8-14.6-2.9-19.7
			c0.3-2.6,1.6-6.6,3.8-12c0.2-1.3,2.1-4.2,5.8-8.6C12,816.9,17,812.7,24.2,810.2z M73.9,865.4c-4.2-4.8-12.2-7.2-24.2-7.2l1.4,29.8
			c1.3,17.3,2.4,49.6,3.4,97c1.4-0.6,2.4-1.4,2.9-2.4c1.3-1.9,2.6-2.9,4.1-2.9c2.1-1,4.1-3.8,6-8.6c4.8-8,8.5-14.7,11-20.2l7.9-18.2
			c0.5-0.3,1.3-3.9,2.4-10.8c1.1-6.9,1.8-12.6,2.2-17c0-9.3-0.5-14.6-1.4-15.8c0-0.6-1-4.6-2.9-12c-0.6-1-2.6-3.4-5.8-7.2
			L73.9,865.4z"/>
		<path d="M160.1,1009.4c-1.3,1.3-2.1,1.9-2.4,1.9c-0.2,1-0.2,2.7-0.2,5.3v5.8c0,2.2-0.7,9.1-2.2,20.6v4.8c0,4.8-0.4,8.6-1.2,11.5
			l-1,21.1l-1.4,12c-0.3,1.9-0.4,3.7-0.1,5.3c0.2,1.6,0.5,7.4,0.7,17.5c0.2,10.1,0,17.4-0.6,21.8l-1.4,4.3c-3.2,1.9-5.3,2.4-6.2,1.4
			s-2.6-1.6-4.8-1.9c-2.2-0.3-3.5-0.6-3.7-0.7c-0.2-0.2-1-0.8-2.4-1.9c-1.4-1.1-2.2-2-2.6-2.6c-0.4-0.6-1-1.6-1.8-2.9
			c-2.1-2.9-3.1-9.1-3.1-18.7c-0.3-1.9-0.2-4.2,0.2-6.7c-1-1-1.3-3.5-1-7.7c0.5-1.9,0.7-5,0.7-9.1c0-4.2,0.2-7.5,0.7-10.1v-7.7
			c0-2.9,0.6-8.8,1.7-17.8c0-2.6,0.2-4.8,0.7-6.7c-0.3-0.6,0.1-3.4,1.2-8.2c-0.3-1,0.1-5.6,1.2-13.9c-0.5-1-0.6-3.9-0.2-8.9
			c0.3-5,0.7-8.9,1.2-11.8c0-6.1,0.2-9.8,0.7-11c-0.2-1-0.4-4-0.7-9.1l0.5-5.8c0-3.8,0.7-9.8,2.2-17.8c1.3-18.2,1.9-28.2,1.9-29.8
			c2.2-18.6,3.4-30.1,3.4-34.6c0.5-0.3,1-3.4,1.4-9.4c0.5-5.9,0.3-10.2-0.5-12.7c-7.2,5.4-13.2,11.8-18,19.2
			c-3.2,5.4-5.4,7.5-6.5,6.2c-2.2-2.6-3.4-6.2-3.4-11l-1-7.7c-0.2-0.3-0.6-2.2-1.3-5.5c-0.7-3.4-1-5.8-1-7.4c0.1-1.6,0-3.8-0.2-6.5
			c-0.2-2.7-0.2-4.6,0.1-5.5c1.4-5.4,3.4-9.4,5.8-12l5.8-8.2l4.1-4.8c0.3,0,3.4-3.4,9.1-10.1c0.3-1.3,1.5-2.4,3.6-3.4
			c2.1-1,6.7-3.8,13.9-8.6c4.8-1,7.6-1.4,8.4-1.4c5.1-1.3,9.4-0.3,13,2.9c2.4,1.3,3.8,1.8,4.2,1.7c0.4-0.2,1-0.1,1.7,0.2
			c0.7,0.3,1.2,0.5,1.6,0.5c0,0.6,0.7,1,2.2,1l4.6,3.4c0.8,0,1.8,0.8,3.1,2.4c1-0.3,2.3,0.4,4,2.2c1.7,1.8,4.2,4.2,7.4,7.4
			c3.3,3.2,4.9,5.9,4.9,8.2c1,0.6,2,2.4,3.1,5.3l2.9,5.8l4.6,12c0.3,0.3,1,1.9,2.2,4.8c1.6,5.4,2.5,8.6,2.6,9.6
			c0.2,1,0.3,1.8,0.5,2.6c0.2,0.8,0.8,3.6,1.9,8.4c2.2,9,3.1,16.8,2.6,23.5c0,0.3-0.8,5.3-2.4,14.9c-2.9,17-7.3,30.4-13.2,40.3
			c-1.3,1.9-3,4.4-5,7.4c-2.1,3-3.8,5.7-5,7.9c-6.1,7.4-9.6,12-10.7,13.9c-1,1.9-2,3.5-2.8,4.8l-2.6,2.4l0.5,2.9
			c0-1.3,0.4-0.7,1.3,1.7c0.9,2.4,1.5,4.2,1.8,5.5c0,1.6,0.8,3.5,2.4,5.8c0.3-0.3,0.7,0,1.2,1c1,1.9,1.4,5,1.4,9.1
			c1.1,1.3,2.8,5.1,5,11.5c2.2,3.2,4.2,7.7,5.8,13.4c1.1,2.6,2,4.3,2.6,5.3c0.6,1.9,1.9,4.5,3.8,7.7c1.9,3.2,3.2,5.4,3.8,6.5
			c0.6,1.1,1.4,2.3,2.2,3.6c2.9,4.5,4.9,7.8,6,10.1l2.9,3.8c5.9,11.5,9,17.8,9.4,18.7c-0.2,2.2-1.3,5.6-3.4,10.1
			c-0.2,5.1-3.8,9.4-11,13c-2.4,0-5.7-2.2-9.8-6.5c-4.2-4.3-7.4-8.9-9.6-13.7c-7-10.2-11.7-18.2-13.9-24
			c-6.6-13.1-11.3-25.8-14.2-37.9c-0.6-1-1.4-2.6-2.3-4.8c-0.9-2.2-1.7-4-2.5-5.3l-3.1-12l-4.3-12L160.1,1009.4z M164.6,916.2
			c-1.1,10.9-1.7,20.3-1.7,28.3c-0.3,4.5-0.7,7.5-1.1,9.1c-0.4,1.6-0.6,5.3-0.6,11c0,5.8,0.9,9.1,2.6,10.1c1.8,0,4.3-1.9,7.7-5.8
			l5-9.1c1.8-2.9,5.8-8.2,12.2-15.8l6-11.5l2.4-6.2l1-4.3c1.3-4.2,1.7-8.5,1.2-13l-0.5-8.2c-1.1-9.9-1.9-15.8-2.3-17.5
			c-0.4-1.8-1-3.7-1.8-5.8c-0.8-2.1-1.7-3.9-2.6-5.5c-1-1.6-1.5-2.7-1.7-3.4l-7.4-7.2c-0.2-0.3-1.1-0.8-2.9-1.4
			c-2.7-2.2-6.6-2.6-11.5-1l-1.4,15.4c0,1.9-0.4,5.3-1.3,10.1c-0.9,4.8-1.1,8.3-0.6,10.6c-0.2,1-0.2,2.8-0.2,5.5
			c0,2.7-0.2,6.3-0.5,10.8V916.2z"/>
		<path d="M241.7,980.1l1.7-35.5c0-1.9,0.4-4.8,1.1-8.6c0.7-3.8,1.2-6.2,1.3-7.2c0-0.6,0.2-1.8,0.5-3.4c0-8.6,1.2-16.2,3.6-22.6
			c3.7-17,6.5-29.6,8.4-37.9c1.9-8.3,4-15.2,6.2-20.6c0.2-1.6,1.8-4.2,5-7.7c6.6-7,12.7-10.6,18.5-10.6c5.8,0,11.3,1.8,16.6,5.3
			c1.8,0.6,4.1,3,7.1,7.2c3,4.2,4.7,6.4,5.2,6.7c2.7,3.2,5.6,10,8.5,20.4c3,10.4,4.6,18,4.8,22.8c0.2,4.8,1.2,12.4,2.9,22.8
			c1.7,10.4,2.5,18.1,2.5,23c0,5,0.4,12.4,1.3,22.3c0.9,9.9,1.2,17.9,1.1,24c-1,45.1-3.8,77.8-8.6,97.9c-1,14.1-2.8,23-5.5,26.9
			l-0.5,6.7c-0.2,3.8-1.1,8.2-2.8,13c-1.7,4.8-3.8,8.5-6.4,11c-0.5,1-3.7,2.4-9.6,4.3c-8.5,3.2-14.1,4.8-16.8,4.8
			c-3.5,2.2-8,1.8-13.3-1.2c-5.4-3-8.4-4.6-9.2-4.8c-0.8-0.2-2.5-1.9-5.2-5.3c-2.6-3.4-4.4-6-5.2-7.9c-2.6-3.8-4.1-6.9-4.6-9.1
			l-3.4-13.4c-2.1-4.2-3.5-10.2-4.3-18c-0.8-7.8-1.6-12.9-2.4-15.1c-0.8-3.5-1.5-7.2-2.2-11c0.2-2.2,0.2-6.2,0.2-12v-4.8
			c-0.6-4.8-0.5-9.4,0.5-13.9c0.2-2.2,0.3-5,0.4-8.4c0.1-3.4,0.3-8.2,0.6-14.6v-6.2C241.2,989.7,241.8,983.3,241.7,980.1z
			 M269,1015.1l0.7,43.2c2.6,18.2,6.3,31,11.3,38.4c0.8,1.6,2.6,3.4,5.5,5.3l6,2.9c0.8,0,1.7-0.6,2.6-1.9c1.1-0.6,1.9-1.4,2.4-2.4
			c1.1-2.9,2.2-5.4,3.4-7.7c1.1-2.2,1.6-3.4,1.4-3.4c0.6-1.3,0.9-3.4,0.7-6.2c0.5-1,1.1-3,1.9-6.2c1.8-17.9,3.5-29.4,5.3-34.6
			c0.6-14.1,1-23,1-26.9c0-13.4-1.8-29.9-5.3-49.4c-1.9-4.5-2.9-18.7-2.9-42.7c-1-4.8-1.5-9.2-1.7-13.2c-0.2-4-0.7-8.3-1.6-13
			c-0.9-4.6-1.6-7.8-2-9.4c-0.5-1.6-0.8-3.1-0.8-4.6c-0.1-1.4-0.4-3.3-1.1-5.5c-2.6-7.7-6.5-3.5-11.8,12.5l-4.1,14.4
			c0,0.6-0.8,6.6-2.4,17.8c-2.6,17.9-3.8,27.9-3.7,30c0.1,2.1-0.8,8.7-2.8,19.9c-0.2,1-0.2,3.2-0.1,6.7c0.1,3.5-0.2,8.4-1,14.6
			C269.4,1000,269,1007.1,269,1015.1z"/>
		<path d="M362.9,981c0.5-9.3,0.6-14.9,0.5-16.8c-0.8-7.7-0.6-15.4,0.5-23c-0.3-13.8,0-30.2,1-49.4c-0.5-2.9-1.6-5.6-3.4-8.2
			c-1.1-2.6-2.1-4.5-2.9-5.8c-3.4-5.4-4.2-13.4-2.4-24c0.6-1.9,3.4-6.2,8.2-13c0.5-1.6,4.8-5.6,13-12l4.3-3.8
			c2.1-1.9,5.7-2.9,10.9-2.9c5.2,0,8.8,1.1,10.7,3.4c0.5,0,2.3,1.6,5.5,4.8l11,11c0.3,0.3,2.7,3.7,7.2,10.1c2.2,1.9,3.8,4.3,4.6,7.2
			c3,4.2,5.8,10.3,8.4,18.5c2.6,8.2,4,13.4,4.3,15.6c1,10.2,0.4,22.6-1.7,37c-0.6,6.7-5.7,22.4-15.1,47c2.6,1.6,5.4,4.2,8.4,7.7
			c0.5,1.6,2.2,3.7,5,6.2c0.3,1,0.8,2.1,1.4,3.4c0.6,1.3,1.1,2.4,1.4,3.4l1.9,2.4l2.6,6.7c4.2,7.4,6.7,12.8,7.7,16.3
			c2.4,4.2,3.8,7.8,4.1,11l0.5,8.6c0,5.1-1.5,13.8-4.6,25.9c-2.7,13.1-5.5,21.8-8.4,25.9l-3.4,9.1c-1.6,3.8-3.6,7.4-5.9,10.8
			c-2.3,3.4-4.3,7-5.9,10.8c-1.1,1.3-2.4,2.9-3.7,4.8c-1.4,1.9-3.7,4.6-7,8.2c-3.3,3.5-5.5,5.6-6.6,6.2c-4.6,3.5-9.7,5.3-15.1,5.3
			c-1.6,0.6-4.6,0.4-9.1-0.7c-4.5-1.1-8.2-2.6-11.3-4.6c-4-3.5-6.9-6.6-8.6-9.1c-1.8-2.6-3.6-5.9-5.4-10.1c-1.8-4.2-2.8-6.6-2.9-7.4
			c-0.1-0.8-0.1-3,0-6.7c0.1-3.7-0.1-6.5-0.6-8.4v-3.8c-0.5-1.9-0.4-5.4,0.1-10.6c0.6-5.1,0.6-9.1,0.1-12c-0.3-4.8-0.6-9.3-1-13.4
			c-0.5-1.3-0.2-4.8,0.7-10.6l0.7-56.6V981z M391,1101.5c0,4.5,0.2,7.7,0.5,9.6c2.1-0.3,4.4-1.8,7.1-4.6c2.6-2.7,4.3-4.3,5-4.8
			c0.7-0.5,1.7-1.8,3-4.1c2.9-2.9,7-7.8,12.2-14.9l5.3-10.6c4.2-10.6,7.3-19,9.4-25.4l1.2-8.6c1.8-9.3-0.4-17.6-6.5-25
			c-1.1-3.5-3.8-5.9-7.9-7.2H420c-5.9-2.2-9.3-3.2-10.1-2.9l-10.3,5.3c-2.2,2.2-4.1,3.4-5.5,3.4c-1.4,0-3-1.3-4.6-3.8
			c0,5.1,0.2,9.6,0.5,13.4c-1.1,5.4-1.3,11.4-0.6,17.8c0.7,6.4,1,12,0.8,16.8c-0.5,1.6-0.2,8.5,0.7,20.6c0.6,2.2,0.7,6.2,0.1,12
			C390.5,1094.3,390.5,1098.6,391,1101.5z M415.7,935l3.4-15.4c0.8-4.5,1.2-8.2,1.1-11.3c-0.1-3-0.1-5.4-0.1-7c0-1.6-0.1-3.6-0.2-6
			c-0.2-2.4-0.7-4.7-1.7-7c-1-2.2-1.9-3.8-2.8-4.6c-0.9-0.8-2.6-2-5.2-3.6l-5.3-0.5c-4.8-1.6-8.8-0.5-12,3.4l-1.9,44.2l-1,33.6
			l-1,17.3c0.6,0,1.5-0.3,2.6-1c0-0.3,2-1.9,6-4.8l3.4-6.2c0.6-0.3,2.1-3,4.3-8.2l1.4-2.9c0.8-0.6,1.4-1.7,1.9-3.1
			c0.5-1.4,0.9-2.5,1.2-3.1c0.3-0.6,0.5-1.1,0.5-1.4l1.2-3.4c0.3,0.6,1-0.5,2.2-3.4L415.7,935z"/>
		<path d="M502.1,1025.2c-0.2,1.3-0.2,3.8-0.2,7.7s-0.2,7.2-0.5,10.1c-0.3,2.9-0.3,6.4,0,10.6c0.6,5.8,2,12.8,4.1,21.1
			c0,1,1.2,3.5,3.6,7.7c0.6,0.3,1.3,0.6,2,1c0.7,0.3,1.3,0.7,1.8,1.2c0.5,0.5,1.6,0.3,3.4-0.5c1.8-0.8,2.9-1.6,3.5-2.4
			c0.6-0.8,1.7-2.6,3.5-5.5c1.8-4.5,3.7-7.5,5.8-9.1c3-5.8,5.9-10.7,8.6-14.9c2.6-1,4.2-1.3,5-1c0.8,0.3,1.7,1.6,2.6,3.8
			c2.2,5.1,2.9,11.7,1.9,19.7c-1.3,9-3.7,17.4-7.2,25.4c-0.6,2.2-1.8,4.3-3.6,6.2c-0.3,0.6-0.8,2.1-1.4,4.3l-4.6,9.1
			c-1,0-1.6,1-1.9,2.9c-0.3,1.9-2.4,4.3-6.2,7.2c-4.8,0-9-1-12.7-2.9c-8-3.5-13.7-7.8-17-13l-4.6-5.8c-0.3-1.3-1.8-3-4.6-5.3
			l-3.1-7.7l-3.6-7.7l-2.4-8.6c-0.5-1.3-0.8-3.8-1-7.4c-0.2-3.7-0.4-6.8-0.7-9.4c0.2-1,0.2-4.5,0.2-10.6c0.3-2.9,0.5-6.4,0.5-10.6
			c0.3-1,0.3-4.3,0-10.1l0.2-4.3v-6.7c0-5.1,0.3-10.6,1-16.3c0.6-5.8,1.3-11.8,1.9-18.2c0-4.2,0.2-7.8,0.7-11
			c-0.5-2.9-0.4-9.9,0.2-21.1v-2.9c0-3.2,0.1-5.8,0.2-7.7v-3.4l0.5-29.3c0-1,0.4-5.1,1.2-12.5c0-3.8,0.7-10.1,2.2-18.7
			c1-3.2,1.4-5.9,1.4-8.2c0-1.6,0.2-4.8,0.7-9.6c0.8-1.9,1.4-6.2,1.7-13c0.2,0,0.6-3.5,1.2-10.6c0-3.8,0.9-8.2,2.6-13
			c0.3-1.9,1.8-4.2,4.3-6.7h0.2c0.6-0.6,3-1.4,7.2-2.4c1.9,0,4.4,1.3,7.4,3.8c0.8,0,3,2.4,6.7,7.2c1.9,4.5,1.4,14.7-1.7,30.7
			c0,2.9-0.6,7.2-1.9,13c0,2.9-0.2,6.2-0.7,10.1c0,2.9-1,14.3-3,34.3C505.7,934.6,503.8,971.4,502.1,1025.2z"/>
		<path d="M605.8,827l4.3-3.8c0.5,0,1.2-0.5,2.2-1.4c3.5-3.2,8.1-5.6,13.7-7.2c1-2.6,2.8-1.8,5.5,2.4c1.3,1.3,2.1,1.9,2.5,1.9
			c0.4,0,1.1,1.2,2.2,3.6c1,2.4,1.7,4.4,2,6l2.6,4.3c1.9,2.2,3,4.1,3.4,5.5c0.3,1.4,0.4,4,0.1,7.7c-0.2,3.7-1,7-2.2,10.1
			c-1.2,3-2.4,5-3.7,6c-5.4,4.2-9.1,6.2-11,6.2c-1.9,0-4.2,1.6-7,4.8c-2.7,3.2-5,5.1-6.7,5.8c-1.8,0.6-3.1,1.4-4,2.4
			c-0.9,1-2.1,2.6-3.7,4.8c-3.8,4.5-7.6,7.4-11.3,8.6c0.3,0,0.2,1.6-0.5,4.8c-0.6,3.2-1.2,7.4-1.7,12.7c-0.5,5.3-1.4,11.4-2.6,18.5
			l-2.9,25.9c-0.6,5.8-0.7,8.6-0.2,8.6c0.5,0,0.9-0.6,1.2-1.9c8.8-7,14-12.4,15.7-16.1c1.7-3.7,4.2-5.2,7.6-4.6l2.9-1.4
			c0.5-1,1.5-1.4,3.1-1.4c2.9-1.6,6.6,2.2,11.3,11.5l-0.7,5.3c-0.8,3.2-2.1,6.7-3.8,10.6c-1.8,3.8-3.2,6.2-4.2,7.2
			c-1,1-1.8,1.7-2.3,2.2c-0.5,0.5-0.8,0.7-1,0.7h-0.5c-1,1.9-2,3.5-3.1,4.8c-1.3,2.6-2.6,4.5-3.8,5.8c-1.3,1.3-2.5,2.6-3.6,4.1
			c-1.1,1.4-2,2.5-2.5,3.1c-0.6,0.6-1.2,1.4-2,2.4c-0.8,1-1.7,2.1-2.8,3.4c-1,1.3-1.7,1.9-2,1.9c-0.3,0-2.1,2.9-5.3,8.6
			c-1,0-2.3-0.9-4.1-2.6c-1.8-1.8-3-3.6-3.8-5.5c-1,0-1.1,4.3-0.5,13c0,1.6-0.3,5.6-1,12c-0.6,11.8-0.7,23.7-0.2,35.5
			c0.5,11.8,1.2,19,2.2,21.6c1,2.6,2,3.8,3.1,3.8c2.4-1,4.2-2.3,5.5-4.1c1.3-1.8,2.5-2.8,3.6-3.1c1.1-0.3,2.4-1.6,3.7-3.8
			c1.4-2.2,2.4-3.4,3.1-3.4c0.7,0,3-3.8,6.8-11.5c0.5-1.6,1.6-3.3,3.2-5c1.7-1.8,2.5-3.1,2.5-4.1c0.3-1.3,1.5-3.1,3.5-5.5
			c2-2.4,4.4-4,7.2-4.8c2.8-0.8,4.9-0.4,6.4,1.2c2.6,2.9,5.7,8,9.4,15.4c0.8,2.6,0.8,8.1-0.1,16.6c-0.9,8.5-2.3,14.6-4.2,18.5
			l-2.2,4.3c-2.7,6.4-6.7,13.1-12,20.2c-4.2,4.5-6.3,6.7-6.5,6.7c-1,1.6-1.5,2.6-1.7,2.9c-0.8,2.9-1.5,4-2,3.4c-0.6-0.6-2-0.6-4.3,0
			c-2.3,0.6-4.4,0.6-6.1,0c-1-1-2.2-1.4-3.6-1.4c-1.4,1.6-6.8-3.8-16.1-16.3c-1.3-1.9-2.2-2.9-2.6-2.9c-0.5,0-1.5-0.3-3.1-1
			c-1.3-1.3-2.8-2.7-4.6-4.3c-5.3-6.1-8.4-10.2-9.4-12.5c-1-2.2-2.1-4.2-3.4-5.8c-1.3-1.6-2-3.4-2.2-5.3c-0.2-1.9-0.6-4-1.4-6.2
			c0-0.6-0.5-3.5-1.4-8.6c-1.3-4.2-1.7-7.2-1.2-9.1c0.2-1.9,0.1-3.4-0.2-4.6c-0.3-1.1-0.6-10.4-1-27.8c-0.3-17.4-0.2-27,0.5-28.6
			c0.6-1.6,1-5.4,1-11.5c-0.3-5.8,0.1-10.1,1.3-13s1.7-6.6,1.6-11.3c-0.2-4.6,0.1-8.2,0.7-10.8c0.6-1.3,1.2-6.2,1.7-14.9l1-8.6
			c1.9-7.7,2.9-12.9,2.9-15.6c0-2.7,0.3-6,1-9.8c0.2-0.6,1.1-6.1,2.9-16.3l1.7-6.7l0.7-5.8c4-16.3,6.5-25.8,7.4-28.3
			c0-1.3,1-7.2,3.1-17.8c-0.2-4.8,1.1-8.2,3.8-10.3c2.7-2.1,5.2-1.8,7.6,0.7c2.3,2.6,3.7,4.3,4.2,5.3c0.5,1,1.4,2.2,2.9,3.8
			C598.6,829,601.1,828.9,605.8,827z"/>
		<path d="M665,969c0-0.3,0.3-3,1-8.2c-0.5-3.8-0.2-7.8,1-12c0-5.1,0.4-9.8,1.2-13.9c1.3-1.6,1.7-4.2,1.2-7.7c0-1.9,0.3-4.3,1-7.2
			c0.6-2.9,1-6.4,1-10.6c0.3-1.3,0.6-3.1,0.8-5.5s0.6-5.1,1.1-8.2c0.5-3,1-7,1.4-11.8l1.2-6.2c1.1-2.9,1.7-5.9,1.7-9.1l1.9-7.7
			c0-2.9,0.8-6.4,2.4-10.6c1.4-2.9,2.4-5.8,2.9-8.6c0.8-4.8,3-9.6,6.7-14.4c0.5-0.6,2.4-1.8,5.9-3.6c3.4-1.8,5.5-2.6,6.2-2.4
			c0.7,0.2,1.6,0.5,2.5,1c1,0.5,1.8,1,2.5,1.4c0.7,0.5,1.6,1.1,2.8,1.9c1.1,0.8,2,1.4,2.6,1.7l2.6,4.3c0,0.3,0.1,0.6,0.2,1
			c1.6,3.2,2.4,8.8,2.4,16.8v10.6c-0.2,3.2-0.2,7-0.2,11.5v8.6c0,3.8,0.1,6.6,0.2,8.2l-0.2,11c0.2,2.9,0.2,6.2,0,9.8
			c-0.2,3.7-0.2,6.9-0.1,9.6c0.1,2.7,0,6.5-0.1,11.3c0.3,0.3,0.5,4.2,0.5,11.8c0,7.5-0.2,13.2-0.5,17v13c0.3,3.2,0.4,11.5,0.2,25
			c0.3,3.2,0.4,5.4,0.2,6.7c0.6,16,1,25.1,1.1,27.4c0.1,2.2,0.3,4.4,0.6,6.5c0.3,2.1,0.6,5,0.7,8.6c0.2,3.7,0.4,6.1,0.7,7.2
			c0.3,1.1,0.9,1.4,1.7,0.7c0.8-0.6,1.5-2.9,2.2-6.7l1.7-6.7c0.5-5.4,1.2-9.4,2.2-12c0-1,0.6-4,1.7-9.1c0.5,0,1.2-1.8,2-5.3
			c0.9-3.5,1.6-6.9,2-10.1c1.1-3.8,1.7-6.6,1.7-8.2c4.2-22.1,6.7-35.2,7.7-39.4l1-7.7c1.4-5.4,2.5-11.5,3.1-18.2
			c0.8-2.6,1.5-5.8,2-9.8c0.6-4,1-6.5,1.3-7.4c0-2.2,1.5-12,4.6-29.3c0.5-0.6,0.9-2.2,1.2-4.8c0.3-2.6,1.4-8.3,3.1-17.3
			c0.6-6.1,1.5-11.5,2.6-16.3c2.2-9.3,5.4-16.8,9.6-22.6c0-1.9,1.3-3.3,4-4.1c2.6-0.8,4.4-0.1,5.2,2.2c0.2,0.3,1,0.7,2.4,1.2
			c1.4,0.5,3.2,2,5.4,4.6c2.2,2.6,3.5,5.9,4,10.1c-0.5,0.6-0.8,5-1.1,13.2c-0.2,8.2-0.4,13.5-0.6,16.1V885l-0.2,12v55.7
			c-0.2,1.9-0.2,6.2-0.2,13v20.6l0.2,31.7c0,5.8,0.1,10.1,0.2,13v25.9c0,4.5,0.2,8,0.7,10.6c-0.2,1.6,0,8.2,0.5,19.7
			c1,8.6,1.1,13.6,0.5,14.9c-0.3,6.4-1.7,12.6-4.1,18.7c-0.8,1.6-2.1,2.6-3.8,2.9c-4,0.6-8.5-5-13.4-16.8c-2.4-6.7-4-11.8-4.8-15.4
			c-0.3,0-1-2.1-2.2-6.2c-0.3,0-0.6-2.2-0.7-6.7c-0.2,0-1-13.4-2.6-40.3v-9.1c0.2-4.5,0.4-8.1,0.7-10.8c0.3-2.7,0.4-6.6,0.2-11.8
			c0.3-1.9,0.5-4.6,0.5-8.2v-8.2c0.2-0.3,0.3-3.4,0.5-9.1c0.2-5.8,0.2-9.9,0.1-12.5c-0.1-2.6-0.1-5.3,0-8.2c0.1-2.9,0.1-4.6,0.1-5.3
			l0.2-6.2c0-2.9-0.3-5.6-1-8.2l-2.2,14.4c0,2.2-1,8-2.9,17.3c-1.9,9.3-2.9,14.2-2.9,14.9c-0.3,0.6-0.8,3.4-1.6,8.2
			c-0.7,4.8-1.8,11.4-3.2,19.7c0,2.9-0.8,7.5-2.4,13.9c0,2.2-1.1,9-3.4,20.2c-2.2,11.8-3.8,21.5-4.7,29c-0.9,7.5-2.4,15.1-4.4,22.8
			c-0.3,3.2-0.9,5.9-1.7,8.2c-1.6,6.1-4,8-7.2,5.8l-3.6-1c-0.5,0.3-1.6,0-3.4-1c-0.3,0.6-1.7,0.6-4.1,0c-6.1-4.2-9.5-6.2-10.3-6.2
			c-2.2,0-4.2-3.5-6-10.6c-0.3-3.2-0.7-6.7-1.2-10.6c-1.1-9.6-1.8-17.9-2.2-25c0.3-0.6,0.1-8.2-0.7-22.6l-0.2-25
			c-0.5-1-0.5-3.4,0-7.2c0-1.9,0.1-4.2,0.2-6.7c-0.3-3.2-0.3-7.5,0-13c-0.3-5.4-0.4-9-0.4-10.8c0.1-1.8,0.1-4,0-6.7
			c-0.1-2.7,0-7.3,0.4-13.7c-0.2-0.6-0.4-3.2-0.8-7.7c-0.4-4.5-0.8-7.7-1.1-9.6c0,0.3-0.5,2.1-1.4,5.3c-0.3,1.6-1.4,7.8-3.1,18.7
			c0,6.4-0.1,10.1-0.4,11c-0.2,1-0.5,2.9-0.8,5.8l-1.9,20.2c0,1.6-0.6,6.2-1.9,13.9l-3.6,24c0.2,0,0.2,0.1,0.2,0.2
			c0,0.2-0.2,3.1-0.5,8.9c-0.3,0.6-1.1,6.7-2.4,18.2c-1,5.8-1.7,14.5-2.2,26.2c-0.5,11.7-0.8,18.6-1.1,20.9c-0.2,2.2-0.4,5-0.4,8.2
			c0,6.1-0.7,10.6-2.2,13.4c-1.1,4.5-3.9,7-8.4,7.7c-5.6-2.6-8.9-6.4-9.8-11.5c-0.5-3.5-1-6.1-1.7-7.7c-0.8-5.4-1.1-9.9-1-13.4
			c1-19.2,1.8-28.8,2.4-28.8c0.2-1,0.2-3.4,0.2-7.2c-0.5-2.9-0.1-6.2,1.2-10.1c-0.2-2.2,0.2-5,1-8.2c0.6,0,0.7-3.8,0.2-11.5
			c0-1.6,0.5-5,1.4-10.1c0-1.3,0.1-3,0.4-5c0.2-2.1,0.4-4.4,0.6-7c0.3-6.4,0.8-10.7,1.4-13c-0.6-4.8,0.5-14.6,3.4-29.3L665,969z"/>
		<path d="M865.4,925.4c-1,12.5-1.3,19.6-1.1,21.4c0.2,1.8,0.1,6.3-0.5,13.7c-0.6,7.4-0.8,13.8-0.7,19.2c0.1,5.4-0.2,10.6-0.8,15.4
			v5.3c0.8,10.9,0.8,18.1,0,21.6c-0.6,6.7-1,11.8-1,15.1s-0.1,5.5-0.2,6.5c0.2,1-0.2,6.1-1.2,15.4c0,10.2,0.1,16.5,0.2,18.7h1.4
			c4.2-0.6,6.3-1,6.5-1c0.2,0,1.2-0.5,3.1-1.4h6.2c0.5,0,1.5,1.1,3.1,3.4c1.6,2.2,2.7,4.5,3.4,6.7c1.3,2.2,1.7,4.3,1.3,6.2
			c-0.4,1.9-2.1,5.4-5.2,10.6l-4.6,3.4c-0.6,1.3-1.8,2.6-3.5,3.8c-1.7,1.3-3.2,1.9-4.4,1.9c-2.2,1.3-4.2,3.8-5.9,7.4
			c-1.7,3.7-5.6,5.4-11.9,5l-8.2,0.5l-4.6,3.4c-5.1,4.2-10.6,4-16.6-0.5c-1.1-0.6-2.4-2.1-3.8-4.3c-1.4-2.2-2.1-5-1.9-8.2
			c0.2-3.2,0.6-7.5,1.2-13c3.7-5.8,5.6-8.8,5.8-9.1c6.9-4.8,11.7-8.3,14.4-10.6c0-9.6-0.2-15.8-0.7-18.7c0.3-0.3,0.7-7.2,1.2-20.6
			l-1.4-12c0.3-7.7,0.3-14.1,0-19.2c-0.3-4.5-0.3-11.8,0-22.1c0.8-1.9,0.7-7-0.2-15.4c0-1.9,0.5-6.7,1.4-14.4l0.2-6.7
			c0.6-15.4,1.1-24.2,1.4-26.4c0-3.2,0.6-8.8,1.9-16.8l2.9-35c-1.3,0.6-2.1,1-2.4,1l-7.9,2.9c-6.1,4.2-11.4,1.8-16.1-7.2
			c-4.5-10.6-4.7-19.7-0.7-27.4c2.2-4.5,5.8-7.7,10.8-9.6c3.7-2.6,6.5-4.8,8.4-6.7c1.4,0,5.1-3.8,11-11.5c5.8-1.9,9.2-2.9,10.3-2.9
			l4.8-2.4l6.2-1.4c5.1-1,8.6,0,10.3,2.9c2.7,1,5.3,2.7,7.7,5.3l6,10.1c2.6,7.7,4.2,12.5,4.8,14.4c0.6,4.2,0.3,7-1,8.4
			c-1.3,1.4-3.2,2.2-5.8,2.4c-2.6,0.2-4.4,0.5-5.6,1c-1.2,0.5-2.7,1-4.6,1.4c-1.8,0.5-5.1,2.6-9.7,6.5h-0.2
			c0.2,2.2-0.3,9.6-1.4,22.1l-0.5,3.4c0,3.8-0.3,10.1-1,18.7c0.3,2.2,0.2,4.7-0.4,7.4C865.5,915.8,865.3,919.9,865.4,925.4z"/>
		<path d="M985.2,1034.3c-0.5-3.5-0.1-11.4,1.2-23.5c0-7.7,0.2-13.8,0.5-18.2V983c0.6-24.3,1-39.4,1-45.1c0-18.2,0.8-31.8,2.4-40.8
			l0.2-9.6c0-4.5,0.1-9,0.4-13.7c0.2-4.6,0.2-7.4-0.1-8.4l3.1-21.1l0.5-6.2c0.3-1,1.6-3.7,3.8-8.2c0.5-1,2.3-1.4,5.5-1.2
			c3.2,0.2,5.8,0.7,7.7,1.7c1.3,0,2.2,0.7,2.6,2.2c0.5,1.4,0.9,4.6,1.2,9.4c0.8,3.5,1,8.8,0.5,15.8c0.2,1.6,0.2,3.1,0.2,4.6
			c0,1.4-0.1,3-0.2,4.6c0.3,5.4,0.2,12-0.5,19.7v12c0,4.8-0.3,10.4-1,16.8l-0.2,12c0,4.5-0.3,8.3-1,11.5c0,3.5-0.5,10.1-1.4,19.7
			c0,5.1-0.1,8.2-0.4,9.4c-0.2,1.1-0.1,5.2,0.4,12.2c-0.5,9.6-0.6,17.1-0.2,22.6v9.6c0,15-0.3,25.1-1,30.2v2.9
			c0,6.1-0.2,10.7-0.7,13.9c0.3,7.4,0.2,15.2-0.5,23.5l-0.5,11.5c-2.2,22.7-7.6,35.4-16.1,37.9c-10.2,2.9-18.4-3.4-24.5-18.7
			c-0.5-2.2-0.9-4.6-1.2-7.2c-0.8-0.3-1.4-1.1-1.9-2.4c-2.1-6.4-5.1-21-9.1-43.7c-1.1-4.5-1.7-7.7-1.7-9.6c-1.3-5.1-1.9-9.1-1.9-12
			c-1.3-5.1-1.9-9-1.9-11.5v-7.7l-2.2-11c0-2.2-0.2-5.6-0.7-10.1c-1.6-15-2.6-29-3.1-41.8c-0.5-12.8-0.8-20.3-1-22.6l-1.2,10.6
			c-0.6,12.5-1.4,22.4-2.2,29.8c-1.3,13.4-1.9,25.3-1.9,35.5c-0.3,5.8-0.5,10.7-0.5,14.9c-0.3,1.9-0.5,4.3-0.5,7.2l-0.7,32.6
			c-1,12.2-1.2,26.4-0.7,42.7c-0.2,9.3-1.1,15.4-2.9,18.5c-1.8,3-4.2,4.6-7.2,4.6c-2.6-1.6-5.6-4.2-9.1-7.7c-1-1-1.6-3.4-2-7.4
			c-0.4-4-0.8-7-1.3-8.9c-2.2-4.5-3.5-9.6-3.8-15.4l-1.9-33.6c0-2.9,0.2-8.2,0.6-16.1c0.4-7.8,0.5-14.2,0.4-19
			c-0.2-4.8,0.4-12,1.7-21.6c1.1-5.4,1.7-11,1.7-16.8l1.7-38.9c0-5.4,0.3-9.6,1-12.5c0-3.5,0.2-7.5,0.7-12c-0.3-1.3-0.1-3.7,0.7-7.2
			l1-7.2c0-2.2,0.4-5.9,1.1-11c0.7-5.1,1.2-11,1.6-17.8c0.8-11.5,3.9-22.7,9.4-33.6c1.3-1.6,2.6-5.6,4.1-12c1.3-3.2,3.4-6.1,6.2-8.6
			c3-4.5,6.2-4,9.6,1.4c6.2,4.8,9.9,13.6,11,26.4l0.7,12c0,1.6,0.6,5.9,1.9,13c0,2.6,0.2,7.2,0.7,13.9c0,3.8,0.5,8.5,1.4,13.9
			l3.1,34.6c0.5,1.6,1,4.6,1.7,9.1l1.7,13c0.3,7,0.8,12.8,1.6,17.3c0.7,4.5,1.4,9.3,2.2,14.4c0.7,5.1,1.6,11.7,2.8,19.7
			c1.1,8,2.1,15.4,3,22.3c0.9,6.9,2,13,3.5,18.5c0.3-1.3,0.5-5.3,0.5-12L985.2,1034.3z"/>
		<path d="M1043.7,1042c0.3-1,0.3-3.2,0-6.7c-0.6-11.5-0.7-19.5-0.2-24c-0.6-17.3-0.8-27.4-0.6-30.2s0.7-4.5,1.3-4.8
			c-0.6-1.9-1.2-9-1.8-21.1c-0.6-12.2-0.7-20.3-0.4-24.5c-0.3-2.6-0.4-5.7-0.2-9.4c0.2-3.7,0.4-6.2,0.7-7.4c-0.3-0.6-0.6-3-0.7-7.2
			V885l0.5-12.5V862l1.4-14.9c-0.5-1.6-0.1-4.5,1.2-8.6c-1.6-6.7,0.1-15,5-25c0.2-0.6,2-2.7,5.5-6.2c2.9-0.3,4.8-0.3,5.9,0
			c1,0.3,2.6,0.6,4.8,1c2.2,0.3,3.8,0.8,4.9,1.4c2.9,1.9,4.3,7,4.3,15.4v8.2c0.3,11.5,0.5,20.2,0.5,25.9v10.6c0,4.2-0.2,6.6-0.5,7.2
			c0.2,1.3,0.2,4.3,0,9.1v8.2c-0.5,9.9-0.6,15.7-0.5,17.3l-1.7,25.4c1.3,1,5.8,1.4,13.7,1.4h12c7,0,11.5-0.1,13.3-0.2
			c1.8-0.2,3-1.2,3.6-3.1c0.6-1.9,1-4.5,1.3-7.7c0.3-3.2,0.6-6.9,0.7-11c0.2-4.2,0.3-6.7,0.5-7.7c1-1.6,1.2-8.5,0.7-20.6
			c0-1,0.3-3.4,1-7.2c0-4.5,0.3-9.6,1-15.4c0-6.1,0.5-11.4,1.6-16.1c1-4.6,1.8-8.6,2.3-11.8c0.8-5.4,2.7-10.1,5.8-13.9
			c4-5.8,7.8-9.4,11.5-11h4.3c4.3,1.6,5.8,9.8,4.3,24.5c0,4.8-0.6,11-1.9,18.7c-1.4,15-2.2,24.8-2.2,29.3c0,4.5-0.6,12.6-1.9,24.5
			c0.3,6.1,0.4,10.1,0.1,12c-0.2,1.9-0.4,4.3-0.4,7.2c-0.3,7-0.5,11.8-0.5,14.4c-0.3,9.6-0.5,17.3-0.5,23s-0.2,12-0.7,18.7
			c0,6.7-0.6,13.6-1.7,20.6l-0.7,30.7c0,2.2,0.6,18.7,1.7,49.4c1,1.9,1.3,5.7,1,11.3c-0.3,5.6-0.9,9.5-1.7,11.8
			c-0.8,2.2-1.6,3.5-2.5,3.8c-0.9,0.3-2.2,0.5-4,0.5c-3.7,4.2-6.6,5.8-8.9,4.8c-1.9,0-3.9-1.3-6-3.8c-3.4-3.5-5.5-7.8-6.5-13
			c0-2.2-0.2-5-0.6-8.2c-0.4-3.2-0.4-6.6-0.1-10.3c0.3-3.7,0.4-7.6,0.4-11.8c-0.1-4.2-0.1-9-0.1-14.4l0.2-5.8
			c-0.3-1.3-0.2-3.4,0.5-6.2c0.6-2.9,0.7-5.1,0.2-6.7v-13l1.2-24.5c-1.6-2.2-1.7-7.5-0.2-15.8l0.5-3.8c-1.9,1-3.7,1.4-5.3,1.4
			c-4.5,2.2-9.4,3.4-14.9,3.4l-21.6-1.4v5.3c-0.3,5.1-0.4,12.8-0.2,23v9.1c0.2,8.3,0.2,20.2,0.2,35.5c0.6,16.6,1,28.6,1,36l-0.2,3.4
			c0,2.6-0.2,4.8-0.5,6.7c0,6.1-0.8,10.2-2.3,12.5c-1.5,2.2-4,3.7-7.3,4.3c-3.4,0.6-6.4-1.1-9.1-5.3c-3.8-3.8-5.8-7-6-9.6
			c-0.2-2.6-0.6-5.9-1.4-10.1c-0.8-2.6-1.4-5.6-1.7-9.1c0-10.2-0.1-16-0.2-17.3c-0.5-1.3-0.7-3.5-0.7-6.7
			C1045.2,1057.5,1044.7,1051,1043.7,1042z"/>
		<path d="M1173.8,1008.4l1.4-21.1c0-4.2,0.3-8.3,1-12.5c0-5.4,1.4-13.6,4.1-24.5c0-0.6,0.7-4.8,2.2-12.5c0-0.6,1.5-10.1,4.6-28.3
			l2.9-13.9c0-1.3,0.4-3.8,1.2-7.4c0.8-3.7,1.4-7.4,1.8-11c0.4-3.7,0.9-7.3,1.6-10.8c2.2-8.6,4.2-16,6-22.1
			c3.4-12.8,9.6-18.6,18.7-17.3l7.7,1.4c4.8,2.6,8.5,5.3,11,8.2c3.7,2.9,6.2,6,7.4,9.4c1.3,3.4,1.8,8.9,1.7,16.6
			c0.2,3.8,0.6,20.5,1.4,49.9c0.8,29.4,1.2,44.3,1.2,44.6l1.2,20.6c0,1.9,1.8,25,5.3,69.1l5.3,33.6c3.2,17.9,4.9,27.3,5.2,28.1
			c0.2,0.8,0.9,4.2,2,10.3c1.8,10.6,0.2,17.6-4.6,21.1c-4.3,1.3-7.5,0.5-9.6-2.4c-0.8,0-2.6-1.4-5.5-4.3c-0.3-1.6-1.2-3.1-2.8-4.6
			c-1.5-1.4-2.5-2.6-3-3.6c-1.8-1-3.4-5.9-4.8-14.9c-0.5-0.6-1.4-3.2-2.6-7.7c-1.1-4.5-1.4-8.2-1-11c-1.1-2.9-1.7-8.8-1.7-17.8
			c-1.4-4.8-2.2-12.3-2.2-22.6c0-10.2-0.8-18.2-2.4-24c-8.2,7.4-16.9,11.4-26.2,12c-1.8,0-2.6,0.6-2.6,1.9c0,2.9-0.5,8-1.4,15.4
			l-4.1,52.8c1.6,23.7,0.2,36.2-4.3,37.4c-1.3,0-3.4,0.6-6.4,1.9c-3,1.3-5.4,0.2-7.3-3.4c-3.7-4.2-6.3-8.4-7.8-12.7
			c-1.5-4.3-2.2-9.2-2-14.6c0.2-4.5,0.6-14.1,1.2-28.8c0.3-0.6,0.4-4.2,0.4-10.8c-0.1-6.6,0.1-11.6,0.6-15.1l3.8-29.8
			c0.5-0.6,1.1-5.4,1.9-14.4c-0.2-0.6-0.2-2.2-0.2-4.8L1173.8,1008.4z M1206.2,994.5c0.3-0.6,2.2-1.4,5.6-2.2
			c3.4-0.8,7.5-3.6,12.1-8.4c0.2,0,0.1-3.8-0.2-11.5c-0.5-13.4-0.9-23-1.2-28.8c-0.3-7.7-0.6-13.1-1-16.3c0-6.1-1.2-18.7-3.6-37.9
			l-10.6,71.5c-2.2,19.8-3.1,32-2.6,36.5L1206.2,994.5z"/>
		<path d="M1277.4,1100.1c0.4-3.2,1.6-6.6,3.6-10.3c2-3.7,4-5.5,6.1-5.5c2.1,0,3.9-0.6,5.5-1.9c1.6-1.3,3.1-1.9,4.4-1.9
			c1.4,0,3.5,0.7,6.5,2.2c3,1.4,5,2.3,6,2.6c1,0.3,1.9,0.6,2.6,1c0.7,0.3,1.4,1.4,2.2,3.4c0.7,1.9,1.1,4.3,1.1,7.2
			c-2.4,21.4-6.2,35-11.5,40.8l-7.2,2.4c-2.1,0-4.4-2.2-7-6.7c-5.1-1-7.7-3.4-7.7-7.2c0-0.6-0.9-3-2.6-7.2
			c-1.8-4.2-2.6-7.5-2.6-10.1C1276.8,1106.2,1277,1103.3,1277.4,1100.1z M1318.3,782.8l-2.2,36c-0.6,16.3-2.2,46.9-4.6,91.7
			c-2.4,44.8-3.6,75.3-3.6,91.4c0,16.2,0.5,26.6,1.4,31.4c-1.8,6.1-4,9.1-6.7,9.1c-1.4,0-2.6-0.3-3.6-1c-1-0.6-1.6-1-1.9-1h-1
			l-1-0.5c-3.7-11.5-5.8-21.8-6.2-30.7c-2.7-13.1-4.2-21.5-4.4-25.2c-0.2-3.7-0.6-6.2-1.1-7.4c-0.5-13.4-0.7-20.6-0.7-21.6V935
			c0.6-8,1-16.3,1-25v-7.2c0-6.4,0.6-15.8,1.9-28.1c1.3-12.3,1.9-22.6,1.9-30.7s1.2-17.7,3.7-28.6c2.5-10.9,4.2-18.6,5-23
			c0.9-4.5,1.5-7.7,1.8-9.6c0.3-1.9,0.7-3.7,1.2-5.3c0.8-2.6,1.8-3.8,3.1-3.8c2.4-1.9,4.1-2.9,5-2.9
			C1314.7,770.8,1318.3,774.8,1318.3,782.8z"/>
	</g>
</g>
</svg>
