<?xml version="1.0" encoding="utf-8"?>
<!-- Generator: Adobe Illustrator 23.0.1, SVG Export Plug-In . SVG Version: 6.00 Build 0)  -->
<svg version="1.1" id="Camada_1" xmlns="http://www.w3.org/2000/svg" xmlns:xlink="http://www.w3.org/1999/xlink" x="0px" y="0px"
	 viewBox="0 0 1000 828" style="enable-background:new 0 0 1000 828;" xml:space="preserve">
<style type="text/css">
	.st0{fill:#FFFFFF;}
</style>
<g>
	<g id="XMLID_268_">
		<path id="XMLID_269_" class="st0" d="M14,383.2c11.7,0,27.6,1.9,46,8.9c29.1-191,149.6-258.1,216.4-280.8
			C68.1,138,8.8,345.7-0.4,384.2C3.1,383.7,8,383.2,14,383.2z"/>
	</g>
	<g id="XMLID_262_">
		<path id="XMLID_263_" class="st0" d="M367.5,111.3c66.9,22.8,187.3,89.9,216.4,280.8c27.7-10.7,49.4-9.5,59.6-7.9
			c-4.4-18.7-20.2-77.3-58.8-135.2C546.8,192.2,479.5,125.7,367.5,111.3z"/>
	</g>
	<path id="XMLID_258_" class="st0" d="M334.9,391.2c0-1.8-0.3-3.4-0.8-5c28.3,0.6,59.8,3.3,92.9,9.8
		c-8.1-246.2-94.6-283.7-105-287.3c-10.4,3.6-96.9,41.1-105,287.2c11.9-2.5,43.6-8.2,86.5-9.6c-0.5,1.5-0.8,3.2-0.8,4.9v257.6
		c0,0.4,0,0.8,0,1.2c-0.6,16.4-13.7,29.6-29.8,29.6c-16.4,0-29.8-13.8-29.8-30.7c0-9.2-7.2-16.6-16.1-16.6
		c-8.9,0-16.1,7.4-16.1,16.6c0,35.3,27.9,64,62.1,64s62.1-28.7,62.1-64c0-0.5,0-1-0.1-1.4V391.2z"/>
	<path id="XMLID_257_" class="st0" d="M88.5,172.7c0,13.9-10.9,25.1-24.4,25.1s-24.4-11.3-24.4-25.1c0-13.9,15.2-32.6,24.4-53.9
		C74.4,140.1,88.5,158.8,88.5,172.7z"/>
	<path id="XMLID_675_" class="st0" d="M68.3,392c10.6-3,33.9-8.4,64.3-8.4c22.3,0,48.5,2.9,76.2,11.8
		c6.2-187.6,56.7-256.7,87.9-281.7C238.7,129.4,100,187.7,68.3,392z M172.4,313.4c-13.5,0-24.4-11.3-24.4-25.1
		c0-13.9,15.2-32.6,24.4-53.9c10.3,21.3,24.4,40,24.4,53.9C196.8,302.2,185.9,313.4,172.4,313.4z"/>
	<path id="XMLID_255_" class="st0" d="M344.9,52.3c0,13.9-10.9,25.1-24.4,25.1s-24.4-11.3-24.4-25.1s15.2-32.6,24.4-53.9
		C330.8,19.7,344.9,38.4,344.9,52.3z"/>
	<path id="XMLID_267_" class="st0" d="M434.9,153c-33.9-22.4-66.5-33.8-88-39.5c31.2,24.8,81.9,93.7,88.2,281.9
		c65.5-20.9,122.1-8.6,140.6-3.4C554.8,257.8,487.9,188,434.9,153z M456.3,257.6c-13.5,0-24.4-11.3-24.4-25.1
		c0-13.9,15.2-32.6,24.4-53.9c10.3,21.3,24.4,40,24.4,53.9C480.6,246.3,469.7,257.6,456.3,257.6z"/>
	<path id="XMLID_253_" class="st0" d="M557.1,86c0,13.9-10.9,25.1-24.4,25.1c-13.5,0-24.4-11.3-24.4-25.1s15.2-32.6,24.4-53.9
		C542.9,53.4,557.1,72.1,557.1,86z"/>
	<g id="XMLID_349_">
		<path id="XMLID_603_" class="st0" d="M480.4,637.8v73.4h-51.9V472H494c23.4,0,40.3,4.9,50.5,14.8s15.3,24.9,15.3,45V574
			c0,19.9-5.1,35.6-15.3,46.9c-10.2,11.3-27,16.9-50.5,16.9H480.4z M480.4,517.5v72.8h10.6c5.2,0,9-1.5,11.6-4.5
			c2.6-3,3.9-7.4,3.9-13.1v-38.5c0-5.5-1.2-9.7-3.7-12.5c-2.5-2.8-6.3-4.2-11.4-4.2H480.4z"/>
		<path id="XMLID_574_" class="st0" d="M632,625.2v86.1h-50.3V472h65.8c21.7,0,37.5,4.4,47.2,13.1c9.8,8.8,14.7,24,14.7,45.7v30.6
			c0,10.6-1.7,19-5.2,25.1c-3.4,6.1-8.6,10.6-15.5,13.5c7.5,2.9,12.6,7.4,15.2,13.5c2.6,6.1,3.9,14.5,3.9,25.1v55.8
			c0,3.8,0.5,7.1,1.5,10c1,2.9,2.4,5.2,4.4,7h-53.9c-1.5-1.1-2.6-3.2-3.4-6.1c-0.8-3-1.1-6.6-1.1-10.8v-52.5
			c0-6.4-1.1-10.8-3.2-13.1c-2.2-2.3-6.2-3.5-12.3-3.5H632z M632,517.5V577H644c5.4,0,9.1-1.1,11.1-3.2c2-2.1,3.1-5.6,3.1-10.5
			v-30.6c0-5.5-1-9.5-3.1-11.8c-2-2.3-5.8-3.5-11.1-3.5H632z"/>
		<path id="XMLID_514_" class="st0" d="M846.5,711.2H733V472h112.6v49.2h-60.3v44.5h53.9v49.9h-53.9v44.5h61.3V711.2z"/>
		<path id="XMLID_350_" class="st0" d="M920.7,637.8v73.4h-51.9V472h65.5c23.4,0,40.3,4.9,50.5,14.8c10.2,9.9,15.3,24.9,15.3,45V574
			c0,19.9-5.1,35.6-15.3,46.9c-10.2,11.3-27,16.9-50.5,16.9H920.7z M920.7,517.5v72.8h10.6c5.2,0,9-1.5,11.6-4.5
			c2.6-3,3.9-7.4,3.9-13.1v-38.5c0-5.5-1.2-9.7-3.7-12.5c-2.5-2.8-6.3-4.2-11.4-4.2H920.7z"/>
	</g>
	<g>
		<path class="st0" d="M426,825.7v-15.6h8.4v-33.2h-7.3v-11.8c2.7-0.6,4.9-1.9,6.7-3.9c1.8-2,3.1-4.5,4-7.5h12.5v56.4h7.8v15.6H426z
			"/>
		<path class="st0" d="M467,822.2c-3.1-3.2-4.7-7.6-4.7-13.2v-9.6h16.8v8.6c0,1.1,0.3,2.1,0.9,2.8c0.6,0.7,1.5,1.1,2.7,1.1
			c1.4,0,2.4-0.4,3-1.2c0.5-0.8,0.8-1.9,0.8-3.3v-13.6c0-1.5-0.3-2.6-1-3.3s-1.7-1.1-3.1-1.1c-1,0-1.8,0.3-2.5,0.9
			c-0.7,0.6-1.3,1.3-1.8,2.2l-0.5,1.6l-14.7-3.7l4.2-36.6h34.5v0.9c0,2.1-0.1,3.9-0.3,5.4c-0.2,1.5-0.5,2.7-0.9,3.8
			c-0.7,1.9-2.1,3.2-4.3,3.8c-2.2,0.6-5.4,0.9-9.7,0.9h-6.5l-1.7,14.6c1.1-2.1,2.5-3.8,4.2-5c1.7-1.2,4.3-1.8,7.6-1.8
			c4.7,0,8,1.5,9.8,4.5c1.8,3,2.8,7,2.8,12.1v16c0,5.6-1.6,10-4.7,13.3c-3.1,3.3-8.2,4.9-15.1,4.9C475.4,827,470.2,825.4,467,822.2z
			"/>
		<path class="st0" d="M548,803.4h-39.9v-15.5H548V803.4z"/>
		<path class="st0" d="M553.5,825.7v-15.6h8.4v-33.2h-7.3v-11.8c2.7-0.6,4.9-1.9,6.7-3.9c1.8-2,3.1-4.5,4-7.5h12.5v56.4h7.8v15.6
			H553.5z"/>
		<path class="st0" d="M595.1,822.1c-3.2-3.3-4.8-7.8-5-13.7v-8.6H607v8.1c0,1.5,0.3,2.6,0.9,3.3c0.6,0.8,1.6,1.2,3.1,1.2
			c1.4,0,2.3-0.4,3-1.4c0.6-0.9,0.9-2.6,0.9-5v-16c-0.8,1.7-2.1,3.2-3.7,4.4c-1.6,1.2-3.8,1.7-6.4,1.7c-4.7,0-8.3-1.2-10.9-3.5
			c-2.5-2.3-3.8-6-3.8-11.1v-10.6c0-5.9,1.7-10.4,5.2-13.6c3.5-3.2,8.4-4.9,14.9-4.9c7.1,0,12.4,1.8,15.8,5.3
			c3.4,3.5,5.1,9.2,5.1,17v30.7c0,7.3-1.7,12.8-5.2,16.3c-3.5,3.5-8.5,5.3-15,5.3C603.5,827,598.3,825.4,595.1,822.1z M613,783.6
			c0.7-0.3,1.3-0.8,1.8-1.5v-9c0-2.2-0.3-3.8-1-4.8c-0.7-1-1.8-1.5-3.3-1.5c-1.3,0-2.3,0.3-3,1c-0.7,0.7-1,1.7-1,3.1v10.1
			c0,1,0.3,1.7,1,2.3c0.7,0.5,1.7,0.8,3,0.8C611.5,784.1,612.3,783.9,613,783.6z"/>
		<path class="st0" d="M661.8,825.7v-70.8H679c6.3,0,10.8,1.3,13.3,4c2.5,2.7,3.8,6.5,3.8,11.4v4.3c0,3.9-0.7,7.1-2.1,9.4
			c-1.4,2.4-3.8,4-7.2,5c3.6,0.9,6.2,2.5,7.9,4.8c1.6,2.3,2.4,5.5,2.4,9.5v5.9c0,5.3-1.2,9.4-3.5,12.3c-2.4,2.9-6.7,4.3-13.1,4.3
			H661.8z M666.5,759.1V787h12.6c4.4,0.1,7.6-1,9.5-3.1c1.9-2.1,2.9-5.2,2.9-9.4v-3.9c0-3.7-0.9-6.6-2.7-8.6c-1.8-2-5-2.9-9.8-2.9
			H666.5z M666.5,791.3v30H680c4.9,0,8.1-1,9.7-3.1c1.7-2.1,2.5-5.2,2.5-9.3v-5.5c0-4-1-7-3-9c-2-2-5.3-3.1-10-3.1H666.5z"/>
		<path class="st0" d="M714.6,794.6v31.1H710v-70.8h17.3c6.1,0,10.4,1.4,13.1,4.3c2.7,2.9,4,7,4,12.3v6.3c0,3.9-0.8,7-2.4,9.4
			c-1.6,2.4-4.1,4.1-7.4,5.1c3.2,0.7,5.5,2.1,6.9,4.1c1.4,2.1,2,5.3,2,9.5v15.4c0,1,0.1,1.9,0.4,2.6c0.3,0.7,0.6,1.3,1.2,1.8h-5.3
			c-0.3-0.5-0.6-1.2-0.7-1.9c-0.2-0.7-0.2-1.6-0.2-2.6V806c0-4.1-0.9-7.1-2.6-8.8c-1.8-1.7-4.9-2.6-9.3-2.6H714.6z M714.6,759.2
			v31.2h12.1c4.2,0,7.4-1.1,9.6-3.3c2.2-2.2,3.2-5.4,3.2-9.5v-5.8c0-4.1-0.9-7.2-2.8-9.4c-1.8-2.2-5.1-3.2-9.7-3.2H714.6z"/>
		<path class="st0" d="M785,808.3h-21.7l-4.1,17.4h-4.8l17.2-70.8h4.6l17.9,70.8h-4.9L785,808.3z M764.3,803.7h19.5l-8.5-35.5
			l-1.4-8.8l-1.5,8.9L764.3,803.7z"/>
		<path class="st0" d="M807,822c-3.1-3.1-4.6-7.6-4.6-13.3v-7.4h4.9v7.3c0,4.3,1.2,7.6,3.5,10c2.4,2.4,5.8,3.6,10.3,3.6
			c4.4,0,7.7-1.2,9.8-3.7c2.1-2.4,3.2-5.4,3.2-8.9v-3.3c0-1.5-0.2-2.9-0.5-4.1c-0.4-1.2-0.9-2.3-1.6-3.2c-1.4-1.9-3.3-3.4-5.5-4.6
			c-2.3-1.2-4.6-2.4-7.1-3.3c-1.3-0.6-2.6-1.2-3.8-1.8c-1.3-0.6-2.5-1.2-3.6-1.9c-2.4-1.3-4.4-3.1-5.9-5.3c-1.6-2.2-2.3-5.1-2.3-8.8
			v-2.8c0-4.9,1.5-8.8,4.5-11.8c3-3,7.1-4.5,12.4-4.5c5.4,0,9.5,1.4,12.5,4.2c2.9,2.8,4.4,6.8,4.4,11.9v6.4h-4.7v-6.2
			c0-3.9-1.1-6.9-3.2-9c-2.2-2-5.2-3-9.1-3c-3.8,0-6.8,1.1-8.9,3.3c-2.1,2.2-3.2,5.1-3.2,8.7v2.5c0,1.4,0.2,2.7,0.5,3.8
			c0.4,1.2,0.9,2.2,1.5,3.1c1.4,1.7,3.1,3.2,5.3,4.3c2.2,1.1,4.5,2.2,6.9,3.3c1.3,0.5,2.6,1.1,3.9,1.7c1.3,0.6,2.6,1.3,3.8,2.1
			c2.5,1.4,4.5,3.2,6.1,5.6c1.6,2.3,2.4,5.4,2.4,9.3v3.4c0,1.6-0.2,3.1-0.5,4.5c-0.3,1.4-0.8,2.8-1.5,4.1c-1.4,2.6-3.3,4.7-6,6.2
			c-2.6,1.5-5.9,2.3-9.7,2.3C814.7,826.7,810,825.2,807,822z"/>
		<path class="st0" d="M846.9,825.7v-4.5h10v-61.9h-10v-4.4h24.5v4.4h-9.9v61.9h9.9v4.5H846.9z"/>
		<path class="st0" d="M883,825.7v-70.8h4.7v66.2h23.6v4.6H883z"/>
	</g>
</g>
</svg>
