<svg version="1.1" id="Camada_1" xmlns="http://www.w3.org/2000/svg" xmlns:xlink="http://www.w3.org/1999/xlink" x="0px" y="0px"
	 viewBox="0 0 897.3 1112.1" style="enable-background:new 0 0 897.3 1112.1;" xml:space="preserve">
<style type="text/css">
	.prep-right-close{ fill: #000000 }
</style>
<g id="Objects">
	<g class="prep-right-close">
		<path d="M36.4,23.1l20.2-3.4l25.9-2.1l13.7,2.1c1,1.1,3.2,1.8,6.8,2.1c7-0.3,16.3,4.3,28.1,13.9c2.9,1.1,5.3,3.1,7.2,5.9
			l13.7,19.3c0.5,0.6,1.2,2,2.2,4.4c1,2.4,2.3,5.1,4,8.2c-0.5,0-0.1,1.1,1.1,3.4c3.1,6.2,4.6,9.8,4.3,10.9c1.2,1.1,2.4,4.8,3.6,10.9
			c1.2,6.2,1.6,10.4,1.1,12.6c0.2,0.3,0,3.5-0.7,9.7c-1.7,13.4-4.7,23.4-9,29.8l-4.7,10.1l-7.9,13.4l-4.7,5
			c-8.6,11.2-19.2,19.9-31.7,26c-0.5,0.3-1.2,0.6-2.2,0.8l-8.6,3.4l-14,4.2c0,8.1,0.8,26.9,2.5,56.3c1,10.1,1.7,15.7,2.2,16.8
			c0,9.2-0.5,15.5-1.4,18.7c-1,3.2-2.5,5.6-4.7,7.1c-2.2,1.5-5.9,2.4-11.2,2.7c-1.4,0.6-4,0.1-7.6-1.5c-3.6-1.5-6.5-3.9-8.6-6.9
			l-2.2-13.4c0.5-0.6-0.2-3.2-2.2-8c-1.7-2.2-3-6.2-4-11.8L45,233.9l-0.4-13.4c-13.9,1.1-22.3-3.4-25.2-13.4
			c-2.4-5.3-2.9-8.8-1.4-10.5l1.8-5.5c2.9-5.3,8.4-8,16.6-8h7.6c-0.5-0.6-0.7-2.5-0.7-5.9l-1.4-17.6V152l-0.4-5.5
			c0.2-2.5,0.1-5.3-0.4-8.4v-2.5l-0.7-10.5v-8L40,113c0-19.9-1-32.5-2.9-37.8c-7.9,5.3-13.2,8.2-15.8,8.6c-2.6,0.4-7.1-1.6-13.3-6.1
			c-2.6-2.5-4.1-5.3-4.3-8.4c-4.3-7-5.8-12.7-4.3-17.2c0.5-2.2,2.4-5.7,5.8-10.5c0.2-1.1,3.1-3.6,8.6-7.6C18,29,25.6,25.3,36.4,23.1
			z M110.9,71.4c-6.2-4.2-18.4-6.3-36.4-6.3l2.2,26c1.9,15.1,3.6,43.4,5,84.8c2.2-0.6,3.6-1.3,4.3-2.1c1.9-1.7,4-2.5,6.1-2.5
			c3.1-0.8,6.1-3.4,9-7.6c7.2-7,12.7-12.9,16.6-17.6l11.9-16c0.7-0.3,1.9-3.4,3.6-9.4c1.7-6,2.8-11,3.2-14.9
			c0-8.1-0.7-12.7-2.2-13.9c0-0.6-1.4-4.1-4.3-10.5c-1-0.8-3.8-2.9-8.6-6.3L110.9,71.4z"/>
		<path d="M240.1,197.4c-1.9,1.1-3.1,1.7-3.6,1.7c-0.2,0.8-0.4,2.4-0.4,4.6v5c0,2-1.1,8-3.2,18.1v4.2c0,4.2-0.6,7.6-1.8,10.1
			l-1.4,18.5l-2.2,10.5c-0.5,1.7-0.5,3.2-0.2,4.6c0.4,1.4,0.7,6.5,1.1,15.3c0.4,8.8,0.1,15.2-0.9,19.1l-2.2,3.8
			c-4.8,1.7-7.9,2.1-9.4,1.3c-1.4-0.8-3.8-1.4-7.2-1.7c-3.4-0.3-5.2-0.5-5.6-0.6c-0.4-0.1-1.6-0.7-3.6-1.7c-2-1-3.4-1.8-4-2.3
			c-0.6-0.6-1.5-1.4-2.7-2.5c-3.1-2.5-4.7-8-4.7-16.4c-0.5-1.7-0.4-3.6,0.4-5.9c-1.4-0.8-1.9-3.1-1.4-6.7c0.7-1.7,1.1-4.3,1.1-8
			c0-3.6,0.4-6.6,1.1-8.8v-6.7c0-2.5,0.8-7.7,2.5-15.5c0-2.2,0.4-4.2,1.1-5.9c-0.5-0.6,0.1-2.9,1.8-7.1c-0.5-0.8,0.1-4.9,1.8-12.2
			c-0.7-0.8-0.8-3.4-0.4-7.8c0.5-4.3,1.1-7.8,1.8-10.3c0-5.3,0.4-8.5,1.1-9.7c-0.2-0.8-0.6-3.5-1.1-8l0.7-5c0-3.4,1.1-8.5,3.2-15.5
			c1.9-16,2.9-24.6,2.9-26c3.4-16.2,5-26.3,5-30.2c0.7-0.3,1.4-3,2.2-8.2c0.7-5.2,0.5-8.9-0.7-11.1c-10.8,4.8-19.8,10.4-27,16.8
			c-4.8,4.8-8,6.6-9.7,5.5c-3.4-2.2-5-5.5-5-9.7l-1.4-6.7c-0.2-0.3-0.9-1.9-2-4.8c-1.1-2.9-1.6-5.1-1.4-6.5c0.1-1.4,0-3.3-0.4-5.7
			c-0.4-2.4-0.3-4,0.2-4.8c2.2-4.8,5-8.3,8.6-10.5l8.6-7.1l6.1-4.2c0.5,0,5-2.9,13.7-8.8c0.5-1.1,2.3-2.1,5.4-2.9
			c3.1-0.8,10.1-3.4,20.9-7.6c7.2-0.8,11.4-1.3,12.6-1.3c7.7-1.1,14.2-0.3,19.4,2.5c3.6,1.1,5.7,1.6,6.3,1.5
			c0.6-0.1,1.4-0.1,2.5,0.2c1.1,0.3,1.9,0.4,2.3,0.4c0,0.6,1.1,0.8,3.2,0.8l6.8,2.9c1.2,0,2.8,0.7,4.7,2.1c1.4-0.3,3.4,0.4,5.9,1.9
			c2.5,1.5,6.2,3.7,11.2,6.5c4.9,2.8,7.4,5.2,7.4,7.1c1.4,0.6,3,2.1,4.7,4.6l4.3,5l6.8,10.5c0.5,0.3,1.6,1.7,3.2,4.2
			c2.4,4.8,3.7,7.6,4,8.4c0.2,0.8,0.5,1.6,0.7,2.3c0.2,0.7,1.2,3.1,2.9,7.4c3.4,7.8,4.7,14.7,4,20.6c0,0.3-1.2,4.6-3.6,13
			c-4.3,14.8-10.9,26.6-19.8,35.3c-1.9,1.7-4.4,3.9-7.6,6.5c-3.1,2.7-5.6,5-7.6,6.9c-9.1,6.4-14.5,10.5-16,12.2
			c-1.6,1.7-2.9,3.1-4.1,4.2l-4,2.1l0.7,2.5c0-1.1,0.7-0.6,2,1.5c1.3,2.1,2.2,3.7,2.7,4.8c0,1.4,1.2,3.1,3.6,5
			c0.5-0.3,1.1,0,1.8,0.8c1.4,1.7,2.2,4.3,2.2,8c1.7,1.1,4.2,4.5,7.6,10.1c3.4,2.8,6.2,6.7,8.6,11.8c1.7,2.2,3,3.8,4,4.6
			c1,1.7,2.9,3.9,5.8,6.7c2.9,2.8,4.8,4.7,5.8,5.7c1,1,2,2,3.2,3.1c4.3,3.9,7.3,6.9,9,8.8l4.3,3.4c8.9,10.1,13.6,15.5,14,16.4
			c-0.2,2-1.9,4.9-5,8.8c-0.2,4.5-5.8,8.3-16.6,11.3c-3.6,0-8.5-1.9-14.8-5.7c-6.2-3.8-11-7.8-14.4-12c-10.6-9-17.5-16-20.9-21
			c-9.8-11.5-16.9-22.5-21.2-33.2c-1-0.8-2.1-2.2-3.4-4.2c-1.3-2-2.6-3.5-3.8-4.6l-4.7-10.5l-6.5-10.5L240.1,197.4z M247,115.9
			c-1.7,9.5-2.5,17.8-2.5,24.8c-0.5,3.9-1,6.6-1.6,8c-0.6,1.4-0.9,4.6-0.9,9.7s1.3,8,4,8.8c2.6,0,6.5-1.7,11.5-5l7.6-8
			c2.6-2.5,8.8-7.1,18.4-13.9l9-10.1l3.6-5.5l1.4-3.8c1.9-3.6,2.5-7.4,1.8-11.3l-0.7-7.1c-1.7-8.7-2.8-13.8-3.4-15.3
			c-0.6-1.5-1.5-3.2-2.7-5c-1.2-1.8-2.5-3.4-4-4.8c-1.4-1.4-2.3-2.4-2.5-2.9L274.7,68c-0.2-0.3-1.7-0.7-4.3-1.3
			c-4.1-2-9.8-2.2-17.3-0.8l-2.2,13.4c0,1.7-0.7,4.6-2,8.8c-1.3,4.2-1.6,7.3-0.9,9.2c-0.2,0.8-0.4,2.5-0.4,4.8
			c0,2.4-0.2,5.5-0.7,9.4V115.9z"/>
		<path d="M403.2,199.9v16.8c0,17.4,0.8,27,2.5,29c-0.2,0.3,0.4,3.6,1.8,10.1c0,2.2,1,5.7,2.9,10.5c0,1.4,3.4,4.8,10.1,10.1
			c2.9,0,10-2.8,21.2-8.4l25.6-11.3c3.1-1.1,6.1-0.6,8.8,1.5c2.8,2.1,4.4,5.7,5,10.9c0.6,5.2,0.5,8.9-0.4,11.1
			c-0.8,2.2-2.9,5-6.1,8.4c-3.2,3.4-5.3,5.7-6.3,7.1c-1,1.4-2.8,2.9-5.4,4.4c-2.6,1.5-5.6,3.1-8.8,4.8c-3.2,1.7-5.5,2.9-6.7,3.8
			c-9.4,5-16.6,7-21.6,5.9c-3.1,0-6.3-0.7-9.5-2.1c-3.2-1.4-5-2-5.4-1.9c-0.4,0.1-1.3,0-2.9-0.4c-1.6-0.4-3.1-0.8-4.5-1.3
			s-5.2-1.3-11.2-2.7c0-1.1-1.7-2.2-5-3.4l-9.7-9.2c-1.7-1.1-3.5-4.6-5.4-10.5l-3.2-6.3c-1-0.8-2.3-4.1-4-9.7
			c-1-1.4-1.6-3.9-1.8-7.6c-1.2-3.1-1.8-7.4-1.8-13c-1-1.4-2-6.7-3.2-16c-1.7-12-1.8-22.8-0.4-32.3c0-5.3,0.8-10.5,2.5-15.5
			c0.2-2.2,0.5-4.5,0.7-6.7c1.2-7.3,2-12.9,2.5-16.8c-1-3.9,0.6-13.3,4.7-28.1c0-2.2,0.8-5.5,2.3-9.9c1.6-4.3,2.5-8.9,2.7-13.6
			l2.9-8c0-2.2,1.8-10.5,5.4-24.8c1.9-5.3,2.9-8.4,2.9-9.2l9-22.3l4.3-6.7c1.7-2,4.2-3.6,7.6-5c1.4-1.4,5.3-1.3,11.5,0.4
			c3.8,1.7,6.5,3.4,7.9,5c1.7,0.8,3.7,1.3,6.1,1.3l27.7-2.1c7,0.6,11.6,1.5,14,2.7c2.4,1.3,4.7,3.4,7,6.5c2.3,3.1,3.1,6.2,2.5,9.2
			c-0.6,3.1-1.6,5.5-3.1,7.1c-3.1,3.1-8.9,6.7-17.3,10.9c-14.6,9.2-22.6,14.1-23.8,14.7l-8.6,4.6c-3.6,2.8-5.9,5.7-6.8,8.8
			c-7.4,31.4-11.5,48.8-12.1,52.3c-0.6,3.5-1,5.6-1.1,6.3c-0.1,0.7-0.2,1.2-0.2,1.5l7.2-0.8c10.6-3.9,16.8-5.2,18.7-3.8
			c1,0,2.3-0.4,4-1.3c8.9-3.6,16.7-5.2,23.4-4.6c1.2-0.8,2.5-0.3,4,1.7c1.4,2,2.5,4.3,3.2,7.1c1.4,7-0.4,12.5-5.4,16.4
			c-10.1,7.8-22.1,14.1-36,18.9c-4.6,4.2-10.9,6.9-19.1,8L403.2,199.9z"/>
		<path d="M572.8,227.2c0,44.8,0.8,69.2,2.5,73.1c0,14-2.3,22.7-6.8,26c-5,3.4-11.3,3.4-18.7,0c-3.6-1.7-6.5-4.1-8.6-7.1l-1.4-13.4
			c0.5-0.6-0.2-3.2-2.2-8c-1.2-1.7-2.4-5.7-3.6-12.2l-1.4-39.9l0.4-13.4c-14.2,0.8-22.4-3.9-24.8-14.3c-2.2-5.3-2.5-8.8-1.1-10.5
			l1.8-5.5c2.9-5,8.5-7.6,16.9-7.6l7.6,0.4c-0.5-0.6-0.7-2.5-0.7-5.9l-0.7-11.8v-18.9c0.2-2.5,0.1-5.3-0.4-8.4l0.4-2.5l-0.4-10.5
			v-12.2c0.5-19.3-0.1-31.9-1.8-37.8c-6,3.6-10.1,5.9-12.2,6.7c-5.3,2-10.9,0.1-16.9-5.5c-2.6-2.8-4.1-5.7-4.3-8.8
			c-2.4-4.5-3.8-7.8-4.3-10.1c-0.5-2.2-0.2-4.6,0.7-7.1c0.7-5.3,5.6-11.2,14.8-17.6c4.1-4.8,12.7-8.1,25.9-10.1
			c0.7,0,2.3-0.3,4.7-0.8h3.2c4.3-0.8,7.4-1.3,9.4-1.3l25.9-1.3l13.7,2.5c1,1.4,3.2,2.2,6.8,2.5c7,0,16.2,5,27.7,15.1
			c2.9,1.1,5.2,3.1,6.8,5.9l13.3,20.2c3.1,7,5,11.2,5.8,12.6c-0.5,0-0.2,1,0.7,2.9c3.1,7,4.4,10.9,4,11.8c1.2,1.1,2.3,4.8,3.4,10.9
			c1.1,6.2,1.3,10.4,0.5,12.6c1.4,1.7-0.6,12-6.1,31.1c-0.2,0.8-1.8,3.5-4.7,8l-5,10.1l-8.3,13c-8.9,9.5-16,16.2-21.2,20.2
			c-3.8,3.4-9.1,6.4-15.8,9.2c-0.5,0.3-1.1,0.6-1.8,0.8C591.1,222.2,583.3,224.4,572.8,227.2z M578.1,185.6c5-0.6,9.2-3.1,12.6-7.6
			c8.2-7.6,13.9-13.3,17.3-17.2l12.2-15.5c0.7-0.3,2-3.3,3.8-9c1.8-5.7,3.1-10.7,3.8-14.9c0-8.4-0.6-13-1.8-13.9
			c0-0.6-1.3-4.1-4-10.5l-1.8-2.1c-1.7-0.8-3.8-2.4-6.5-4.6l-10.4-4.2c-4.8-3.9-14.6-6.4-29.5-7.6c-4.1-0.3-6.4-0.4-6.8-0.4l1.4,26
			c1.4,14.6,2.3,36.5,2.5,65.9v19.3C571.9,189.1,574.3,187.9,578.1,185.6z"/>
		<path d="M756.7,67.2c1.2-4.8,1.9-7.5,2-8.2c0.1-0.7,0.4-1.6,0.9-2.7c1.9-4.5,2.9-7.6,2.9-9.2v-5.9c0-2-0.1-3.1-0.4-3.4
			c-0.2-0.3-1.3-0.4-3.2-0.4c-3.6,0.8-8.5,2.9-14.6,6.1c-6.1,3.2-10.4,6.2-13,8.8c-2.5,2.7-5.8,7.8-9.9,15.5
			c-4.1,7.7-6.3,12.8-6.7,15.3s-1,4.5-1.8,5.9c-0.8,1.4-1.7,4.7-2.5,9.9c-0.8,5.2-1.3,8.5-1.3,10.1c0,1.5,0.6,2.3,1.8,2.3
			c2.6,0.6,1.8,1.7-2.5,3.4c-0.7,0.6-2,0.8-4,0.8c-1.9,0-3.1-0.3-3.6-0.8c-4.6,0-7.2-0.7-7.9-2.1c-2.6,0-5.5-1.2-8.6-3.6
			c-3.1-2.4-5.2-5.1-6.1-8.2c-3.4-11.5-2.3-22.3,3.2-32.3c3.1-10.6,6.5-17.5,10.1-20.6c4.1-10.1,6.5-15.6,7.4-16.6
			c0.8-1,1.6-1.6,2.3-1.9c1-2.8,1.4-4.5,1.4-5.2c0-0.7,1.1-1.8,3.2-3.4c2.2-1.5,3.8-2.9,5-4c2.4-2.2,3.6-3.9,3.6-5
			c1.7,0,3.2-0.4,4.7-1.3c3.4-0.8,5.5-2.2,6.5-4.2c1.4,0,4.4-0.8,9-2.5c4.6-1.7,10.7-2.1,18.4-1.3c1.2,0.6,3.5,1.9,6.8,4
			c3.4,2.1,5.3,3.4,5.8,3.8c0.5,0.4,1.1,0.8,1.8,1.1c1.9,0.8,3.6,2.4,5,4.6c2.2,0.6,4.2,1.5,6.1,2.9c2.4,2.5,5.4,4.5,9,5.9l6.1,4.2
			c2.9,0.6,5.3,1,7.2,1.3c1,0,2.2,2,3.6,5.9c0.5,14.6-5,34.2-16.6,58.8c-0.7,2-2,5-3.8,9c-1.8,4.1-2.8,6.9-3.1,8.6
			c-2.4,6.2-8.9,22.1-19.4,47.9c-10.6,25.8-16.7,40.5-18.4,44.1c-0.2,0-0.8,0.8-1.8,2.3c-1,1.5-1.7,2.5-2.2,2.7l-1.8,4.6
			c0,1.4-1.3,2.5-3.8,3.1c-2.5,0.7-4.5,0.9-5.9,0.6h-11.5c-5.8-1.4-9.1-2.7-10.1-3.8c-1-1.1-1.4-4.6-1.4-10.5
			c0-18.5,3.2-33.7,9.7-45.8c2.4-7,4.6-12.5,6.7-16.6c2-4.1,3.3-7.2,3.8-9.4c0.5-2.2,2.4-5.3,5.8-9.2c1.4-4.5,2.9-7.8,4.3-10.1
			c1.2-0.6,2.9-3.2,5.2-8c2.3-4.8,3.4-7.9,3.4-9.4c0-1.5,1.1-3.1,3.2-4.8c0-1.1,0.7-2.9,2.2-5.5c0-3.9,0.7-6.8,2.2-8.6
			c1.4-1.8,2.2-4,2.2-6.5C753.5,68,754.5,67.2,756.7,67.2z M701.3,264.2c0.2-3.9,0.8-6.2,1.8-6.7c1-0.6,1.9-0.6,2.7-0.2
			c0.8,0.4,5.2,1,13.1,1.9c2.2,3.1,4,4.9,5.4,5.5c5.8,6.7,9.6,10.1,11.5,10.1c1.9,0.3,2.8,2.3,2.7,6.1c-0.1,3.8-1.3,7.2-3.4,10.3
			c-3.4,8.7-7.8,15.4-13.3,20.2c-2.6,1.1-4.7,1.7-6.1,1.7c-1.4,0-5.3-0.6-11.7-1.7c-6.4-1.1-10-3.4-11-6.7v-9.7
			c0-5.3,0.5-8.4,1.6-9.2c1.1-0.8,1.6-3.1,1.6-6.7l1.1-8.8C699,268.6,700.3,266.7,701.3,264.2z"/>
	</g>
	<g class="prep-right-close">
		<path d="M67,437.8c11.3,1.7,17.5,2.7,18.5,3.1s1.7,1,2,1.7c0.2,0.7,0.5,1.6,0.9,2.7c0.4,1.1,0.4,2.7,0.2,4.6
			c-0.7,4.8-2.3,11.2-4.9,19.3c-2.5,8.1-3.4,15.5-2.7,22.3c-3.1,14-5.2,29.5-6.1,46.6v5.5c6-12.9,9.4-19.9,10.1-21
			c2.9-3.9,7.9-12.5,15.1-25.6l11.2-13.4c0.2-0.3,0.9-1.5,2-3.8c1.1-2.2,1.7-3.9,2-5c14.4-18.5,25.3-28.3,32.8-29.4
			c4.8-1.1,9.6-1.3,14.4-0.4c5.8,1.4,8.6,4.7,8.6,9.9c0,5.2-2.9,11-8.6,17.4l-19.8,31.1c-1,3.1-2.6,6-5,8.8c-1,1.4-3,4.1-6.1,8
			c-2.4,3.4-7.6,11.8-15.5,25.2l-8.3,10.1c-1.4,1.7-3.1,4.6-5,8.8c-4.8,8.4-7.1,13.8-6.8,16.2c0.2,2.4,1.2,5.2,2.9,8.6
			c3.6,4.2,8,11.3,13.3,21.4c4.1,4.5,8.4,11.2,13,20.2l8.6,8c1.7,1.1,3.6,3.4,5.8,6.7c9.1,10.6,14.9,17.3,17.5,20
			c2.5,2.7,5,4.7,7.4,6.1c0.7,0.8,3.1,3.2,7,7.1c4,3.9,6.2,6.9,6.7,8.8c0.5,2-0.6,4.6-3.2,8c-1.2,0-7.4,1.3-18.7,3.8h-9.7
			c-1-0.6-2.6-1-5-1.3c-7.4-0.3-12.8-1.4-16.2-3.4L113,683l-7.9-6.7c-0.7-2.5-2.6-6.4-5.8-11.8l-2.5-5.9c-3.6-4.2-5.9-7.3-6.8-9.2
			c-5.8-10.4-10.2-17.5-13.3-21.4l-4-8c-1-1.1-2.5-3.4-4.7-6.7l-1.8-1.7c0,4.8-0.5,8.7-1.4,11.8c-1,3.1-1.7,5.6-2.3,7.6
			c-0.6,2-0.7,7-0.2,15.1c-0.5,2.2-0.8,5.9-1.1,10.9c-0.7,4.2-0.7,7,0,8.4c-0.2,0.6-1.1,5.7-2.5,15.5c-1.2,3.1-1.4,7.4-0.7,13
			c-0.5,9.5-4.7,15.1-12.6,16.8c-3.8,0.3-7.7,0.4-11.5,0.4c-2.6-0.6-7.1-3.8-13.3-9.7c-3.8-2.5-6.1-6.2-6.8-10.9
			c-0.7-4.8-0.5-9.2,0.7-13.4c0-2.5,0.2-7.4,0.7-14.7c-0.7-4.2-0.4-8.4,1.1-12.6c2.2-4.8,3.2-9.6,3.2-14.5c0-4.9-0.4-9.9-1.1-14.9
			c-1.7-6.4-1.7-12.7,0-18.9l0.7-10.1c0-9,0.7-15.8,2.2-20.6c1.7-21,3.5-34.4,5.4-40.3l1.4-6.3c0-4.5,1.6-10.5,4.7-18.1
			c0.7,0.3,1.1-0.8,1.1-3.4c1-9,2.1-14.7,3.4-17.2c1.3-2.5,1.7-8,1.3-16.4c0-4.5,1.1-9.1,3.2-13.9c2.6-6.4,4.4-10,5.2-10.7
			c0.8-0.7,1.4-1.2,1.6-1.5c0.2-0.3,1-0.8,2.2-1.5c1.2-0.7,1.9-1.2,2.2-1.5v0.4C54.4,439,59,438,67,437.8z"/>
		<path d="M195.5,566.3l1.8-11.3V552c0.5-2.5,0.9-3.9,1.3-4.2c0.4-0.3,0.4-0.9,0-1.9c-0.4-1-0.1-2.2,0.7-3.8c0.8-1.5,1.5-3.8,2-6.9
			c-0.5-2-0.6-3.4-0.4-4.2c0.2-0.8,0.7-3.9,1.3-9.2c0.6-5.3,1.3-8.1,2-8.4c0.5-4.5,1.1-8,1.8-10.7c0.7-2.7,1.1-4.3,1.1-5
			c0-0.7,0.6-2.4,1.8-5.2c0.5-3.1,0.9-4.8,1.3-5.2s0.4-0.9,0.2-1.5c-0.5-0.8,0.6-6.3,3.2-16.4c2.6-10.9,3.8-16.4,3.6-16.4v-2.1
			c0.5-2,0.5-3.5,0.2-4.6c-0.4-1.1,0.2-3.6,1.6-7.4c1.4-3.8,2.8-5.8,4-6.1c1.7-2,2.6-2.9,2.9-2.9c5.5-0.8,9.8-0.3,13,1.7l4.7,4.2
			c0,1.4,0.7,2.1,2.2,2.1c1.2,0.3,3.3,1.7,6.3,4.2c3,2.5,5,4.5,5.9,5.9c0.5,1.1,0.7,3.3,0.7,6.5c0,3.2-1.2,11-3.6,23.3
			c-3.6,17.4-5.4,27.6-5.4,30.7l-2.2,8.4c0,2.8-0.8,8.8-2.5,18.1c-3.4,18.2-5.8,35.1-7.2,50.8c-2.6,10.9-4.8,31.8-6.5,62.6h0.7
			l4-0.4c2.2,0,4.6-0.4,7.2-1.3c2.9,0,4.6-0.3,5-0.8l8.6-5.9c1-1.1,3.1-1.9,6.3-2.3c3.2-0.4,5.2-0.8,5.9-1.1
			c1.4-0.8,6.5-2.1,15.1-3.8c2.4,1.4,4.4,2.2,6.1,2.3c1.7,0.1,3.6,1.9,5.8,5.2l2.9,4.2l6.8,7.6c0,0.8,1.1,3.1,3.2,6.7
			c3.4,4.2,2.6,8-2.2,11.3c-0.5,0.3-1.9,0.8-4.3,1.7c-10.3,3.4-16.4,5.9-18.4,7.6c-7.7,3.4-13.4,5-17.3,5l-5,2.1
			c-6.2,4.2-12.4,7-18.4,8.4c-3.1,2.5-7.3,4.8-12.6,6.7L220,707l-6.5,2.1c-3.4,3.1-5.6,3.4-6.8,0.8c0-0.3-0.1-0.6-0.4-1
			c-0.2-0.4-0.5-0.9-0.7-1.5L190.4,691c-1.4-1.1-2.2-2.4-2.2-3.8c0-3.6-0.5-6.5-1.4-8.6c-1-2.1-0.5-5.8,1.4-11.1
			c0.7-3.1,1-6.2,0.7-9.2c-1.4-5.3-1.2-10.8,0.7-16.4c0-0.6,0.2-2.5,0.7-5.9c-0.2-1.7-0.1-3.2,0.4-4.6c0.5,0,0.5-1,0.2-3.1
			c-0.4-2.1-0.5-4.1-0.5-6.1c1.2-3.6,1.7-9.1,1.6-16.4c-0.1-7.3,0.5-12.2,2-14.7c0-2.2,0.2-5.3,0.7-9.2c0.5-3.9,0.5-6.3,0.2-7.1
			c-0.4-0.8-0.2-1.4,0.5-1.7C196,570.2,196,568,195.5,566.3z"/>
		<path d="M326.2,571.7l2.5-31.1c0-1.7,0.5-4.2,1.6-7.6c1.1-3.4,1.7-5.5,2-6.3c0-0.6,0.2-1.5,0.7-2.9c0-7.6,1.8-14.1,5.4-19.7
			c5.5-14.8,9.7-25.9,12.6-33.2c2.9-7.3,6-13.3,9.4-18.1c0.2-1.4,2.8-3.6,7.6-6.7c9.8-6.2,19.1-9.2,27.7-9.2
			c8.6,0,16.9,1.5,24.8,4.6c2.6,0.6,6.2,2.7,10.6,6.3c4.4,3.6,7,5.6,7.7,5.9c4.1,2.8,8.3,8.8,12.8,17.9c4.4,9.1,6.8,15.8,7.2,19.9
			c0.4,4.2,1.8,10.9,4.3,20c2.5,9.1,3.8,15.8,3.8,20.2c0,4.3,0.7,10.9,2,19.5c1.3,8.7,1.9,15.7,1.6,21c-1.4,39.5-5.8,68-13,85.7
			c-1.4,12.3-4.2,20.2-8.3,23.5l-0.7,5.9c-0.2,3.4-1.6,7.1-4.1,11.3s-5.7,7.4-9.5,9.7c-0.7,0.8-5.5,2.1-14.4,3.8
			c-12.7,2.8-21.1,4.2-25.2,4.2c-5.3,2-11.9,1.6-20-1.1c-8-2.7-12.7-4.1-13.9-4.2c-1.2-0.1-3.8-1.7-7.7-4.6c-4-2.9-6.5-5.2-7.7-6.9
			c-3.8-3.4-6.1-6-6.8-8l-5-11.8c-3.1-3.6-5.3-8.9-6.5-15.8c-1.2-6.9-2.4-11.3-3.6-13.2c-1.2-3.1-2.3-6.3-3.2-9.7
			c0.2-2,0.4-5.5,0.4-10.5v-4.2c-1-4.2-0.7-8.3,0.7-12.2c0.2-2,0.4-4.4,0.5-7.3c0.1-2.9,0.4-7.2,0.9-12.8v-5.5
			C325.4,580.1,326.4,574.5,326.2,571.7z M367.2,602.4l1.1,37.8c3.8,16,9.5,27.2,16.9,33.6c1.2,1.4,4,2.9,8.3,4.6l9,2.5
			c1.2,0,2.5-0.6,4-1.7c1.7-0.6,2.9-1.3,3.6-2.1c1.7-2.5,3.4-4.8,5-6.7c1.7-2,2.4-2.9,2.2-2.9c1-1.1,1.3-2.9,1.1-5.5
			c0.7-0.8,1.7-2.7,2.9-5.5c2.6-15.7,5.3-25.8,7.9-30.2c1-12.3,1.4-20.2,1.4-23.5c0-11.8-2.6-26.2-7.9-43.3
			c-2.9-3.9-4.3-16.4-4.3-37.4c-1.4-4.2-2.3-8-2.5-11.6c-0.2-3.5-1-7.3-2.3-11.3c-1.3-4.1-2.3-6.8-3.1-8.2c-0.7-1.4-1.1-2.7-1.3-4
			c-0.1-1.3-0.7-2.9-1.6-4.8c-3.8-6.7-9.7-3.1-17.6,10.9l-6.1,12.6c0,0.6-1.2,5.7-3.6,15.5c-3.8,15.7-5.7,24.4-5.6,26.2
			c0.1,1.8-1.3,7.6-4.1,17.4c-0.2,0.8-0.3,2.8-0.2,5.9c0.1,3.1-0.4,7.3-1.4,12.8S367.2,595.4,367.2,602.4z"/>
		<path d="M575.6,698.2l-9,0.8c-7.7,2-21.1-1.7-40.3-10.9c-1,0-1.4,0.1-1.4,0.4c-8.4-5.3-13.8-9.4-16.2-12.2
			c-9.1-16-13.8-28.4-14-37.4c0-1.4,2-4.8,6.1-10.1c0.2-0.8,2.1-2.2,5.6-4.2c3.5-2,6.7-3.1,9.5-3.4c3.8,0.6,6.5,2,7.9,4.2l7.6,11.8
			l4,5l6.5,6.3l5,5.9l7.2,6.7c1,0.6,1.9,0.9,2.7,1c0.8,0.1,2.5,0.4,5,0.8c2.5,0.4,4.4,0.4,5.6-0.2c1.2-0.6,2.8-1.2,4.7-1.9
			c1.9-0.7,3.6-1.5,5-2.3c3.1-3.6,5-5.7,5.8-6.3l4.7-6.7c0.5-0.6,1.2-2.9,2.2-7.1c0-3.6,0.1-6,0.2-7.1c0.1-1.1,0.1-2.2-0.2-3.1
			c-0.2-1-0.5-2.2-0.7-3.6c-0.2-1.4-0.5-2.6-0.7-3.6c-0.2-1-2-3.1-5.4-6.5c-1.4-3.4-3.5-6.9-6.1-10.5c-0.7-0.8-6.6-4.3-17.6-10.5
			l-10.8-6.7l-6.5-6.3c-3.8-1.4-7.1-3.6-9.9-6.7c-2.8-3.1-4.4-4.8-4.9-5c-3.4-1.4-9-7.1-16.9-17.2c0-0.3-2.2-5.5-6.5-15.5l-4-16.4
			l1.4-10.9c-1.9-5.6-2.6-11.1-2.2-16.4c1-1.7,2-5,3.2-10.1c-0.5-2.5,0.4-6.5,2.7-12c2.3-5.5,3.8-8.7,4.5-9.9
			c0.7-1.1,1.3-2.2,1.8-3.4c0-2,5.2-9,15.5-21l17.6-11.3c13-1.7,21.2-2.5,24.8-2.5c8.4,0.8,14.2,2.2,17.3,4.2
			c5.3,3.9,9.4,7.1,12.2,9.7c10.6,10.6,16.6,20.2,18,28.6c5,15.7,5.8,30.9,2.2,45.8c0,1.4-3.4,3.8-10.1,7.1h-9
			c-3.8,0-7.3-0.9-10.4-2.7c-3.1-1.8-7.1-5.2-11.9-10.3c-1.9-1.1-3.5-4.9-4.7-11.3c-0.2-6.7-1.6-10.8-4-12.2
			c-0.2-0.3-1.2-2.8-2.9-7.6l-4-5c-1.7-2.5-3.2-3.8-4.5-3.8c-1.3,0-2.8,0.6-4.5,1.7c-3.4,3.1-6.3,7.1-8.8,12.2
			c-2.5,5-3.8,10.6-4,16.8c-0.1,6.2,0.2,10.9,0.9,14.3c0.7,3.4,2.6,7.6,5.8,12.8c3.1,5.2,5,7.8,5.8,7.8c0.7,1.4,5.4,6.7,14,16
			l15.5,12.6l6.1,6.7l7.2,5c3.8,1.7,7.7,4.1,11.5,7.3c3.8,3.2,6.2,5.8,7.2,7.8l5.4,6.3l5.4,8.8c1.4,2,3.6,9.4,6.5,22.3l0.7,16.4
			l-1.8,9.7c-0.7,0.8-1.9,3.8-3.6,8.8c0.2,0.8-1,4.6-3.6,11.3c-0.7,1.7-3.5,4.8-8.5,9.4c-4.9,4.6-7.9,7.2-8.8,7.8
			c-0.2,0.8-2.6,2.2-7.2,4.2c-0.7,0.8-2.8,1.9-6.3,3.1c-3.5,1.3-6.9,1.8-10.3,1.5L575.6,698.2z"/>
		<path d="M723.9,437.8l6.5-3.4c0.7,0,1.8-0.4,3.2-1.3c5.3-2.8,12.1-4.9,20.5-6.3c1.4-2.2,4.2-1.5,8.3,2.1c1.9,1.1,3.2,1.7,3.8,1.7
			c0.6,0,1.7,1.1,3.2,3.1c1.6,2.1,2.6,3.9,3.1,5.2l4,3.8c2.9,2,4.6,3.6,5,4.8c0.5,1.3,0.5,3.5,0.2,6.7c-0.4,3.2-1.4,6.2-3.2,8.8
			c-1.8,2.7-3.7,4.4-5.6,5.2c-8.2,3.6-13.7,5.5-16.6,5.5s-6.4,1.4-10.4,4.2c-4.1,2.8-7.4,4.5-10.1,5c-2.6,0.6-4.6,1.3-5.9,2.1
			c-1.3,0.8-3.2,2.2-5.6,4.2c-5.8,3.9-11.4,6.4-16.9,7.6c0.5,0,0.2,1.4-0.7,4.2c-1,2.8-1.8,6.5-2.5,11.1s-2,10-4,16.2l-4.3,22.7
			c-1,5-1.1,7.6-0.4,7.6c0.7,0,1.3-0.6,1.8-1.7c13.2-6.2,21.1-10.8,23.6-14.1c2.5-3.2,6.3-4.5,11.3-4l4.3-1.3
			c0.7-0.8,2.3-1.3,4.7-1.3c4.3-1.4,10,2,16.9,10.1l-1.1,4.6c-1.2,2.8-3.1,5.9-5.8,9.2c-2.6,3.4-4.7,5.5-6.3,6.3
			c-1.6,0.8-2.7,1.5-3.4,1.9c-0.7,0.4-1.2,0.6-1.4,0.6h-0.7c-1.4,1.7-3,3.1-4.7,4.2c-1.9,2.2-3.8,3.9-5.8,5
			c-1.9,1.1-3.7,2.3-5.4,3.6c-1.7,1.3-2.9,2.2-3.8,2.7c-0.8,0.6-1.9,1.3-3.1,2.1c-1.2,0.8-2.6,1.8-4.1,2.9c-1.6,1.1-2.6,1.7-3.1,1.7
			c-0.5,0-3.1,2.5-7.9,7.6c-1.4,0-3.5-0.8-6.1-2.3c-2.6-1.5-4.6-3.2-5.8-4.8c-1.4,0-1.7,3.8-0.7,11.3c0,1.4-0.5,4.9-1.4,10.5
			c-1,10.4-1.1,20.7-0.4,31.1c0.7,10.4,1.8,16.7,3.2,18.9c1.4,2.2,3,3.4,4.7,3.4c3.6-0.8,6.4-2,8.3-3.6c1.9-1.5,3.7-2.4,5.4-2.7
			c1.7-0.3,3.5-1.4,5.6-3.4c2-2,3.6-2.9,4.7-2.9c1.1,0,4.5-3.4,10.3-10.1c0.7-1.4,2.3-2.9,4.9-4.4c2.5-1.5,3.8-2.7,3.8-3.6
			c0.5-1.1,2.2-2.7,5.2-4.8c3-2.1,6.6-3.5,10.8-4.2c4.2-0.7,7.4-0.3,9.5,1c3.8,2.5,8.5,7,14,13.4c1.2,2.2,1.1,7.1-0.2,14.5
			c-1.3,7.4-3.4,12.8-6.3,16.2l-3.2,3.8c-4.1,5.6-10.1,11.5-18,17.6c-6.2,3.9-9.5,5.9-9.7,5.9c-1.4,1.4-2.3,2.2-2.5,2.5
			c-1.2,2.5-2.2,3.5-3.1,2.9c-0.8-0.6-3-0.6-6.5,0c-3.5,0.6-6.5,0.6-9.2,0c-1.4-0.8-3.2-1.3-5.4-1.3c-2.2,1.4-10.2-3.4-24.1-14.3
			c-1.9-1.7-3.2-2.5-4-2.5c-0.7,0-2.3-0.3-4.7-0.8c-1.9-1.1-4.2-2.4-6.8-3.8c-7.9-5.3-12.6-9-14-10.9c-1.4-2-3.1-3.6-5-5
			c-1.9-1.4-3-2.9-3.2-4.6c-0.2-1.7-1-3.5-2.2-5.5c0-0.6-0.7-3.1-2.2-7.6c-1.9-3.6-2.5-6.3-1.8-8c0.2-1.7,0.1-3-0.4-4
			c-0.5-1-1-9.1-1.4-24.4c-0.5-15.3-0.2-23.6,0.7-25c1-1.4,1.4-4.8,1.4-10.1c-0.5-5,0.2-8.8,2-11.3c1.8-2.5,2.6-5.8,2.3-9.9
			c-0.2-4.1,0.1-7.2,1.1-9.5c1-1.1,1.8-5.5,2.5-13l1.4-7.6c2.9-6.7,4.3-11.3,4.3-13.6c0-2.4,0.5-5.2,1.4-8.6
			c0.2-0.6,1.7-5.3,4.3-14.3l2.5-5.9l1.1-5c6-14.3,9.7-22.5,11.2-24.8c0-1.1,1.6-6.3,4.7-15.5c-0.2-4.2,1.7-7.2,5.8-9
			c4.1-1.8,7.9-1.6,11.3,0.6c3.5,2.2,5.6,3.8,6.3,4.6s2.2,2,4.3,3.4C713.1,439.6,717,439.4,723.9,437.8z"/>
	</g>
	<g class="prep-right-close">
		<path d="M67.3,840.7c3.4-1.7,10.3-2.3,20.9-1.9c10.6,0.4,18.1,1.6,22.7,3.6l9,3.4c7.4,5.9,11.6,8.8,12.6,8.8
			c9.8,9,15.5,20.7,16.9,35.3c1.4,6.2,1.7,11.8,0.7,16.8c0,1.7-0.5,5.3-1.4,10.9l-3.6,9.7l-4.3,7.1c-1.4,0.3-2.3,0.4-2.5,0.4
			c-8.9,1.7-15.7,1.9-20.5,0.6c-4.8-1.3-9-4.3-12.6-9c-0.7-1.7-1.1-3.2-1.1-4.6c0.2-1.4,0.6-2.7,1.1-3.8l1.8-6.7
			c3.1-9,2.9-16.5-0.7-22.7c0-0.8-1.2-2.4-3.6-4.6c-2.4-2.2-4.3-3.9-5.6-5c-1.3-1.1-3.7-1.3-7-0.4c-5.8,2.8-10.7,11.3-14.8,25.6
			c-4.8,7.3-8.2,16.8-10.1,28.6c-2.9,21-4.3,32.9-4.3,35.7l-0.4,9.2v3.8c-0.5,0.6-0.2,12.7,0.7,36.5c0.2,1.4,0.7,3.4,1.4,5.9
			c0.7,3.1,1.8,8.1,3.2,15.1l4.7,9.2c1.2,0.8,2.8,3.4,4.7,7.6c1.2,0,2.2,1,2.9,2.9c1.7,2,2.4,3.1,2.2,3.4c1.2,0.3,3,1.1,5.4,2.5
			c6.5,3.9,12.1,3.1,16.9-2.5c1.7-2,3.8-4.7,6.3-8.2c2.5-3.5,4.4-6.3,5.8-8.4c1.3-2.1,3.4-4.1,6.3-6.1c7.9-7,14.8-6.7,20.5,0.8
			c1.2,2.2,1.4,7.6,0.5,16.2c-0.8,8.5-4.3,17.4-10.3,26.7c-0.5,1.7-2,4.4-4.7,8.2c-2.6,3.8-5.4,6.8-8.3,9c-0.5,2-9.6,3.4-27.4,4.2
			c-1,0-2.9-0.3-5.8-0.8c-2.6,0.8-6.2,0.4-10.6-1.3c-4.4-1.7-6.9-2.5-7.4-2.5l-4.7-1.3c-1.9,0-3.8-0.7-5.8-2.1
			c-1.9-1.4-5.1-3.8-9.5-7.4c-4.4-3.5-7.9-6.4-10.3-8.6c-7.2-6.7-12.4-14.4-15.5-23.1c-1-2-1.6-4.7-1.8-8.2
			c-0.2-3.5-0.7-6.1-1.4-7.8c-1.9-2.2-2.8-5.9-2.7-10.9c0.1-5-0.2-11.2-0.9-18.5c0-3.4,0.1-5.3,0.4-5.9c-1.2-1.4-1.7-3.8-1.4-7.4
			c0.2-3.5,0.4-8.3,0.4-14.5c0.7-1.7,1-6.6,0.9-14.9c-0.1-8.3,0.1-14.5,0.5-18.7c-1-2.5-1.1-6.2-0.4-10.9l0.4-12.6
			c0.2-5,1.3-10.4,3.2-16c0.2-2.5,0.7-5.5,1.4-9c0.7-3.5,3.8-10.6,9.4-21.2c0-2.2,1.8-5,5.4-8.4c0-1.1,1-2.8,2.9-5
			c1.9-2.2,4.1-5,6.5-8.4c3.4-4.8,7.1-8.3,11.2-10.5C59.9,846.4,63.7,843.8,67.3,840.7z"/>
		<path d="M217.4,999.9v16.8c0,17.4,0.8,27,2.5,29c-0.2,0.3,0.4,3.6,1.8,10.1c0,2.2,1,5.7,2.9,10.5c0,1.4,3.4,4.8,10.1,10.1
			c2.9,0,10-2.8,21.2-8.4l25.6-11.3c3.1-1.1,6.1-0.6,8.8,1.5c2.8,2.1,4.4,5.7,5,10.9c0.6,5.2,0.5,8.9-0.4,11.1
			c-0.8,2.2-2.9,5-6.1,8.4c-3.2,3.4-5.3,5.7-6.3,7.1c-1,1.4-2.8,2.9-5.4,4.4c-2.6,1.5-5.6,3.2-8.8,4.8c-3.2,1.7-5.5,2.9-6.7,3.8
			c-9.4,5-16.6,7-21.6,5.9c-3.1,0-6.3-0.7-9.5-2.1c-3.2-1.4-5-2-5.4-1.9c-0.4,0.1-1.3,0-2.9-0.4c-1.6-0.4-3.1-0.8-4.5-1.3
			s-5.2-1.3-11.2-2.7c0-1.1-1.7-2.2-5-3.4l-9.7-9.2c-1.7-1.1-3.5-4.6-5.4-10.5l-3.2-6.3c-1-0.8-2.3-4.1-4-9.7
			c-1-1.4-1.6-3.9-1.8-7.6c-1.2-3.1-1.8-7.4-1.8-13c-1-1.4-2-6.7-3.2-16c-1.7-12-1.8-22.8-0.4-32.3c0-5.3,0.8-10.5,2.5-15.5
			c0.2-2.2,0.5-4.5,0.7-6.7c1.2-7.3,2-12.9,2.5-16.8c-1-3.9,0.6-13.3,4.7-28.1c0-2.2,0.8-5.5,2.3-9.9c1.6-4.3,2.5-8.9,2.7-13.6
			l2.9-8c0-2.2,1.8-10.5,5.4-24.8c1.9-5.3,2.9-8.4,2.9-9.2l9-22.3l4.3-6.7c1.7-2,4.2-3.6,7.6-5c1.4-1.4,5.3-1.3,11.5,0.4
			c3.8,1.7,6.5,3.4,7.9,5c1.7,0.8,3.7,1.3,6.1,1.3l27.7-2.1c7,0.6,11.6,1.5,14,2.7c2.4,1.3,4.7,3.4,7,6.5c2.3,3.1,3.1,6.2,2.5,9.2
			c-0.6,3.1-1.6,5.5-3.1,7.1c-3.1,3.1-8.9,6.7-17.3,10.9c-14.6,9.2-22.6,14.1-23.8,14.7l-8.6,4.6c-3.6,2.8-5.9,5.7-6.8,8.8
			c-7.4,31.4-11.5,48.8-12.1,52.3c-0.6,3.5-1,5.6-1.1,6.3c-0.1,0.7-0.2,1.2-0.2,1.5l7.2-0.8c10.6-3.9,16.8-5.2,18.7-3.8
			c1,0,2.3-0.4,4-1.3c8.9-3.6,16.7-5.2,23.4-4.6c1.2-0.8,2.5-0.3,4,1.7c1.4,2,2.5,4.3,3.2,7.1c1.4,7-0.4,12.5-5.4,16.4
			c-10.1,7.8-22.1,14.1-36,18.9c-4.6,4.2-10.9,6.9-19.1,8L217.4,999.9z"/>
		<path d="M376.2,997.3c-1.9,1.1-3.1,1.7-3.6,1.7c-0.2,0.8-0.4,2.4-0.4,4.6v5c0,2-1.1,8-3.2,18.1v4.2c0,4.2-0.6,7.6-1.8,10.1
			l-1.4,18.5l-2.2,10.5c-0.5,1.7-0.5,3.2-0.2,4.6c0.4,1.4,0.7,6.5,1.1,15.3c0.4,8.8,0.1,15.2-0.9,19.1l-2.2,3.8
			c-4.8,1.7-7.9,2.1-9.4,1.3c-1.4-0.8-3.8-1.4-7.2-1.7c-3.4-0.3-5.2-0.5-5.6-0.6c-0.4-0.1-1.6-0.7-3.6-1.7c-2-1-3.4-1.8-4-2.3
			c-0.6-0.6-1.5-1.4-2.7-2.5c-3.1-2.5-4.7-8-4.7-16.4c-0.5-1.7-0.4-3.6,0.4-5.9c-1.4-0.8-1.9-3.1-1.4-6.7c0.7-1.7,1.1-4.3,1.1-8
			c0-3.6,0.4-6.6,1.1-8.8v-6.7c0-2.5,0.8-7.7,2.5-15.5c0-2.2,0.4-4.2,1.1-5.9c-0.5-0.6,0.1-2.9,1.8-7.1c-0.5-0.8,0.1-4.9,1.8-12.2
			c-0.7-0.8-0.8-3.4-0.4-7.8c0.5-4.3,1.1-7.8,1.8-10.3c0-5.3,0.4-8.5,1.1-9.7c-0.2-0.8-0.6-3.5-1.1-8l0.7-5c0-3.4,1.1-8.5,3.2-15.5
			c1.9-16,2.9-24.6,2.9-26c3.4-16.2,5-26.3,5-30.2c0.7-0.3,1.4-3,2.2-8.2c0.7-5.2,0.5-8.9-0.7-11.1c-10.8,4.8-19.8,10.4-27,16.8
			c-4.8,4.8-8,6.6-9.7,5.5c-3.4-2.2-5-5.5-5-9.7l-1.4-6.7c-0.2-0.3-0.9-1.9-2-4.8c-1.1-2.9-1.6-5.1-1.4-6.5c0.1-1.4,0-3.3-0.4-5.7
			c-0.4-2.4-0.3-4,0.2-4.8c2.2-4.8,5-8.3,8.6-10.5l8.6-7.1l6.1-4.2c0.5,0,5-2.9,13.7-8.8c0.5-1.1,2.3-2.1,5.4-2.9
			c3.1-0.8,10.1-3.4,20.9-7.6c7.2-0.8,11.4-1.3,12.6-1.3c7.7-1.1,14.2-0.3,19.4,2.5c3.6,1.1,5.7,1.6,6.3,1.5
			c0.6-0.1,1.4-0.1,2.5,0.2c1.1,0.3,1.9,0.4,2.3,0.4c0,0.6,1.1,0.8,3.2,0.8l6.8,2.9c1.2,0,2.8,0.7,4.7,2.1c1.4-0.3,3.4,0.4,5.9,1.9
			c2.5,1.5,6.2,3.7,11.2,6.5c4.9,2.8,7.4,5.2,7.4,7.1c1.4,0.6,3,2.1,4.7,4.6l4.3,5l6.8,10.5c0.5,0.3,1.6,1.7,3.2,4.2
			c2.4,4.8,3.7,7.6,4,8.4c0.2,0.8,0.5,1.6,0.7,2.3c0.2,0.7,1.2,3.2,2.9,7.3c3.4,7.8,4.7,14.7,4,20.6c0,0.3-1.2,4.6-3.6,13
			c-4.3,14.8-10.9,26.6-19.8,35.3c-1.9,1.7-4.4,3.9-7.6,6.5c-3.1,2.7-5.6,5-7.6,6.9c-9.1,6.4-14.5,10.5-16,12.2
			c-1.6,1.7-2.9,3.1-4.1,4.2l-4,2.1l0.7,2.5c0-1.1,0.7-0.6,2,1.5c1.3,2.1,2.2,3.7,2.7,4.8c0,1.4,1.2,3.1,3.6,5
			c0.5-0.3,1.1,0,1.8,0.8c1.4,1.7,2.2,4.3,2.2,8c1.7,1.1,4.2,4.5,7.6,10.1c3.4,2.8,6.2,6.7,8.6,11.8c1.7,2.2,3,3.8,4,4.6
			c1,1.7,2.9,3.9,5.8,6.7c2.9,2.8,4.8,4.7,5.8,5.7c1,1,2,2,3.2,3.2c4.3,3.9,7.3,6.9,9,8.8l4.3,3.4c8.9,10.1,13.6,15.5,14,16.4
			c-0.2,2-1.9,4.9-5,8.8c-0.2,4.5-5.8,8.3-16.6,11.3c-3.6,0-8.5-1.9-14.8-5.7c-6.2-3.8-11-7.8-14.4-12c-10.6-9-17.5-16-20.9-21
			c-9.8-11.5-16.9-22.5-21.2-33.2c-1-0.8-2.1-2.2-3.4-4.2c-1.3-2-2.6-3.5-3.8-4.6l-4.7-10.5l-6.5-10.5L376.2,997.3z M383,915.9
			c-1.7,9.5-2.5,17.8-2.5,24.8c-0.5,3.9-1,6.6-1.6,8c-0.6,1.4-0.9,4.6-0.9,9.7s1.3,8,4,8.8c2.6,0,6.5-1.7,11.5-5l7.6-8
			c2.6-2.5,8.8-7.1,18.4-13.9l9-10.1l3.6-5.5l1.4-3.8c1.9-3.6,2.5-7.4,1.8-11.3l-0.7-7.1c-1.7-8.7-2.8-13.8-3.4-15.3
			c-0.6-1.5-1.5-3.2-2.7-5c-1.2-1.8-2.5-3.4-4-4.8c-1.4-1.4-2.3-2.4-2.5-2.9l-11.2-6.3c-0.2-0.3-1.7-0.7-4.3-1.3
			c-4.1-2-9.8-2.2-17.3-0.8l-2.2,13.4c0,1.7-0.7,4.6-2,8.8c-1.3,4.2-1.6,7.3-0.9,9.2c-0.2,0.8-0.4,2.5-0.4,4.8
			c0,2.4-0.2,5.5-0.7,9.5V915.9z"/>
		<path d="M558.7,889.4c-15.1,4.8-30.5,8.3-46.1,10.5c-2.4,0-4.9,0-7.6,0c-2.6,0-6.2-0.8-10.8-2.5c-1.9-1.1-3.2-4.1-4-8.8
			c0.2-9.2,2.2-16,5.8-20.2c3.6-4.2,10.2-7.8,19.8-10.9c6.2-1.1,14.5-3.9,24.8-8.4l20.5-7.6l15.5-3.4c2.2-0.8,7-1.3,14.4-1.3
			c7.4,0,12.8-0.8,16.2-2.3c3.4-1.5,7.7-2.7,13-3.4c5.3-0.7,10.6-1.5,15.8-2.3c2.2-1.1,7-0.7,14.4,1.3c1.9,0,6,3.4,12.2,10.1
			l1.8,5.9c0,2,0.4,3.4,1.1,4.2c0.5,5.9-0.1,9.8-1.8,11.8c-1.7,2-5.2,3.8-10.4,5.5c-2.2,0-11.4,1.7-27.7,5c-2.2,0-5,0.7-8.6,2.1
			c-1.2,0-5.9,0.6-14,1.7l-0.4,4.6v2.5c-0.7,7.6-1,12.4-0.7,14.5c0.2,2.1-0.2,10.3-1.4,24.6v3.8c-0.5,1.4-0.8,3.3-0.9,5.7
			c-0.1,2.4-0.4,4.6-0.7,6.5c-0.4,2-0.5,4.1-0.4,6.3c0.1,2.2-0.2,4.5-0.9,6.7v2.9c0,3.9-1.1,9-3.2,15.1l-1.1,18.5
			c0,12.3-0.2,19.4-0.7,21.2c-0.5,1.8-0.6,8.1-0.4,18.7v21c0,10.6-0.6,16.4-1.8,17.2l0.7,10.9c0,7.6-0.5,11.3-1.4,11.3
			c0.5,3.4-0.6,7-3.2,10.9c-2.6,3.9-6,6.4-10.1,7.6l-10.1,1.3c-4.8,0-8-1.3-9.7-3.8c-1.7-2.5-2.8-4.8-3.2-6.7
			c-3.1-17.9-4.9-31.4-5.4-40.3l1.4-10.1c-0.5-1.1-0.7-2.8-0.7-5v-2.9c0-5,0.6-8.5,1.8-10.5c-1-1.7-0.5-5.3,1.4-10.9
			c-1.2-2-1.6-4.2-1.3-6.7c0.4-2.5,1-5.9,2-10.1c-0.5-1.4-0.5-2.8,0-4.2c-0.5-1.7-0.5-3.1,0-4.2c1.2-14,1.7-22.2,1.6-24.6
			c-0.1-2.4,0.4-6.4,1.6-12c-0.7-2.5-0.4-9.1,1.1-19.7v-2.9c0.5-4.2,0.5-8.7,0-13.4l2.2-21c0-0.3,0.2-3.5,0.7-9.7H558.7z"/>
		<path d="M759.9,826.8c2.6,0,5.3,0,7.9,0l11.2,2.9c2.6,0.6,5,2.2,7.2,5c14.9,13.4,22.8,23.2,23.8,29.4c1.2,3.4,2,5.7,2.5,7.1
			c0.5,1.4,1,2.8,1.4,4.2v0.4c0,0.6,0.1,1.4,0.4,2.5c1.4,5,2.8,13.3,4,24.8c1.9,10.9,2.2,22.7,0.7,35.3c0,4.2-0.2,7.4-0.7,9.7
			c0.2,3.1-0.1,7.7-1.1,13.9c0.7,2.2,0,5.7-2.2,10.5c0,3.4-1.1,9.4-3.2,18.1c0.7,1.7-1.3,9.7-6.1,23.9
			c-4.8,14.3-10.9,29.1-18.4,44.5c-3.4,7.8-8.8,16.7-16.2,26.5c-1.4,2.5-4.9,6.4-10.4,11.8c-6,7.6-11.5,12.3-16.6,14.3
			c-0.7,0.3-2.5,0.3-5.4,0.2c-2.9-0.1-4.7-0.6-5.4-1.5c-3.1,0-5.1-0.3-5.9-0.8c-0.8-0.6-1.4-0.8-1.6-0.8c-1.2-0.6-2.6-1-4.1-1.5
			c-1.6-0.4-3.2-1-4.9-1.9c-1.7-0.8-2.8-1.3-3.2-1.3c-0.5,0-0.9-0.1-1.3-0.4c-0.4-0.3-1.4-0.7-3.2-1.3c-1.8-0.6-6.5-3.1-14.2-7.6
			c-0.2,0-1.3-1.3-3.2-3.8l-5.8-4.6c-1.7,0-3.1-2.1-4.3-6.3c-1.4-1.7-2.5-3.6-3.2-5.9c-2.6,0-4.9-8.1-6.8-24.4
			c-1.2-7-2.2-15.3-2.9-24.8c-0.5-1.1-0.7-3.1-0.7-5.9c-0.7-5-1.1-9.8-1.1-14.3c-0.5-2.2-0.7-5.2-0.7-8.8c0-3.6-0.1-5.6-0.4-5.9
			c-0.2-0.3-0.4-3.6-0.5-10.1c-0.1-6.4-0.1-9.9,0.2-10.3c0.2-0.4,0.5-3,0.7-7.8l0.7-21.8v-7.6l0.7-16.8c0-1.4,0.4-4.2,1.1-8.4
			c0.5-0.6,1.2-4.6,2.2-12.2c1.9-9.5,3.3-15.2,4.1-17c0.8-1.8,1.4-3.3,1.8-4.4c0.4-1.1,0.9-2.2,1.6-3.4c0.7-1.1,1.9-3.6,3.6-7.6
			l6.5-11.3c0-0.6,0.8-1.7,2.3-3.4c1.6-1.7,2.8-2.7,3.8-2.9c0.5-1.7,1.4-2.7,2.9-2.9c1.7-0.6,4.2-2.1,7.6-4.6c2.6-1.1,4-2,4-2.5
			c4.3-3.4,9.4-5,15.1-5l5.4,0.4l10.4,4.6c8.6-3.9,13.8-5.9,15.5-5.9C755.7,828.5,757.3,827.7,759.9,826.8z M709.5,962.9
			c-0.7,0.8-1.3,6.3-1.8,16.4c-0.5,10.1-1,15.7-1.4,16.8l0.4,23.5c1.2,8.4,2.4,14.4,3.6,18.1c1.2,3.6,1.9,5.9,2.2,6.7
			c0.2,0.8,0.5,1.8,0.7,2.7c0.2,1,1.4,2.9,3.6,5.7c2.2,2.8,4,5.5,5.4,8c0.2,0,1.2,0.8,2.9,2.5c4.1,3.6,7.4,4.8,10.1,3.4
			c0.2,0,1.6-0.7,4-2.1c0-0.8,1.4-1.7,4.3-2.5c0.2,0,1-1.1,2.2-3.4c0.5,0,1.4-1,2.9-2.9c0-0.8,0.7-2,2.2-3.6c1.4-1.5,2.6-2.9,3.6-4
			c-0.2-0.6,1-3.2,3.6-8c1,0,3.6-5.5,7.9-16.4c5-12.3,7.6-18.8,7.6-19.3c0-0.8,0.6-3.7,1.8-8.6c1.2-4.9,2-8.4,2.3-10.5
			c0.4-2.1,0.8-3.8,1.3-5.2c0.5-1.4,0.7-4.6,0.7-9.7c0.5-0.3,1.3-6.6,2.5-18.9v-14.3l-0.4-19.3c-0.5-1.7-0.7-3.5-0.7-5.5
			c0-2-0.2-3.5-0.5-4.6c-0.4-1.1-0.7-2.9-0.9-5.5c-1.2-11.5-3.2-18.9-6.1-22.3c0-1.1-1.9-3.6-5.8-7.6l-3.6-0.8
			c-3.8-0.6-10.7,2.5-20.5,9.2c-0.5,0-2.5,1.7-5.9,5c-3.5,3.4-5.6,5.6-6.3,6.7c-0.7,0.3-2,1.5-4,3.8
			C720.5,903.8,714.6,925.9,709.5,962.9z"/>
		<path d="M835.7,1076.7c0.6-2.8,2.4-5.8,5.4-9c3-3.2,6.1-4.8,9.2-4.8c3.1,0,5.9-0.6,8.3-1.7c2.4-1.1,4.6-1.7,6.7-1.7
			c2,0,5.3,0.6,9.7,1.9c4.4,1.3,7.4,2,9,2.3c1.6,0.3,2.9,0.6,4,0.8c1.1,0.3,2.2,1.3,3.2,2.9c1.1,1.7,1.6,3.8,1.6,6.3
			c-3.6,18.8-9.4,30.7-17.3,35.7l-10.8,2.1c-3.1,0-6.6-2-10.4-5.9c-7.7-0.8-11.5-2.9-11.5-6.3c0-0.6-1.3-2.7-4-6.3
			c-2.6-3.6-4-6.6-4-8.8C834.8,1082,835.1,1079.5,835.7,1076.7z M897.1,799.1l-3.2,31.5c-1,14.3-3.2,41-6.8,80.2
			c-3.6,39.2-5.4,65.9-5.4,80c0,14.1,0.7,23.3,2.2,27.5c-2.6,5.3-6,8-10.1,8c-2.2,0-4-0.3-5.4-0.8c-1.4-0.6-2.4-0.8-2.9-0.8H864
			l-1.4-0.4c-5.5-10.1-8.6-19-9.4-26.9c-4.1-11.5-6.3-18.8-6.7-22c-0.4-3.2-0.9-5.4-1.6-6.5c-0.7-11.8-1.1-18.1-1.1-18.9v-17.6
			c1-7,1.4-14.3,1.4-21.8v-6.3c0-5.6,1-13.8,2.9-24.6c1.9-10.8,2.9-19.7,2.9-26.9c0-7.1,1.9-15.5,5.6-25c3.7-9.5,6.2-16.2,7.6-20.2
			c1.3-3.9,2.2-6.7,2.7-8.4c0.5-1.7,1.1-3.2,1.8-4.6c1.2-2.2,2.8-3.4,4.7-3.4c3.6-1.7,6.1-2.5,7.6-2.5
			C891.7,788.6,897.1,792.1,897.1,799.1z"/>
	</g>
</g>
</svg>
