<svg version="1.1" xmlns="http://www.w3.org/2000/svg" xmlns:xlink="http://www.w3.org/1999/xlink" x="0px" y="0px"
	 viewBox="0 0 1339.5 703.8" style="enable-background:new 0 0 1339.5 703.8;" xml:space="preserve">
<style type="text/css">
	.respect-hottie { fill: #d4a5f0 }
</style>
<g id="Objects">
	<g class="respect-hottie">
		<path d="M132.8,71.7c6.8,33.6-13,44.1-23.8,63.8h2.5c25.2-5,48.6-17.6,67.7-37c4,0,8.3-2.1,10.4,2.5
			c-8.3,14.7-25.2,16.8-23.4,36.5c0,65.1,46.1,152.9,74.2,207.1c-6.8,8-36-21-40-10.9c0,2.1-2.2,0-4.3,2.1
			C174.9,276.6,141,217,143.2,155.3l1.8-17.6c-19.1,5-33.5,20.6-54.7,20.6c-2.5,0-2.5,2.1-4.7,4.6c13,26.9,40.3,61.7,52.9,89
			c0,2.9-4.3-2.5-2.5,2.9c0,2.5,2.5,4.6,5,2.5c0,2.1-5,4.6,0,7.1c-2.5,2.5-6.8-7.1-6.8,0c1.8,7.6,3.2,11.8,8.6,12.2
			c-8.6,2.9-10.8-14.7-19.4-19.3l-1.8,4.6c1.8,2.5,4.3,10.1,10.4,12.2c-8.6,5.5-4.3-14.7-12.6-9.7c-6.5-7.1-6.5-15.1-13-20.2
			c-10.1-17.2-31.3-41.6-41.8-59.2c-2.5-2.5-12.6,2.5-10.8-7.1l2.5-10.1c-11.2-17.2-17.3-39.9-25.9-59.6
			c6.5-7.1,10.8-19.7,21.6-19.7c6.1,19.7,12.6,39.5,25.2,57.1c19.1,0,27.4-27.7,31.7-44.5c2.5-12.6-8.6-24.8-16.9-32.8
			c-12.6-6.7-29.9-11.8-44.3-6.7C37,63.7,28.7,73.8,24,86c-6.5,54.6,15.1,101.6,42.5,141.1c-1.8,7.1-8.3,14.7-14.4,20.2l-6.8-2.9
			c-27.7-37-44.6-84-42.5-136.1c4.7-42.4,25.9-62.6,59.4-69.3C96.4,30.5,117.6,38.9,132.8,71.7z"/>
		<path d="M191.8,36.8c15.1,11.3,31.3,38.6,52.6,30.2c9.4,2.5,6.8,19.3,18.7,18.1c11.9,3.8,33.1,11.8,46.1,13.9
			c4.7,5.9,2.5,16,4,24.8c-8.3,4.6-27.7-0.4-36.4-2.1c-13-1.7-21.2-3.8-32-6.3c-5.4,4.6-3.6,15.1-5.8,23.1
			c5,13.4,20.2,8.4,28.8,18.5c-0.7,6.7-6.5,12.2-10.4,14.3c-8.6,5.5-23-3.8-26.3,8.4c-2.5,18.1-4.7,40.7-2.9,60.1l3.6,2.9
			c12.2-14.3,22-36.5,33.8-53.3c5.4-2.1,10.8-12.2,16.2-7.1c4,10.1-5,20.6-8.3,30.7c-14,27.3-29.2,56.7-58,62.2
			c-10.8,2.1-14.4-9.7-18.7-18.1c-1.1-5.9-1.4-11.8-2.5-18.5c-0.7-26.5,2.5-49.6,6.8-79.8c2.2-16.8,7.6-32.8,10.4-48.7
			c0-19.3-21.2-21-32.4-31.1c-10.8-7.6-18.7-14.7-30.2-20.6c-3.2-3.4-4.3-8.8-3.6-13c6.5-10.5,14.4-24.4,27.4-23.5L191.8,36.8z"/>
		<path d="M470.4,176.3c-2.9,35.7-35.6,58-57.6,80.6c-22,12.6-55.4,18.9-79.9,6.7c-5.8-6.7-14-16.4-16.6-26c0-6.3,5.4-10.1,0-13
			c2.5,0,2.5-3.4,5.4-3.4c-7.9-13,5.4-18.9,2.5-32.3c-7.9-9.2-22-16-27.7-32.3c-5-15.5,11.5-28.1,19.8-41.2c16.6-16,35.6-22.7,58-26
			c-5.8-16-36-35.3-5.8-51.2c16.6-22.7,22.3,18.9,36,26c16.6,21.8,35.3,35.3,52.6,51.2c-3.2,13-17.3,19.3-25.2,25.6
			c-5.4,0-5.4-3.4-5.4-6.3c-30.2-19.3-65.9-22.7-99.4-10.1c-2.9,3.8-2.9,10.1,0,13c8.6,9.7,14,18.9,24.8,16
			c8.6-12.6,19.4-16,27.4-21.8c0,5.9-7.9,2.9-7.9,9.2c-5.4,3.4-10.8,9.7-16.6,15.5c11.2,10.5,27.4,7.1,41.4,3.8
			C418.6,163.7,457.1,144.3,470.4,176.3z M434.8,198.9c-27.7-16.4-63.4-2.9-93.6-6.7c-2.9,3.8,0,10.1,0,16c2.9,13,10.8,23.1,22,26
			c25.2,13,52.6,3.4,71.6-16.4C439.8,212,439.8,202.3,434.8,198.9z"/>
		<path d="M558.3,286.3c-5-4.2-11.5-19.7-12.6-18.5c-2.9,0.8,10.1,23.5,9,25.6c-1.4,3.4,3.6,13.9,0,8.8
			c-6.5-15.1-41-90.7-51.5-103.3c-2.2,5-6.8,7.1-8.6,7.1c17.3-12.2-8.6-25.2-11.2-37.8c-5.8-12.6-16.9-22.7-16.9-37.8
			c6.5-4.6,11.2-22.7,21.6-17.6c6.5,20.2,19.4,32.8,29.9,52.9c10.8-7.6,13.7-22.7,15.5-37.8c-1.8-22.7-15.5-39.9-32.4-50.4
			c-6.5-2.5-15.1-4.6-23.4-2.5c-13.7,10.1-19.8,27.7-19.8,45.4c10.8,40.7,15.1,80.6,45.4,110.9c-4.3,8-4.3,25.6-17.3,20.6
			c-34.9-25.6-34.9-71-47.9-108.8c-4-44.9,7.9-89.5,60.8-95.3c24.1,0,45.4,19.7,54.4,44.9c12.6,30.7-11.2,58.4-28.4,81.1
			c6.8,15.1,48.2,89.9,57.2,105c0,2.9,9.7,21.8,8.3,23.9c-0.7,1.3-23.8-24.4-27.4-26.9C559.7,273.7,561.5,288.8,558.3,286.3z"/>
		<path d="M587.1,36.8c15.1,11.3,31.3,38.6,52.6,30.2c9.4,2.5,6.8,19.3,18.7,18.1c11.9,3.8,33.1,11.8,46.1,13.9
			c4.7,5.9,2.5,16,4,24.8c-8.3,4.6-27.7-0.4-36.4-2.1c-13-1.7-21.2-3.8-32-6.3c-5.4,4.6-3.6,15.1-5.8,23.1
			c5,13.4,20.2,8.4,28.8,18.5c-0.7,6.7-6.5,12.2-10.4,14.3c-8.6,5.5-23-3.8-26.3,8.4c-2.5,18.1-4.7,40.7-2.9,60.1l3.6,2.9
			c12.2-14.3,22-36.5,33.8-53.3c5.4-2.1,10.8-12.2,16.2-7.1c4,10.1-5,20.6-8.3,30.7c-14,27.3-29.2,56.7-58,62.2
			c-10.8,2.1-14.4-9.7-18.7-18.1c-1.1-5.9-1.4-11.8-2.5-18.5c-0.7-26.5,2.5-49.6,6.8-79.8c2.2-16.8,7.6-32.8,10.4-48.7
			c0-19.3-21.2-21-32.4-31.1c-10.8-7.6-18.7-14.7-30.2-20.6c-3.2-3.4-4.3-8.8-3.6-13c6.5-10.5,14.4-24.4,27.4-23.5L587.1,36.8z"/>
		<path d="M705.9,91.8c0.4-10.5,7.6-13.4,7.6-13.4L744,62c0,0,0,14.7-0.4,29.8c-0.4,15.1-9.4,17.2-9.4,17.2l-29.5,10.1L705.9,91.8z
			 M733.9,118.7c-7.9,5.5-19.8,5.9-24.5,16.8c13.7,36.5,17.6,80.6,27.7,120.5c4,2.9,7.6,7.1,10.4,10.9c-1.4-2.9,3.2-5,4.7-3.4
			l1.1,1.7c1.8,0,3.2,3.4,5,0.4l-1.1-0.4c2.5-2.1,4.7-7.1,7.6-5.9c0.4-5.9-0.4-12.6-1.1-16.4c-4.3-39.9-16.9-77.7-16.6-117.2
			C744,120,739,117,733.9,118.7z"/>
		<path d="M762,95.2c10.1,7.6,22.7,10.1,34.6,6.3c9.7-3.8,17.6-19.3,28.1-10.9l4.3,4.6c32.8-7.6,51.1-18.9,83.9-21.8
			c12.6,11.3-7.2,16.4-7.9,27.7c-5,18.1-13.7,37.8-28.4,47.9c-4.7-3.4-4.3-9.7-4.3-13.4c2.2-10.9,17.3-36.1,7.6-34
			c-22,4.6-23.8,7.1-43.9,13.4l-2.9,3.8C840.5,162,858.1,241.4,861,285c-1.1,0-1.4,1.7-2.5,2.1l-0.7-0.4c-1.4,1.3-1.4,3.8-1.4,6.3
			c-6.1-3.4-10.1,7.6-14.4-0.4c-4-4.2-7.2-10.9-8.6-17.2c-7.9-36.1-21.6-109.6-32.4-144.9l-3.6-3.8c-20.9,3.4-46.8,12.2-64.8-7.6
			c-5-6.7-6.5-17.2-4.7-25.2c3.2-4.2,4.7-10.1,9.7-11.3c3.6-4.2,9.7-6.3,14.8-9.7C762.4,75.9,753.7,90.2,762,95.2z"/>
		<path d="M941.7,209.9c-9.7,0.8-18,12.2-27.7,15.1c-7.9,10.9-11.5,44.9-18,58c-6.1,13.4-18,15.5-24.1,16.4c1.1-5.5,0-12.6,1.1-19.3
			c4.7-9.7,7.9-33.2,10.8-42.8c-2.2-1.3-9.4-6.3-10.4-8.4c1.1-6.3,10.8-7.1,14.4-11.8c7.2-26,6.8-71.8,2.5-99.1
			c-4-7.6-9.7-14.7-4.7-23.1c-9.4-21-14.8-44.1-28.4-62.6c0-13.4,10.8-20.2,19.4-27.3c2.9-2.5,6.5-0.8,9-1.3
			c7.9,9.2,7.6,23.5,12.2,34.4c6.8,17.2,11.5,35.7,22,50c4.7,3.8,1.1,11.8,5,16.8c10.8,20.6,25.2,58.8,37.1,79.8
			c2.9-1.7,6.1-2.9,9.4-2.1c1.8,4.6-4.3,5.9-4.7,10.5c9.7,18.9,25.2,35.7,35.6,53.8c-5,0-5.8,7.6-10.8,5c-2.2,3.8-11.2-7.6-13-2.9
			C963.6,239.3,953.2,228.8,941.7,209.9z M919.7,202.7c4.7-0.8,19.1-3.4,16.6-8.4l-20.5-48.7v58L919.7,202.7z"/>
	</g>
	<g class="respect-hottie">
		<path d="M105.4,609.8c-9.7,0.8-18,12.2-27.7,15.1c-7.9,10.9-11.5,44.9-18,58c-6.1,13.4-18,15.5-24.1,16.4c1.1-5.5,0-12.6,1.1-19.3
			c4.7-9.7,7.9-33.2,10.8-42.8c-2.2-1.3-9.4-6.3-10.4-8.4c1.1-6.3,10.8-7.1,14.4-11.8c7.2-26,6.8-71.8,2.5-99.1
			c-4-7.6-9.7-14.7-4.7-23.1c-9.4-21-14.8-44.1-28.4-62.6c0-13.4,10.8-20.2,19.4-27.3c2.9-2.5,6.5-0.8,9-1.3
			c7.9,9.2,7.6,23.5,12.2,34.4c6.8,17.2,11.5,35.7,22,50c4.7,3.8,1.1,11.8,5,16.8c10.8,20.6,25.2,58.8,37.1,79.8
			c2.9-1.7,6.1-2.9,9.4-2.1c1.8,4.6-4.3,5.9-4.7,10.5c9.7,18.9,25.2,35.7,35.6,53.8c-5,0-5.8,7.6-10.8,5c-2.2,3.8-11.2-7.6-13-2.9
			C127.4,639.2,116.9,628.7,105.4,609.8z M83.4,602.7c4.7-0.8,19.1-3.4,16.6-8.4l-20.5-48.7v58L83.4,602.7z"/>
		<path d="M305.9,576.2c-2.9,35.7-35.6,58-57.6,80.6c-22,12.6-55.4,18.9-79.9,6.7c-5.8-6.7-14-16.4-16.6-26c0-6.3,5.4-10.1,0-13
			c2.5,0,2.5-3.4,5.4-3.4c-7.9-13,5.4-18.9,2.5-32.3c-7.9-9.2-22-16-27.7-32.3c-5-15.5,11.5-28.1,19.8-41.2c16.6-16,35.6-22.7,58-26
			c-5.8-16-36-35.3-5.8-51.2c16.6-22.7,22.3,18.9,36,26c16.6,21.8,35.3,35.3,52.6,51.2c-3.2,13-17.3,19.3-25.2,25.6
			c-5.4,0-5.4-3.4-5.4-6.3c-30.2-19.3-65.9-22.7-99.4-10.1c-2.9,3.8-2.9,10.1,0,13c8.6,9.7,14,18.9,24.8,16
			c8.6-12.6,19.4-16,27.4-21.8c0,5.9-7.9,2.9-7.9,9.2c-5.4,3.4-10.8,9.7-16.6,15.5c11.2,10.5,27.4,7.1,41.4,3.8
			C254.1,563.6,292.6,544.3,305.9,576.2z M270.3,598.9c-27.7-16.4-63.4-2.9-93.6-6.7c-2.9,3.8,0,10.1,0,16c2.9,13,10.8,23.1,22,26
			c25.2,13,52.6,3.4,71.6-16.4C275.3,611.9,275.3,602.3,270.3,598.9z"/>
		<path d="M581.7,410.8c2.9,80.6,9.4,185.2,20.9,259.6c1.4,6.3-8.3,4.2-6.8,10.9c-2.9,1.3-7.9,1.7-9.7,0.8
			c-11.2-10.9-16.2-29-18.7-46.2c-21.2-22.3-34.9-52.5-59.4-68.5l-4.7-5c-1.8,9.2,1.1,24.8,0,34l-1.1,23.1
			c-5.4,5.9-7.2,15.5-14,20.6c-4.7-1.3-7.9-5.9-9-10.5c-2.9-36.1-4-71.4-12.6-104.2c-6.5-8.8-12.2-16.8-8.6-28.6
			c2.9-9.2,13-16,19.8-22.3c5.4-1.7,10.8-0.8,13.3,6.3c15.1,30.2,37.8,51.2,62.6,72.2c-2.2-33.2-3.6-94.1-7.9-126.8
			c-1.4-13,11.9-15.1,19.1-21.4C571.2,402.4,581.3,400.3,581.7,410.8z"/>
		<path d="M700.1,515.8c12.6,22.7,15.5,51.2,12.6,78.5c-0.4,23.9-12.6,47.5-31.3,58.8c-12.6,12.6-27,21.4-42.8,17.2
			c-2.5-2.1-5.8-0.8-7.6-4.2c-2.9,1.3-5.4-2.9-8.6-3.8c-22.3-22.3-35.3-58-26.3-91.1c7.2-20.2,25.6-38.2,45.4-39.9
			c2.9-0.8,4.3,1.7,4.7,5c-2.2,14.7-19.4,17.2-18.4,34c-2.9,6.7-1.4,14.3-1.4,21.4c0.4,16.8,9,31.1,19.1,42.4
			c6.5,6.7,15.8,9.2,24.8,5.9c11.2-13.9,12.6-33.6,14.4-52.5c-1.8-28.6-8.3-62.6-33.8-75.6c-25.2-2.1-47.5,19.3-68.8,33.2
			c9.7-20.6,29.2-31.1,45.7-42.8C650.1,489.3,686.4,482.2,700.1,515.8z"/>
		<path d="M803.8,435.5c1.4,0,1.8-2.5,1.4-4.2c1.8,5.9,7.6,2.9,10.8,8l0.4-0.4c11.9,18.9,20.2,46.2,12.2,68
			c-15.8,44.1-27,85.3-29.9,127.7c0,10.5,4.3,18.9,0.7,29c-6.5,4.6-13.3,12.2-21.6,13c-2.2,2.9-6.5,1.7-9.4,0.8
			c-4.7-4.2-3.6-11.3-4.7-18.1c-6.8-30.2-22-60.1-36.4-87.8c-9.7-18.9-11.9-42.4-25.9-59.6c-1.8-5-1.1-9.2,2.5-13
			c6.8-6.7,15.1-11.3,23-13.9c11.9,4.2,10.1,18.5,16.6,28.6c6.5,23.5,20.2,48.3,29.5,71.4l1.1-2.5c3.6-45.4,29.5-89.5,20.5-133.6
			c4-2.1,2.5-8.4,1.4-11.8c-0.7-0.8,0-2.1-0.4-2.9c1.4,0.8,4.7,3.8,5,0l-1.4-5L803.8,435.5z"/>
		<path d="M840.5,491.8c0.4-10.5,7.6-13.4,7.6-13.4l30.6-16.4c0,0,0,14.7-0.4,29.8c-0.4,15.1-9.4,17.2-9.4,17.2l-29.5,10.1
			L840.5,491.8z M868.6,518.7c-7.9,5.5-19.8,5.9-24.5,16.8c13.7,36.5,17.6,80.6,27.7,120.5c4,2.9,7.6,7.1,10.4,10.9
			c-1.4-2.9,3.2-5,4.7-3.4l1.1,1.7c1.8,0,3.2,3.4,5,0.4l-1.1-0.4c2.5-2.1,4.7-7.1,7.6-5.9c0.4-5.9-0.4-12.6-1.1-16.4
			c-4.3-39.9-16.9-77.7-16.6-117.2C878.7,520,873.6,517,868.6,518.7z"/>
		<path d="M1018.7,410.8c2.9,80.6,9.4,185.2,20.9,259.6c1.4,6.3-8.3,4.2-6.8,10.9c-2.9,1.3-7.9,1.7-9.7,0.8
			c-11.2-10.9-16.2-29-18.7-46.2c-21.2-22.3-34.9-52.5-59.4-68.5l-4.7-5c-1.8,9.2,1.1,24.8,0,34l-1.1,23.1
			c-5.4,5.9-7.2,15.5-14,20.6c-4.7-1.3-7.9-5.9-9-10.5c-2.9-36.1-4-71.4-12.6-104.2c-6.5-8.8-12.2-16.8-8.6-28.6
			c2.9-9.2,13-16,19.8-22.3c5.4-1.7,10.8-0.8,13.3,6.3c15.1,30.2,37.8,51.2,62.6,72.2c-2.2-33.2-3.6-94.1-7.9-126.8
			c-1.4-13,11.9-15.1,19.1-21.4C1008.3,402.4,1018.3,400.3,1018.7,410.8z"/>
		<path d="M1073.8,640.5c-16.6-6.7-16.9-38.6-25.9-57.5c-6.8,0-13.3,4.2-21.2,2.1c-3.6-3.4-8.6-4.2-7.9-11.3
			c1.1-6.3,6.5-13.4,11.9-12.2l8.6,2.1c14.4,4.2-13.3-34.9-20.9-47c-1.1-8.4,7.6-14.3,12.2-19.7c5.8-2.1,6.8-16,13.3-13.9
			c3.6,2.5,6.8,14.3,10.8,22.3c7.2,14.7,10.4,31.9,16.6,47.5c7.6-4.6,33.5-16.4,39.6-22.3c-4.3-47.5-8.3-95.3-10.4-146.2
			c-2.2-6.3-1.4-11.3-0.4-17.6c6.8-6.3,16.6-8,24.8-11.8c16.9,2.5,5,23.5,8.6,36.5c1.8,89.5,1.1,178.9,35.6,255.8l8.6,21.4
			c-4.7,1.3-2.5,27.7-9,24.4c-4.7,2.5-13-15.1-16.2-19.3c-26.6-34-33.1-83.6-40-127.7c-6.1,0.4-28.8,17.2-35.3,19.3l-1.8,2.1
			c5.4,21,12.2,41.6,15.8,64.7C1092.5,639.7,1090.7,668.6,1073.8,640.5z"/>
		<path d="M1227.9,609.8c-9.7,0.8-18,12.2-27.7,15.1c-7.9,10.9-11.5,44.9-18,58c-6.1,13.4-18,15.5-24.1,16.4
			c1.1-5.5,0-12.6,1.1-19.3c4.7-9.7,7.9-33.2,10.8-42.8c-2.2-1.3-9.4-6.3-10.4-8.4c1.1-6.3,10.8-7.1,14.4-11.8
			c7.2-26,6.8-71.8,2.5-99.1c-4-7.6-9.7-14.7-4.7-23.1c-9.4-21-14.8-44.1-28.4-62.6c0-13.4,10.8-20.2,19.4-27.3
			c2.9-2.5,6.5-0.8,9-1.3c7.9,9.2,7.6,23.5,12.2,34.4c6.8,17.2,11.5,35.7,22,50c4.7,3.8,1.1,11.8,5,16.8
			c10.8,20.6,25.2,58.8,37.1,79.8c2.9-1.7,6.1-2.9,9.4-2.1c1.8,4.6-4.3,5.9-4.7,10.5c9.7,18.9,25.2,35.7,35.6,53.8
			c-5,0-5.8,7.6-10.8,5c-2.2,3.8-11.2-7.6-13-2.9C1249.8,639.2,1239.4,628.7,1227.9,609.8z M1205.9,602.7c4.7-0.8,19.1-3.4,16.6-8.4
			l-20.5-48.7v58L1205.9,602.7z"/>
	</g>
	<g class="respect-hottie">
		<path d="M1273.8,628.7c0.6-2.8,2.4-5.8,5.4-9c3-3.2,6.1-4.8,9.2-4.8c3.1,0,5.9-0.6,8.3-1.7c2.4-1.1,4.6-1.7,6.7-1.7
			c2,0,5.3,0.6,9.7,1.9c4.4,1.3,7.4,2,9,2.3c1.6,0.3,2.9,0.6,4,0.8c1.1,0.3,2.2,1.3,3.2,2.9c1.1,1.7,1.6,3.8,1.6,6.3
			c-3.6,18.8-9.4,30.7-17.3,35.7l-10.8,2.1c-3.1,0-6.6-2-10.4-5.9c-7.7-0.8-11.5-2.9-11.5-6.3c0-0.6-1.3-2.7-4-6.3
			c-2.6-3.6-4-6.6-4-8.8C1272.9,634.1,1273.2,631.5,1273.8,628.7z M1335.2,351.1l-3.2,31.5c-1,14.3-3.2,41-6.8,80.2
			c-3.6,39.2-5.4,65.9-5.4,80c0,14.1,0.7,23.3,2.2,27.5c-2.6,5.3-6,8-10.1,8c-2.2,0-4-0.3-5.4-0.8c-1.4-0.6-2.4-0.8-2.9-0.8h-1.4
			l-1.4-0.4c-5.5-10.1-8.6-19-9.4-26.9c-4.1-11.5-6.3-18.8-6.7-22c-0.4-3.2-0.9-5.4-1.6-6.5c-0.7-11.8-1.1-18.1-1.1-18.9v-17.6
			c1-7,1.4-14.3,1.4-21.8v-6.3c0-5.6,1-13.8,2.9-24.6c1.9-10.8,2.9-19.7,2.9-26.9c0-7.1,1.9-15.5,5.6-25c3.7-9.5,6.2-16.2,7.6-20.2
			c1.3-3.9,2.2-6.7,2.7-8.4c0.5-1.7,1.1-3.2,1.8-4.6c1.2-2.2,2.8-3.4,4.7-3.4c3.6-1.7,6.1-2.5,7.6-2.5
			C1329.8,340.6,1335.2,344.1,1335.2,351.1z"/>
	</g>
</g>
</svg>
