<?xml version="1.0" encoding="utf-8"?>
<!-- Generator: Adobe Illustrator 23.0.2, SVG Export Plug-In . SVG Version: 6.00 Build 0)  -->
<svg version="1.1" id="Layer_1" xmlns="http://www.w3.org/2000/svg" xmlns:xlink="http://www.w3.org/1999/xlink" x="0px" y="0px"
	 viewBox="0 0 665.97 351.77" style="enable-background:new 0 0 665.97 351.77;" xml:space="preserve">
<style type="text/css">
	.st0{fill:none;stroke:#FFFFFF;stroke-width:0.2;stroke-linecap:round;stroke-linejoin:round;}
	.st1{fill-rule:evenodd;clip-rule:evenodd;}
	.st2{fill-rule:evenodd;clip-rule:evenodd;fill:#211F1F;}
	.st3{fill:#FFFFFF;}
	.st4{fill-rule:evenodd;clip-rule:evenodd;fill:#FFFFFF;}
	.st5{font-family:'Constantia';}
	.st6{font-size:34.7px;}
	.st7{font-size:122.5px;}
	.st8{fill:none;stroke:#D1D4D6;stroke-width:0.7;stroke-miterlimit:22.93;}
	.st9{fill:none;stroke:#858787;stroke-width:0.72;stroke-miterlimit:22.93;}
</style>
<title>Man_ID_visual_UNEB-2222</title>
<g>
	<path class="st0" d="M160,343.03c-0.55,2.54-2.91,2.29-4.23,3.4c0.35,4.09-2.14,5.34-3.6,5.23c-1.46,0.11-4-1.14-3.61-5.23
		c-1.32-1.11-3.68-0.86-4.23-3.4c-0.2-2.22-0.07-5.54-1.8-6.79c4.65-1.52,6.24,1.6,6.24,1.6c0.23-2.31,1.48-4.4,3.4-5.71l0,0
		c1.92,1.31,3.16,3.4,3.4,5.71c0,0,1.59-3.12,6.23-1.6C159.98,337.55,160,343.03,160,343.03z M107,343.03
		c-0.55,2.54-2.91,2.29-4.22,3.4c0.34,4.09-2.15,5.34-3.61,5.23c-1.46,0.11-3.95-1.14-3.6-5.23c-1.32-1.11-3.68-0.86-4.23-3.4
		c-0.21-2.22-0.07-5.54-1.8-6.79c4.64-1.52,6.24,1.6,6.24,1.6c0.23-2.31,1.47-4.4,3.39-5.71l0,0c1.92,1.31,3.16,3.4,3.4,5.71
		c0,0,1.59-3.12,6.24-1.6C106.99,337.55,107,343.03,107,343.03z M125.11,18.65c0.22,0,0.51-0.09,0.64,0c0.5-0.17,1-0.62,1.65-0.55
		c0.65,1.43-1.38,2.94-1.92,4.08c-1.31,2.82-0.25,6.18-0.67,9.24c-0.75,4.72-2.95,9.09-6.29,12.5c-1.87,1.73-1.41,4.44-2.27,7
		c-1.62,4.77-6.2,6.21-6.23,6.46H86.3c-4.82-1.42-4-4.16-6.53-8.53s-1-10.86-0.34-12.61c0.56-1.32,1.26-2.57,2.07-3.75
		c1.82-2.81,4.45-5.01,7.55-6.3c2.2-1,5.17-1.14,7-2.63c0.78-0.61,1.47-1.3,2.08-2.08c1.64-2.15,2.53-4.72,4.2-6.83
		c1.01-1.31,2.14-2.53,3.37-3.64c3.02-2.72,6.39-5.04,10-6.9c1.22-1.06,1.12-2.58,1.76-4c0.28-0.02,0.56-0.02,0.84,0
		c0.41,1.22,0.41,1.22,0.59,1.4c1.33,0.39,1.3,0.7,1.76,2c0.24-0.2,0.24-0.2,1.2-2.08c0.2-0.01,0.39-0.01,0.59,0
		c1,2.13-1.84,7.23-3,8.69c-0.77,1-2.09,1.43-2.82,2.42c-3,4-2.36,9.94-4.7,14.37c-1,1.89-2.59,3.39-3.89,5.08
		c2.23-1.49,4.5-1.23,7.06-1.69c0.93-0.17,1-0.1,1.63-0.73c2.09-2.22,2.8-15.36,8-13c0,0.29,0.12,0.6,0,0.86s-0.37,0.34-0.52,0.52
		C124.42,18.28,124.74,18.52,125.11,18.65L125.11,18.65z M178.29,18.65c0.21,0,0.5-0.09,0.63,0c0.51-0.17,1-0.62,1.66-0.55
		c0.64,1.43-1.39,2.94-1.92,4.08c-1.32,2.82-0.26,6.18-0.68,9.24c-0.74,4.72-2.94,9.09-6.29,12.5c-1.86,1.73-1.41,4.44-2.27,7
		c-1.62,4.77-6.2,6.21-6.23,6.46h-23.72c-4.82-1.42-4-4.16-6.52-8.53s-1-10.86-0.34-12.61c0.56-1.32,1.25-2.57,2.07-3.75
		c1.82-2.82,4.45-5.02,7.55-6.3c2.2-1,5.16-1.14,7.05-2.63c0.77-0.61,1.47-1.31,2.07-2.08c1.64-2.15,2.53-4.72,4.2-6.83
		c1.01-1.31,2.14-2.53,3.37-3.64c3.02-2.72,6.38-5.04,10-6.9c1.21-1.06,1.11-2.58,1.76-4c0.28-0.02,0.55-0.02,0.83,0
		c0.42,1.22,0.42,1.22,0.6,1.4c1.32,0.39,1.29,0.7,1.76,2c0.24-0.2,0.23-0.2,1.19-2.08c0.2-0.01,0.4-0.01,0.6,0
		c1,2.13-1.85,7.23-3,8.69c-0.77,1-2.1,1.43-2.83,2.42c-3,4-2.36,9.94-4.69,14.37c-1,1.89-2.6,3.39-3.89,5.08
		c2.23-1.49,4.49-1.23,7.05-1.69c0.93-0.17,1-0.1,1.64-0.73c2.09-2.22,2.79-15.36,8-13c0,0.29,0.12,0.6,0,0.86s-0.36,0.34-0.52,0.52
		C177.63,18.27,177.94,18.51,178.29,18.65L178.29,18.65z M232.08,18.65c0.22,0,0.51-0.09,0.64,0c0.51-0.17,1-0.62,1.65-0.55
		c0.65,1.43-1.38,2.94-1.92,4.08c-1.31,2.82-0.25,6.18-0.67,9.24c-0.75,4.72-2.95,9.09-6.31,12.5c-1.86,1.73-1.41,4.44-2.27,7
		c-1.62,4.77-6.2,6.21-6.23,6.46h-23.7c-4.81-1.42-4-4.16-6.52-8.53s-1-10.86-0.35-12.61c0.57-1.32,1.27-2.57,2.08-3.75
		c1.82-2.82,4.45-5.01,7.54-6.3c2.21-1,5.17-1.14,7.06-2.63c0.77-0.61,1.47-1.31,2.07-2.08c1.64-2.15,2.53-4.72,4.2-6.83
		c1.02-1.31,2.15-2.53,3.38-3.64c3.02-2.72,6.38-5.04,10-6.9c1.22-1.06,1.12-2.58,1.77-4c0.28-0.02,0.55-0.02,0.83,0
		c0.41,1.22,0.41,1.22,0.6,1.4c1.32,0.39,1.29,0.7,1.76,2c0.23-0.2,0.23-0.2,1.19-2.08c0.2-0.01,0.4-0.01,0.6,0
		c1,2.13-1.85,7.23-3,8.69c-0.76,1-2.09,1.43-2.82,2.42c-3,4-2.36,9.94-4.7,14.37c-1,1.89-2.59,3.39-3.88,5.08
		c2.23-1.49,4.49-1.23,7.05-1.69c0.93-0.17,1-0.1,1.63-0.73c2.1-2.22,2.8-15.36,8-13c0,0.29,0.12,0.6,0,0.86s-0.36,0.34-0.52,0.52
		C231.45,18.26,231.74,18.51,232.08,18.65L232.08,18.65z M212.99,343.03c-0.54,2.54-2.91,2.29-4.22,3.4
		c0.34,4.09-2.15,5.34-3.61,5.23c-1.46,0.11-3.95-1.14-3.6-5.23c-1.32-1.11-3.68-0.86-4.23-3.4c-0.21-2.22-0.07-5.54-1.8-6.79
		c4.64-1.52,6.24,1.6,6.24,1.6c0.23-2.31,1.47-4.4,3.39-5.71l0,0c1.92,1.31,3.16,3.4,3.4,5.71c0,0,1.59-3.12,6.24-1.6
		C212.98,337.55,212.99,343.03,212.99,343.03z M144.61,286.03c-12.66-0.34-25.26-1.92-37.62-4.71l-0.26,9.69
		c12.45,3.67,25.3,5.84,38.26,6.46L144.61,286.03z M197.47,280.42c-12.35,2.79-24.91,4.57-37.55,5.32l-0.32,11.53
		c7.91-0.68,20.85-2.62,38.17-8L197.47,280.42z M67.25,89.92l3.16,179.35 M181.64,220.04L181.64,220.04l-19.39-22.12L181.64,220.04z
		 M195.01,235.25L195.01,235.25l-1.62-1.85l0,0L195.01,235.25z M165.38,82.49h-1.65c-0.29,0.56-0.79,0.97-1.39,1.15h3l-0.16,6.09
		h25.87l-0.2-6.09h18.68c0.6-0.18,1.1-0.59,1.39-1.15h-20.68c-0.79-0.38-1.29-1.18-1.29-2.06v-3.18l0.53,0.06h21.82v-1.05h-21.17
		c-3.83-0.01-6.93-3.11-6.92-6.94c0.01-3.82,3.1-6.91,6.92-6.92h22.73c-0.81-0.35-1.69-0.54-2.57-0.54h-1.59v-0.51h-15.79v-1.43
		c0.01-1.24,1.02-2.25,2.26-2.25h12.38c-0.34-0.2-0.73-0.31-1.13-0.31h5.8c0.4,0,0.79,0.11,1.13,0.31h2
		c1.23,0.02,2.22,1.02,2.22,2.25c0,0,0,0,0,0.06v1.41h-3.1v0.53h1.6c0.77-0.03,1.54,0.16,2.21,0.54h2c3.83,0.01,6.93,3.11,6.92,6.94
		c-0.01,3.82-3.1,6.91-6.92,6.92h-2.79c-0.15,0.03-0.29,0.03-0.44,0l0,0v1.05h3.1v3c0,0,0,0,0,0.06c0,0.88-0.5,1.68-1.29,2.06h-2.2
		c-0.28,0.56-0.79,0.98-1.39,1.15h3l-0.17,6.09h11.75l-3.08,182.12c0,0-5.08,2-13.65,4.53l-0.21,7.57
		c19.06-7.77,28.5-17.82,33.06-26.79l-0.41-0.16c0,0-6.5-3-9.24-6.55c-1.71-2.36-2.82-5.11-3.24-8c0,0-0.22-2.74,2.35-13.34
		c0.27-1.11,0.43-2.25,0.48-3.4c0-1.15-0.08-2.31-0.22-3.45c-0.68-4.28-2.68-7.85-3-12c-0.06-0.84,0.08-1.69,0.42-2.46
		c0.49-1.45,2-3.7,6.79-5.44c3.03-1.23,6.34-1.62,9.57-1.14c0,0,5.93,0.33,22.86,6.55c3.57,1.43,7.38,2.19,11.23,2.23l0.07-0.11
		c0,0,3-5.21,6.76-6.88c1.33-0.66,2.94-0.18,3.69,1.1c0,0,1.12,1.08-0.52,7c-0.11,0.47-0.18,0.94-0.23,1.42
		c-0.06,0.87-0.08,2.05,0,2.77c0,0.15,0,0.31,0,0.46v0.06c0.34,2.26,0.87,4.48,1.6,6.64c0.04,0.14,0.07,0.29,0.1,0.44
		c0.1,0.27,0.17,0.42,0.17,0.42s1.09,3-2.19,7.27c-0.86,1.05-1.96,1.87-3.22,2.38c-0.7,0.37-1.45,0.63-2.22,0.79
		c0,0-2.46,4.09-3.55,5.55c-1.15,1.54-2.42,2.98-3.8,4.31c0,0-2.57,2.12-4.57,1.57c-1.45-0.15-2.85-0.62-4.1-1.38
		c-1.42-0.76-3.55-1.85-4.85-2.51h-0.09l-0.09-0.05l-0.53-0.27h-0.06h-0.05h-0.06l-0.26-0.13h-0.06c-3.9-2-7.1-3.84-7.1-3.84
		c-0.07-0.11-0.14-0.22-0.19-0.34c-0.1-0.16-0.15-0.35-0.15-0.54c-0.05-0.45,0.13-0.89,0.47-1.19l0.07-0.1c0,0,0.35-0.74,1.77-0.46
		c0.98,0.21,1.95,0.47,2.9,0.79l0.66,0.22c0.36,0.09,0.61,0.12,0.7,0c1.14-1.25,2.17-2.59,3.09-4l-2.29-0.54
		c-6.22-1.53-12.59-2.36-19-2.47c-0.72,0.04-1.44,0.17-2.13,0.39c5.48,5.45,4.88,6.45,4.88,6.45c0.1,0.28,0.22,0.54,0.37,0.8
		c-0.09-0.49-0.16-0.75-0.16-0.75s5.36,8.12,13,12.62c9.71,5.73,9.67,11.61,9.67,11.61s7.85,26.82-37.77,51.59
		c-7.18,3.86-14.69,7.1-22.42,9.69l-0.39,14.21c-0.61,0.08-1.21,0.26-1.76,0.53h-0.61c-0.05-0.12-0.09-0.26-0.15-0.4
		c-0.29-0.76-0.68-1.47-1.16-2.12l-0.12-0.16c-0.55-0.72-1.23-1.33-2-1.8c-0.16-0.1-0.36-0.15-0.55-0.15H204
		c-0.56,0.42-1.07,0.91-1.49,1.47l0,0l0,0l0,0l0,0l0,0l0,0l0,0l0,0l0,0l0,0l0,0l0,0l0,0l0,0l0,0l0,0l0,0l0,0l0,0l0,0l0,0l0,0l0,0
		l0,0l0,0l0,0l0,0v0.05l0,0l0,0l0,0l0,0l0,0l0,0l0,0l0,0l0,0l0,0l0,0l0,0l0,0l0,0l0,0l0,0l0,0l0,0l0,0l0,0l0,0l0,0l0,0l0,0l0,0l0,0
		l0,0l0,0l0,0l0,0l0,0l0,0l0,0l0,0l0,0l0,0l0,0l0,0l0,0l0,0l0,0l0,0l0,0l0,0l0,0l0,0l0,0l0,0l0,0l0,0l0,0l0,0l0,0l0,0l0,0l0,0l0,0
		l0,0v0.05l0,0l0,0l0,0c-0.09,0.19-0.17,0.39-0.25,0.59s-0.12,0.3-0.16,0.43c-0.34-0.23-0.71-0.42-1.1-0.56
		c-0.27-0.1-0.55-0.19-0.83-0.25l-0.35-10.45c-13.18,3.29-26.66,5.26-40.23,5.88l-0.13,4.5c-0.61,0.08-1.21,0.26-1.76,0.53h-0.61
		l-0.14-0.4c-0.29-0.76-0.68-1.47-1.16-2.12l-0.13-0.16c-0.55-0.71-1.23-1.32-2-1.8c-0.17-0.1-0.36-0.15-0.55-0.15h-1.14
		c-0.56,0.42-1.06,0.92-1.49,1.47l0,0l0,0l0,0l0,0l0,0l0,0l0,0l0,0l0,0l0,0l0,0l0,0l0,0l0,0l0,0l0,0l0,0l0,0l0,0l0,0l0,0l0,0l0,0
		l0,0l0,0l0,0l0,0v0.05l0,0l0,0l0,0l0,0l0,0l0,0l0,0l0,0l0,0l0,0l0,0l0,0l0,0l0,0l0,0l0,0l0,0l0,0l0,0l0,0l0,0l0,0l0,0l0,0l0,0l0,0
		l0,0l0,0l0,0l0,0l0,0l0,0l0,0l0,0l0,0l0,0l0,0l0,0l0,0l0,0l0,0l0,0l0,0l0,0l0,0l0,0l0,0l0,0l0,0l0,0l0,0l0,0l0,0l0,0l0,0l0,0l0,0
		l0,0l0,0l0,0l0,0l0,0l0,0c-0.09,0.19-0.18,0.39-0.26,0.59s-0.11,0.3-0.16,0.43c-0.34-0.23-0.71-0.42-1.1-0.56
		c-0.27-0.11-0.55-0.19-0.83-0.25l-0.14-4.44c-13.6-0.43-27.11-2.36-40.29-5.75l-0.27,10.12c-0.61,0.08-1.21,0.26-1.76,0.53h-0.61
		c0-0.12-0.09-0.26-0.15-0.4c-0.29-0.76-0.68-1.47-1.16-2.12l-0.12-0.16c-0.55-0.72-1.23-1.33-2-1.8c-0.16-0.1-0.36-0.15-0.55-0.15
		h-1.13c-0.56,0.42-1.07,0.91-1.49,1.47l0,0l0,0l0,0l0,0l0,0l0,0l0,0l0,0l0,0l0,0l0,0l0,0l0,0l0,0l0,0l0,0l0,0l0,0l0,0l0,0l0,0l0,0
		l0,0l0,0l0,0l0,0l0,0v0.05l0,0l0,0l0,0l0,0l0,0l0,0l0,0l0,0l0,0l0,0l0,0l0,0l0,0l0,0l0,0l0,0l0,0l0,0l0,0l0,0l0,0l0,0l0,0l0,0l0,0
		l0,0l0,0l0,0l0,0l0,0l0,0l0,0l0,0l0,0l0,0l0,0l0,0l0,0l0,0l0,0l0,0l0,0l0,0l0,0l0,0l0,0l0,0l0,0l0,0l0,0l0,0l0,0l0,0l0,0l0,0l0,0
		l0,0l0,0l0,0v0.05l0,0l0,0l0,0c-0.09,0.19-0.17,0.39-0.25,0.59s-0.12,0.3-0.16,0.43c-0.34-0.23-0.71-0.42-1.1-0.56
		c-0.27-0.1-0.55-0.19-0.83-0.25l-0.47-14c-11.11-3.65-21.84-8.41-32-14.2c-42.92-24.59-34.6-50.52-34.6-50.52s1-4.33,10.67-10.82
		c5.8-3.89,12.19-16.37,12.19-16.37c-0.29,0.54-0.54,1.09-0.75,1.67c0.65-1.21,1-1.92,1-1.92s0.28-0.6,0.92-1.71
		c-1.26,0-11.27-0.16-17,2.6c-1.89,0.92-3.84,1.71-5.83,2.37c1.8,1.61,3.71,3.11,5.71,4.47c0.11,0.08,0.23,0.13,0.36,0.16
		c0.59-0.12,1.34-0.26,1.93-0.33c0.74-0.16,1.52,0.03,2.1,0.52c0,0,1.2,1.24,0.33,2c-0.89,0.56-1.87,0.98-2.89,1.24l-8.41,3.18
		c-0.67,0.28-1.33,0.57-2,0.86c-1.91,0.96-4.12,1.16-6.17,0.56c0,0-2.49-0.41-6-3.91c-2.29-2.46-4.38-5.1-6.24-7.9
		c-1.37-0.5-2.64-1.24-3.74-2.2c-3-2.72-2.25-5.64-2.25-5.64c0.25-0.51,0.43-1.04,0.55-1.59c0.42-2,1.12-5,2.24-9
		c0-0.13,0.07-0.26,0.1-0.39c0.23-1.18,0.37-2.38,0.43-3.59c0.01-0.9-0.04-1.8-0.15-2.7l-0.36-2.22c-0.2-0.95-0.45-1.88-0.77-2.79
		l0,0c0,0,1.3-2.52,3.75-1.43c3.76,1.67,4.92,6.82,4.92,6.82l0.14,0.32c3.59,0.82,7.32,0.67,10.84-0.41
		c10.84-3,14.84-4.77,19.7-5.82s10.37-1.14,14.25,0.34c3.61,1.35,6.37,4.31,7.46,8c0.29,0.84,0.48,1.71,0.57,2.6
		c0.22,3.27-0.12,6.56-1,9.72c-0.64,2.04-0.88,4.19-0.72,6.32v0.06l0.24,1.69v0.21c0.72,3.38,1.17,6.81,1.35,10.26
		c0,0,0-0.46-0.15-1.19l0.08,0.66c0.12,3.08-0.5,6.15-1.79,8.95c-1.89,3.26-4.4,6.11-7.4,8.39h-0.08c5.36,7.1,14.28,15,28.82,23
		c2.74,1.52,5.54,2.9,8.35,4.15l-0.28-8.26c-7.15-2.13-14.14-4.77-20.91-7.91L67.25,89.92v-0.14h17.82l-0.2-6.09h18.67
		c0.6-0.18,1.11-0.59,1.4-1.15H84.25c-0.79-0.38-1.29-1.18-1.29-2.06V77.3l0.53,0.06h21.82v-1.05H84.14
		c-3.83-0.01-6.93-3.11-6.92-6.94c0.01-3.82,3.1-6.91,6.92-6.92h22.73c-0.81-0.35-1.69-0.54-2.57-0.54h-1.6V61.4H86.92v-1.48
		c0-1.24,1.01-2.25,2.25-2.25l0,0h12.39c-0.34-0.2-0.73-0.31-1.13-0.31h5.79c0.4,0,0.79,0.11,1.13,0.31h2
		c1.23,0.01,2.23,1.02,2.22,2.25v1.47h-3.1v0.53h1.6c0.77-0.03,1.54,0.16,2.21,0.54h2c3.83,0.01,6.93,3.11,6.92,6.94
		c-0.01,3.82-3.1,6.91-6.92,6.92h-2.79c-0.15,0.03-0.29,0.03-0.44,0l0,0v1.05h3.1v3c0,0,0,0,0,0.06c0,0.88-0.5,1.68-1.29,2.06h-2.2
		c-0.28,0.56-0.79,0.98-1.39,1.15h3l-0.17,6.09h25.97l-0.21-6.09h18.68c0.6-0.17,1.11-0.59,1.39-1.15h-20.68
		c-0.79-0.38-1.29-1.18-1.29-2.06v-3.18c0.18,0.03,0.35,0.05,0.53,0.06h21.82v-1.05h-21.18c-3.83-0.01-6.93-3.11-6.92-6.94
		c0.01-3.82,3.1-6.91,6.92-6.92h22.74c-0.81-0.35-1.69-0.54-2.57-0.54h-1.6v-0.51h-15.78v-1.43c0-1.24,1.01-2.25,2.25-2.25l0,0
		h12.38c-0.34-0.2-0.73-0.31-1.13-0.31h5.8c0.4,0,0.79,0.11,1.13,0.31h2c1.23,0.02,2.22,1.02,2.22,2.25c0,0.02,0,0.04,0,0.06v1.41
		h-3.1v0.53h1.59c0.77-0.03,1.54,0.16,2.21,0.54h2c3.83,0.01,6.93,3.11,6.92,6.94c-0.01,3.82-3.1,6.91-6.92,6.92h-2.79
		c-0.15,0.03-0.3,0.03-0.45,0l0,0v1.05h3.11v3.09c0,0.88-0.5,1.68-1.29,2.06L165.38,82.49z"/>
	<path class="st1" d="M159.97,343.05c-0.54,2.54-2.91,2.29-4.22,3.4c0.34,4.08-2.15,5.33-3.61,5.23c-1.46,0.1-3.95-1.15-3.6-5.23
		c-1.32-1.11-3.68-0.86-4.23-3.4c-0.21-2.22-0.07-5.54-1.8-6.79c4.64-1.52,6.24,1.59,6.24,1.59c0.24-2.31,1.48-4.39,3.39-5.7l0,0
		c1.92,1.3,3.16,3.39,3.4,5.7c0,0,1.59-3.11,6.24-1.59C159.96,337.57,159.97,343.05,159.97,343.05 M106.97,343.05
		c-0.55,2.54-2.91,2.29-4.23,3.4c0.35,4.08-2.14,5.33-3.6,5.23c-1.46,0.1-4-1.15-3.61-5.23c-1.32-1.11-3.68-0.86-4.22-3.4
		c-0.21-2.22-0.07-5.54-1.81-6.79c4.65-1.52,6.24,1.59,6.24,1.59c0.24-2.31,1.48-4.4,3.4-5.7l0,0c1.92,1.3,3.16,3.39,3.4,5.7
		c0,0,1.59-3.11,6.24-1.59C106.96,337.57,106.98,343.05,106.97,343.05L106.97,343.05z M125.08,18.67c0.22,0,0.5-0.09,0.63,0
		c0.51-0.17,1-0.63,1.65-0.56c0.65,1.43-1.38,2.94-1.91,4.09c-1.31,2.81-0.26,6.17-0.68,9.24c-0.75,4.72-2.95,9.08-6.3,12.48
		c-1.86,1.73-1.41,4.43-2.26,6.95c-1.63,4.78-6.21,6.22-6.24,6.46H86.28c-4.82-1.42-4-4.16-6.53-8.53s-1-10.85-0.34-12.61
		c0.56-1.32,1.26-2.57,2.07-3.75c1.82-2.82,4.45-5.01,7.55-6.3c2.2-1,5.16-1.13,7.05-2.63c0.77-0.61,1.47-1.31,2.08-2.08
		c1.63-2.15,2.52-4.72,4.2-6.82c1.01-1.31,2.14-2.53,3.37-3.64c3.02-2.73,6.38-5.05,10-6.9c1.22-1.07,1.11-2.58,1.76-4
		c0.26,0,0.55-0.05,0.83-0.05c0.42,1.22,0.42,1.22,0.6,1.41c1.32,0.39,1.29,0.7,1.76,2c0.23-0.21,0.23-0.21,1.19-2.08
		c0.2-0.01,0.4-0.01,0.6,0c1,2.14-1.85,7.24-3,8.7c-0.77,1-2.1,1.43-2.83,2.42c-3,4-2.36,9.93-4.69,14.37
		c-1,1.88-2.59,3.38-3.89,5.07c2.23-1.48,4.49-1.22,7-1.69c0.93-0.17,1-0.1,1.63-0.73c2.1-2.22,2.81-15.36,8-13
		c0,0.28,0.12,0.59,0,0.86s-0.36,0.33-0.52,0.52C124.38,18.23,124.71,18.52,125.08,18.67L125.08,18.67z M178.25,18.67
		c0.22,0,0.51-0.09,0.64,0c0.5-0.17,1-0.63,1.65-0.56c0.65,1.43-1.38,2.94-1.92,4.09c-1.31,2.81-0.25,6.17-0.67,9.24
		c-0.74,4.71-2.94,9.07-6.28,12.48c-1.86,1.73-1.41,4.43-2.27,6.95c-1.62,4.78-6.2,6.22-6.23,6.46h-23.7
		c-4.82-1.42-4-4.16-6.53-8.53s-1-10.85-0.34-12.61c0.57-1.31,1.26-2.57,2.07-3.75c1.83-2.81,4.46-5.01,7.55-6.3
		c2.2-1,5.16-1.13,7.05-2.63c0.78-0.6,1.48-1.3,2.08-2.08c1.64-2.15,2.52-4.72,4.2-6.82c1.01-1.31,2.14-2.53,3.37-3.64
		c3.02-2.73,6.38-5.04,10-6.9c1.22-1.07,1.12-2.58,1.77-4c0.26,0,0.54-0.05,0.82-0.05c0.42,1.22,0.42,1.22,0.6,1.41
		c1.32,0.39,1.3,0.7,1.76,2c0.24-0.21,0.24-0.21,1.2-2.08c0.2-0.01,0.39-0.01,0.59,0c1,2.14-1.84,7.24-3,8.7
		c-0.77,1-2.09,1.43-2.83,2.42c-3,4-2.35,9.93-4.69,14.37c-1,1.88-2.59,3.38-3.89,5.07c2.23-1.48,4.5-1.22,7.05-1.69
		c0.94-0.17,1.05-0.1,1.64-0.73c2.09-2.22,2.8-15.36,8-13c0,0.28,0.12,0.59,0,0.86s-0.37,0.33-0.52,0.52
		C177.61,18.22,177.9,18.5,178.25,18.67L178.25,18.67z M232.05,18.67c0.21-0.05,0.43-0.05,0.64,0c0.5-0.17,1-0.62,1.65-0.55
		c0.65,1.43-1.38,2.94-1.92,4.09c-1.31,2.81-0.25,6.17-0.67,9.24c-0.75,4.71-2.94,9.07-6.28,12.47c-1.85,1.73-1.4,4.43-2.26,6.95
		c-1.62,4.78-6.2,6.22-6.24,6.46h-23.72c-4.82-1.42-4-4.16-6.53-8.53s-1-10.85-0.34-12.61c0.57-1.31,1.26-2.57,2.07-3.75
		c1.82-2.81,4.45-5.01,7.55-6.3c2.2-1,5.16-1.13,7-2.63c0.78-0.6,1.48-1.3,2.08-2.08c1.63-2.15,2.52-4.72,4.2-6.82
		c1.01-1.31,2.14-2.53,3.37-3.64c3.02-2.73,6.38-5.04,10-6.9c1.22-1.07,1.12-2.58,1.76-4c0.26,0,0.55-0.05,0.83-0.05
		c0.42,1.22,0.42,1.22,0.6,1.41c1.32,0.39,1.3,0.7,1.76,2c0.24-0.21,0.24-0.21,1.2-2.08c0.2-0.01,0.39-0.01,0.59,0
		c1,2.14-1.84,7.24-3,8.7c-0.77,1-2.09,1.43-2.83,2.42c-3,4-2.35,9.93-4.69,14.37c-1,1.88-2.59,3.38-3.89,5.07
		c2.23-1.48,4.5-1.22,7.05-1.69c0.93-0.17,1-0.1,1.64-0.73c2.09-2.22,2.8-15.36,8-13c0.06,0.28,0.06,0.58,0,0.86
		c-0.1,0.21-0.37,0.33-0.52,0.52c0.2,0.36,0.52,0.65,0.91,0.8H232.05z M212.97,343.05c-0.55,2.54-2.91,2.29-4.23,3.4
		c0.35,4.08-2.14,5.33-3.6,5.23c-1.46,0.1-4-1.15-3.61-5.23c-1.31-1.11-3.68-0.86-4.22-3.4c-0.21-2.22-0.07-5.54-1.81-6.79
		c4.65-1.52,6.24,1.59,6.24,1.59c0.24-2.31,1.48-4.4,3.4-5.7l0,0c1.92,1.3,3.16,3.39,3.4,5.7c0,0,1.59-3.11,6.23-1.59
		C212.95,337.57,212.97,343.05,212.97,343.05z M144.59,286.05c-12.66-0.34-25.26-1.92-37.62-4.71l-0.26,9.69
		c12.45,3.67,25.3,5.84,38.26,6.46L144.59,286.05z M197.4,280.47c-12.35,2.79-24.92,4.57-37.56,5.32l-0.31,11.53
		c7.9-0.68,20.84-2.62,38.16-8L197.4,280.47z M67.23,89.92l3.15,179.35 M181.62,220.04L181.62,220.04l-19.39-22L181.62,220.04z
		 M194.98,235.25L194.98,235.25l-1.62-1.84l0,0L194.98,235.25z M165.36,82.51h-1.66c-0.28,0.56-0.79,0.98-1.39,1.15h3l-0.17,6.09
		h25.88l-0.21-6.09h18.66c0.6-0.17,1.11-0.59,1.39-1.15h-20.64c-0.77-0.37-1.27-1.14-1.29-2v-3.19l0.53,0.07h21.82v-1.05H190.1
		c-3.82-0.15-6.81-3.36-6.66-7.19c0.14-3.62,3.04-6.52,6.66-6.66h22.74c-0.81-0.36-1.68-0.54-2.57-0.54h-1.6v-0.51h-15.78v-1.52
		c0-1.24,1.01-2.25,2.25-2.25l0,0h12.38c-0.34-0.2-0.73-0.31-1.13-0.31h5.8c0.4,0,0.79,0.11,1.13,0.31h2c1.24,0,2.25,1.01,2.25,2.25
		l0,0c0,0.02,0,0.04,0,0.06v1.41h-3.1v0.53h1.59c0.77-0.03,1.54,0.16,2.21,0.54h2c3.82,0.15,6.81,3.36,6.66,7.19
		c-0.14,3.62-3.04,6.52-6.66,6.66h-2.79c-0.15,0.03-0.3,0.03-0.45,0l0,0v1.05h3.11v3.1c-0.02,0.85-0.51,1.62-1.28,2h-2.2
		c-0.29,0.56-0.79,0.97-1.39,1.15h3l-0.16,6.09h11.74l-3.1,182.22c0,0-5.08,2-13.66,4.53l-0.2,7.57
		c19.05-7.77,28.49-17.82,33.06-26.79l-0.41-0.16c0,0-6.51-3-9.24-6.55c-1.71-2.36-2.82-5.11-3.24-8c0,0-0.22-2.74,2.35-13.34
		c0.27-1.11,0.43-2.25,0.48-3.4c-0.01-1.15-0.08-2.31-0.22-3.45c-0.69-4.28-2.68-7.85-3-12c-0.06-0.84,0.09-1.69,0.43-2.46
		c0.48-1.44,2-3.7,6.79-5.44c3.03-1.21,6.33-1.58,9.56-1.08c0,0,5.94,0.33,22.86,6.55c3.57,1.43,7.38,2.19,11.23,2.23l0.08-0.1
		c0,0,3-5.22,6.75-6.89c1.33-0.66,2.94-0.18,3.69,1.1c0,0,1.12,1.09-0.52,7c-0.1,0.47-0.18,0.94-0.23,1.41
		c-0.05,0.92-0.05,1.85,0,2.77v0.46v0.07c0.34,2.25,0.88,4.47,1.61,6.63c0,0,0,0.16,0.09,0.45l0.17,0.41c0,0,1.09,3-2.19,7.28
		c-0.86,1.04-1.96,1.86-3.21,2.38c-0.7,0.37-1.45,0.63-2.22,0.79c0,0-2.46,4.08-3.56,5.54c-1.15,1.54-2.42,2.98-3.8,4.31
		c0,0-2.57,2.12-4.57,1.57c-1.45-0.15-2.85-0.62-4.1-1.38c-1.41-0.76-3.55-1.85-4.85-2.51h-0.09h-0.09l-0.52-0.27h-0.07h-0.05h-0.05
		l-0.26-0.13h-0.07c-3.9-2-7.09-3.84-7.09-3.84c-0.08-0.11-0.14-0.22-0.19-0.34c-0.11-0.16-0.16-0.35-0.15-0.54
		c-0.05-0.45,0.12-0.89,0.46-1.19c0.03-0.03,0.05-0.06,0.07-0.1c0,0,0.36-0.74,1.78-0.46c0.98,0.21,1.94,0.48,2.89,0.79l0.67,0.23
		c0.35,0.08,0.61,0.11,0.7,0c1.13-1.25,2.16-2.59,3.08-4l-2.29-0.54c-6.22-1.53-12.59-2.36-19-2.47c-0.72,0.04-1.44,0.17-2.13,0.39
		c5.48,5.45,4.89,6.45,4.89,6.45c0.09,0.28,0.21,0.55,0.36,0.8c-0.08-0.49-0.15-0.75-0.15-0.75s5.35,8.12,13,12.62
		c9.71,5.73,9.67,11.61,9.67,11.61s7.84,26.82-37.78,51.59c-7.18,3.86-14.68,7.1-22.42,9.69l-0.38,13.89
		c-0.61,0.08-1.21,0.26-1.76,0.53h-0.61l-0.14-0.4c-0.29-0.76-0.68-1.47-1.16-2.12l-0.13-0.16c-0.55-0.72-1.23-1.33-2-1.8
		c-0.17-0.1-0.36-0.15-0.55-0.15h-1.14c-0.64,0.69-1.15,1.5-1.51,2.37l0,0l0,0l0,0l0,0l0,0l0,0l0,0l0,0l0,0l0,0l0,0l0,0l0,0l0,0l0,0
		l0,0l0,0l0,0l0,0l0,0l0,0l0,0l0,0l0,0l0,0l0,0l0,0l0,0l0,0v0.05l0,0l0,0l0,0l0,0l0,0l0,0l0,0l0,0l0,0l0,0l0,0l0,0l0,0l0,0l0,0l0,0
		l0,0l0,0l0,0l0,0l0,0l0,0l0,0l0,0l0,0l0,0l0,0l0,0l0,0l0,0l0,0l0,0l0,0l0,0l0,0l0,0l0,0l0,0l0,0l0,0l0,0l0,0l0,0l0,0l0,0l0,0l0,0
		l0,0l0,0l0,0l0,0l0,0l0,0l0,0l0,0l0,0l0,0l0,0l0,0l0,0l0,0l0,0l0,0c-0.09,0.19-0.18,0.39-0.26,0.59s-0.11,0.29-0.16,0.43
		c-0.34-0.23-0.71-0.42-1.1-0.56c-0.27-0.11-0.55-0.19-0.83-0.25l-0.34-10.45c-13.19,3.29-26.67,5.26-40.24,5.88l-0.12,4.5
		c-0.61,0.08-1.21,0.26-1.76,0.53h-0.61c0-0.12-0.09-0.26-0.15-0.4c-0.29-0.76-0.68-1.47-1.16-2.12l-0.12-0.16
		c-0.55-0.72-1.23-1.33-2-1.8c-0.16-0.1-0.36-0.15-0.55-0.15h-1.13c-0.56,0.42-1.07,0.91-1.49,1.47l0,0l0,0l0,0l0,0l0,0l0,0l0,0l0,0
		l0,0l0,0l0,0l0,0l0,0l0,0l0,0l0,0l0,0l0,0l0,0l0,0l0,0l0,0l0,0l0,0l0,0l0,0l0,0l0,0l0,0v0.05l0,0l0,0l0,0l0,0l0,0l0,0l0,0l0,0l0,0
		l0,0l0,0l0,0l0,0l0,0l0,0l0,0l0,0l0,0l0,0l0,0l0,0l0,0l0,0l0,0l0,0l0,0l0,0l0,0l0,0l0,0l0,0l0,0l0,0l0,0l0,0l0,0l0,0l0,0l0,0l0,0
		l0,0l0,0l0,0l0,0l0,0l0,0l0,0l0,0l0,0l0,0l0,0l0,0l0,0l0,0l0,0l0,0l0,0l0,0v0.06l0,0l0,0l0,0c-0.09,0.19-0.17,0.39-0.25,0.59
		s-0.12,0.29-0.16,0.43c-0.34-0.23-0.71-0.42-1.1-0.56c-0.27-0.11-0.55-0.19-0.83-0.25l-0.15-4.44c-13.6-0.43-27.11-2.36-40.28-5.75
		l-0.27,10.12c-0.62,0.08-1.21,0.26-1.77,0.53h-0.61l-0.14-0.4c-0.29-0.76-0.68-1.47-1.16-2.12l-0.13-0.16
		c-0.55-0.72-1.23-1.33-2-1.8c-0.17-0.1-0.36-0.15-0.55-0.15h-1.13c-0.56,0.42-1.07,0.91-1.49,1.47l0,0l0,0l0,0l0,0l0,0l0,0l0,0l0,0
		l0,0l0,0l0,0l0,0l0,0l0,0l0,0l0,0l0,0l0,0l0,0l0,0l0,0l0,0l0,0l0,0l0,0l0,0l0,0l0,0l0,0v0.05l0,0l0,0l0,0l0,0l0,0l0,0l0,0l0,0l0,0
		l0,0l0,0l0,0l0,0l0,0l0,0l0,0l0,0l0,0l0,0l0,0l0,0l0,0l0,0l0,0l0,0l0,0l0,0l0,0l0,0l0,0l0,0l0,0l0,0l0,0l0,0l0,0l0,0l0,0l0,0l0,0
		l0,0l0,0l0,0l0,0l0,0l0,0l0,0l0,0l0,0l0,0l0,0l0,0l0,0l0,0l0,0l0,0l0,0l0,0l0,0l0,0l0,0l0,0l0,0l0,0l0,0
		c-0.09,0.19-0.18,0.39-0.26,0.59s-0.11,0.29-0.16,0.43c-0.34-0.23-0.71-0.42-1.09-0.56c-0.27-0.11-0.55-0.19-0.84-0.25l-0.46-14
		c-11.11-3.65-21.83-8.41-32-14.2c-42.92-24.59-34.6-50.52-34.6-50.52s1-4.33,10.66-10.82c5.81-3.89,12.2-16.37,12.2-16.37
		c-0.3,0.53-0.55,1.09-0.75,1.67c0.65-1.21,1-1.92,1-1.92s0.28-0.59,0.92-1.71c-1.26,0-11.27-0.16-17,2.6
		c-1.89,0.92-3.84,1.71-5.83,2.37c1.8,1.61,3.71,3.11,5.71,4.47c0.11,0.08,0.23,0.13,0.36,0.16c0.58-0.12,1.34-0.26,1.92-0.33
		c0.75-0.15,1.52,0.04,2.11,0.52c0,0,1.19,1.24,0.32,2c-0.89,0.56-1.87,0.98-2.89,1.24l-11.28,9.53l-2,0.86
		c-1.91,0.96-4.11,1.16-6.16,0.56c0,0-2.49-0.41-6-3.91c-2.29-2.46-4.38-5.1-6.24-7.9c-1.37-0.5-2.64-1.24-3.74-2.2
		c-3-2.72-2.25-5.63-2.25-5.63c0.24-0.51,0.42-1.05,0.55-1.6c0.41-2,1.12-5,2.24-9c0-0.14,0.07-0.27,0.1-0.4
		c0.23-1.18,0.37-2.38,0.43-3.59c0.01-0.9-0.04-1.8-0.15-2.7c-0.14-0.86-0.26-1.6-0.37-2.22c-0.19-0.95-0.44-1.88-0.76-2.79l0,0
		c0,0,1.3-2.52,3.75-1.43c3.76,1.67,4.92,6.82,4.92,6.82l0.14,0.32c3.58,0.82,7.32,0.68,10.83-0.4c10.85-3,14.85-4.78,19.71-5.83
		s10.37-1.14,14.25,0.34c3.61,1.35,6.37,4.31,7.46,8c0.29,0.84,0.48,1.71,0.56,2.6c0.22,3.27-0.11,6.56-1,9.72
		c-0.63,2.04-0.87,4.19-0.71,6.32v0.06l0.24,1.69v0.22c0.72,3.38,1.17,6.8,1.35,10.25c0,0,0-0.46-0.15-1.19l0.08,0.66
		c0.12,3.08-0.5,6.15-1.79,8.95c-1.89,3.26-4.41,6.11-7.41,8.39h-0.07c5.35,7.1,14.27,15,28.81,23c2.75,1.52,5.54,2.9,8.35,4.15
		l-0.27-8.26c-7.16-2.13-14.15-4.77-20.92-7.91L67.23,89.92v-0.14h17.82l-0.21-6.09h18.68c0.6-0.17,1.11-0.59,1.39-1.15H84.23
		c-0.77-0.37-1.27-1.14-1.29-2v-3.19l0.53,0.07h21.82v-1.05H84.12c-3.82-0.15-6.81-3.36-6.66-7.19c0.14-3.62,3.04-6.52,6.66-6.66
		h22.73c-0.81-0.36-1.69-0.54-2.57-0.54h-1.6v-0.51H86.9v-1.55c0-1.24,1.01-2.25,2.25-2.25l0,0h12.38c-0.34-0.2-0.73-0.31-1.13-0.31
		h5.8c0.4,0,0.79,0.11,1.13,0.31h2c1.24,0,2.25,1.01,2.25,2.25l0,0v1.47h-3.11v0.53h1.59c0.77-0.03,1.54,0.15,2.21,0.54h2
		c3.82,0.15,6.81,3.36,6.66,7.19c-0.14,3.62-3.04,6.52-6.66,6.66h-2.79c-0.15,0.03-0.3,0.03-0.45,0l0,0v1.05h3.11v3.1
		c-0.02,0.85-0.51,1.63-1.28,2h-2.2c-0.29,0.56-0.79,0.97-1.39,1.15h3l-0.16,6.09h25.87l-0.2-6.09h18.69
		c0.6-0.17,1.11-0.59,1.4-1.15h-20.65c-0.77-0.37-1.27-1.14-1.29-2v-3.19l0.54,0.07h21.81v-1.05h-21.17
		c-3.82-0.15-6.81-3.36-6.66-7.19c0.14-3.62,3.04-6.52,6.66-6.66h22.73c-0.81-0.36-1.69-0.54-2.57-0.54h-1.59v-0.51h-15.79v-1.47
		c0-1.24,1.01-2.25,2.25-2.25c0,0,0.01,0,0.01,0h12.38c-0.34-0.2-0.73-0.31-1.13-0.31h5.79c0.4,0,0.79,0.1,1.13,0.31h2
		c1.24,0,2.25,1.01,2.25,2.25l0,0c0,0,0,0,0,0.06v1.41h-3.1v0.53h1.6c0.77-0.03,1.54,0.16,2.21,0.54h2
		c3.82,0.15,6.81,3.36,6.66,7.19c-0.14,3.62-3.04,6.52-6.66,6.66h-2.79c-0.14,0.04-0.3,0.04-0.44,0l0,0v1.05h3.1v3c0,0,0,0,0,0.06
		c-0.02,0.86-0.52,1.63-1.29,2L165.36,82.51z"/>
	<path class="st0" d="M139.92,61.38v-1.46c0-1.24,1.01-2.25,2.25-2.25l0,0h20.15c1.24,0,2.25,1.01,2.25,2.25c0,0,0,0,0,0
		c0,0.02,0,0.04,0,0.06v1.41L139.92,61.38z M165.35,83.64l-6.82,251.19c-0.85,0.11-1.66,0.41-2.37,0.88l-0.14-0.4
		c-0.29-0.76-0.68-1.47-1.16-2.12c-0.58-0.8-1.3-1.48-2.14-2c-0.17-0.1-0.36-0.15-0.55-0.15l0,0c-0.19,0-0.39,0.05-0.55,0.15
		c-0.84,0.52-1.56,1.2-2.13,2c-0.48,0.64-0.87,1.35-1.16,2.1c-0.06,0.15-0.11,0.3-0.16,0.43c-0.34-0.23-0.71-0.42-1.1-0.56
		c-0.27-0.11-0.55-0.19-0.83-0.25l-8.38-251.26L165.35,83.64z M167.35,76.29h-30.22c-3.83-0.01-6.93-3.11-6.92-6.94
		c0.01-3.82,3.1-6.91,6.92-6.92h30.21c3.83,0.01,6.93,3.11,6.92,6.94c-0.01,3.82-3.1,6.91-6.92,6.92H167.35z M160.01,343.03
		c-0.55,2.54-2.91,2.29-4.23,3.4c0.35,4.09-2.14,5.34-3.6,5.23c-1.46,0.11-4-1.14-3.61-5.23c-1.32-1.11-3.68-0.86-4.23-3.4
		c-0.2-2.22-0.07-5.54-1.8-6.79c4.65-1.52,6.24,1.6,6.24,1.6c0.23-2.31,1.48-4.4,3.4-5.71l0,0c1.92,1.31,3.16,3.4,3.4,5.71
		c0,0,1.59-3.12,6.23-1.6c-1.83,1.31-1.81,6.79-1.81,6.79H160.01z M165.39,82.49h-28.14c-0.79-0.38-1.29-1.18-1.29-2.06v-3.18
		c0.18,0.03,0.35,0.05,0.53,0.06h30.72v3.09c0,0.88-0.5,1.68-1.29,2.06L165.39,82.49z"/>
	<path class="st2" d="M139.89,61.41v-1.49c0-1.24,1.01-2.25,2.25-2.25c0,0,0.01,0,0.01,0h20.15c1.24,0,2.25,1.01,2.25,2.25l0,0
		c0,0,0,0,0,0.06v1.41L139.89,61.41z M165.33,83.66l-6.86,251.19c-0.85,0.11-1.66,0.41-2.37,0.88c0-0.12-0.09-0.26-0.15-0.4
		c-0.29-0.76-0.68-1.47-1.16-2.12c-0.57-0.8-1.3-1.48-2.14-2c-0.16-0.1-0.36-0.15-0.55-0.15l0,0c-0.19,0-0.38,0.05-0.54,0.15
		c-0.83,0.5-1.56,1.16-2.14,1.94c-0.47,0.65-0.86,1.36-1.15,2.11c-0.06,0.15-0.12,0.29-0.16,0.43c-0.34-0.23-0.71-0.42-1.1-0.56
		c-0.27-0.11-0.55-0.19-0.83-0.25L137.8,83.62L165.33,83.66z M167.33,76.31h-30.2c-3.82-0.15-6.81-3.36-6.66-7.19
		c0.14-3.62,3.04-6.52,6.66-6.66h30.2c3.82,0.15,6.81,3.36,6.66,7.19C173.86,73.27,170.95,76.17,167.33,76.31z M159.97,343.05
		c-0.54,2.54-2.91,2.29-4.22,3.4c0.34,4.08-2.15,5.33-3.61,5.23c-1.46,0.1-3.95-1.15-3.6-5.23c-1.32-1.11-3.68-0.86-4.23-3.4
		c-0.21-2.22-0.07-5.54-1.8-6.79c4.64-1.52,6.24,1.59,6.24,1.59c0.24-2.31,1.48-4.39,3.39-5.7l0,0c1.92,1.3,3.16,3.39,3.4,5.7
		c0,0,1.59-3.11,6.24-1.59C159.96,337.57,159.97,343.05,159.97,343.05z M165.36,82.51h-28.14c-0.77-0.37-1.27-1.14-1.29-2v-3.19
		l0.54,0.07h30.71v3c0,0,0,0,0,0.06c-0.02,0.86-0.52,1.63-1.29,2L165.36,82.51z"/>
	<path class="st3" d="M151.01,331.65l-1.46-243.73l0,0c0.01-0.52,0.24-1.01,0.63-1.35c0.4-0.36,0.9-0.58,1.44-0.61l0,0h0.73
		l-0.43,0.59l0,0l0,0l0,0c-0.12,0.18-0.22,0.38-0.28,0.59c-0.06,0.24-0.1,0.49-0.1,0.74l0,0l0.5,243.19
		c-0.15,0.01-0.29,0.06-0.42,0.14c-0.21,0.12-0.4,0.25-0.59,0.4 M148.58,334.67l-7.31-246.75l0,0l0,0c0.02-0.51,0.25-0.99,0.63-1.33
		l0,0c0.4-0.36,0.9-0.58,1.44-0.61l0,0h0.72l-0.42,0.59v0.06l0,0c-0.13,0.18-0.22,0.39-0.28,0.6c-0.07,0.24-0.1,0.49-0.1,0.74l0,0
		l6.28,245.19l-0.06,0.07c-0.35,0.46-0.66,0.96-0.92,1.48L148.58,334.67z"/>
	<path class="st4" d="M162.68,73.59h-25.29c-2.96,0.08-5.58-1.89-6.34-4.75h32.67c-0.08-2.58-0.81-4.77-2.92-5.86
		c-1.05-0.69-2.28-1.06-3.53-1.06h-1.59v-2.16c0.03-1.29-0.99-2.35-2.28-2.38c0,0,0,0,0,0h5.79c1.29,0.02,2.31,1.08,2.29,2.37
		c0,0,0,0.01,0,0.01c0,0,0,0,0,0.06v2.1h1.6c1.26,0,4.51,0.21,4.7,6.92h4.59c-0.66,2.55-2.83,4.42-5.45,4.69
		c-0.79,1.8-1.94,3-2.83,2.78l0,0v4.72c0,0,0,0,0,0.06c0.03,1.15-0.69,2.19-1.78,2.57l-5.56,251.72c-0.21,0.1-0.42,0.22-0.61,0.35
		c0-0.12-0.09-0.26-0.15-0.4c-0.29-0.76-0.68-1.47-1.16-2.12l-0.12-0.16l1.76-249.39c1.09-0.38,1.81-1.42,1.78-2.57c0,0,0,0,0-0.06
		v-4.72c1.83-0.1,3.49-1.12,4.4-2.72"/>
	<path class="st0" d="M86.92,61.38v-1.46c0-1.24,1.01-2.25,2.25-2.25l0,0h20.16c1.24,0,2.24,1,2.24,2.24c0,0,0,0.01,0,0.01v1.47
		L86.92,61.38z M112.36,83.64l-6.82,251.19c-0.85,0.11-1.66,0.41-2.37,0.88c0-0.12-0.09-0.26-0.15-0.4
		c-0.29-0.76-0.68-1.47-1.16-2.12c-0.57-0.8-1.3-1.48-2.14-2c-0.16-0.1-0.36-0.15-0.55-0.15l0,0c-0.19,0-0.38,0.05-0.55,0.15
		c-0.83,0.52-1.56,1.2-2.13,2c-0.48,0.65-0.86,1.35-1.15,2.1c-0.06,0.15-0.12,0.3-0.16,0.43c-0.34-0.23-0.71-0.42-1.1-0.56
		c-0.27-0.1-0.55-0.19-0.83-0.25L84.87,83.64H112.36z M114.36,76.29h-30.2c-3.83-0.01-6.93-3.11-6.92-6.94
		c0.01-3.82,3.1-6.91,6.92-6.92h30.2c3.83,0.01,6.93,3.11,6.92,6.94C121.28,73.19,118.18,76.29,114.36,76.29z M107.02,343.03
		c-0.55,2.54-2.91,2.29-4.22,3.4c0.34,4.09-2.15,5.34-3.61,5.23c-1.46,0.11-3.95-1.14-3.6-5.23c-1.32-1.11-3.68-0.86-4.23-3.4
		c-0.21-2.22-0.07-5.54-1.8-6.79c4.64-1.52,6.24,1.6,6.24,1.6c0.23-2.31,1.47-4.4,3.39-5.71l0,0c1.92,1.31,3.16,3.4,3.4,5.71
		c0,0,1.59-3.12,6.24-1.6c-1.84,1.31-1.83,6.79-1.83,6.79H107.02z M112.41,82.49H84.25c-0.79-0.38-1.29-1.18-1.29-2.06v-3.18
		l0.53,0.06h30.72v3c0,0,0,0,0,0.06c0,0.88-0.5,1.68-1.29,2.06L112.41,82.49z"/>
	<path class="st2" d="M86.9,61.41v-1.49c0-1.24,1.01-2.25,2.25-2.25l0,0h20.15c1.24,0,2.25,1.01,2.25,2.25l0,0v1.47L86.9,61.41z
		 M112.33,83.66l-6.81,251.19c-0.85,0.11-1.66,0.41-2.38,0.88l-0.14-0.4c-0.29-0.76-0.68-1.47-1.16-2.12c-0.58-0.8-1.3-1.48-2.14-2
		c-0.17-0.1-0.36-0.15-0.55-0.15l0,0c-0.19,0-0.38,0.05-0.55,0.15c-0.83,0.5-1.55,1.16-2.13,1.94c-0.48,0.65-0.87,1.36-1.16,2.11
		c-0.06,0.15-0.11,0.29-0.16,0.43c-0.34-0.23-0.71-0.42-1.09-0.56c-0.27-0.11-0.55-0.19-0.84-0.25L84.84,83.62L112.33,83.66z
		 M114.33,76.31h-30.2c-3.82-0.15-6.81-3.36-6.66-7.19c0.14-3.62,3.04-6.52,6.66-6.66h30.2c3.82,0.15,6.81,3.36,6.66,7.19
		C120.86,73.27,117.95,76.17,114.33,76.31z M106.99,343.05c-0.55,2.54-2.91,2.29-4.23,3.4c0.35,4.08-2.14,5.33-3.6,5.23
		c-1.46,0.1-4-1.15-3.61-5.23c-1.32-1.11-3.68-0.86-4.22-3.4c-0.21-2.22-0.07-5.54-1.81-6.79c4.65-1.52,6.24,1.59,6.24,1.59
		c0.24-2.31,1.48-4.4,3.4-5.7l0,0c1.92,1.3,3.16,3.39,3.4,5.7c0,0,1.59-3.11,6.24-1.59C106.96,337.57,106.98,343.05,106.99,343.05
		L106.99,343.05z M112.38,82.51H84.23c-0.77-0.37-1.27-1.14-1.29-2v-3.19l0.53,0.07h30.72v3.1c-0.02,0.85-0.51,1.63-1.28,2
		L112.38,82.51z"/>
	<path class="st3" d="M98.02,331.65L96.56,87.92l0,0c0.01-0.52,0.24-1.01,0.63-1.35c0.39-0.37,0.9-0.58,1.44-0.61l0,0h0.74
		l-0.44,0.59l0,0l0,0l0,0c-0.13,0.18-0.22,0.38-0.28,0.59c-0.07,0.24-0.1,0.49-0.1,0.74l0,0l0.5,243.19
		c-0.15,0.01-0.3,0.06-0.43,0.14c-0.2,0.12-0.4,0.25-0.58,0.4 M95.59,334.67L88.27,87.92l0,0l0,0c0.02-0.51,0.25-0.99,0.63-1.33l0,0
		c0.39-0.37,0.9-0.58,1.44-0.61l0,0h0.71l-0.41,0.59l-0.05,0.06l0,0c-0.13,0.18-0.23,0.39-0.29,0.6c-0.07,0.24-0.1,0.49-0.1,0.74
		l0,0l6.29,245.19l-0.06,0.07c-0.33,0.46-0.62,0.96-0.86,1.48L95.59,334.67z"/>
	<path class="st4" d="M109.69,73.59h-25.3c-2.96,0.08-5.58-1.89-6.34-4.75h32.67c-0.08-2.58-0.8-4.77-2.91-5.86
		c-1.05-0.69-2.28-1.06-3.53-1.06h-1.6v-2.1c0,0,0,0,0-0.06c0.02-1.29-1-2.35-2.29-2.38h5.8c1.29,0.03,2.31,1.09,2.28,2.38
		c0,0,0,0,0,0v2.16h1.59c1.27,0,4.51,0.21,4.71,6.92h4.58c-0.66,2.55-2.83,4.42-5.45,4.69c-0.78,1.8-1.94,3-2.83,2.78l0,0v4.72
		c0,0.02,0,0.04,0,0.06c0.02,1.15-0.69,2.18-1.77,2.57l-5.57,251.72c-0.21,0.1-0.41,0.22-0.61,0.35l-0.14-0.4
		c-0.29-0.76-0.68-1.47-1.16-2.12l-0.13-0.16l1.81-249.39c1.09-0.38,1.8-1.42,1.78-2.57c0,0,0,0,0-0.06v-4.72
		c1.83-0.1,3.49-1.12,4.4-2.72"/>
	<path class="st0" d="M125.47,22.17c-1.31,2.82-0.25,6.18-0.67,9.24c-0.74,4.72-2.94,9.09-6.28,12.51c-1.87,1.73-1.41,4.44-2.27,7
		c-1.62,4.77-6.2,6.21-6.23,6.46H86.3c-4.82-1.42-4-4.16-6.53-8.53s-1-10.86-0.34-12.61c0.56-1.32,1.26-2.57,2.07-3.75
		c1.82-2.81,4.45-5.01,7.55-6.3c2.2-1,5.17-1.14,7-2.63c0.78-0.61,1.47-1.3,2.08-2.08c1.64-2.15,2.53-4.72,4.2-6.83
		c1.01-1.31,2.14-2.53,3.37-3.64c3.02-2.72,6.39-5.04,10-6.9c1.22-1.06,1.12-2.58,1.76-4c0.28-0.02,0.56-0.02,0.84,0
		c0.41,1.22,0.41,1.22,0.59,1.4c1.33,0.39,1.3,0.7,1.76,2c0.24-0.2,0.24-0.2,1.2-2.08c0.2-0.01,0.39-0.01,0.59,0
		c1,2.13-1.84,7.23-3,8.69c-0.77,1-2.09,1.43-2.82,2.42c-3,4-2.36,9.94-4.7,14.37c-1,1.89-2.59,3.39-3.89,5.08
		c2.23-1.49,4.5-1.23,7.06-1.69c0.93-0.17,1-0.1,1.63-0.73c2.09-2.22,2.8-15.36,8-13c0,0.29,0.12,0.6,0,0.86s-0.37,0.34-0.52,0.52
		c1.14,1.93,1.89,0.16,3.11,0.29C128.05,19.52,126.02,21.03,125.47,22.17z M178.65,22.17c-1.32,2.82-0.26,6.18-0.68,9.24
		c-0.74,4.72-2.93,9.1-6.28,12.51c-1.86,1.73-1.41,4.44-2.27,7c-1.62,4.77-6.2,6.21-6.23,6.46h-23.72c-4.82-1.42-4-4.16-6.52-8.53
		s-1-10.86-0.34-12.61c0.56-1.32,1.25-2.57,2.07-3.75c1.82-2.82,4.45-5.02,7.55-6.3c2.2-1,5.16-1.14,7.05-2.63
		c0.77-0.61,1.47-1.31,2.07-2.08c1.64-2.15,2.53-4.72,4.2-6.83c1.01-1.31,2.14-2.53,3.37-3.64c3.02-2.72,6.38-5.04,10-6.9
		c1.21-1.06,1.11-2.58,1.76-4c0.28-0.02,0.55-0.02,0.83,0c0.42,1.22,0.42,1.22,0.6,1.4c1.32,0.39,1.29,0.7,1.76,2
		c0.24-0.2,0.23-0.2,1.19-2.08c0.2-0.01,0.4-0.01,0.6,0c1,2.13-1.85,7.23-3,8.69c-0.77,1-2.1,1.43-2.83,2.42
		c-3,4-2.36,9.94-4.69,14.37c-1,1.89-2.6,3.39-3.89,5.08c2.23-1.49,4.49-1.23,7.05-1.69c0.93-0.17,1-0.1,1.64-0.73
		c2.09-2.22,2.79-15.36,8-13c0,0.29,0.12,0.6,0,0.86s-0.36,0.34-0.52,0.52c1.15,1.93,1.9,0.16,3.12,0.29
		c0.68,1.28-1.35,2.79-1.88,3.93H178.65z M232.44,22.17c-1.31,2.82-0.25,6.18-0.67,9.24c-0.74,4.73-2.94,9.1-6.3,12.51
		c-1.86,1.73-1.41,4.44-2.27,7c-1.62,4.77-6.2,6.21-6.23,6.46h-23.7c-4.81-1.42-4-4.16-6.52-8.53s-1-10.86-0.35-12.61
		c0.57-1.32,1.27-2.57,2.08-3.75c1.82-2.82,4.45-5.01,7.54-6.3c2.21-1,5.17-1.14,7.06-2.63c0.77-0.61,1.47-1.31,2.07-2.08
		c1.64-2.15,2.53-4.72,4.2-6.83c1.02-1.31,2.15-2.53,3.38-3.64c3.02-2.72,6.38-5.04,10-6.9c1.22-1.06,1.12-2.58,1.77-4
		c0.28-0.02,0.55-0.02,0.83,0c0.41,1.22,0.41,1.22,0.6,1.4c1.32,0.39,1.29,0.7,1.76,2c0.23-0.2,0.23-0.2,1.19-2.08
		c0.2-0.01,0.4-0.01,0.6,0c1,2.13-1.85,7.23-3,8.69c-0.76,1-2.09,1.43-2.82,2.42c-3,4-2.36,9.94-4.7,14.37
		c-1,1.89-2.59,3.39-3.88,5.08c2.23-1.49,4.49-1.23,7.05-1.69c0.93-0.17,1-0.1,1.63-0.73c2.1-2.22,2.8-15.36,8-13
		c0,0.29,0.12,0.6,0,0.86s-0.36,0.34-0.52,0.52c1.14,1.93,1.9,0.16,3.11,0.29c0.67,1.28-1.36,2.79-1.88,3.93H232.44z"/>
	<path class="st2" d="M125.47,22.2c-1.31,2.81-0.26,6.17-0.68,9.24c-0.75,4.72-2.96,9.08-6.32,12.48c-1.86,1.73-1.41,4.43-2.26,6.95
		c-1.63,4.78-6.21,6.22-6.24,6.46H86.28c-4.82-1.42-4-4.16-6.53-8.53s-1-10.85-0.34-12.61c0.56-1.32,1.26-2.57,2.07-3.75
		c1.82-2.82,4.45-5.01,7.55-6.3c2.2-1,5.16-1.13,7.05-2.63c0.77-0.61,1.47-1.31,2.08-2.08c1.63-2.15,2.52-4.72,4.2-6.82
		c1.01-1.31,2.14-2.53,3.37-3.64c3.02-2.73,6.38-5.05,10-6.9c1.22-1.07,1.11-2.58,1.76-4c0.26,0,0.55-0.05,0.83-0.05
		c0.42,1.22,0.42,1.22,0.6,1.41c1.32,0.39,1.29,0.7,1.76,2c0.23-0.21,0.23-0.21,1.19-2.08c0.2-0.01,0.4-0.01,0.6,0
		c1,2.14-1.85,7.24-3,8.7c-0.77,1-2.1,1.43-2.83,2.42c-3,4-2.36,9.93-4.69,14.37c-1,1.88-2.59,3.38-3.89,5.07
		c2.23-1.48,4.49-1.22,7-1.69c0.93-0.17,1-0.1,1.63-0.73c2.1-2.22,2.81-15.36,8-13c0,0.28,0.12,0.59,0,0.86s-0.36,0.33-0.52,0.52
		c1.15,1.92,1.9,0.15,3.11,0.28C128.02,19.54,125.99,21.05,125.47,22.2z M178.64,22.2c-1.31,2.81-0.25,6.17-0.67,9.24
		c-0.75,4.71-2.95,9.08-6.3,12.48c-1.86,1.73-1.41,4.43-2.27,6.95c-1.62,4.78-6.2,6.22-6.23,6.46h-23.7c-4.82-1.42-4-4.16-6.53-8.53
		s-1-10.85-0.34-12.61c0.57-1.31,1.26-2.57,2.07-3.75c1.83-2.81,4.46-5.01,7.55-6.3c2.2-1,5.16-1.13,7.05-2.63
		c0.78-0.6,1.48-1.3,2.08-2.08c1.64-2.15,2.52-4.72,4.2-6.82c1.01-1.31,2.14-2.53,3.37-3.64c3.02-2.73,6.38-5.04,10-6.9
		c1.22-1.07,1.12-2.58,1.77-4c0.26,0,0.54-0.05,0.82-0.05c0.42,1.22,0.42,1.22,0.6,1.41c1.32,0.39,1.3,0.7,1.76,2
		c0.24-0.21,0.24-0.21,1.2-2.08c0.2-0.01,0.39-0.01,0.59,0c1,2.14-1.84,7.24-3,8.7c-0.77,1-2.09,1.43-2.83,2.42
		c-3,4-2.35,9.93-4.69,14.37c-1,1.88-2.59,3.38-3.89,5.07c2.23-1.48,4.5-1.22,7.05-1.69c0.94-0.17,1.05-0.1,1.64-0.73
		c2.09-2.22,2.8-15.36,8-13c0,0.28,0.12,0.59,0,0.86s-0.37,0.33-0.52,0.52c1.14,1.92,1.89,0.15,3.11,0.28
		C181.2,19.54,179.17,21.05,178.64,22.2L178.64,22.2z M232.44,22.2c-1.31,2.81-0.25,6.17-0.67,9.24c-0.75,4.71-2.95,9.08-6.3,12.48
		c-1.85,1.73-1.4,4.43-2.26,6.95c-1.62,4.78-6.2,6.22-6.24,6.46h-23.72c-4.82-1.42-4-4.16-6.53-8.53s-1-10.85-0.34-12.61
		c0.57-1.31,1.26-2.57,2.07-3.75c1.82-2.81,4.45-5.01,7.55-6.3c2.2-1,5.16-1.13,7-2.63c0.78-0.6,1.48-1.3,2.08-2.08
		c1.63-2.15,2.52-4.72,4.2-6.82c1.01-1.31,2.14-2.53,3.37-3.64c3.02-2.73,6.38-5.04,10-6.9c1.22-1.07,1.12-2.58,1.76-4
		c0.26,0,0.55-0.05,0.83-0.05c0.42,1.22,0.42,1.22,0.6,1.41c1.32,0.39,1.3,0.7,1.76,2c0.24-0.21,0.24-0.21,1.2-2.08
		c0.2-0.01,0.39-0.01,0.59,0c1,2.14-1.84,7.24-3,8.7c-0.77,1-2.09,1.43-2.83,2.42c-3,4-2.35,9.93-4.69,14.37
		c-1,1.88-2.59,3.38-3.89,5.07c2.23-1.48,4.5-1.22,7.05-1.69c0.93-0.17,1-0.1,1.64-0.73c2.09-2.22,2.8-15.36,8-13
		c0.06,0.28,0.06,0.58,0,0.86c-0.1,0.21-0.37,0.33-0.52,0.52c1.14,1.92,1.89,0.15,3.11,0.28c0.74,1.39-1.29,2.9-1.79,4.05H232.44z"
		/>
	<path class="st4" d="M125.75,19.33c-0.1,0.18-0.62,0.25-0.74,0.42s-0.13,0.74-0.22,1s-0.49,0.88-0.64,1.18
		c-0.24,0.49-0.33,2.2-0.85,2s0.34-1.27,0.43-1.7c0.14-0.63,0.25-1.27,0.32-1.92c0-0.43-0.42-1.41-0.11-1.71s0.72,0.09,1,0.11
		s0.7-0.15,0.85,0S125.83,19.19,125.75,19.33z M121.33,23.81c-0.11,0.57-0.35,1.87,0,2.34c0.3,0.24,0.68,0.36,1.06,0.32
		c0.25,0,0.63-0.64,0.85-0.53c0.78,0.37,0.54,2.56,0.43,3.41c-0.29,2.38-2.3,6.83-3.41,9c-0.51,1-2,2.64-2.45,3.62
		c-0.57,1.46-1.03,2.96-1.39,4.48c-0.18,0.69-0.43,2.1-0.64,2.78c-0.13,0.41-0.26,1.38-0.64,1.6s-1.32,0.12-1.49-0.22
		s0.67-1.39,1-1.81s1.22-0.94,1.17-1.39c-0.18-0.41-0.56-0.69-1-0.74c-0.49,0-0.92,1.22-1.38,1.38s-1.74,0.23-1.92-0.21
		c-0.12-0.28,0.64-0.67,0.74-1c0.11-0.66,0.11-1.34,0-2c-0.01-0.69-0.15-1.37-0.42-2c-0.13-0.18-0.54-0.49-0.75-0.43
		c-0.77,0.21-0.91,2.37-1.6,2.77c-0.48,0.17-1.01,0.17-1.49,0c-0.4-0.22-0.7-0.57-0.86-1c-0.13-0.8,1.84-2.39,1.28-3
		c-0.16-0.17-0.67,0.18-0.85,0.32c-0.97,0.98-1.79,2.09-2.45,3.3c-0.48,0.81-0.66,3.43-1.6,3.42c-0.61,0-0.71-1.69-1-2.24
		s-0.78-1.5-1-2c-0.64-1.67-1.04-3.43-1.17-5.22c0.33-1.68,0.9-3.29,1.7-4.8c0.33-0.68,1.29-2,1.17-2.78
		c-0.07-0.48-0.79-1.57-1.27-1.49c-2,0.32-3.05,5.37-3,7.36c0,1.33,1.25,3.9,1.07,5.22c-0.11,0.75-0.65,2.52-1.39,2.67
		s-1.59-1.07-1.92-1.6s0-1.71-0.43-1.81s-1,1.52-1.49,1.92s-1.8,1.67-2.34,1.28c-1.5-1.08,0.75-5.49,1.27-7.25
		c0.3-1,2.47-3.21,1.61-3.74c-1.16-0.69-2.75,3-3.42,4.16c-0.49,0.86-0.42,3.5-1.39,3.73c-0.45,0.11-1-1-1.38-1.27
		s-0.65-0.93-1-0.86c-1.11,0.25-0.69,4.35-1.81,4.16c-0.76-0.13-0.37-2.33-0.22-3.09c0.34-1.7,4.32-5,3.1-6.19
		c-0.55-0.54-2.26,0.81-2.77,1.39c-1,1.16-1.48,4.45-2.14,5.86c-0.15,0.34-0.39,1.38-0.74,1.28c-1.16-0.32-0.22-3.64,0.1-4.79
		c0.06-0.21,0.57-0.59,0.43-0.75c-0.33-0.37-1.39,0.5-1.81,0.75s-1.31,1.8-1.81,1.47c-1.89-1.45,2.14-7,3.73-8.74
		c1.59-1.74,6.61-3.67,8.74-5c1.87-1.11,3.65-2.36,5.33-3.73c1.77-1.68,4.36-5.86,6-7.68c1.86-2.02,3.82-3.94,5.87-5.76
		c0.95-0.78,1.95-1.49,3-2.13c0.98-0.38,1.91-0.88,2.77-1.49c0.68-0.76,1.24-3.19,2.24-3.41c0.15,0,0.38,0.3,0.53,0.32
		c1,0.14,1,0.53,1,0.85s-1.3,0.36-1.39,0.75s0.82,0.46,0.86,0.74s-0.81,0.72-1.07,1c-0.38,0.55-0.74,1.12-1.06,1.71
		c-0.33,0.4-1.24,0.92-1.61,1.28c-0.74,0.91-1.4,1.87-2,2.88c-0.59,0.71-1.12,1.45-1.6,2.24c-0.25,1.23-0.43,2.48-0.53,3.73
		c-0.18,0.79-1.08,2.29-1,3.09c0,0.29,0.54,0.69,0.64,1c0.2,0.65,0.28,1.33,0.21,2c-0.53,1.27-1.25,2.46-2.13,3.52
		c-0.64,0.86-2.32,2.28-2.88,3.19c-1.17,2.03-2.03,4.23-2.56,6.51c-0.17,1.08-1.09,4.26,0,4.37s0.31-2.88,0.74-3.73
		c0.77-1,1.63-1.92,2.56-2.77c0.73-0.97,1.59-1.83,2.56-2.56c1.52-0.77,5.14-0.45,6.72-1.07c0.67-0.32,1.25-0.8,1.71-1.38
		c0.5-0.99,0.89-2.03,1.17-3.1c0.31-1,0.63-3.22,1-4.26c0.33-1.19,0.8-2.34,1.39-3.42c0.24-0.35,0.85-1.25,1.27-1.17
		s0.51,0.77,0.54,1.07c-0.09,0.81-0.31,1.6-0.64,2.34c-0.44,1.01-0.83,2.05-1.17,3.1L121.33,23.81z M119.33,6.75
		c-0.26,0.29-0.81,0.86-1.06,1.17c-0.25,0.31-0.93,1.3-1.28,1.7s-1,0.94-1.28,1.28c-0.43,0.48-0.79,1.02-1.07,1.6
		c-0.1,0.31,0,1-0.1,1.28c-0.28,0.55-0.64,1.06-1.07,1.5c-0.21,0.22-0.69,0.89-1,0.74c-0.42-0.23,0.06-1.46,0.21-1.92
		c0.18-0.37,0.4-0.72,0.64-1.06c0.24-0.38,0.78-1.09,1-1.5c0.11-0.25,0.2-0.81,0.31-1.06c0.31-0.56,0.67-1.1,1.07-1.6
		c0.25-0.36,0.54-0.69,0.85-1c0.22-0.17,0.75-0.36,1-0.53c0.41-0.34,0.77-0.74,1.07-1.18c0.18-0.31,0.28-1,0.42-1.38
		s0.31-1.15,0.64-1.18c0.14,0,0.22,0.35,0.33,0.43s0.74,0.12,0.85,0.32s-0.12,0.66-0.21,0.85c-0.38,0.54-0.81,1.04-1.29,1.5
		L119.33,6.75z M85.07,52.81c0.35,0.35,0.92,1.16,1.28,1.49s1.06,0.51,1.17,0.86c0,0.14,0,0.52-0.17,0.57
		c-0.48,0.18-1.36-0.76-1.75-1.1c-0.32-0.37-0.6-0.76-0.85-1.18c-0.26-0.41-1.34-1.39-1-1.7s1,0.77,1.28,1.06L85.07,52.81z
		 M86.57,52.28c0.14-0.23,0.83,0,1.06,0.11c0.54,0.44,0.82,1.12,0.75,1.81c-0.17,0.17-0.41,0.25-0.64,0.21
		C87.17,54.2,86.23,52.79,86.57,52.28L86.57,52.28z M90.3,48.87c0.83,0.18,0.73,2.47,1.17,3.19c0.2,0.34,0.83,0.86,1.07,1.18
		c0.2,0.37,0.45,0.7,0.74,1c0.23,0.14,0.94,0,1.07,0.21s-0.23,0.72-0.43,0.85s-1.37,0.49-1.7,0.22s-0.2-1.06-0.33-1.39
		s-0.31-0.64-0.42-0.85s-0.61-0.94-0.75-1.28s-0.19-1.06-0.32-1.39s-0.68-0.84-0.64-1.17s0.35-0.62,0.54-0.52V48.87z M94.67,52.92
		c-0.07-0.42-0.89-1.37-0.54-1.6s0.84,1.26,1.18,1.07s-0.31-0.74-0.22-1s0.48-0.52,0.64-0.43s-0.09,1,0,1.28s0.71,0.74,0.75,1.06
		s-0.24,0.64-0.32,0.86s-0.17,1.29-0.53,1.38s-0.62-0.43-0.75-0.64c-0.13-0.34-0.2-0.7-0.21-1.06
		C94.64,53.64,94.71,53.16,94.67,52.92z M100.85,51.43c0.1-0.06,0.35,0,0.43,0.1s0.25,0.72,0.32,1s0.15,0.72,0.21,1s0.13,0.8,0.32,1
		c0.23,0.13,0.49,0.17,0.75,0.11c0.18-0.06,0.37-0.44,0.53-0.54c0.32-0.15,0.65-0.26,1-0.32c0.34-0.05,1.31-0.33,1.39,0
		s-0.8,0.41-1.07,0.54c-0.35,0.1-0.69,0.24-1,0.43c-0.14,0.14-0.17,0.6-0.32,0.74c-0.26,0.17-0.55,0.28-0.85,0.32
		c-0.42,0.1-0.86,0.1-1.28,0c-0.14-0.12-0.25-0.26-0.32-0.43c-0.14-0.27-0.24-0.56-0.32-0.85c-0.09-0.49-0.13-0.99-0.11-1.49
		C100.57,52.54,100.53,51.63,100.85,51.43L100.85,51.43z M178.93,19.33c-0.11,0.18-0.62,0.25-0.75,0.42s-0.13,0.74-0.21,1
		s-0.5,0.88-0.64,1.18c-0.24,0.49-0.33,2.2-0.85,2s0.33-1.27,0.42-1.7c0.14-0.63,0.25-1.27,0.32-1.92c0-0.43-0.41-1.41-0.1-1.71
		s0.71,0.09,0.95,0.11s0.71-0.15,0.86,0C179.02,18.91,179.03,19.14,178.93,19.33L178.93,19.33z M174.47,23.81
		c-0.11,0.57-0.35,1.87,0,2.34c0.3,0.24,0.69,0.36,1.07,0.32c0.25,0,0.62-0.64,0.85-0.53c0.77,0.37,0.53,2.56,0.43,3.41
		c-0.29,2.38-2.31,6.83-3.42,9c-0.5,1-2,2.64-2.45,3.62c-0.57,1.46-1.03,2.96-1.38,4.48c-0.19,0.69-0.43,2.1-0.64,2.78
		c-0.13,0.41-0.27,1.38-0.65,1.6s-1.31,0.12-1.49-0.22s0.67-1.39,1-1.81s1.22-0.94,1.18-1.39c-0.18-0.4-0.56-0.68-1-0.74
		c-0.49,0-0.93,1.22-1.39,1.38s-1.73,0.23-1.92-0.21c-0.12-0.28,0.65-0.67,0.75-1c0.1-0.66,0.1-1.34,0-2
		c-0.02-0.69-0.17-1.36-0.43-2c-0.13-0.18-0.54-0.49-0.75-0.43c-0.77,0.21-0.9,2.37-1.6,2.77c-0.48,0.17-1.01,0.17-1.49,0
		c-0.4-0.22-0.7-0.57-0.85-1c-0.13-0.8,1.84-2.39,1.28-3c-0.16-0.17-0.67,0.18-0.85,0.32c-0.97,0.98-1.8,2.09-2.46,3.3
		c-0.48,0.81-0.66,3.43-1.6,3.42c-0.61,0-0.71-1.69-1-2.24s-0.77-1.5-1-2c-0.64-1.68-1.03-3.43-1.17-5.22
		c0.33-1.67,0.91-3.29,1.71-4.8c0.33-0.68,1.28-2,1.17-2.78c-0.07-0.48-0.79-1.57-1.28-1.49c-2,0.32-3,5.37-3,7.36
		c0,1.33,1.25,3.9,1.07,5.22c-0.1,0.75-0.65,2.52-1.38,2.67s-1.6-1.07-1.93-1.6s0-1.71-0.42-1.81s-1,1.52-1.5,1.92
		s-1.8,1.67-2.34,1.28c-1.5-1.08,0.75-5.49,1.28-7.25c0.29-1,2.47-3.21,1.59-3.74c-1.14-0.69-2.73,3-3.4,4.16
		c-0.5,0.86-0.42,3.5-1.39,3.73c-0.46,0.11-1-1-1.39-1.27s-0.64-0.93-1-0.86c-1.1,0.25-0.69,4.35-1.81,4.16
		c-0.76-0.13-0.36-2.33-0.21-3.09c0.34-1.7,4.31-5,3.09-6.19c-0.55-0.54-2.26,0.81-2.77,1.39c-1,1.16-1.47,4.45-2.13,5.86
		c-0.16,0.34-0.39,1.38-0.75,1.28c-1.16-0.32-0.21-3.64,0.11-4.79c0.05-0.21,0.56-0.59,0.42-0.75c-0.32-0.37-1.39,0.5-1.81,0.75
		s-1.44,1.86-1.92,1.49c-1.88-1.45,2.14-7,3.73-8.74c1.59-1.74,6.62-3.67,8.75-5c1.86-1.11,3.65-2.36,5.33-3.73
		c1.76-1.68,4.35-5.86,6-7.68c1.85-2.02,3.81-3.94,5.86-5.76c0.95-0.78,1.95-1.49,3-2.13c0.98-0.38,1.91-0.88,2.77-1.49
		c0.68-0.76,1.24-3.19,2.24-3.41c0.15,0,0.38,0.3,0.54,0.32c0.95,0.14,1,0.53,0.95,0.85s-1.29,0.36-1.38,0.75s0.82,0.46,0.85,0.74
		s-0.8,0.72-1.07,1s-0.74,1.32-1.06,1.71s-1.24,0.92-1.6,1.28c-0.74,0.91-1.41,1.87-2,2.88c-0.59,0.71-1.12,1.45-1.6,2.24
		c-0.25,1.23-0.43,2.48-0.53,3.73c-0.18,0.79-1.08,2.29-1,3.09c0,0.29,0.54,0.69,0.64,1c0.2,0.65,0.28,1.33,0.21,2
		c-0.53,1.28-1.24,2.46-2.13,3.52c-0.64,0.86-2.31,2.28-2.88,3.19c-1.17,2.03-2.03,4.23-2.56,6.51c-0.17,1.08-1.08,4.26,0,4.37
		s0.32-2.88,0.75-3.73c0.77-1,1.62-1.93,2.56-2.77c0.72-0.97,1.59-1.84,2.56-2.56c1.51-0.77,5.13-0.45,6.71-1.07
		c0.67-0.32,1.25-0.79,1.71-1.38c0.5-0.99,0.89-2.03,1.17-3.1c0.32-1,0.64-3.22,1-4.26c0.33-1.19,0.8-2.34,1.39-3.42
		c0.25-0.35,0.85-1.25,1.28-1.17s0.5,0.77,0.53,1.07c-0.09,0.81-0.31,1.6-0.64,2.34c-0.25,0.79-1,2.28-1.17,3.1L174.47,23.81z
		 M172.47,6.75c-0.26,0.29-0.81,0.86-1.07,1.17c-0.26,0.31-0.93,1.3-1.28,1.7s-1,0.94-1.28,1.28c-0.42,0.48-0.78,1.02-1.06,1.6
		c-0.11,0.31,0,1-0.11,1.28c-0.28,0.55-0.64,1.06-1.07,1.5c-0.21,0.22-0.69,0.89-1,0.74s0.06-1.46,0.22-1.92
		c0.18-0.37,0.39-0.73,0.64-1.06c0.23-0.38,0.77-1.09,1-1.5c0.11-0.25,0.2-0.81,0.32-1.06c0.31-0.56,0.66-1.1,1.06-1.6
		c0.26-0.36,0.54-0.69,0.86-1c0.21-0.17,0.74-0.36,1-0.53c0.41-0.34,0.77-0.74,1.06-1.18c0.18-0.31,0.29-1,0.43-1.38
		s0.3-1.15,0.64-1.18c0.13,0,0.21,0.35,0.32,0.43s0.75,0.12,0.85,0.32s-0.11,0.66-0.21,0.85c-0.38,0.54-0.81,1.04-1.28,1.5
		L172.47,6.75z M138.19,52.81c0.34,0.35,0.92,1.16,1.28,1.49s1.05,0.51,1.17,0.86c0,0.14,0,0.52-0.18,0.57
		c-0.48,0.18-1.36-0.76-1.74-1.1c-0.32-0.36-0.61-0.76-0.85-1.18c-0.27-0.41-1.34-1.39-1-1.7s1,0.77,1.28,1.06L138.19,52.81z
		 M139.68,52.28c0.14-0.23,0.83,0,1.07,0.11c0.53,0.44,0.81,1.12,0.74,1.81c-0.16,0.17-0.4,0.25-0.64,0.21
		C140.28,54.2,139.34,52.79,139.68,52.28L139.68,52.28z M143.47,48.92c0.83,0.18,0.73,2.47,1.17,3.19c0.21,0.34,0.83,0.86,1.07,1.18
		c0.2,0.37,0.45,0.7,0.75,1c0.23,0.14,0.93,0,1.06,0.21s-0.23,0.72-0.43,0.85s-1.37,0.49-1.7,0.22s-0.2-1.06-0.32-1.39
		c-0.13-0.29-0.27-0.58-0.43-0.85c-0.17-0.33-0.61-0.94-0.74-1.28s-0.2-1.06-0.32-1.39s-0.69-0.84-0.64-1.17
		S143.29,48.82,143.47,48.92z M147.84,52.97c-0.06-0.42-0.89-1.37-0.53-1.6s0.83,1.26,1.17,1.07s-0.3-0.74-0.21-1
		s0.47-0.52,0.64-0.43s-0.1,1,0,1.28s0.7,0.74,0.75,1.06s-0.25,0.64-0.33,0.86s-0.17,1.29-0.53,1.38s-0.62-0.43-0.75-0.64
		c-0.13-0.34-0.2-0.7-0.21-1.06c-0.02-0.25,0.04-0.73,0-0.97V52.97z M154.03,51.48c0.09-0.06,0.34,0,0.42,0.1s0.26,0.72,0.32,1
		s0.15,0.72,0.22,1s0.12,0.8,0.32,1c0.22,0.13,0.49,0.17,0.74,0.11c0.18-0.06,0.37-0.44,0.54-0.54c0.32-0.16,0.65-0.26,1-0.32
		c0.33-0.05,1.3-0.33,1.38,0s-0.8,0.41-1.06,0.54c-0.35,0.1-0.69,0.24-1,0.43c-0.14,0.14-0.17,0.6-0.31,0.74
		c-0.26,0.17-0.55,0.28-0.86,0.32c-0.42,0.1-0.86,0.1-1.28,0c-0.12-0.06-0.25-0.31-0.32-0.43c-0.14-0.27-0.24-0.56-0.32-0.85
		c-0.09-0.49-0.13-0.99-0.1-1.49c0.02-0.55-0.02-1.46,0.31-1.66V51.48z M232.73,19.38c-0.11,0.18-0.62,0.25-0.75,0.42
		s-0.13,0.74-0.21,1s-0.5,0.88-0.64,1.18c-0.24,0.49-0.34,2.2-0.86,2s0.34-1.27,0.43-1.7c0.14-0.63,0.25-1.27,0.32-1.92
		c0-0.43-0.42-1.41-0.11-1.71s0.72,0.09,1,0.11s0.71-0.15,0.86,0c0.06,0.19,0.05,0.39-0.04,0.57V19.38z M228.3,23.86
		c-0.11,0.57-0.35,1.87,0,2.34c0.3,0.24,0.69,0.36,1.07,0.32c0.24,0,0.62-0.64,0.85-0.53c0.77,0.37,0.53,2.56,0.43,3.41
		c-0.29,2.38-2.31,6.83-3.42,9c-0.5,1-2,2.64-2.45,3.62c-0.56,1.46-1.03,2.96-1.39,4.48c-0.18,0.69-0.42,2.1-0.64,2.78
		c-0.13,0.41-0.26,1.38-0.64,1.6s-1.32,0.12-1.49-0.22s0.67-1.39,1-1.81s1.22-0.94,1.17-1.39c-0.17-0.41-0.56-0.69-1-0.74
		c-0.48,0-0.92,1.22-1.38,1.38s-1.73,0.23-1.92-0.21c-0.12-0.28,0.65-0.67,0.74-1c0.11-0.66,0.11-1.34,0-2
		c-0.01-0.69-0.15-1.37-0.42-2c-0.13-0.18-0.54-0.49-0.75-0.43c-0.77,0.21-0.91,2.37-1.6,2.77c-0.48,0.17-1.01,0.17-1.49,0
		c-0.4-0.22-0.7-0.57-0.85-1c-0.13-0.8,1.84-2.39,1.28-3c-0.16-0.17-0.68,0.18-0.86,0.32c-0.97,0.98-1.79,2.09-2.45,3.3
		c-0.48,0.81-0.66,3.43-1.6,3.42c-0.61,0-0.71-1.69-1-2.24s-0.78-1.5-1-2c-0.64-1.67-1.04-3.43-1.17-5.22
		c0.33-1.68,0.91-3.29,1.71-4.8c0.33-0.68,1.28-2,1.17-2.78c-0.08-0.48-0.8-1.57-1.28-1.49c-2,0.32-3,5.37-3,7.36
		c0,1.33,1.25,3.9,1.07,5.22c-0.11,0.75-0.65,2.52-1.39,2.67s-1.59-1.07-1.92-1.6s0-1.71-0.42-1.81s-1,1.52-1.5,1.92
		s-1.8,1.67-2.34,1.28c-1.5-1.08,0.75-5.49,1.28-7.25c0.28-1,2.46-3.21,1.6-3.74c-1.15-0.69-2.75,3-3.41,4.16
		c-0.5,0.86-0.42,3.5-1.39,3.73c-0.46,0.11-1-1-1.39-1.27s-0.64-0.93-1-0.86c-1.11,0.25-0.69,4.35-1.81,4.16
		c-0.76-0.13-0.37-2.33-0.22-3.09c0.34-1.7,4.32-5,3.1-6.19c-0.55-0.54-2.26,0.81-2.77,1.39c-1,1.16-1.47,4.45-2.14,5.86
		c-0.15,0.34-0.39,1.38-0.74,1.28c-1.16-0.32-0.22-3.64,0.1-4.79c0.06-0.21,0.57-0.59,0.43-0.75c-0.32-0.37-1.39,0.5-1.81,0.75
		s-1.44,1.86-1.92,1.49c-1.88-1.45,2.14-7,3.73-8.74c1.59-1.74,6.61-3.67,8.74-5c1.87-1.11,3.65-2.36,5.33-3.73
		c1.77-1.68,4.36-5.86,6-7.68c1.85-2.02,3.81-3.94,5.86-5.76c0.95-0.78,1.95-1.49,3-2.13c0.98-0.38,1.91-0.88,2.77-1.49
		c0.68-0.76,1.24-3.19,2.24-3.41c0.15,0,0.38,0.3,0.53,0.32c1,0.14,1,0.53,1,0.85s-1.29,0.36-1.38,0.75s0.81,0.46,0.85,0.74
		s-0.81,0.72-1.07,1s-0.75,1.32-1.06,1.71s-1.24,0.92-1.6,1.28c-0.74,0.91-1.41,1.87-2,2.88c-0.59,0.71-1.12,1.45-1.6,2.24
		c-0.25,1.23-0.43,2.48-0.53,3.73c-0.18,0.79-1.08,2.29-1,3.09c0,0.29,0.54,0.69,0.64,1c0.2,0.65,0.28,1.33,0.21,2
		c-0.53,1.27-1.25,2.46-2.13,3.52c-0.64,0.86-2.31,2.28-2.88,3.19c-1.17,2.03-2.03,4.23-2.56,6.51c-0.17,1.08-1.09,4.26,0,4.37
		s0.31-2.88,0.75-3.73c0.77-1,1.62-1.93,2.56-2.77c0.72-0.97,1.59-1.84,2.56-2.56c1.51-0.77,5.13-0.45,6.71-1.07
		c0.67-0.32,1.25-0.79,1.71-1.38c0.5-0.99,0.89-2.03,1.17-3.1c0.32-1,0.64-3.22,1-4.26c0.33-1.19,0.8-2.34,1.39-3.42
		c0.24-0.35,0.85-1.25,1.28-1.17s0.5,0.77,0.53,1.07c-0.09,0.81-0.31,1.6-0.64,2.34c-0.25,0.79-1,2.28-1.17,3.1L228.3,23.86z
		 M226.3,6.8c-0.27,0.29-0.82,0.86-1.07,1.17c-0.25,0.31-0.93,1.3-1.28,1.7s-1,0.94-1.28,1.28c-0.43,0.48-0.79,1.02-1.07,1.6
		c-0.1,0.31,0,1-0.1,1.28c-0.28,0.55-0.64,1.06-1.07,1.5c-0.21,0.22-0.69,0.89-1,0.74s0.06-1.46,0.22-1.92
		c0.18-0.37,0.39-0.73,0.64-1.06c0.23-0.38,0.77-1.09,1-1.5c0.11-0.25,0.2-0.81,0.31-1.06c0.31-0.56,0.67-1.1,1.07-1.6
		c0.25-0.36,0.54-0.7,0.86-1c0.21-0.17,0.74-0.36,1-0.53c0.41-0.34,0.77-0.74,1.07-1.18c0.18-0.31,0.29-1,0.43-1.38
		s0.3-1.15,0.64-1.18c0.13,0,0.21,0.35,0.32,0.43s0.74,0.12,0.85,0.32s-0.11,0.66-0.21,0.85c-0.38,0.54-0.81,1.04-1.28,1.5
		L226.3,6.8z M192.01,52.86c0.35,0.35,0.93,1.16,1.28,1.49s1.06,0.51,1.17,0.86c0,0.14,0,0.52-0.17,0.57
		c-0.48,0.18-1.36-0.76-1.74-1.1c-0.32-0.37-0.61-0.76-0.86-1.18c-0.26-0.41-1.33-1.39-1-1.7s1,0.77,1.28,1.06L192.01,52.86z
		 M193.51,52.33c0.14-0.23,0.83,0,1.06,0.11c0.54,0.44,0.82,1.12,0.75,1.81c-0.16,0.17-0.4,0.25-0.64,0.21
		C194.11,54.25,193.17,52.84,193.51,52.33L193.51,52.33z M197.27,48.92c0.83,0.18,0.73,2.47,1.17,3.19
		c0.21,0.34,0.83,0.86,1.07,1.18c0.2,0.37,0.45,0.7,0.74,1c0.24,0.14,0.94,0,1.07,0.21s-0.23,0.72-0.43,0.85s-1.37,0.49-1.7,0.22
		s-0.2-1.06-0.32-1.39s-0.32-0.64-0.43-0.85s-0.61-0.94-0.75-1.28s-0.19-1.06-0.32-1.39s-0.68-0.84-0.63-1.17
		S197.08,48.82,197.27,48.92z M201.64,52.97c-0.07-0.42-0.89-1.37-0.53-1.6s0.83,1.26,1.17,1.07s-0.3-0.74-0.21-1
		s0.47-0.52,0.64-0.43s-0.1,1,0,1.28s0.7,0.74,0.74,1.06s-0.24,0.64-0.32,0.86s-0.17,1.29-0.53,1.38s-0.62-0.43-0.75-0.64
		c-0.13-0.34-0.2-0.7-0.21-1.06c-0.02-0.25,0.04-0.73,0-0.97V52.97z M207.83,51.48c0.09-0.06,0.34,0,0.42,0.1s0.25,0.72,0.32,1
		s0.15,0.72,0.21,1s0.13,0.8,0.33,1c0.22,0.13,0.49,0.17,0.74,0.11c0.18-0.06,0.37-0.44,0.53-0.54c0.32-0.15,0.65-0.26,1-0.32
		c0.35-0.05,1.31-0.33,1.39,0s-0.8,0.41-1.06,0.54c-0.35,0.1-0.69,0.24-1,0.43c-0.14,0.14-0.17,0.6-0.32,0.74
		c-0.26,0.17-0.55,0.28-0.85,0.32c-0.42,0.1-0.86,0.1-1.28,0c-0.14-0.12-0.25-0.26-0.32-0.43c-0.14-0.27-0.24-0.56-0.32-0.85
		c-0.12-0.54-0.17-1.1-0.15-1.66c0.07-0.38,0-1.29,0.36-1.49V51.48z"/>
	<path class="st0" d="M192.91,61.38v-1.46c0.01-1.24,1.02-2.25,2.26-2.25h20.15c1.24,0,2.25,1.01,2.25,2.25l0,0c0,0,0,0,0,0.06v1.41
		L192.91,61.38z M218.35,83.64l-6.82,251.19c-0.85,0.11-1.66,0.41-2.37,0.88c-0.05-0.12-0.09-0.26-0.15-0.4
		c-0.29-0.76-0.68-1.47-1.16-2.12c-0.57-0.8-1.3-1.48-2.14-2c-0.16-0.1-0.36-0.15-0.55-0.15l0,0c-0.19,0-0.38,0.05-0.54,0.15
		c-0.84,0.52-1.57,1.2-2.14,2c-0.48,0.65-0.86,1.35-1.15,2.1c-0.06,0.15-0.12,0.3-0.16,0.43c-0.34-0.23-0.71-0.42-1.1-0.56
		c-0.27-0.1-0.55-0.19-0.83-0.25l-8.38-251.26L218.35,83.64z M220.35,76.29h-30.2c-3.83-0.01-6.93-3.11-6.92-6.94
		c0.01-3.82,3.1-6.91,6.92-6.92h30.2c3.83,0.01,6.93,3.11,6.92,6.94C227.27,73.19,224.17,76.29,220.35,76.29z M213.01,343.03
		c-0.54,2.54-2.91,2.29-4.22,3.4c0.34,4.09-2.15,5.34-3.61,5.23c-1.46,0.11-3.95-1.14-3.6-5.23c-1.32-1.11-3.68-0.86-4.23-3.4
		c-0.21-2.22-0.07-5.54-1.8-6.79c4.64-1.52,6.24,1.6,6.24,1.6c0.23-2.31,1.47-4.4,3.39-5.71l0,0c1.92,1.31,3.16,3.4,3.4,5.71
		c0,0,1.59-3.12,6.24-1.6c-1.84,1.31-1.83,6.79-1.83,6.79H213.01z M218.4,82.49h-28.16c-0.79-0.38-1.29-1.18-1.29-2.06v-3.18
		l0.53,0.06h30.72v3c0,0,0,0,0,0.06c0,0.88-0.5,1.68-1.29,2.06L218.4,82.49z"/>
	<path class="st2" d="M192.89,61.41v-1.49c0-1.24,1.01-2.25,2.25-2.25l0,0h20.15c1.24,0,2.25,1.01,2.25,2.25l0,0
		c0,0.02,0,0.04,0,0.06v1.41L192.89,61.41z M218.32,83.66l-6.85,251.19c-0.85,0.11-1.66,0.41-2.37,0.88l-0.14-0.4
		c-0.29-0.76-0.68-1.47-1.16-2.12c-0.58-0.8-1.3-1.48-2.14-2c-0.17-0.1-0.36-0.15-0.55-0.15l0,0c-0.19,0-0.38,0.05-0.55,0.15
		c-0.83,0.5-1.55,1.16-2.13,1.94c-0.48,0.65-0.87,1.36-1.16,2.11c-0.06,0.15-0.11,0.29-0.16,0.43c-0.34-0.23-0.71-0.42-1.1-0.56
		c-0.27-0.11-0.55-0.19-0.83-0.25L190.8,83.62L218.32,83.66z M220.32,76.31H190.1c-3.82-0.15-6.81-3.36-6.66-7.19
		c0.14-3.62,3.04-6.52,6.66-6.66h30.21c3.82,0.15,6.81,3.36,6.66,7.19c-0.14,3.62-3.04,6.52-6.66,6.66H220.32z M212.97,343.05
		c-0.55,2.54-2.91,2.29-4.23,3.4c0.35,4.08-2.14,5.33-3.6,5.23c-1.46,0.1-4-1.15-3.61-5.23c-1.31-1.11-3.68-0.86-4.22-3.4
		c-0.21-2.22-0.07-5.54-1.81-6.79c4.65-1.52,6.24,1.59,6.24,1.59c0.24-2.31,1.48-4.4,3.4-5.7l0,0c1.92,1.3,3.16,3.39,3.4,5.7
		c0,0,1.59-3.11,6.23-1.59C212.95,337.57,212.97,343.05,212.97,343.05z M218.35,82.51h-28.13c-0.77-0.37-1.27-1.14-1.29-2v-3.19
		l0.53,0.07h30.72v3.1c-0.02,0.85-0.51,1.62-1.28,2L218.35,82.51z"/>
	<path class="st3" d="M204,331.65l-1.45-243.73l0,0c0.01-0.52,0.24-1.01,0.63-1.35c0.39-0.37,0.9-0.58,1.44-0.61l0,0h0.74
		l-0.44,0.59l0,0l0,0l0,0c-0.13,0.18-0.22,0.38-0.28,0.59c-0.07,0.24-0.1,0.49-0.1,0.74l0,0l0.51,243.19
		c-0.15,0.01-0.3,0.06-0.43,0.14c-0.21,0.12-0.4,0.25-0.59,0.4 M201.59,334.67l-7.33-246.75l0,0l0,0l0,0
		c0.02-0.51,0.25-0.99,0.63-1.33l0,0c0.39-0.37,0.9-0.58,1.44-0.61l0,0h0.71l-0.41,0.59v0.06l0,0c-0.13,0.18-0.23,0.39-0.29,0.6
		c-0.07,0.24-0.1,0.49-0.1,0.74l0,0l6.23,245.15l-0.05,0.07c-0.34,0.47-0.63,0.98-0.86,1.52L201.59,334.67z"/>
	<path class="st4" d="M215.68,73.59h-25.3c-2.96,0.08-5.58-1.89-6.34-4.75h32.67c-0.08-2.58-0.81-4.77-2.91-5.86
		c-1.05-0.69-2.28-1.06-3.53-1.06h-1.6v-2.1c0,0,0,0,0-0.06c0.02-1.29-1-2.35-2.29-2.38h5.8c1.29,0.03,2.31,1.09,2.28,2.38
		c0,0,0,0,0,0v2.16h1.59c1.27,0,4.51,0.21,4.71,6.92h4.58c-0.66,2.55-2.83,4.42-5.45,4.69c-0.78,1.8-1.94,3-2.83,2.78l0,0v4.72
		c0,0.02,0,0.04,0,0.06c0.03,1.15-0.69,2.19-1.78,2.57l-5.56,251.72c-0.21,0.1-0.41,0.22-0.61,0.35l-0.14-0.4
		c-0.29-0.76-0.68-1.47-1.16-2.12l-0.13-0.16l1.79-249.39c1.09-0.38,1.8-1.42,1.78-2.57c0,0,0,0,0-0.06v-4.72
		c1.83-0.1,3.49-1.12,4.4-2.72"/>
	<path class="st0" d="M55.36,202.4c0,0,9.47,4.58,3.82,11.66c-7.27,9.1-9.93,14.69-9.93,14.69c-2.29,4.74-5.18,9.16-8.6,13.17
		c-3,3.64-7.69,6.29-10.08,8.64c-3.67,3.62-4.18,5.74-4.18,5.74c-0.69,3.27-0.77,6.65-0.23,9.95c0.78,3.54,2.05,6.96,3.77,10.15
		c0,0-2.81-9.2,12.81-13.93c8.53-2.55,11.73-4.29,11.73-4.29c3-2.28,5.51-5.13,7.4-8.39c1.29-2.8,1.91-5.87,1.79-8.95
		c0,0-0.42-3.67-1.56-11.63c-0.74-5.23,2.59-11.84,1.52-17.17C62.88,207.54,59.7,203.83,55.36,202.4z"/>
	<path class="st2" d="M55.34,202.43c0,0,9.47,4.57,3.82,11.65c-7.27,9.11-9.93,14.69-9.93,14.69c-2.3,4.73-5.19,9.15-8.6,13.15
		c-3,3.63-7.7,6.28-10.08,8.63c-3.68,3.62-4.19,5.74-4.19,5.74c-0.68,3.27-0.76,6.65-0.22,9.95c0.78,3.54,2.05,6.96,3.77,10.15
		c0,0-2.82-9.2,12.81-13.93c8.52-2.57,11.76-4.27,11.76-4.27c3-2.28,5.52-5.13,7.41-8.39c1.29-2.8,1.91-5.87,1.79-8.95
		c0,0-0.43-3.67-1.56-11.63c-0.75-5.22,2.59-11.84,1.52-17.17C62.89,207.55,59.69,203.84,55.34,202.43z"/>
	<path class="st0" d="M2.21,202.73c0,0,1.3-2.52,3.75-1.43c3.76,1.67,4.92,6.82,4.92,6.82s4.73,11.12,11.5,18.88
		c3.18,3.58,6.78,6.77,10.72,9.48c0.83,0.56,1.37-0.45,2.82,0c7.26,2.39-5.06,4.92-11.38,7.6c-1.91,0.96-4.12,1.16-6.17,0.56
		c0,0-2.49-0.41-6-3.91c-2.29-2.47-4.38-5.12-6.25-7.92c-1.62-0.66-3.09-1.64-4.32-2.89c-0.89-1.16-1.43-2.55-1.56-4
		c0.69-3.9,1.6-7.77,2.72-11.57c1.55-5.5-0.75-11.69-0.75-11.69V202.73z"/>
	<path class="st2" d="M2.19,202.75c0,0,1.3-2.52,3.75-1.43c3.76,1.67,4.92,6.82,4.92,6.82s4.73,11.12,11.49,18.89
		c3.18,3.57,6.79,6.75,10.73,9.47c0.83,0.56,1.37-0.45,2.82,0c7.26,2.39-5.06,4.92-11.39,7.6c-1.91,0.96-4.11,1.16-6.16,0.56
		c0,0-2.49-0.41-6-3.91c-2.29-2.47-4.38-5.12-6.25-7.92c-1.63-0.65-3.11-1.62-4.35-2.86c-0.89-1.16-1.44-2.54-1.57-4
		c0.7-3.9,1.61-7.76,2.73-11.56c1.55-5.51-0.75-11.7-0.75-11.7L2.19,202.75z"/>
	<path class="st0" d="M20.93,238.92c0,0,1.12,2.37,0.73,3.67c-0.6,2-3.49,1.92-3.49,1.92c0.89,0.38,1.87,0.49,2.82,0.32
		c1.27-0.19,2.64-0.52,2.64-0.52l11.3-4.27c1.56-0.41,4.49-1.22,2.56-3.22c-0.58-0.49-1.36-0.68-2.1-0.52
		c-1.11,0.14-2.83,0.52-2.83,0.52C28.65,237.64,24.9,238.21,20.93,238.92z"/>
	<path class="st4" d="M20.91,238.92c0,0,1.12,2.36,0.73,3.66c-0.61,2-3.49,1.92-3.49,1.92c0.89,0.38,1.87,0.5,2.82,0.32
		c1.26-0.19,2.63-0.52,2.63-0.52l11.3-4.27c1.56-0.41,4.5-1.22,2.57-3.22c-0.59-0.48-1.36-0.67-2.11-0.52
		c-1.11,0.14-2.82,0.52-2.82,0.52C28.62,237.63,24.88,238.19,20.91,238.92"/>
	<path class="st0" d="M241.47,201.92c0,0-8,16.44,0.64,24.53c7.6,6.44,7.66,11.27,15,17.6c2.76,2.44,5.74,4.63,8.89,6.53
		c2.47,1.75,4.42,4.14,5.63,6.92c0.83,3.47,0.99,7.07,0.49,10.61c-0.69,3.45-1.65,6.84-2.85,10.15c0,0,3.6-11.92-10.84-16.69
		c-7.47-2.45-12.82-4.53-12.82-4.53s-6.5-3-9.24-6.55c-1.71-2.36-2.82-5.11-3.24-8c0,0-0.22-2.74,2.35-13.34
		c1.9-7.82-2.28-12.68-2.7-18.88C232.33,204.36,241.47,201.92,241.47,201.92z"/>
	<path class="st2" d="M241.4,201.92c0,0-8,16.44,0.64,24.53c7.61,6.44,7.66,11.27,15,17.6c2.76,2.44,5.74,4.63,8.9,6.53
		c2.47,1.75,4.41,4.15,5.63,6.92c0.83,3.47,0.99,7.07,0.48,10.61c-0.69,3.45-1.65,6.84-2.85,10.15c0,0,3.6-11.92-10.84-16.69
		c-7.46-2.45-12.81-4.53-12.81-4.53s-6.51-3-9.24-6.55c-1.71-2.36-2.82-5.11-3.24-8c0,0-0.22-2.74,2.35-13.34
		c1.9-7.82-2.28-12.68-2.71-18.88C232.3,204.38,241.4,201.92,241.4,201.92z"/>
	<path class="st0" d="M294.12,204.11c-0.75-1.28-2.36-1.76-3.69-1.1c-3.76,1.67-6.76,6.88-6.76,6.88s-6.43,9.4-12.94,17.38
		c-3.07,3.76-4,5.81-6.06,8c-0.4,0.41-4.25-1.59-5.58-0.85c-0.81,0.33-1.2,1.25-0.87,2.06c0.06,0.14,0.13,0.27,0.22,0.38
		c0,0,11.12,6.4,17.16,8.31c2,0.64,4.66-1.54,4.66-1.54c1.38-1.33,2.65-2.77,3.8-4.31c1.09-1.46,3.55-5.55,3.55-5.55
		c2.93-0.67,5.41-2.61,6.78-5.29c0.87-1.88,1.07-3.99,0.58-6c-0.73-2.16-1.26-4.38-1.6-6.64c-0.11-1.44-0.07-2.9,0.13-4.33
		C295.28,205.24,294.12,204.11,294.12,204.11z"/>
	<path class="st2" d="M294.09,204.13c-0.75-1.28-2.36-1.76-3.69-1.1c-3.75,1.67-6.75,6.89-6.75,6.89s-6.43,9.39-12.94,17.37
		c-3.08,3.76-4,5.81-6.06,8c-0.41,0.41-4.25-1.59-5.59-0.85c-0.8,0.32-1.2,1.24-0.87,2.04c0.06,0.14,0.14,0.28,0.23,0.4
		c0,0,11.11,6.4,17.15,8.31c2,0.64,4.66-1.54,4.66-1.54c1.38-1.33,2.65-2.77,3.8-4.31c1.1-1.46,3.56-5.54,3.56-5.54
		c2.93-0.68,5.41-2.62,6.77-5.3c0.87-1.87,1.08-3.99,0.59-6c-0.73-2.16-1.27-4.38-1.61-6.63c-0.11-1.45-0.07-2.9,0.13-4.34
		C295.26,205.26,294.09,204.13,294.09,204.13z"/>
	<path class="st0" d="M274.87,238.67c0,0-1.65,2.3-1.13,4.06c0.44,1.24,1.54,2.13,2.84,2.31c0,0-1.32,0.71-5-1.25
		c-2.16-1.15-6-3.08-6-3.08l-4.59-2.5c-0.9-0.41-1.76-0.91-2.56-1.5c-0.88-0.75,0.19-2.05,0.19-2.05s0.35-0.74,1.77-0.46
		c0.98,0.21,1.95,0.47,2.9,0.79C264.1,234.99,273.14,238.02,274.87,238.67z"/>
	<path class="st4" d="M274.84,238.69c0,0-1.64,2.3-1.13,4.06c0.44,1.24,1.54,2.13,2.84,2.32c0,0-1.32,0.7-5-1.26
		c-2.16-1.15-6-3.08-6-3.08l-4.6-2.5c-0.9-0.41-1.76-0.91-2.56-1.5c-0.87-0.74,0.19-2.05,0.19-2.05s0.36-0.74,1.78-0.46
		c0.98,0.21,1.94,0.48,2.89,0.79c0.79,0,9.84,3,11.56,3.68"/>
	<path class="st0" d="M48.85,229.35c0,0-6.2,12.13-12,16c-9.67,6.49-10.67,10.82-10.67,10.82s-8.32,25.93,34.6,50.52
		c44.07,25.25,89,23.76,89,23.76s45.82,1.51,84.6-19.54c45.62-24.77,37.77-51.59,37.77-51.59s0-5.88-9.67-11.61
		c-7.63-4.5-13-12.62-13-12.62s8.58,32.82-41.29,50.66c-36.85,13.18-57.63,11.8-57.63,11.8s-36.5,0.71-67.28-16.33
		c-48.94-27.07-34.21-52.24-34.21-52.24L48.85,229.35z"/>
	<path class="st4" d="M48.83,229.38c0,0-6.2,12.12-12,16c-9.66,6.49-10.66,10.82-10.66,10.82s-8.32,25.93,34.6,50.52
		c44.07,25.25,89,23.76,89,23.76s45.81,1.51,84.59-19.54c45.62-24.77,37.78-51.59,37.78-51.59s0-5.88-9.67-11.61
		c-7.64-4.5-13-12.62-13-12.62s8.58,32.82-41.3,50.66c-36.85,13.18-57.63,11.8-57.63,11.8s-36.49,0.71-67.28-16.33
		c-48.93-27.07-34.2-52.24-34.2-52.24L48.83,229.38z"/>
	<path class="st0" d="M233.34,242.02c0,0-0.84-1.3,2.14-12c0.64-2.3,0.76-8-0.95-12.89c-2-5.79-1.58-7.94-1.58-7.94
		s-0.62-4.08,7-6.87c3.02-1.21,6.31-1.59,9.52-1.1c0,0,5.93,0.33,22.86,6.55c17.76,6.53,21.81-3.33,21.81-3.33s0.77,0.94-0.56,6.58
		s1.62,12.28,1.62,12.28s1.09,3-2.19,7.27c-1.92,2.52-5.7,3.17-5.7,3.17s-2.84,1.57-21.84-3.05c-6.22-1.53-12.59-2.36-19-2.47
		c0,0-4.08,0-8.91,4.24C233.95,235.62,233.34,242.02,233.34,242.02z"/>
	<path class="st4" d="M233.32,242.04c0,0-0.85-1.3,2.13-12c0.64-2.3,0.76-8-0.94-12.89c-2-5.78-1.58-7.94-1.58-7.94
		s-0.63-4.08,7-6.87c3.03-1.21,6.33-1.58,9.56-1.08c0,0,5.94,0.33,22.86,6.55c17.77,6.53,21.82-3.33,21.82-3.33s0.76,0.94-0.57,6.58
		s1.62,12.28,1.62,12.28s1.09,3-2.19,7.28c-1.92,2.51-5.7,3.17-5.7,3.17s-2.86,1.54-21.86-3.08c-6.22-1.53-12.59-2.36-19-2.47
		c0,0-4.08,0-8.91,4.24C233.93,235.64,233.32,242.04,233.32,242.04z"/>
	<path class="st0" d="M63.77,241.37c-0.17-3.45-0.6-6.88-1.3-10.26c-0.57-2.75-0.42-5.6,0.43-8.28c0.88-3.16,1.22-6.45,1-9.72
		c-0.52-4.72-3.59-8.77-8-10.55c-3.88-1.49-9.43-1.4-14.3-0.35s-8.86,2.82-19.7,5.82c-13.78,3.83-19.65-5.3-19.65-5.3
		c0.54,1.69,0.91,3.43,1.12,5.19c0.43,2.66-0.24,6.12-0.92,8.93c-1.88,7.64-2.28,8.14-2.28,8.14s-0.7,2.93,2.3,5.65
		c7.33,6.7,23.62,2.49,30.8-1c6.06-3,17.08-2.6,17.08-2.6s4.54,0.3,9.37,4.5C63.29,234.7,63.77,241.37,63.77,241.37z"/>
	<path class="st4" d="M63.75,241.39c-0.18-3.45-0.63-6.87-1.35-10.25c-0.57-2.75-0.42-5.61,0.42-8.29c0.89-3.16,1.22-6.45,1-9.72
		c-0.51-4.72-3.59-8.78-8-10.54c-3.87-1.5-9.43-1.41-14.29-0.36s-8.86,2.82-19.71,5.83c-13.78,3.82-19.64-5.31-19.64-5.31
		c0.54,1.69,0.93,3.43,1.16,5.2c0.43,2.66-0.24,6.12-0.93,8.94c-1.87,7.63-2.27,8.14-2.27,8.14s-0.67,2.89,2.26,5.63
		c7.33,6.7,23.62,2.49,30.8-1c6.06-2.95,17.08-2.6,17.08-2.6s4.53,0.3,9.36,4.5C63.27,234.72,63.75,241.39,63.75,241.39z"/>
	<polygon class="st0" points="226.77,271.85 226.78,271.34 70.41,269.22 67.15,89.08 229.93,89.73 	"/>
	<polygon class="st2" points="226.75,271.87 226.76,271.36 70.38,269.24 67.13,89.1 229.9,89.75 	"/>
	<path class="st4" d="M205.23,138.45c4.16-12.89-12.68-8.15-11.86-0.71h-10.9c0.82-7.44-16-12.18-11.86,0.71
		c-13.63-11.19,5.37-23.27,12.65-8v-0.26c-1-4.09-5.12-10.92,4.61-22.48v-0.09l0,0l0,0v0.09c9.73,11.56,5.56,18.39,4.6,22.48
		l0.05,0.26c7.28-15.23,26.27-3.15,12.64,8H205.23z M194.77,143.74h-13.79c-0.13,0-0.22-0.05-0.55-0.12c-3,0-2.87-4.71-0.15-5
		l1.47-0.09h12h0.16l1.62,0.1c2.73,0.25,2.84,5-0.14,5L194.77,143.74z M181.51,144.56h12.77c-0.53,6.25,8.18,7.26,9.23,4
		c-0.23,7.74-7.17,8.13-11.28,3.24c0,2.23-1.62,9.55-4.33,11.83c-3.6-2.13-4.33-9.6-4.34-11.83c-4.1,4.89-11.05,4.5-11.27-3.24
		c1.04,3.26,9.75,2.25,9.18-4H181.51z M125.47,235.05c4.15-12.88-12.68-8.15-11.86-0.7h-11c0.82-7.45-16-12.18-11.86,0.7
		c-13.63-11.19,5.36-23.27,12.65-8v-0.27c-1-4.09-5.13-10.92,4.6-22.48v-0.09c0,0,0,0,0,0.05v-0.05v0.09
		c9.73,11.56,5.57,18.39,4.61,22.48v0.27C120.08,211.78,139.07,223.86,125.47,235.05z M115.01,240.34h-13.82l-0.56-0.11
		c-3,0-2.86-4.72-0.14-5l1.47-0.09h0.13h11.85c0.05,0.01,0.11,0.01,0.16,0l1.62,0.1c2.72,0.25,2.84,5-0.15,5L115.01,240.34z
		 M101.75,241.16h12.72c-0.54,6.25,8.18,7.26,9.23,4c-0.23,7.74-7.18,8.13-11.28,3.24c0,2.24-1.62,9.56-4.33,11.83
		c-3.6-2.13-4.33-9.59-4.34-11.83c-4.11,4.89-11.05,4.5-11.28-3.24c1.07,3.26,9.78,2.25,9.25-4L101.75,241.16z M205.26,235.05
		c4.16-12.88-12.68-8.15-11.86-0.7h-10.93c0.82-7.45-16-12.18-11.86,0.7c-13.63-11.19,5.37-23.27,12.65-8v-0.27
		c-1-4.09-5.12-10.92,4.61-22.48v-0.09v0.05c0-0.02,0-0.03,0-0.05v0.09c9.73,11.56,5.56,18.39,4.6,22.48l0.05,0.27
		c7.28-15.24,26.27-3.16,12.64,8H205.26z M194.8,240.34h-13.82l-0.55-0.11c-3,0-2.87-4.72-0.15-5l1.47-0.09h0.13h11.85
		c0.05,0.01,0.11,0.01,0.16,0l1.62,0.1c2.73,0.25,2.84,5-0.14,5c-0.37,0.05-0.45,0.06-0.6,0.1L194.8,240.34z M181.54,241.16h12.77
		c-0.53,6.25,8.18,7.26,9.23,4c-0.23,7.74-7.17,8.13-11.28,3.24c0,2.24-1.62,9.56-4.33,11.83c-3.6-2.13-4.33-9.59-4.34-11.83
		c-4.1,4.89-11.05,4.5-11.27-3.24c1.01,3.26,9.72,2.25,9.15-4L181.54,241.16z M125.47,138.45c4.15-12.89-12.68-8.15-11.86-0.71h-11
		c0.82-7.44-16-12.18-11.86,0.71c-13.63-11.19,5.36-23.27,12.65-8v-0.26c-1-4.09-5.13-10.92,4.6-22.48v-0.09l0,0l0,0v0.09
		c9.73,11.56,5.57,18.39,4.61,22.48v0.26C120.08,115.18,139.07,127.26,125.47,138.45z M115.01,143.74h-13.82
		c-0.13,0-0.22-0.05-0.56-0.12c-3,0-2.86-4.71-0.14-5l1.47-0.09h12h0.16l1.62,0.1c2.72,0.25,2.84,5-0.15,5L115.01,143.74z
		 M101.75,144.56h12.72c-0.54,6.25,8.18,7.26,9.23,4c-0.23,7.74-7.18,8.13-11.28,3.24c0,2.23-1.62,9.55-4.33,11.83
		c-3.6-2.13-4.33-9.6-4.34-11.83c-4.11,4.89-11.05,4.5-11.28-3.24c1.07,3.26,9.78,2.25,9.25-4H101.75z M150.57,270.33l-4.55-0.06
		l-8.18-14.28v-63H89.29l-6.17,25.28h-3.65v-71.69h3.64l6,24.78h48.8v-62.23l-25.11-6.21v-3.66h71.4v3.66l-24.73,6.09v62.42h48.71
		l6.05-24.78h3.64v71.68h-3.6l-6.18-25.28h-48.51v62.94L150.57,270.33z M203.73,179.33h-51.52v-66.91h-7v66.92H93.69v7.07h51.49
		v66.92h7v-66.92h51.49L203.73,179.33z"/>
	<path class="st0" d="M226.78,271.34v0.51c0,0-35.76,14.2-77.79,14.2c-44.56,0-78.57-16.83-78.57-16.83l-3.17-179.3L226.78,271.34z"
		/>
	<path class="st4" d="M226.76,271.36v0.56c0,0-35.76,14.2-77.79,14.2c-44.57,0-78.58-16.83-78.58-16.83L67.23,89.92L226.76,271.36z"
		/>
	<path class="st2" d="M125.47,235.05c4.15-12.88-12.68-8.15-11.86-0.7h-11c0.82-7.45-16-12.18-11.86,0.7
		c-13.63-11.19,5.36-23.27,12.65-8v-0.27c-1-4.09-5.13-10.92,4.6-22.48v-0.09c0,0,0,0,0,0.05v-0.05v0.09
		c9.73,11.56,5.57,18.39,4.61,22.48v0.27C120.08,211.78,139.07,223.86,125.47,235.05z M115.01,240.34h-13.82l-0.56-0.11
		c-3,0-2.86-4.72-0.14-5l1.47-0.09h0.13h11.85c0.05,0.01,0.11,0.01,0.16,0l1.62,0.1c2.72,0.25,2.84,5-0.15,5L115.01,240.34z
		 M101.75,241.16h12.72c-0.54,6.25,8.18,7.26,9.23,4c-0.23,7.74-7.18,8.13-11.28,3.24c0,2.24-1.62,9.56-4.33,11.83
		c-3.6-2.13-4.33-9.59-4.34-11.83c-4.11,4.89-11.05,4.5-11.28-3.24c1.07,3.26,9.78,2.25,9.25-4L101.75,241.16z M181.54,241.16h12.77
		c-0.53,6.25,8.18,7.26,9.23,4c-0.23,7.74-7.17,8.13-11.28,3.24c0,2.24-1.62,9.56-4.33,11.83c-3.6-2.13-4.33-9.59-4.34-11.83
		c-4.1,4.89-11.05,4.5-11.27-3.24c1.01,3.26,9.72,2.25,9.15-4L181.54,241.16z M195.01,235.22l2.58,2.93
		c-0.03,1.18-1.01,2.1-2.19,2.07c0,0,0,0,0,0c-0.37,0.07-0.45,0.08-0.6,0.12h-13.82l-0.55-0.11c-3,0-2.87-4.72-0.15-5l1.47-0.09
		h0.13h11.85c0.05,0.01,0.11,0.01,0.16,0L195.01,235.22z M181.65,220.01l11.74,13.37c-0.04,0.33-0.04,0.67,0,1h-10.92
		c0.82-7.45-16-12.18-11.86,0.7c-13.63-11.19,5.37-23.27,12.65-8v-0.27c-0.75-2.21-1.29-4.49-1.64-6.8L181.65,220.01z
		 M137.97,170.37l7.21,8.19v0.78H93.69v7.07h51.49v66.92h7v-66.77l7.37,8.38v61.05l-11.38,18.09l-10.36-18.09v-63H89.29l-6.17,25.28
		h-3.65v-71.69h3.64l6,24.78h48.8L137.97,170.37z M120.41,150.37l2.17,2.47c-2.19,3.38-7,2.74-10.14-1c0,2.23-1.62,9.55-4.33,11.83
		c-3.6-2.13-4.33-9.6-4.34-11.83c-4.11,4.89-11.05,4.5-11.28-3.24c1,3.22,9.76,2.21,9.23-4h12.75
		C114.14,148.57,117.6,150.42,120.41,150.37L120.41,150.37z M110.03,138.56l4.53,5.16h-13.37c-0.13,0-0.22-0.05-0.56-0.12
		c-3,0-2.86-4.71-0.14-5l1.47-0.09h8.07V138.56z M97.15,123.92l12.15,13.81h-6.67c0.82-7.44-16-12.18-11.86,0.71
		C80.24,129.8,89.18,120.63,97.15,123.92z"/>
	<path class="st2" d="M60.47,271.37L60.03,271c-0.28-0.24-0.63-0.4-1-0.46c-0.3-0.05-0.6,0.01-0.85,0.18
		c-0.5,0.39-0.96,0.84-1.35,1.34l-8.21,9.44c-0.46,0.47-0.85,1.01-1.15,1.59c-0.09,0.27-0.09,0.55,0,0.82
		c0.14,0.42,0.39,0.79,0.72,1.07l0.49,0.42l-0.34,0.41c-2-1.69-3.97-3.43-5.91-5.24l0.36-0.38l0.48,0.44
		c0.43,0.47,1.06,0.69,1.69,0.59c0.68-0.32,1.27-0.8,1.72-1.41l3.95-4.4c-2-1.8-4-3.67-5.9-5.59l-4.26,4.17
		c-0.48,0.44-0.9,0.95-1.25,1.5c-0.09,0.27-0.09,0.57,0,0.84c0.11,0.43,0.34,0.81,0.65,1.12l0.48,0.47
		c-0.12,0.13-0.24,0.26-0.37,0.38c-1.91-1.85-3.78-3.75-5.62-5.72l0.39-0.36l0.45,0.49c0.41,0.5,1.03,0.77,1.67,0.73
		c0.7-0.28,1.32-0.72,1.81-1.3l9-8.7c0.49-0.44,0.93-0.93,1.3-1.48c0.11-0.25,0.15-0.52,0.09-0.79c-0.07-0.39-0.26-0.76-0.53-1.05
		l-0.4-0.43l0.38-0.36c1.62,1.73,3.27,3.4,4.95,5c-0.12,0.13-0.24,0.26-0.37,0.38l-0.42-0.41c-0.28-0.27-0.62-0.46-1-0.55
		c-0.29-0.06-0.6-0.02-0.86,0.13c-0.53,0.35-1.02,0.76-1.45,1.23l-3.9,3.96c1.91,1.91,3.86,3.77,5.86,5.56l3.7-4.13
		c0.47-0.47,0.87-1,1.2-1.57c0.09-0.26,0.09-0.53,0-0.79c-0.08-0.39-0.29-0.74-0.58-1l-0.42-0.39l0.36-0.39
		c1.7,1.59,3.44,3.12,5.2,4.61C60.66,271.1,60.54,271.23,60.47,271.37z M69.22,289.15c-1.37,2.3-3.57,3.99-6.15,4.73
		c-4.23,1.17-8.6-1.3-9.78-5.52c-0.16-0.59-0.26-1.2-0.28-1.82c-0.07-2.69,0.91-5.3,2.72-7.28c1.69-2.18,4.13-3.66,6.85-4.14
		c2.05-0.41,4.18,0.05,5.86,1.29c1.71,1.31,2.73,3.32,2.78,5.47c0.17,2.58-0.55,5.15-2.04,7.27H69.22z M67.64,277.15
		c-1.13-0.85-2.62-1.06-3.94-0.57c-2.29,0.92-4.26,2.48-5.68,4.5c-2,2.48-3,4.77-3.06,6.89c-0.08,1.52,0.63,2.98,1.88,3.86
		c1.33,1,3.07,1.27,4.64,0.71c1.71-0.54,3.41-2.1,5.13-4.63c1.87-2.75,2.8-5.11,2.84-7.07c0.07-1.48-0.63-2.89-1.85-3.72
		L67.64,277.15z M93.33,291.55c-0.07,0.16-0.14,0.32-0.22,0.48l-0.49-0.22c-0.51-0.29-1.13-0.26-1.61,0.07
		c-0.49,0.51-0.87,1.12-1.13,1.78l-5.43,11.45c-0.4,0.65-0.62,1.4-0.63,2.17c0.17,0.55,0.59,0.99,1.13,1.19l0.56,0.25l-0.22,0.48
		c-2.29-1-4.56-2.13-6.81-3.29l0.24-0.47l0.57,0.29c0.53,0.34,1.21,0.36,1.76,0.05c0.52-0.49,0.92-1.09,1.18-1.75l5.74-11.62
		c-4.26,4-8.71,7.82-13.34,11.46l-0.38-0.21c0.61-5.88,1.45-11.69,2.5-17.42L70,297.31c-0.47,0.61-0.76,1.33-0.85,2.09
		c0.11,0.57,0.48,1.06,1,1.31c0.18,0.11,0.36,0.22,0.55,0.32l-0.27,0.46c-1.8-1.06-3.58-2.15-5.34-3.28l0.29-0.44l0.54,0.34
		c0.5,0.39,1.17,0.48,1.75,0.23c0.57-0.43,1.03-0.98,1.35-1.62c2.22-3.6,4.44-7.19,6.67-10.78c0.36-0.52,0.62-1.1,0.78-1.71
		c0.05-0.31-0.01-0.63-0.15-0.91c-0.24-0.41-0.59-0.76-1-1l0.28-0.45c1.26,0.81,2.53,1.59,3.82,2.36
		c-0.96,5.33-1.72,10.72-2.29,16.17c4.24-3.45,8.32-7.04,12.23-10.76c1.26,0.64,2.59,1.28,3.93,1.88L93.33,291.55z M100.33,295.07
		l-0.52-0.21c-0.5-0.24-1.1-0.19-1.56,0.13c-0.51,0.55-0.89,1.21-1.11,1.93l-4.74,11.59c-0.28,0.59-0.48,1.22-0.59,1.87
		c0,0.28,0.1,0.56,0.28,0.77c0.25,0.35,0.6,0.61,1,0.76l0.59,0.23c-0.06,0.17-0.13,0.33-0.19,0.5c-2.36-0.92-4.69-1.9-7-2.93
		l0.22-0.48l0.57,0.25c0.54,0.3,1.2,0.3,1.74,0c0.53-0.53,0.92-1.19,1.15-1.9l4.93-11.52c0.28-0.59,0.49-1.21,0.62-1.85
		c0.02-0.26-0.04-0.53-0.19-0.75c-0.2-0.33-0.49-0.59-0.84-0.74l-0.5-0.23l0.21-0.48c2,0.91,4.09,1.76,6.16,2.57
		c-0.18,0.13-0.24,0.34-0.31,0.46L100.33,295.07z M116.72,300.34l-0.53-0.14c-0.54-0.19-1.14-0.05-1.55,0.36
		c-0.39,0.59-0.66,1.25-0.8,1.95c-1.44,5.25-2.88,10.51-4.32,15.77l-0.45-0.13c-2.33-5.96-4.32-12.04-5.94-18.23
		c-1.33,3.75-2.67,7.5-4,11.25c-0.34,0.69-0.48,1.46-0.41,2.22c0.22,0.53,0.67,0.93,1.23,1.06l0.59,0.21
		c-0.06,0.16-0.12,0.33-0.17,0.5c-1.94-0.67-3.87-1.36-5.79-2.08c0.07-0.17,0.13-0.33,0.19-0.5l0.57,0.22
		c0.57,0.28,1.24,0.22,1.76-0.14c0.47-0.54,0.81-1.18,1-1.87l4.62-12.67c-0.13-0.54-0.3-1.07-0.53-1.58
		c-0.2-0.35-0.46-0.66-0.76-0.92c-0.28-0.2-0.58-0.36-0.9-0.48l0.19-0.49c1.32,0.51,2.63,1,4,1.47c1.39,5.71,3.09,11.34,5.09,16.86
		l3-10.77c0.28-0.71,0.38-1.47,0.3-2.23c-0.19-0.49-0.62-0.84-1.13-0.95l-0.51-0.11l0.15-0.51c1.72,0.51,3.45,0.99,5.19,1.44
		c-0.08,0.12-0.13,0.29-0.17,0.46L116.72,300.34z M128.77,306.65l-0.45-0.07c0.04-0.73-0.02-1.46-0.18-2.17
		c-0.13-0.4-0.37-0.75-0.71-1c-0.48-0.26-1.01-0.43-1.55-0.5c-1.4-0.26-2.8-0.55-4.19-0.85c-0.54,2.5-1.09,5-1.64,7.49
		c1.18,0.26,2.36,0.5,3.53,0.73c0.64,0.2,1.34,0.15,1.94-0.15c0.6-0.57,0.98-1.34,1.08-2.16l0.44,0.07
		c-0.39,2.22-0.77,4.44-1.16,6.65l-0.45-0.07c0.07-0.61,0.07-1.24,0-1.85c-0.09-0.36-0.29-0.67-0.57-0.91
		c-0.43-0.3-0.93-0.49-1.45-0.56c-1.19-0.23-2.38-0.47-3.56-0.73c-0.45,2.08-0.91,4.17-1.36,6.25c-0.14,0.51-0.22,1.03-0.24,1.55
		c0.03,0.19,0.12,0.37,0.26,0.51c0.27,0.2,0.59,0.32,0.92,0.36l2.9,0.58c0.7,0.16,1.43,0.22,2.15,0.16c0.52-0.1,1.01-0.33,1.42-0.67
		c0.78-0.69,1.45-1.5,2-2.39l0.5,0.08c-0.73,1.53-1.47,3.06-2.24,4.57c-4.44-0.73-8.85-1.64-13.24-2.73c0-0.18,0.09-0.35,0.12-0.52
		l0.61,0.15c0.4,0.11,0.82,0.11,1.22,0c0.29-0.08,0.54-0.28,0.7-0.54c0.27-0.57,0.46-1.17,0.57-1.79l2.88-12.27
		c0.25-0.73,0.33-1.51,0.23-2.28c-0.23-0.47-0.68-0.8-1.2-0.88l-0.53-0.13l0.12-0.51c3.86,0.96,7.75,1.76,11.66,2.4
		c-0.26,1.34-0.44,2.74-0.61,4.15L128.77,306.65z M151.26,304.82h-0.54c-0.57-0.04-1.12,0.23-1.42,0.72
		c-0.23,0.67-0.33,1.38-0.29,2.09c-0.09,4.22-0.19,8.44-0.28,12.67c-0.11,0.76,0,1.54,0.31,2.24c0.37,0.43,0.92,0.66,1.49,0.62h0.61
		c0,0.18,0,0.35,0,0.53c-2.48,0-4.96-0.07-7.43-0.22c0-0.18,0-0.36,0-0.53h0.62c0.62,0.1,1.24-0.16,1.6-0.67
		c0.27-0.66,0.4-1.37,0.36-2.08c0.16-4.31,0.32-8.62,0.49-12.94c-2.23,5.33-4.69,10.64-7.36,15.91h-0.43
		c-1.8-5.6-3.37-11.24-4.71-16.88c-0.54,4.28-1.08,8.56-1.61,12.85c-0.17,0.75-0.15,1.53,0.07,2.26c0.33,0.47,0.86,0.75,1.43,0.77
		l0.61,0.07l-0.06,0.52c-2-0.21-4-0.48-6.05-0.77c0-0.17,0.05-0.35,0.08-0.52l0.61,0.09c0.61,0.14,1.24-0.06,1.66-0.53
		c0.33-0.62,0.52-1.3,0.55-2c0.55-4.19,1.11-8.37,1.66-12.56c0.11-0.62,0.11-1.26,0-1.88c-0.08-0.3-0.25-0.57-0.49-0.76
		c-0.39-0.27-0.85-0.43-1.32-0.47c0-0.18,0.05-0.35,0.07-0.52c1.44,0.21,2.89,0.4,4.33,0.56c1.27,5.25,2.74,10.48,4.41,15.67
		c2.41-4.89,4.63-9.83,6.65-14.82c1.45,0.06,2.91,0.09,4.36,0.1L151.26,304.82z M168.73,322.82c0-0.18,0-0.35-0.05-0.53
		c0.5-0.03,0.97-0.22,1.36-0.53c0.21-0.23,0.31-0.53,0.28-0.84c-0.15-0.67-0.39-1.32-0.73-1.92c-0.45-0.88-0.89-1.77-1.32-2.66
		c-2.17,0.22-4.33,0.4-6.5,0.53c-0.32,1-0.65,2.09-1,3.12c-0.2,0.55-0.32,1.13-0.34,1.71c0.02,0.3,0.17,0.58,0.42,0.76
		c0.51,0.27,1.09,0.39,1.66,0.34c0,0.18,0,0.35,0,0.53c-1.84,0.11-3.68,0.2-5.52,0.26c0-0.18,0-0.36,0-0.53
		c0.52-0.07,1-0.28,1.4-0.61c0.61-0.86,1.06-1.83,1.32-2.85c1.75-5.41,3.3-10.84,4.63-16.3h0.4c2.26,5.2,4.72,10.34,7.37,15.43
		c0.39,0.88,0.94,1.67,1.64,2.33c0.51,0.35,1.14,0.49,1.75,0.41c0,0.18,0,0.35,0.07,0.53c-2.31,0.31-4.62,0.59-6.92,0.82H168.73z
		 M164.34,307.82c-0.71,2.68-1.46,5.36-2.26,8c1.91-0.12,3.82-0.27,5.73-0.47c-1.25-2.52-2.44-5.05-3.55-7.58L164.34,307.82z
		 M190.02,311.03c0.43,1.46,0.64,2.98,0.62,4.51c-0.1,1.17-0.56,2.27-1.33,3.16c-1.02,1.08-2.38,1.79-3.85,2
		c-1.49,0.42-3.08,0.33-4.51-0.25c-1.11-0.55-2.01-1.45-2.57-2.55c-0.59-1.49-0.98-3.06-1.18-4.65l-1.23-7.48
		c-0.06-0.81-0.33-1.58-0.78-2.25c-0.36-0.33-0.87-0.47-1.35-0.35l-0.58,0.09c0-0.18-0.05-0.35-0.08-0.53
		c2.21-0.33,4.41-0.71,6.6-1.14c0,0.18,0.07,0.35,0.1,0.52l-0.58,0.12c-0.57,0.07-1.04,0.46-1.22,1c-0.12,0.72-0.09,1.46,0.1,2.16
		c0.5,2.77,1,5.54,1.51,8.32c0.16,0.85,0.37,1.69,0.64,2.51c0.21,0.77,0.58,1.49,1.07,2.12c0.44,0.49,1,0.85,1.63,1.05
		c0.76,0.24,1.56,0.26,2.33,0.07c1.06-0.21,2.05-0.72,2.83-1.47c0.71-0.65,1.16-1.54,1.29-2.49c0.05-1.48-0.14-2.95-0.57-4.37
		c-0.63-2.54-1.25-5.08-1.88-7.62c-0.11-0.77-0.41-1.51-0.86-2.14c-0.4-0.33-0.95-0.45-1.45-0.3l-0.57,0.13l-0.12-0.51
		c1.79-0.41,3.57-0.86,5.34-1.33c0.05,0.17,0.1,0.34,0.14,0.51l-0.56,0.15c-0.6,0.16-1.05,0.66-1.14,1.28
		c-0.04,0.7,0.05,1.4,0.27,2.06c0.6,2.53,1.22,5.07,1.86,7.62L190.02,311.03z M207.65,303.92c0.05,0.69,0.23,1.37,0.53,2
		c0.72,1.84,1.44,3.68,2.15,5.53c-0.66,0.86-1.44,1.63-2.32,2.27c-0.9,0.64-1.89,1.14-2.94,1.49c-3.26,1.13-6.14,0.74-8.48-1.08
		c-1.76-1.38-3.02-3.3-3.57-5.47c-0.44-1.63-0.56-3.33-0.33-5c0.2-1.82,0.86-3.57,1.92-5.06c0.88-1.15,2.09-2,3.47-2.44
		c0.5-0.17,1.01-0.29,1.53-0.35c0.71-0.05,1.41-0.05,2.12,0c0.3,0.05,0.62,0.05,0.92,0c0.15-0.07,0.25-0.21,0.27-0.37
		c0.01-0.34-0.04-0.68-0.17-1l0.39-0.15c0.86,1.86,1.73,3.71,2.6,5.56l-0.39,0.15c-0.72-1.06-1.66-1.96-2.75-2.64
		c-1.21-0.72-2.68-0.85-4-0.35c-1.87,0.62-3.22,2.26-3.47,4.21c-0.35,2-0.2,4.06,0.42,6c0.47,1.67,1.27,3.22,2.36,4.57
		c0.87,1.14,2.05,1.99,3.41,2.45c1.11,0.36,2.31,0.36,3.42,0c0.61-0.21,1.18-0.51,1.7-0.89c0.52-0.38,0.99-0.84,1.38-1.36
		c-0.67-1.75-1.33-3.5-2-5.25c-0.18-0.62-0.47-1.2-0.84-1.72c-0.21-0.23-0.49-0.39-0.8-0.44c-0.48-0.03-0.96,0.06-1.4,0.25
		c-0.07-0.17-0.13-0.34-0.19-0.51c2-0.72,4-1.48,6-2.29c0.07,0.17,0.13,0.34,0.2,0.5l-0.29,0.12c-0.53,0.16-0.91,0.63-0.95,1.18
		L207.65,303.92z M213.52,311.58c-0.06-0.16-0.13-0.33-0.2-0.49l0.59-0.24c0.4-0.16,0.75-0.42,1-0.77c0.19-0.24,0.29-0.54,0.26-0.85
		c-0.12-0.62-0.33-1.22-0.61-1.78c-1.65-3.86-3.31-7.72-5-11.58c-0.23-0.75-0.64-1.44-1.18-2c-0.48-0.25-1.04-0.25-1.52,0
		l-0.51,0.21c-0.07-0.16-0.14-0.32-0.2-0.49c3.73-1.54,7.42-3.24,11.05-5.11c0.71,1.23,1.41,2.46,2.11,3.69l-0.42,0.21
		c-0.4-0.6-0.89-1.15-1.45-1.61c-0.35-0.25-0.76-0.38-1.19-0.38c-0.56,0.08-1.1,0.27-1.59,0.54c-1.33,0.67-2.67,1.29-4,1.86l3.14,7
		c1.12-0.5,2.24-1,3.35-1.55c0.86-0.42,1.36-0.85,1.5-1.29c0.16-0.82,0.03-1.67-0.39-2.4l0.4-0.2c1.02,2,2.02,4,3,6l-0.42,0.21
		c-0.32-0.53-0.7-1.02-1.13-1.46c-0.28-0.24-0.63-0.37-1-0.38c-0.54,0.02-1.07,0.17-1.54,0.43c-1.12,0.54-2.24,1.06-3.37,1.56
		c0.87,1.95,1.74,3.89,2.62,5.84c0.19,0.49,0.43,0.95,0.73,1.38c0.14,0.14,0.32,0.23,0.52,0.25c0.35,0,0.7-0.09,1-0.26
		c0.91-0.42,1.83-0.85,2.74-1.29c0.68-0.3,1.32-0.69,1.88-1.18c0.37-0.39,0.63-0.88,0.76-1.4c0.24-1.02,0.33-2.08,0.25-3.13
		l0.45-0.25c0.32,1.67,0.61,3.35,0.89,5c-4.12,2.13-8.31,4.07-12.57,5.81L213.52,311.58z M239.85,297.78
		c-3.38-1.41-6.68-2.93-9.89-4.53c-0.36,0.24-0.66,0.42-0.89,0.56l-0.31,0.17l-0.35,0.18l2.82,4.88c0.62,1.06,1.1,1.65,1.46,1.78
		c0.55,0.19,1.16,0.1,1.64-0.23l0.61-0.36l0.27,0.45c-2.23,1.33-4.49,2.62-6.77,3.85l-0.25-0.47l0.6-0.32
		c0.6-0.26,1.01-0.84,1.05-1.49c-0.11-0.72-0.38-1.4-0.78-2l-6.11-11c-0.31-0.72-0.79-1.34-1.4-1.82c-0.49-0.22-1.05-0.18-1.5,0.11
		l-0.53,0.28l-0.25-0.46c1.7-0.92,3.4-1.87,5.07-2.86c1.06-0.7,2.23-1.24,3.46-1.58c0.89-0.18,1.81-0.08,2.65,0.27
		c2.01,0.87,3.26,2.9,3.15,5.09c-0.17,1.26-0.77,2.42-1.71,3.28c2,0.96,4,1.88,6,2.76c1.01,0.5,2.11,0.81,3.24,0.91
		c0.87-0.02,1.71-0.26,2.46-0.7l0.3,0.43c-1.32,0.99-2.67,1.92-4.04,2.81L239.85,297.78z M230.52,286.87
		c-0.53-0.93-1.37-1.64-2.38-2c-0.92-0.31-1.93-0.18-2.75,0.35c-0.53,0.34-1.02,0.74-1.47,1.18l4,7l0.36-0.2l0.26-0.14
		c1.2-0.6,2.11-1.65,2.53-2.93C231.37,289.01,231.17,287.82,230.52,286.87L230.52,286.87z M244.19,294.87
		c-0.09-0.15-0.2-0.29-0.3-0.44l0.54-0.37c0.36-0.26,0.64-0.6,0.82-1c0.14-0.28,0.17-0.61,0.08-0.91c-0.27-0.58-0.6-1.12-1-1.61
		l-7.36-10.22c-0.72-1-1.25-1.56-1.58-1.67c-0.54-0.12-1.1,0.02-1.52,0.37l-0.47,0.33l-0.3-0.43c3.42-2.38,6.77-4.93,10-7.65
		l2.87,3.14l-0.38,0.31c-0.53-0.5-1.13-0.92-1.78-1.25c-0.4-0.16-0.85-0.19-1.27-0.09c-0.54,0.22-1.04,0.53-1.48,0.92
		c-1.19,0.94-2.38,1.86-3.59,2.76l4.58,6.15c1-0.76,2-1.53,3-2.32c0.61-0.37,1.05-0.95,1.25-1.63c-0.01-0.84-0.33-1.65-0.89-2.27
		l0.36-0.29l4.29,5.22l-0.39,0.31c-0.43-0.45-0.91-0.84-1.43-1.18c-0.34-0.16-0.72-0.21-1.09-0.13c-0.54,0.15-1.04,0.42-1.46,0.79
		c-1,0.79-2,1.57-3.05,2.34l3.82,5.13c0.29,0.43,0.62,0.83,1,1.19c0.17,0.11,0.37,0.15,0.57,0.13c0.34-0.09,0.66-0.26,0.92-0.49
		c0.84-0.64,1.66-1.28,2.49-1.93c0.62-0.45,1.17-0.99,1.63-1.61c0.29-0.47,0.46-1.01,0.49-1.56c0.03-1.07-0.1-2.13-0.4-3.16
		l0.41-0.34c0.67,1.57,1.31,3.15,1.92,4.74c-3.64,3.09-7.41,5.99-11.3,8.7V294.87z"/>
	<text transform="matrix(1 0 0 1 335.5433 276.2519)" class="st3 st5 st6">U</text>
	<text transform="matrix(1 0 0 1 362.1933 276.2519)" class="st3 st5 st6">N</text>
	<text transform="matrix(1 0 0 1 389.0333 276.2519)" class="st3 st5 st6">I</text>
	<text transform="matrix(1 0 0 1 401.6733 276.2519)" class="st3 st5 st6">V</text>
	<text transform="matrix(1 0 0 1 425.8033 276.2519)" class="st3 st5 st6">E</text>
	<text transform="matrix(1 0 0 1 446.7933 276.2519)" class="st3 st5 st6">R</text>
	<text transform="matrix(1 0 0 1 469.5533 276.2519)" class="st3 st5 st6">S</text>
	<text transform="matrix(1 0 0 1 488.0833 276.2519)" class="st3 st5 st6">I</text>
	<text transform="matrix(1 0 0 1 500.7333 276.2519)" class="st3 st5 st6">D</text>
	<text transform="matrix(1 0 0 1 526.4533 276.2519)" class="st3 st5 st6">A</text>
	<text transform="matrix(1 0 0 1 550.7033 276.2519)" class="st3 st5 st6">D</text>
	<text transform="matrix(1 0 0 1 577.6133 276.2519)" class="st3 st5 st6">E</text>
	<text transform="matrix(1 0 0 1 607.3033 276.2519)" class="st3 st5 st6">D</text>
	<text transform="matrix(1 0 0 1 634.2233 276.2519)" class="st3 st5 st6">O</text>
	<text transform="matrix(1 0 0 1 339.8633 317.9519)" class="st3 st5 st6">E</text>
	<text transform="matrix(1 0 0 1 360.8533 317.9519)" class="st3 st5 st6">S</text>
	<text transform="matrix(1 0 0 1 379.0533 317.9519)" class="st3 st5 st6">T</text>
	<text transform="matrix(1 0 0 1 399.3233 317.9519)" class="st3 st5 st6">A</text>
	<text transform="matrix(1 0 0 1 423.5733 317.9519)" class="st3 st5 st6">D</text>
	<text transform="matrix(1 0 0 1 450.4733 317.9519)" class="st3 st5 st6">O</text>
	<text transform="matrix(1 0 0 1 487.9333 317.9519)" class="st3 st5 st6">D</text>
	<text transform="matrix(1 0 0 1 513.6633 317.9519)" class="st3 st5 st6">A</text>
	<text transform="matrix(1 0 0 1 546.1033 317.9519)" class="st3 st5 st6">B</text>
	<text transform="matrix(1 0 0 1 567.2534 317.9519)" class="st3 st5 st6">A</text>
	<text transform="matrix(1 0 0 1 591.5034 317.9519)" class="st3 st5 st6">H</text>
	<text transform="matrix(1 0 0 1 619.7933 317.9519)" class="st3 st5 st6">I</text>
	<text transform="matrix(1 0 0 1 632.4333 317.9519)" class="st3 st5 st6">A</text>
	<text transform="matrix(1 0 0 1 329.8333 198.5119)" class="st3 st5 st7">U</text>
	<text transform="matrix(1 0 0 1 423.9333 198.5119)" class="st3 st5 st7">N</text>
	<text transform="matrix(1 0 0 1 518.6933 198.5119)" class="st3 st5 st7">E</text>
	<text transform="matrix(1 0 0 1 592.8134 198.5119)" class="st3 st5 st7">B</text>
	<line class="st8" x1="505.32" y1="224.92" x2="661.05" y2="224.92"/>
	<line class="st9" x1="334.23" y1="224.92" x2="496.34" y2="224.92"/>
</g>
</svg>
