<?xml version="1.0" encoding="utf-8"?>
<!-- Generator: Adobe Illustrator 23.0.2, SVG Export Plug-In . SVG Version: 6.00 Build 0)  -->
<svg version="1.1" id="Layer_1" xmlns="http://www.w3.org/2000/svg" xmlns:xlink="http://www.w3.org/1999/xlink" x="0px" y="0px"
	 viewBox="0 0 3281.7 2241.4" style="enable-background:new 0 0 3281.7 2241.4;" xml:space="preserve">
<style type="text/css">
	.st0{enable-background:new    ;}
</style>
<g>
	<g class="st0">
		<path d="M117.5,1578.11c-0.8-2.7-1.1-6.2-1-10.6c10.2-2.6,14.7-10.4,13.4-23.5c-1.2-12.5-8.1-22-20.8-28.5c-1.7-0.9-3.7-1.8-6-2.7
			l0.2,2.4c1.8,19,3.2,37.5,4.4,55.5c0.6,18.6,0.6,36.1,0,52.6c-1,30.3-5.8,54.8-14.5,73.7c-6.8,15.4-17.2,23.8-31.4,25.1
			c-3.3,0.3-6.8,0.4-10.7,0.2c-15-1.9-26.8-13.9-35.5-36.2c-5.2-14.9-8.6-30.7-10.2-47.6c-0.8-8.2-1-16.6-0.7-25.4
			c0.3-14.8,1.9-29,5.1-42.4s8-25.7,14.7-36.7c4.2-7.5,9.6-14.1,16.3-19.6c4.5-4.3,9.7-7.8,15.5-10.5l-6.6-70.9
			c-2.8-24.4-5.9-48.8-9.3-73.2c-5.8-44.4-12.1-85.2-18.9-122.4c-7.3-37.1-14.5-63.9-21.5-80.2c6.4-8.3,13.4-15.2,21.1-20.9
			c6.2-4.4,12-6.9,17.4-7.4c1.6-0.2,3,0,4.2,0.4c6.8,20.2,12.4,42.2,16.9,65.9c3.8,23.2,8,44.8,12.6,64.6
			c1.7-5.1,5.5-17.2,11.4-36.4c5.4-18.6,13.3-36.9,23.6-54.9c6.5-12.1,14.1-22.4,22.6-30.9c8.5-9,17.9-14,28.2-15
			c14.6-1.9,27.7-0.4,39.1,4.6s21.4,12,29.9,21c9.2,10.1,16.6,22,22.3,35.7c5.7,13.7,9.8,28.7,12.4,44.9c4.4,29.2,3.1,59.5-3.8,90.8
			c22.7-9.3,43.6-20.8,62.6-34.7c11.8-8.2,22.2-17.7,31.1-28.4c8.4-10.1,13.6-21.3,15.8-33.6c3.2-1.4,6.4-2.2,9.6-2.5
			c3.2-0.8,6.8-0.9,10.7-0.2c-2.4,15.6-8.5,29.6-18.3,42c-9.8,13-21.6,24.5-35.4,34.6c-25.2,18.3-52.3,32.9-81.4,43.8
			c-7.7,23.2-18.7,42.9-33.1,59c-9.4,10.8-20.7,19.5-33.7,26.2c-12.6,6.1-26.5,9.6-41.8,10.5c-10.4,0.4-18.5-4.3-24.4-14.2
			c-5.3-9.9-3.9-21.3,4.2-34.1c3.8-6.4,10.3-13,19.5-19.9c9.2-6.9,21.8-13.3,37.7-19.2l8-2.4c4.4-17.4,7-36,7.9-55.9
			c1.4-37.4-1.8-72.2-9.8-104.4c-7.5-32.8-17.4-48.5-29.9-47.4c-10.3,1-21.1,12.1-32.2,33.5c-11.7,21.9-21.5,45.9-29.5,71.9
			c-5,16.9-8.9,33.5-11.8,49.6c-2.9,16.2-3.8,29.1-2.9,38.9c1.8,19.6,5.4,45.8,10.7,78.8c3.7,27.6,7.2,56.6,10.6,87
			c6.7,1,12.3,3,17,5.8c16.2,9.4,24.4,23.5,24.5,42.1c0.6,18-6.8,30-22.1,35.8C120,1581.71,118.8,1580.21,117.5,1578.11z
			 M33.8,1544.81c-4.6,9.2-8,19.7-10.2,31.4s-3.2,23.9-3.2,36.5c-0.1,22.5,2.7,43.1,8.3,61.7c5.1,19.3,11.5,29.4,19.3,30.3
			c9,1.9,13.8-16.9,14.4-56.5c0.4-36.2-1.1-79.4-4.7-129.5c-4.2,2-7.8,4.8-10.7,8.4C41.9,1532.01,37.5,1537.91,33.8,1544.81z
			 M138.6,1417.41c19.4-3.5,33.4-17.7,42.1-42.6c1.3-3.4,2.4-6.8,3.2-10.2c-33.5,10.8-51.9,22.7-55.1,35.6
			C126.2,1413.11,129.4,1418.81,138.6,1417.41z"/>
		<path d="M449.1,1307.71c5.7,25.2,14,46.7,24.9,64.3c11,17.6,24.7,26.7,41.2,27.4c25.9,1.4,52.9-5.8,81.1-21.6
			c28.1-15.8,52.6-38.7,73.4-68.6c11.1-16.4,20.3-34.5,27.8-54.4c8-20.5,13.6-42.4,16.9-65.7l19.6-1.8c-4.9,47.1-18.9,87.9-42,122.4
			s-49.4,61.1-78.9,79.8c-16.1,9.7-32.4,17-48.9,21.9c-10.7,3.2-20.9,5.2-30.7,6.2c-6,0.6-12,0.8-18,0.9c-28.6-1.2-53-7.1-73.2-17.8
			c-20.1-10.2-36.5-23.5-49-39.8c-9.3-11.7-16.6-24.8-21.8-39.1c-5.1-13.8-8.4-28.3-9.8-43.5l-0.1-0.8c-2.6-27.7,0.6-55.4,9.5-83.1
			c9.4-28.3,23.4-52.1,41.8-71.4c12.5-12.7,26.9-22.8,43.2-30.4c12-6.1,24.9-9.7,38.4-11c4.9-0.5,9.8-0.6,14.8-0.6
			c24.2,0.5,41.2,12.3,51,35.5c10.4,23.2,6,46.6-13.1,70.3c-10.9,12.5-26.8,23.9-47.8,34.1c-15.7,8.1-34.8,14.5-57.4,19.4
			c0.2,8.2,0.7,16.4,1.5,24.5C444.3,1279.31,446.2,1293.71,449.1,1307.71z M521.2,1181.71c17.9-19.8,24.3-39.6,19.1-59.4
			c-4.6-19.9-14.6-29.6-29.9-29.3c-22-0.7-38.6,12.1-49.9,38.4c-10.8,25.7-17,55.6-18.7,89.8c0.1,0.5-0.2,1.1-0.7,1.7
			c15.1-3.1,28.1-7.3,39.1-12.7C498.2,1201.91,511.8,1192.41,521.2,1181.71z"/>
		<path d="M864.2,1058.21c6.8,2.6,12.9,6.2,18.3,10.6c9.6,8.4,16.3,18.5,20.1,30.2s5.2,20.3,4.1,25.9c-2.1,0.7-4.8,1-8.2,0.8
			c-2.8-0.3-5.3-1.1-7.6-2.6c1.4-8.4-2.2-20.1-10.7-35.2c-8.5-15.1-21.8-22.1-39.8-20.9c-9.3,0.3-17.8,3-25.6,8.2
			c-7.7,5.1-15,12.4-21.8,21.8c-12.2,16.5-22,37.4-29.5,62.8c-7.5,25.4-12.5,51.1-15,77.1c-3,32.1-2,60.5,3.1,85.3
			c5.1,25.3,14.8,37.8,29,37.6c19.2,0.4,37.5-15.3,54.8-47.1c17.8-32.4,32.7-87.5,44.5-165.4c9.2-0.9,18.6-0.9,28-0.2
			c9.3,0.2,17.1,1.4,23.4,3.6c-7.6,18.8-11.4,48.2-11.5,88.3c-0.3,25.8-0.3,52.7,0.2,80.6c19-19.9,37.3-40.5,55.1-61.9
			c24.6-29.7,39.1-62.1,43.5-97c9.2-1.4,16-2.3,20.3-2.7c-4.2,37.1-19.8,72.6-46.8,106.4c-23,29.6-46.8,56.8-71.3,81.5l0.4,21.4
			c0.9,44.3,0.6,88-0.9,130.9c-0.9,42.9-5.8,78.4-14.7,106.7c-4.7,14.7-10.7,26.5-18.1,35.4c-7.4,8.4-16.3,13-26.7,14l-0.8,0.1
			c-16.9,1.6-31.1-1.2-42.7-8.3c-12.1-6.5-21.8-15.8-28.9-27.7c-13.6-21.8-18.2-50.4-13.8-85.9c4.4-35,18.5-68.9,42.3-101.8
			c10.2-14.1,22-28.4,35.5-42.8l19.6-19.1c-1.1-17.4-2-33.3-2.8-47.4c-1.4-20.7-2.5-32.9-3.4-36.7c-1.7,5.1-6,15.4-12.7,30.8
			c-6.8,14.9-16.3,28.4-28.3,40.5c-6.5,6.6-13.7,12.2-21.5,16.8c-7.3,4.5-15.5,6.9-24.8,7.3c-34.3,2.1-59.5-12-75.5-42.3
			c-10.1-19.9-16.2-41.5-18.4-64.9c-1.2-12.5-1-25.7,0.4-39.5c2.5-26,8.9-51.6,19.1-76.6c10.8-25.1,25.8-46.6,45-64.3
			c12.1-11,25.8-19.7,41.2-26.1c13.1-6.2,27.3-10,42.5-11.4c2.7-0.3,5.5-0.2,8.2,0C849.6,1054.41,857.3,1055.61,864.2,1058.21z
			 M872.7,1394.61l-0.2-1.6c-2.5,2.4-4.8,4.8-6.7,7.2c-13,13.3-23.4,25.5-31.1,36.6c-12.1,17-21.2,34.3-27.2,51.9
			c-5.5,17-8.7,32.9-9.5,47.8c-1.7,28.7,3.3,52.3,14.9,71c11.1,18.7,24.2,27.3,39.4,25.9c8.7-0.8,14.7-15.6,18-44.5
			c3.4-28.3,5-61.1,4.8-98.3c0.2-15.9,0-32.1-0.4-48.5C874.2,1425.81,873.6,1409.91,872.7,1394.61z"/>
		<path d="M1190.8,1024.31c7.4,3.1,13.8,6.9,19.2,11.4c10.2,8.9,17.2,19.2,21,30.9c3.9,12.2,5,21.5,3.4,27.6
			c-2.2,0.2-4.9,0.2-8.2-0.1c-2.8-0.3-5.3-1.1-7.6-2.6c1.4-8.4-2.5-20.3-11.6-35.9c-8.6-15.6-22.2-23.1-40.8-22.5
			c-17.4,1.1-32.8,10.2-46,27.3s-23.8,38.2-31.9,63c-4.2,13.6-7.8,27.6-10.9,42.1c-2.5,14.5-4.4,28.7-5.9,42.5
			c-3.4,33.8-2.3,63.5,3.4,89.3c5.1,25.3,15.1,38.1,29.9,38.3c19.8,0.3,38.5-15.9,56.3-48.9c18.3-33,33.8-89.8,46.5-170.5
			c8.7-0.8,18-0.9,28-0.2c9.3,0.2,17.4,1.4,24.2,3.5c-3.2,12.9-6,26.9-8.4,41.9c-2.4,15.6-4.2,31.1-5.5,46.6
			c-2.8,28.8-2.5,54.8,0.7,78.1c2.7,22.8,10.4,34.7,23.1,35.7c14.9,1.3,27.9-9.2,39-31.6c11.1-22.4,19.9-47.7,26.6-75.7
			c3.5-15.1,6.5-30.2,8.9-45.3c2.5-14.5,4.3-27.5,5.4-39.2c9.2-1.4,16-2.3,20.3-2.7c-1.1,12.2-2.7,26.3-5.1,42.4
			c-2.9,16.2-6.5,32.7-11,49.6c-7.5,31.4-18.5,60.1-33.1,86.2c-12.6,23.7-28.4,36.1-47.5,37.4l-6.5,0.6c-8.8-0.3-16.7-2.3-23.6-6
			s-13.1-8.4-18.6-13.9c-10.3-10-17.9-21.6-23-34.9c-5.1-13.2-8.2-23.4-9.4-30.4c-1.7,5.6-5.9,15.9-12.7,30.8
			c-7.3,15.5-17.2,29.6-29.8,42.3c-6.5,6.6-13.7,12.2-21.5,16.8c-7.7,5.1-16.3,7.8-25.6,8.2c-36,1.7-62.1-13.1-78.2-44.5
			c-10.1-19.9-16.3-41.8-18.5-65.7c-1.2-13-1.4-27-0.6-41.9c2.4-26.6,9.3-52.7,20.6-78.4c11.2-26.3,26.7-48.3,46.5-66
			c12.1-11.5,26-20.8,41.8-27.8c13.2-5.6,27.7-9.2,43.4-10.6l9-0.8C1175.9,1020.51,1184,1021.71,1190.8,1024.31z"/>
		<path d="M1832.5,964.21c7.4,3.1,13.8,6.9,19.2,11.4c10.2,8.9,17.2,19.2,21,30.9c3.9,12.2,5,21.5,3.4,27.6
			c-2.2,0.2-4.9,0.2-8.2-0.1c-2.8-0.3-5.3-1.1-7.6-2.6c1.4-8.4-2.5-20.3-11.6-35.9c-8.6-15.6-22.2-23.1-40.8-22.5
			c-17.4,1.1-32.8,10.2-46,27.3s-23.8,38.2-31.9,63c-4.2,13.6-7.8,27.6-10.9,42.1c-2.5,14.5-4.4,28.7-5.9,42.5
			c-3.4,33.8-2.3,63.5,3.4,89.3c5.1,25.3,15.1,38.1,29.9,38.3c19.8,0.3,38.5-15.9,56.3-48.9c18.3-33,33.8-89.8,46.5-170.5
			c8.7-0.8,18-0.9,28-0.2c9.3,0.2,17.4,1.4,24.2,3.5c-3.2,12.9-6,26.9-8.4,41.9c-2.4,15.6-4.2,31.1-5.5,46.6
			c-2.8,28.8-2.5,54.8,0.7,78.1c2.7,22.8,10.4,34.7,23.1,35.7c14.9,1.3,27.9-9.2,39-31.6c11.1-22.4,19.9-47.7,26.6-75.7
			c3.5-15.1,6.5-30.2,8.9-45.3c2.5-14.5,4.3-27.5,5.4-39.2c9.2-1.4,16-2.3,20.3-2.7c-1.1,12.2-2.7,26.3-5.1,42.4
			c-2.9,16.2-6.5,32.7-11,49.6c-7.5,31.4-18.5,60.1-33,86.2c-12.6,23.7-28.4,36.1-47.5,37.4l-6.5,0.6c-8.8-0.3-16.7-2.3-23.6-6
			s-13.1-8.4-18.6-13.9c-10.3-10-17.9-21.6-23-34.9c-5.1-13.2-8.2-23.4-9.4-30.4c-1.7,5.6-5.9,15.9-12.7,30.8
			c-7.3,15.5-17.2,29.6-29.8,42.3c-6.5,6.6-13.7,12.2-21.5,16.8c-7.7,5.1-16.3,7.8-25.6,8.2c-36,1.7-62.1-13.1-78.2-44.5
			c-10.1-19.9-16.3-41.8-18.5-65.7c-1.2-13-1.4-27-0.6-41.9c2.4-26.6,9.3-52.7,20.6-78.4c11.2-26.3,26.7-48.3,46.5-66
			c12.1-11.5,26-20.8,41.8-27.8c13.2-5.6,27.7-9.2,43.4-10.6l9-0.8C1817.6,960.41,1825.7,961.51,1832.5,964.21z"/>
	</g>
	<g class="st0">
		<path d="M818,457.11c6.4,9.2,8.5,15.7,6.4,19.6c-15.6,3.3-28.9,8.8-39.8,16.6c-11.5,7.8-21,17.3-28.6,28.4
			c-11.8,18.3-19.2,39.8-22.4,64.6c-3.2,24.2-3.1,48.4,0.4,72.6c5.9,36.8,18.1,69.1,36.6,96.7c19.1,27.6,41.4,40.2,67,37.8
			c11.5-1.1,21.9-4.8,31.1-11.2c8.6-6.3,16.1-14.7,22.5-25.1c8-13,13.9-28,17.9-44.9c-20.5-9.1-37.1-26.8-50-53.2
			c-16.6-33.4-25.9-67.1-27.9-101.2c-1.4-28,2.4-52.6,11.5-73.7s24.4-31.1,45.9-30c24.6,1.4,43.4,18.6,56.3,51.7s18.6,70.6,17,112.4
			c-1.2,26.5-5.5,52.6-12.9,78.4c12.7-1.8,25.3-7.9,37.8-18.2c18.2-14.6,33.5-31.9,45.7-52.1c6.9-11.1,12.3-22.3,16.1-33.7
			c4.4-11.4,7.1-22.1,8-32c4.9-0.5,12.2-0.8,21.9-1.1c-1.6,22.2-10.1,46.3-25.4,72.2c-15.3,25.9-33.6,46.9-54.7,63
			c-11.4,9-23.3,15.7-35.8,19.9c-7.1,2.5-14.3,4.1-21.6,4.8c-6.9,18.4-16.1,34.6-27.6,48.5c-9.4,11.3-20.4,20.6-33.2,27.9
			c-13.4,7.4-28,11.8-43.8,13.3c-24.3,2.3-46.4-1.2-66.2-10.3c-20.5-9.1-37.9-22.2-52.4-39.2c-27.4-31.1-44.8-69.9-52.3-116.4
			l-1.5-15.5c-3.8-40.7,2.9-77.5,20-110.3c9.9-18.7,24-35,42.3-49c17.7-13.9,39.5-23.3,65.4-28.2
			C802.2,441.71,811,447.31,818,457.11z M907.1,525.01c-7.1-30-15.9-45.7-26.5-47.1c-11.2-2-18.1,6-20.7,24
			c-3.3,17.5-2.8,38.2,1.2,62.4c4.6,29.6,13.4,58.5,26.5,86.7c7.8,17.6,16.3,30,25.5,37.1c3.6-20.6,5.6-41.6,6-63.1
			C918.8,588.21,914.8,554.91,907.1,525.01z"/>
		<path d="M1358.6,400.91c5,0.8,9,1.6,12.2,2.5c-34.5,63.9-65.9,127.5-94.2,190.8l40.6,100c13.6,34.3,27.5,51.6,41.6,52.2
			c17.2,0.2,31.9-12.5,44.2-38.1c12.4-25,22.5-53.6,30.6-85.6c3.9-16.9,7.3-33.5,10.1-49.6c2.7-16.8,4.7-31.4,6-43.8
			c4.8-1.1,12-2.4,21.7-3.9c-1.9,25.3-6.6,56.7-14.2,94.1s-19.2,69.8-35,97c-8.4,14.9-18,26.8-28.8,35.8c-9.6,8.3-20.5,13-32.7,14.1
			l-3.6,0.3c-11.6,0.5-22.9-2.1-33.8-7.9c-11-6.3-21.3-14.5-30.8-24.7c-14.2-14.6-27.6-32.6-40-54.1c-2.9-5.2-6.2-10.4-9.7-15.6
			c-21.1,42.4-45.1,84.8-71.7,127.1c-4.3,0.4-8.9,0.2-13.8-0.5c-4.4-1.4-8.2-2.9-11.4-4.4c31.1-47,59-95.9,83.7-146.6l-11.8-27.4
			c-20.5-42.8-38.4-82.5-53.4-119.1c-15.7-37.1-29-54.9-39.9-53.2c-7.9,0.7-14.8,9-20.6,24.9c-5.3,15.8-9.2,32.1-12,48.9
			c-2.6,11.9-4.3,22.5-5.3,31.7c-1.5,9.9-2.4,16.8-2.7,20.5c-4.3,0.4-8.2,1.1-11.8,2c-3,0.3-6.4,0.3-10.1,0c0.6-6.2,2.5-19.5,5.4-40
			c2.3-21,6.9-41.1,13.7-60.1c4.9-12.7,10.6-23.7,17.1-32.9c6.5-9.2,14.6-14.5,24.2-16.1l1.8-0.2c16.4-1.5,31.4,1.7,45,9.6
			c14.3,8.5,27.3,20.1,39.1,34.9c12.5,15.4,24,33.6,34.5,54.7c7.6,15.2,14.8,30.8,21.8,46.7c25.4-55.7,52.7-110.9,81.9-165.7
			C1350.2,399.01,1354.2,399.51,1358.6,400.91z"/>
		<path d="M1535.6,622.31c6.3,28.2,15.6,52.1,27.9,71.8c12.3,19.7,27.6,29.9,46.1,30.6c28.9,1.6,59.1-6.5,90.6-24.1
			c31.4-17.6,58.7-43.2,82-76.6c12.4-18.3,22.7-38.6,31.1-60.8c8.9-22.9,15.2-47.4,18.9-73.4l21.9-2c-5.5,52.6-21.1,98.2-46.9,136.7
			c-25.8,38.6-55.2,68.3-88.1,89.1c-18,10.9-36.2,19-54.7,24.4c-11.9,3.6-23.3,5.9-34.3,6.9c-6.7,0.6-13.4,0.9-20.1,1
			c-32-1.3-59.2-7.9-81.8-19.9c-22.5-11.4-40.7-26.2-54.7-44.5c-10.4-13.1-18.5-27.7-24.3-43.7c-5.7-15.4-9.4-31.6-11-48.6l-0.1-0.9
			c-2.9-31,0.6-61.9,10.6-92.9c10.5-31.6,26.1-58.2,46.7-79.7c14-14.2,30.1-25.5,48.3-33.9c13.5-6.8,27.8-10.9,43-12.3
			c5.5-0.5,11-0.7,16.5-0.6c27,0.5,46,13.8,57,39.7c11.6,25.9,6.7,52.1-14.7,78.6c-12.2,14-30,26.7-53.4,38.1
			c-17.5,9-38.9,16.2-64.1,21.6c0.2,9.2,0.8,18.3,1.6,27.4C1530.2,590.71,1532.3,606.71,1535.6,622.31z M1616.1,481.61
			c20-22.1,27.1-44.2,21.4-66.3c-5.1-22.2-16.3-33.1-33.4-32.7c-24.6-0.8-43.1,13.5-55.7,42.9c-12,28.7-19,62.1-20.9,100.3
			c0.1,0.6-0.2,1.2-0.7,1.9c16.8-3.4,31.4-8.1,43.7-14.2C1590.4,504.21,1605.6,493.61,1616.1,481.61z"/>
		<path d="M1916.5,519.61c-1.8,0.8-3.6,1.3-5.4,1.4c-1.2,0.1-2.8,0-4.6-0.5c-4.3-0.2-8.5-2-12.4-5.3c-1.2-33-5-69.4-11.2-109.2
			c-5.6-39.9-12.1-79.7-19.5-119.5l-24.7-136.4c-5.1-28.3-8.6-52.8-10.6-73.4c-1-10.9-1.7-21-1.9-30.1c-0.8-14.6,0.3-26.1,3.2-34.3
			c2.4-7.6,6.6-11.6,12.6-12.2l0.9-0.1c11-0.4,20.7,11.2,29,35c7.8,24.4,14.4,55.3,19.7,92.8c3.1,19.9,6,41.4,8.8,64.4
			c2.2,23.1,4,46.5,5.7,70.2c3.7,46.2,6.5,91.9,8.2,137.1l4.7,119C1918.6,519.11,1917.7,519.51,1916.5,519.61z M1946.8,695.91
			c-0.9,3.8-2.4,7.6-4.4,11.4c-4.3,6.5-10.1,10.1-17.4,10.8l-0.9,0.1c-6.7,0.6-13-1.5-19-6.5c-5.4-5-8.6-10.5-9.8-16.5l-0.2-1.8
			c-0.5-4.9,1.2-10.2,4.9-16.1c4.3-5.9,9.8-9.5,16.5-10.7l0.9-0.1c6.1,0,12.5,2.2,19,6.5c6,5,9.5,10.1,10.6,15.5
			C1947.3,691.01,1947.2,693.51,1946.8,695.91z"/>
	</g>
	<g class="st0">
		<path d="M65.5,1870.61l1.6-0.2c8.2-0.8,18.4-0.1,30.6,2.1c5.1,13.2,10.1,32,15.1,56.2c4.5,24.3,9.3,49.6,14.5,76
			c8.1,39.8,18.2,76.7,30.1,110.7c12,34,27.8,51.1,47.6,51.5c12.1,0.5,22.6-10.3,31.5-32.6c5.2-14.7,9.7-30.8,13.6-48.2
			c-6.5-5.4-12.7-12.5-18.4-21.3c-13.5-21.2-23.1-44.7-28.8-70.5c-6.2-31.2-5.9-60.3,0.9-87.3c7.4-26.5,22.7-39.1,45.8-38
			c16.5,0.6,28.4,10,35.5,27.9c6.6,18,10,39.9,10.3,65.7c-0.3,14.3-1.4,28.9-3.3,43.9s-4.6,30-8.1,45.2c-2.3,10.1-5,19.7-8,28.7
			c4.6,2.3,9.1,3.5,13.5,3.7c16.1,2.3,32.1-3,47.9-16c16.3-13,29.9-28.6,40.9-46.6c6.2-9.9,11.3-20,15.3-30.2
			c3.4-10.2,5.6-19.7,6.4-28.6c4.3-0.4,10.9-0.7,19.6-1c-1.4,19.9-8.7,41.4-21.9,64.6c-13.7,23.2-30.1,42-49,56.4
			c-10.2,8.1-20.9,14-32.1,17.8s-22.1,4.5-32.7,2.2c-5-0.6-9.5-1.9-13.5-3.7c-6.2,15.9-13,30.8-20.5,44.7
			c-14,26-28.9,39.7-44.7,41.2l-2.4,0.2c-17.4,1.1-32.9-2.9-46.4-12.1c-12.9-9.2-24.8-21.5-35.5-37c-15.3-23.2-27.8-51.1-37.5-83.7
			c-9.6-32.5-17.7-63.6-24.4-93.1c-3.2-16.2-6.5-31.2-10-45.1c-3-14-6-26-9.1-36.2C49.4,1873.71,57.9,1871.31,65.5,1870.61z
			 M259.9,1951.91c-2-33.3-8.1-50.8-18.1-52.6c-10.6-1.8-17.1,4.9-19.5,19.9c-1.9,15-1,32.7,2.5,53.2c4.5,24.8,12.5,49,24.1,72.6
			c2.1,4.7,4.1,8.9,6.1,12.6c-0.1-0.5,0.2-1.1,0.7-1.7C260.5,2019.81,261.9,1985.21,259.9,1951.91z"/>
		<path d="M411.6,1842.31c4.3-0.4,8.7-0.5,13.1-0.4c11.6,0.6,20.8,2.2,27.6,4.8c-1.8,28.1-2.8,55.1-3.1,80.9
			c-0.3,26.3,0.1,50.7,1.1,73.1c2.3,42,7.9,76,17,102c9.6,26,23.1,39,40.7,39c15.4,0.7,28.6-10.4,39.6-33.3
			c11.6-23,20.7-48.5,27.4-76.6c3.5-15.1,6.5-30.2,8.9-45.3c2.5-14.5,4.3-27.5,5.4-39.2c4.3-0.4,10.8-1.3,19.5-2.6
			c-2.1,24.3-6.9,54.9-14.4,91.8c-8.1,36.9-20,67.1-35.9,90.6c-7.3,10-15,18.1-23.2,24.4c-7.2,5.1-15.2,8-23.8,8.8l-4.9,0.5
			c-45-0.2-77.4-24.3-97.3-72.3c-8.5-20.6-14.2-46.6-17.2-78.2c-4.1-44-3.2-98.7,2.7-163.9C400,1844.21,405.7,1842.81,411.6,1842.31
			z M453.1,1705.11c3.8,5.1,5.9,10.7,6.5,16.7l0.4,4.1c-0.4,7.2-3.9,13.5-10.5,19.1c-6.1,5-12.4,7.7-19,8.4l-2.4,0.2
			c-7.1,0.1-12.6-2.4-16.3-7.5c-3.1-3.5-4.8-7.8-5.3-12.7c-0.2-1.6-0.1-3.6,0.3-5.8c0.4-7.2,3-14.3,7.9-21.3
			c4.3-6.4,10.6-10,18.7-10.8l0.8-0.1C442.2,1694.61,448.6,1697.91,453.1,1705.11z"/>
		<path d="M588.8,1925.21c0.4-7.2,0.5-14.9,0.3-23.1c-8.1-4.7-14.5-8.2-19.1-10.5c-8.6-4.1-15.4-9-20.3-14.6
			c-5-6.1-8.9-12.6-11.7-19.5c-2.2-5.8-3.5-11.5-4.1-16.9c-1-10.3,0.8-20.6,5.3-30.9c5.8-14.3,15.5-22,29.1-23.3l3.3-0.3
			c4.4,0.1,8.6,1.4,12.7,3.7c3.5,2.4,6.6,6,9.2,10.7c3.9,6.2,7.1,13.9,9.6,23c2,9.1,3.7,18.8,5.2,29.1c0.6,6.5,0.9,12.8,0.9,18.8
			l30.8,12.7c28.7,13.2,56.6,30.1,83.7,50.6c17.7,13.7,33.1,28.7,46.2,45c13.1,16.9,20.5,34.5,22.2,53c8.8-5.2,17.3-10.9,25.5-17.2
			c17-12,31.6-25.7,43.9-41.1c11.7-15.4,18.5-33.5,20.4-54.6c9.2-1.4,15.9-2.6,20.2-3.5c-1.7,22.6-8.3,42.7-19.9,60.3
			c-11.6,17-25.8,32.3-42.6,45.9c-14.7,12.3-30.5,23.1-47.1,32.4c-0.3,8.3-1.5,16.3-3.5,24.2c-3.6,14-8.7,27.1-15.2,39.3
			c-15.4,28.3-35.6,47.5-60.4,57.5c-6.3,2.8-12.5,4.5-18.4,5c-15.2,1.4-27.1-4.9-35.5-18.9c-6.6-12-9-22.5-7.1-31.4
			c1.9-9.5,7.1-18.2,15.6-26.1c13.6-13.3,33.2-25.9,59-37.6l-1.1-12.2c-3.5-26-15.4-50.1-35.6-72.3c-20.7-22.2-42-41-63.7-56.5
			l-17.5-11.5c-0.1,17-0.6,28.8-1.6,35.5c-8.7,0.3-15.3,0.6-19.6,1C588.5,1945.21,588.8,1936.71,588.8,1925.21z M587.9,1861.91
			c-0.5-10.9-1.5-21.8-3.1-32.6c-2.2-17.9-6.4-26.8-12.4-26.8c-10.4,0.4-15.7,8.3-15.9,23.7c-0.7,16,8.9,27.4,28.7,34.3
			C585.9,1861.01,586.7,1861.51,587.9,1861.91z M725.9,2088.41c-14.1,7.4-25.8,14.5-35,21.4s-15.4,13.8-18.6,20.7
			c-3.7,6.9-3.3,14.3,1.2,22.1c5.2,8.8,12.7,9.5,22.4,2c9.1-8,16.7-20.2,22.9-36.7C722.4,2109.21,724.7,2099.41,725.9,2088.41z"/>
		<path d="M1025.2,1779.81c9.3-0.3,17.4,0.8,24.2,3.5c7.4,3.1,13.8,6.9,19.2,11.4c10.2,8.9,17.2,19.2,21,30.9
			c3.9,12.2,5,21.5,3.4,27.6c-2.2,0.2-4.9,0.2-8.2-0.1c-2.8-0.3-5.3-1.1-7.6-2.6c1.4-8.4-2.5-20.3-11.6-35.9
			c-8.6-15.6-22.2-23.1-40.8-22.5c-17.4,1.1-32.8,10.2-46,27.3s-23.8,38.2-31.9,63c-4.2,13.6-7.8,27.6-10.9,42.1
			c-2.5,14.5-4.4,28.7-5.9,42.5c-3.4,33.8-2.3,63.5,3.4,89.3c5.1,25.3,15.1,38.1,29.9,38.3c19.8,0.3,38.5-16,56.3-48.9
			c18.3-33,33.8-89.8,46.5-170.5c8.7-0.8,18-0.9,28-0.2c9.3,0.2,17.4,1.4,24.2,3.5c-3.2,12.9-6,26.9-8.4,41.9
			c-2.4,15.6-4.2,31.1-5.5,46.6c-2.8,28.8-2.5,54.8,0.7,78.1c2.7,22.8,10.4,34.7,23.1,35.7c14.9,1.3,27.9-9.2,39-31.6
			c11.1-22.4,19.9-47.7,26.6-75.7c3.5-15.1,6.5-30.2,8.9-45.3c2.5-14.5,4.3-27.5,5.4-39.2c9.2-1.4,16-2.3,20.3-2.7
			c-1.1,12.2-2.7,26.3-5.1,42.4c-2.9,16.2-6.5,32.7-11,49.6c-7.5,31.4-18.5,60.1-33.1,86.2c-12.6,23.7-28.4,36.1-47.5,37.4l-6.5,0.6
			c-8.8-0.3-16.7-2.3-23.6-6s-13.1-8.4-18.6-13.9c-10.3-10-17.9-21.6-23-34.9c-5.1-13.3-8.2-23.4-9.4-30.4
			c-1.7,5.6-5.9,15.9-12.7,30.8c-7.3,15.5-17.2,29.6-29.8,42.3c-6.5,6.6-13.7,12.2-21.5,16.8c-7.7,5.1-16.3,7.8-25.6,8.2
			c-36,1.7-62.1-13.1-78.2-44.5c-10.1-19.9-16.3-41.8-18.5-65.7c-1.2-13-1.4-27-0.6-41.9c2.4-26.6,9.3-52.7,20.6-78.4
			c11.2-26.3,26.7-48.3,46.5-66c12.1-11.5,26-20.8,41.8-27.8c13.2-5.6,27.7-9.2,43.4-10.6L1025.2,1779.81z M961.3,1677.21
			c-6.5,1.2-12,3.3-16.7,6.5c-4.6,3.2-8.4,7.1-11.2,11.7c-7.2,11.1-10.9,24.1-11.2,38.9c-0.1,4.4,0,8.5,0.3,12.3
			c0.7,7.6,2.3,12.7,4.7,15.2l6.5-0.6c2.7-0.3,5.1-1.3,7.1-3.1c-3.1-4.1-2.5-11.8,1.9-23.2c4.5-10.8,11.6-16.4,21.5-16.8
			c8.8,0.3,17.1,4.2,24.9,11.6c7.9,8,17,15.1,27.5,21.3c5.2,3.3,11.3,6.1,18,8.2c5.6,1.7,12,2.2,19.1,1.5l4.1-0.4
			c18.9-2.9,31-14.4,36.2-34.7c3.8-12.4,5.3-22.7,4.5-30.9c-0.5-4.9-1.7-8.9-3.6-12c-1.6,0.7-4,1.2-7.3,1.5
			c-2.7,0.8-4.7,2.1-6.2,3.9c2.6,4.1,1,10.3-4.8,18.5c-5.2,8.7-13.8,13.6-25.8,14.8c-4.3,0.4-8.8-0.8-13.5-3.7
			c-4.6-2.3-9-5.2-13.1-8.6c-8.9-7.4-18.4-14.7-28.4-22c-10.1-7.8-21.3-11.2-33.8-10L961.3,1677.21z"/>
		<path d="M1343.4,1761.51c5.7,8.2,7.6,14.1,5.8,17.6c-14,3-25.9,7.9-35.6,14.9c-10.3,7-18.8,15.5-25.6,25.4
			c-10.5,16.3-17.2,35.6-20.1,57.8c-2.9,21.7-2.8,43.3,0.3,64.9c5.3,33,16.2,61.8,32.8,86.6c17.1,24.7,37.1,36,59.9,33.9
			c10.3-1,19.6-4.3,27.9-10c7.7-5.7,14.4-13.1,20.1-22.4c7.1-11.6,12.5-25,16-40.2c-18.3-8.2-33.2-24-44.8-47.6
			c-14.9-29.9-23.2-60.1-24.9-90.6c-1.3-25.1,2.2-47.1,10.3-65.9c8.1-18.9,21.8-27.8,41.1-26.9c22,1.2,38.8,16.6,50.4,46.3
			c11.5,29.6,16.6,63.1,15.2,100.6c-1.1,23.7-4.9,47.1-11.5,70.2c11.4-1.6,22.6-7.1,33.8-16.3c16.3-13,29.9-28.6,40.9-46.6
			c6.2-9.9,11-20,14.4-30.1c4-10.2,6.4-19.8,7.2-28.6c4.3-0.4,10.9-0.7,19.6-1c-1.4,19.9-9,41.4-22.7,64.6
			c-13.7,23.2-30.1,42-49,56.4c-10.2,8.1-20.9,14-32.1,17.8c-6.4,2.2-12.8,3.7-19.3,4.3c-6.1,16.5-14.4,31-24.7,43.4
			c-8.4,10.1-18.3,18.4-29.7,25c-12,6.6-25.1,10.6-39.2,11.9c-21.7,2-41.5-1-59.3-9.3c-18.3-8.2-33.9-19.9-46.9-35.1
			c-24.5-27.9-40.1-62.6-46.8-104.2l-1.3-13.9c-3.4-36.4,2.5-69.3,17.9-98.7c8.9-16.7,21.5-31.3,37.8-43.9
			c15.8-12.5,35.3-20.9,58.5-25.2C1329.2,1747.81,1337.1,1752.81,1343.4,1761.51z M1423.1,1822.31c-6.4-26.8-14.3-40.9-23.7-42.2
			c-10-1.8-16.2,5.4-18.6,21.5c-2.9,15.6-2.5,34.2,1.1,55.8c4.1,26.5,12,52.3,23.7,77.6c7,15.8,14.6,26.9,22.9,33.2
			c3.2-18.4,5-37.2,5.4-56.4C1433.6,1878.91,1430,1849.11,1423.1,1822.31z"/>
		<path d="M1621.2,2066.11c-7.9-2-12.6-6.2-14.3-12.6c-0.7-1.6-1.1-3.2-1.3-4.8c-0.5-4.9,0.4-9.9,2.7-15.1
			c3.2-6.9,7.7-11.4,13.5-13.6l4.1-0.4c4.9-0.5,9.7,1,14.4,4.4c6.9,3.7,11.4,13.2,13.4,28.4l0.2,1.6c1.3,14.1-0.7,27.5-6.1,40.1
			c-5.9,13.2-14.3,23.3-25.1,30.3l-4.1,0.4c-1.2-1-1.9-2.3-2-3.9c8.6-7.9,15.1-17.6,19.5-29c3.9-10.8,4.9-21,2.9-30.7
			C1634.3,2066.01,1628.4,2067.71,1621.2,2066.11z"/>
	</g>
	<g class="st0">
		<path d="M1726,1651.81c11.4-6.7,21.2-9.6,29.5-8.4c5.6,19.7,10.4,40.1,14.3,61.2c3.9,21.7,7.7,42.2,11.4,61.4
			c2.9-9.1,9.4-24.6,19.3-46.3c9.3-21.7,21.4-41.1,36.2-58.3c8-9,17.1-16.7,27.2-23.4c9.5-5.9,19.7-9.1,30.4-9.5
			c15.7-0.8,30.1,5.1,43.3,17.7c13.2,12.7,24,26.8,32.4,42.4c4.6,8.4,8.2,16.6,10.8,24.6c3.3,7.9,5.2,14.7,5.7,20.3
			c4.7-10.5,13.1-25.5,25.1-45c12-20.1,25.8-37.5,41.5-52.2c8.7-8.4,17.5-15.2,26.5-20.5c8.5-3.9,16.5-6.3,24-7l4.7-0.4
			c16.4-0.3,30.1,4.4,41.1,14.1c11,9.7,19.8,22.8,26.4,39.2c7.8,16.3,13.7,35.3,17.7,57.1c4,22.4,7,44.8,9.1,67.3
			c3.9,41.9,7.2,80.4,9.9,115.5s10,53.3,22.2,54.7c23.6,2.8,44.1-8.2,61.3-33.2s31-53.4,41.2-85.3c7.5-20.9,13.2-41.3,17-61.2
			c4.4-20,7.3-36.4,8.7-49.1l22.5-2.1c-1.7,15.3-4.9,35.8-9.4,61.5c-5.2,25.7-12.5,51.7-22.1,77.8c-5,13.7-11.1,26.9-18.1,39.6
			c-7,12.7-14.5,24.1-22.4,34.3c-10.8,12.4-22.9,22-36.1,29c-9,4.6-18.6,7.4-28.6,8.4c-5.6,0.5-11,0.7-16,0.6
			c-15.9-1-29.4-6.7-40.4-17c-11.1-11-20.3-24.6-27.5-41c-7.8-16.3-14-35.3-18.6-57s-8.2-43.4-10.9-65.3
			c-5.1-41.2-8.9-78.4-11.4-111.6c-2.5-33.2-8.5-50-18-50.4c-8.3-0.5-16.8,2.2-25.8,8.1c-9,5.3-17.7,12.7-26.3,22.4
			c-15.4,17.2-29.1,39.7-41,67.3c-11.4,26.9-15.8,53.9-13.3,80.8c1.6,23.8,2.6,41.7,3.1,53.7l4.7,49.8c-8.4,5.2-18.2,8.3-29.4,9.4
			c-11.3,0.4-21-1.8-29-6.7c-0.7-13.8-2-31.7-4.1-53.6c-2.7-22.5-5.8-45.5-9.3-69.2c-5.8-35.4-12.6-67.6-20.4-96.6
			c-8.4-28.9-17.9-43.1-28.6-42.8c-15.1,0.8-29.9,10.7-44.6,29.7c-13.9,19.6-25.8,41.2-35.6,64.9c-6.1,15.7-11,31-14.6,45.9
			c-3.6,15.5-4.9,28.2-4,38.3c2.4,32.6,4.8,61.4,7.2,86.4s4.6,52.3,6.7,81.8c-9.2,3.4-19.6,6.9-31.2,10.5
			c-11.7,3.6-22.2,2.7-31.5-2.7c-0.9-36.5-2.8-76.8-5.6-120.7c-2.9-44.5-6.8-85.5-11.5-123c-3.1-19.9-6.4-37.9-9.8-54
			s-6.9-29.3-10.4-39.7C1706.5,1665.91,1714.7,1658.51,1726,1651.81z"/>
		<path d="M2356.2,1586.11c5-0.5,10-0.6,15.1-0.5c13.3,0.6,23.9,2.5,31.8,5.5c-2,32.4-3.2,63.4-3.6,93.1
			c-0.3,30.3,0.1,58.4,1.3,84.2c2.6,48.4,9.1,87.5,19.5,117.5c11,29.9,26.6,44.9,46.8,44.9c17.8,0.9,33-11.9,45.6-38.4
			c13.3-26.5,23.8-55.9,31.5-88.2c4-17.4,7.5-34.8,10.3-52.1c2.9-16.7,4.9-31.7,6.2-45.1c5-0.5,12.5-1.5,22.4-3
			c-2.4,28-8,63.2-16.6,105.7c-9.3,42.5-23.1,77.3-41.4,104.3c-8.4,11.5-17.3,20.9-26.7,28.1c-8.3,5.8-17.4,9.2-27.5,10.1l-5.6,0.5
			c-51.8-0.2-89.1-27.9-112-83.3c-9.8-23.7-16.4-53.7-19.8-90c-4.8-50.7-3.7-113.6,3.1-188.7
			C2342.8,1588.31,2349.3,1586.81,2356.2,1586.11z M2403.9,1428.21c4.3,5.9,6.8,12.3,7.5,19.2l0.4,4.7c-0.5,8.3-4.5,15.6-12.1,22
			c-7,5.7-14.3,8.9-21.8,9.6l-2.8,0.3c-8.2,0.1-14.5-2.7-18.8-8.7c-3.5-4.1-5.6-8.9-6.1-14.6c-0.2-1.9-0.1-4.1,0.3-6.7
			c0.5-8.3,3.5-16.4,9.1-24.5c5-7.4,12.2-11.6,21.6-12.4l0.9-0.1C2391.4,1416.21,2398.7,1419.91,2403.9,1428.21z"/>
		<path d="M2743.4,1554.61c7.9,3.1,14.9,7.1,21,12.2c11,9.7,18.7,21.3,23.1,34.8c4.4,13.5,6,23.4,4.7,29.9c-2.4,0.9-5.6,1.2-9.4,0.9
			c-3.2-0.3-6.1-1.3-8.8-3c1.6-9.6-2.5-23.1-12.3-40.5s-25.1-25.4-45.8-24.1c-10.7,0.4-20.5,3.5-29.4,9.4s-17.3,14.2-25.1,25.1
			c-14,19-25.3,43.1-33.9,72.3c-8.6,29.2-14.4,58.8-17.3,88.7c-3.5,36.9-2.3,69.7,3.5,98.2c5.9,29.1,17,43.5,33.4,43.3
			c22.1,0.5,43.2-17.6,63.1-54.2c20.5-37.3,37.6-100.7,51.3-190.4c10.6-1,21.4-1.1,32.2-0.2c10.8,0.3,19.7,1.6,26.9,4.1
			c-8.7,21.6-13.1,55.5-13.2,101.6c-0.4,29.7-0.3,60.6,0.2,92.8c21.8-22.9,43-46.6,63.4-71.3c28.4-34.2,45.1-71.5,50.1-111.7
			c10.6-1.6,18.4-2.7,23.4-3.1c-4.8,42.8-22.8,83.6-53.9,122.5c-26.5,34-53.8,65.3-82.1,93.9l0.4,24.6c1,51,0.6,101.3-1,150.7
			c-1.1,49.3-6.7,90.3-16.9,122.8c-5.4,16.9-12.3,30.5-20.8,40.8c-8.6,9.6-18.8,15-30.7,16.1l-0.9,0.1c-19.4,1.8-35.8-1.4-49.2-9.6
			c-14-7.5-25.1-18.2-33.3-31.9c-15.6-25.1-20.9-58-15.9-98.9c5.1-40.2,21.3-79.3,48.7-117.2c11.7-16.3,25.3-32.7,40.8-49.3l22.6-22
			c-1.2-20.1-2.3-38.3-3.2-54.6c-1.6-23.8-2.9-37.9-4-42.2c-2,5.9-6.9,17.7-14.7,35.5c-7.9,17.2-18.7,32.7-32.6,46.6
			c-7.5,7.6-15.7,14.1-24.7,19.4c-8.3,5.2-17.9,8-28.6,8.4c-39.5,2.4-68.5-13.8-86.9-48.7c-11.6-22.9-18.7-47.8-21.2-74.7
			c-1.3-14.4-1.2-29.6,0.5-45.5c2.9-29.9,10.2-59.4,22-88.2c12.4-28.9,29.7-53.6,51.8-74c14-12.7,29.8-22.7,47.4-30
			c15.1-7.1,31.4-11.5,49-13.1c3.1-0.3,6.3-0.3,9.5,0.1C2726.6,1550.21,2735.5,1551.51,2743.4,1554.61z M2753.2,1941.91l-0.2-1.9
			c-2.9,2.8-5.5,5.6-7.7,8.3c-15,15.3-26.9,29.4-35.8,42.2c-13.9,19.6-24.4,39.5-31.3,59.8c-6.4,19.5-10,37.9-10.9,55
			c-2,33,3.8,60.3,17.1,81.7c12.7,21.5,27.9,31.5,45.4,29.8c10-0.9,16.9-18,20.8-51.2c3.9-32.6,5.7-70.3,5.5-113.2
			c0.2-18.3,0-36.9-0.5-55.8C2755,1977.71,2754.2,1959.51,2753.2,1941.91z"/>
		<path d="M2920.7,1647.81c0.5-8.3,0.6-17.1,0.4-26.5c-9.3-5.4-16.7-9.5-22-12.1c-9.9-4.8-17.7-10.3-23.3-16.8
			c-5.7-7-10.2-14.5-13.5-22.4c-2.5-6.7-4.1-13.2-4.7-19.4c-1.1-11.9,0.9-23.8,6.1-35.6c6.7-16.4,17.8-25.3,33.5-26.8l3.8-0.4
			c5.1,0.2,9.9,1.6,14.6,4.3c4,2.8,7.6,6.9,10.6,12.3c4.5,7.2,8.1,16,11,26.4c2.2,10.5,4.2,21.7,6,33.5c0.7,7.5,1.1,14.7,1.1,21.7
			l35.5,14.7c33,15.2,65.1,34.6,96.4,58.2c20.4,15.8,38.1,33,53.2,51.8c15.1,19.4,23.6,39.8,25.6,61c10.2-6,20-12.6,29.4-19.8
			c19.5-13.8,36.4-29.6,50.5-47.3c13.5-17.7,21.3-38.6,23.5-62.8c10.6-1.6,18.3-3,23.3-4.1c-2,26.1-9.6,49.2-22.9,69.4
			c-13.3,19.6-29.7,37.2-49,52.9c-17,14.2-35.1,26.6-54.3,37.3c-0.4,9.5-1.7,18.8-4,27.8c-4.2,16.2-10,31.2-17.5,45.2
			c-17.8,32.6-41,54.7-69.6,66.2c-7.3,3.2-14.4,5.1-21.2,5.8c-17.5,1.6-31.1-5.6-40.9-21.7c-7.6-13.8-10.3-25.9-8.1-36.2
			c2.1-10.9,8.1-21,18-30.1c15.6-15.3,38.2-29.8,67.9-43.3l-1.3-14.1c-4.1-29.9-17.7-57.7-40.9-83.3c-23.9-25.5-48.3-47.2-73.3-65.1
			l-20.2-13.3c-0.1,19.6-0.7,33.2-1.8,40.9c-10.1,0.3-17.6,0.7-22.6,1.2C2920.3,1670.91,2920.7,1661.11,2920.7,1647.81z
			 M2919.5,1575.01c-0.5-12.6-1.7-25.1-3.5-37.5c-2.6-20.6-7.3-30.9-14.3-30.9c-12,0.5-18,9.6-18.3,27.3
			c-0.8,18.4,10.2,31.6,33.1,39.5C2917.2,1574.01,2918.2,1574.51,2919.5,1575.01z M3078.4,1835.71c-16.3,8.5-29.7,16.7-40.3,24.6
			c-10.6,7.9-17.8,15.9-21.4,23.8c-4.3,8-3.8,16.5,1.4,25.4c6,10.2,14.6,10.9,25.8,2.3c10.5-9.2,19.3-23.3,26.3-42.2
			C3074.4,1859.71,3077.1,1848.41,3078.4,1835.71z"/>
	</g>
</g>
</svg>
